<?xml version="1.0" encoding="utf-8" ?>
<svg baseProfile="full" height="200mm" version="1.1" viewBox="0,0,200,200" width="200mm" xmlns="http://www.w3.org/2000/svg" xmlns:ev="http://www.w3.org/2001/xml-events" xmlns:xlink="http://www.w3.org/1999/xlink"><defs /><rect fill="#1a1a1a" height="200" width="200" x="0" y="0" /><text alignment-baseline="middle" fill="#e1ed5e" style="dominant-baseline: central; font-size:9.0px; font-family:Arial;" text-anchor="middle" x="100.0" y="100.0">2024</text><line stroke="#e1ed5e" stroke-width="0.3" x1="100.0" x2="100.0" y1="15.0" y2="10.0" /><path d="M 100.0 14.0 a86.0,86.0 0 0,1 42.35913384403234,11.155469271406648" fill="none" id="id109" stroke="none" /><text fill="#e1ed5e" style="font-size:6.75px; font-family:Arial;" text-anchor="middle"><textPath startOffset="22.145653131862478" xlink:href="#id109">January</textPath></text><path d="M 100.0 79.0 l 0.0 -13.196433087245872 a34.19643308724587,34.19643308724587 0 0,0 0.5870272468104485,0.005038922895299423 l -0.22653432196159365 13.194488562545008" fill="red" stroke="none" /><path d="M 101.80034050326958 79.07731436759882 l 2.267539463934079 -26.352245742844442 a47.44962364404759,47.44962364404759 0 0,0 0.8109376496697854,0.07679663855242409 l -2.7195766769888774 26.309437348786833" fill="red" stroke="none" /><path d="M 102.51750503828377 79.15144685158666 l 1.5404626064989653 -12.757240218526578 a33.84991062362745,33.84991062362745 0 0,0 0.5762901797600627,0.07461230150128276 l -1.7592306081498197 12.728916320824899" fill="red" stroke="none" /><path d="M 103.23170211078529 79.25015418208739 l 2.046348154904309 -13.139023105603114 a34.29742339480295,34.29742339480295 0 0,0 0.5809697661354923,0.09559835393267117 l -2.271595424092872 13.101958753174774" fill="red" stroke="none" /><path d="M 104.64783097203109 79.52079915486377 l 5.534960273254055 -24.388056232665825 a46.008260076106275,46.008260076106275 0 0,0 0.7687056725275545,0.18141244563947195 l -5.952798099521494 24.289447643380125" fill="red" stroke="none" /><path d="M 105.69591212413111 79.78721728523813 l 4.083424726736561 -14.490633797515395 a36.05499336939804,36.05499336939804 0 0,0 0.5942892837364177,0.17298894923084904 l -4.331574022854583 14.41840115398203" fill="red" stroke="none" /><path d="M 106.38641147887787 79.99465700312896 l 8.615224722134956 -26.98706873671653 a49.32885412460497,49.32885412460497 0 0,0 0.8044767102651706,0.26444747360200554 l -9.077224170047868 26.835200341712504" fill="red" stroke="none" /><path d="M 107.40779381753099 80.34994680014964 l 9.877672227074218 -26.20169912037118 a49.001740042718296,49.001740042718296 0 0,0 0.7845592470687414,0.30348437101841486 l -10.326003736636485 26.028274861214726" fill="red" stroke="none" /><path d="M 108.07796709384702 80.6158196554323 l 5.313051153596384 -12.749388620272102 a34.812147651667196,34.812147651667196 0 0,0 0.5496422437752821,0.23460959011956387 l -5.531128472542097 12.656304380493138" fill="red" stroke="none" /><path d="M 108.73861861582097 80.90454125486305 l 21.853917680213055 -47.754754135464985 a73.51771377842184,73.51771377842184 0 0,0 1.143064918048528,0.5350120983779683 l -22.67047131213309 47.37256580551648" fill="red" stroke="none" /><path d="M 109.3889696526874 81.21577127319529 l 12.866017298551323 -25.74065320041149 a49.77699825052078,49.77699825052078 0 0,0 0.7610494820501444,0.38859728822705425 l -13.305994002315046 25.5159979605116" fill="red" stroke="none" /><line stroke="#e1ed5e" stroke-width="0.3" x1="143.13028292997686" x2="145.6673583964461" y1="26.7553504044142" y2="22.446841604673864" /><path d="M 143.63769802327073 25.89364864446614 a86.0,86.0 0 0,1 29.32050498858742,28.57503671076993" fill="none" id="id110" stroke="none" /><text fill="#e1ed5e" style="font-size:6.75px; font-family:Arial;" text-anchor="middle"><textPath startOffset="20.669276256404974" xlink:href="#id110">February</textPath></text><path d="M 110.65571695917076 81.90426304109057 l 27.278497235586283 -46.324851955144474 a74.75972767879261,74.75972767879261 0 0,0 1.1002753787714914,0.6606837514729093 l -28.06970537091521 45.84975420313564" fill="red" stroke="none" /><path d="M 111.8722381534696 82.67804972795209 l 28.742091151642846 -41.93556995804755 a71.83994326782482,71.83994326782482 0 0,0 1.0112495180841694,0.7059307012181543 l -29.45773576090078 41.43599444102427" fill="red" stroke="none" /><path d="M 112.45986205192187 83.09580414077388 l 22.149119245919547 -30.04953411860826 a58.33038955215128,58.33038955215128 0 0,0 0.8009234991920707,0.6010279253030208 l -22.661695734022384 29.664887166041225" fill="red" stroke="none" /><path d="M 113.03279911837588 83.53348406188908 l 16.20994385866668 -20.48073452833832 a47.11939445548834,47.11939445548834 0 0,0 0.6299396997478575,0.5074348310252432 l -16.559134328769797 20.199451403519667" fill="red" stroke="none" /><path d="M 114.39649973595853 84.71141617570332 l 21.231751815190087 -22.54738466409485 a51.97049951699984,51.97049951699984 0 0,0 0.6442548070285031,0.6171815314999745 l -21.615679108083903 22.179591002289293" fill="red" stroke="none" /><path d="M 114.91283532996326 85.21462403516908 l 22.102047122686567 -21.91314187213892 a52.12372525456979,52.12372525456979 0 0,0 0.6245246308208819,0.6408172888393086 l -22.474958554658258 21.530501891231868" fill="red" stroke="none" /><path d="M 115.6541949942343 86.00192230759917 l 20.301301110682502 -18.153548637207134 a48.23406240189009,48.23406240189009 0 0,0 0.5466272948562281,0.6219615185578828 l -20.60993946949732 17.802374840837953" fill="red" stroke="none" /><path d="M 116.7966241395341 87.39550010848427 l 33.51781954864879 -25.15239665751703 a62.90569513697221,62.90569513697221 0 0,0 0.640733387927329,0.869277897133569 l -33.94465495615994 24.573312451114585" fill="red" stroke="none" /><path d="M 117.21940702142032 87.97951657250589 l 22.936060744079242 -16.011151703612025 a48.971769006127786,48.971769006127786 0 0,0 0.47528329189323876,0.6934525268855032 l -23.207533772787805 15.615064441656472" fill="red" stroke="none" /><path d="M 117.62189284568427 88.57770195909679 l 26.25163452406768 -17.015992335250296 a52.2840584058162,52.2840584058162 0 0,0 0.48171620531067194,0.7573378856833772 l -26.539868421004243 16.562840774888247" fill="red" stroke="none" /><line stroke="#e1ed5e" stroke-width="0.3" x1="172.87174338648825" x2="177.1583165268699" y1="56.24261187166439" y2="53.66864786411523" /><path d="M 173.72905801456457 55.72781907015455 a86.0,86.0 0 0,1 12.242430191666344,42.057860355516425" fill="none" id="id111" stroke="none" /><text fill="#e1ed5e" style="font-size:6.75px; font-family:Arial;" text-anchor="middle"><textPath startOffset="22.145653131862474" xlink:href="#id111">March</textPath></text><path d="M 118.00360718960297 89.18935116829356 l 22.25342574942509 -13.362542769674466 a46.9571282474883,46.9571282474883 0 0,0 0.40903301206065323,0.6946274776367561 l -22.47953247161551 12.978564123744153" fill="red" stroke="none" /><path d="M 118.53625476483649 90.13048839642627 l 44.679708922839325 -23.78942840679871 a71.61830986265592,71.61830986265592 0 0,0 0.5684854460836612,1.0901458004811493 l -45.08150243789793 23.01893636321306" fill="red" stroke="none" /><path d="M 118.8641267826498 90.77261029715802 l 33.502637875155884 -16.387819023332085 a58.295942901813255,58.295942901813255 0 0,0 0.4320027567765134,0.9027196100950591 l -33.77901988989231 15.810286911171922" fill="red" stroke="none" /><path d="M 119.16976305983485 91.42560881287824 l 46.64863219856918 -20.865339835772698 a72.10241963410019,72.10241963410019 0 0,0 0.4956736390361154,1.134198288861039 l -46.99993971962227 20.06147947713581" fill="red" stroke="none" /><path d="M 119.58574465831526 92.42381321644754 l 24.011602124556223 -9.288203529741663 a46.74544156540917,46.74544156540917 0 0,0 0.28307551612690995,0.7508914379210943 l -24.16750832449757 8.874643811626411" fill="red" stroke="none" /><path d="M 119.71291397450082 92.76114493625339 l 8.051707285058201 -2.956698442840181 a29.577415454911396,29.577415454911396 0 0,0 0.1709290528641758,0.4781189822638687 l -8.101276507966322 2.818044504195395" fill="red" stroke="none" /><path d="M 119.83427380445688 93.10060997987247 l 24.446185777408363 -8.50365240722526 a46.882969368418124,46.882969368418124 0 0,0 0.2578888781918355,0.7624026445235219 l -24.588560077172563 8.082748088227577" fill="red" stroke="none" /><path d="M 120.05942366710727 93.78553927170692 l 34.44847677342582 -10.672226162160863 a57.06374860251731,57.06374860251731 0 0,0 0.28185057140195063,0.9381888852667443 l -34.6266036648314 10.079299673303394" fill="red" stroke="none" /><path d="M 120.26092885502905 94.47779374421319 l 50.92171820872803 -13.87894073661155 a73.77922300772795,73.77922300772795 0 0,0 0.3225575604839568,1.224803595843854 l -51.15246525001672 13.002756636394897" fill="red" stroke="none" /><path d="M 120.43855184770803 95.1765574152323 l 25.76635691171219 -6.0807900730116184 a47.47416016446556,47.47416016446556 0 0,0 0.1803772541807648,0.7947754637574134 l -25.86694502745062 5.637580275315179" fill="red" stroke="none" /><path d="M 120.592083275326 95.88100663000786 l 54.056048330366146 -10.812723594001088 a76.12686597853309,76.12686597853309 0 0,0 0.2453232037003172,1.2836346654786286 l -54.233697826348624 9.883186363489147" fill="red" stroke="none" /><path d="M 120.82617615685814 97.30363454192243 l 62.478528470574396 -8.089096374232712 a84.0,84.0 0 0,0 0.17287165496134538,1.4316252923063482 l -62.6081822117954 7.015377405002951" fill="red" stroke="none" /><path d="M 120.93736805541906 98.37931529534042 l 50.79005703629912 -3.931471633380043 a71.94199017465444,71.94199017465444 0 0,0 0.08474094584869934,1.2321147545589881 l -50.85006194331288 3.0590134546667205" fill="red" stroke="none" /><path d="M 120.98066250479742 99.09900007780936 l 26.377616070701634 -1.1327683299725368 a47.40192783988938,47.40192783988938 0 0,0 0.027933985427211882,0.8132675070617039 l -26.393174743125694 0.679794558346713" fill="red" stroke="none" /><path d="M 120.99303781780057 99.45929381324524 l 11.568161205727701 -0.297954797566726 a32.57199769888918,32.57199769888918 0 0,0 0.009598763606079447,0.5590798582672895 l -11.571571400932447 0.09932802333037018" fill="red" stroke="none" /><line stroke="#e1ed5e" stroke-width="0.3" x1="184.99686870605535" x2="189.99668451229388" y1="99.2704041080226" y2="99.22748670261217" /><path d="M 185.99683186730306 99.26182062694052 a86.0,86.0 0 0,1 -10.086455211305974,41.156179273409016" fill="none" id="id112" stroke="none" /><text fill="#e1ed5e" style="font-size:6.75px; font-family:Arial;" text-anchor="middle"><textPath startOffset="21.40746469413373" xlink:href="#id112">April</textPath></text><path d="M 120.99922638620191 99.81974689727618 l 26.244686848945566 -0.22527907207315542 a47.245653706081136,47.245653706081136 0 0,0 0.0,0.8110643495939615 l -26.244686848945566 -0.22527907207315223" fill="red" stroke="none" /><path d="M 120.99303781780057 100.54070618675476 l 51.29344659536698 1.3211372339153566 a72.31045767894301,72.31045767894301 0 0,0 -0.0426125974846788,1.2406192813440553 l -51.26320931088546 -2.201462779823523" fill="red" stroke="none" /><path d="M 120.93736805541906 101.62068470465957 l 50.427377452825866 3.903397939873201 a71.57822567317656,71.57822567317656 0 0,0 -0.10534398329911672,1.2242567680000187 l -50.35293984682901 -4.768475755248877" fill="red" stroke="none" /><path d="M 120.86939407059847 102.33845913500097 l 27.16554968439203 3.0439565040504237 a48.33555854292578,48.33555854292578 0 0,0 -0.09947438093805447,0.8237905729500902 l -27.10929321719431 -3.5098407539239225" fill="red" stroke="none" /><path d="M 120.77682067341334 103.0534771498775 l 27.25928375466185 4.006175986944787 a48.552096051943934,48.552096051943934 0 0,0 -0.12826656392958866,0.8235633526524662 l -27.186495698593994 -4.4735275215287045" fill="red" stroke="none" /><path d="M 120.65975698304385 103.76489593502545 l 25.878163241645066 4.715863389601215 a47.30434755455096,47.30434755455096 0 0,0 -0.15244098048523033,0.7976356253256712 l -25.793395968877675 -5.159401579960201" fill="red" stroke="none" /><path d="M 120.43855184770803 104.8234425847677 l 49.465456496027755 11.673713045607512 a71.82427532815005,71.82427532815005 0 0,0 -0.2934961296230067,1.1975643646617102 l -49.25777283988845 -12.521133234877322" fill="red" stroke="none" /><path d="M 120.16314734710363 105.8691983318838 l 47.79027942326736 13.911053837117983 a70.77377046410254,70.77377046410254 0 0,0 -0.34956742475024466,1.1635962663502912 l -47.54443567851348 -14.729387707058997" fill="red" stroke="none" /><path d="M 120.05942366710727 106.21446072829308 l 41.98140236137374 13.005945765093356 a64.94988929988455,64.94988929988455 0 0,0 -0.3390856939823179,1.062181106852239 l -41.75195195161417 -13.72469590563698" fill="red" stroke="none" /><path d="M 119.71291397450082 107.23885506374661 l 48.05634641037961 17.64695605164819 a72.19401809003868,72.19401809003868 0 0,0 -0.43718399586657725,1.1596824896193692 l -47.74633173069859 -18.469306821461718" fill="red" stroke="none" /><path d="M 119.31412917781788 108.2440532568976 l 48.51674310576859 20.70891264797709 a73.75162011400872,73.75162011400872 0 0,0 -0.5070111948009005,1.1601408351971343 l -48.15409802895072 -21.53871555295007" fill="red" stroke="none" /><path d="M 119.0197475246899 108.90220220490707 l 45.223987283133596 21.167109541490365 a70.93250997222633,70.93250997222633 0 0,0 -0.525646182697324,1.09839835429097 l -44.85396184247636 -21.94032039784644" fill="red" stroke="none" /><line stroke="#e1ed5e" stroke-width="0.3" x1="174.33088141563837" x2="178.70328620479359" y1="141.23008692659167" y2="143.65538615756765" /><path d="M 175.20536237346943 141.71514677278685 a86.0,86.0 0 0,1 -30.301960400862466,31.631185727798858" fill="none" id="id113" stroke="none" /><text fill="#e1ed5e" style="font-size:6.75px; font-family:Arial;" text-anchor="middle"><textPath startOffset="22.145653131862474" xlink:href="#id113">May</textPath></text><path d="M 118.18653347947321 110.5 l 44.930148294752094 25.940433212704914 a72.88086642540985,72.88086642540985 0 0,0 -0.6348488808442082,1.0781121908955926 l -44.47822570377812 -26.707896571894054" fill="red" stroke="none" /><path d="M 117.423217284605 111.72311816256416 l 45.78790305968207 30.808144627742042 a76.18762399312652,76.18762399312652 0 0,0 -0.7394199855930729,1.0788358568142828 l -45.252293337273684 -31.58961521962637" fill="red" stroke="none" /><path d="M 116.79662413953412 112.60449989151573 l 43.431108986632935 32.59151386390472 a75.29979745588267,75.29979745588267 0 0,0 -0.7847243704210143,1.027229390871818 l -42.86523263885761 -33.33226416801742" fill="red" stroke="none" /><path d="M 115.89218393027572 113.72728997021213 l 39.187668650534846 33.84937483624695 a72.78275341336013,72.78275341336013 0 0,0 -0.8248328593814382,0.9385083814964817 l -38.600824727194826 -34.51709549555472" fill="red" stroke="none" /><path d="M 115.16444852881244 114.52719865689866 l 25.59191299104412 24.51647373292764 a56.44013959959108,56.44013959959108 0 0,0 -0.6762420984832436,0.69388396672112 l -25.167284091410068 -24.9521803917165" fill="red" stroke="none" /><path d="M 114.13192950727249 115.5334660781643 l 35.19030779299571 38.68031269908029 a73.29267972732328,73.29267972732328 0 0,0 -0.9379193485983321,0.8386932650143356 l -34.521123417574 -39.27870149397801" fill="red" stroke="none" /><path d="M 113.31354834802062 116.24036423190432 l 32.27011000994593 39.36428716564209 a71.90095386250779,71.90095386250779 0 0,0 -0.9612446384581711,0.774310637804186 l -31.589614601132503 -39.91244609723967" fill="red" stroke="none" /><path d="M 112.7482090630111 116.68781488649013 l 31.321654306118834 41.00105092532025 a72.59585453747924,72.59585453747924 0 0,0 -0.9967998892071867,0.7480172200676113 l -30.61320142800088 -41.532687172651876" fill="red" stroke="none" /><path d="M 112.16784306229584 117.11559508785304 l 15.668354576407282 22.03950291351777 a48.04139463502172,48.04139463502172 0 0,0 -0.6762510514748136,0.47207575423279663 l -15.287708433758711 -22.30522348355569" fill="red" stroke="none" /><path d="M 111.5731344415666 117.5232005979908 l 28.698274194101437 43.45284486743669 a73.07437631689263,73.07437631689263 0 0,0 -1.0526689880818152,0.6823273200887322 l -27.94811957376261 -43.939086029229315" fill="red" stroke="none" /><path d="M 110.96478420261333 117.91015095944535 l 15.62975500694928 25.530030182161735 a50.93445644536318,50.93445644536318 0 0,0 -0.7496272404673193,0.4501296193605812 l -15.189195009924523 -25.794573802058242" fill="red" stroke="none" /><line stroke="#e1ed5e" stroke-width="0.3" x1="143.1302829299769" x2="145.66735839644613" y1="173.24464959558577" y2="177.55315839532614" /><path d="M 143.63769802327073 174.10635135553383 a86.0,86.0 0 0,1 -40.68552437913181,11.842963189579606" fill="none" id="id114" stroke="none" /><text fill="#e1ed5e" style="font-size:6.75px; font-family:Arial;" text-anchor="middle"><textPath startOffset="21.407464694133747" xlink:href="#id114">June</textPath></text><path d="M 109.71004243097381 118.62028667847754 l 13.674243375287345 26.22216468868585 a50.57341462948019,50.57341462948019 0 0,0 -0.7732260353580078,0.3948147231074253 l -13.222090118215753 -26.453037363466112" fill="red" stroke="none" /><path d="M 109.3889696526874 118.78422872680471 l 13.450548576686929 26.910107318662682 a51.084400158815825,51.084400158815825 0 0,0 -0.787769495906077,0.3853375360805151 l -12.986618831518783 -27.13703860484042" fill="red" stroke="none" /><path d="M 108.73861861582097 119.09545874513695 l 22.009329338219995 48.09435665554886 a73.89118754603047,73.89118754603047 0 0,0 -1.1579333080228498,0.5179288403615462 l -21.18048262734152 -48.465089246820256" fill="red" stroke="none" /><path d="M 107.74402155503746 119.51999308798841 l 18.871627712239295 47.56882969448543 a72.17550088677508,72.17550088677508 0 0,0 -1.1555907317407927,0.44700731995366283 l -18.052264718004974 -47.885776902577135" fill="red" stroke="none" /><path d="M 107.06938296918513 119.77432235084164 l 8.726756386893845 24.410290774160224 a46.923321020178804,46.923321020178804 0 0,0 -0.7608152363737801,0.2646510328912945 l -8.306435378475042 -24.556500239620107" fill="red" stroke="none" /><path d="M 106.72888874123015 119.89276391827305 l 8.75340562252772 25.877888344754293 a48.31825790887973,48.31825790887973 0 0,0 -0.7879954614411354,0.25902975975434656 l -8.307887423438851 -26.024339025910656" fill="red" stroke="none" /><path d="M 106.38641147887787 120.00534299687104 l 12.404542084892663 38.857051404868415 a61.789007198220204,61.789007198220204 0 0,0 -1.0132201625842743,0.31389819637837835 l -11.735681289436764 -39.064266189053434" fill="red" stroke="none" /><path d="M 105.3480935250658 120.30758222061773 l 13.425321980449867 50.978134297473325 a73.71631101215236,73.71631101215236 0 0,0 -1.2264804224093517,0.31176652726206877 l -12.548236264815118 -51.20108605657067" fill="red" stroke="none" /><path d="M 104.64783097203109 120.47920084513623 l 11.590911813147759 51.07169611548597 a73.37048196047763,73.37048196047763 0 0,0 -1.2306591074879967,0.2682164245777219 l -10.712490289040627 -51.263143998197414" fill="red" stroke="none" /><path d="M 103.94208987418118 120.62667999033965 l 9.736145540553618 50.943627571678796 a72.86565067700158,72.86565067700158 0 0,0 -1.2306150196349694,0.22425905052066586 l -8.86019578736759 -51.10325479613083" fill="red" stroke="none" /><path d="M 103.2317021107853 120.74984581791261 l 3.987743071357855 25.604171131979033 a46.912847665951944,46.912847665951944 0 0,0 -0.7967921422331499,0.11710100586391572 l -3.54762582351702 -25.66885321114183" fill="red" stroke="none" /><path d="M 102.51750503828377 120.84855314841334 l 3.4063364872035913 28.20935259905479 a49.41426934344527,49.41426934344527 0 0,0 -0.843017078780223,0.09446182204268166 l -2.921583506822569 -28.26367018160444" fill="red" stroke="none" /><path d="M 101.44090949804482 120.95050786540614 l 1.7729854231831332 25.778818936269754 a46.839717162921886,46.839717162921886 0 0,0 -0.8026446078854927,0.04828510646800475 l -1.3301964631651755 -25.80545602056245" fill="red" stroke="none" /><path d="M 101.08105385017728 120.97215588758144 l 1.35946069357639 26.373174272538012 a47.40818915766547,47.40818915766547 0 0,0 -0.8131051652930552,0.03491823437387881 l -0.9065297676825054 -26.39262507533772" fill="red" stroke="none" /><line stroke="#e1ed5e" stroke-width="0.3" x1="101.45913802915013" x2="101.54496967792366" y1="184.9874750549273" y2="189.98673829345242" /><path d="M 101.47630435890484 185.9873277026323 a86.0,86.0 0 0,1 -42.54439059252881,-10.42667462771756" fill="none" id="id115" stroke="none" /><text fill="#e1ed5e" style="font-size:6.75px; font-family:Arial;" text-anchor="middle"><textPath startOffset="22.145653131862474" xlink:href="#id115">July</textPath></text><path d="M 100.36049292484886 120.99690560180557 l 0.9243846586439775 53.840772119016286 a74.8487068495519,74.8487068495519 0 0,0 -1.2848775834928232,0.011029128730049588 l -6.5945646481527895e-15 -53.8487068495519" fill="red" stroke="none" /><path d="M 99.27912038922189 120.98762331915562 l -0.936191936877077 27.256206767172387 a48.27228011511922,48.27228011511922 0 0,0 -0.8279253225964915,-0.03555467569570675 l 1.4039430200744072 -27.236119523050853" fill="red" stroke="none" /><path d="M 98.19965949673042 120.92268563240118 l -3.008762850278571 34.966385050217085 a56.09559427291781,56.09559427291781 0 0,0 -0.9587015846060589,-0.0907900368204737 l 3.6085639982696454 -34.90958325789143" fill="red" stroke="none" /><path d="M 97.48249496171623 120.84855314841334 l -6.226430308943839 51.563774946564806 a72.93834153236045,72.93834153236045 0 0,0 -1.2417654634439366,-0.16077140025348824 l 7.11067359427857 -51.44929195011092" fill="red" stroke="none" /><path d="M 96.76829788921471 120.74984581791261 l -4.049860877754717 26.003012009354634 a47.31649685440313,47.31649685440313 0 0,0 -0.8015020194204832,-0.13188685228834932 l 4.495640400228264 -25.92965915857062" fill="red" stroke="none" /><path d="M 95.70440661134978 120.55596938700252 l -10.48064980218541 50.15370334139426 a72.237076215692,72.237076215692 0 0,0 -1.2116482455578383,-0.2640730957029571 l 11.340060464362384 -49.96639878755759" fill="red" stroke="none" /><path d="M 94.6519064749342 120.30758222061772 l -6.662144001010931 25.29724591240387 a47.15979383410428,47.15979383410428 0 0,0 -0.7810977820755597,-0.21289167389224342 l 7.095423184021187 -25.17915374436748" fill="red" stroke="none" /><path d="M 94.30408787586889 120.21278271476187 l -7.156146911448222 25.394640830783924 a47.383673389858885,47.383673389858885 0 0,0 -0.7810182914514163,-0.22734304195896965 l 7.591025215281245 -25.268054094522437" fill="red" stroke="none" /><path d="M 93.95794788825049 120.11202640906438 l -7.599294258422245 25.295579049778294 a47.41241360969633,47.41241360969633 0 0,0 -0.77747184498397,-0.24086276496213702 l 8.032406736277848 -25.161399697009507" fill="red" stroke="none" /><path d="M 93.27111125876986 119.89276391827306 l -16.254905419473754 48.05473956526365 a71.7294780663211,71.7294780663211 0 0,0 -1.16302253599074,-0.4045596101529515 l 17.077433727509515 -47.768621522542105" fill="red" stroke="none" /><path d="M 92.93061703081489 119.77432235084164 l -1.0716728108346592 2.9976595847826677 a24.183464402144565,24.183464402144565 0 0,0 -0.3897117478224838,-0.14310755187058852 l 1.1229737103112618 -2.9788211839033596" fill="red" stroke="none" /><path d="M 92.25597844496254 119.51999308798841 l -2.762220386543638 6.962599789996537 a28.490504475634275,28.490504475634275 0 0,0 -0.4530608032415164,-0.18425588448932717 l 2.881335650975595 -6.914156648927918" fill="red" stroke="none" /><path d="M 91.59046798132341 119.24265499422711 l -13.214304217027234 30.236914072304252 a53.99831523814594,53.99831523814594 0 0,0 -0.8461962768214358,-0.3784928314401098 l 13.731413896704304 -30.005617489954286" fill="red" stroke="none" /><path d="M 90.93487009805054 118.94263497670748 l -22.608104113976374 47.242242348270835 a73.37323585306859,73.37323585306859 0 0,0 -1.1314843052139583,-0.5534656730817484 l 23.4157486684524 -46.847182925091865" fill="red" stroke="none" /><path d="M 90.6110303473126 118.78422872680471 l -2.5117185430374747 5.025119619623875 a26.617878356725704,26.617878356725704 0 0,0 -0.406965531242087,-0.2077994999964234 l 2.597611295993144 -4.981262167954616" fill="red" stroke="none" /><path d="M 90.28995756902619 118.62028667847754 l -2.597611295993144 4.981262167954616 a26.617878356725704,26.617878356725704 0 0,0 -0.4033384091972824,-0.21475498477130853 l 2.6827385209769883 -4.935936715460734" fill="red" stroke="none" /><path d="M 89.97174638481275 118.45085714620012 l -15.406767060796078 28.346716091525764 a53.263056030686194,53.263056030686194 0 0,0 -0.79959466524957,-0.4435216820574742 l 15.89110591420175 -28.078061494035143" fill="red" stroke="none" /><line stroke="#e1ed5e" stroke-width="0.3" x1="58.13341422392154" x2="55.67067388415222" y1="173.97424548756322" y2="178.32567169271397" /><path d="M 57.64086615596768 174.84453072859336 a86.0,86.0 0 0,1 -31.369924170532247,-30.572349798747897" fill="none" id="id116" stroke="none" /><text fill="#e1ed5e" style="font-size:6.75px; font-family:Arial;" text-anchor="middle"><textPath startOffset="22.145653131862474" xlink:href="#id116">August</textPath></text><path d="M 89.34428304082925 118.09573695890944 l -2.5972099353366516 4.410630274527839 a26.11851139168342,26.11851139168342 0 0,0 -0.38439887231671566,-0.23082047814950285 l 2.6725415642107944 -4.365395795842417" fill="red" stroke="none" /><path d="M 88.72937992617639 117.7192867562869 l -26.96240531819952 42.389379496698076 a71.23774273052045,71.23774273052045 0 0,0 -1.0262114619791047,-0.6651778713197171 l 27.68610241243563 -41.92028778367446" fill="red" stroke="none" /><path d="M 88.4268655584334 117.5232005979908 l -3.096021976131134 4.687771875238829 a26.617878356725704,26.617878356725704 0 0,0 -0.3791193437847159,-0.25508841405709276 l 3.1760376080128556 -4.633933787124615" fill="red" stroke="none" /><path d="M 87.2517909369889 116.68781488649013 l -2.1977976144772837 2.8769876276019892 a24.620410496556566,24.620410496556566 0 0,0 -0.3336535231580209,-0.2594509976929692 l 2.246861082270533 -2.838835578288227" fill="red" stroke="none" /><path d="M 86.40962598614128 116.0094264158162 l -3.150913918791863 3.7117686734764628 a25.868827909162277,25.868827909162277 0 0,0 -0.3360736708620301,-0.2902924325264019 l 3.2141670694167557 -3.6571321084853388" fill="red" stroke="none" /><path d="M 86.13680546590413 115.77377054828092 l -2.96692344869239 3.3758142539864666 a25.494302685380564,25.494302685380564 0 0,0 -0.326248130872029,-0.29173309037157336 l 3.02443660638779 -3.324385633731511" fill="red" stroke="none" /><path d="M 85.86807049272751 115.53346607816431 l -1.8482668150147614 2.03156899839148 a23.74651830773257,23.74651830773257 0 0,0 -0.29917246567494615,-0.276909567843158 l 1.8828690520036748 -1.9995416844159448" fill="red" stroke="none" /><path d="M 85.60350026404147 115.28858382429668 l -18.216512992010276 19.34530552375242 a47.57220712314664,47.57220712314664 0 0,0 -0.5897311629651975,-0.564949113862054 l 18.54591664084079 -19.029744279584783" fill="red" stroke="none" /><path d="M 85.34317274990678 115.03919595460226 l -3.660037284379433 3.7555206854595746 a26.24402598601135,26.24402598601135 0 0,0 -0.31993727146372064,-0.3172027813013427 l 3.723966475973116 -3.6921378939295724" fill="red" stroke="none" /><line stroke="#e1ed5e" stroke-width="0.3" x1="26.387840678322732" x2="22.057713659400548" y1="142.50000000000003" y2="145.00000000000006" /><path d="M 25.521815274538298 143.00000000000003 a86.0,86.0 0 0,1 -11.493303480769221,-40.785679425670985" fill="none" id="id117" stroke="none" /><text fill="#e1ed5e" style="font-size:6.75px; font-family:Arial;" text-anchor="middle"><textPath startOffset="21.40746469413373" xlink:href="#id117">September</textPath></text><line stroke="#e1ed5e" stroke-width="0.3" x1="15.003131293944662" x2="10.003315487706104" y1="100.72959589197737" y2="100.7725132973878" /><path d="M 14.003168132696942 100.73817937305945 a86.0,86.0 0 0,1 10.791469493833604,-42.45332614584628" fill="none" id="id118" stroke="none" /><text fill="#e1ed5e" style="font-size:6.75px; font-family:Arial;" text-anchor="middle"><textPath startOffset="22.145653131862435" xlink:href="#id118">October</textPath></text><line stroke="#e1ed5e" stroke-width="0.3" x1="26.387840678322718" x2="22.05771365940052" y1="57.49999999999999" y2="54.99999999999999" /><path d="M 25.521815274538284 56.99999999999999 a86.0,86.0 0 0,1 29.574782752854787,-30.34633250058573" fill="none" id="id119" stroke="none" /><text fill="#e1ed5e" style="font-size:6.75px; font-family:Arial;" text-anchor="middle"><textPath startOffset="21.40746469413373" xlink:href="#id119">November</textPath></text><line stroke="#e1ed5e" stroke-width="0.3" x1="56.869717070023135" x2="54.33264160355391" y1="26.7553504044142" y2="22.446841604673864" /><path d="M 56.362301976729285 25.89364864446614 a86.0,86.0 0 0,1 42.16139366436587,-11.88097634709845" fill="none" id="id120" stroke="none" /><text fill="#e1ed5e" style="font-size:6.75px; font-family:Arial;" text-anchor="middle"><textPath startOffset="22.145653131862474" xlink:href="#id120">December</textPath></text><path d="M 99.27912038922189 79.0123766808444 l -0.9460162744277089 -27.542231635666205 a48.558473656285365,48.558473656285365 0 0,0 0.8333251140367509,-0.021463498929906174 l 0.47307784632021405 27.554412851946157" fill="red" stroke="none" /></svg>