<?xml version="1.0" encoding="utf-8" ?>
<svg baseProfile="full" height="200mm" version="1.1" viewBox="0,0,200,200" width="200mm" xmlns="http://www.w3.org/2000/svg" xmlns:ev="http://www.w3.org/2001/xml-events" xmlns:xlink="http://www.w3.org/1999/xlink"><defs /><rect fill="#1a1a1a" height="200" width="200" x="0" y="0" /><rect fill="#1a1a1a" height="200" width="180" x="10" y="0" /><text alignment-baseline="middle" fill="#e1ed5e" style="dominant-baseline: central; font-size:9.0px; font-family:Arial;" text-anchor="middle" x="100.0" y="100.0">2026</text><line stroke="#e1ed5e" stroke-width="0.3" x1="100.0" x2="100.0" y1="15.0" y2="10.0" /><path d="M 100.0 14.0 a86.0,86.0 0 0,1 42.46469731375804,11.215312516191453" fill="none" id="id133" stroke="none" /><text fill="#e1ed5e" style="font-size:6.75px; font-family:Arial;" text-anchor="middle"><textPath startOffset="22.20632615414155" xlink:href="#id133">January</textPath></text><path d="M 100.0 79.0 l 0.0 -42.00349480439081 a63.00349480439081,63.00349480439081 0 0,0 1.0845015951302592,0.009334647618659134 l -0.7230211158577308 41.99727153338071" fill="red" stroke="none" /><path d="M 100.72285384407766 79.0124445844662 l 1.4425366645221414 -41.88304237937354 a62.90787695625836,62.90787695625836 0 0,0 1.0818931656036488,0.046588595533620776 l -2.1632706625151217 41.85200605731573" fill="red" stroke="none" /><path d="M 101.44485096284872 79.0497635885617 l 2.914295256359212 -42.257074371933996 a63.35744859309161,63.35744859309161 0 0,0 1.0873640976153025,0.08440038156188454 l -3.6412495433368557 42.200648728183644" fill="red" stroke="none" /><path d="M 102.16513564639614 79.11191278185805 l 2.172990628171798 -20.963867941026507 a42.07618673571957,42.07618673571957 0 0,0 0.7197698697529958,0.08087453138953682 l -2.533527201434519 20.923357456166368" fill="red" stroke="none" /><path d="M 102.88285421437855 79.19881850522331 l 4.898470623614223 -35.34482457712349 a56.68265179100404,56.68265179100404 0 0,0 0.965308312001155,0.14226135246519261 l -5.506147916044034 35.25526874049732" fill="red" stroke="none" /><path d="M 103.59715602781102 79.31037775812273 l 7.235210869355649 -41.61448059799222 a63.23876503597984,63.23876503597984 0 0,0 1.0708577801057961,0.1956924145636617 l -7.950463770564346 41.483772702077815" fill="red" stroke="none" /><path d="M 104.66035177308747 79.52364482259891 l 9.327621650895255 -40.98310668029534 a63.03117365516598,63.03117365516598 0 0,0 1.055851136897105,0.24988585092149304 l -10.031696474754883 40.81647491723298" fill="red" stroke="none" /><path d="M 105.36241919743992 79.69619591428918 l 10.718020383878137 -40.58179303938215 a62.97329969445425,62.97329969445425 0 0,0 1.0456629774287638,0.28581919187909244 l -11.41498125053061 40.391287306676766" fill="red" stroke="none" /><path d="M 106.0581310904928 79.89281104454417 l 9.00595671188067 -29.891144748356748 a52.218388662188886,52.218388662188886 0 0,0 0.8584072180792568,0.26671130116945224 l -9.519149302670645 29.731693312304774" fill="red" stroke="none" /><path d="M 106.74666289553966 80.11325718540242 l 14.101016328743626 -41.56473941206676 a64.89152792847966,64.89152792847966 0 0,0 1.054697441229561,0.36796322771786805 l -14.814395774036461 41.315855331176685" fill="red" stroke="none" /><path d="M 107.4271985657038 80.35727306442388 l 13.767087259703816 -36.40984327379236 a59.92569047349606,59.92569047349606 0 0,0 0.9617126923136784,0.3731295835145887 l -14.39178311701716 36.16747098638723" fill="red" stroke="none" /><path d="M 108.09893153111575 80.62456947434976 l 16.205680407591476 -38.76956283082971 a63.02026986546668,63.02026986546668 0 0,0 0.9972694887967677,0.426978749731948 l -16.870633654178558 38.484864553134976" fill="red" stroke="none" /><path d="M 108.76106565485865 80.91482961587045 l 8.944716598769704 -19.485236962081167 a42.44020556106588,42.44020556106588 0 0,0 0.6613028560240346,0.31049055800648573 l -9.278797666093336 19.328381421434678" fill="red" stroke="none" /><path d="M 109.41281617654863 81.2277094730956 l 17.133151323263235 -34.16921017569948 a59.224073543997925,59.224073543997925 0 0,0 0.9073678354787416,0.46478904769014495 l -17.71877964633073 33.86922860269684" fill="red" stroke="none" /><path d="M 110.05341064243156 81.56283822128135 l 10.115582337090956 -18.551179760601784 a42.12986693116234,42.12986693116234 0 0,0 0.6337052425788023,0.352656281396995 l -10.433411668741794 18.37430808164461" fill="red" stroke="none" /><line stroke="#e1ed5e" stroke-width="0.3" x1="143.23703022742887" x2="145.7803849466894" y1="26.81831364943548" y2="22.513508569990506" /><path d="M 143.74570117128098 25.957352633546492 a86.0,86.0 0 0,1 28.547481713284135,27.462654790039103" fill="none" id="id134" stroke="none" /><text fill="#e1ed5e" style="font-size:6.75px; font-family:Arial;" text-anchor="middle"><textPath startOffset="19.985693538727396" xlink:href="#id134">February</textPath></text><path d="M 110.68208982089419 81.91981866633111 l 23.605439562471396 -39.95385125068325 a67.40610958375215,67.40610958375215 0 0,0 0.9938804045628818,0.5988018231453875 l -24.289682033251918 39.54160281807925" fill="red" stroke="none" /><path d="M 111.2981086023043 82.29822771554956 l 22.80025898674615 -35.723235349991086 a63.37925617249023,63.37925617249023 0 0,0 0.9145716429299874,0.5948628370269856 l -23.41179765546042 35.32547358880457" fill="red" stroke="none" /><path d="M 111.90073688211348 82.69761687909136 l 24.395468859133093 -35.46837080730041 a64.04816173289043,64.04816173289043 0 0,0 0.9029841074294708,0.6325980731670644 l -25.002384106146213 35.043187891369406" fill="red" stroke="none" /><path d="M 112.48926042617603 83.11751280151076 l 24.882828856116276 -33.63562174947804 a62.83909920584731,62.83909920584731 0 0,0 0.8640491233355693,0.650783886079432 l -25.45812413321023 33.202321273892764" fill="red" stroke="none" /><path d="M 113.06298171725822 83.55741782278167 l 26.465183738191797 -33.31214632839088 a63.54532927714131,63.54532927714131 0 0,0 0.8505893379478459,0.6877840900970197 l -27.034676474704135 32.851656141029736" fill="red" stroke="none" /><path d="M 113.6212207817346 84.01681056812373 l 29.310700392219594 -34.393281208540614 a66.18865952617111,66.18865952617111 0 0,0 0.860787303612155,0.7464662673535177 l -29.898381494478514 33.883649947767424" fill="red" stroke="none" /><path d="M 114.16331599549186 84.49514656593476 l 28.733175719790626 -31.454758078715336 a63.60278386132617,63.60278386132617 0 0,0 0.8019769397704534,0.745350162912297 l -29.270360543355924 30.9555033297284" fill="red" stroke="none" /><path d="M 114.94478906791727 85.2469230424477 l 15.11898560012554 -14.925038892493514 a42.24477609953203,42.24477609953203 0 0,0 0.5064057055291903,0.5218955938660665 l -15.37365556935784 14.662579103077334" fill="red" stroke="none" /><path d="M 115.9244219780498 86.31012108654704 l 42.767381488562236 -36.766186856319905 a77.39859409011936,77.39859409011936 0 0,0 0.8598224062973133,1.0177585271083802 l -43.39391450834667 36.02456937958242" fill="red" stroke="none" /><path d="M 116.38621287248628 86.86637796730983 l 33.90314129875723 -27.17351757869632 a64.44908569260366,64.44908569260366 0 0,0 0.686370239266702,0.8716205018796119 l -34.365865618617896 26.58590468286367" fill="red" stroke="none" /><path d="M 116.82858285166822 87.43820079747576 l 33.59476832977591 -25.077021501672796 a62.92213575817284,62.92213575817284 0 0,0 0.640419662476895,0.8735316999003921 l -34.02145060476643 24.49502735810091" fill="red" stroke="none" /><path d="M 117.2510076193507 88.02491185347247 l 34.84043691483772 -24.185097608484902 a63.411967541588176,63.411967541588176 0 0,0 0.6147202464417023,0.9020261091588593 l -35.25158162694816 23.581793476055637" fill="red" stroke="none" /><line stroke="#e1ed5e" stroke-width="0.3" x1="172.23445277983987" x2="176.4835382374775" y1="55.19839476539836" y2="52.563006222186495" /><path d="M 173.08426987136738 54.67131705675599 a86.0,86.0 0 0,1 12.851231095245387,41.99856678651699" fill="none" id="id135" stroke="none" /><text fill="#e1ed5e" style="font-size:6.75px; font-family:Arial;" text-anchor="middle"><textPath startOffset="22.20632615414155" xlink:href="#id135">March</textPath></text><path d="M 117.84615892207809 88.93136811851018 l 35.615099287082025 -22.089370892227702 a62.90913508583906,62.90913508583906 0 0,0 0.5628396488622368,0.9251603940083905 l -35.99005473423048 21.473042725012228" fill="red" stroke="none" /><path d="M 118.21658344932153 89.55222093294921 l 40.76567319579702 -23.3803856938467 a67.99449485098819,67.99449485098819 0 0,0 0.5735573903349318,1.020294598152387 l -41.162088227424384 22.67520758575952" fill="red" stroke="none" /><path d="M 118.56541770881063 90.18545643968196 l 39.876415786931815 -21.08052864248046 a66.10562297384556,66.10562297384556 0 0,0 0.5231490930155728,1.0105575326941736 l -40.233374313107504 20.39099838752594" fill="red" stroke="none" /><path d="M 118.89224826269711 90.83032412892265 l 37.302075961727496 -18.105200669140213 a62.46375721427478,62.46375721427478 0 0,0 0.461166368472914,0.9713339840909211 l -37.60820052404217 17.46042426940875" fill="red" stroke="none" /><path d="M 119.196687751892 91.48605970444005 l 40.27543628815035 -17.862595066752824 a65.05885916271143,65.05885916271143 0 0,0 0.44521726041515547,1.0276228207852913 l -40.57694425840819 17.16667310138093" fill="red" stroke="none" /><path d="M 119.47837535516314 92.15188598940014 l 43.2365396597406 -17.420615759081848 a67.61412034109291,67.61412034109291 0 0,0 0.42566775372225735,1.083278003421757 l -43.530000963344555 16.673788750764306" fill="red" stroke="none" /><path d="M 119.85752413597 93.16781622104841 l 39.64023044337206 -13.638625720641983 a62.92087762859216,62.92087762859216 0 0,0 0.34355610034046036,1.0271890113721447 l -39.869123837484295 12.954263606347524" fill="red" stroke="none" /><path d="M 120.08093135843002 93.85539295169968 l 48.606325920062886 -14.873153416513212 a71.83095131903903,71.83095131903903 0 0,0 0.3516094381168382,1.185452230915215 l -48.85514125529142 14.034271798851467" fill="red" stroke="none" /><path d="M 120.28053869075195 94.5502522615342 l 41.73411746647054 -11.214712574842896 a64.21465421406842,64.21465421406842 0 0,0 0.2776631500151208,1.0699493829355768 l -41.92097694835597 10.494666766358469" fill="red" stroke="none" /><path d="M 120.45610955862082 95.25157060432595 l 40.829835285984366 -9.477735223156936 a62.91542573374251,62.91542573374251 0 0,0 0.2357998642572373,1.0570445557582067 l -40.98692953724364 8.773512497848765" fill="red" stroke="none" /><path d="M 120.6074358757038 95.95851677861258 l 42.400646737325744 -8.31551792267922 a64.20836356616496,64.20836356616496 0 0,0 0.20337013435885848,1.0864113897767844 l -42.53750259559446 7.584428455439872" fill="red" stroke="none" /><path d="M 120.73433829027371 96.67025291283417 l 62.20301487082114 -9.98924126149749 a84.0,84.0 0 0,0 0.21697642624280045,1.4296035504316715 l -62.36574719050324 8.917038598673738" fill="red" stroke="none" /><path d="M 120.87857604477298 97.74499172005257 l 42.34435900053276 -4.57343833940118 a63.59062194204617,63.59062194204617 0 0,0 0.1081733235916489,1.0892906062036891 l -42.416809449806635 3.843872202493056" fill="red" stroke="none" /><path d="M 120.94382443527127 98.46500227214037 l 25.15676444302659 -1.8437690966943818 a46.22423996325463,46.22423996325463 0 0,0 0.05132961701015124,0.7940464561207962 l -25.184774651041153 1.4104635763205504" fill="red" stroke="none" /><path d="M 120.98425023603335 99.18683210126433 l 22.088757978631463 -0.8559690581806464 a43.10533673272402,43.10533673272402 0 0,0 0.022349717949438356,0.7416783317538543 l -22.10021939103655 0.4756205790017929" fill="red" stroke="none" /><line stroke="#e1ed5e" stroke-width="0.3" x1="184.98032266829074" x2="189.97916517819016" y1="98.17113171792111" y2="98.06355123074" /><path d="M 185.9800911702706 98.14961562048488 a86.0,86.0 0 0,1 -9.607161424134198,41.387399972396054" fill="none" id="id136" stroke="none" /><text fill="#e1ed5e" style="font-size:6.75px; font-family:Arial;" text-anchor="middle"><textPath startOffset="21.466115282336823" xlink:href="#id136">April</textPath></text><path d="M 120.99980553446 99.90962569577887 l 42.41199416822341 -0.1825233313372385 a63.412386918115075,63.412386918115075 0 0,0 -0.00469765820036168,1.0915703254942504 l -42.40885221273354 -0.5475564723606965" fill="red" stroke="none" /><path d="M 120.99824983174949 100.27111621757518 l 21.98649814466076 0.28387585929620374 a42.988330681719845,42.988330681719845 0 0,0 -0.015921930538980365,0.7398295481217061 l -21.978354151436776 -0.6622952232080246" fill="red" stroke="none" /><path d="M 120.9904718944345 100.63252640178507 l 5.14048095514236 0.15490313597299313 a26.14281434933399,26.14281434933399 0 0,0 -0.01742588772179219,0.4496847319080079 l -5.137052934569365 -0.24336511489500723" fill="red" stroke="none" /><path d="M 120.9764740272857 100.99374915477107 l 21.311040849738838 1.0095990777178265 a42.33494205281482,42.33494205281482 0 0,0 -0.0407496982786847,0.7276132368648458 l -21.290504800572624 -1.3762840309180957" fill="red" stroke="none" /><path d="M 120.95626037817324 101.35467743843564 l 30.08450903414314 1.9447556433978386 a51.147301012494765,51.147301012494765 0 0,0 -0.06435655751338655,0.8780940957471574 l -30.046575917965413 -2.462322875641766" fill="red" stroke="none" /><path d="M 120.89721153311464 102.0752229133903 l 46.372187038002835 4.6050462250807795 a67.60028091570531,67.60028091570531 0 0,0 -0.12495653919190691,1.1569423620345634 l -46.286048197309874 -5.402584909000135" fill="red" stroke="none" /><path d="M 120.76222939487914 103.15116336523771 l 42.42973030301832 6.439723267905145 a63.915638750391096,63.915638750391096 0 0,0 -0.17445391819286044,1.086324715116211 l -42.31259463046417 -7.16912721271456" fill="red" stroke="none" /><path d="M 120.64145759157962 103.86396538481128 l 24.83149911516542 4.648317717306539 a46.26282260372912,46.26282260372912 0 0,0 -0.15326226996554265,0.7814810126554143 l -24.747806912224213 -5.075062457029898" fill="red" stroke="none" /><path d="M 120.5718875245553 104.21870165774334 l 42.033352419816204 8.619830014252512 a63.90808997290694,63.90808997290694 0 0,0 -0.23026986005165637,1.0757441253776525 l -41.87874852104011 -9.342087959046333" fill="red" stroke="none" /><path d="M 120.41448212921028 104.9243191809786 l 40.77936275946795 9.836673639504205 a62.94897585589425,62.94897585589425 0 0,0 -0.2631527550886144,1.0511644462432188 l -40.603998690084275 -10.537165925144821" fill="red" stroke="none" /><path d="M 120.23288151984713 105.62410040840565 l 40.33659950696269 11.212297444547008 a62.865939303568695,62.865939303568695 0 0,0 -0.2987849348365579,1.0401095550670298 l -40.137621935240034 -11.904964475118621" fill="red" stroke="none" /><path d="M 120.02730092923936 106.31721596034902 l 42.768405588370925 13.490447631267424 a65.84560952716961,65.84560952716961 0 0,0 -0.3502602295592038,1.0779901422415943 l -42.529853107795475 -14.224636673486813" fill="red" stroke="none" /><path d="M 119.79798401119884 107.00284435728193 l 40.84310276673092 14.446819008546518 a64.32285335800776,64.32285335800776 0 0,0 -0.37820532631583054,1.0406586252968912 l -40.58837317940987 -15.14772543084954" fill="red" stroke="none" /><path d="M 119.67450827220406 107.3425965602758 l 20.998863581634225 7.836850678603271 a43.41357847999308,43.41357847999308 0 0,0 -0.26731543051330175,0.6978762368707356 l -20.860853871527418 -8.197150482307151" fill="red" stroke="none" /><path d="M 119.41010516605496 108.01547362559984 l 38.69901265501814 15.980898229007247 a62.868874939256976,62.868874939256976 0 0,0 -0.42166758803513255,0.9966976195231798 l -38.418194085790695 -16.64467037419659" fill="red" stroke="none" /><path d="M 119.12269723197855 108.67885076344098 l 38.14508568688035 17.312176311691275 a62.88984376560181,62.88984376560181 0 0,0 -0.45587764590961327,0.9819198925100179 l -37.841433424130905 -17.966216271480125" fill="red" stroke="none" /><path d="M 118.81262510543309 109.33194174019688 l 37.229769691352146 18.467706649844896 a62.558536309353435,62.558536309353435 0 0,0 -0.4868285342808822,0.9605588835711947 l -36.906362487284994 -19.105819745118787" fill="red" stroke="none" /><path d="M 118.64920377521936 109.65438752849418 l 19.103444714446553 9.88954062733231 a42.511499570638314,42.511499570638314 0 0,0 -0.3420100582884704,0.6469541404261072 l -18.93038214793319 -10.216909782844551" fill="red" stroke="none" /><line stroke="#e1ed5e" stroke-width="0.3" x1="174.80103733775053" x2="179.2010983576182" y1="140.37084112569926" y2="142.7455964860345" /><path d="M 175.68104954172406 140.8457921977663 a86.0,86.0 0 0,1 -30.038265399797805,32.042727171017184" fill="none" id="id137" stroke="none" /><text fill="#e1ed5e" style="font-size:6.75px; font-family:Arial;" text-anchor="middle"><textPath startOffset="22.206326154141568" xlink:href="#id137">May</textPath></text><path d="M 118.48025628344425 109.97397251340804 l 26.526302243241833 14.316501102501956 a51.1431072472258,51.1431072472258 0 0,0 -0.4247887808508403,0.7711150254864079 l -26.275937052939483 -14.77098664638617" fill="red" stroke="none" /><path d="M 118.12598468904814 110.60418214915192 l 36.930443459338946 21.605289644120948 a63.786051403580004,63.786051403580004 0 0,0 -0.5625903135066168,0.9429337255714622 l -36.5530722701341 -22.237785463578515" fill="red" stroke="none" /><path d="M 117.75023020441432 111.22182372390056 l 18.825597126193124 11.901678457937413 a43.2722485904289,43.2722485904289 0 0,0 -0.40345218213072703,0.6261667461647951 l -18.617940080685344 -12.22396680402366" fill="red" stroke="none" /><path d="M 117.55443506779139 111.5257021239791 l 18.040204800633944 11.84464358919668 a42.581116074103164,42.581116074103164 0 0,0 -0.40755581424001736,0.6092406443897979 l -17.833645880983205 -12.153421147792285" fill="red" stroke="none" /><path d="M 117.35343817320211 111.8261652097733 l 25.455744744301214 17.34779240166993 a51.80488340666875,51.80488340666875 0 0,0 -0.5085243652391428,0.7325672756663317 l -25.153359471899936 -17.783400939523283" fill="red" stroke="none" /><path d="M 117.14729908036423 112.12312394758627 l 24.04009713570114 16.996325539213018 a50.44149031772765,50.44149031772765 0 0,0 -0.5073458122759265,0.7046589595325445 l -23.74397153104961 -17.407618104196697" fill="red" stroke="none" /><path d="M 116.93607887273984 112.41649034213515 l 25.666745175395533 18.817277362666534 a52.82564587313527,52.82564587313527 0 0,0 -0.5439500356962099,0.7287099638594855 l -25.33903387300423 -19.256300206035334" fill="red" stroke="none" /><path d="M 116.498646956653 112.99209946851258 l 33.348303250581004 26.260606344022516 a63.4467757933206,63.4467757933206 0 0,0 -0.683056168797213,0.8522175952617604 l -32.89132916972894 -26.830751772862527" fill="red" stroke="none" /><path d="M 116.0416608686014 113.55231037782055 l 32.350926578916216 27.33069858531311 a63.35031919213436,63.35031919213436 0 0,0 -0.7109036780337387,0.8269415840948093 l -31.875680391311697 -27.88351726856945" fill="red" stroke="none" /><path d="M 115.56566222782051 114.09645910891815 l 30.861298455856044 27.948379282800797 a62.63570159030242,62.63570159030242 0 0,0 -0.7306114329644118,0.7929344129723779 l -30.375640614895907 -28.47546495057451" fill="red" stroke="none" /><line stroke="#e1ed5e" stroke-width="0.3" x1="143.8653032363475" x2="146.44561519142675" y1="172.8068346515853" y2="177.08958963109032" /><path d="M 144.38136562736335 173.6633856474863 a86.0,86.0 0 0,1 -40.68145358897372,12.25698825130547" fill="none" id="id138" stroke="none" /><text fill="#e1ed5e" style="font-size:6.75px; font-family:Arial;" text-anchor="middle"><textPath startOffset="21.466115282336833" xlink:href="#id138">June</textPath></text><line stroke="#e1ed5e" stroke-width="0.3" x1="102.19456741930631" x2="102.32365962044197" y1="184.97166512339345" y2="189.96999836594603" /><path d="M 102.22038585953345 185.97133177190398 a86.0,86.0 0 0,1 -42.740103519485714,-10.115201625700543" fill="none" id="id139" stroke="none" /><text fill="#e1ed5e" style="font-size:6.75px; font-family:Arial;" text-anchor="middle"><textPath startOffset="22.20632615414155" xlink:href="#id139">July</textPath></text><line stroke="#e1ed5e" stroke-width="0.3" x1="58.666819895761336" x2="56.23545636021788" y1="174.27360380694188" y2="178.64263932499728" /><path d="M 58.180547188652646 175.14741091055294 a86.0,86.0 0 0,1 -31.652253787137756,-30.449443065178592" fill="none" id="id140" stroke="none" /><text fill="#e1ed5e" style="font-size:6.75px; font-family:Arial;" text-anchor="middle"><textPath startOffset="22.20632615414155" xlink:href="#id140">August</textPath></text><line stroke="#e1ed5e" stroke-width="0.3" x1="26.63291911575756" x2="22.317208475507996" y1="142.92168965132927" y2="145.44649492493687" /><path d="M 25.769776987707644 143.4266507060508 a86.0,86.0 0 0,1 -11.730757126820373,-40.83630448921669" fill="none" id="id141" stroke="none" /><text fill="#e1ed5e" style="font-size:6.75px; font-family:Arial;" text-anchor="middle"><textPath startOffset="21.46611528233685" xlink:href="#id141">September</textPath></text><line stroke="#e1ed5e" stroke-width="0.3" x1="15.007084014347285" x2="10.007500721073583" y1="101.09737516637583" y2="101.16192664675087" /><path d="M 14.007167355692545 101.11028546245083 a86.0,86.0 0 0,1 10.666146001902534,-42.60595125391555" fill="none" id="id142" stroke="none" /><text fill="#e1ed5e" style="font-size:6.75px; font-family:Arial;" text-anchor="middle"><textPath startOffset="22.20632615414155" xlink:href="#id142">October</textPath></text><line stroke="#e1ed5e" stroke-width="0.3" x1="26.266209847984243" x2="21.928928074336255" y1="57.711370442889674" y2="55.22380399835377" /><path d="M 25.398753493254645 57.213857153982495 a86.0,86.0 0 0,1 29.58750427330803,-30.492523968695096" fill="none" id="id143" stroke="none" /><text fill="#e1ed5e" style="font-size:6.75px; font-family:Arial;" text-anchor="middle"><textPath startOffset="21.46611528233685" xlink:href="#id143">November</textPath></text><line stroke="#e1ed5e" stroke-width="0.3" x1="56.762969772571076" x2="54.21961505331055" y1="26.818313649435495" y2="22.513508569990535" /><path d="M 56.25429882871897 25.957352633546506 a86.0,86.0 0 0,1 42.265352541879196,-11.944610805530505" fill="none" id="id144" stroke="none" /><text fill="#e1ed5e" style="font-size:6.75px; font-family:Arial;" text-anchor="middle"><textPath startOffset="22.20632615414155" xlink:href="#id144">December</textPath></text></svg>