<?xml version="1.0" encoding="utf-8" ?>
<svg baseProfile="full" height="200mm" version="1.1" viewBox="0,0,200,200" width="200mm" xmlns="http://www.w3.org/2000/svg" xmlns:ev="http://www.w3.org/2001/xml-events" xmlns:xlink="http://www.w3.org/1999/xlink"><defs /><rect fill="#1a1a1a" height="200" width="200" x="0" y="0" /><rect fill="#1a1a1a" height="200" width="180" x="10" y="0" /><text alignment-baseline="middle" fill="#e1ed5e" style="dominant-baseline: central; font-size:9.0px; font-family:Arial;" text-anchor="middle" x="100.0" y="100.0">2018</text><line stroke="#e1ed5e" stroke-width="0.3" x1="100.0" x2="100.0" y1="15.0" y2="10.0" /><path d="M 100.0 14.0 a86.0,86.0 0 0,1 42.46469731375804,11.215312516191453" fill="none" id="id37" stroke="none" /><text fill="#e1ed5e" style="font-size:6.75px; font-family:Arial;" text-anchor="middle"><textPath startOffset="22.20632615414155" xlink:href="#id37">January</textPath></text><path d="M 100.0 79.0 l 0.0 -7.045696254914134 a28.045696254914134,28.045696254914134 0 0,0 0.48276055827419595,0.004155272538013662 l -0.12128007900166758 7.044652358984679" fill="#ff5007" stroke="none" /><path d="M 101.08401301168833 79.027996857942 l 0.43975833736461706 -8.5078436637886 a29.519201324229257,29.519201324229257 0 0,0 0.507221339320281,0.030596976349193773 l -0.5861417255245099 8.499013418059103" fill="#ff6409" stroke="none" /><path d="M 101.44485096284872 79.0497635885617 l 0.4814276492598414 -6.98066674441683 a27.997248086074904,27.997248086074904 0 0,0 0.4804991848132292,0.03729598450725995 l -0.6015170234354117 6.971345497721105" fill="#ff4f07" stroke="none" /><path d="M 102.16513564639614 79.11191278185805 l 0.739594149437095 -7.135214426488206 a28.173442996068694,28.173442996068694 0 0,0 0.48194470480755236,0.05415210304698534 l -0.8623055577543727 7.12142636997062" fill="#ff5107" stroke="none" /><path d="M 102.52436894288641 79.15227682838746 l 1.0900280461224168 -9.002092589869275 a30.06784605834885,30.06784605834885 0 0,0 0.5132799979719751,0.06663847497134087 l -1.2448227726022378 8.981995791733796" fill="#ff6c09" stroke="none" /><path d="M 103.2404852339499 79.25152402106235 l 0.9909975551138405 -6.345250011339298 a27.422170494516863,27.422170494516863 0 0,0 0.46574701522259254,0.07685224818614657 l -1.1000737764753081 6.327251500213526" fill="#ff4706" stroke="none" /><path d="M 103.95276090670814 79.375362276772 l 1.3561085990922301 -7.075876641606532 a28.20465549348231,28.20465549348231 0 0,0 0.47603225315703346,0.09548759170437265 l -1.477707261716389 7.051485093824951" fill="#ff5207" stroke="none" /><path d="M 106.74666289553966 80.11325718540242 l 3.5466861109695853 -10.45435878819253 a32.03959238568177,32.03959238568177 0 0,0 0.5207471173195476,0.18167844409510586 l -3.7261152323524063 10.391759490925217" fill="#ff870c" stroke="none" /><path d="M 107.08798089147638 80.2323363322302 l 1.4220936901375814 -3.96607584037122 a25.213325056900477,25.213325056900477 0 0,0 0.4072764516829429,0.15000335430219322 l -1.4901524675931006 3.9410092182627023" fill="#ff2703" stroke="none" /><path d="M 107.76421540070413 80.48803036053334 l 2.7606099202503587 -6.9375892051437 a28.466666666666665,28.466666666666665 0 0,0 0.45372631011351916,0.1850863542844814 l -2.8796200999522656 6.88904196467564" fill="#ff5607" stroke="none" /><path d="M 108.76106565485865 80.91482961587045 l 3.94559144813646 -8.595105666408081 a30.457459135112764,30.457459135112764 0 0,0 0.47458782178385706,0.22282534585545005 l -4.092957481219915 8.525915337912627" fill="#ff710a" stroke="none" /><path d="M 109.41281617654863 81.2277094730956 l 4.876824271896907 -9.726011893103374 a31.880198634388577,31.880198634388577 0 0,0 0.48843426496199055,0.25019500140330714 l -5.043519024447653 9.640624366387566" fill="#ff840c" stroke="none" /><path d="M 110.05341064243156 81.56283822128135 l 3.5121758918943677 -6.441053431247303 a28.336385267949513,28.336385267949513 0 0,0 0.4262276909009199,0.23719524851943238 l -3.6225276718673225 6.3796427851676905" fill="#ff5407" stroke="none" /><line stroke="#e1ed5e" stroke-width="0.3" x1="143.23703022742887" x2="145.7803849466894" y1="26.81831364943548" y2="22.513508569990506" /><path d="M 143.74570117128098 25.957352633546492 a86.0,86.0 0 0,1 28.547481713284135,27.462654790039103" fill="none" id="id38" stroke="none" /><text fill="#e1ed5e" style="font-size:6.75px; font-family:Arial;" text-anchor="middle"><textPath startOffset="19.985693538727396" xlink:href="#id38">February</textPath></text><path d="M 110.68208982089419 81.91981866633111 l 3.7493774265475297 -6.346082545359976 a28.370929029588247,28.370929029588247 0 0,0 0.418319802105131,0.25203300015612884 l -3.8580592948702983 6.280602935745232" fill="#ff5407" stroke="none" /><path d="M 111.2981086023043 82.29822771554956 l 4.840014970416066 -7.583290785695068 a29.996223877508793,29.996223877508793 0 0,0 0.432849758897242,0.28153752368612556 l -4.969831755097587 7.498854337849414" fill="#ff6b09" stroke="none" /><path d="M 113.34407831869373 83.78471172551755 l 7.382453260608995 -8.970916157316605 a32.618001241464924,32.618001241464924 0 0,0 0.4304682477871503,0.36050477791766533 l -7.535779045355262 8.84251022200512" fill="#ff8e0d" stroke="none" /><path d="M 113.89432698308785 84.25364557470407 l 6.783055380925687 -7.687194510714599 a31.25196565280364,31.25196565280364 0 0,0 0.40030644650627106,0.3593990801457119 l -6.9143728150279475 7.56929642179959" fill="#ff7c0b" stroke="none" /><path d="M 114.42810811169701 84.74124197986012 l 5.070138094661828 -5.362034281710027 a28.379546865301055,28.379546865301055 0 0,0 0.3520641665284569,0.338685449260302 l -5.161685504802703 5.273965745687423" fill="#ff5407" stroke="none" /><path d="M 115.68641384162765 86.03803664274999 l 6.0793373569337215 -5.411019132277494 a29.138640595903162,29.138640595903162 0 0,0 0.3302492164812272,0.37753194378754845 l -6.171578436992797 5.305571632286998" fill="#ff5f08" stroke="none" /><path d="M 116.38621287248628 86.86637796730983 l 11.519454531763195 -9.232893714994326 a35.762931926339746,35.762931926339746 0 0,0 0.3808682757772252,0.483664032458105 l -11.676676888134384 9.033237288583182" fill="#ffb811" stroke="none" /><path d="M 117.45458315368197 88.32363383020206 l 4.5449452037556535 -3.0403730615315987 a26.46812538795779,26.46812538795779 0 0,0 0.2500650063209121,0.38086616060070305 l -4.59660684543449 2.9616888369532215" fill="#ff3905" stroke="none" /><line stroke="#e1ed5e" stroke-width="0.3" x1="172.23445277983987" x2="176.4835382374775" y1="55.19839476539836" y2="52.563006222186495" /><path d="M 173.08426987136738 54.67131705675599 a86.0,86.0 0 0,1 12.851231095245387,41.99856678651699" fill="none" id="id39" stroke="none" /><text fill="#e1ed5e" style="font-size:6.75px; font-family:Arial;" text-anchor="middle"><textPath startOffset="22.20632615414155" xlink:href="#id39">March</textPath></text><path d="M 118.03404312379186 89.2402003453031 l 19.2726941924744 -11.49882624178083 a43.442364990689015,43.442364990689015 0 0,0 0.3776182593894871,0.6454720120538738 l -19.467772126334214 11.16537481737306" fill="#e6ff1a" stroke="none" /><path d="M 118.3937258080291 89.86733742301442 l 6.316333638567905 -3.479516773884649 a28.211318021932545,28.211318021932545 0 0,0 0.23065022927323703,0.42735984514440317 l -6.375291967059607 3.370275945407787" fill="#ff5207" stroke="none" /><path d="M 118.89224826269711 90.83032412892265 l 6.473321564872008 -3.1419373561978228 a28.195530726256983,28.195530726256983 0 0,0 0.208166000447102,0.43845068589044767 l -6.5264457591608664 3.0300442546668345" fill="#ff5207" stroke="none" /><path d="M 119.47837535516314 92.15188598940014 l 8.061177832946314 -3.2479630122700787 a29.69090626939789,29.69090626939789 0 0,0 0.1869204437462981,0.47569214094690065 l -8.11589182657431 3.1087218664273935" fill="#ff6709" stroke="none" /><path d="M 119.7369772167798 92.82701384747503 l 6.71219215872534 -2.4394040120130867 a28.141723567142563,28.141723567142563 0 0,0 0.16154276555814345,0.45670315181563165 l -6.7531880050932935 2.3235032337708406" fill="#ff5107" stroke="none" /><path d="M 119.97218684219823 93.5106431181261 l 6.8859207397382365 -2.2373712750396177 a28.24028553693358,28.24028553693358 0 0,0 0.14623696137912218,0.46361113042515495 l -6.923413184885565 2.1185099781880434" fill="#ff5207" stroke="none" /><path d="M 120.37134235888165 94.90015583598534 l 5.901844413104373 -1.4774915789469427 a27.083974756879783,27.083974756879783 0 0,0 0.10932536656892157,0.4532242245205429 l -5.926402579934114 1.3756821227669938" fill="#ff4206" stroke="none" /><path d="M 120.45610955862082 95.25157060432595 l 5.667085872790553 -1.3154875353523525 a26.817763294020278,26.817763294020278 0 0,0 0.10050992853762485,0.45056630161771544 l -5.688890188330215 1.2177430641846732" fill="#ff3e05" stroke="none" /><path d="M 120.6074358757038 95.95851677861258 l 5.6709889746919195 -1.1121813954987132 a26.779019242706394,26.779019242706394 0 0,0 0.0848184323491697,0.4531034571897839 l -5.689293130950949 1.0143998608463667" fill="#ff3e05" stroke="none" /><path d="M 120.78858239683441 97.02765380044208 l 62.36574719050324 -8.917038598673738 a84.0,84.0 0 0,0 0.19233600376865523,1.4331266317413425 l -62.50999919332973 7.84219362486773" fill="#4dd2ff" stroke="none" /><path d="M 120.94382443527127 98.46500227214037 l 5.775477346597926 -0.42329158324124266 a26.79096834264432,26.79096834264432 0 0,0 0.029749978484279963,0.46021899949965817 l -5.781907916086621 0.3238135194885493" fill="#ff3e05" stroke="none" /><line stroke="#e1ed5e" stroke-width="0.3" x1="184.98032266829074" x2="189.97916517819016" y1="98.17113171792111" y2="98.06355123074" /><path d="M 185.9800911702706 98.14961562048488 a86.0,86.0 0 0,1 -9.607161424134198,41.387399972396054" fill="none" id="id40" stroke="none" /><text fill="#e1ed5e" style="font-size:6.75px; font-family:Arial;" text-anchor="middle"><textPath startOffset="21.466115282336823" xlink:href="#id40">April</textPath></text><path d="M 120.99513854157772 99.54816195383933 l 8.696641358232114 -0.18716111025806859 a29.698655079660668,29.698655079660668 0 0,0 0.006600162470009391,0.5111898569364662 l -8.698574527819838 0.037434995261139595" fill="#ff6709" stroke="none" /><path d="M 120.99824983174949 100.27111621757518 l 5.859495068230589 0.07565412129715443 a26.859983447134287,26.859983447134287 0 0,0 -0.009948346073026087,0.4622605507382509 l -5.857324659472555 -0.17650448782552017" fill="#ff3f05" stroke="none" /><path d="M 120.92983693683757 101.71520430193887 l 8.671612969651056 0.710640408483839 a29.700682805710738,29.700682805710738 0 0,0 -0.04614270320870665,0.5091808848986346 l -8.658095670165274 -0.8598026819310441" fill="#ff6709" stroke="none" /><path d="M 120.8583938346157 102.4346265915055 l 5.670062110494694 0.6618191265901258 a26.708555762466375,26.708555762466375 0 0,0 -0.057230699976542114,0.45618498860103707 l -5.657829901271303 -0.7593218694785577" fill="#ff3d05" stroke="none" /><path d="M 120.49622156327973 104.57218783832717 l 6.179824966275862 1.3785624080302814 a27.331719428926135,27.331719428926135 0 0,0 -0.10638472753644458,0.45830262188000354 l -6.155179672808864 -1.48473368725885" fill="#ff4606" stroke="none" /><path d="M 120.02730092923936 106.31721596034902 l 4.15160050161541 1.309540264185462 a25.353238154355473,25.353238154355473 0 0,0 -0.13486443636533577,0.41507005555201637 l -4.128443814233827 -1.3808092197152737" fill="#ff2a04" stroke="none" /><path d="M 119.54520255179757 107.68017299344265 l 6.7593993996379735 2.656066448194345 a28.262518104696877,28.262518104696877 0 0,0 -0.18181868144988875,0.45125905651708526 l -6.712678103930692 -2.7720248725542436" fill="#ff5307" stroke="none" /><path d="M 119.26925614724726 108.34839909993367 l 7.210521361948415 3.1239560877777874 a28.85816263190565,28.85816263190565 0 0,0 -0.20140100057050508,0.45410608797513236 l -7.155679276646637 -3.2476105122456076" fill="#ff5b08" stroke="none" /><line stroke="#e1ed5e" stroke-width="0.3" x1="174.80103733775053" x2="179.2010983576182" y1="140.37084112569926" y2="142.7455964860345" /><path d="M 175.68104954172406 140.8457921977663 a86.0,86.0 0 0,1 -30.038265399797805,32.042727171017184" fill="none" id="id41" stroke="none" /><text fill="#e1ed5e" style="font-size:6.75px; font-family:Arial;" text-anchor="middle"><textPath startOffset="22.206326154141568" xlink:href="#id41">May</textPath></text><path d="M 118.48025628344425 109.97397251340804 l 5.64037203381693 3.044163174354022 a27.409424787916407,27.409424787916407 0 0,0 -0.22765953744653217,0.4132681886482059 l -5.587136086918887 -3.1408018814000327" fill="#ff4706" stroke="none" /><path d="M 116.498646956653 112.99209946851258 l 5.715582375765538 4.500818457508682 a28.27497413614732,28.27497413614732 0 0,0 -0.30440310425215183,0.3797896766715246 l -5.637261359458532 -4.598535967758457" fill="#ff5307" stroke="none" /><path d="M 115.56566222782051 114.09645910891815 l 3.273630859458798 2.9646412001396065 a25.416532174632735,25.416532174632735 0 0,0 -0.2964700405937425,0.32175967552036255 l -3.2221144108693336 -3.020552130461304" fill="#ff2a04" stroke="none" /><path d="M 115.07121518719521 114.62390073753431 l 5.179346431701326 5.025623160556744 a28.216821849782743,28.216821849782743 0 0,0 -0.34123459237572057,0.34566884050050933 l -5.09207121427007 -5.114032495037918" fill="#ff5207" stroke="none" /><path d="M 114.0293411484842 115.62618273729858 l 2.8696335639740402 3.1962597519833365 a25.29544796192841,25.29544796192841 0 0,0 -0.32650117174924603,0.28809932242840935 l -2.814190039318207 -3.245182216184035" fill="#ff2903" stroke="none" /><path d="M 112.34349029814194 116.9893568818739 l 3.874803704909174 5.333209764811706 a27.592209807572935,27.592209807572935 0 0,0 -0.3866492052680334,0.2758639417856261 l -3.782427171792256 -5.399117968441551" fill="#ff4906" stroke="none" /><path d="M 111.7513745106137 117.40417183066458 l 3.6835805534562884 5.455503851617074 a27.582650527622597,27.582650527622597 0 0,0 -0.39577859427553175,0.26230047113870586 l -3.5891272604407924 -5.518102343847098" fill="#ff4906" stroke="none" /><path d="M 111.1453310114006 117.79835938074945 l 4.053798028948356 6.473648391635308 a28.638154355472793,28.638154355472793 0 0,0 -0.42005462938260796,0.25803186156212227 l -3.9417641996334396 -6.542468720025809" fill="#ff5808" stroke="none" /><line stroke="#e1ed5e" stroke-width="0.3" x1="143.8653032363475" x2="146.44561519142675" y1="172.8068346515853" y2="177.08958963109032" /><path d="M 144.38136562736335 173.6633856474863 a86.0,86.0 0 0,1 -40.68145358897372,12.25698825130547" fill="none" id="id42" stroke="none" /><text fill="#e1ed5e" style="font-size:6.75px; font-family:Arial;" text-anchor="middle"><textPath startOffset="21.466115282336833" xlink:href="#id42">June</textPath></text><path d="M 109.57404056367764 118.69057910512821 l 3.3782186029226 6.595006738522375 a28.40989033726464,28.40989033726464 0 0,0 -0.4371688116975414,0.2192055176608069 l -3.264195883542298 -6.652180097092484" fill="#ff5507" stroke="none" /><path d="M 108.59647513512805 119.15986991738527 l 3.244355606553602 7.231037187939322 a28.925512104283055,28.925512104283055 0 0,0 -0.45603043012690525,0.19991033906865635 l -3.119404501768943 -7.285812080302432" fill="#ff5c08" stroke="none" /><path d="M 107.93186726928326 119.44442032107085 l 2.7792444505234672 6.813124253888972 a28.35818332298779,28.35818332298779 0 0,0 -0.4535674333301254,0.18048384228707187 l -2.6615559411514758 -6.859954940582113" fill="#ff5407" stroke="none" /><path d="M 106.91757812671514 119.82793768551818 l 2.386609778906187 6.840768417641449 a28.245137595696256,28.245137595696256 0 0,0 -0.4604364522075938,0.15620504357217588 l -2.2685035937613662 -6.880836448111748" fill="#ff5207" stroke="none" /><path d="M 105.88484417918355 120.15858648285463 l 2.089487004389674 7.157556462035989 a28.456310780053798,28.456310780053798 0 0,0 -0.47138398052902997,0.13321782142481892 l -1.9659718557560384 -7.192463076799326" fill="#ff5507" stroke="none" /><path d="M 105.18746579009965 120.34920634021253 l 2.3408533295320377 9.182616202642148 a30.47628801986344,30.47628801986344 0 0,0 -0.5094571810758518,0.12521218007681054 l -2.1824428637129745 -9.221549641032988" fill="#ff710a" stroke="none" /><path d="M 104.48393922423573 120.51570834832081 l 1.4721633139616068 6.735700838024111 a27.89470308297124,27.89470308297124 0 0,0 -0.4699706729355942,0.09848692395291575 l -1.3560011795966347 -6.760043742703568" fill="#ff4e07" stroke="none" /><path d="M 103.41894727170886 120.7198165907248 l 0.7107066783617433 4.3070895381484915 a25.365332091868403,25.365332091868403 0 0,0 -0.43140890147025446,0.06737719803748562 l -0.6364619132829716 -4.318685043533083" fill="#ff2a04" stroke="none" /><path d="M 101.26447882468166 120.96189622390904 l 0.3460986423718311 5.737449835477135 a26.74787916408028,26.74787916408028 0 0,0 -0.4598239772794031,0.023767647328714843 l -0.24728659667894837 -5.742557289568052" fill="#ff3d05" stroke="none" /><line stroke="#e1ed5e" stroke-width="0.3" x1="102.19456741930631" x2="102.32365962044197" y1="184.97166512339345" y2="189.96999836594603" /><path d="M 102.22038585953345 185.97133177190398 a86.0,86.0 0 0,1 -42.740103519485714,-10.115201625700543" fill="none" id="id43" stroke="none" /><text fill="#e1ed5e" style="font-size:6.75px; font-family:Arial;" text-anchor="middle"><textPath startOffset="22.20632615414155" xlink:href="#id43">July</textPath></text><path d="M 100.18074693466247 120.99922214144158 l 0.0679836106514247 7.8983521613383365 a28.898644734119593,28.898644734119593 0 0,0 -0.49746109062775484,0.0 l 0.06798361065141927 -7.8983521613383365" fill="#ff5c08" stroke="none" /><path d="M 99.09653310690486 120.98055641714683 l -0.4036469991097097 9.373601514517812 a30.382288433685083,30.382288433685083 0 0,0 -0.5223032682601507,-0.026997113008527713 l 0.5649383357833494 -9.365264594747082" fill="#ff700a" stroke="none" /><path d="M 98.37488393609728 120.93702456842531 l -0.4964119274031827 6.395474730057166 a27.414711359404095,27.414711359404095 0 0,0 -0.47016971778880423,-0.040568221621814386 l 0.6064259629335286 -6.385982256156688" fill="#ff4706" stroke="none" /><path d="M 95.86986931433489 120.58985236759428 l -2.29782138002525 11.455279888849988 a32.683467825367266,32.683467825367266 0 0,0 -0.5506519041291834,-0.11539446039845246 l 2.4946647455838202 -11.414029447724994" fill="#ff8f0d" stroke="none" /><path d="M 93.42475214034765 119.94407469862007 l -2.6771040711423373 8.120205460006133 a29.550124146492863,29.550124146492863 0 0,0 -0.481709613847954,-0.16342205500777773 l 2.816483417927517 -8.072920418100233" fill="#ff6509" stroke="none" /><path d="M 92.40401165467489 119.57807347666478 l -3.1066853637051297 8.007241658938431 a29.588795779019243,29.588795779019243 0 0,0 -0.47325013749877115,-0.18831599648049427 l 3.244056577245759 -7.9525788180518715" fill="#ff6509" stroke="none" /><path d="M 91.7346041902142 119.30500536409082 l -3.1551761816823185 7.36936191729786 a29.0163976825988,29.0163976825988 0 0,0 -0.45746330326749673,-0.2005384685452285 l 3.2815601596075585 -7.31395889545818" fill="#ff5d08" stroke="none" /><path d="M 90.42595943632237 118.69057910512821 l -3.5600718873723407 6.950023324876766 a28.808773018828884,28.808773018828884 0 0,0 -0.4394148611895297,-0.22988108734547247 l 3.679177651088366 -6.887712818586577" fill="#ff5a08" stroke="none" /><line stroke="#e1ed5e" stroke-width="0.3" x1="58.666819895761336" x2="56.23545636021788" y1="174.27360380694188" y2="178.64263932499728" /><path d="M 58.180547188652646 175.14741091055294 a86.0,86.0 0 0,1 -31.652253787137756,-30.449443065178592" fill="none" id="id44" stroke="none" /><text fill="#e1ed5e" style="font-size:6.75px; font-family:Arial;" text-anchor="middle"><textPath startOffset="22.20632615414155" xlink:href="#id44">August</textPath></text><path d="M 89.7882731507175 118.34994917583269 l -3.830189912277434 6.88265474208374 a28.876629422718807,28.876629422718807 0 0,0 -0.4322573364852859,-0.2454469968798504 l 3.948096015683927 -6.815704579409256" fill="#ff5b08" stroke="none" /><path d="M 89.1626897886671 117.98757091392108 l -3.8963564752842776 6.46710180278871 a28.55016552865715,28.55016552865715 0 0,0 -0.41876403943819024,-0.2572390758086099 l 4.007099714654776 -6.399074260151722" fill="#ff5708" stroke="none" /><path d="M 88.54995079064634 117.60387380957326 l -4.293353854167334 6.600815252991653 a28.874239602731222,28.874239602731222 0 0,0 -0.41431137842607196,-0.27458298991184993 l 4.406339931333368 -6.525934241988485" fill="#ff5b08" stroke="none" /><path d="M 87.95078237400918 117.19931262002967 l -5.016185947400642 7.160211803581637 a29.742468446099732,29.742468446099732 0 0,0 -0.4167807460001872,-0.29736199605599456 l 5.138694021249716 -7.072805545681423" fill="#ff6709" stroke="none" /><path d="M 86.51685102203217 116.09983520530335 l -5.129576103173975 6.125077314588143 a28.98931305607283,28.98931305607283 0 0,0 -0.37980765866862426,-0.32368032646859196 l 5.234249238419656 -6.0358725978966" fill="#ff5d08" stroke="none" /><path d="M 84.67929136418377 114.36230785411682 l -5.736627432817059 5.377767516698222 a28.863159528243326,28.863159528243326 0 0,0 -0.33667307633502397,-0.36539213062152937 l 5.828346917147812 -5.278224131275349" fill="#ff5b08" stroke="none" /><path d="M 83.72743513129214 113.27417163493432 l -7.335617024509373 5.983951529284381 a30.466728739913098,30.466728739913098 0 0,0 -0.3279991260179871,-0.40922934187860893 l 7.437534062582221 -5.856794353827513" fill="#ff710a" stroke="none" /><path d="M 83.06392112726016 112.41649034213515 l -3.7107755957597024 2.7205122090416536 a25.60120008276433,25.60120008276433 0 0,0 -0.25749956175786176,-0.35764436973355207 l 3.7570549498931713 -2.656234233856963" fill="#ff2d04" stroke="none" /><path d="M 82.24976979558568 111.22182372390057 l -4.751268599443545 3.0037863212951295 a26.621146285950754,26.621146285950754 0 0,0 -0.24153665238312783,-0.38943399058600203 l 4.802269891494629 -2.9215559993438633" fill="#ff3c05" stroke="none" /><line stroke="#e1ed5e" stroke-width="0.3" x1="26.63291911575756" x2="22.317208475507996" y1="142.92168965132927" y2="145.44649492493687" /><path d="M 25.769776987707644 143.4266507060508 a86.0,86.0 0 0,1 -11.730757126820373,-40.83630448921669" fill="none" id="id45" stroke="none" /><text fill="#e1ed5e" style="font-size:6.75px; font-family:Arial;" text-anchor="middle"><textPath startOffset="21.46611528233685" xlink:href="#id45">September</textPath></text><path d="M 81.69416730710424 110.29060199501025 l -6.334128701082055 3.560722887700318 a28.266356300434513,28.266356300434513 0 0,0 -0.23477711226878736,-0.42618865438995346 l 6.394482222802359 -3.4511637149125423" fill="#ff5307" stroke="none" /><path d="M 81.02952815118164 109.00673069616217 l -1.9257665349805726 0.9143083367919365 a23.131791847713636,23.131791847713636 0 0,0 -0.16767837510474198,-0.3611643026070725 l 1.941219526925141 -0.8810239669060369" fill="#ff0901" stroke="none" /><path d="M 80.58989483394504 108.01547362559985 l -10.046693995426763 4.14881887840811 a31.869625491413203,31.869625491413203 0 0,0 -0.20502395659457318,-0.5088526463754234 l 10.116620566278725 -3.9752668641898814" fill="#ff840c" stroke="none" /><path d="M 80.32549172779594 107.34259656027581 l -1.4059423422877884 0.524702689571817 a22.500662114628597,22.500662114628597 0 0,0 -0.13229932773692935,-0.36403092963171735 l 1.414765931029942 -0.5004239629339825" fill="#ff0000" stroke="none" /><path d="M 80.0844068197444 106.66101706037122 l -8.891277359504349 2.9737979503852654 a30.375408648872337,30.375408648872337 0 0,0 -0.1615794535536705,-0.49729042414790736 l 8.941149064074269 -2.8203086262595547" fill="#ff700a" stroke="none" /><path d="M 79.76711848015287 105.62410040840567 l -7.54787372981758 2.098069900959033 a28.834047175667287,28.834047175667287 0 0,0 -0.12880844916196957,-0.4793441572509378 l 7.582870255321325 -1.967834810532556" fill="#ff5b08" stroke="none" /><path d="M 79.58551787078972 104.9243191809786 l -5.126993206510786 1.236717680505996 a26.27404303745086,26.27404303745086 0 0,0 -0.10226787659987956,-0.4405673357932817 l 5.147521649041221 -1.1482816873641402" fill="#ff3705" stroke="none" /><path d="M 79.23777060512086 103.15116336523772 l -6.368501337976122 0.9665719285736941 a27.441433891992553,27.441433891992553 0 0,0 -0.06686033364519342,-0.4676210177904778 l 6.384195722637914 -0.8568054388028157" fill="#ff4706" stroke="none" /><path d="M 79.04373962182676 101.35467743843564 l -8.012781314884942 0.5179709485619357 a29.029505483136766,29.029505483136766 0 0,0 -0.027942487511647768,-0.49893188522188364 l 8.020510153284121 -0.3799673470046145" fill="#ff5d08" stroke="none" /><line stroke="#e1ed5e" stroke-width="0.3" x1="15.007084014347285" x2="10.007500721073583" y1="101.09737516637583" y2="101.16192664675087" /><path d="M 14.007167355692545 101.11028546245083 a86.0,86.0 0 0,1 10.666146001902534,-42.60595125391555" fill="none" id="id46" stroke="none" /><text fill="#e1ed5e" style="font-size:6.75px; font-family:Arial;" text-anchor="middle"><textPath startOffset="22.20632615414155" xlink:href="#id46">October</textPath></text><path d="M 79.00175016825051 100.2711162175752 l -14.788132218221538 0.1909350781198987 a35.78936478377819,35.78936478377819 0 0,0 -0.002651314847670911,-0.6160721976403325 l 14.789227830358712 0.06364659772410916" fill="#ffb811" stroke="none" /><path d="M 79.01574976396665 99.18683210126434 l -7.255045092468432 -0.28114274785688825 a28.260490378646804,28.260490378646804 0 0,0 0.023020715234789043,-0.485930914148413 l 7.2491307690001445 0.40598476862831034" fill="#ff5307" stroke="none" /><path d="M 79.08570108090925 98.10471618934814 l -7.840013226436039 -0.7104732604637853 a28.872139457893645,28.872139457893645 0 0,0 0.049114086149500046,-0.49457214494849855 l 7.82662201460431 0.8453209361167142" fill="#ff5b08" stroke="none" /><path d="M 79.16333360222342 97.38593545837743 l -8.195985387486008 -1.0282275665444263 a29.26023174012001,29.26023174012001 0 0,0 0.06699757193142523,-0.49920973044868916 l 8.177071816496749 1.1691556390577749" fill="#ff6108" stroke="none" /><path d="M 79.46518482838121 95.60439243477599 l -9.813131982919769 -2.100563205569063 a31.03543347817091,31.03543347817091 0 0,0 0.11631727697890125,-0.521427545170416 l 9.77552031893883 2.269168920289438" fill="#ff790b" stroke="none" /><path d="M 80.803312248108 91.48605970444005 l -4.193904967438659 -1.8600425739854936 a25.587875025863852,25.587875025863852 0 0,0 0.1820366306045418,-0.40109358566733355 l 4.161266019870765 1.931958168494898" fill="#ff2d04" stroke="none" /><path d="M 81.10775173730289 90.83032412892265 l -7.293692590887187 -3.54011846720067 a29.10742809848955,29.10742809848955 0 0,0 0.22265794631908714,-0.448864833007226 l 7.231674631614688 3.6651428887068573" fill="#ff5e08" stroke="none" /><path d="M 81.43458229118936 90.18545643968196 l -3.2258677725226996 -1.705343788641233 a24.648893027105316,24.648893027105316 0 0,0 0.20152453790401276,-0.37339436246313396 l 3.196035135400215 1.7606191344368396" fill="#ff1f03" stroke="none" /><line stroke="#e1ed5e" stroke-width="0.3" x1="26.266209847984243" x2="21.928928074336255" y1="57.711370442889674" y2="55.22380399835377" /><path d="M 25.398753493254645 57.213857153982495 a86.0,86.0 0 0,1 29.58750427330803,-30.492523968695096" fill="none" id="id47" stroke="none" /><text fill="#e1ed5e" style="font-size:6.75px; font-family:Arial;" text-anchor="middle"><textPath startOffset="21.46611528233685" xlink:href="#id47">November</textPath></text><path d="M 81.78341655067845 89.55222093294921 l -9.466994709334283 -5.42961688876665 a31.913511276639767,31.913511276639767 0 0,0 0.2774048922491799,-0.47417488297084953 l 9.372130142614779 5.5917711840913915" fill="#ff850c" stroke="none" /><path d="M 82.7489923806493 88.02491185347247 l -7.0640609619441355 -4.9036412572698715 a29.599224084419614,29.599224084419614 0 0,0 0.2941421204769276,-0.41604316954580095 l 6.97860622166333 5.024510927147459" fill="#ff6509" stroke="none" /><path d="M 83.6137871275137 86.86637796730984 l -5.653237790199829 -4.531095072130566 a28.24499275812125,28.24499275812125 0 0,0 0.3073344493581942,-0.3767556952788018 l 5.5744048487652424 4.6277349370174505" fill="#ff5207" stroke="none" /><path d="M 84.5562425177563 85.77008943001954 l -5.445950979737609 -5.0179106670940135 a28.405255534864473,28.405255534864473 0 0,0 0.33441463790467013,-0.35673021933037147 l 5.358769019862483 5.110910303302435" fill="#ff5507" stroke="none" /><path d="M 85.05521093208273 85.24692304244772 l -2.504816326225656 -2.4726844826917604 a24.519697910200705,24.519697910200705 0 0,0 0.29909851406217935,-0.2978140899896016 l 2.4618820119961637 2.515434423331471" fill="#ff1d03" stroke="none" /><path d="M 85.31137513191541 84.99185889309783 l -7.677716561505337 -7.844727097921847 a31.976660459342025,31.976660459342025 0 0,0 0.3966883744273584,-0.38161390190332756 l 7.541544943465551 7.975724086587489" fill="#ff860c" stroke="none" /><path d="M 85.83668400450813 84.49514656593479 l -3.8896613419304304 -4.258086809189088 a26.76721498034347,26.76721498034347 0 0,0 0.34286127249375764,-0.30782423572565515 l 3.8157890818407014 4.324410053684022" fill="#ff3e05" stroke="none" /><path d="M 86.37877921826538 84.01681056812374 l -5.5533319735836715 -6.5162997013385 a29.56163873370577,29.56163873370577 0 0,0 0.3901326366754373,-0.32672486360168357 l 5.440341799949124 6.610925722333996" fill="#ff6509" stroke="none" /><path d="M 87.51073957382395 83.11751280151077 l -5.4192054387323285 -7.325467107213973 a30.11209393751293,30.11209393751293 0 0,0 0.419353471734312,-0.3046781314816726 l 5.292306650644235 7.417664473512314" fill="#ff6c0a" stroke="none" /><line stroke="#e1ed5e" stroke-width="0.3" x1="56.762969772571076" x2="54.21961505331055" y1="26.818313649435495" y2="22.513508569990535" /><path d="M 56.25429882871897 25.957352633546506 a86.0,86.0 0 0,1 42.265352541879196,-11.944610805530505" fill="none" id="id48" stroke="none" /><text fill="#e1ed5e" style="font-size:6.75px; font-family:Arial;" text-anchor="middle"><textPath startOffset="22.20632615414155" xlink:href="#id48">December</textPath></text><path d="M 89.3179101791058 81.91981866633112 l -5.527110279387502 -9.355019268518562 a31.865787295675567,31.865787295675567 0 0,0 0.474653447078686,-0.27494991330806967 l 5.365260099843495 9.448773339216679" fill="#ff840c" stroke="none" /><path d="M 90.26544431104013 81.39251694778311 l -3.3078958841255544 -6.32300215531881 a28.136002482929857,28.136002482929857 0 0,0 0.4310697009551993,-0.22081064366727396 l 3.1985656955815913 6.379005324298589" fill="#ff5107" stroke="none" /><path d="M 91.56875222667455 80.76684994638697 l -1.4840019530675594 -3.385267876185974 a24.69625491413201,24.69625491413201 0 0,0 0.39080793474842773,-0.16732356222543163 l 1.4255102605288232 3.4103109663741917" fill="#ff2003" stroke="none" /><path d="M 91.90106846888425 80.62456947434976 l -3.5473811661549264 -8.486556167164679 a30.198127457066004,30.198127457066004 0 0,0 0.4813238270526673,-0.19634407437634213 l 3.4007734695138785 8.546361127724598" fill="#ff6e0a" stroke="none" /><path d="M 94.28887869178378 79.79150937346287 l -1.9191675835544875 -6.79086960860373 a28.05684874818953,28.05684874818953 0 0,0 0.46588011334402135,-0.12734263370015964 l 1.8019895809867437 6.822898783130185" fill="#ff5007" stroke="none" /><path d="M 95.692805502759 79.44645832069477 l -1.0558701566689908 -5.038516669477517 a26.147961928408854,26.147961928408854 0 0,0 0.44131981101917,-0.08852460236921807 l 0.9689839361826844 5.055945227923946" fill="#ff3505" stroke="none" /><path d="M 96.75951476605007 79.25152402106235 l -1.100667608517475 -7.0474554850178075 a28.132888475067247,28.132888475067247 0 0,0 0.4791044566107341,-0.0706075428152548 l 0.9791941714780922 7.065357511994032" fill="#ff5107" stroke="none" /><path d="M 97.83486435360386 79.11191278185805 l -0.7411919804196802 -7.150629457403037 a28.188940616594248,28.188940616594248 0 0,0 0.48307102008846337,-0.04587341410790568 l 0.6179958332409805 7.1623284160261225" fill="#ff5207" stroke="none" /><path d="M 99.27714615592234 79.0124445844662 l -0.2732202068423068 -7.932757470582737 a28.93746120422098,28.93746120422098 0 0,0 0.49796322496604684,-0.01286092096625706 l 0.13663034668138094 7.936285183691354" fill="#ff5c08" stroke="none" /></svg>