<?xml version="1.0" encoding="utf-8" ?>
<svg baseProfile="full" height="200mm" version="1.1" viewBox="0,0,200,200" width="200mm" xmlns="http://www.w3.org/2000/svg" xmlns:ev="http://www.w3.org/2001/xml-events" xmlns:xlink="http://www.w3.org/1999/xlink"><defs /><rect fill="#1a1a1a" height="200" width="200" x="0" y="0" /><rect fill="#1a1a1a" height="200" width="180" x="10" y="0" /><text alignment-baseline="middle" fill="#e1ed5e" style="dominant-baseline: central; font-size:9.0px; font-family:Arial;" text-anchor="middle" x="100.0" y="100.0">2023</text><line stroke="#e1ed5e" stroke-width="0.3" x1="100.0" x2="100.0" y1="15.0" y2="10.0" /><path d="M 100.0 14.0 a86.0,86.0 0 0,1 42.46469731375804,11.215312516191453" fill="none" id="id97" stroke="none" /><text fill="#e1ed5e" style="font-size:6.75px; font-family:Arial;" text-anchor="middle"><textPath startOffset="22.20632615414155" xlink:href="#id97">January</textPath></text><path d="M 100.72285384407766 79.0124445844662 l 1.996874753545084 -57.97786079616567 a79.01223880597016,79.01223880597016 0 0,0 1.3588568761056923,0.058515235516479934 l -2.9945724620401077 57.934897834124996" fill="red" stroke="none" /><path d="M 102.52436894288641 79.15227682838746 l 7.017431684987534 -57.9540774166884 a79.3773880597015,79.3773880597015 0 0,0 1.355029738520007,0.17592174967378768 l -8.013976152015386 57.824697343850474" fill="red" stroke="none" /><path d="M 107.08798089147638 80.2323363322302 l 12.86856431254735 -35.88912768139746 a59.12649253731343,59.12649253731343 0 0,0 0.955083394463456,0.35176527446122235 l -13.484430032783385 35.662299139129914" fill="red" stroke="none" /><path d="M 109.08828744355905 81.06846463323043 l 22.808662484906208 -47.512031632288924 a73.70320895522389,73.70320895522389 0 0,0 1.1389909056906764,0.5588978908392213 l -23.623124657607317 47.11237858131487" fill="red" stroke="none" /><line stroke="#e1ed5e" stroke-width="0.3" x1="143.23703022742887" x2="145.7803849466894" y1="26.81831364943548" y2="22.513508569990506" /><path d="M 143.74570117128098 25.957352633546492 a86.0,86.0 0 0,1 28.547481713284135,27.462654790039103" fill="none" id="id98" stroke="none" /><text fill="#e1ed5e" style="font-size:6.75px; font-family:Arial;" text-anchor="middle"><textPath startOffset="19.985693538727396" xlink:href="#id98">February</textPath></text><path d="M 110.68208982089419 81.91981866633111 l 26.955270485605176 -45.623673499221525 a73.99156716417912,73.99156716417912 0 0,0 1.0909807606683486,0.6573037012356313 l -27.736613312491162 45.15292318852728" fill="red" stroke="none" /><path d="M 111.90073688211348 82.69761687909136 l 29.70654835595623 -43.190105448602466 a73.42007462686567,73.42007462686567 0 0,0 1.0351141822123535,0.7251636344292822 l -30.445593677752232 42.67235697140924" fill="red" stroke="none" /><path d="M 113.06298171725822 83.55741782278167 l 32.998651576805266 -41.535925873047766 a74.04850746268656,74.04850746268656 0 0,0 0.9911801804349099,0.8014654406171547 l -33.70873515580467 40.961754335166475" fill="red" stroke="none" /><path d="M 114.16331599549186 84.49514656593476 l 35.68415756147765 -39.06413110354302 a73.90902985074626,73.90902985074626 0 0,0 0.9319299248023305,0.8661272997114835 l -36.35129537007482 38.44409921775689" fill="red" stroke="none" /><path d="M 116.38621287248628 86.86637796730983 l 49.158638617458855 -39.400866098070516 a84.0,84.0 0 0,0 0.8945836776241438,1.1360304241878465 l -49.829576375676965 38.54884327992963" fill="red" stroke="none" /><path d="M 117.45458315368197 88.32363383020206 l 27.054603888207044 -18.0983675631868 a53.55,53.55 0 0,0 0.5059285798372914,0.7705639368569313 l -27.36212910340226 17.629985562352196" fill="red" stroke="none" /><line stroke="#e1ed5e" stroke-width="0.3" x1="172.23445277983987" x2="176.4835382374775" y1="55.19839476539836" y2="52.563006222186495" /><path d="M 173.08426987136738 54.67131705675599 a86.0,86.0 0 0,1 12.851231095245387,41.99856678651699" fill="none" id="id99" stroke="none" /><text fill="#e1ed5e" style="font-size:6.75px; font-family:Arial;" text-anchor="middle"><textPath startOffset="22.20632615414155" xlink:href="#id99">March</textPath></text><path d="M 117.84615892207809 88.93136811851018 l 44.964773600510526 -27.888271576628338 a73.91111940298508,73.91111940298508 0 0,0 0.6612729365143541,1.086958837618151 l -45.438162335311105 27.110144965803105" fill="red" stroke="none" /><path d="M 118.3937258080291 89.86733742301442 l 46.80882929385556 -25.78586186444726 a74.4413432835821,74.4413432835821 0 0,0 0.6086178916709037,1.1276765202278103 l -47.245755284744924 24.97630436088699" fill="red" stroke="none" /><path d="M 119.04729006885535 91.15688171328212 l 48.91552567483803 -22.710095663785587 a74.93029850746268,74.93029850746268 0 0,0 0.5330672850599859,1.1745431018833878 l -49.29919527686136 21.864730553060134" fill="red" stroke="none" /><path d="M 120.08093135843002 93.85539295169968 l 29.786215322682178 -9.114347604057201 a52.1494776119403,52.1494776119403 0 0,0 0.25526946510536996,0.8606417350865838 l -29.93869068489925 8.60027648222409" fill="red" stroke="none" /><path d="M 120.37134235888165 94.90015583598534 l 56.85175442538739 -14.232497933249734 a79.60619402985074,79.60619402985074 0 0,0 0.3213330547525867,1.3321329634988746 l -57.0883202804008 13.251779738091452" fill="red" stroke="none" /><path d="M 120.53481517161879 95.60439243477599 l 25.763530795914566 -5.514847342279567 a47.34716417910448,47.34716417910448 0 0,0 0.16373259043403834,0.7984182594023137 l -25.854642682263602 5.0705534267138415" fill="red" stroke="none" /><path d="M 120.6074358757038 95.95851677861258 l 37.03853393848822 -7.263912616788706 a58.74410447761194,58.74410447761194 0 0,0 0.18606293256628342,0.9939556257488166 l -37.15808259496436 6.6252789135773265" fill="red" stroke="none" /><path d="M 120.73433829027371 96.67025291283417 l 38.192444818860395 -6.133361002747646 a59.68179104477612,59.68179104477612 0 0,0 0.1541612111031559,1.015729766353965 l -38.29236192340285 5.4750321240016" fill="red" stroke="none" /><path d="M 120.87857604477298 97.74499172005257 l 31.571315438051254 -3.4098866497871727 a52.75492537313433,52.75492537313433 0 0,0 0.08974083660704205,0.903677977741804 l -31.625333400340523 2.8659331413409337" fill="red" stroke="none" /><path d="M 120.94382443527127 98.46500227214037 l 52.82584772672463 -3.871669020306655 a73.96753731343284,73.96753731343284 0 0,0 0.08213710738133796,1.2706246964450616 l -52.884665425110384 2.961785259608558" fill="red" stroke="none" /><line stroke="#e1ed5e" stroke-width="0.3" x1="184.98032266829074" x2="189.97916517819016" y1="98.17113171792111" y2="98.06355123074" /><path d="M 185.9800911702706 98.14961562048488 a86.0,86.0 0 0,1 -9.607161424134198,41.387399972396054" fill="none" id="id100" stroke="none" /><text fill="#e1ed5e" style="font-size:6.75px; font-family:Arial;" text-anchor="middle"><textPath startOffset="21.466115282336823" xlink:href="#id100">April</textPath></text><path d="M 120.99980553446 99.90962569577887 l 56.311866592132276 -0.2423425185678949 a77.31238805970148,77.31238805970148 0 0,0 -0.005727385317117736,1.3308426429057478 l -56.30769490952566 -0.7270096025415376" fill="red" stroke="none" /><path d="M 120.95626037817324 101.35467743843564 l 36.990406067522805 2.3911741710576173 a58.06761194029851,58.06761194029851 0 0,0 -0.07306410179078489,0.9969016192361198 l -36.94376540706768 -3.0275489267905074" fill="red" stroke="none" /><path d="M 120.89721153311464 102.0752229133903 l 56.31018761475401 5.591951414678877 a77.58716417910448,77.58716417910448 0 0,0 -0.14341691173775548,1.3278624847856526 l -56.2055884015152 -6.560410221349321" fill="red" stroke="none" /><path d="M 120.81339534386255 102.79330883721812 l 26.67583503238384 3.5800908263678832 a47.915000000000006,47.915000000000006 0 0,0 -0.11674364026378795,0.8165047480980329 l -26.61025734110345 -4.038741046446326" fill="red" stroke="none" /><path d="M 120.70491114924044 103.5080841355445 l 42.11749761985043 7.136071445274027 a63.71776119402985,63.71776119402985 0 0,0 -0.19252945875919888,1.0798074502006574 l -41.98842171875205 -7.859997646207902" fill="red" stroke="none" /><path d="M 120.5718875245553 104.21870165774334 l 37.466933957968045 7.683389101285531 a59.24664179104477,59.24664179104477 0 0,0 -0.21347400492704693,0.9972794818635619 l -37.329125914316556 -8.327182402565262" fill="red" stroke="none" /><path d="M 120.41448212921028 104.9243191809786 l 34.56293701980551 8.337166362601609 a56.55425373134329,56.55425373134329 0 0,0 -0.2364201717189656,0.9443810641541921 l -34.414305533791484 -8.930875266153198" fill="red" stroke="none" /><path d="M 120.23288151984713 105.62410040840565 l 25.48084807724627 7.082868939710278 a47.44694029850746,47.44694029850746 0 0,0 -0.22550257138174745,0.7850040341379435 l -25.355152868978426 -7.520430449352804" fill="red" stroke="none" /><path d="M 120.02730092923936 106.31721596034902 l 25.06750499643126 7.907048643703521 a47.285,47.285 0 0,0 -0.25152861479508387,0.774125476883331 l -24.927684130619927 -8.337373020564648" fill="red" stroke="none" /><path d="M 119.9155931802556 106.66101706037122 l 30.887004288960597 10.330541533480208 a53.568805970149256,53.568805970149256 0 0,0 -0.30000870273869296,0.8719657211195175 l -30.704604755278673 -10.860679957689026" fill="red" stroke="none" /><path d="M 119.41010516605496 108.01547362559984 l 48.98347659181865 20.227905070733275 a73.99574626865672,73.99574626865672 0 0,0 -0.4962965837087222,1.173098520246607 l -48.628029026917616 -21.068078116646046" fill="red" stroke="none" /><path d="M 119.12269723197855 108.67885076344098 l 34.0607584552577 15.458501273996635 a58.40455223880597,58.40455223880597 0 0,0 -0.4233645401357297,0.9118895551747488 l -33.78961929828214 -16.042510896450214" fill="red" stroke="none" /><path d="M 118.81262510543309 109.33194174019688 l 33.478985075688634 16.6071420918827 a58.37164179104477,58.37164179104477 0 0,0 -0.4542462546786641,0.8962709548343516 l -33.1881601512237 -17.180967258419745" fill="red" stroke="none" /><line stroke="#e1ed5e" stroke-width="0.3" x1="174.80103733775053" x2="179.2010983576182" y1="140.37084112569926" y2="142.7455964860345" /><path d="M 175.68104954172406 140.8457921977663 a86.0,86.0 0 0,1 -30.038265399797805,32.042727171017184" fill="none" id="id101" stroke="none" /><text fill="#e1ed5e" style="font-size:6.75px; font-family:Arial;" text-anchor="middle"><textPath startOffset="22.206326154141568" xlink:href="#id101">May</textPath></text><path d="M 118.48025628344425 109.97397251340804 l 37.21611014135604 20.085893502374677 a63.29044776119403,63.29044776119403 0 0,0 -0.5256831974251968,0.9542676983332222 l -36.86485053447933 -20.723531719105704" fill="red" stroke="none" /><path d="M 118.12598468904814 110.60418214915192 l 32.08750185103039 18.77204026025492 a58.17522388059701,58.17522388059701 0 0,0 -0.5131030487249408,0.8599902232952213 l -31.75961792660722 -19.321592577436245" fill="red" stroke="none" /><path d="M 117.94076556474637 110.91462005526583 l 22.458089670377277 13.66282364231559 a47.287611940298504,47.287611940298504 0 0,0 -0.42904581810887216,0.6917584699540474 l -22.219579212600443 -14.047378443634912" fill="red" stroke="none" /><path d="M 117.14729908036423 112.12312394758627 l 44.411078068415016 31.398589454000998 a75.38947761194031,75.38947761194031 0 0,0 -0.7582752911375655,1.053178058758933 l -43.864022984901844 -32.15840111821106" fill="red" stroke="none" /><path d="M 116.71984013943494 112.70617746262583 l 25.464898815349336 19.351950779271863 a52.98373134328359,52.98373134328359 0 0,0 -0.5580781034039849,0.7213911783350556 l -25.12801389472728 -19.78741995172017" fill="red" stroke="none" /><path d="M 116.498646956653 112.99209946851258 l 29.2104029812404 23.002156603792177 a58.17992537313433,58.17992537313433 0 0,0 -0.6263542383262376,0.7814732186788441 l -28.810130830859308 -23.50155765604927" fill="red" stroke="none" /><path d="M 115.32070863581623 114.36230785411682 l 38.70003379164079 36.27911818523117 a74.04589552238807,74.04589552238807 0 0,0 -0.8797126585768329,0.9223752054729485 l -38.069814581684994 -36.93990050728662" fill="red" stroke="none" /><path d="M 113.75828350139079 115.86535959552629 l 17.359736667687688 20.018373999101488 a47.497089552238805,47.497089552238805 0 0,0 -0.6222899570444063,0.5303290016855474 l -17.012581234066236 -20.314227391009982" fill="red" stroke="none" /><line stroke="#e1ed5e" stroke-width="0.3" x1="143.8653032363475" x2="146.44561519142675" y1="172.8068346515853" y2="177.08958963109032" /><path d="M 144.38136562736335 173.6633856474863 a86.0,86.0 0 0,1 -40.68145358897372,12.25698825130547" fill="none" id="id102" stroke="none" /><text fill="#e1ed5e" style="font-size:6.75px; font-family:Arial;" text-anchor="middle"><textPath startOffset="21.466115282336833" xlink:href="#id102">June</textPath></text><path d="M 110.8373102113329 117.98757091392108 l 19.227868495350954 31.914067359813597 a58.25880597014925,58.25880597014925 0 0,0 -0.8634291530206645,0.5101291627739273 l -18.675671471301907 -32.240315094881275" fill="red" stroke="none" /><path d="M 110.21172684928248 118.3499491758327 l 26.04117358095011 46.79465273036042 a74.5526119402985,74.5526119402985 0 0,0 -1.1267284926409402,0.614382211047372 l -25.23182227644052 -47.23597559316756" fill="red" stroke="none" /><path d="M 109.2508944713604 118.85261126421891 l 16.748261184716657 34.13166785596647 a59.01940298507463,59.01940298507463 0 0,0 -0.9158893226202415,0.4396825333601917 l -16.158259194096182 -34.41490466582622" fill="red" stroke="none" /><path d="M 107.93186726928326 119.44442032107085 l 14.106095890935297 34.58011188044768 a58.3465671641791,58.3465671641791 0 0,0 -0.933208675988355,0.3713429914078943 l -13.508766138905075 -34.81780171626164" fill="red" stroke="none" /><path d="M 106.91757812671514 119.82793768551818 l 11.249668408806023 32.245060353003765 a55.151119402985074,55.151119402985074 0 0,0 -0.8990427349540364,0.305004108413698 l -10.69295594091476 -32.433927448315586" fill="red" stroke="none" /><path d="M 106.2309692047433 120.05430185196036 l 15.990650969565872 51.46572400147618 a74.89268656716419,74.89268656716419 0 0,0 -1.2343920501094459,0.3719121988255858 l -15.102383945016179 -51.733351569407496" fill="red" stroke="none" /><path d="M 105.18746579009965 120.34920634021253 l 13.073058998238954 51.28253097314903 a73.92261194029851,73.92261194029851 0 0,0 -1.2357281002306701,0.30371190192139147 l -12.188377613265072 -51.49996413338445" fill="red" stroke="none" /><path d="M 104.48393922423573 120.51570834832081 l 5.636043907000174 25.7870205754304 a47.39574626865671,47.39574626865671 0 0,0 -0.7985247486560686,0.16733862499158317 l -5.191327696914728 -25.880215181148525" fill="red" stroke="none" /><path d="M 103.7750983002368 120.6578951692458 l 4.817476189108169 26.36194085030622 a47.79850746268657,47.79850746268657 0 0,0 -0.810642266425558,0.1409405488887546 l -4.362984951210561 -26.440959977715977" fill="red" stroke="none" /><path d="M 103.06178313531738 120.77559828337769 l 3.973996483867034 26.96538287641288 a48.25664179104477,48.25664179104477 0 0,0 -0.8228249386053273,0.11403603889278238 l -3.5092429540748764 -27.02979348079826" fill="red" stroke="none" /><path d="M 102.70371172650421 120.8252237178851 l 3.834360926361478 29.534000730854405 a50.781865671641796,50.781865671641796 0 0,0 -0.8678199521828923,0.1050809106238784 l -3.3254135511272054 -29.595627170203635" fill="red" stroke="none" /><path d="M 101.98527174616119 120.90594882070398 l 5.510314332460684 58.02648914092859 a79.28753731343284,79.28753731343284 0 0,0 -1.3598027188434463,0.11732950033325239 l -4.510667295875696 -58.112742893540506" fill="red" stroke="none" /><path d="M 101.26447882468166 120.96189622390904 l 3.507890733486279 58.1520544945966 a79.25776119402985,79.25776119402985 0 0,0 -1.3625236886609466,0.07042691140361206 l -2.5063789764118525 -58.203821212762406" fill="red" stroke="none" /><line stroke="#e1ed5e" stroke-width="0.3" x1="102.19456741930631" x2="102.32365962044197" y1="184.97166512339345" y2="189.96999836594603" /><path d="M 102.22038585953345 185.97133177190398 a86.0,86.0 0 0,1 -42.740103519485714,-10.115201625700543" fill="none" id="id103" stroke="none" /><text fill="#e1ed5e" style="font-size:6.75px; font-family:Arial;" text-anchor="middle"><textPath startOffset="22.20632615414155" xlink:href="#id103">July</textPath></text><path d="M 99.81925306533755 120.99922214144158 l -0.5032768006096138 58.47081918358511 a79.47298507462686,79.47298507462686 0 0,0 -1.3678447795489763,-0.02354868834856528 l 1.509681270051258 -58.453493017957385" fill="red" stroke="none" /><path d="M 98.73552117531835 120.96189622390904 l -3.5063809080239308 58.12702536477698 a79.23268656716417,79.23268656716417 0 0,0 -1.360678920935735,-0.09384038492131751 l 4.506422589738596 -58.05805663533938" fill="red" stroke="none" /><path d="M 98.01472825383883 120.90594882070398 l -4.2441356682858595 44.692966210231354 a65.89402985074628,65.89402985074628 0 0,0 -1.1282545339345886,-0.11694819559677466 l 5.012822798826042 -44.613288646178816" fill="red" stroke="none" /><path d="M 96.93821686468263 120.77559828337769 l -3.971635407319881 26.949361892662026 a48.240447761194034,48.240447761194034 0 0,0 -0.8204646601793005,-0.12813970621204407 l 4.434935931107699 -26.877003879102876" fill="red" stroke="none" /><path d="M 96.22490169976321 120.6578951692458 l -9.616076886715113 52.62059222476619 a74.49201492537313,74.49201492537313 0 0,0 -1.2593846549674341,-0.24136406648524358 l 10.520429156254243 -52.44727095993248" fill="red" stroke="none" /><path d="M 94.81253420990036 120.34920634021253 l -9.75811350864017 38.278780682758 a60.502985074626864,60.502985074626864 0 0,0 -1.0069700724769481,-0.2659499483497307 l 10.415574023928606 -38.105139385104685" fill="red" stroke="none" /><path d="M 94.46302465271185 120.25689768951611 l -7.741986251137306 28.323879657462967 a50.362910447761195,50.362910447761195 0 0,0 -0.8342708013483153,-0.2357732617668282 l 8.228388220590235 -28.18641760235762" fill="red" stroke="none" /><path d="M 93.76903079525671 120.05430185196036 l -8.284864053799348 26.664738514655063 a48.922164179104485,48.922164179104485 0 0,0 -0.8020408037534414,-0.25678813774805526 l 8.742626202643729 -26.5181775302473" fill="red" stroke="none" /><path d="M 93.08242187328487 119.8279376855182 l -17.973141358234198 51.516632025853696 a75.5618656716418,75.5618656716418 0 0,0 -1.2243916595420878,-0.4390232873431151 l 18.857252578406012 -51.19962119747063" fill="red" stroke="none" /><path d="M 92.40401165467489 119.57807347666478 l -12.774109355655698 32.924280580011086 a56.3155223880597,56.3155223880597 0 0,0 -0.9007236696115305,-0.35841653695642783 l 13.338954101309087 -32.69951719864859" fill="red" stroke="none" /><path d="M 91.40352486487194 119.15986991738527 l -11.969629333673073 26.677974098401073 a50.24014925373134,50.24014925373134 0 0,0 -0.7859760441558259,-0.36080305218136144 l 12.427073373596318 -26.467983975885637" fill="red" stroke="none" /><path d="M 90.42595943632237 118.69057910512821 l -18.200679799934623 35.53162777045045 a60.92194029850746,60.92194029850746 0 0,0 -0.9292310339690305,-0.4861297588017223 l 18.809601736430146 -35.21306859270401" fill="red" stroke="none" /><line stroke="#e1ed5e" stroke-width="0.3" x1="58.666819895761336" x2="56.23545636021788" y1="174.27360380694188" y2="178.64263932499728" /><path d="M 58.180547188652646 175.14741091055294 a86.0,86.0 0 0,1 -31.652253787137756,-30.449443065178592" fill="none" id="id104" stroke="none" /><text fill="#e1ed5e" style="font-size:6.75px; font-family:Arial;" text-anchor="middle"><textPath startOffset="22.20632615414155" xlink:href="#id104">August</textPath></text><path d="M 89.4739219176387 118.17145234162733 l -14.914562377395495 25.747411079081907 a50.755223880597015,50.755223880597015 0 0,0 -0.7522217326090148,-0.44442585860545514 l 15.355551981032892 -25.4868666481827" fill="red" stroke="none" /><path d="M 88.24862548938628 117.40417183066458 l -15.63342061760252 23.153609689152777 a48.93731343283582,48.93731343283582 0 0,0 -0.6940781852867572,-0.47739330478301806 l 16.029655687512168 -22.88107559500466" fill="red" stroke="none" /><path d="M 87.65650970185807 116.9893568818739 l -16.199142230325222 22.296206492960724 a48.55962686567164,48.55962686567164 0 0,0 -0.6720074951443163,-0.49713507947754987 l 16.5805346958881 -22.01406146474341" fill="red" stroke="none" /><path d="M 87.07902340077011 116.55440617244103 l -19.930445695647926 25.53496562041601 a53.39223880597015,53.39223880597015 0 0,0 -0.719632054336922,-0.5717192268000897 l 20.367035242702205 -25.18811247961079" fill="red" stroke="none" /><path d="M 86.24171649860922 115.8653595955263 l -18.173255072732598 20.956482450807126 a48.73880597014926,48.73880597014926 0 0,0 -0.6290964794481435,-0.5551044993195386 l 18.53129390508733 -20.640554809715297" fill="red" stroke="none" /><path d="M 85.44109423537348 115.13401014063109 l -19.454609449358394 20.223103401353757 a49.06164179104478,49.06164179104478 0 0,0 -0.6035751187256259,-0.5907252893959727 l 19.799834520459815 -19.885228009035213" fill="red" stroke="none" /><path d="M 84.67929136418377 114.36230785411682 l -20.686767779903114 19.39268831645426 a49.355223880597016,49.355223880597016 0 0,0 -0.5757018749393912,-0.6248106827454977 l 21.017516062838236 -19.03372637890742" fill="red" stroke="none" /><path d="M 84.19399662182784 113.82643327865904 l -20.63862993342376 18.053813662440085 a48.420671641791046,48.420671641791046 0 0,0 -0.5433663792381828,-0.6320578557616565 l 20.946338822232725 -17.695878707516897" fill="red" stroke="none" /><path d="M 83.28015986056508 112.70617746262583 l -33.13855678979147 25.18351730129792 a62.621791044776124,62.621791044776124 0 0,0 -0.6448217510860693,-0.8638441108443333 l 33.56713980757262 -24.60936031094428" fill="red" stroke="none" /><line stroke="#e1ed5e" stroke-width="0.3" x1="26.63291911575756" x2="22.317208475507996" y1="142.92168965132927" y2="145.44649492493687" /><path d="M 25.769776987707644 143.4266507060508 a86.0,86.0 0 0,1 -11.730757126820373,-40.83630448921669" fill="none" id="id105" stroke="none" /><text fill="#e1ed5e" style="font-size:6.75px; font-family:Arial;" text-anchor="middle"><textPath startOffset="21.46611528233685" xlink:href="#id105">September</textPath></text><path d="M 80.0844068197444 106.66101706037122 l -28.27716983936889 9.457650044076338 a50.81686567164179,50.81686567164179 0 0,0 -0.2703160797423209,-0.8319473484566976 l 28.435778170127463 -8.969503795641836" fill="red" stroke="none" /><path d="M 79.86692584326677 105.97154293290107 l -26.174498871973842 7.763451450303705 a48.301567164179104,48.301567164179104 0 0,0 -0.22956438347264077,-0.7991437348860334 l 26.304255892332588 -7.311750239913075" fill="red" stroke="none" /><path d="M 79.4281124754447 104.21870165774334 l -37.1394213207612 7.61622569180903 a58.91231343283582,58.91231343283582 0 0,0 -0.1951682663848064,-0.9951587855699352 l 37.265019520121676 -6.975803179171139" fill="red" stroke="none" /><path d="M 79.10278846688536 102.07522291339032 l -27.3062095677358 2.7116762292905423 a48.4405223880597,48.4405223880597 0 0,0 -0.07525674283141992,-0.8304518861014927 l 27.348840906844295 -2.2412429546404837" fill="red" stroke="none" /><line stroke="#e1ed5e" stroke-width="0.3" x1="15.007084014347285" x2="10.007500721073583" y1="101.09737516637583" y2="101.16192664675087" /><path d="M 14.007167355692545 101.11028546245083 a86.0,86.0 0 0,1 10.666146001902534,-42.60595125391555" fill="none" id="id106" stroke="none" /><text fill="#e1ed5e" style="font-size:6.75px; font-family:Arial;" text-anchor="middle"><textPath startOffset="22.20632615414155" xlink:href="#id106">October</textPath></text><path d="M 79.00175016825051 100.2711162175752 l -29.85198949961402 0.3854301451348987 a50.8544776119403,50.8544776119403 0 0,0 -0.003767354698181136,-0.8754005546485621 l 29.854201151601703 0.12847988771733884" fill="red" stroke="none" /><path d="M 79.01574976396665 99.18683210126434 l -17.81886482729439 -0.6905049599811015 a38.83223880597015,38.83223880597015 0 0,0 0.03163235667548838,-0.6677090541808954 l 17.804338862385404 0.997125120785006" fill="red" stroke="none" /><path d="M 79.03285615573316 98.82574320788736 l -53.29096903343585 -2.9845401362516752 a74.37447761194029,74.37447761194029 0 0,0 0.08258899344123577,-1.2776151737821317 l 53.2316994489902 3.901414374286819" fill="red" stroke="none" /><path d="M 79.12142395522702 97.74499172005258 l -27.110986804406718 -2.92814507993173 a48.26865671641791,48.26865671641791 0 0,0 0.09632963637981055,-0.825293496984646 l 27.056566815023317 3.394382315241238" fill="red" stroke="none" /><path d="M 79.21141760316559 97.0276538004421 l -27.11203477366255 -3.876471804736859 a48.38776119402985,48.38776119402985 0 0,0 0.12498813687821676,-0.823515657147893 l 27.041290743345034 4.342586574276844" fill="red" stroke="none" /><path d="M 79.32604984820605 96.31383870115002 l -31.051038862313796 -5.5363942015414 a52.54074626865672,52.54074626865672 0 0,0 0.16641474777596862,-0.8889942369395365 l 30.951138390627964 6.07006651594351" fill="red" stroke="none" /><path d="M 79.62865764111835 94.90015583598534 l -53.39318697266681 -13.366666181523376 a76.04089552238806,76.04089552238806 0 0,0 0.32879963053807415,-1.2669991022737608 l 53.15519101025843 14.283761709346" fill="red" stroke="none" /><path d="M 79.81627453868168 94.20196356495316 l -26.550636470646122 -7.627014047803788 a48.62440298507463,48.62440298507463 0 0,0 0.2380143753966469,-0.8024661505533678 l 26.415416198137766 8.082909585103696" fill="red" stroke="none" /><path d="M 80.02781315780177 93.51064311812611 l -56.22717098703836 -18.269315317144176 a80.12074626865672,80.12074626865672 0 0,0 0.4374695996280642,-1.3079784207062626 l 55.90436409363853 19.23446684077276" fill="red" stroke="none" /><path d="M 80.2630227832202 92.82701384747504 l -50.179546180123886 -18.23669277907496 a74.39067164179104,74.39067164179104 0 0,0 0.4477447406573563,-1.1997333002820059 l 49.8581968509649 19.09774921638631" fill="red" stroke="none" /><path d="M 80.65960295795068 91.81776055985345 l -49.41038450279976 -20.90378992492364 a74.6502985074627,74.6502985074627 0 0,0 0.510854352787593,-1.1791222796090994 l 49.043239440169486 21.751211349119338" fill="red" stroke="none" /><path d="M 81.10775173730289 90.83032412892265 l -48.60336337254721 -23.590473837380337 a75.02589552238805,75.02589552238805 0 0,0 0.5739123278511916,-1.156972232343051 l 48.190091031742604 24.42360565822235" fill="red" stroke="none" /><path d="M 81.43458229118936 90.18545643968196 l -24.746039231124392 -13.081907651555268 a48.99111940298508,48.99111940298508 0 0,0 0.40054182912920544,-0.7421431776151919 l 24.517189302776714 13.505931812502933" fill="red" stroke="none" /><line stroke="#e1ed5e" stroke-width="0.3" x1="26.266209847984243" x2="21.928928074336255" y1="57.711370442889674" y2="55.22380399835377" /><path d="M 25.398753493254645 57.213857153982495 a86.0,86.0 0 0,1 29.58750427330803,-30.492523968695096" fill="none" id="id107" stroke="none" /><text fill="#e1ed5e" style="font-size:6.75px; font-family:Arial;" text-anchor="middle"><textPath startOffset="21.46611528233685" xlink:href="#id107">November</textPath></text><path d="M 81.78341655067845 89.55222093294921 l -46.790336831919035 -26.835718292223785 a74.93970149253732,74.93970149253732 0 0,0 0.6514055955021161,-1.113463318939306 l 46.321471561946595 27.63716102351698" fill="red" stroke="none" /><path d="M 82.15384107792192 88.93136811851018 l -45.61646915517744 -28.29246937767379 a74.67798507462686,74.67798507462686 0 0,0 0.6869393278273235,-1.0865730477864257 l 45.12270223110416 29.07349007317443" fill="red" stroke="none" /><path d="M 82.54541684631803 88.32363383020206 l -24.54409643063021 -16.41894594145119 a50.52955223880598,50.52955223880598 0 0,0 0.48983717126353443,-0.7187756060969956 l 24.25783479369793 16.838999570818604" fill="red" stroke="none" /><path d="M 82.7489923806493 88.02491185347247 l -22.649028137853506 -15.722218340437216 a48.571119402985076,48.571119402985076 0 0,0 0.4826752219715225,-0.6827098712848471 l 22.375040296078105 16.10975471205385" fill="red" stroke="none" /><path d="M 83.17141714833178 87.43820079747576 l -43.22308477655709 -32.26413754875198 a74.9370895522388,74.9370895522388 0 0,0 0.7805021168883423,-1.0270492963952949 l 42.66130671944464 33.0033716210283" fill="red" stroke="none" /><path d="M 83.6137871275137 86.86637796730984 l -21.286179662042464 -17.060967068883407 a48.279626865671645,48.279626865671645 0 0,0 0.5253317876569086,-0.6439946557375978 l 20.98934938230916 17.424845894229087" fill="red" stroke="none" /><path d="M 84.07557802195018 86.31012108654704 l -40.6956130117162 -34.98513259740703 a74.66649253731342,74.66649253731342 0 0,0 0.8462491781897533,-0.9674090996329533 l 40.0873719699486 35.68045725324293" fill="red" stroke="none" /><path d="M 84.5562425177563 85.77008943001954 l -21.416880400998057 -19.733558568539074 a50.122089552238805,50.122089552238805 0 0,0 0.5900865918303158,-0.6294632335667871 l 21.074026487197283 20.09929121898391" fill="red" stroke="none" /><path d="M 85.05521093208273 85.24692304244772 l -27.069399780878815 -26.722152875303788 a59.03716417910447,59.03716417910447 0 0,0 0.7201527582062504,-0.7170601933987198 l 26.605411222505253 27.184148919352616" fill="red" stroke="none" /><path d="M 85.83668400450813 84.49514656593479 l -18.640967313569142 -20.406624137884492 a48.63902985074627,48.63902985074627 0 0,0 0.6230173620877288,-0.5593511391169458 l 18.286938963885444 20.724474285770718" fill="red" stroke="none" /><path d="M 86.37877921826538 84.01681056812374 l -35.338935856492846 -41.466834373073006 a75.48246268656717,75.48246268656717 0 0,0 0.9961616964451083,-0.8342567726960469 l 34.61991662308862 42.068992303162865" fill="red" stroke="none" /><path d="M 86.93701828274178 83.55741782278169 l -33.934182033620885 -42.713492890167444 a75.55246268656717,75.55246268656717 0 0,0 1.0252377258668515,-0.8002143070904145 l 33.19391175259461 43.29128558648108" fill="red" stroke="none" /><path d="M 88.09926311788651 82.69761687909137 l -15.487832125908735 -22.517631286979512 a48.32977611940298,48.32977611940298 0 0,0 0.6894940021788601,-0.46554942810607874 l 15.097933429323335 22.780892627384254" fill="red" stroke="none" /><path d="M 88.70189139769569 82.29822771554957 l -14.740659156275097 -23.095528720078114 a48.39873134328358,48.39873134328358 0 0,0 0.7061163968125405,-0.44217002290477203 l 14.340923607090314 23.34584308430582" fill="red" stroke="none" /><line stroke="#e1ed5e" stroke-width="0.3" x1="56.762969772571076" x2="54.21961505331055" y1="26.818313649435495" y2="22.513508569990535" /><path d="M 56.25429882871897 25.957352633546506 a86.0,86.0 0 0,1 42.265352541879196,-11.944610805530505" fill="none" id="id108" stroke="none" /><text fill="#e1ed5e" style="font-size:6.75px; font-family:Arial;" text-anchor="middle"><textPath startOffset="22.20632615414155" xlink:href="#id108">December</textPath></text><path d="M 89.94658935756843 81.56283822128135 l -27.332772705321297 -50.1261482448576 a78.09388059701493,78.09388059701493 0 0,0 1.1857438411516799,-0.6333832950335191 l 26.465883817641313 50.589210266392875" fill="red" stroke="none" /><path d="M 90.91171255644093 81.06846463323043 l -23.377471718935944 -48.69690086071657 a75.01753731343283,75.01753731343283 0 0,0 1.168922511599993,-0.5488247927358634 l 22.535770996036344 49.092090636092436" fill="red" stroke="none" /><path d="M 91.56875222667455 80.76684994638697 l -21.88747727304653 -49.929161851865715 a75.51589552238806,75.51589552238806 0 0,0 1.1950075536714138,-0.511639869582776 l 21.024785961584808 50.29852124941127" fill="red" stroke="none" /><path d="M 92.57280143429618 80.3572730644239 l -18.91201242742721 -50.016637178593086 a74.47268656716419,74.47268656716419 0 0,0 1.202973882418183,-0.4430654332088326 l 18.048256219236457 50.33476587960824" fill="red" stroke="none" /><path d="M 93.59665428221793 80.00007090966166 l -16.46026210045887 -51.41126050766899 a74.98201492537314,74.98201492537314 0 0,0 1.2326137302791078,-0.38297908605390485 l 15.572862997469032 51.68697972860542" fill="red" stroke="none" /><path d="M 94.63758080256005 79.69619591428918 l -13.844912649310757 -52.42118970288374 a75.21865671641791,75.21865671641791 0 0,0 1.2546869929912172,-0.3198476512847112 l 12.94051676763454 52.65174035033731" fill="red" stroke="none" /><path d="M 96.04723909329186 79.375362276772 l -10.331848383912053 -53.90931426382851 a75.89044776119403,75.89044776119403 0 0,0 1.2850958802650765,-0.23484305799229968 l 9.402357382544084 54.079172803171545" fill="red" stroke="none" /><path d="M 97.47563105711357 79.15227682838746 l -6.60323423356274 -54.53339129629146 a75.93171641791045,75.93171641791045 0 0,0 1.2989143236652971,-0.14594815878808848 l 5.663553206387726 54.63897540855015" fill="red" stroke="none" /><path d="M 99.27714615592234 79.0124445844662 l -1.9200041022159329 -55.745975238916735 a76.77902985074627,76.77902985074627 0 0,0 1.3212331601731908,-0.034123554509761365 l 0.9601443068478632 55.77076558556885" fill="red" stroke="none" /></svg>