<?xml version="1.0" encoding="utf-8" ?>
<svg baseProfile="full" height="200mm" version="1.1" viewBox="0,0,200,200" width="200mm" xmlns="http://www.w3.org/2000/svg" xmlns:ev="http://www.w3.org/2001/xml-events" xmlns:xlink="http://www.w3.org/1999/xlink"><defs /><rect fill="#1a1a1a" height="200" width="200" x="0" y="0" /><text alignment-baseline="middle" fill="#e1ed5e" style="dominant-baseline: central; font-size:9.0px; font-family:Arial;" text-anchor="middle" x="100.0" y="100.0">2025</text><line stroke="#e1ed5e" stroke-width="0.3" x1="100.0" x2="100.0" y1="15.0" y2="10.0" /><path d="M 100.0 14.0 a86.0,86.0 0 0,1 42.46469731375804,11.215312516191453" fill="none" id="id121" stroke="none" /><text fill="#e1ed5e" style="font-size:6.75px; font-family:Arial;" text-anchor="middle"><textPath startOffset="22.20632615414155" xlink:href="#id121">January</textPath></text><path d="M 100.0 79.0 l 0.0 -29.76946982558269 a50.76946982558269,50.76946982558269 0 0,0 0.873912965950657,0.0075220448021073 l -0.5124324866781287 29.765059157389143" fill="red" stroke="none" /><path d="M 102.88285421437855 79.19881850522331 l 4.1054537071141874 -29.622825619884757 a50.90596174423017,50.90596174423017 0 0,0 0.8669310000404228,0.12776309395293484 l -4.614753687583266 29.547768041770855" fill="red" stroke="none" /><path d="M 104.307194497241 79.44645832069477 l 6.178427793839567 -29.482897337141974 a51.12331664004053,51.12331664004053 0 0,0 0.8597414874682537,0.18790618938961434 l -6.685012005461349 29.37217764965649" fill="red" stroke="none" /><path d="M 105.01212808612495 79.60689891045804 l 7.592944768877027 -30.893801510713786 a52.813201380034016,52.813201380034016 0 0,0 0.8809521430244611,0.22457431647463102 l -8.123605800586514 30.758524198070287" fill="red" stroke="none" /><path d="M 105.71112130821622 79.79150937346287 l 8.143180946488213 -28.814200740327305 a50.942771418676784,50.942771418676784 0 0,0 0.8417923818362024,0.24574227972497467 l -8.637963546047843 28.669760131683628" fill="red" stroke="none" /><path d="M 106.74666289553966 80.11325718540242 l 10.091855730824351 -29.74717168299743 a52.412414348940075,52.412414348940075 0 0,0 0.8518714394183593,0.29720121827888263 l -10.602409174305985 29.569049611546337" fill="red" stroke="none" /><path d="M 107.4271985657038 80.35727306442388 l 11.200191542556317 -29.621169024950564 a52.66793243953007,52.66793243953007 0 0,0 0.84523713794199,0.32793887797468135 l -11.708411845497974 29.423987443085338" fill="red" stroke="none" /><path d="M 108.09893153111575 80.62456947434976 l 12.201180599973917 -29.18942160919072 a52.636863654797864,52.636863654797864 0 0,0 0.8329564157840933,0.356628467017279 l -12.701820773548324 28.97507361421065" fill="red" stroke="none" /><path d="M 109.73455568895987 81.39251694778311 l 13.611534461273513 -26.018280124490776 a50.36366412808368,50.36366412808368 0 0,0 0.7647001801058994,0.4084763529682445 l -14.057379687907723 25.780125045020775" fill="red" stroke="none" /><path d="M 110.36928655335952 81.73862282372117 l 14.511088211626612 -25.555514712332137 a50.388024998251126,50.388024998251126 0 0,0 0.7505494697176986,0.43476669747663627 l -14.94883441380964 25.30194385746545" fill="red" stroke="none" /><line stroke="#e1ed5e" stroke-width="0.3" x1="143.23703022742887" x2="145.7803849466894" y1="26.81831364943548" y2="22.513508569990506" /><path d="M 143.74570117128098 25.957352633546492 a86.0,86.0 0 0,1 28.547481713284135,27.462654790039103" fill="none" id="id122" stroke="none" /><text fill="#e1ed5e" style="font-size:6.75px; font-family:Arial;" text-anchor="middle"><textPath startOffset="19.985693538727396" xlink:href="#id122">February</textPath></text><path d="M 111.2981086023043 82.29822771554956 l 16.733440089040958 -26.217799493561575 a52.10274951669258,52.10274951669258 0 0,0 0.7518500548028577,0.4890241897136543 l -17.182257169628098 25.925876379688393" fill="red" stroke="none" /><path d="M 111.90073688211348 82.69761687909136 l 33.606092365068285 -48.85962029552836 a80.30119677943024,80.30119677943024 0 0,0 1.1321278009788052,0.7931278741071273 l -34.442151305630745 48.273907578657294" fill="red" stroke="none" /><path d="M 112.77801427241765 83.33499621200491 l 18.174872256164818 -23.703551157327578 a50.86945461497339,50.86945461497339 0 0,0 0.6902923096220139,0.5387840968951657 l -18.580197120946263 23.38718867120919" fill="red" stroke="none" /><path d="M 113.34407831869373 83.78471172551755 l 18.810849982601006 -22.858330704535142 a50.60323225031034,50.60323225031034 0 0,0 0.6678240201752779,0.5592834113061326 l -19.201531539735402 22.53114613583519" fill="red" stroke="none" /><path d="M 113.89432698308785 84.25364557470407 l 19.901608244109095 -22.554368946878565 a51.07945427187653,51.07945427187653 0 0,0 0.6542767599394217,0.5874161351515013 l -20.286895991644506 22.208453802957766" fill="red" stroke="none" /><path d="M 114.42810811169701 84.74124197986012 l 21.21823355032474 -22.439802145420582 a51.88297516952906,51.88297516952906 0 0,0 0.6436373525191978,0.6191786231702623 l -21.601354146456355 22.07124043548802" fill="red" stroke="none" /><path d="M 114.68862486808459 84.99185889309783 l 22.441211601312958 -22.92936699977649 a53.08370067721837,53.08370067721837 0 0,0 0.6475306527684287,0.6447499503608772 l -22.832578054248707 22.539681198765493" fill="red" stroke="none" /><path d="M 115.19652480421416 85.50635884689758 l 22.63164835693802 -21.584868528474185 a52.2745592573838,52.2745592573838 0 0,0 0.6154275846674632,0.6564952378758337 l -22.999843263575947 21.192103873720296" fill="red" stroke="none" /><path d="M 115.68641384162765 86.03803664274999 l 22.842315758959543 -20.331197355955737 a51.579878599478334,51.579878599478334 0 0,0 0.5845919420163175,0.6682896466599304 l -23.188899564553708 19.934992153092857" fill="red" stroke="none" /><path d="M 116.15771136456269 86.58626213691792 l 45.393197935484075 -37.68432571515125 a79.99704080219317,79.99704080219317 0 0,0 0.8704497358441041,1.0670684530095702 l -46.03514616340458 36.897373092533584" fill="red" stroke="none" /><path d="M 116.82858285166822 87.43820079747576 l 31.840477904962142 -23.76752062131572 a60.73299724034232,60.73299724034232 0 0,0 0.6181386744937098,0.8431404573312056 l -32.24487919196948 23.215917720313023" fill="red" stroke="none" /><path d="M 117.2510076193507 88.02491185347247 l 48.605806812191325 -33.740569470050886 a80.16883034189027,80.16883034189027 0 0,0 0.7771624987410939,1.1403900700870895 l -49.17939377660115 32.898901376693395" fill="red" stroke="none" /><line stroke="#e1ed5e" stroke-width="0.3" x1="172.23445277983987" x2="176.4835382374775" y1="55.19839476539836" y2="52.563006222186495" /><path d="M 173.08426987136738 54.67131705675599 a86.0,86.0 0 0,1 12.851231095245387,41.99856678651699" fill="none" id="id123" stroke="none" /><text fill="#e1ed5e" style="font-size:6.75px; font-family:Arial;" text-anchor="middle"><textPath startOffset="22.20632615414155" xlink:href="#id123">March</textPath></text><path d="M 117.84615892207809 88.93136811851018 l 7.726305997047837 -4.792047255573324 a30.091728177836444,30.091728177836444 0 0,0 0.26922668223241625,0.442537877200402 l -7.807648477566477 4.658341605165839" fill="red" stroke="none" /><path d="M 118.03404312379186 89.2402003453031 l 26.245642753059958 -15.65915396193726 a51.56211488632461,51.56211488632461 0 0,0 0.4481983445880036,0.7661162565289031 l -26.51130077211829 15.205058293054462" fill="red" stroke="none" /><path d="M 118.3937258080291 89.86733742301442 l 26.273983132944426 -14.473707416217202 a50.99683976755733,50.99683976755733 0 0,0 0.41694020731158576,0.7725268819051192 l -26.519231439474478 14.019299550979625" fill="red" stroke="none" /><path d="M 118.89224826269711 90.83032412892265 l 26.75457716943199 -12.985791701447454 a50.73950547047602,50.73950547047602 0 0,0 0.37460688436755685,0.7890176351443922 l -26.974142247641304 12.523331650662522" fill="red" stroke="none" /><path d="M 119.04729006885535 91.15688171328212 l 21.419677350615014 -9.944550631091609 a44.615602153212066,44.615602153212066 0 0,0 0.3174032185226186,0.6993559186236231 l -21.587682886100982 9.574372703625924" fill="red" stroke="none" /><path d="M 119.34039704204932 91.81776055985345 l 28.116353754334188 -11.895037009925254 a51.52902314038813,51.52902314038813 0 0,0 0.33856608044346914,0.8198646186144698 l -28.316941521663857 11.40929782085748" fill="red" stroke="none" /><path d="M 119.61058180528143 92.48833698450437 l 29.241187004770218 -11.200582682037968 a52.31293773929734,52.31293773929734 0 0,0 0.3148626329641593,0.8436753164916679 l -29.429654226236003 10.695584228516966" fill="red" stroke="none" /><path d="M 119.85752413597 93.16781622104841 l 28.412014347928153 -9.775443415104892 a51.04666126658323,51.04666126658323 0 0,0 0.27872134879724747,0.8333413565808775 l -28.57607299049717 9.284928955601702" fill="red" stroke="none" /><path d="M 120.28053869075195 94.5502522615342 l 31.445687205975776 -8.450025186629563 a53.56123722328042,53.56123722328042 0 0,0 0.23159794330660693,0.8924413503072279 l -31.586481481152685 7.907487410773484" fill="red" stroke="none" /><path d="M 120.45610955862082 95.25157060432595 l 29.368198060583484 -6.817171885456719 a51.14904459251605,51.14904459251605 0 0,0 0.19170080518638524,0.8593571209000969 l -29.48119325277191 6.310636595006658" fill="red" stroke="none" /><path d="M 120.67395015179393 96.31383870115 l 29.707397721883105 -5.296823247029439 a51.175914500084616,51.175914500084616 0 0,0 0.14716277198382555,0.8685630106554162 l -29.794172355387154 4.784674448058185" fill="red" stroke="none" /><path d="M 120.78858239683441 97.02765380044208 l 29.68039536550591 -4.243695345935254 a50.98224173142924,50.98224173142924 0 0,0 0.11673476949750793,0.8698096234665013 l -29.749046134061253 3.732167380404089" fill="red" stroke="none" /><path d="M 120.87857604477298 97.74499172005257 l 29.378975508047866 -3.173101119777108 a50.54983540764326,50.54983540764326 0 0,0 0.08598978176434605,0.8659053673806015 l -29.42924241549444 2.6669202216920715" fill="red" stroke="none" /><path d="M 120.96714384426684 98.82574320788733 l 30.24588112112457 -1.6939088892464622 a51.29327734198246,51.29327734198246 0 0,0 0.04178299510475574,0.881972988242667 l -30.270557724462822 1.1730247943807957" fill="red" stroke="none" /><line stroke="#e1ed5e" stroke-width="0.3" x1="184.98032266829074" x2="189.97916517819016" y1="98.17113171792111" y2="98.06355123074" /><path d="M 185.9800911702706 98.14961562048488 a86.0,86.0 0 0,1 -9.607161424134198,41.387399972396054" fill="none" id="id124" stroke="none" /><text fill="#e1ed5e" style="font-size:6.75px; font-family:Arial;" text-anchor="middle"><textPath startOffset="21.466115282336823" xlink:href="#id124">April</textPath></text><path d="M 120.99824983174949 100.27111621757518 l 57.72502801835602 0.7453093177363325 a78.72983930082512,78.72983930082512 0 0,0 -0.029159797852440678,1.354941224977422 l -57.703646157818575 -1.7388403585038694" fill="red" stroke="none" /><path d="M 120.92983693683757 101.71520430193887 l 36.05469849515346 2.954689716437902 a57.17556461061589,57.17556461061589 0 0,0 -0.08882742278607178,0.980203208574544 l -35.99849647609032 -3.5748743135610166" fill="red" stroke="none" /><path d="M 120.8583938346157 102.4346265915055 l 30.27853438627466 3.5341611417030947 a51.484093221815556,51.484093221815556 0 0,0 -0.11031935679887031,0.8793538178703768 l -30.21321352022894 -4.054832713860867" fill="red" stroke="none" /><path d="M 120.81339534386255 102.79330883721812 l 29.469849387334396 3.955067847659081 a50.73406438063522,50.73406438063522 0 0,0 -0.12361221665809735,0.8645435554022735 l -29.397403119659696 -4.461756875041764" fill="red" stroke="none" /><path d="M 120.70491114924044 103.5080841355445 l 62.114733447721314 10.524252406633499 a84.0,84.0 0 0,0 -0.25381423064324515,1.4235249970671267 l -61.924372774738885 -11.591896154433844" fill="red" stroke="none" /><path d="M 120.49622156327973 104.57218783832717 l 29.165493599922257 6.5060828272503874 a50.88235483830129,50.88235483830129 0 0,0 -0.19805213755254975,0.8532034250703704 l -29.049180896439154 -7.007154909669323" fill="red" stroke="none" /><path d="M 120.23288151984713 105.62410040840565 l 28.608074286565873 7.952138805387035 a50.69273355495943,50.69273355495943 0 0,0 -0.24092895548362137,0.8387053009480329 l -28.466952694196152 -8.44340158183965" fill="red" stroke="none" /><path d="M 120.02730092923936 106.31721596034902 l 55.870073607821006 17.62310967155404 a79.58360794146225,79.58360794146225 0 0,0 -0.42333836662601326,1.302901521619552 l -55.55844299017874 -18.58221009315139" fill="red" stroke="none" /><path d="M 119.79798401119884 107.00284435728193 l 54.608879386245555 19.315980993375 a78.9244061649141,78.9244061649141 0 0,0 -0.4640594940922099,1.2768924221196407 l -54.26829563114812 -20.25312121250077" fill="red" stroke="none" /><path d="M 119.54520255179757 107.68017299344265 l 29.251011591698635 11.494013871796914 a52.42823625376944,52.42823625376944 0 0,0 -0.3372817931895263,0.8371057504178674 l -29.048827184251717 -11.995818990057597" fill="red" stroke="none" /><path d="M 119.26925614724726 108.34839909993367 l 28.737160211995604 12.45036552605827 a52.31830102004838,52.31830102004838 0 0,0 -0.36512921172385854,0.8232699811405382 l -28.518589915540474 -12.943183843691497" fill="red" stroke="none" /><path d="M 118.97047184881838 109.00673069616215 l 27.48010201729496 13.046901539681764 a51.420020490905145,51.420020490905145 0 0,0 -0.3864991799663827,0.7963027880063901 l -27.251449580713864 -13.51799328365343" fill="red" stroke="none" /><line stroke="#e1ed5e" stroke-width="0.3" x1="174.80103733775053" x2="179.2010983576182" y1="140.37084112569926" y2="142.7455964860345" /><path d="M 175.68104954172406 140.8457921977663 a86.0,86.0 0 0,1 -30.038265399797805,32.042727171017184" fill="none" id="id125" stroke="none" /><text fill="#e1ed5e" style="font-size:6.75px; font-family:Arial;" text-anchor="middle"><textPath startOffset="22.206326154141568" xlink:href="#id125">May</textPath></text><path d="M 118.48025628344425 109.97397251340804 l 51.9709171053588 28.04920509516053 a80.05704133498779,80.05704133498779 0 0,0 -0.6649445999208325,1.207067595071556 l -51.480396095986464 -28.939643208629892" fill="red" stroke="none" /><path d="M 118.12598468904814 110.60418214915192 l 25.40301557116688 14.861438364623396 a50.43086051026111,50.43086051026111 0 0,0 -0.444798086737877,0.7455071781108294 l -25.143436608730774 -15.29650763662033" fill="red" stroke="none" /><path d="M 117.55443506779139 111.5257021239791 l 50.39948353315514 33.09075069418458 a81.29183793776279,81.29183793776279 0 0,0 -0.7780669990926312,1.163104594126746 l -49.822413428651785 -33.953392202517136" fill="red" stroke="none" /><path d="M 117.14729908036423 112.12312394758627 l 24.174018697734244 17.091007954686887 a50.60550173372469,50.60550173372469 0 0,0 -0.50899545633972,0.7069501708552067 l -23.876243449018922 -17.504591730993226" fill="red" stroke="none" /><line stroke="#e1ed5e" stroke-width="0.3" x1="143.8653032363475" x2="146.44561519142675" y1="172.8068346515853" y2="177.08958963109032" /><path d="M 144.38136562736335 173.6633856474863 a86.0,86.0 0 0,1 -40.68145358897372,12.25698825130547" fill="none" id="id126" stroke="none" /><text fill="#e1ed5e" style="font-size:6.75px; font-family:Arial;" text-anchor="middle"><textPath startOffset="21.466115282336833" xlink:href="#id126">June</textPath></text><line stroke="#e1ed5e" stroke-width="0.3" x1="102.19456741930631" x2="102.32365962044197" y1="184.97166512339345" y2="189.96999836594603" /><path d="M 102.22038585953345 185.97133177190398 a86.0,86.0 0 0,1 -42.740103519485714,-10.115201625700543" fill="none" id="id127" stroke="none" /><text fill="#e1ed5e" style="font-size:6.75px; font-family:Arial;" text-anchor="middle"><textPath startOffset="22.20632615414155" xlink:href="#id127">July</textPath></text><line stroke="#e1ed5e" stroke-width="0.3" x1="58.666819895761336" x2="56.23545636021788" y1="174.27360380694188" y2="178.64263932499728" /><path d="M 58.180547188652646 175.14741091055294 a86.0,86.0 0 0,1 -31.652253787137756,-30.449443065178592" fill="none" id="id128" stroke="none" /><text fill="#e1ed5e" style="font-size:6.75px; font-family:Arial;" text-anchor="middle"><textPath startOffset="22.20632615414155" xlink:href="#id128">August</textPath></text><line stroke="#e1ed5e" stroke-width="0.3" x1="26.63291911575756" x2="22.317208475507996" y1="142.92168965132927" y2="145.44649492493687" /><path d="M 25.769776987707644 143.4266507060508 a86.0,86.0 0 0,1 -11.730757126820373,-40.83630448921669" fill="none" id="id129" stroke="none" /><text fill="#e1ed5e" style="font-size:6.75px; font-family:Arial;" text-anchor="middle"><textPath startOffset="21.46611528233685" xlink:href="#id129">September</textPath></text><line stroke="#e1ed5e" stroke-width="0.3" x1="15.007084014347285" x2="10.007500721073583" y1="101.09737516637583" y2="101.16192664675087" /><path d="M 14.007167355692545 101.11028546245083 a86.0,86.0 0 0,1 10.666146001902534,-42.60595125391555" fill="none" id="id130" stroke="none" /><text fill="#e1ed5e" style="font-size:6.75px; font-family:Arial;" text-anchor="middle"><textPath startOffset="22.20632615414155" xlink:href="#id130">October</textPath></text><line stroke="#e1ed5e" stroke-width="0.3" x1="26.266209847984243" x2="21.928928074336255" y1="57.711370442889674" y2="55.22380399835377" /><path d="M 25.398753493254645 57.213857153982495 a86.0,86.0 0 0,1 29.58750427330803,-30.492523968695096" fill="none" id="id131" stroke="none" /><text fill="#e1ed5e" style="font-size:6.75px; font-family:Arial;" text-anchor="middle"><textPath startOffset="21.46611528233685" xlink:href="#id131">November</textPath></text><line stroke="#e1ed5e" stroke-width="0.3" x1="56.762969772571076" x2="54.21961505331055" y1="26.818313649435495" y2="22.513508569990535" /><path d="M 56.25429882871897 25.957352633546506 a86.0,86.0 0 0,1 42.265352541879196,-11.944610805530505" fill="none" id="id132" stroke="none" /><text fill="#e1ed5e" style="font-size:6.75px; font-family:Arial;" text-anchor="middle"><textPath startOffset="22.20632615414155" xlink:href="#id132">December</textPath></text></svg>