<?xml version="1.0" encoding="utf-8" ?>
<svg baseProfile="full" height="200mm" version="1.1" viewBox="0,0,200,200" width="200mm" xmlns="http://www.w3.org/2000/svg" xmlns:ev="http://www.w3.org/2001/xml-events" xmlns:xlink="http://www.w3.org/1999/xlink"><defs /><rect fill="#1a1a1a" height="200" width="200" x="0" y="0" /><text alignment-baseline="middle" fill="#e1ed5e" style="dominant-baseline: central; font-size:9.0px; font-family:Arial;" text-anchor="middle" x="100.0" y="100.0">2025</text><line stroke="#e1ed5e" stroke-width="0.3" x1="100.0" x2="100.0" y1="15.0" y2="10.0" /><path d="M 100.0 14.0 a86.0,86.0 0 0,1 42.46469731375804,11.215312516191453" fill="none" id="id121" stroke="none" /><text fill="#e1ed5e" style="font-size:6.75px; font-family:Arial;" text-anchor="middle"><textPath startOffset="22.20632615414155" xlink:href="#id121">January</textPath></text><path d="M 100.0 79.0 l 0.0 -30.952969502730284 a51.952969502730284,51.952969502730284 0 0,0 0.894284967403714,0.007697393050284157 l -0.5328044881311855 30.94838348628856" fill="#b7ff1f" stroke="none" /><path d="M 102.88285421437855 79.19881850522331 l 4.260568025270419 -30.742050126040304 a52.03588384193257,52.03588384193257 0 0,0 0.886173628223161,0.13059895714423606 l -4.789110633922236 30.6641566847351" fill="#b6ff1f" stroke="none" /><path d="M 104.307194497241 79.44645832069477 l 6.511654841215144 -31.073026599076375 a52.7479862479186,52.7479862479186 0 0,0 0.887063577604862,0.193877740045903 l -7.045561142973534 30.9563353609346" fill="#adff20" stroke="none" /><path d="M 105.01212808612495 79.60689891045804 l 7.963969353855352 -32.40340815646456 a54.36773393599842,54.36773393599842 0 0,0 0.9068825685770364,0.23118455931299164 l -8.520560811117413 32.2615206009827" fill="#98ff23" stroke="none" /><path d="M 105.71112130821622 79.79150937346287 l 8.474149784892072 -29.98531588700404 a52.15975583056137,52.15975583056137 0 0,0 0.8619021673505859,0.25161287756325074 l -8.989042169966085 29.83500468052209" fill="#b5ff20" stroke="none" /><path d="M 106.74666289553966 80.11325718540242 l 10.679025631165326 -31.477937985886765 a54.24006871645152,54.24006871645152 0 0,0 0.8815767406556931,0.30756481460170887 l -11.219284375884293 31.289452318112847" fill="#9aff23" stroke="none" /><path d="M 107.4271985657038 80.35727306442388 l 11.860114803740805 -31.36646939671374 a54.53382956915138,54.53382956915138 0 0,0 0.8751818400877605,0.33955695718838 l -12.398279808828232 31.157669735634812" fill="#96ff23" stroke="none" /><path d="M 108.09893153111575 80.62456947434976 l 12.922952847598985 -30.916149139294355 a54.50837190769432,54.50837190769432 0 0,0 0.8625722533968058,0.36930842309554757 l -13.453208858786105 30.689121188236015" fill="#97ff23" stroke="none" /><path d="M 109.73455568895987 81.39251694778311 l 14.329147291807642 -27.38998819303273 a51.91174397093749,51.91174397093749 0 0,0 0.7882055575470237,0.42103211155452197 l -14.798497895882976 27.13927735497645" fill="#b8ff1f" stroke="none" /><path d="M 110.36928655335952 81.73862282372117 l 15.294161024696407 -26.934586254271938 a51.97391318736071,51.97391318736071 0 0,0 0.7741718986461806,0.44845033303429715 l -15.755529655807916 26.667331763847592" fill="#b7ff1f" stroke="none" /><line stroke="#e1ed5e" stroke-width="0.3" x1="143.23703022742887" x2="145.7803849466894" y1="26.81831364943548" y2="22.513508569990506" /><path d="M 143.74570117128098 25.957352633546492 a86.0,86.0 0 0,1 28.547481713284135,27.462654790039103" fill="none" id="id122" stroke="none" /><text fill="#e1ed5e" style="font-size:6.75px; font-family:Arial;" text-anchor="middle"><textPath startOffset="19.985693538727396" xlink:href="#id122">February</textPath></text><path d="M 111.2981086023043 82.29822771554956 l 17.644012778084083 -27.64447637880532 a53.795247539415215,53.795247539415215 0 0,0 0.7762730409780894,0.504909579291583 l -18.11725284484645 27.33666787535421" fill="#a0ff22" stroke="none" /><path d="M 111.90073688211348 82.69761687909136 l 35.70221064634041 -51.90714936272591 a84.0,84.0 0 0,0 1.1842754416653962,0.8296606289442576 l -36.590417227589455 51.28490389101772" fill="#4dd2ff" stroke="none" /><path d="M 112.77801427241765 83.33499621200491 l 19.276865248795502 -25.140763309780414 a52.68052262224569,52.68052262224569 0 0,0 0.714868282120342,0.5579660332477271 l -19.706766086075277 24.805218887309465" fill="#aeff20" stroke="none" /><path d="M 113.34407831869373 83.78471172551755 l 19.758428376441724 -24.009797029284833 a52.094466473866895,52.094466473866895 0 0,0 0.6875042261603883,0.5757650178462375 l -20.168790139561228 23.666130854044777" fill="#b6ff1f" stroke="none" /><path d="M 113.89432698308785 84.25364557470407 l 21.067898391057277 -23.87611832264395 a52.842194785736865,52.842194785736865 0 0,0 0.6768557042226516,0.6076877342648246 l -21.475765082875917 23.50993157960983" fill="#acff21" stroke="none" /><path d="M 114.42810811169701 84.74124197986012 l 22.588110047989126 -23.888544685573276 a53.876819839131315,53.876819839131315 0 0,0 0.6683721118556478,0.642973442054603 l -22.99596540345719 23.49618815675637" fill="#9fff22" stroke="none" /><path d="M 114.68862486808459 84.99185889309783 l 23.786198039255112 -24.30361043160142 a55.006597847678165,55.006597847678165 0 0,0 0.6709867201508741,0.6681052899356688 l -24.20102055957331 23.890569291015634" fill="#90ff24" stroke="none" /><path d="M 115.19652480421416 85.50635884689758 l 23.76565928327703 -22.666428137780187 a53.84164316373292,53.84164316373292 0 0,0 0.6338768394704956,0.6761756165626179 l -24.152303444717987 22.253983104339515" fill="#9fff22" stroke="none" /><path d="M 115.68641384162765 86.03803664274999 l 24.224451517615403 -21.56139114096783 a53.43019641110897,53.43019641110897 0 0,0 0.6055629274513138,0.6922631082135162 l -24.592006308644564 21.141212476551367" fill="#a4ff21" stroke="none" /><path d="M 116.15771136456269 86.58626213691792 l 48.150178499996166 -39.97310373275376 a83.58025816190747,83.58025816190747 0 0,0 0.9094388106018519,1.1148644485424768 l -48.83111580267443 39.138355114603186" fill="#4cd6ff" stroke="none" /><path d="M 116.82858285166822 87.43820079747576 l 33.32734906445545 -24.877404745856115 a62.5884294311916,62.5884294311916 0 0,0 0.6370232092141975,0.8688989414670839 l -33.75063488618327 24.300043360717538" fill="#36ff2e" stroke="none" /><path d="M 117.2510076193507 88.02491185347247 l 51.554498113630665 -35.787455021943316 a83.7583318189383,83.7583318189383 0 0,0 0.811959388320757,1.1914502118345935 l -52.16288196762016 34.89472678683831" fill="#4dd5ff" stroke="none" /><line stroke="#e1ed5e" stroke-width="0.3" x1="172.23445277983987" x2="176.4835382374775" y1="55.19839476539836" y2="52.563006222186495" /><path d="M 173.08426987136738 54.67131705675599 a86.0,86.0 0 0,1 12.851231095245387,41.99856678651699" fill="none" id="id123" stroke="none" /><text fill="#e1ed5e" style="font-size:6.75px; font-family:Arial;" text-anchor="middle"><textPath startOffset="22.20632615414155" xlink:href="#id123">March</textPath></text><path d="M 117.84615892207809 88.93136811851018 l 7.702732904184971 -4.777426636741758 a30.06398915834874,30.06398915834874 0 0,0 0.26897850492133196,0.4421299389548096 l -7.783827207392527 4.644128924579867" fill="#ff0000" stroke="none" /><path d="M 118.03404312379186 89.2402003453031 l 27.715766042988637 -16.536285726498022 a53.2740210227679,53.2740210227679 0 0,0 0.4630789114176514,0.7915519688473798 l -27.996304628876615 16.056754345296746" fill="#a6ff21" stroke="none" /><line stroke="#e1ed5e" stroke-width="0.3" x1="184.98032266829074" x2="189.97916517819016" y1="98.17113171792111" y2="98.06355123074" /><path d="M 185.9800911702706 98.14961562048488 a86.0,86.0 0 0,1 -9.607161424134198,41.387399972396054" fill="none" id="id124" stroke="none" /><text fill="#e1ed5e" style="font-size:6.75px; font-family:Arial;" text-anchor="middle"><textPath startOffset="21.466115282336823" xlink:href="#id124">April</textPath></text><line stroke="#e1ed5e" stroke-width="0.3" x1="174.80103733775053" x2="179.2010983576182" y1="140.37084112569926" y2="142.7455964860345" /><path d="M 175.68104954172406 140.8457921977663 a86.0,86.0 0 0,1 -30.038265399797805,32.042727171017184" fill="none" id="id125" stroke="none" /><text fill="#e1ed5e" style="font-size:6.75px; font-family:Arial;" text-anchor="middle"><textPath startOffset="22.206326154141568" xlink:href="#id125">May</textPath></text><line stroke="#e1ed5e" stroke-width="0.3" x1="143.8653032363475" x2="146.44561519142675" y1="172.8068346515853" y2="177.08958963109032" /><path d="M 144.38136562736335 173.6633856474863 a86.0,86.0 0 0,1 -40.68145358897372,12.25698825130547" fill="none" id="id126" stroke="none" /><text fill="#e1ed5e" style="font-size:6.75px; font-family:Arial;" text-anchor="middle"><textPath startOffset="21.466115282336833" xlink:href="#id126">June</textPath></text><line stroke="#e1ed5e" stroke-width="0.3" x1="102.19456741930631" x2="102.32365962044197" y1="184.97166512339345" y2="189.96999836594603" /><path d="M 102.22038585953345 185.97133177190398 a86.0,86.0 0 0,1 -42.740103519485714,-10.115201625700543" fill="none" id="id127" stroke="none" /><text fill="#e1ed5e" style="font-size:6.75px; font-family:Arial;" text-anchor="middle"><textPath startOffset="22.20632615414155" xlink:href="#id127">July</textPath></text><line stroke="#e1ed5e" stroke-width="0.3" x1="58.666819895761336" x2="56.23545636021788" y1="174.27360380694188" y2="178.64263932499728" /><path d="M 58.180547188652646 175.14741091055294 a86.0,86.0 0 0,1 -31.652253787137756,-30.449443065178592" fill="none" id="id128" stroke="none" /><text fill="#e1ed5e" style="font-size:6.75px; font-family:Arial;" text-anchor="middle"><textPath startOffset="22.20632615414155" xlink:href="#id128">August</textPath></text><line stroke="#e1ed5e" stroke-width="0.3" x1="26.63291911575756" x2="22.317208475507996" y1="142.92168965132927" y2="145.44649492493687" /><path d="M 25.769776987707644 143.4266507060508 a86.0,86.0 0 0,1 -11.730757126820373,-40.83630448921669" fill="none" id="id129" stroke="none" /><text fill="#e1ed5e" style="font-size:6.75px; font-family:Arial;" text-anchor="middle"><textPath startOffset="21.46611528233685" xlink:href="#id129">September</textPath></text><line stroke="#e1ed5e" stroke-width="0.3" x1="15.007084014347285" x2="10.007500721073583" y1="101.09737516637583" y2="101.16192664675087" /><path d="M 14.007167355692545 101.11028546245083 a86.0,86.0 0 0,1 10.666146001902534,-42.60595125391555" fill="none" id="id130" stroke="none" /><text fill="#e1ed5e" style="font-size:6.75px; font-family:Arial;" text-anchor="middle"><textPath startOffset="22.20632615414155" xlink:href="#id130">October</textPath></text><line stroke="#e1ed5e" stroke-width="0.3" x1="26.266209847984243" x2="21.928928074336255" y1="57.711370442889674" y2="55.22380399835377" /><path d="M 25.398753493254645 57.213857153982495 a86.0,86.0 0 0,1 29.58750427330803,-30.492523968695096" fill="none" id="id131" stroke="none" /><text fill="#e1ed5e" style="font-size:6.75px; font-family:Arial;" text-anchor="middle"><textPath startOffset="21.46611528233685" xlink:href="#id131">November</textPath></text><line stroke="#e1ed5e" stroke-width="0.3" x1="56.762969772571076" x2="54.21961505331055" y1="26.818313649435495" y2="22.513508569990535" /><path d="M 56.25429882871897 25.957352633546506 a86.0,86.0 0 0,1 42.265352541879196,-11.944610805530505" fill="none" id="id132" stroke="none" /><text fill="#e1ed5e" style="font-size:6.75px; font-family:Arial;" text-anchor="middle"><textPath startOffset="22.20632615414155" xlink:href="#id132">December</textPath></text></svg>