<?xml version="1.0" encoding="utf-8" ?>
<svg baseProfile="full" height="200mm" version="1.1" viewBox="0,0,200,200" width="200mm" xmlns="http://www.w3.org/2000/svg" xmlns:ev="http://www.w3.org/2001/xml-events" xmlns:xlink="http://www.w3.org/1999/xlink"><defs /><rect fill="#1a1a1a" height="200" width="200" x="0" y="0" /><text alignment-baseline="middle" fill="#e1ed5e" style="dominant-baseline: central; font-size:9.0px; font-family:Arial;" text-anchor="middle" x="100.0" y="100.0">2024</text><line stroke="#e1ed5e" stroke-width="0.3" x1="100.0" x2="100.0" y1="15.0" y2="10.0" /><path d="M 100.0 14.0 a86.0,86.0 0 0,1 42.35913384403234,11.155469271406648" fill="none" id="id109" stroke="none" /><text fill="#e1ed5e" style="font-size:6.75px; font-family:Arial;" text-anchor="middle"><textPath startOffset="22.145653131862478" xlink:href="#id109">January</textPath></text><path d="M 100.0 79.0 l 0.0 -26.56823692414271 a47.56823692414271,47.56823692414271 0 0,0 0.8165720408898808,0.007009288878596155 l -0.456079116041026 26.56432203345855" fill="red" stroke="none" /><path d="M 101.80034050326958 79.07731436759882 l 4.548358432709958 -52.85881946123259 a74.05414554271499,74.05414554271499 0 0,0 1.265622150877629,0.11985573355050037 l -5.4550801469726 52.772951972176905" fill="red" stroke="none" /><path d="M 102.51750503828377 79.15144685158666 l 3.175340670866771 -26.296375869823457 a47.48739647951633,47.48739647951633 0 0,0 0.8084665439091537,0.1046721801731284 l -3.6262850366667165 26.23799209344993" fill="red" stroke="none" /><path d="M 103.23170211078529 79.25015418208739 l 4.229569131373922 -27.156867911592652 a48.484263312025696,48.484263312025696 0 0,0 0.8212830099041041,0.13514180674488205 l -4.695129644331097 27.0802601063521" fill="red" stroke="none" /><path d="M 104.64783097203109 79.52079915486377 l 11.27077423191374 -49.661110863220934 a71.92402462449223,71.92402462449223 0 0,0 1.2017060768740508,0.2835993620662692 l -12.121612462527676 49.46031535750844" fill="red" stroke="none" /><path d="M 105.69591212413111 79.78721728523813 l 8.41943769729293 -29.877614163827594 a52.041242875586484,52.041242875586484 0 0,0 0.8577883411714963,0.24968968457379076 l -8.93108605084603 29.72868078495129" fill="red" stroke="none" /><path d="M 106.38641147887787 79.99465700312896 l 17.577060669902778 -55.059892200995606 a78.79744623232673,78.79744623232673 0 0,0 1.2850635079045942,0.4224258996528139 l -18.519646915455112 54.75004537994077" fill="red" stroke="none" /><path d="M 107.40779381753099 80.34994680014964 l 19.833232529478977 -52.61000561421664 a77.2242812608244,77.2242812608244 0 0,0 1.2364259699471711,0.4782761266305913 l -20.733430761919674 52.26178959944801" fill="red" stroke="none" /><path d="M 108.07796709384702 80.6158196554323 l 10.95359823016156 -26.284648234964713 a49.47567465440691,49.47567465440691 0 0,0 0.7811618260800328,0.3334315328001145 l -11.403195131412023 26.092742052505198" fill="red" stroke="none" /><path d="M 108.73861861582097 80.90454125486305 l 21.979523125693905 -48.02922470201446 a73.81955946720409,73.81955946720409 0 0,0 1.1477580620512249,0.5372087267419631 l -22.800769901616636 47.64483974370196" fill="red" stroke="none" /><path d="M 109.3889696526874 81.21577127319529 l 12.941726559005092 -25.892122436942017 a49.94633466637277,49.94633466637277 0 0,0 0.7636384969788427,0.3899192576971093 l -13.384292277697513 25.666145227572073" fill="red" stroke="none" /><line stroke="#e1ed5e" stroke-width="0.3" x1="143.13028292997686" x2="145.6673583964461" y1="26.7553504044142" y2="22.446841604673864" /><path d="M 143.63769802327073 25.89364864446614 a86.0,86.0 0 0,1 29.32050498858742,28.57503671076993" fill="none" id="id110" stroke="none" /><text fill="#e1ed5e" style="font-size:6.75px; font-family:Arial;" text-anchor="middle"><textPath startOffset="20.669276256404974" xlink:href="#id110">February</textPath></text><path d="M 110.65571695917076 81.90426304109057 l 27.238565329535 -46.25703884872088 a74.68103095380545,74.68103095380545 0 0,0 1.0991171606829322,0.6599882747890381 l -28.028615246775363 45.78263657339592" fill="red" stroke="none" /><path d="M 111.8722381534696 82.67804972795209 l 29.020102366145824 -42.3411966284732 a72.33169852316026,72.33169852316026 0 0,0 1.0181716736755149,0.7107629034226086 l -29.7426691309951 41.83678890924546" fill="red" stroke="none" /><path d="M 112.45986205192187 83.09580414077388 l 22.08087497210332 -29.95694765448427 a58.21536983972038,58.21536983972038 0 0,0 0.7993441853684615,0.5998427787668489 l -22.59187214638255 29.573485848453405" fill="red" stroke="none" /><path d="M 113.03279911837588 83.53348406188908 l 16.308132738168613 -20.60479297001139 a47.27760808640615,47.27760808640615 0 0,0 0.632054859509737,0.5091386540051099 l -16.659438368033612 20.321806022212872" fill="red" stroke="none" /><path d="M 114.39649973595853 84.71141617570332 l 21.228229780386375 -22.543644385185654 a51.96536196744026,51.96536196744026 0 0,0 0.6441911191472847,0.6171205199504454 l -21.61209338539897 22.175911734929628" fill="red" stroke="none" /><path d="M 114.91283532996326 85.21462403516908 l 22.040655944778248 -21.852275401999965 a52.03727524640237,52.03727524640237 0 0,0 0.6234888230544275,0.6397544588212425 l -22.412531568983486 21.47069825111098" fill="red" stroke="none" /><path d="M 115.6541949942343 86.00192230759917 l 20.52367149549524 -18.35239360651052 a48.53237081588311,48.53237081588311 0 0,0 0.5500079663828186,0.6258081021738302 l -20.835690525836647 17.997373226525394" fill="red" stroke="none" /><path d="M 116.7966241395341 87.39550010848427 l 33.76725997229826 -25.339581401707935 a63.21755833359574,63.21755833359574 0 0,0 0.6439099073522769,0.8735874558017303 l -34.197271899234366 24.75618763663733" fill="red" stroke="none" /><path d="M 117.21940702142032 87.97951657250589 l 23.115008386281712 -16.136071055643608 a49.19000535315049,49.19000535315049 0 0,0 0.4774013303371987,0.6965428082735866 l -23.388599453434235 15.736893512299972" fill="red" stroke="none" /><path d="M 117.62189284568427 88.57770195909679 l 26.23931862331645 -17.00800931717984 a52.2693815536732,52.2693815536732 0 0,0 0.48158098096627705,0.7571252905538218 l -26.527417295908617 16.555070351947347" fill="red" stroke="none" /><line stroke="#e1ed5e" stroke-width="0.3" x1="172.87174338648825" x2="177.1583165268699" y1="56.24261187166439" y2="53.66864786411523" /><path d="M 173.72905801456457 55.72781907015455 a86.0,86.0 0 0,1 12.242430191666344,42.057860355516425" fill="none" id="id111" stroke="none" /><text fill="#e1ed5e" style="font-size:6.75px; font-family:Arial;" text-anchor="middle"><textPath startOffset="22.145653131862474" xlink:href="#id111">March</textPath></text><path d="M 118.00360718960297 89.18935116829356 l 22.19823166911529 -13.329400310303166 a46.89274805554681,46.89274805554681 0 0,0 0.40847221064860606,0.6936751142362009 l -22.423777589893664 12.946374027773409" fill="red" stroke="none" /><path d="M 118.53625476483649 90.13048839642627 l 44.6943382515055 -23.79721770031323 a71.63488364769972,71.63488364769972 0 0,0 0.5686170039995349,1.0903980801313984 l -45.09626332447998 23.026473377077334" fill="red" stroke="none" /><path d="M 118.8641267826498 90.77261029715802 l 33.4155578927319 -16.34522384029495 a58.1990033693359,58.1990033693359 0 0,0 0.43128438525379215,0.9012184899037595 l -33.6912215359456 15.769192848326085" fill="red" stroke="none" /><path d="M 119.16976305983485 91.42560881287824 l 46.41153745817386 -20.759290374117217 a71.84268822621785,71.84268822621785 0 0,0 0.49388809546115153,1.1301126157327503 l -46.76105943565198 19.95951568860862" fill="red" stroke="none" /><path d="M 119.58574465831526 92.42381321644754 l 24.124935409494555 -9.332043279032067 a46.866958465850054,46.866958465850054 0 0,0 0.2838113837999602,0.7528434143501989 l -24.281577477108957 8.91653158448771" fill="red" stroke="none" /><path d="M 119.71291397450082 92.76114493625339 l 8.950328380194408 -3.2866845561733298 a30.534708883080896,30.534708883080896 0 0,0 0.1764612894194473,0.49359363251862204 l -9.005429839657799 3.1325559672737913" fill="red" stroke="none" /><path d="M 119.83427380445688 93.10060997987247 l 24.610469614865078 -8.560798853815227 a47.05690871303965,47.05690871303965 0 0,0 0.2588456653378324,0.7652312157107273 l -24.753800701775276 8.137065963630336" fill="red" stroke="none" /><path d="M 120.05942366710727 93.78553927170692 l 34.23246735015518 -10.605305890664837 a56.83761060553579,56.83761060553579 0 0,0 0.28073362543843006,0.9344709354211712 l -34.40947729559724 10.016097351652942" fill="red" stroke="none" /><path d="M 120.26092885502905 94.47779374421319 l 50.758229943408665 -13.834381282898734 a73.6097710740939,73.6097710740939 0 0,0 0.32181672857892896,1.2219905364325894 l -50.988236152792325 12.961010242093346" fill="red" stroke="none" /><path d="M 120.43855184770803 95.1765574152323 l 25.95397457960638 -6.125067331778224 a47.666931700097614,47.666931700097614 0 0,0 0.18110968631144517,0.7980026948679886 l -26.055295127475492 5.678630302971209" fill="red" stroke="none" /><path d="M 120.592083275326 95.88100663000786 l 54.04084479927519 -10.809682461983176 a76.11136127467961,76.11136127467961 0 0,0 0.24527323890046807,1.283373228532703 l -54.218444330457814 9.880406668417159" fill="red" stroke="none" /><path d="M 120.82617615685814 97.30363454192243 l 62.478528470574396 -8.089096374232712 a84.0,84.0 0 0,0 0.17287165496134538,1.4316252923063482 l -62.6081822117954 7.015377405002951" fill="red" stroke="none" /><path d="M 120.93736805541906 98.37931529534042 l 50.44727533496467 -3.904938161793764 a71.59818307774665,71.59818307774665 0 0,0 0.08433597319627854,1.2262265410720694 l -50.50687526932602 3.0383681965673603" fill="red" stroke="none" /><path d="M 120.98066250479742 99.09900007780936 l 26.309897448115386 -1.1298602009433836 a47.33414680227982,47.33414680227982 0 0,0 0.027894042019778704,0.8121045983363673 l -26.325416177132013 0.6780493380428965" fill="red" stroke="none" /><path d="M 120.99303781780057 99.45929381324524 l 11.689222517010835 -0.3010729075113444 a32.69309915924048,32.69309915924048 0 0,0 0.009634451447550185,0.5611584961179693 l -11.692668400057052 0.10036749542430873" fill="red" stroke="none" /><line stroke="#e1ed5e" stroke-width="0.3" x1="184.99686870605535" x2="189.99668451229388" y1="99.2704041080226" y2="99.22748670261217" /><path d="M 185.99683186730306 99.26182062694052 a86.0,86.0 0 0,1 -10.086455211305974,41.156179273409016" fill="none" id="id112" stroke="none" /><text fill="#e1ed5e" style="font-size:6.75px; font-family:Arial;" text-anchor="middle"><textPath startOffset="21.40746469413373" xlink:href="#id112">April</textPath></text><path d="M 120.99922638620191 99.81974689727618 l 26.26077012002464 -0.22541712761199453 a47.26173756966968,47.26173756966968 0 0,0 0.0,0.8113404606716397 l -26.26077012002464 -0.22541712761199134" fill="red" stroke="none" /><path d="M 120.99303781780057 100.54070618675476 l 51.0489373738822 1.3148395437038283 a72.06586736782441,72.06586736782441 0 0,0 -0.04246846026288682,1.2364228833990865 l -51.01884422662247 -2.1909686916670257" fill="red" stroke="none" /><path d="M 120.93736805541906 101.62068470465957 l 50.44282506465025 3.904593682725934 a71.5937194949145,71.5937194949145 0 0,0 -0.10536678605628275,1.2245217706030653 l -50.36836465589623 -4.769936500704657" fill="red" stroke="none" /><path d="M 120.86939407059847 102.33845913500097 l 27.13786819255335 3.040854735151833 a48.307703813332495,48.307703813332495 0 0,0 -0.09941705601896766,0.8233158403858508 l -27.08166905027472 -3.5062642524610927" fill="red" stroke="none" /><path d="M 120.77682067341334 103.0534771498775 l 27.48560026186152 4.03943671986619 a48.780843593538435,48.780843593538435 0 0,0 -0.12887087689552687,0.8274434753986608 l -27.412207892827727 -4.510668377196302" fill="red" stroke="none" /><path d="M 120.65975698304385 103.76489593502545 l 25.86259120768387 4.713025646281741 a47.288519066662474,47.288519066662474 0 0,0 -0.15238997227270742,0.7973687288037324 l -25.777874943129003 -5.1562969401187875" fill="red" stroke="none" /><path d="M 120.43855184770803 104.8234425847677 l 49.3433958489141 11.644907065242599 a71.6988616682936,71.6988616682936 0 0,0 -0.29298365074867694,1.1954732759706 l -49.136224671649124 -12.4902361658213" fill="red" stroke="none" /><path d="M 120.16314734710363 105.8691983318838 l 48.81564829786271 14.209523772626593 a71.8416963189218,71.8416963189218 0 0,0 -0.3548421485419172,1.1811541063418307 l -48.564529829317166 -15.045415482559147" fill="red" stroke="none" /><path d="M 120.05942366710727 106.21446072829308 l 41.76967404183758 12.940351790477699 a64.72823314544826,64.72823314544826 0 0,0 -0.3379284875303492,1.0585561741233673 l -41.541380838529975 -13.65547699829245" fill="red" stroke="none" /><path d="M 119.71291397450082 107.23885506374661 l 47.95746563184428 17.61064566012852 a72.08868123563309,72.08868123563309 0 0,0 -0.43654610940258215,1.1579904199881512 l -47.64808883862725 -18.43130436031083" fill="red" stroke="none" /><path d="M 119.31412917781788 108.2440532568976 l 47.89365184240927 20.44295203894578 a73.07414113423812,73.07414113423812 0 0,0 -0.5023538133568725,1.1494838350091443 l -47.53566414703543 -21.26209794373077" fill="red" stroke="none" /><path d="M 119.0197475246899 108.90220220490707 l 46.27293095827526 21.658068145727764 a72.09066505022514,72.09066505022514 0 0,0 -0.5342287042514036,1.1163325234354953 l -45.89432299606395 -22.44921317122836" fill="red" stroke="none" /><line stroke="#e1ed5e" stroke-width="0.3" x1="174.33088141563837" x2="178.70328620479359" y1="141.23008692659167" y2="143.65538615756765" /><path d="M 175.20536237346943 141.71514677278685 a86.0,86.0 0 0,1 -30.301960400862466,31.631185727798858" fill="none" id="id113" stroke="none" /><text fill="#e1ed5e" style="font-size:6.75px; font-family:Arial;" text-anchor="middle"><textPath startOffset="22.145653131862474" xlink:href="#id113">May</textPath></text><path d="M 118.18653347947321 110.5 l 44.70109279551377 25.808187958560307 a72.61637591712064,72.61637591712064 0 0,0 -0.6325449633495778,1.0741996353052359 l -44.25147412203443 -26.571738762159093" fill="red" stroke="none" /><path d="M 117.423217284605 111.72311816256416 l 45.701175198727555 30.749790252350383 a76.08309191674277,76.08309191674277 0 0,0 -0.7384054755931199,1.0773556564053526 l -45.166579986319114 -31.52978064382578" fill="red" stroke="none" /><path d="M 116.79662413953412 112.60449989151573 l 44.09768363893273 33.09172390985226 a76.13318323519225,76.13318323519225 0 0,0 -0.7934093623211546,1.038598324061087 l -43.523122299257274 -33.84384314715423" fill="red" stroke="none" /><path d="M 115.89218393027572 113.72728997021213 l 39.930256860489884 34.490804845567055 a73.76401265862644,73.76401265862644 0 0,0 -0.8359532805129493,0.9511613793965901 l -39.332292516018356 -35.171178502774936" fill="red" stroke="none" /><path d="M 115.16444852881244 114.52719865689866 l 25.555178131323977 24.481282568291892 a56.389268507730584,56.389268507730584 0 0,0 -0.6756325823807687,0.6932585495045429 l -25.1311587477924 -24.916363809864173" fill="red" stroke="none" /><path d="M 114.13192950727249 115.5334660781643 l 35.13368912289578 38.61807886250932 a73.20854457285009,73.20854457285009 0 0,0 -0.9368426791468767,0.8377305005517709 l -34.465581416925524 -39.21550489294447" fill="red" stroke="none" /><path d="M 113.31354834802062 116.24036423190432 l 32.39761457355895 39.519822001297925 a72.10207198412948,72.10207198412948 0 0,0 -0.9639333888254514,0.7764765047734151 l -31.714430414378246 -40.070146799864744" fill="red" stroke="none" /><path d="M 112.7482090630111 116.68781488649013 l 31.65595838054381 41.43866569004751 a73.14655036684826,73.14655036684826 0 0,0 -1.0043613890366088,0.7536915105076359 l -30.939944002596437 -41.97597622781916" fill="red" stroke="none" /><path d="M 112.16784306229584 117.11559508785304 l 15.81202719069259 22.241596438124475 a48.289353528355946,48.289353528355946 0 0,0 -0.6797414260489432,0.47451230676168915 l -15.427890673469888 -22.509753560691284" fill="red" stroke="none" /><path d="M 111.5731344415666 117.5232005979908 l 28.555471091029826 43.2366227684216 a72.8152533299745,72.8152533299745 0 0,0 -1.0489362058649003,0.6799077757539232 l -27.809049252907915 -43.72044438587941" fill="red" stroke="none" /><path d="M 110.96478420261333 117.91015095944535 l 15.641312830389758 25.548909018147608 a50.95659224737853,50.95659224737853 0 0,0 -0.7499530238630466,0.45032524292919823 l -15.200427049969276 -25.81364826161273" fill="red" stroke="none" /><line stroke="#e1ed5e" stroke-width="0.3" x1="143.1302829299769" x2="145.66735839644613" y1="173.24464959558577" y2="177.55315839532614" /><path d="M 143.63769802327073 174.10635135553383 a86.0,86.0 0 0,1 -40.68552437913181,11.842963189579606" fill="none" id="id114" stroke="none" /><text fill="#e1ed5e" style="font-size:6.75px; font-family:Arial;" text-anchor="middle"><textPath startOffset="21.407464694133747" xlink:href="#id114">June</textPath></text><path d="M 109.71004243097381 118.62028667847754 l 13.847519732524013 26.554444951031265 a50.94816103536228,50.94816103536228 0 0,0 -0.7789556005813132,0.39774027993521355 l -13.389636910229118 -26.788243182639313" fill="red" stroke="none" /><path d="M 109.3889696526874 118.78422872680471 l 13.397397733146368 26.803770027242983 a50.9655194130428,50.9655194130428 0 0,0 -0.7859362429975687,0.38444080021748883 l -12.93530124088673 -27.029804577557698" fill="red" stroke="none" /><path d="M 108.73861861582097 119.09545874513695 l 22.1039693979805 48.301162265936995 a74.1186195169569,74.1186195169569 0 0,0 -1.1614973467558982,0.5195229895540961 l -21.271558648368973 -48.67348900640094" fill="red" stroke="none" /><path d="M 107.74402155503746 119.51999308798841 l 19.28988535144535 48.62311217139688 a73.30971911704506,73.30971911704506 0 0,0 -1.1737505236170913,0.4540319175681765 l -18.45236256533473 -48.9470839771031" fill="red" stroke="none" /><path d="M 107.06938296918513 119.77432235084164 l 8.715629604662853 24.37916718395125 a46.89026828730674,46.89026828730674 0 0,0 -0.760279319004205,0.2644646130108536 l -8.295844513613627 -24.525190229530693" fill="red" stroke="none" /><path d="M 106.72888874123015 119.89276391827305 l 8.823283701795983 26.084470469589927 a48.53633844506723,48.53633844506723 0 0,0 -0.7915520150128407,0.26019886955549615 l -8.374208949135408 -26.23209026054744" fill="red" stroke="none" /><path d="M 106.38641147887787 120.00534299687104 l 12.362372794692817 38.72495670392836 a61.65034480586957,61.65034480586957 0 0,0 -1.0109463676473995,0.31319376889462314 l -11.695785794173794 -38.93146706062963" fill="red" stroke="none" /><path d="M 105.3480935250658 120.30758222061773 l 13.461089260495637 51.11394848563833 a73.85675599080518,73.85675599080518 0 0,0 -1.2288171239395598,0.3123605076534474 l -12.58166684333068 -51.337494225127045" fill="red" stroke="none" /><path d="M 104.64783097203109 120.47920084513623 l 11.647714392145057 51.32197875932726 a73.62712945177441,73.62712945177441 0 0,0 -1.2349639118744318,0.2691546366577453 l -10.764988063651488 -51.51436485411872" fill="red" stroke="none" /><path d="M 103.94208987418118 120.62667999033965 l 9.688048644326464 50.69196428680452 a72.60943256604844,72.60943256604844 0 0,0 -1.2262877975116246,0.22347048650243928 l -8.816426113263782 -50.85080294723833" fill="red" stroke="none" /><path d="M 103.2317021107853 120.74984581791261 l 4.057995942508987 26.05524496077863 a47.36935951128885,47.36935951128885 0 0,0 -0.8045457762438347,0.11824052305243511 l -3.610125060657467 -26.121066557129947" fill="red" stroke="none" /><path d="M 102.51750503828377 120.84855314841334 l 3.3950882530099955 28.11620108402511 a49.320441162578334,49.320441162578334 0 0,0 -0.8414163517029501,0.09428245723487606 l -2.911935999706246 -28.170339301766955" fill="red" stroke="none" /><path d="M 101.44090949804482 120.95050786540614 l 1.7905422834010791 26.03409183063752 a47.09559309758478,47.09559309758478 0 0,0 -0.807029293611294,0.048548878273133804 l -1.34336863765732 -26.060992686735347" fill="red" stroke="none" /><path d="M 101.08105385017728 120.97215588758144 l 1.3543470004334692 26.273969991699452 a47.30885316623107,47.30885316623107 0 0,0 -0.8114014383806815,0.03484506900957577 l -0.9031198014519582 -26.29334762913486" fill="red" stroke="none" /><line stroke="#e1ed5e" stroke-width="0.3" x1="101.45913802915013" x2="101.54496967792366" y1="184.9874750549273" y2="189.98673829345242" /><path d="M 101.47630435890484 185.9873277026323 a86.0,86.0 0 0,1 -42.54439059252881,-10.42667462771756" fill="none" id="id115" stroke="none" /><text fill="#e1ed5e" style="font-size:6.75px; font-family:Arial;" text-anchor="middle"><textPath startOffset="22.145653131862474" xlink:href="#id115">July</textPath></text><path d="M 100.36049292484886 120.99690560180557 l 0.9270061316223833 53.99345977769461 a75.0014170104229,75.0014170104229 0 0,0 -1.287499056471229,0.011051630922719638 l -6.6132662491235836e-15 -54.0014170104229" fill="red" stroke="none" /><path d="M 99.27912038922189 120.98762331915562 l -0.9457841975994925 27.535474972031015 a48.55171300815569,48.55171300815569 0 0,0 -0.8327179192494685,-0.03576049041725981 l 1.4183278774497998 -27.515181913187927" fill="red" stroke="none" /><path d="M 98.19965949673042 120.92268563240118 l -3.1269273301623675 36.33963542204114 a57.47391913593854,57.47391913593854 0 0,0 -0.9822578415172699,-0.09302083884131335 l 3.7502847350646524 -36.28060282769464" fill="red" stroke="none" /><path d="M 97.48249496171623 120.84855314841334 l -6.200021067612609 51.34506854354653 a72.71804641496362,72.71804641496362 0 0,0 -1.2380149686725777,-0.16028582361781465 l 7.080513858175981 -51.23107112372832" fill="red" stroke="none" /><path d="M 96.76829788921471 120.74984581791261 l -4.050974263961116 26.010160747489092 a47.323731775671504,47.323731775671504 0 0,0 -0.8016245729566165,-0.131907018426083 l 4.496876339970796 -25.93678773056734" fill="red" stroke="none" /><path d="M 95.70440661134978 120.55596938700252 l -10.443092470029901 49.97397791112287 a72.05346852662404,72.05346852662404 0 0,0 -1.2085685537155793,-0.26340189119985313 l 11.299423440364617 -49.7873445617893" fill="red" stroke="none" /><path d="M 94.6519064749342 120.30758222061772 l -6.6394786739648195 25.211181973845417 a47.07079541518405,47.07079541518405 0 0,0 -0.779623719914233,-0.21248991169531056 l 7.0712837948137475 -25.093491568005962" fill="red" stroke="none" /><path d="M 94.30408787586889 120.21278271476187 l -7.135046012911448 25.31976118588857 a47.30587744434298,47.30587744434298 0 0,0 -0.7797359920410527,-0.22696978328904466 l 7.568642017334107 -25.19354770829701" fill="red" stroke="none" /><path d="M 93.95794788825049 120.11202640906438 l -7.567500463891701 25.189747848157374 a47.301909815158865,47.301909815158865 0 0,0 -0.7756597965671984,-0.2403013877306337 l 7.998800893330532 -25.056129872620094" fill="red" stroke="none" /><path d="M 93.27111125876986 119.89276391827306 l -16.215537006007683 47.93835384615985 a71.60661428976289,71.60661428976289 0 0,0 -1.1610304213839393,-0.4038666492826612 l 17.036073199436643 -47.6529287643086" fill="red" stroke="none" /><path d="M 92.93061703081489 119.77432235084164 l -2.1286952370448278 5.954339436342326 a27.32340901218629,27.32340901218629 0 0,0 -0.440311334453117,-0.16168842095866146 l 2.2305957231520637 -5.916920166374944" fill="red" stroke="none" /><path d="M 92.25597844496254 119.51999308798841 l -5.4866796293208715 13.83001683029692 a35.87860944043833,35.87860944043833 0 0,0 -0.5705476933964244,-0.23203677991552707 l 5.723281783907737 -13.7337927938021" fill="red" stroke="none" /><path d="M 91.59046798132341 119.24265499422711 l -15.752281918852102 36.04430373332167 a60.33606763863085,60.33606763863085 0 0,0 -0.9455138659175839,-0.4229163257740832 l 16.36870918762532 -35.76858365663773" fill="red" stroke="none" /><path d="M 90.93487009805054 118.94263497670748 l -22.480491671620513 46.975581424469475 a73.07761280977422,73.07761280977422 0 0,0 -1.1269255198495376,-0.5512357427163623 l 23.28357744073212 -46.582751931655885" fill="red" stroke="none" /><path d="M 90.6110303473126 118.78422872680471 l -4.989100446802273 9.98154295949962 a32.15895708032875,32.15895708032875 0 0,0 -0.49168408078927683,-0.2510573950387829 l 5.159711749305132 -9.894427612788" fill="red" stroke="none" /><path d="M 90.28995756902619 118.62028667847754 l -5.159711749305132 9.894427612788 a32.15895708032875,32.15895708032875 0 0,0 -0.4873018959809782,-0.2594608122214259 l 5.328802461072673 -9.804396332844002" fill="red" stroke="none" /><path d="M 89.97174638481275 118.45085714620012 l -17.886776758668997 32.90965460629823 a58.456403312655475,58.456403312655475 0 0,0 -0.8775581373240712,-0.48676670578800524 l 18.449079084149172 -32.59775498507708" fill="red" stroke="none" /><line stroke="#e1ed5e" stroke-width="0.3" x1="58.13341422392154" x2="55.67067388415222" y1="173.97424548756322" y2="178.32567169271397" /><path d="M 57.64086615596768 174.84453072859336 a86.0,86.0 0 0,1 -31.369924170532247,-30.572349798747897" fill="none" id="id116" stroke="none" /><text fill="#e1ed5e" style="font-size:6.75px; font-family:Arial;" text-anchor="middle"><textPath startOffset="22.145653131862474" xlink:href="#id116">August</textPath></text><path d="M 89.34428304082925 118.09573695890944 l -5.158914514823512 8.760964692610528 a31.167049784299525,31.167049784299525 0 0,0 -0.45870067443194695,-0.2754365754555241 l 5.308547945812886 -8.671114116619087" fill="red" stroke="none" /><path d="M 88.72937992617639 117.7192867562869 l -26.860130261114424 42.228586119524856 a71.04717857480242,71.04717857480242 0 0,0 -1.0234663003085562,-0.6633984906909699 l 27.58108219367999 -41.761273787129994" fill="red" stroke="none" /><path d="M 88.4268655584334 117.5232005979908 l -6.149719548491242 9.311459208712872 a32.15895708032875,32.15895708032875 0 0,0 -0.45804111588835283,-0.3081905044952006 l 6.308656952476601 -9.20451903016055" fill="red" stroke="none" /><path d="M 87.2517909369889 116.68781488649013 l -4.365550069598696 5.714645177144571 a28.19132789621186,28.19132789621186 0 0,0 -0.38204626508520784,-0.29708148651643246 l 4.463006279319133 -5.638862639007345" fill="red" stroke="none" /><path d="M 86.40962598614128 116.0094264158162 l -6.258753029337907 7.372795331149415 a30.671096136284916,30.671096136284916 0 0,0 -0.3984621144830717,-0.3441820842025774 l 6.384394623583841 -7.264269114482116" fill="red" stroke="none" /><path d="M 86.13680546590413 115.77377054828092 l -5.8932873448466205 6.705479182598874 a29.927165664262997,29.927165664262997 0 0,0 -0.3829750505732501,-0.34245865176395024 l 6.007527422243242 -6.603325000951542" fill="red" stroke="none" /><path d="M 85.86807049272751 115.53346607816431 l -3.6712667580375355 4.035365278359274 a26.45549012816072,26.45549012816072 0 0,0 -0.3333016701527887,-0.30849904998841143 l 3.7399981995042912 -3.9717484822384854" fill="red" stroke="none" /><path d="M 85.60350026404147 115.28858382429668 l -18.14851126301274 19.273090044084178 a47.4730138237239,47.4730138237239 0 0,0 -0.588501508438648,-0.5637711326415303 l 18.476685257316703 -18.958706781137064" fill="red" stroke="none" /><path d="M 85.34317274990678 115.03919595460226 l -3.657053088230188 3.7524586373171176 a26.239750291274365,26.239750291274365 0 0,0 -0.31988514706373367,-0.31715110240637095 l 3.7209301554238845 -3.689127524682087" fill="red" stroke="none" /><line stroke="#e1ed5e" stroke-width="0.3" x1="26.387840678322732" x2="22.057713659400548" y1="142.50000000000003" y2="145.00000000000006" /><path d="M 25.521815274538298 143.00000000000003 a86.0,86.0 0 0,1 -11.493303480769221,-40.785679425670985" fill="none" id="id117" stroke="none" /><text fill="#e1ed5e" style="font-size:6.75px; font-family:Arial;" text-anchor="middle"><textPath startOffset="21.40746469413373" xlink:href="#id117">September</textPath></text><line stroke="#e1ed5e" stroke-width="0.3" x1="15.003131293944662" x2="10.003315487706104" y1="100.72959589197737" y2="100.7725132973878" /><path d="M 14.003168132696942 100.73817937305945 a86.0,86.0 0 0,1 10.791469493833604,-42.45332614584628" fill="none" id="id118" stroke="none" /><text fill="#e1ed5e" style="font-size:6.75px; font-family:Arial;" text-anchor="middle"><textPath startOffset="22.145653131862435" xlink:href="#id118">October</textPath></text><line stroke="#e1ed5e" stroke-width="0.3" x1="26.387840678322718" x2="22.05771365940052" y1="57.49999999999999" y2="54.99999999999999" /><path d="M 25.521815274538284 56.99999999999999 a86.0,86.0 0 0,1 29.574782752854787,-30.34633250058573" fill="none" id="id119" stroke="none" /><text fill="#e1ed5e" style="font-size:6.75px; font-family:Arial;" text-anchor="middle"><textPath startOffset="21.40746469413373" xlink:href="#id119">November</textPath></text><line stroke="#e1ed5e" stroke-width="0.3" x1="56.869717070023135" x2="54.33264160355391" y1="26.7553504044142" y2="22.446841604673864" /><path d="M 56.362301976729285 25.89364864446614 a86.0,86.0 0 0,1 42.16139366436587,-11.88097634709845" fill="none" id="id120" stroke="none" /><text fill="#e1ed5e" style="font-size:6.75px; font-family:Arial;" text-anchor="middle"><textPath startOffset="22.145653131862474" xlink:href="#id120">December</textPath></text><path d="M 99.27912038922189 79.0123766808444 l -0.9610725566340165 -27.98057886425796 a48.997079384072805,48.997079384072805 0 0,0 0.840852145687556,-0.021657368565011516 l 0.4806070968757167 27.992953950173018" fill="red" stroke="none" /></svg>