<?xml version="1.0" encoding="utf-8" ?>
<svg baseProfile="full" height="200mm" version="1.1" viewBox="0,0,200,200" width="200mm" xmlns="http://www.w3.org/2000/svg" xmlns:ev="http://www.w3.org/2001/xml-events" xmlns:xlink="http://www.w3.org/1999/xlink"><defs /><rect fill="#1a1a1a" height="200" width="200" x="0" y="0" /><text alignment-baseline="middle" fill="#e1ed5e" style="dominant-baseline: central; font-size:9.0px; font-family:Arial;" text-anchor="middle" x="100.0" y="100.0">2015</text><line stroke="#e1ed5e" stroke-width="0.3" x1="100.0" x2="100.0" y1="15.0" y2="10.0" /><path d="M 100.0 14.0 a86.0,86.0 0 0,1 42.46469731375804,11.215312516191453" fill="none" id="id1" stroke="none" /><text fill="#e1ed5e" style="font-size:6.75px; font-family:Arial;" text-anchor="middle"><textPath startOffset="22.20632615414155" xlink:href="#id1">January</textPath></text><line stroke="#e1ed5e" stroke-width="0.3" x1="143.23703022742887" x2="145.7803849466894" y1="26.81831364943548" y2="22.513508569990506" /><path d="M 143.74570117128098 25.957352633546492 a86.0,86.0 0 0,1 28.547481713284135,27.462654790039103" fill="none" id="id2" stroke="none" /><text fill="#e1ed5e" style="font-size:6.75px; font-family:Arial;" text-anchor="middle"><textPath startOffset="19.985693538727396" xlink:href="#id2">February</textPath></text><line stroke="#e1ed5e" stroke-width="0.3" x1="172.23445277983987" x2="176.4835382374775" y1="55.19839476539836" y2="52.563006222186495" /><path d="M 173.08426987136738 54.67131705675599 a86.0,86.0 0 0,1 12.851231095245387,41.99856678651699" fill="none" id="id3" stroke="none" /><text fill="#e1ed5e" style="font-size:6.75px; font-family:Arial;" text-anchor="middle"><textPath startOffset="22.20632615414155" xlink:href="#id3">March</textPath></text><line stroke="#e1ed5e" stroke-width="0.3" x1="184.98032266829074" x2="189.97916517819016" y1="98.17113171792111" y2="98.06355123074" /><path d="M 185.9800911702706 98.14961562048488 a86.0,86.0 0 0,1 -9.607161424134198,41.387399972396054" fill="none" id="id4" stroke="none" /><text fill="#e1ed5e" style="font-size:6.75px; font-family:Arial;" text-anchor="middle"><textPath startOffset="21.466115282336823" xlink:href="#id4">April</textPath></text><line stroke="#e1ed5e" stroke-width="0.3" x1="174.80103733775053" x2="179.2010983576182" y1="140.37084112569926" y2="142.7455964860345" /><path d="M 175.68104954172406 140.8457921977663 a86.0,86.0 0 0,1 -30.038265399797805,32.042727171017184" fill="none" id="id5" stroke="none" /><text fill="#e1ed5e" style="font-size:6.75px; font-family:Arial;" text-anchor="middle"><textPath startOffset="22.206326154141568" xlink:href="#id5">May</textPath></text><path d="M 117.35343817320211 111.8261652097733 l 5.274348478812932 3.5944068179342543 a27.382672813858512,27.382672813858512 0 0,0 -0.26879234920594425,0.3872154265118684 l -5.211695222444852 -3.684663506633142" fill="red" stroke="none" /><path d="M 117.14729908036423 112.12312394758627 l 8.577337653923296 6.064169466658779 a31.504516768979286,31.504516768979286 0 0,0 -0.31687574157381465,0.4401126903104681 l -8.47168211997388 -6.210915762420378" fill="red" stroke="none" /><path d="M 116.498646956653 112.99209946851258 l 9.995275882396871 7.8709253443937515 a33.722303476267356,33.722303476267356 0 0,0 -0.3630480371540182,0.4529582475372588 l -9.858309933188 -8.04181142550926" fill="red" stroke="none" /><path d="M 115.32070863581623 114.36230785411682 l 7.286363629259709 6.830558564100812 a30.987373290080313,30.987373290080313 0 0,0 -0.3681498393261667,0.3860036346898244 l -7.167707238554577 -6.954969315373144" fill="red" stroke="none" /><path d="M 114.55890576462653 115.13401014063108 l 8.6172200170139 8.957616542748662 a33.42961684640961,33.42961684640961 0 0,0 -0.41813154359986576,0.39536947292872315 l -8.461752639023226 -9.104620652423307" fill="red" stroke="none" /><path d="M 114.29624159901734 115.38237550388516 l 11.1579663438314 12.005674846200465 a37.390132441282006,37.390132441282006 0 0,0 -0.4752115806700854,0.43409451178429614 l -10.949655213694452 -12.195962124571343" fill="red" stroke="none" /><path d="M 113.75828350139079 115.86535959552629 l 2.090719892995649 2.410912881141251 a24.191176991553515,24.191176991553515 0 0,0 -0.31694418821958936,0.2701067131580538 l -2.0489102281990124 -2.4465439845222514" fill="red" stroke="none" /><path d="M 113.48314897796784 116.09983520530334 l 21.673740456691664 25.87998176134104 a54.75684347434425,54.75684347434425 0 0,0 -0.7278224133472466,0.5989482962871587 l -21.225047914799728 -26.24922517648538" fill="red" stroke="none" /><path d="M 112.04921762599082 117.19931262002967 l 8.684166408246236 12.395966073150335 a36.13521460346058,36.13521460346058 0 0,0 -0.5125059472531135,0.3525062637994218 l -8.469503576370238 -12.54361312631485" fill="red" stroke="none" /><path d="M 111.7513745106137 117.40417183066458 l 9.346052860579691 13.841811421897095 a37.70163008547701,37.70163008547701 0 0,0 -0.5409740496905139,0.358528101721564 l -9.106404112149212 -14.000637544709978" fill="red" stroke="none" /><path d="M 111.1453310114006 117.79835938074945 l 9.007718827662691 14.384733547302375 a37.9723173934827,37.9723173934827 0 0,0 -0.5569649325697548,0.34213335200477646 l -8.758774695160628 -14.53765536613553" fill="red" stroke="none" /><line stroke="#e1ed5e" stroke-width="0.3" x1="143.8653032363475" x2="146.44561519142675" y1="172.8068346515853" y2="177.08958963109032" /><path d="M 144.38136562736335 173.6633856474863 a86.0,86.0 0 0,1 -40.68145358897372,12.25698825130547" fill="none" id="id6" stroke="none" /><text fill="#e1ed5e" style="font-size:6.75px; font-family:Arial;" text-anchor="middle"><textPath startOffset="21.466115282336833" xlink:href="#id6">June</textPath></text><path d="M 110.8373102113329 117.98757091392108 l 8.58502408786647 14.249267259760922 a37.63563211992084,37.63563211992084 0 0,0 -0.5577818052321699,0.32954732223039346 l -8.338474411605919 -14.394933154285065" fill="red" stroke="none" /><path d="M 110.5260780823613 118.17145234162733 l 8.199278765775215 14.154635958635984 a37.35793053538262,37.35793053538262 0 0,0 -0.5592148347176056,0.31753677776333233 l -7.95441516413641 -14.293675902193945" fill="red" stroke="none" /><path d="M 109.89434966115114 118.52300852407294 l 9.045205283686903 16.933342797613374 a40.19775603880626,40.19775603880626 0 0,0 -0.6131289027261974,0.3207600636448231 l -8.75238547843421 -17.086532280202917" fill="red" stroke="none" /><path d="M 109.57404056367764 118.69057910512821 l 14.781796895328414 28.85723559979862 a53.42285561015602,53.42285561015602 0 0,0 -0.8220660490880969,0.41220098282400874 l -14.282876938557557 -29.107404423531932" fill="red" stroke="none" /><path d="M 108.92500713936063 119.00905698771935 l 6.817300376853483 14.51992691350296 a37.040693937661,37.040693937661 0 0,0 -0.5794787341669221,0.26601026521893073 l -6.566353646919142 -14.635124249055965" fill="red" stroke="none" /><path d="M 108.59647513512805 119.15986991738527 l 10.802226668937402 24.076060773933452 a47.3883459769126,47.3883459769126 0 0,0 -0.7471096007200558,0.327510893428388 l -10.386196393559592 -24.258436220656296" fill="red" stroke="none" /><path d="M 107.93186726928326 119.44442032107085 l 8.77608606076439 21.513963906107264 a44.23510984478509,44.23510984478509 0 0,0 -0.707506718849346,0.2815315247047474 l -8.404458265873178 -21.66184227521808" fill="red" stroke="none" /><path d="M 107.59598834532513 119.57807347666477 l 5.883328371940282 15.163824629099429 a37.26515078670222,37.26515078670222 0 0,0 -0.6000217718496521,0.22687689229143523 l -5.621436379330356 -15.262849771497494" fill="red" stroke="none" /><path d="M 106.91757812671514 119.82793768551818 l 10.724264337469842 30.73908832126926 a53.556126864274255,53.556126864274255 0 0,0 -0.8730420577283219,0.29618326701533354 l -10.193552546804293 -30.919134575182717" fill="red" stroke="none" /><path d="M 105.53697534728816 120.25689768951611 l 6.317627868328965 23.11289708592511 a44.96076863515134,44.96076863515134 0 0,0 -0.7482961112631648,0.19763180414212203 l -5.918841314254303 -23.218220239370815" fill="red" stroke="none" /><path d="M 104.83641907484287 120.43548508189849 l 8.26070961481939 34.90425570803576 a56.8684595413898,56.8684595413898 0 0,0 -0.9545231487336735,0.2172463609912185 l -7.658666316692855 -35.041278802604666" fill="red" stroke="none" /><path d="M 103.7750983002368 120.6578951692458 l 5.795933751724173 31.716205070342347 a53.24144091256446,53.24144091256446 0 0,0 -0.9029520924438053,0.1569897953759928 l -5.249132687808318 -31.811273444239347" fill="red" stroke="none" /><path d="M 103.06178313531738 120.77559828337769 l 3.362046973311781 22.813025691361076 a44.05943410072015,44.05943410072015 0 0,0 -0.7512582685693271,0.10411755054277527 l -2.9688601135556234 -22.867517807396457" fill="red" stroke="none" /><path d="M 102.70371172650421 120.8252237178851 l 2.0979260654490264 16.15918562185162 a37.29480204658978,37.29480204658978 0 0,0 -0.6373372246308728,0.07717266210605996 l -1.8194614177667732 -16.192903812683028" fill="red" stroke="none" /><path d="M 102.34483914955558 120.86867818915974 l 2.2972177812799233 20.444855936933756 a41.57351073143823,41.57351073143823 0 0,0 -0.7118323477948741,0.07378433335580992 l -1.9449528368794466 -20.481369638745324" fill="red" stroke="none" /><line stroke="#e1ed5e" stroke-width="0.3" x1="102.19456741930631" x2="102.32365962044197" y1="184.97166512339345" y2="189.96999836594603" /><path d="M 102.22038585953345 185.97133177190398 a86.0,86.0 0 0,1 -42.740103519485714,-10.115201625700543" fill="none" id="id7" stroke="none" /><text fill="#e1ed5e" style="font-size:6.75px; font-family:Arial;" text-anchor="middle"><textPath startOffset="22.20632615414155" xlink:href="#id7">July</textPath></text><path d="M 100.54218724476979 120.99299961872073 l 0.9220752980493916 35.70192136962104 a56.71382662692247,56.71382662692247 0 0,0 -0.9761268134956345,0.016804908322467855 l -0.30738879466108926 -35.71250375522267" fill="red" stroke="none" /><path d="M 99.45781275523022 120.99299961872073 l -1.0162625547585655 39.34876674132309 a60.36188808534543,60.36188808534543 0 0,0 -1.038453414272769,-0.035766435277501 l 1.6934363207059777 -39.32544350761949" fill="red" stroke="none" /><path d="M 97.2962882734958 120.8252237178851 l -3.323727665324543 25.60086991862967 a46.81572594725628,46.81572594725628 0 0,0 -0.7982558545021565,-0.11063098771008209 l 3.7639121110135303 -25.539864365426983" fill="red" stroke="none" /><path d="M 96.58105272829116 120.7198165907248 l -4.364985728911905 26.45308527352094 a47.81079672262231,47.81079672262231 0 0,0 -0.810850687023937,-0.14097678548133297 l 4.819685387407891 -26.3740299095186" fill="red" stroke="none" /><path d="M 95.51606077576429 120.51570834832081 l -10.444923161222645 47.789451770009144 a69.91756453792314,69.91756453792314 0 0,0 -1.173549176340097,-0.267095971786909 l 11.265992486955605 -47.60257906464455" fill="red" stroke="none" /><path d="M 93.42475214034765 119.94407469862007 l -10.076553951306678 30.564253850068734 a53.18245722354084,53.18245722354084 0 0,0 -0.866950704018538,-0.2941167491123987 l 10.601174388262441 -30.386274114058214" fill="red" stroke="none" /><path d="M 92.7421414339146 119.70592522655815 l -7.87056189022934 21.3694855979414 a43.77280525514051,43.77280525514051 0 0,0 -0.7048042370297042,-0.26649665474339407 l 8.237236348019328 -21.23084069309137" fill="red" stroke="none" /><path d="M 91.7346041902142 119.30500536409082 l -9.10244715950074 21.260057628754872 a44.12670738928223,44.12670738928223 0 0,0 -0.6956876434294635,-0.304969018504213 l 9.467055477587946 -21.100224056956208" fill="red" stroke="none" /><line stroke="#e1ed5e" stroke-width="0.3" x1="58.666819895761336" x2="56.23545636021788" y1="174.27360380694188" y2="178.64263932499728" /><path d="M 58.180547188652646 175.14741091055294 a86.0,86.0 0 0,1 -31.652253787137756,-30.449443065178592" fill="none" id="id8" stroke="none" /><text fill="#e1ed5e" style="font-size:6.75px; font-family:Arial;" text-anchor="middle"><textPath startOffset="22.20632615414155" xlink:href="#id8">August</textPath></text><path d="M 85.44109423537348 115.13401014063109 l -23.26992015624311 24.189126113578716 a54.56490736195387,54.56490736195387 0 0,0 -0.6712784007414837,-0.6569872005004551 l 23.68284850936039 -23.784988810155692" fill="red" stroke="none" /><path d="M 84.43433777217949 114.09645910891817 l -20.38723081427784 18.462932145854733 a48.50489126859213,48.50489126859213 0 0,0 -0.5551295888178907,-0.6236939779252714 l 20.702019252744066 -18.1092639981886" fill="red" stroke="none" /><path d="M 84.19399662182784 113.82643327865904 l -26.823738907048106 23.46428932152739 a56.63826373882194,56.63826373882194 0 0,0 -0.6355824330932923,-0.7393259597400086 l 27.223663849712178 -22.999086262625852" fill="red" stroke="none" /><path d="M 83.72743513129214 113.27417163493432 l -15.13346803391802 12.344965513108532 a40.5299776818474,40.5299776818474 0 0,0 -0.4363381894610451,-0.5443989814163563 l 15.343724135433925 -12.082638698113916" fill="red" stroke="none" /><path d="M 83.28015986056508 112.70617746262583 l -17.855384984099654 13.569130349301439 a43.42623622828282,43.42623622828282 0 0,0 -0.4471635387716135,-0.5990486346057057 l 18.08630978956635 -13.259768835186424" fill="red" stroke="none" /><path d="M 82.05923443525364 110.91462005526583 l -9.356396561927118 5.6921491555800126 a31.95183631330435,31.95183631330435 0 0,0 -0.28181386389446034,-0.472336245790282 l 9.45299130151981 -5.530250815903619" fill="red" stroke="none" /><line stroke="#e1ed5e" stroke-width="0.3" x1="26.63291911575756" x2="22.317208475507996" y1="142.92168965132927" y2="145.44649492493687" /><path d="M 25.769776987707644 143.4266507060508 a86.0,86.0 0 0,1 -11.730757126820373,-40.83630448921669" fill="none" id="id9" stroke="none" /><text fill="#e1ed5e" style="font-size:6.75px; font-family:Arial;" text-anchor="middle"><textPath startOffset="21.46611528233685" xlink:href="#id9">September</textPath></text><path d="M 81.51974371655577 109.97397251340807 l -27.797963399478302 15.002828890609237 a52.58815670278395,52.58815670278395 0 0,0 -0.4230779605719997,-0.8003040603098877 l 28.052093868275186 -14.522109815213224" fill="red" stroke="none" /><path d="M 81.18737489456691 109.33194174019688 l -14.241639999703 7.064519386170289 a36.89753893024692,36.89753893024692 0 0,0 -0.27734077900338583,-0.5714041503722452 l 14.361134035321104 -6.8183262798327595" fill="red" stroke="none" /><path d="M 80.87730276802145 108.67885076344099 l -19.216279868472633 8.721323314584216 a42.1027697788934,42.1027697788934 0 0,0 -0.29383506040967944,-0.6625204910333513 l 19.363556013613593 -8.38925448705817" fill="red" stroke="none" /><path d="M 80.20201598880116 107.00284435728193 l -14.936783748769015 5.283364797741021 a36.843656533246964,36.843656533246964 0 0,0 -0.20634056332801273,-0.5997222629079132 l 15.025515143040257 -5.025469831743812" fill="red" stroke="none" /><path d="M 79.97269907076064 106.31721596034903 l -30.307766526154683 9.559985496699086 a52.779773984422846,52.779773984422846 0 0,0 -0.2658422400347324,-0.8687878219625768 l 30.467835538695546 -9.036870702184462" fill="red" stroke="none" /><path d="M 79.50377843672027 104.57218783832718 l -15.339414248297961 3.421834754108106 a36.71644306340683,36.71644306340683 0 0,0 -0.1322945218577151,-0.6180359630051222 l 15.396042808880118 -3.1572849716868197" fill="red" stroke="none" /><path d="M 79.35854240842038 103.8639653848113 l -31.32963289252074 5.8647320073427744 a52.87382905610915,52.87382905610915 0 0,0 -0.1597634552742715,-0.8960383018098396 l 31.425942790134197 -5.324574954799721" fill="red" stroke="none" /><path d="M 79.23777060512086 103.15116336523772 l -32.56357149261267 4.942298419751075 a53.93649195078872,53.93649195078872 0 0,0 -0.13141484740465112,-0.9191151366705914 l 32.64382039103391 -4.381037811100082" fill="red" stroke="none" /><path d="M 79.1416061653843 102.43462659150553 l -62.5751815038471 7.303879774516597 a84.0,84.0 0 0,0 -0.15527079399579247,-1.4376147124608716 l 62.69163459934394 -6.225668740170943" fill="red" stroke="none" /><path d="M 79.04373962182676 101.35467743843564 l -24.761003572993825 1.6006277975194259 a45.81268440310328,45.81268440310328 0 0,0 -0.04409721559164677,-0.7873854072227778 l 24.784887139473003 -1.1741706739612103" fill="red" stroke="none" /><path d="M 79.0095281055655 100.63252640178507 l -33.138891942914114 0.9986066147161577 a54.15393452329742,54.15393452329742 0 0,0 -0.020057424194400857,-0.9319896881787726 l 33.15117142979352 -0.42802711074725636" fill="red" stroke="none" /><line stroke="#e1ed5e" stroke-width="0.3" x1="15.007084014347285" x2="10.007500721073583" y1="101.09737516637583" y2="101.16192664675087" /><path d="M 14.007167355692545 101.11028546245083 a86.0,86.0 0 0,1 10.666146001902534,-42.60595125391555" fill="none" id="id10" stroke="none" /><text fill="#e1ed5e" style="font-size:6.75px; font-family:Arial;" text-anchor="middle"><textPath startOffset="22.20632615414155" xlink:href="#id10">October</textPath></text><path d="M 79.00019446554 99.90962569577889 l -18.16617033268412 -0.07817953368590093 a39.166338557771624,39.166338557771624 0 0,0 0.00870423920353634,-0.6741529187220261 l 18.162133086362868 0.390868710468399" fill="red" stroke="none" /><path d="M 79.08570108090925 98.10471618934814 l -52.343484763682184 -4.743441778732202 a73.5579740583106,73.5579740583106 0 0,0 0.12512867915975778,-1.2600287228849079 l 52.254078958840196 5.64374603232154" fill="red" stroke="none" /><path d="M 79.26566170972629 96.67025291283419 l -31.72653760300429 -5.09499481924704 a53.133038457061595,53.133038457061595 0 0,0 0.15279072781887387,-0.9017795245742097 l 31.634135013665194 5.6403601321370775" fill="red" stroke="none" /><path d="M 79.54389044137918 95.25157060432595 l -30.79270966438971 -7.147840469070236 a52.61143134764191,52.61143134764191 0 0,0 0.21236779569571396,-0.8804016170999587 l 30.665109068433182 7.676827317829591" fill="red" stroke="none" /><path d="M 79.81627453868168 94.20196356495316 l -25.000415867187154 -7.181693110475288 a47.0114880286644,47.0114880286644 0 0,0 0.23011922558810882,-0.7758476302881882 l 24.87309074448734 7.610970127510016" fill="red" stroke="none" /><path d="M 80.02781315780177 93.51064311812611 l -29.405650762041155 -9.554475113133336 a51.91893095542949,51.91893095542949 0 0,0 0.2834840537060021,-0.8475812380495279 l 29.23682941456338 10.059229454105186" fill="red" stroke="none" /><path d="M 80.2630227832202 92.82701384747504 l -30.620846837518968 -11.128497942297727 a53.580358001386664,53.580358001386664 0 0,0 0.32249101894358945,-0.864115598321641 l 30.42475123007375 11.65393667764871" fill="red" stroke="none" /><path d="M 80.65960295795068 91.81776055985345 l -29.523720921722877 -12.490444390587525 a53.05715673820959,53.05715673820959 0 0,0 0.363086015838749,-0.8380525845650952 l 29.30434419604145 12.99679611973922" fill="red" stroke="none" /><path d="M 80.95270993114464 91.15688171328213 l -37.05110824797879 -17.20178207537291 a61.849552371746526,61.849552371746526 0 0,0 0.4566317290378458,-0.9617828769634256 l 36.74951832509919 17.83700736797687" fill="red" stroke="none" /><path d="M 81.43458229118936 90.18545643968196 l -16.59159070118049 -8.771086771423668 a39.767334524309575,39.767334524309575 0 0,0 0.3251299644520762,-0.6024164454458082 l 16.43815263750994 9.05538420020195" fill="red" stroke="none" /><line stroke="#e1ed5e" stroke-width="0.3" x1="26.266209847984243" x2="21.928928074336255" y1="57.711370442889674" y2="55.22380399835377" /><path d="M 25.398753493254645 57.213857153982495 a86.0,86.0 0 0,1 29.58750427330803,-30.492523968695096" fill="none" id="id11" stroke="none" /><text fill="#e1ed5e" style="font-size:6.75px; font-family:Arial;" text-anchor="middle"><textPath startOffset="21.46611528233685" xlink:href="#id11">November</textPath></text><path d="M 81.96595687620814 89.24020034530311 l -35.72328032987402 -21.31387491532179 a62.59848580697076,62.59848580697076 0 0,0 0.5600603111587752,-0.9205918936015297 l 35.35110422042903 21.925634582130396" fill="red" stroke="none" /><path d="M 82.54541684631803 88.32363383020206 l -34.22934590548163 -22.897961700149096 a62.18209284553915,62.18209284553915 0 0,0 0.6027977512793633,-0.8845313186667616 l 33.830123688533526 23.483771042086275" fill="red" stroke="none" /><path d="M 83.17141714833178 87.43820079747576 l -25.91368574139684 -19.34343014798025 a53.337090138008165,53.337090138008165 0 0,0 0.555528804362752,-0.7310107881868908 l 25.57688099680998 19.786625712048167" fill="red" stroke="none" /><path d="M 83.6137871275137 86.86637796730984 l -24.94988056330671 -19.99743953219579 a52.974898404327995,52.974898404327995 0 0,0 0.5764211508328025,-0.7066241741169437 l 24.601960920397516 20.423947875920817" fill="red" stroke="none" /><path d="M 84.80347519578584 85.50635884689758 l -25.487866085715 -24.308977846187595 a56.22155194663887,56.22155194663887 0 0,0 0.6739511321447864,-0.6945658836522269 l 25.065650689867095 24.744107925389947" fill="red" stroke="none" /><path d="M 85.57189188830299 84.74124197986013 l -21.113257370878177 -22.328782314708633 a51.7301831505539,51.7301831505539 0 0,0 0.6522735556245164,-0.6062171826128503 l 20.725775931458802 22.68890408339613" fill="red" stroke="none" /><path d="M 86.10567301691215 84.25364557470407 l -21.11329885711291 -23.927570388689023 a52.91081342328072,52.91081342328072 0 0,0 0.6881081554543573,-0.5967206116796544 l 20.69829690301178 24.287455993788356" fill="red" stroke="none" /><path d="M 87.51073957382395 83.11751280151077 l -22.05854305325352 -29.817864149374486 a58.09021898105741,58.09021898105741 0 0,0 0.8089884102402234,-0.5877644847029716 l 21.542009326659514 30.193147868894126" fill="red" stroke="none" /><path d="M 88.70189139769569 82.29822771554957 l -21.081355697048032 -33.03007353996706 a60.18429935677161,60.18429935677161 0 0,0 0.8780626976576381,-0.5498427807195888 l 20.509673847018153 33.38806066200958" fill="red" stroke="none" /><line stroke="#e1ed5e" stroke-width="0.3" x1="56.762969772571076" x2="54.21961505331055" y1="26.818313649435495" y2="22.513508569990535" /><path d="M 56.25429882871897 25.957352633546506 a86.0,86.0 0 0,1 42.265352541879196,-11.944610805530505" fill="none" id="id12" stroke="none" /><text fill="#e1ed5e" style="font-size:6.75px; font-family:Arial;" text-anchor="middle"><textPath startOffset="22.20632615414155" xlink:href="#id12">December</textPath></text><path d="M 89.63071344664047 81.73862282372117 l -6.332655125465774 -11.152455203001297 a33.824966978243594,33.824966978243594 0 0,0 0.5087853455409844,-0.28313849394335405 l 6.1397456908527435 11.259809094504835" fill="red" stroke="none" /><path d="M 90.91171255644093 81.06846463323043 l -13.934267156514357 -29.026048430116713 a53.19744226886036,53.19744226886036 0 0,0 0.8289220101667762,-0.38918999840397883 l 13.432566935047971 29.2616034111607" fill="red" stroke="none" /><path d="M 94.28887869178378 79.79150937346287 l -5.856907407593457 -20.72434677172279 a42.53606077015339,42.53606077015339 0 0,0 0.7063054368885952,-0.1930599567441052 l 5.49930408148114 20.82209326929319" fill="red" stroke="none" /><path d="M 95.692805502759 79.44645832069477 l -6.755030347262375 -32.23439245113342 a53.934578966279844,53.934578966279844 0 0,0 0.9102964988998489,-0.18259691405446582 l 6.1991674388953895 32.345893321265095" fill="red" stroke="none" /><path d="M 97.47563105711357 79.15227682838746 l -4.9882849748595355 -41.19619065590153 a62.49709762800042,62.49709762800042 0 0,0 1.0690970667610273,-0.1201255122194837 l 4.27842120458879 41.275952121591615" fill="red" stroke="none" /></svg>
