<?xml version="1.0" encoding="utf-8" ?>
<svg baseProfile="full" height="200mm" version="1.1" viewBox="0,0,200,200" width="200mm" xmlns="http://www.w3.org/2000/svg" xmlns:ev="http://www.w3.org/2001/xml-events" xmlns:xlink="http://www.w3.org/1999/xlink"><defs /><rect fill="#1a1a1a" height="200" width="200" x="0" y="0" /><text alignment-baseline="middle" fill="#e1ed5e" style="dominant-baseline: central; font-size:9.0px; font-family:Arial;" text-anchor="middle" x="100.0" y="100.0">2025</text><line stroke="#e1ed5e" stroke-width="0.3" x1="100.0" x2="100.0" y1="15.0" y2="10.0" /><path d="M 100.0 14.0 a86.0,86.0 0 0,1 42.46469731375804,11.215312516191453" fill="none" id="id121" stroke="none" /><text fill="#e1ed5e" style="font-size:6.75px; font-family:Arial;" text-anchor="middle"><textPath startOffset="22.20632615414155" xlink:href="#id121">January</textPath></text><path d="M 100.0 79.0 l 0.0 -29.19668246445498 a50.19668246445498,50.19668246445498 0 0,0 0.8640533731020051,0.007437180173674399 l -0.5025728938294767 29.192356660889864" fill="red" stroke="none" /><path d="M 102.88285421437855 79.19881850522331 l 4.033758801656247 -29.10551234984728 a50.383703973751366,50.383703973751366 0 0,0 0.8580369248530233,0.12645233846750495 l -4.534164706937926 29.03176552721881" fill="red" stroke="none" /><path d="M 104.307194497241 79.44645832069477 l 5.980631867660142 -28.539033108273344 a50.15895005468465,50.15895005468465 0 0,0 0.843523721934842,0.18436161399547862 l -6.470998313748512 28.431857996181996" fill="red" stroke="none" /><path d="M 105.01212808612495 79.60689891045804 l 7.384542341150555 -30.045863927534874 a51.94002916514764,51.94002916514764 0 0,0 0.866387168475799,0.2208613801594907 l -7.900638398311378 29.91429955120652" fill="red" stroke="none" /><path d="M 105.71112130821622 79.79150937346287 l 7.979984041358932 -28.236737410518433 a50.34269048487058,50.34269048487058 0 0,0 0.8318764792558018,0.24284755584980355 l -8.46485073833816 28.095191525749925" fill="red" stroke="none" /><path d="M 106.74666289553966 80.11325718540242 l 9.73014889345784 -28.680989637093695 a51.28654757564709,51.28654757564709 0 0,0 0.8335724589063541,0.2908170632881451 l -10.222403356427469 28.509251720633344" fill="red" stroke="none" /><path d="M 107.4271985657038 80.35727306442388 l 10.79131220176057 -28.539805012692177 a51.51184834123223,51.51184834123223 0 0,0 0.8266838139513923,0.3207404765095118 l -11.280979180711629 28.34982183229212" fill="red" stroke="none" /><path d="M 108.09893153111575 80.62456947434976 l 11.753173149772133 -28.11763365876678 a51.47520962449872,51.47520962449872 0 0,0 0.8145737252080577,0.3487579582660938 l -12.235430632770505 27.911156172537897" fill="red" stroke="none" /><path d="M 109.73455568895987 81.39251694778311 l 13.190649961739384 -25.213764598332343 a49.455705432008756,49.455705432008756 0 0,0 0.7509141264015572,0.4011123205206594 l -13.62270913466925 24.982973551309932" fill="red" stroke="none" /><path d="M 110.36928655335952 81.73862282372117 l 14.046141274392188 -24.73669546723734 a49.446409041195764,49.446409041195764 0 0,0 0.7365237293305699,0.4266420833455114 l -14.469861736188086 24.49124922650178" fill="red" stroke="none" /><line stroke="#e1ed5e" stroke-width="0.3" x1="143.23703022742887" x2="145.7803849466894" y1="26.81831364943548" y2="22.513508569990506" /><path d="M 143.74570117128098 25.957352633546492 a86.0,86.0 0 0,1 28.547481713284135,27.462654790039103" fill="none" id="id122" stroke="none" /><text fill="#e1ed5e" style="font-size:6.75px; font-family:Arial;" text-anchor="middle"><textPath startOffset="19.985693538727396" xlink:href="#id122">February</textPath></text><path d="M 111.2981086023043 82.29822771554956 l 16.19046441574417 -25.367070219925846 a51.0935107546482,51.0935107546482 0 0,0 0.7372865965287577,0.47955171134323266 l -16.624718038057207 25.084619584423084" fill="red" stroke="none" /><path d="M 111.90073688211348 82.69761687909136 l 32.274729006942074 -46.92396209859255 a77.95187750637987,77.95187750637987 0 0,0 1.0990058828870821,0.7699238538015339 l -33.0776660294128 46.361453402027074" fill="red" stroke="none" /><path d="M 112.77801427241765 83.33499621200491 l 17.48333951137025 -22.801658612380248 a49.73295661684287,49.73295661684287 0 0,0 0.6748701700699341,0.5267468723528432 l -17.873242236599616 22.49733335080418" fill="red" stroke="none" /><path d="M 113.34407831869373 83.78471172551755 l 18.268968220543787 -22.199853680300887 a49.750455705432,49.750455705432 0 0,0 0.6565697062671313,0.5498582470648011 l -18.648395463770036 21.882094275842263" fill="red" stroke="none" /><path d="M 113.89432698308785 84.25364557470407 l 19.180770698256236 -21.737448235722457 a49.98997448049581,49.98997448049581 0 0,0 0.6403216126481062,0.5748870661255839 l -19.55210329850033 21.404062160827575" fill="red" stroke="none" /><path d="M 114.42810811169701 84.74124197986012 l 20.335810105039123 -21.50657613140178 a50.5986146554867,50.5986146554867 0 0,0 0.6277041413215502,0.6038508866219918 l -20.70299748997309 21.153342158017487" fill="red" stroke="none" /><path d="M 114.68862486808459 84.99185889309783 l 21.601481418287516 -22.07137047581638 a51.883157127232955,51.883157127232955 0 0,0 0.6328860681090813,0.6301682542020908 l -21.978203286563918 21.696266370964167" fill="red" stroke="none" /><path d="M 115.19652480421416 85.50635884689758 l 21.98513953824608 -20.968262630667954 a51.38115202333212,51.38115202333212 0 0,0 0.604909514998627,0.6452752945043188 l -22.342816375215172 20.586717919285583" fill="red" stroke="none" /><path d="M 115.68641384162765 86.03803664274999 l 21.97576632117406 -19.55991007386838 a50.419795843966455,50.419795843966455 0 0,0 0.5714438879813243,0.6532591480269779 l -22.309202072733232 19.178735369638453" fill="red" stroke="none" /><path d="M 116.15771136456269 86.58626213691792 l 43.66183704005091 -36.24699213035492 a77.74681006197594,77.74681006197594 0 0,0 0.8459649207338348,1.037052964801507 l -44.27930045286116 35.49005499594531" fill="red" stroke="none" /><path d="M 116.82858285166822 87.43820079747576 l 31.028713020030704 -23.161573728814428 a59.720014582573825,59.720014582573825 0 0,0 0.6078285665489268,0.8290774816812541 l -31.422804199093257 22.62403380346168" fill="red" stroke="none" /><path d="M 117.2510076193507 88.02491185347247 l 46.754983412895704 -32.455788091520894 a77.91578563616478,77.91578563616478 0 0,0 0.7553213187486988,1.1083408335083056 l -47.30672919731313 31.64616923474218" fill="red" stroke="none" /><line stroke="#e1ed5e" stroke-width="0.3" x1="172.23445277983987" x2="176.4835382374775" y1="55.19839476539836" y2="52.563006222186495" /><path d="M 173.08426987136738 54.67131705675599 a86.0,86.0 0 0,1 12.851231095245387,41.99856678651699" fill="none" id="id123" stroke="none" /><text fill="#e1ed5e" style="font-size:6.75px; font-family:Arial;" text-anchor="middle"><textPath startOffset="22.20632615414155" xlink:href="#id123">March</textPath></text><path d="M 117.84615892207809 88.93136811851018 l 7.875601667945869 -4.8846441460238506 a30.267407947502733,30.267407947502733 0 0,0 0.2707984657219882,0.44512147598461665 l -7.95851593195408 4.7483548968321525" fill="red" stroke="none" /><path d="M 118.03404312379186 89.2402003453031 l 25.356234686370957 -15.128499103059847 a50.5264309150565,50.5264309150565 0 0,0 0.43919576890890155,0.7507279364655353 l -25.612890129750188 14.689791754240416" fill="red" stroke="none" /><path d="M 118.3937258080291 89.86733742301442 l 25.421774836236253 -14.004246296378057 a50.02387896463726,50.02387896463726 0 0,0 0.4089854697097155,0.7577879612441195 l -25.659068405164433 13.564577351801478" fill="red" stroke="none" /><path d="M 118.89224826269711 90.83032412892265 l 26.320844397448585 -12.775272080995256 a50.257382427998536,50.257382427998536 0 0,0 0.3710473973534513,0.7815204477103217 l -26.536849988643795 12.320309217644393" fill="red" stroke="none" /><path d="M 119.04729006885535 91.15688171328212 l 20.984655701086723 -9.742582377856886 a44.13598250091141,44.13598250091141 0 0,0 0.3139911201991632,0.6918378122586614 l -21.149249138249232 9.379922556756162" fill="red" stroke="none" /><path d="M 119.34039704204932 91.81776055985345 l 27.213643929147835 -11.513132340719718 a50.54885162231133,50.54885162231133 0 0,0 0.33212596555649626,0.8042693695903342 l -27.40779158159053 11.04298840067608" fill="red" stroke="none" /><path d="M 119.61058180528143 92.48833698450437 l 28.33785754748912 -10.85457018009176 a51.345606999635436,51.345606999635436 0 0,0 0.3090404345406072,0.8280747193314875 l -28.52050257053135 10.365172323730938" fill="red" stroke="none" /><path d="M 119.85752413597 93.16781622104841 l 27.432464791868764 -9.438419396311662 a50.01075464819541,50.01075464819541 0 0,0 0.2730651651656245,0.8164300874549664 l -27.59086725080616 8.964816205934381" fill="red" stroke="none" /><path d="M 120.28053869075195 94.5502522615342 l 30.458303954232274 -8.184697439411392 a52.538826102807135,52.538826102807135 0 0,0 0.22717705377919892,0.8754058595637895 l -30.594677339881773 7.659195154298753" fill="red" stroke="none" /><path d="M 120.45610955862082 95.25157060432595 l 28.219438049515578 -6.5505128812361 a49.96974115931462,49.96974115931462 0 0,0 0.18728090996635097,0.8395435972830426 l -28.328013346483967 6.063791114403093" fill="red" stroke="none" /><path d="M 120.67395015179393 96.31383870115 l 28.681458473177795 -5.113898478139998 a50.13379511483777,50.13379511483777 0 0,0 0.14416602675769474,0.8508760506947715 l -28.765236361455713 4.619436639129388" fill="red" stroke="none" /><path d="M 120.78858239683441 97.02765380044208 l 28.700283134549505 -4.103559149574549 a49.99216186656945,49.99216186656945 0 0,0 0.11446776944252052,0.8529178398726746 l -28.76666690304986 3.60892296763721" fill="red" stroke="none" /><path d="M 120.87857604477298 97.74499172005257 l 28.44449095126382 -3.072171324157326 a49.60991615020051,49.60991615020051 0 0,0 0.08439089521660889,0.8498047980442076 l -28.49315897216266 2.582090995408683" fill="red" stroke="none" /><path d="M 120.96714384426684 98.82574320788733 l 29.20560104613505 -1.635648405471037 a50.25136711629603,50.25136711629603 0 0,0 0.04093426536636916,0.8640576448907006 l -29.229428919734918 1.1326796539573365" fill="red" stroke="none" /><line stroke="#e1ed5e" stroke-width="0.3" x1="184.98032266829074" x2="189.97916517819016" y1="98.17113171792111" y2="98.06355123074" /><path d="M 185.9800911702706 98.14961562048488 a86.0,86.0 0 0,1 -9.607161424134198,41.387399972396054" fill="none" id="id124" stroke="none" /><text fill="#e1ed5e" style="font-size:6.75px; font-family:Arial;" text-anchor="middle"><textPath startOffset="21.466115282336823" xlink:href="#id124">April</textPath></text><path d="M 120.99824983174949 100.27111621757518 l 55.77752384217675 0.7201643666004877 a76.78217280349983,76.78217280349983 0 0,0 -0.02843842509402605,1.3214218674737195 l -55.756863354397716 -1.680176049864322" fill="red" stroke="none" /><path d="M 120.92983693683757 101.71520430193887 l 34.64688646619354 2.839319240514921 a55.763033175355446,55.763033175355446 0 0,0 -0.0866329271505149,0.9559871321005459 l -34.59287894276595 -3.4352877611640373" fill="red" stroke="none" /><path d="M 120.8583938346157 102.4346265915055 l 29.24368324711498 3.4133715870698556 a50.44221655122129,50.44221655122129 0 0,0 -0.10808683881183885,0.8615584529196948 l -29.180594899056292 -3.9162477942769454" fill="red" stroke="none" /><path d="M 120.81339534386255 102.79330883721812 l 28.44728611565318 3.817832429015862 a49.70233321181188,49.70233321181188 0 0,0 -0.1210984307367356,0.8469621425231127 l -28.377353633899844 -4.306940043519384" fill="red" stroke="none" /><path d="M 120.70491114924044 103.5080841355445 l 60.01092210184516 10.16779846421137 a81.86620488516223,81.86620488516223 0 0,0 -0.2473667596263063,1.3873641555838971 l -59.827008899879665 -11.199281370528483" fill="red" stroke="none" /><path d="M 120.49622156327973 104.57218783832717 l 28.2459517101164 6.300956324669297 a49.94021144732045,49.94021144732045 0 0,0 -0.19438498195297624,0.8374054147257866 l -28.133306162232874 -6.786230396743648" fill="red" stroke="none" /><path d="M 120.23288151984713 105.62410040840565 l 27.496845311163522 7.643252336187773 a49.53937294932555,49.53937294932555 0 0,0 -0.23544734211372761,0.8196230856873187 l -27.361205332163692 -8.115432897379673" fill="red" stroke="none" /><path d="M 120.02730092923936 106.31721596034902 l 53.7470341770345 16.953438874475534 a77.35745534086766,77.35745534086766 0 0,0 -0.4114965334875966,1.2664561067194704 l -53.447245392530654 -17.8760938811728" fill="red" stroke="none" /><path d="M 119.79798401119884 107.00284435728193 l 52.861473115678166 18.69789714530238 a77.07090776522057,77.07090776522057 0 0,0 -0.4531612995861247,1.2469052714271887 l -52.53178755508681 -19.6050502137357" fill="red" stroke="none" /><path d="M 119.54520255179757 107.68017299344265 l 28.24490952585818 11.098671951229095 a51.34724753919066,51.34724753919066 0 0,0 -0.33032756702967603,0.8198459314010555 l -28.049679344571114 -11.583217250472964" fill="red" stroke="none" /><path d="M 119.26925614724726 108.34839909993367 l 27.869720976261856 12.07454775294297 a51.37294932555596,51.37294932555596 0 0,0 -0.35853160606232226,0.8083941220908012 l -27.65774828546826 -12.55249021152646" fill="red" stroke="none" /><path d="M 118.97047184881838 109.00673069616215 l 26.525661590389866 12.593755832017163 a50.363470652570186,50.363470652570186 0 0,0 -0.3785576108613626,0.7799408034349791 l -26.30495072291379 -13.048485591417418" fill="red" stroke="none" /><line stroke="#e1ed5e" stroke-width="0.3" x1="174.80103733775053" x2="179.2010983576182" y1="140.37084112569926" y2="142.7455964860345" /><path d="M 175.68104954172406 140.8457921977663 a86.0,86.0 0 0,1 -30.038265399797805,32.042727171017184" fill="none" id="id125" stroke="none" /><text fill="#e1ed5e" style="font-size:6.75px; font-family:Arial;" text-anchor="middle"><textPath startOffset="22.206326154141568" xlink:href="#id125">May</textPath></text><path d="M 118.48025628344425 109.97397251340804 l 49.998039342344775 26.984423942842632 a77.81516587677726,77.81516587677726 0 0,0 -0.6463238395882791,1.173265506302514 l -49.526139093304984 -27.84105996754295" fill="red" stroke="none" /><path d="M 118.12598468904814 110.60418214915192 l 24.57406231097113 14.376478705049136 a49.470470288005835,49.470470288005835 0 0,0 -0.4363274850257767,0.7313099624132491 l -24.322953950247125 -14.797350761348488" fill="red" stroke="none" /><path d="M 117.55443506779139 111.5257021239791 l 48.49114414760278 31.83779375057494 a79.00893182646738,79.00893182646738 0 0,0 -0.7562166639017137,1.1304413077087343 l -47.935924378290345 -32.66777197248948" fill="red" stroke="none" /><path d="M 117.14729908036423 112.12312394758627 l 23.43699375371486 16.56993202856383 a49.702880058330294,49.702880058330294 0 0,0 -0.4999167926405255,0.6943407010193918 l -23.148297168698733 -16.970906335034353" fill="red" stroke="none" /><path d="M 116.498646956653 112.99209946851258 l 49.495940869959 38.97629840553772 a84.0,84.0 0 0,0 -0.9043283517805842,1.1282886656869988 l -48.81769460612357 -39.822514904802965" fill="red" stroke="none" /><path d="M 116.0416608686014 113.55231037782055 l 27.171236685541846 22.954794763953384 a56.56963179001094,56.56963179001094 0 0,0 -0.6348122601018605,0.738430074554383 l -26.772081915869208 -23.419101937669293" fill="red" stroke="none" /><path d="M 115.56566222782051 114.09645910891815 l 24.391824797759362 22.089542726872764 a53.90758293838862,53.90758293838862 0 0,0 -0.6288026703346107,0.6824411086125518 l -24.00797571942903 -22.50613509028665" fill="red" stroke="none" /><path d="M 114.81725581225074 114.88116024355365 l 39.37094809047551 39.540748631105856 a76.79912504557053,76.79912504557053 0 0,0 -0.9448122672866895,0.9246976601623349 l -38.68448587081303 -40.21259639419077" fill="red" stroke="none" /><path d="M 114.0293411484842 115.62618273729858 l 37.27591778408513 41.518721145188344 a76.7969376594969,76.7969376594969 0 0,0 -0.9912570107601284,0.8746690605194222 l -36.555718420418415 -42.15421334748006" fill="red" stroke="none" /><path d="M 113.48314897796784 116.09983520530334 l 22.800783673486574 27.22575121692617 a56.51221290557783,56.51221290557783 0 0,0 -0.7511546059042375,0.6181491023139802 l -22.328758939037645 -27.61419543809733" fill="red" stroke="none" /><path d="M 112.92097659922987 116.55440617244103 l 38.61959517888666 49.4795776384767 a83.76704338315713,83.76704338315713 0 0,0 -1.1443027736031885,0.8774025712254463 l -37.76216367678998 -50.13701955152951" fill="red" stroke="none" /><path d="M 112.34349029814194 116.9893568818739 l 18.77430667215698 25.84061627293818 a52.940758293838854,52.940758293838854 0 0,0 -0.7418580194682993,0.5292959993385575 l -18.326721324839795 -26.15995653412096" fill="red" stroke="none" /><path d="M 111.7513745106137 117.40417183066458 l 16.18820537956293 23.975264153272928 a49.92872767043383,49.92872767043383 0 0,0 -0.7164185193725602,0.4748031295322992 l -15.773112161450406 -24.250365303896544" fill="red" stroke="none" /><line stroke="#e1ed5e" stroke-width="0.3" x1="143.8653032363475" x2="146.44561519142675" y1="172.8068346515853" y2="177.08958963109032" /><path d="M 144.38136562736335 173.6633856474863 a86.0,86.0 0 0,1 -40.68145358897372,12.25698825130547" fill="none" id="id126" stroke="none" /><text fill="#e1ed5e" style="font-size:6.75px; font-family:Arial;" text-anchor="middle"><textPath startOffset="21.466115282336833" xlink:href="#id126">June</textPath></text><path d="M 110.8373102113329 117.98757091392108 l 14.810501463490509 24.582201685680225 a49.699052132701425,49.699052132701425 0 0,0 -0.7365686572920044,0.4351777458004053 l -14.38516493517012 -24.83349800377438" fill="red" stroke="none" /><path d="M 110.21172684928248 118.3499491758327 l 13.85797440298702 24.90206893779868 a49.49835946044476,49.49835946044476 0 0,0 -0.7480785782224204,0.40791208700881754 l -13.42727301289595 -25.13692167656727" fill="red" stroke="none" /><path d="M 109.89434966115114 118.52300852407294 l 16.485086193942298 30.86139084910249 a55.98833394094057,55.98833394094057 0 0,0 -0.8539796530318022,0.44676179289526885 l -15.951415638383999 -31.140582060942474" fill="red" stroke="none" /><path d="M 109.2508944713604 118.85261126421891 l 19.033687671765207 38.78919121942775 a64.20743711265038,64.20743711265038 0 0,0 -0.9963995416754511,0.47833233110464707 l -18.363175462089526 -39.111077827031956" fill="red" stroke="none" /><path d="M 108.59647513512805 119.15986991738527 l 22.852673223264862 50.934160727465 a76.82592052497267,76.82592052497267 0 0,0 -1.2112130445811895,0.5309602044741258 l -21.972539504025917 -51.31998548523358" fill="red" stroke="none" /><path d="M 107.2578585660854 119.70592522655815 l 9.637518406864043 26.16697685219206 a48.8853445133066,48.8853445133066 0 0,0 -0.7921298337978454,0.2840295757703444 l -9.185669012436463 -26.328993969002365" fill="red" stroke="none" /><path d="M 106.57524785965236 119.94407469862006 l 16.86206407130943 51.14609708855796 a74.8539919795844,74.8539919795844 0 0,0 -1.2271729368240407,0.39290202152698783 l -15.979169789394449 -51.428771956744654" fill="red" stroke="none" /><path d="M 105.88484417918355 120.15858648285463 l 13.254308180457889 45.4027514732322 a68.29784907036093,68.29784907036093 0 0,0 -1.1313663322416379,0.319735426404328 l -12.470810680111644 -45.62417569297505" fill="red" stroke="none" /><path d="M 105.18746579009965 120.34920634021253 l 7.033242899519 27.589755151020924 a49.47211082756107,49.47211082756107 0 0,0 -0.8270010477540539,0.20325673670242017 l -6.557288567021735 -27.706733146037376" fill="red" stroke="none" /><path d="M 104.48393922423573 120.51570834832081 l 8.320893727845183 38.071218270568885 a59.969923441487424,59.969923441487424 0 0,0 -1.0103748081440358,0.211733864736833 l -7.664327458271768 -38.20880811603226" fill="red" stroke="none" /><path d="M 103.7750983002368 120.6578951692458 l 7.803232979433299 42.700442756741666 a64.40758293838863,64.40758293838863 0 0,0 -1.0923250908812552,0.18991471855101016 l -7.067058917079994 -42.82843605381368" fill="red" stroke="none" /><path d="M 103.06178313531738 120.77559828337769 l 8.85758026712369 60.10273140179794 a81.75191396281443,81.75191396281443 0 0,0 -1.3939534764684756,0.19318925010552554 l -7.821698199468385 -60.24629521739607" fill="red" stroke="none" /><path d="M 102.34483914955558 120.86867818915974 l 3.1338608539084154 27.89084004427983 a49.066350710900466,49.066350710900466 0 0,0 -0.8401266818646344,0.08708256564602418 l -2.6533015754381784 -27.940651978381613" fill="red" stroke="none" /><path d="M 101.26447882468166 120.96189622390904 l 3.288296907109897 54.5117380969917 a75.61082756106453,75.61082756106453 0 0,0 -1.299829090794058,0.06718631681710928 l -2.3494797479023593 -54.560264220571014" fill="red" stroke="none" /><line stroke="#e1ed5e" stroke-width="0.3" x1="102.19456741930631" x2="102.32365962044197" y1="184.97166512339345" y2="189.96999836594603" /><path d="M 102.22038585953345 185.97133177190398 a86.0,86.0 0 0,1 -42.740103519485714,-10.115201625700543" fill="none" id="id127" stroke="none" /><text fill="#e1ed5e" style="font-size:6.75px; font-family:Arial;" text-anchor="middle"><textPath startOffset="22.20632615414155" xlink:href="#id127">July</textPath></text><path d="M 100.54218724476979 120.99299961872073 l 0.7551117236608231 29.237242815687754 a50.246992344148744,50.246992344148744 0 0,0 -0.8648232616585648,0.014888716738826484 l -0.2517287721095904 -29.24590900970574" fill="red" stroke="none" /><path d="M 99.81925306533755 120.99922214144158 l -0.4701764240952362 54.62520951563216 a75.62723295661684,75.62723295661684 0 0,0 -1.3016538348761444,-0.02240915120889684 l 1.4103899488640483 -54.6090228871441" fill="red" stroke="none" /><path d="M 99.09653310690486 120.98055641714683 l -2.3495268010190116 54.56135690097398 a75.61192125410136,75.61192125410136 0 0,0 -1.2998478925195383,-0.06718728865155739 l 3.2883627619520386 -54.51282980556022" fill="red" stroke="none" /><path d="M 98.01472825383883 120.90594882070398 l -5.162885233728044 54.367879194470724 a75.61246810061975,75.61246810061975 0 0,0 -1.2946561342467737,-0.13419640184422588 l 6.097973964580411 -54.270953424170735" fill="red" stroke="none" /><path d="M 97.2962882734958 120.8252237178851 l -5.636030087453447 43.41128024166501 a64.7756106452789,64.7756106452789 0 0,0 -1.1044901981184916,-0.15307227732161013 l 6.38244887675877 -43.307833398850796" fill="red" stroke="none" /><path d="M 96.58105272829116 120.7198165907248 l -6.337988576784568 38.41005737401978 a59.92945679912504,59.92945679912504 0 0,0 -1.0163779846728445,-0.17671034064122731 l 6.998215532929462 -38.29526845485755" fill="red" stroke="none" /><path d="M 96.22490169976321 120.6578951692458 l -5.115286705193002 27.991603956348772 a49.45515858549034,49.45515858549034 0 0,0 -0.8361039487781786,-0.16024131172750344 l 5.596358268542875 -27.899405446272798" fill="red" stroke="none" /><path d="M 95.51606077576429 120.51570834832081 l -11.66545794687041 53.37385745418696 a75.63379511483777,75.63379511483777 0 0,0 -1.2694947049013738,-0.2889328617156326 l 12.582472801164645 -53.16514785889364" fill="red" stroke="none" /><path d="M 94.46302465271185 120.25689768951611 l -11.556536405929188 42.279324168335144 a64.83029529711995,64.83029529711995 0 0,0 -1.0739256712591456,-0.3035021218514212 l 12.282593245292947 -42.0741332531452" fill="red" stroke="none" /><path d="M 93.76903079525671 120.05430185196036 l -12.179125552763821 39.198373816728214 a62.046846518410504,62.046846518410504 0 0,0 -1.0172097552717732,-0.3256784412126898 l 12.852056653126535 -38.982922528855816" fill="red" stroke="none" /><path d="M 93.08242187328487 119.8279376855182 l -16.641493153490007 47.699712702495354 a71.51932191031716,71.51932191031716 0 0,0 -1.1588869658622258,-0.41553563473488664 l 17.460099679981962 -47.40618952672051" fill="red" stroke="none" /><path d="M 92.40401165467489 119.57807347666478 l -19.755661996190078 50.91869346792802 a75.61684287276705,75.61684287276705 0 0,0 -1.2094335151055662,-0.4812585555236167 l 20.629216587337503 -50.57108806799834" fill="red" stroke="none" /><path d="M 91.7346041902142 119.30500536409082 l -17.242353479556794 40.27196447365542 a64.80787458986511,64.80787458986511 0 0,0 -1.0217403521941963,-0.44790094422081866 l 17.933014506408735 -39.969198976140156" fill="red" stroke="none" /><path d="M 90.7491055286396 118.85261126421891 l -17.6360081310425 35.9408278384841 a61.034633612832664,61.034633612832664 0 0,0 -0.939195397523872,-0.4709320696950933 l 18.252057436249135 -35.6319279278797" fill="red" stroke="none" /><path d="M 90.10565033884886 118.52300852407294 l -13.42701536095956 25.13643933167576 a49.49781261392636,49.49781261392636 0 0,0 -0.7480703136219468,-0.40790758048968273 l 13.857708486450148 -24.901591099426312" fill="red" stroke="none" /><line stroke="#e1ed5e" stroke-width="0.3" x1="58.666819895761336" x2="56.23545636021788" y1="174.27360380694188" y2="178.64263932499728" /><path d="M 58.180547188652646 175.14741091055294 a86.0,86.0 0 0,1 -31.652253787137756,-30.449443065178592" fill="none" id="id128" stroke="none" /><text fill="#e1ed5e" style="font-size:6.75px; font-family:Arial;" text-anchor="middle"><textPath startOffset="22.20632615414155" xlink:href="#id128">August</textPath></text><path d="M 89.4739219176387 118.17145234162733 l -27.846879084978127 48.07281802361713 a76.55577834487787,76.55577834487787 0 0,0 -1.1346008513978867,-0.6703421819628284 l 28.670247807404397 -47.58635726936055" fill="red" stroke="none" /><path d="M 88.8546689885994 117.79835938074946 l -29.014371296826436 46.33403952015269 a75.66879329201603,75.66879329201603 0 0,0 -1.0979837301536652,-0.7007851658862492 l 29.807636829027025 -45.827739925442636" fill="red" stroke="none" /><path d="M 88.24862548938628 117.40417183066458 l -25.715197271624202 38.085052226917014 a66.95370032810791,66.95370032810791 0 0,0 -0.9496046996070988,-0.6531467713477027 l 26.366958855854193 -37.636764666204215" fill="red" stroke="none" /><path d="M 87.65650970185807 116.9893568818739 l -22.84358918802794 31.441503157072443 a59.86383521691578,59.86383521691578 0 0,0 -0.8284442972581987,-0.6128632858056611 l 23.381418455704704 -31.043629922527014" fill="red" stroke="none" /><path d="M 87.07902340077011 116.55440617244103 l -17.026201209594028 21.81403613207733 a48.672074371126506,48.672074371126506 0 0,0 -0.6560126649833744,-0.5211761362422099 l 17.39917136729476 -21.517726081829988" fill="red" stroke="none" /><path d="M 86.51685102203217 116.09983520530335 l -35.094387608556765 41.90518535781705 a75.65949690120306,75.65949690120306 0 0,0 -0.9912637915396271,-0.8447765081587761 l 35.81051687667345 -41.294884459435316" fill="red" stroke="none" /><path d="M 85.97065885151581 115.62618273729859 l -36.50726683422804 40.662581139999155 a75.64637258476121,75.64637258476121 0 0,0 -0.9614309963843306,-0.878244419888177 l 37.20179738007923 -40.0281439535244" fill="red" stroke="none" /><path d="M 84.9287848128048 114.62390073753433 l -39.21530034724541 38.051388195820664 a75.64199781261394,75.64199781261394 0 0,0 -0.8986753759454479,-0.9422575388219951 l 39.864482274569816 -37.370723540416165" fill="red" stroke="none" /><path d="M 84.43433777217949 114.09645910891817 l -41.449118633266416 37.536842144129544 a76.91997812613926,76.91997812613926 0 0,0 -0.8803350489457602,-0.9890657598583487 l 42.089112531860515 -36.81780221453033" fill="red" stroke="none" /><path d="M 83.72743513129214 113.27417163493432 l -38.61481931554629 31.499627955530826 a70.83302952971198,70.83302952971198 0 0,0 -0.7625752005503322,-0.9514298139838556 l 39.151312428151485 -30.83027030796871" fill="red" stroke="none" /><path d="M 83.28015986056508 112.70617746262583 l -43.592535656492956 33.12797786809246 a75.75191396281443,75.75191396281443 0 0,0 -0.7800237105115186,-1.0449692298831599 l 44.15632063369956 -32.37269575869999" fill="red" stroke="none" /><path d="M 82.85270091963577 112.12312394758628 l -44.61146564814617 31.54026328002181 a75.63488880787457,75.63488880787457 0 0,0 -0.7424432078927685,-1.0695448150005753 l 45.147769763201076 -30.767677202834225" fill="red" stroke="none" /><path d="M 82.44556493220864 111.52570212397912 l -45.67755246377752 29.990475991784002 a75.64309150565074,75.64309150565074 0 0,0 -0.7052642588538821,-1.094585791606316 l 46.18702158600845 -29.199768600256238" fill="red" stroke="none" /><line stroke="#e1ed5e" stroke-width="0.3" x1="26.63291911575756" x2="22.317208475507996" y1="142.92168965132927" y2="145.44649492493687" /><path d="M 25.769776987707644 143.4266507060508 a86.0,86.0 0 0,1 -11.730757126820373,-40.83630448921669" fill="none" id="id129" stroke="none" /><text fill="#e1ed5e" style="font-size:6.75px; font-family:Arial;" text-anchor="middle"><textPath startOffset="21.46611528233685" xlink:href="#id129">September</textPath></text><path d="M 81.87401531095188 110.60418214915194 l -49.02965104877025 28.683647225226757 a77.80368209989064,77.80368209989064 0 0,0 -0.6663255675076357,-1.161794791698809 l 49.51612861243026 -27.83543258766964" fill="red" stroke="none" /><path d="M 81.51974371655577 109.97397251340807 l -48.17754016208668 26.001882980959895 a75.74644549763032,75.74644549763032 0 0,0 -0.6093891417954769,-1.1527346019828453 l 48.61798181210704 -25.168733363890922" fill="red" stroke="none" /><path d="M 81.02952815118164 109.00673069616217 l -50.32692986151943 23.894034246469275 a76.71108275610646,76.71108275610646 0 0,0 -0.5560654269133367,-1.197715459668596 l 50.730769905272595 -23.024198719521852" fill="red" stroke="none" /><path d="M 80.73074385275274 108.34839909993369 l -50.136595378382665 21.721664008832196 a75.63981042654027,75.63981042654027 0 0,0 -0.5073234800656254,-1.1991628459417973 l 50.503069839640595 -20.85542663722424" fill="red" stroke="none" /><path d="M 80.45479744820244 107.68017299344265 l -50.84745366738148 19.980209435365207 a75.63215457528253,75.63215457528253 0 0,0 -0.4656985825358088,-1.2157920463927208 l 51.1838465295108 -19.101993822139328" fill="red" stroke="none" /><path d="M 80.20201598880116 107.00284435728193 l -32.01486925450331 11.32414019433494 a54.9586219467736,54.9586219467736 0 0,0 -0.3077922790316805,-0.8945884372382316 l 32.20505236447821 -10.771379054007411" fill="red" stroke="none" /><path d="M 80.0844068197444 106.66101706037122 l -36.34354602570523 12.15554956965145 a59.322457163689386,59.322457163689386 0 0,0 -0.31556086447336745,-0.9711964775664784 l 36.547399141194845 -11.528154192107168" fill="red" stroke="none" /><path d="M 79.76711848015287 105.62410040840567 l -52.660181111067125 14.637862916507956 a75.65676266861101,75.65676266861101 0 0,0 -0.33797649731886625,-1.2577362768665958 l 52.904345684727765 -13.72923570646582" fill="red" stroke="none" /><path d="M 79.58551787078972 104.9243191809786 l -51.629470310687786 12.45390352522845 a74.11028071454612,74.11028071454612 0 0,0 -0.2884634478254615,-1.242692983442247 l 51.8361943244438 -11.563341884437628" fill="red" stroke="none" /><path d="M 79.4281124754447 104.21870165774334 l -53.526442101089536 10.976731705121006 a75.6403572730587,75.6403572730587 0 0,0 -0.2505859392967252,-1.2777323058234837 l 53.707457973361926 -10.053735672229568" fill="red" stroke="none" /><path d="M 79.35854240842038 103.8639653848113 l -37.65956052390093 7.0496590478629715 a59.313707619394826,59.313707619394826 0 0,0 -0.17922217935732246,-1.0051731602969112 l 37.77532914559744 -6.4003671368328465" fill="red" stroke="none" /><path d="M 79.23777060512086 103.15116336523772 l -54.120636604504774 8.214097057107093 a75.74043018592782,75.74043018592782 0 0,0 -0.1845395708035251,-1.2906693283898392 l 54.2540102263249 -7.281282256736853" fill="red" stroke="none" /><path d="M 79.1416061653843 102.43462659150553 l -54.35446928347033 6.344344503894331 a75.72347794385709,75.72347794385709 0 0,0 -0.13997195886268535,-1.2959664996523246 l 54.455623543834065 -5.407781682357225" fill="red" stroke="none" /><line stroke="#e1ed5e" stroke-width="0.3" x1="15.007084014347285" x2="10.007500721073583" y1="101.09737516637583" y2="101.16192664675087" /><path d="M 14.007167355692545 101.11028546245083 a86.0,86.0 0 0,1 10.666146001902534,-42.60595125391555" fill="none" id="id130" stroke="none" /><text fill="#e1ed5e" style="font-size:6.75px; font-family:Arial;" text-anchor="middle"><textPath startOffset="22.20632615414155" xlink:href="#id130">October</textPath></text><line stroke="#e1ed5e" stroke-width="0.3" x1="26.266209847984243" x2="21.928928074336255" y1="57.711370442889674" y2="55.22380399835377" /><path d="M 25.398753493254645 57.213857153982495 a86.0,86.0 0 0,1 29.58750427330803,-30.492523968695096" fill="none" id="id131" stroke="none" /><text fill="#e1ed5e" style="font-size:6.75px; font-family:Arial;" text-anchor="middle"><textPath startOffset="21.46611528233685" xlink:href="#id131">November</textPath></text><line stroke="#e1ed5e" stroke-width="0.3" x1="56.762969772571076" x2="54.21961505331055" y1="26.818313649435495" y2="22.513508569990535" /><path d="M 56.25429882871897 25.957352633546506 a86.0,86.0 0 0,1 42.265352541879196,-11.944610805530505" fill="none" id="id132" stroke="none" /><text fill="#e1ed5e" style="font-size:6.75px; font-family:Arial;" text-anchor="middle"><textPath startOffset="22.20632615414155" xlink:href="#id132">December</textPath></text></svg>