<?xml version="1.0" encoding="utf-8" ?>
<svg baseProfile="full" height="200mm" version="1.1" viewBox="0,0,200,200" width="200mm" xmlns="http://www.w3.org/2000/svg" xmlns:ev="http://www.w3.org/2001/xml-events" xmlns:xlink="http://www.w3.org/1999/xlink"><defs /><rect fill="#1a1a1a" height="200" width="200" x="0" y="0" /><text alignment-baseline="middle" fill="#e1ed5e" style="dominant-baseline: central; font-size:9.0px; font-family:Arial;" text-anchor="middle" x="100.0" y="100.0">2016</text><line stroke="#e1ed5e" stroke-width="0.3" x1="100.0" x2="100.0" y1="15.0" y2="10.0" /><path d="M 100.0 14.0 a86.0,86.0 0 0,1 42.35913384403234,11.155469271406648" fill="none" id="id13" stroke="none" /><text fill="#e1ed5e" style="font-size:6.75px; font-family:Arial;" text-anchor="middle"><textPath startOffset="22.145653131862478" xlink:href="#id13">January</textPath></text><path d="M 100.0 79.0 l 0.0 -15.778558816670554 a36.778558816670554,36.778558816670554 0 0,0 0.6313528685498668,0.005419405047439216 l -0.270859943701012 15.77623380981755" fill="#ff0000" stroke="none" /><path d="M 101.44090949804482 79.04949213459386 l 1.1789427852068046 -17.14156935453192 a38.18206349735151,38.18206349735151 0 0,0 0.6535151173528055,0.05058620320157002 l -1.4730268973348435 17.1188053843353" fill="#ff1b02" stroke="none" /><path d="M 102.51750503828377 79.15144685158666 l 4.303142526471997 -35.6361930975554 a56.89505946630242,56.89505946630242 0 0,0 0.9686307420973986,0.12540864222755382 l -4.914251090460187 35.55707285912745" fill="#a9ff21" stroke="none" /><path d="M 103.94208987418118 79.37332000966035 l 6.649859982361873 -34.794877391078 a56.42462604524103,56.42462604524103 0 0,0 0.949823981409248,0.1899913976538831 l -7.246180449302078 34.67559659676126" fill="#b0ff20" stroke="none" /><path d="M 104.64783097203109 79.52079915486377 l 5.343040256388828 -23.542421226738025 a45.14112003198188,45.14112003198188 0 0,0 0.7542175030186102,0.17799327708460147 l -5.746389913147323 23.447231806007196" fill="#ff990e" stroke="none" /><path d="M 104.9986988182912 79.60360301121754 l 4.332202470539465 -17.676864447519034 a39.19998667421794,39.19998667421794 0 0,0 0.6522032309336583,0.1657875108824411 l -4.635010994698518 17.599891704801323" fill="#ff2e04" stroke="none" /><path d="M 105.69591212413111 79.78721728523813 l 8.688421755373795 -30.832143693293048 a53.032947996135526,53.032947996135526 0 0,0 0.8741344744166365,0.25444780573035264 l -9.216416242172036 30.67845219326018" fill="#e4ff1b" stroke="none" /><path d="M 107.06938296918511 80.22567764915836 l 6.164947135311765 -17.244454354918734 a39.31332245061132,39.31332245061132 0 0,0 0.6335264191336344,0.23263967636113433 l -6.4600627060995235 17.13608382954888" fill="#ff3004" stroke="none" /><path d="M 108.07796709384702 80.6158196554323 l 12.82158477609183 -30.767135928572564 a54.331811973215174,54.331811973215174 0 0,0 0.857834435845401,0.36615851067375227 l -13.347854287107662 30.54250276823941" fill="#d0ff1d" stroke="none" /><path d="M 110.02825361518725 81.54914285379988 l 15.798726822519507 -29.067877905748837 a54.083852483592636,54.083852483592636 0 0,0 0.8119166105886052,0.4503564574261737 l -16.29538762126421 28.792388532889518" fill="#d3ff1c" stroke="none" /><line stroke="#e1ed5e" stroke-width="0.3" x1="143.13028292997686" x2="145.6673583964461" y1="26.7553504044142" y2="22.446841604673864" /><path d="M 143.63769802327073 25.89364864446614 a86.0,86.0 0 0,1 29.32050498858742,28.57503671076993" fill="none" id="id14" stroke="none" /><text fill="#e1ed5e" style="font-size:6.75px; font-family:Arial;" text-anchor="middle"><textPath startOffset="20.669276256404974" xlink:href="#id14">February</textPath></text><path d="M 111.27062007382361 82.28071324371311 l 13.738989876446002 -21.59997407133604 a46.59919379018556,46.59919379018556 0 0,0 0.6712821736557703,0.43511699476253396 l -14.107757682358779 21.36094323486961" fill="#ffb210" stroke="none" /><path d="M 112.45986205192187 83.09580414077388 l 17.695258664508444 -24.00701685123233 a50.8237998467535,50.8237998467535 0 0,0 0.697851941809944,0.5236811070942635 l -18.10476359522915 23.699716716874054" fill="#fff717" stroke="none" /><path d="M 113.86319453409587 84.22622945171908 l 18.689076539064043 -21.264738394993778 a49.31025752073825,49.31025752073825 0 0,0 0.631018606293716,0.5642607288016597 l -19.051360172181134 20.940782136308734" fill="#ffdf14" stroke="none" /><path d="M 114.91283532996326 85.21462403516908 l 22.870146942380455 -22.674676775556975 a53.20535030149582,53.20535030149582 0 0,0 0.6374842088214754,0.6541149575444317 l -23.25601795235274 22.278739125944803" fill="#e1ff1b" stroke="none" /><path d="M 115.41159269507618 85.73525988315684 l 14.045652010224241 -13.000445811254558 a40.138754705666784,40.138754705666784 0 0,0 0.46370257985422236,0.5096903639956675 l -14.26675229092034 12.757417871701218" fill="#ff3f05" stroke="none" /><path d="M 116.7966241395341 87.39550010848427 l 34.503509412411105 -25.892076707368105 a64.13805510210881,64.13805510210881 0 0,0 0.6532857359124941,0.886307567923677 l -34.942897167907425 25.29596283017555" fill="#45ff2d" stroke="none" /><path d="M 117.42321728460499 88.27688183743584 l 25.821261250882316 -17.373696935869635 a52.1220641636406,52.1220641636406 0 0,0 0.4931133496343477,0.7466364610917026 l -26.115699039437388 16.92788059643887" fill="#f2ff19" stroke="none" /><line stroke="#e1ed5e" stroke-width="0.3" x1="172.87174338648825" x2="177.1583165268699" y1="56.24261187166439" y2="53.66864786411523" /><path d="M 173.72905801456457 55.72781907015455 a86.0,86.0 0 0,1 12.242430191666344,42.057860355516425" fill="none" id="id15" stroke="none" /><text fill="#e1ed5e" style="font-size:6.75px; font-family:Arial;" text-anchor="middle"><textPath startOffset="22.145653131862474" xlink:href="#id15">March</textPath></text><path d="M 118.00360718960297 89.18935116829356 l 25.887891441696784 -15.54493499120241 a51.19648865642803,51.19648865642803 0 0,0 0.445961129728753,0.757339494694836 l -26.150926281555304 15.098244328214019" fill="#fffd18" stroke="none" /><path d="M 118.36410011445183 89.81374322990088 l 15.611132560327178 -8.659232074563008 a38.851883932438284,38.851883932438284 0 0,0 0.31850154738925013,0.5860069736193119 l -15.75747945733177 8.389970267469094" fill="#ff2703" stroke="none" /><path d="M 118.53625476483649 90.13048839642627 l 29.734633682727512 -15.83201762614973 a54.68681080720924,54.68681080720924 0 0,0 0.4340880997645513,0.832421167959903 l -30.002029851467007 15.31925021508533" fill="#caff1d" stroke="none" /><path d="M 119.0197475246899 91.09779779509293 l 27.243392519279045 -12.751283298553094 a51.07985474897558,51.07985474897558 0 0,0 0.3648938926330388,0.7973590082660847 l -27.458270876767138 12.281735308072324" fill="#fffc17" stroke="none" /><path d="M 119.4528033332814 92.08871423366111 l 31.259059526565718 -12.712787379007736 a54.7452776759836,54.7452776759836 0 0,0 0.34656713112346227,0.8735755648372865 l -31.472685332655303 12.174310796956885" fill="#c9ff1d" stroke="none" /><path d="M 120.77682067341334 96.94652285012252 l 29.459381839662363 -4.329514640901343 a50.775827031348896,50.775827031348896 0 0,0 0.1193364519257682,0.863459118747849 l -29.529362808143343 3.8231672139534085" fill="#fff717" stroke="none" /><path d="M 120.98066250479742 99.09900007780936 l 62.94198751439227 -2.7029997665719256 a84.0,84.0 0 0,0 0.049501252012607466,1.4411749417435202 l -62.97911345340172 1.6221185602642854" fill="#4dd2ff" stroke="none" /><line stroke="#e1ed5e" stroke-width="0.3" x1="184.99686870605535" x2="189.99668451229388" y1="99.2704041080226" y2="99.22748670261217" /><path d="M 185.99683186730306 99.26182062694052 a86.0,86.0 0 0,1 -10.086455211305974,41.156179273409016" fill="none" id="id16" stroke="none" /><text fill="#e1ed5e" style="font-size:6.75px; font-family:Arial;" text-anchor="middle"><textPath startOffset="21.40746469413373" xlink:href="#id16">April</textPath></text><path d="M 120.98066250479742 100.90099992219065 l 30.85016808639255 1.324838957733206 a51.87860212546224,51.87860212546224 0 0,0 -0.04584687603159285,0.8894171469215381 l -30.822879620904384 -1.8542278980314748" fill="#f6ff19" stroke="none" /><path d="M 120.86939407059847 102.33845913500097 l 44.55654717195035 4.9926540466807845 a65.83539327714294,65.83539327714294 0 0,0 -0.1354889689386992,1.122043025529694 l -44.46427611675198 -5.756790749133888" fill="#2fff30" stroke="none" /><path d="M 120.51834098615036 104.47187691870673 l 24.273805069100362 5.29036283639919 a45.843621947563044,45.843621947563044 0 0,0 -0.17418205229867703,0.7674782611734715 l -24.17941215524402 -5.706275431511679" fill="#ffa50f" stroke="none" /><path d="M 120.35273937422433 105.17358676015961 l 28.271379747451938 7.186474177431764 a50.170470066962054,50.170470066962054 0 0,0 -0.21934175738659642,0.8328763795296993 l -28.143848509260614 -7.6707310613342665" fill="#ffed16" stroke="none" /><path d="M 120.16314734710363 105.8691983318838 l 29.908618985222056 8.705963093714582 a52.14994836259453,52.14994836259453 0 0,0 -0.25758021694233296,0.8574007687756864 l -29.754762448276093 -9.218101466080991" fill="#f1ff19" stroke="none" /><path d="M 119.58574465831526 107.57618678355244 l 41.38836530218497 16.0099088222376 a65.3769530599327,65.3769530599327 0 0,0 -0.4138713698316638,1.0432262127647625 l -41.10743525738719 -16.718036052215925" fill="#35ff2f" stroke="none" /><line stroke="#e1ed5e" stroke-width="0.3" x1="174.33088141563837" x2="178.70328620479359" y1="141.23008692659167" y2="143.65538615756765" /><path d="M 175.20536237346943 141.71514677278685 a86.0,86.0 0 0,1 -30.301960400862466,31.631185727798858" fill="none" id="id17" stroke="none" /><text fill="#e1ed5e" style="font-size:6.75px; font-family:Arial;" text-anchor="middle"><textPath startOffset="22.145653131862474" xlink:href="#id17">May</textPath></text><path d="M 118.18653347947321 110.5 l 18.220375895392163 10.519538927940827 a42.039077855881665,42.039077855881665 0 0,0 -0.3661929781782081,0.6218757343783883 l -18.03710920708419 -10.830765830612766" fill="#ff6209" stroke="none" /><path d="M 118.00360718960297 110.81064883170644 l 40.590821604672534 24.373622104573073 a68.3464703334777,68.3464703334777 0 0,0 -0.6126188206266098,1.0006668034018316 l -40.16643481959052 -25.066826024099463" fill="#33ff57" stroke="none" /><path d="M 117.81537515405839 111.11811171558189 l 21.22746136389553 13.247505867325243 a46.02202085484892,46.02202085484892 0 0,0 -0.42402127766845726,0.6666318765570485 l -20.99692239460118 -13.609951418560964" fill="#ffa80f" stroke="none" /><path d="M 117.62189284568427 111.42229804090321 l 17.9480486967823 11.633708323081757 a42.38867974814272,42.38867974814272 0 0,0 -0.40102832058913734,0.607207990422994 l -17.745695937272437 -11.940096191843812" fill="#ff6809" stroke="none" /><path d="M 117.21940702142032 112.02048342749411 l 26.930897223003203 18.79985782053692 a53.84368857647333,53.84368857647333 0 0,0 -0.5355777896704876,0.7533572334156758 l -26.604204334802755 -19.2593922806621" fill="#d7ff1c" stroke="none" /><path d="M 115.16444852881244 114.52719865689866 l 23.98241668089465 22.97461267608394 a54.21128027451111,54.21128027451111 0 0,0 -0.649536840170465,0.6664820190873644 l -23.584493039573378 -23.38291738723904" fill="#d1ff1c" stroke="none" /><path d="M 114.13192950727249 115.5334660781643 l 22.27867725158124 24.48816894930857 a54.10603991071726,54.10603991071726 0 0,0 -0.6923897706714213,0.6191392024215823 l -21.85502245408644 -24.86700368161354" fill="#d3ff1c" stroke="none" /><path d="M 113.03279911837588 116.46651593811092 l 13.601699758078817 17.185303311857954 a42.91668054768964,42.91668054768964 0 0,0 -0.581602880625672,0.452257917768099 l -13.304686932817916 -17.416262281246844" fill="#ff720a" stroke="none" /><path d="M 111.8722381534696 117.32195027204791 l 16.834961284150506 24.562711632488963 a50.778225672119135,50.778225672119135 0 0,0 -0.7232359896370891,0.4866254508245254 l -16.410829006416414 -24.84808675737061" fill="#fff717" stroke="none" /><path d="M 111.27062007382361 117.71928675628689 l 12.806954723019807 20.134660003225868 a44.86257787253889,44.86257787253889 0 0,0 -0.6533612184946281,0.40774572272743576 l -12.459429375735464 -20.35154152279485" fill="#ff940d" stroke="none" /><line stroke="#e1ed5e" stroke-width="0.3" x1="143.1302829299769" x2="145.66735839644613" y1="173.24464959558577" y2="177.55315839532614" /><path d="M 143.63769802327073 174.10635135553383 a86.0,86.0 0 0,1 -40.68552437913181,11.842963189579606" fill="none" id="id18" stroke="none" /><text fill="#e1ed5e" style="font-size:6.75px; font-family:Arial;" text-anchor="middle"><textPath startOffset="21.407464694133747" xlink:href="#id18">June</textPath></text><path d="M 110.34350942703117 118.27599006163325 l 17.825360032098697 31.4957031837091 a57.19009228104075,57.19009228104075 0 0,0 -0.8585480462613037,0.4762221287283366 l -17.282067797681297 -31.79705822787058" fill="#a5ff21" stroke="none" /><path d="M 109.71004243097381 118.62028667847754 l 10.967520167824015 21.03166604354235 a44.71955891661392,44.71955891661392 0 0,0 -0.6837253821476368,0.3491150518608079 l -10.604867563962795 -21.216839047075997" fill="#ff910d" stroke="none" /><path d="M 108.73861861582097 119.09545874513695 l 8.702727392916549 19.017029945756345 a41.91374887563714,41.91374887563714 0 0,0 -0.6568215710022485,0.2937879342762032 l -8.374992419058673 -19.1636216309424" fill="#ff6008" stroke="none" /><path d="M 108.07796709384702 119.3841803445677 l 15.022391482074475 36.04827084738106 a60.05316987040677,60.05316987040677 0 0,0 -0.95497562712357,0.3883802738671328 l -14.401361393760464 -36.30083837782748" fill="#7cff26" stroke="none" /><path d="M 106.0420521117495 120.11202640906438 l 7.756102922371882 25.817544092812685 a47.957424126328405,47.957424126328405 0 0,0 -0.7904753425379688,0.2300958517017205 l -7.311767567452307 -25.946883638816924" fill="#ffc912" stroke="none" /><path d="M 104.64783097203109 120.47920084513623 l 5.275286715455682 23.243886624019314 a44.83499350368125,44.83499350368125 0 0,0 -0.7520271315539726,0.16390081313627625 l -4.875497167282573 -23.331018895289308" fill="#ff930d" stroke="none" /><line stroke="#e1ed5e" stroke-width="0.3" x1="101.45913802915013" x2="101.54496967792366" y1="184.9874750549273" y2="189.98673829345242" /><path d="M 101.47630435890484 185.9873277026323 a86.0,86.0 0 0,1 -42.54439059252881,-10.42667462771756" fill="none" id="id19" stroke="none" /><text fill="#e1ed5e" style="font-size:6.75px; font-family:Arial;" text-anchor="middle"><textPath startOffset="22.145653131862474" xlink:href="#id19">July</textPath></text><path d="M 100.0 121.0 l 5.449810851138501e-15 44.50108271979212 a65.50108271979212,65.50108271979212 0 0,0 -1.1244131852583081,-0.009651734861983643 l 0.7639202604094506 -44.494525383124575" fill="#33ff2f" stroke="none" /><path d="M 99.27912038922189 120.98762331915562 l -1.0277523717643011 29.921888927716438 a50.93953426391711,50.93953426391711 0 0,0 -0.8736718099454218,-0.037519226697490374 l 1.541249942310562 -29.89983713259312" fill="#fff917" stroke="none" /><path d="M 98.19965949673042 120.92268563240118 l -2.05526143213978 23.88525323902029 a44.97351500816204,44.97351500816204 0 0,0 -0.7686197225019011,-0.07278908685184293 l 2.4649807180266965 -23.846452396663263" fill="#ff960d" stroke="none" /><path d="M 95.70440661134978 120.55596938700252 l -6.390185556997363 30.579351163444045 a52.239897391478166,52.239897391478166 0 0,0 -0.876231200630407,-0.19097051190418704 l 6.9141791742469065 -30.46514919340614" fill="#f0ff19" stroke="none" /><path d="M 95.00130118170881 120.39639698878247 l -6.480568375025027 26.44293046948272 a48.22547223240163,48.22547223240163 0 0,0 -0.8023678442717909,-0.2039587683788434 l 6.933541512522197 -26.327786469268613" fill="#ffcd13" stroke="none" /><path d="M 93.95794788825049 120.11202640906438 l -8.779564478734658 29.224314751113077 a51.5146083885798,51.5146083885798 0 0,0 -0.8447399020265225,-0.261702580985615 l 9.279945013632814 -29.069295582320812" fill="#fcff18" stroke="none" /><path d="M 91.92203290615298 119.3841803445677 l -9.270099559797757 22.24486428226348 a45.09914381850285,45.09914381850285 0 0,0 -0.7120616300028482,-0.3039367680464069 l 9.650596264971036 -22.082452864557673" fill="#ff980e" stroke="none" /><path d="M 89.97174638481275 118.45085714620012 l -14.120518369829217 25.98016337335607 a50.5695439251091,50.5695439251091 0 0,0 -0.7591591726040905,-0.4210927959075796 l 14.56442173058941 -25.73393766201534" fill="#fff316" stroke="none" /><line stroke="#e1ed5e" stroke-width="0.3" x1="58.13341422392154" x2="55.67067388415222" y1="173.97424548756322" y2="178.32567169271397" /><path d="M 57.64086615596768 174.84453072859336 a86.0,86.0 0 0,1 -31.369924170532247,-30.572349798747897" fill="none" id="id20" stroke="none" /><text fill="#e1ed5e" style="font-size:6.75px; font-family:Arial;" text-anchor="middle"><textPath startOffset="22.145653131862474" xlink:href="#id20">August</textPath></text><path d="M 89.03521579738668 117.91015095944536 l -16.07153203052009 26.251639749332423 a51.780557683979076,51.780557683979076 0 0,0 -0.7541119986206745,-0.47062166102156866 l 16.519808157930477 -25.971882291469306" fill="#f7ff18" stroke="none" /><path d="M 88.4268655584334 117.5232005979908 l -18.285606395048767 27.686738673448687 a54.18009794449811,54.18009794449811 0 0,0 -0.7716889717365383,-0.5192267795689212 l 18.758191654882307 -27.368762219822646" fill="#d2ff1c" stroke="none" /><path d="M 85.86807049272751 115.53346607816431 l -18.225715815263023 20.03325435645282 a48.0833527667655,48.0833527667655 0 0,0 -0.6057820779759207,-0.5607028475732103 l 18.56692766455291 -19.71743376274723" fill="#ffcb12" stroke="none" /><path d="M 82.576782715395 111.72311816256416 l -28.112858074003235 18.9155855491822 a54.88409901056068,54.88409901056068 0 0,0 -0.519244245964454,-0.7862019686479945 l 28.433426758888416 -18.430203702195147" fill="#c7ff1e" stroke="none" /><line stroke="#e1ed5e" stroke-width="0.3" x1="26.387840678322732" x2="22.057713659400534" y1="142.50000000000003" y2="145.00000000000006" /><path d="M 25.521815274538284 143.00000000000003 a86.0,86.0 0 0,1 -11.493303480769212,-40.785679425670985" fill="none" id="id21" stroke="none" /><text fill="#e1ed5e" style="font-size:6.75px; font-family:Arial;" text-anchor="middle"><textPath startOffset="21.40746469413373" xlink:href="#id21">September</textPath></text><path d="M 81.63589988554817 110.18625677009913 l -26.244217374762982 14.557224979363632 a51.01119365692774,51.01119365692774 0 0,0 -0.4181816290339576,-0.7694070966439842 l 26.49024435341227 -14.10456304924506" fill="#fffa17" stroke="none" /><path d="M 81.29705330413844 109.54985784667822 l -24.546799747814955 12.533770854107177 a48.56158177033014,48.56158177033014 0 0,0 -0.3727219030627211,-0.7456934826300212 l 24.758341564089413 -12.110545515313403" fill="#ffd313" stroke="none" /><path d="M 80.83023694016515 108.57439118712176 l -29.982046239890934 13.410587926870964 a53.844588066762164,53.844588066762164 0 0,0 -0.37015876921875923,-0.8469957036069625 l 30.207838891126663 -12.893930153488153" fill="#d7ff1c" stroke="none" /><path d="M 80.16572619554312 106.89939002012753 l -20.723006797993698 7.208537489130811 a42.94096678548822,42.94096678548822 0 0,0 -0.23620512740479283,-0.6982984882716604 l 20.843697346970856 -6.851737326384989" fill="#ff720a" stroke="none" /><path d="M 79.83685265289637 105.86919833188381 l -28.777531278825624 8.376719947031457 a50.97191591431522,50.97191591431522 0 0,0 -0.23733860952141464,-0.8422309964642939 l 28.917088380421614 -7.881481026664167" fill="#fffa17" stroke="none" /><path d="M 79.56144815229197 104.8234425847677 l -27.892161052179425 6.582474061897307 a49.65836026251791,49.65836026251791 0 0,0 -0.18867608484787232,-0.8313416429137095 l 28.001047998584962 -6.102698085044572" fill="#ffe515" stroke="none" /><path d="M 79.48165901384964 104.47187691870673 l -28.28052530383752 6.1636088629434695 a49.94439817436786,49.94439817436786 0 0,0 -0.17538163108939053,-0.8392645936278793 l 28.382164645751278 -5.677227818030182" fill="#ffe915" stroke="none" /><path d="M 79.2786578344484 103.40968896794605 l -30.657614236293988 5.0446987559917345 a52.0698937268881,52.0698937268881 0 0,0 -0.13756000040413027,-0.8832338814805236 l 30.739695728836384 -4.517676692579761" fill="#f3ff19" stroke="none" /><path d="M 79.0935383218832 101.97986365728391 l -30.39719670745184 2.878646132041947 a51.53319785454909,51.53319785454909 0 0,0 -0.07584306935641279,-0.8814114300371296 l 30.442133399505995 -2.356413654629155" fill="#fbff18" stroke="none" /><path d="M 79.03789590574601 101.26102812881392 l -22.865083527803048 1.3755066460214314 a43.906419695505875,43.906419695505875 0 0,0 -0.038801588676248645,-0.7527404543915032 l 22.88532670593587 -0.9827943982531975" fill="#ff830c" stroke="none" /><line stroke="#e1ed5e" stroke-width="0.3" x1="15.003131293944662" x2="10.003315487706104" y1="100.72959589197737" y2="100.7725132973878" /><path d="M 14.003168132696942 100.73817937305945 a86.0,86.0 0 0,1 10.791469493833604,-42.45332614584628" fill="none" id="id22" stroke="none" /><text fill="#e1ed5e" style="font-size:6.75px; font-family:Arial;" text-anchor="middle"><textPath startOffset="22.145653131862435" xlink:href="#id22">October</textPath></text><path d="M 79.00077361379809 100.18025310272382 l -20.984035554289022 0.18012270770188607 a41.984808608455204,41.984808608455204 0 0,0 0.0,-0.7207516208513995 l 20.984035554289022 0.18012270770187835" fill="#ff6108" stroke="none" /><path d="M 79.0935383218832 98.0201363427161 l -33.42184240133517 -3.165083223964957 a54.571376220141914,54.571376220141914 0 0,0 0.09632525502208045,-0.9318594631114612 l 33.36258475383143 3.738347209359331" fill="#ccff1d" stroke="none" /><path d="M 79.73907114497095 94.47779374421319 l -33.478422569896594 -9.124692943357768 a55.69963687243895,55.69963687243895 0 0,0 0.2593521182992996,-0.9203491731531367 l 33.316851959522715 9.698050040413918" fill="#bbff1f" stroke="none" /><path d="M 80.05021161711548 93.44210830539832 l -28.983728268583008 -9.527527171877207 a51.509511276943066,51.509511276943066 0 0,0 0.2833380704842662,-0.8376386595109688 l 28.815904776526377 10.023667505862338" fill="#fcff18" stroke="none" /><path d="M 80.5471966667186 92.08871423366112 l -30.355571942246875 -12.34534684391236 a53.76993037278875,53.76993037278875 0 0,0 0.3550714135132777,-0.852042133222423 l 30.13917468419712 12.864621486576047" fill="#d8ff1c" stroke="none" /><line stroke="#e1ed5e" stroke-width="0.3" x1="26.387840678322718" x2="22.05771365940052" y1="57.49999999999999" y2="54.99999999999999" /><path d="M 25.521815274538284 56.99999999999999 a86.0,86.0 0 0,1 29.574782752854787,-30.34633250058573" fill="none" id="id23" stroke="none" /><text fill="#e1ed5e" style="font-size:6.75px; font-family:Arial;" text-anchor="middle"><textPath startOffset="21.40746469413373" xlink:href="#id23">November</textPath></text><path d="M 81.81346652052679 89.5 l -27.51076821634465 -15.883349435319989 a52.76669887063997,52.76669887063997 0 0,0 0.45963887871930736,-0.7805673027223409 l 27.234055627495565 16.3532679063359" fill="#e8ff1a" stroke="none" /><path d="M 82.576782715395 88.27688183743585 l -24.32719584492659 -16.36842305272207 a50.321284605390275,50.321284605390275 0 0,0 0.4883806790102911,-0.7125620061094315 l 24.042625429100987 16.783619793901536" fill="#ffef16" stroke="none" /><path d="M 83.64595745247003 86.82634096563983 l -24.185605210473415 -19.48221154839438 a52.05640137255555,52.05640137255555 0 0,0 0.5665550529851487,-0.6911050440788539 l 23.847603338249638 19.894518874171723" fill="#f3ff19" stroke="none" /><path d="M 85.08716467003674 85.21462403516908 l -22.30292846162875 -22.112306286877086 a52.40660292500915,52.40660292500915 0 0,0 0.6388816089210643,-0.6334211151607523 l 21.920054932577706 22.49190741226651" fill="#edff19" stroke="none" /><path d="M 86.40962598614128 83.9905735841838 l -21.721611358060162 -25.588003561580024 a54.5644801279275,54.5644801279275 0 0,0 0.719278502024896,-0.6000477084155761 l 21.27915852187336 25.957113453907482" fill="#ccff1d" stroke="none" /><line stroke="#e1ed5e" stroke-width="0.3" x1="56.869717070023135" x2="54.33264160355391" y1="26.7553504044142" y2="22.446841604673864" /><path d="M 56.362301976729285 25.89364864446614 a86.0,86.0 0 0,1 42.16139366436587,-11.88097634709845" fill="none" id="id24" stroke="none" /><text fill="#e1ed5e" style="font-size:6.75px; font-family:Arial;" text-anchor="middle"><textPath startOffset="22.145653131862474" xlink:href="#id24">December</textPath></text><path d="M 89.34428304082924 81.90426304109057 l -16.413746528025385 -27.874129992326186 a53.347769597228236,53.347769597228236 0 0,0 0.7931226424334583,-0.45790957110934205 l 15.932831417731526 28.1517864607117" fill="#dfff1b" stroke="none" /><path d="M 90.28995756902619 81.37971332152246 l -13.628644546807493 -26.134722922644798 a50.47479761468501,50.47479761468501 0 0,0 0.7717182620757888,-0.39404484332621986 l 13.177999063018122 26.36482571764385" fill="#fff216" stroke="none" /><path d="M 92.25597844496254 80.48000691201159 l -10.99835411568076 -27.723037028181224 a50.824999167138614,50.824999167138614 0 0,0 0.8137511656540605,-0.3147764322410497 l 10.52083068753317 27.907753348560313" fill="#fff717" stroke="none" /><path d="M 94.30408787586887 79.78721728523814 l -8.961182751728307 -31.800076244256704 a54.038578139054536,54.038578139054536 0 0,0 0.8950296449432336,-0.24394430974931733 l 8.413971705850397 31.94922104815016" fill="#d4ff1c" stroke="none" /><path d="M 96.41257539226777 79.30868818359171 l -5.1824293159164085 -29.890875117207734 a51.33680914148649,51.33680914148649 0 0,0 0.8696027587189242,-0.14309280302454078 l 4.668549054144411 29.975433918727944" fill="#feff18" stroke="none" /><path d="M 98.9189461498227 79.02784411241856 l -1.6854580261422343 -32.69743543342749 a53.7408468534497,53.7408468534497 0 0,0 0.9217175542909075,-0.039582517687798004 l 1.1239147112505068 32.721550519541125" fill="#d9ff1c" stroke="none" /></svg>