<?xml version="1.0" encoding="utf-8" ?>
<svg baseProfile="full" height="200mm" version="1.1" viewBox="0,0,200,200" width="200mm" xmlns="http://www.w3.org/2000/svg" xmlns:ev="http://www.w3.org/2001/xml-events" xmlns:xlink="http://www.w3.org/1999/xlink"><defs /><rect fill="#1a1a1a" height="200" width="200" x="0" y="0" /><text alignment-baseline="middle" fill="#e1ed5e" style="dominant-baseline: central; font-size:9.0px; font-family:Arial;" text-anchor="middle" x="100.0" y="100.0">2025</text><line stroke="#e1ed5e" stroke-width="0.3" x1="100.0" x2="100.0" y1="15.0" y2="10.0" /><path d="M 100.0 14.0 a86.0,86.0 0 0,1 42.46469731375804,11.215312516191453" fill="none" id="id121" stroke="none" /><text fill="#e1ed5e" style="font-size:6.75px; font-family:Arial;" text-anchor="middle"><textPath startOffset="22.20632615414155" xlink:href="#id121">January</textPath></text><path d="M 100.0 79.0 l 0.0 -30.220234672608356 a51.220234672608356,51.220234672608356 0 0,0 0.8816721418050402,0.007588830478345218 l -0.5201916625325118 30.21575721873857" fill="red" stroke="none" /><path d="M 102.88285421437855 79.19881850522331 l 4.1751708519335295 -30.125868394455782 a51.413812621289445,51.413812621289445 0 0,0 0.8755797251334185,0.12903769121220693 l -4.693119557495605 30.049536219082608" fill="red" stroke="none" /><path d="M 104.307194497241 79.44645832069477 l 6.190295721138991 -29.539530010347686 a51.18117947243585,51.18117947243585 0 0,0 0.8607145674807057,0.1881188669907029 l -6.697853012773225 29.428597645261114" fill="red" stroke="none" /><path d="M 105.01212808612495 79.60689891045804 l 7.643423281774157 -31.099186009807223 a53.024698124056634,53.024698124056634 0 0,0 0.8844800206198508,0.2254736510251672 l -8.177612191079033 30.96300936261319" fill="red" stroke="none" /><path d="M 105.71112130821622 79.79150937346287 l 8.259739465507055 -29.226636689752272 a51.37136131675412,51.37136131675412 0 0,0 0.8488745193227621,0.2478097498622983 l -8.761604202553244 29.080128610971272" fill="red" stroke="none" /><path d="M 106.74666289553966 80.11325718540242 l 10.071260093255447 -29.686463129186883 a52.34830733846043,52.34830733846043 0 0,0 0.8508294929258637,0.2968377036068066 l -10.580771590244584 29.508704572407872" fill="red" stroke="none" /><path d="M 107.4271985657038 80.35727306442388 l 11.16962475307292 -29.540328975528418 a52.58150650470783,52.58150650470783 0 0,0 0.843850138179336,0.3274007436151058 l -11.676458056251924 29.343685528022764" fill="red" stroke="none" /><path d="M 108.09893153111575 80.62456947434976 l 12.165205795772376 -29.103357501005235 a52.543583339322936,52.543583339322936 0 0,0 0.8314802936931046,0.355996468573586 l -12.664369847255797 28.88964150446886" fill="red" stroke="none" /><path d="M 109.73455568895987 81.39251694778311 l 13.653076434738617 -26.09768709404402 a50.45328110400345,50.45328110400345 0 0,0 0.7660608856624314,0.4092031947523263 l -14.10028236692936 25.85880517278994" fill="red" stroke="none" /><path d="M 110.36928655335952 81.73862282372117 l 14.538558826795319 -25.603893283247185 a50.44365880830877,50.44365880830877 0 0,0 0.7513781572211031,0.4352467267666837 l -14.977133716481749 25.349842399090452" fill="red" stroke="none" /><line stroke="#e1ed5e" stroke-width="0.3" x1="143.23703022742887" x2="145.7803849466894" y1="26.81831364943548" y2="22.513508569990506" /><path d="M 143.74570117128098 25.957352633546492 a86.0,86.0 0 0,1 28.547481713284135,27.462654790039103" fill="none" id="id122" stroke="none" /><text fill="#e1ed5e" style="font-size:6.75px; font-family:Arial;" text-anchor="middle"><textPath startOffset="19.985693538727396" xlink:href="#id122">February</textPath></text><path d="M 111.2981086023043 82.29822771554956 l 16.758055806442023 -26.256367172399706 a52.1485031984475,52.1485031984475 0 0,0 0.752510286910644,0.4894536230421094 l -17.207533119136947 25.964014625198068" fill="red" stroke="none" /><path d="M 111.90073688211348 82.69761687909136 l 33.40618872613535 -48.56898204494406 a79.94844749514843,79.94844749514843 0 0,0 1.1271545591402339,0.7896438003802596 l -34.23727442485923 47.98675340179987" fill="red" stroke="none" /><path d="M 112.77801427241765 83.33499621200491 l 18.096255406336894 -23.601019568909283 a50.74025192266226,50.74025192266226 0 0,0 0.6885390448079937,0.5374156458979915 l -18.499827006304315 23.286025533788067" fill="red" stroke="none" /><path d="M 113.34407831869373 83.78471172551755 l 18.909426011787254 -22.978117076589744 a50.758364479264,50.758364479264 0 0,0 0.6698713405576225,0.5609979832485641 l -19.302154889303992 22.64921793594736" fill="red" stroke="none" /><path d="M 113.89432698308785 84.25364557470405 l 19.853193677345896 -22.499501019232383 a51.006280097750306,51.006280097750306 0 0,0 0.6533394718998173,0.5865746286951273 l -20.237544136841706 22.154427381767963" fill="red" stroke="none" /><path d="M 114.42810811169701 84.74124197986012 l 21.048725463246036 -22.26053519904292 a51.636257457054555,51.636257457054555 0 0,0 0.6405766811764673,0.6162342597635277 l -21.428785388034925 21.89491785251709" fill="red" stroke="none" /><path d="M 114.68862486808459 84.99185889309783 l 22.358767593934008 -22.84512961831472 a52.96583231510098,52.96583231510098 0 0,0 0.6460928596890351,0.6433183316218899 l -22.748696253790364 22.45687543604271" fill="red" stroke="none" /><path d="M 115.19652480421416 85.50635884689758 l 22.7558756706244 -21.70334996611741 a52.44622834758859,52.44622834758859 0 0,0 0.6174486422344262,0.6586511611741062 l -23.126091634829287 21.30842938806525" fill="red" stroke="none" /><path d="M 115.68641384162765 86.03803664274999 l 22.746173855361704 -20.245624595433053 a51.451169769280526,51.451169769280526 0 0,0 0.5831331920726768,0.6666220433039237 l -23.091298911012228 19.85108699592618" fill="red" stroke="none" /><path d="M 116.15771136456269 86.58626213691792 l 45.192496208906306 -37.51770803717449 a79.7361909724718,79.7361909724718 0 0,0 0.8676114225377735,1.063589016501952 l -45.83160612352049 36.73423485106444" fill="red" stroke="none" /><path d="M 116.82858285166822 87.43820079747576 l 32.11649098132734 -23.973552280257632 a61.07742758571121,61.07742758571121 0 0,0 0.6216442765027658,0.8479220945318833 l -32.524397870343726 23.417167742054254" fill="red" stroke="none" /><path d="M 117.2510076193507 88.02491185347247 l 48.39407944966994 -33.59359522453602 a79.91109034715734,79.91109034715734 0 0,0 0.7746639484007942,1.1367237557676182 l -48.96516786373947 32.755593445497986" fill="red" stroke="none" /><line stroke="#e1ed5e" stroke-width="0.3" x1="172.23445277983987" x2="176.4835382374775" y1="55.19839476539836" y2="52.563006222186495" /><path d="M 173.08426987136738 54.67131705675599 a86.0,86.0 0 0,1 12.851231095245387,41.99856678651699" fill="none" id="id123" stroke="none" /><text fill="#e1ed5e" style="font-size:6.75px; font-family:Arial;" text-anchor="middle"><textPath startOffset="22.20632615414155" xlink:href="#id123">March</textPath></text><path d="M 117.84615892207809 88.93136811851018 l 8.151697744531837 -5.055885803626318 a30.592296772802413,30.592296772802413 0 0,0 0.2737052027499481,0.4498993873835421 l -8.23751874556801 4.914818643035694" fill="red" stroke="none" /><path d="M 118.03404312379186 89.2402003453031 l 26.24515177601931 -15.658861026262427 a51.56154316107238,51.56154316107238 0 0,0 0.44819337492545436,0.7661077617646569 l -26.51080482541509 15.204773852143873" fill="red" stroke="none" /><path d="M 118.3937258080291 89.86733742301442 l 26.31298957614671 -14.495195130637985 a51.041373176166175,51.041373176166175 0 0,0 0.4173043037674111,0.7732014973410953 l -26.558601979132586 14.04011264996443" fill="red" stroke="none" /><path d="M 118.89224826269711 90.83032412892265 l 27.243577945558666 -13.22313659314256 a51.28306260332063,51.28306260332063 0 0,0 0.378619935778339,0.797470144871206 l -27.467156075178764 12.752224032630814" fill="red" stroke="none" /><path d="M 119.04729006885535 91.15688171328212 l 21.720317730714058 -10.084129460067748 a44.947063897074685,44.947063897074685 0 0,0 0.3197612955011121,0.7045516286707852 l -21.890681343178517 9.7087558225549" fill="red" stroke="none" /><path d="M 119.34039704204932 91.81776055985345 l 28.167676476150064 -11.91674984227841 a51.58474987421836,51.58474987421836 0 0,0 0.33893222714486143,0.820751271894387 l -28.36863039018112 11.43012399993072" fill="red" stroke="none" /><path d="M 119.61058180528143 92.48833698450437 l 29.331301809602813 -11.235100375257415 a52.40943721699131,52.40943721699131 0 0,0 0.31544344683046915,0.8452316088908918 l -29.52034984493491 10.72854562933719" fill="red" stroke="none" /><path d="M 119.85752413597 93.16781622104841 l 28.39416857266615 -9.76930339405126 a51.02778875871488,51.02778875871488 0 0,0 0.2786183024722237,0.8330332611850403 l -28.558124168910144 9.279097029943905" fill="red" stroke="none" /><path d="M 120.28053869075195 94.5502522615342 l 31.526085004593583 -8.471629529979419 a53.644487170272406,53.644487170272406 0 0,0 0.2319579147617724,0.8938284671655785 l -31.66723925122566 7.9277046372649895" fill="red" stroke="none" /><path d="M 120.45610955862082 95.25157060432595 l 29.208730862614928 -6.780155133649161 a50.98533745417955,50.98533745417955 0 0,0 0.19108724943996067,0.8566066707950674 l -29.321112499056927 6.276370293304129" fill="red" stroke="none" /><path d="M 120.67395015179393 96.31383870115 l 29.6869484013236 -5.29317713714329 a51.155142672320856,51.155142672320856 0 0,0 0.14710303998327906,0.8682104690069576 l -29.773663302827103 4.781380879820494" fill="red" stroke="none" /><path d="M 120.78858239683441 97.02765380044208 l 29.70643300149959 -4.247418200476942 a51.008544167325525,51.008544167325525 0 0,0 0.1167949945619088,0.8702583701493897 l -29.775143995119336 3.735441488262888" fill="red" stroke="none" /><path d="M 120.87857604477298 97.74499172005257 l 29.441673475628008 -3.179872866840984 a50.61289800905628,50.61289800905628 0 0,0 0.0860970568778903,0.8669856131342062 l -29.492047658188127 2.6726117230023427" fill="red" stroke="none" /><path d="M 120.96714384426684 98.82574320788733 l 30.229465914262157 -1.6929895619267619 a51.276836411988796,51.276836411988796 0 0,0 0.04176960248620921,0.8816902912323098 l -30.254129124981862 1.1723881640714524" fill="red" stroke="none" /><line stroke="#e1ed5e" stroke-width="0.3" x1="184.98032266829074" x2="189.97916517819016" y1="98.17113171792111" y2="98.06355123074" /><path d="M 185.9800911702706 98.14961562048488 a86.0,86.0 0 0,1 -9.607161424134198,41.387399972396054" fill="none" id="id124" stroke="none" /><text fill="#e1ed5e" style="font-size:6.75px; font-family:Arial;" text-anchor="middle"><textPath startOffset="21.466115282336823" xlink:href="#id124">April</textPath></text><path d="M 120.99824983174949 100.27111621757518 l 57.73292434918614 0.7454112702021112 a78.73773628980092,78.73773628980092 0 0,0 -0.029162722723165963,1.3550771322269672 l -57.71153956377797 -1.739078218219193" fill="red" stroke="none" /><path d="M 120.92983693683757 101.71520430193887 l 35.861507243444024 2.938857654915924 a56.98172572414289,56.98172572414289 0 0,0 -0.08852627650376778,0.9768800844434343 l -35.805606370663185 -3.5557191279079294" fill="red" stroke="none" /><path d="M 120.8583938346157 102.4346265915055 l 30.268883168323942 3.5330346354126516 a51.47437648242651,51.47437648242651 0 0,0 -0.11029853591279655,0.8791878549225164 l -30.203583123164297 -4.053540244622563" fill="red" stroke="none" /><path d="M 120.81339534386255 102.79330883721812 l 29.444566630488936 3.9516747180442873 a50.70855494860921,50.70855494860921 0 0,0 -0.12355006359630506,0.8641088570328584 l -29.37218251587603 -4.457929047057555" fill="red" stroke="none" /><path d="M 120.70491114924044 103.5080841355445 l 62.114733447721314 10.524252406633499 a84.0,84.0 0 0,0 -0.25381423064324515,1.4235249970671267 l -61.924372774738885 -11.591896154433844" fill="red" stroke="none" /><path d="M 120.49622156327973 104.57218783832717 l 29.236174016348652 6.521849837740342 a50.95477251491411,50.95477251491411 0 0,0 -0.19833401278602383,0.8544177361988166 l -29.119579437632076 -7.024136231287724" fill="red" stroke="none" /><path d="M 120.23288151984713 105.62410040840565 l 28.460806088890827 7.911202909534685 a50.539881765255515,50.539881765255515 0 0,0 -0.24020249195611718,0.8361763861057295 l -28.320410960048612 -8.399936771144997" fill="red" stroke="none" /><path d="M 120.02730092923936 106.31721596034902 l 55.63125152195283 17.54777796820266 a79.3331865880831,79.3331865880831 0 0,0 -0.4220062711172775,1.298801753202371 l -55.320952999819305 -18.502778621382827" fill="red" stroke="none" /><path d="M 119.79798401119884 107.00284435728193 l 54.714645221778355 19.353391958255823 a79.03659347372961,79.03659347372961 0 0,0 -0.46471913270467796,1.2787074642776417 l -54.37340182806845 -20.292347219539597" fill="red" stroke="none" /><path d="M 119.54520255179757 107.68017299344265 l 29.235095296090154 11.487759656555914 a52.41113526917272,52.41113526917272 0 0,0 -0.33717177898416817,0.8368327041823536 l -29.033020902848595 -11.98929172858108" fill="red" stroke="none" /><path d="M 119.26925614724726 108.34839909993367 l 28.846753708682737 12.497846873657261 a52.43773808668152,52.43773808668152 0 0,0 -0.3659627625299839,0.8251494181573646 l -28.627349861421482 -12.992544628307314" fill="red" stroke="none" /><path d="M 118.97047184881838 109.00673069616215 l 27.455575443671883 13.035256903465907 a51.39286997771869,51.39286997771869 0 0,0 -0.38629510281934837,0.795882328637845 l -27.227127084237818 -13.505928188069028" fill="red" stroke="none" /><line stroke="#e1ed5e" stroke-width="0.3" x1="174.80103733775053" x2="179.2010983576182" y1="140.37084112569926" y2="142.7455964860345" /><path d="M 175.68104954172406 140.8457921977663 a86.0,86.0 0 0,1 -30.038265399797805,32.042727171017184" fill="none" id="id125" stroke="none" /><text fill="#e1ed5e" style="font-size:6.75px; font-family:Arial;" text-anchor="middle"><textPath startOffset="22.206326154141568" xlink:href="#id125">May</textPath></text><path d="M 118.48025628344425 109.97397251340804 l 51.75082764747154 27.930420692509955 a79.80694314669734,79.80694314669734 0 0,0 -0.6628673130641132,1.2032967160378347 l -51.26238392495591 -28.817087926945597" fill="red" stroke="none" /><path d="M 118.12598468904814 110.60418214915192 l 25.43555867352243 14.8804769432715 a50.468563573636175,50.468563573636175 0 0,0 -0.4451306261846305,0.7460645333512216 l -25.17564717163957 -15.316103570508826" fill="red" stroke="none" /><path d="M 117.55443506779139 111.5257021239791 l 50.19110501571125 32.9539357689637 a81.04255911737224,81.04255911737224 0 0,0 -0.7756810815314226,1.159537971098285 l -49.61642082876911 -33.81301065426779" fill="red" stroke="none" /><path d="M 117.14729908036423 112.12312394758627 l 24.258627743751116 17.150826468794694 a50.70912096600302,50.70912096600302 0 0,0 -0.5100376694709443,0.7083977137399409 l -23.95981028190457 -17.565857787985767" fill="red" stroke="none" /><line stroke="#e1ed5e" stroke-width="0.3" x1="143.8653032363475" x2="146.44561519142675" y1="172.8068346515853" y2="177.08958963109032" /><path d="M 144.38136562736335 173.6633856474863 a86.0,86.0 0 0,1 -40.68145358897372,12.25698825130547" fill="none" id="id126" stroke="none" /><text fill="#e1ed5e" style="font-size:6.75px; font-family:Arial;" text-anchor="middle"><textPath startOffset="21.466115282336833" xlink:href="#id126">June</textPath></text><line stroke="#e1ed5e" stroke-width="0.3" x1="102.19456741930631" x2="102.32365962044197" y1="184.97166512339345" y2="189.96999836594603" /><path d="M 102.22038585953345 185.97133177190398 a86.0,86.0 0 0,1 -42.740103519485714,-10.115201625700543" fill="none" id="id127" stroke="none" /><text fill="#e1ed5e" style="font-size:6.75px; font-family:Arial;" text-anchor="middle"><textPath startOffset="22.20632615414155" xlink:href="#id127">July</textPath></text><line stroke="#e1ed5e" stroke-width="0.3" x1="58.666819895761336" x2="56.23545636021788" y1="174.27360380694188" y2="178.64263932499728" /><path d="M 58.180547188652646 175.14741091055294 a86.0,86.0 0 0,1 -31.652253787137756,-30.449443065178592" fill="none" id="id128" stroke="none" /><text fill="#e1ed5e" style="font-size:6.75px; font-family:Arial;" text-anchor="middle"><textPath startOffset="22.20632615414155" xlink:href="#id128">August</textPath></text><line stroke="#e1ed5e" stroke-width="0.3" x1="26.63291911575756" x2="22.317208475507996" y1="142.92168965132927" y2="145.44649492493687" /><path d="M 25.769776987707644 143.4266507060508 a86.0,86.0 0 0,1 -11.730757126820373,-40.83630448921669" fill="none" id="id129" stroke="none" /><text fill="#e1ed5e" style="font-size:6.75px; font-family:Arial;" text-anchor="middle"><textPath startOffset="21.46611528233685" xlink:href="#id129">September</textPath></text><line stroke="#e1ed5e" stroke-width="0.3" x1="15.007084014347285" x2="10.007500721073583" y1="101.09737516637583" y2="101.16192664675087" /><path d="M 14.007167355692545 101.11028546245083 a86.0,86.0 0 0,1 10.666146001902534,-42.60595125391555" fill="none" id="id130" stroke="none" /><text fill="#e1ed5e" style="font-size:6.75px; font-family:Arial;" text-anchor="middle"><textPath startOffset="22.20632615414155" xlink:href="#id130">October</textPath></text><line stroke="#e1ed5e" stroke-width="0.3" x1="26.266209847984243" x2="21.928928074336255" y1="57.711370442889674" y2="55.22380399835377" /><path d="M 25.398753493254645 57.213857153982495 a86.0,86.0 0 0,1 29.58750427330803,-30.492523968695096" fill="none" id="id131" stroke="none" /><text fill="#e1ed5e" style="font-size:6.75px; font-family:Arial;" text-anchor="middle"><textPath startOffset="21.46611528233685" xlink:href="#id131">November</textPath></text><line stroke="#e1ed5e" stroke-width="0.3" x1="56.76296977257108" x2="54.21961505331056" y1="26.818313649435495" y2="22.513508569990535" /><path d="M 56.25429882871898 25.957352633546506 a86.0,86.0 0 0,1 42.26535254187918,-11.944610805530505" fill="none" id="id132" stroke="none" /><text fill="#e1ed5e" style="font-size:6.75px; font-family:Arial;" text-anchor="middle"><textPath startOffset="22.20632615414155" xlink:href="#id132">December</textPath></text></svg>