<?xml version="1.0" encoding="utf-8" ?>
<svg baseProfile="full" height="200mm" version="1.1" viewBox="0,0,200,200" width="200mm" xmlns="http://www.w3.org/2000/svg" xmlns:ev="http://www.w3.org/2001/xml-events" xmlns:xlink="http://www.w3.org/1999/xlink"><defs /><rect fill="#1a1a1a" height="200" width="200" x="0" y="0" /><text alignment-baseline="middle" fill="#e1ed5e" style="dominant-baseline: central; font-size:9.0px; font-family:Arial;" text-anchor="middle" x="100.0" y="100.0">2018</text><line stroke="#e1ed5e" stroke-width="0.3" x1="100.0" x2="100.0" y1="15.0" y2="10.0" /><path d="M 100.0 14.0 a86.0,86.0 0 0,1 42.46469731375804,11.215312516191453" fill="none" id="id37" stroke="none" /><text fill="#e1ed5e" style="font-size:6.75px; font-family:Arial;" text-anchor="middle"><textPath startOffset="22.20632615414155" xlink:href="#id37">January</textPath></text><path d="M 100.0 79.0 l 0.0 -16.46414868940012 a37.46414868940012,37.46414868940012 0 0,0 0.6448837344657915,0.00555071789960814 l -0.2834032551932631 16.46170934810907" fill="#ffbf11" stroke="none" /><path d="M 101.08401301168833 79.027996857942 l 0.9057765631246347 -17.523727780966865 a38.547121317291214,38.547121317291214 0 0,0 0.6623459180601087,0.03995451456562933 l -1.2072845300243553 17.505539997020932" fill="#ffcd13" stroke="none" /><path d="M 101.44485096284872 79.0497635885617 l 0.9651630596923485 -13.994795862041455 a35.028038029318544,35.028038029318544 0 0,0 0.6011642168169242,0.04666191332965144 l -1.2059174658716139 13.976108686523338" fill="#ff9f0e" stroke="none" /><path d="M 102.16513564639614 79.11191278185805 l 1.571127522192532 -15.157410007546714 a36.23861935438602,36.23861935438602 0 0,0 0.6199104138539219,0.06965415798960109 l -1.8318046395561793 15.128119896086512" fill="#ffaf10" stroke="none" /><path d="M 102.52436894288641 79.15227682838746 l 2.170522247115846 -17.925449080338243 a39.05638090972341,39.05638090972341 0 0,0 0.666720824472532,0.08655949803232035 l -2.4787578000962243 17.885431259141786" fill="#ffd413" stroke="none" /><path d="M 103.2404852339499 79.25152402106235 l 1.972866031495103 -12.632047520316211 a33.785179894461955,33.785179894461955 0 0,0 0.5738184254142219,0.09468495685934016 l -2.1900136630482 12.596216300517247" fill="#ff8e0d" stroke="none" /><path d="M 103.95276090670814 79.375362276772 l 3.129315723969839 -16.32808172610391 a37.6252479606956,37.6252479606956 0 0,0 0.6350310347332887,0.1273812515056925 l -3.409913168170253 16.271796518521008" fill="#ffc112" stroke="none" /><path d="M 106.74666289553966 80.11325718540242 l 7.104557026047435 -20.941686367945668 a43.11399915143711,43.11399915143711 0 0,0 0.7007420851041065,0.2444751540613001 l -7.463981115214816 20.81629036071216" fill="#f6ff19" stroke="none" /><path d="M 107.08798089147638 80.2323363322302 l 3.7698602429903594 -10.513759912579 a32.169198438161644,32.169198438161644 0 0,0 0.51963622266446,0.19138640619779995 l -3.950278791427396 10.447310238574875" fill="#ff770b" stroke="none" /><path d="M 107.76421540070413 80.48803036053334 l 5.821880214151398 -14.630757149374256 a36.74653434860806,36.74653434860806 0 0,0 0.5856979896763569,0.23892091598969564 l -6.072862073416142 14.52837534720098" fill="#ffb610" stroke="none" /><path d="M 108.76106565485865 80.91482961587045 l 7.876784007596332 -17.158844686958147 a39.88040458500498,39.88040458500498 0 0,0 0.6214160629714783,0.291763173844807 l -8.17097828186741 17.020716530473337" fill="#ffdf14" stroke="none" /><path d="M 109.41281617654863 81.2277094730956 l 10.13732759044883 -20.217207594941723 a43.61638551168255,43.61638551168255 0 0,0 0.6682435527461719,0.3423003024369924 l -10.483831630783758 20.03971476719223" fill="#f0ff19" stroke="none" /><path d="M 110.05341064243156 81.56283822128135 l 7.004889200739836 -12.846414021023492 a35.63211624865626,35.63211624865626 0 0,0 0.535967960873116,0.2982655899456902 l -7.224981250684986 12.723933033517621" fill="#ffa70f" stroke="none" /><line stroke="#e1ed5e" stroke-width="0.3" x1="143.23703022742887" x2="145.7803849466894" y1="26.81831364943548" y2="22.513508569990506" /><path d="M 143.74570117128098 25.957352633546492 a86.0,86.0 0 0,1 28.547481713284135,27.462654790039103" fill="none" id="id38" stroke="none" /><text fill="#e1ed5e" style="font-size:6.75px; font-family:Arial;" text-anchor="middle"><textPath startOffset="19.985693538727396" xlink:href="#id38">February</textPath></text><path d="M 110.68208982089419 81.91981866633111 l 7.490093458693419 -12.67750507718236 a35.724830559362864,35.724830559362864 0 0,0 0.5267506056726723,0.3173613460650305 l -7.707206130583729 12.546697121658715" fill="#ffa80f" stroke="none" /><path d="M 111.2981086023043 82.29822771554956 l 9.654327422030448 -15.12631110214793 a38.9446740157277,38.9446740157277 0 0,0 0.5619771617546488,0.3655255784169716 l -9.913271609569378 14.957886599571431" fill="#ffd313" stroke="none" /><path d="M 113.34407831869373 83.78471172551755 l 17.69136027198752 -21.49796336073109 a48.8414557258164,48.8414557258164 0 0,0 0.6445733970645228,0.5398116831030001 l -18.05879120601116 21.190250520234272" fill="#b1ff20" stroke="none" /><path d="M 113.89432698308785 84.25364557470407 l 13.48674469118789 -15.284443946757253 a41.38397677409512,41.38397677409512 0 0,0 0.5300873829435396,0.4759176862863021 l -13.747843061727421 15.050027251701653" fill="#fff216" stroke="none" /><path d="M 114.42810811169701 84.74124197986012 l 10.065951022270191 -10.645464374284831 a35.65091402359968,35.65091402359968 0 0,0 0.44226954684194003,0.42546295365224357 l -10.24770381272455 10.470618333870286" fill="#ffa70f" stroke="none" /><path d="M 115.68641384162765 86.03803664274999 l 12.031707117761055 -10.709028564422562 a37.10730483231755,37.10730483231755 0 0,0 0.42056383194231467,0.48077716171946616 l -12.214262813281218 10.500335846500148" fill="#ffbb11" stroke="none" /><path d="M 116.38621287248628 86.86637796730983 l 25.900506852209897 -20.75937070384299 a54.19318796411316,54.19318796411316 0 0,0 0.5771469213227719,0.7329179798924187 l -26.254007854126634 20.310460329997532" fill="#75ff27" stroke="none" /><path d="M 117.45458315368197 88.32363383020206 l 9.287952165025816 -6.213240928846359 a32.174543313249956,32.174543313249956 0 0,0 0.3039779832938557,0.46297932328724073 l -9.393526783677595 6.052443541581444" fill="#ff770b" stroke="none" /><line stroke="#e1ed5e" stroke-width="0.3" x1="172.23445277983987" x2="176.4835382374775" y1="55.19839476539836" y2="52.563006222186495" /><path d="M 173.08426987136738 54.67131705675599 a86.0,86.0 0 0,1 12.851231095245387,41.99856678651699" fill="none" id="id39" stroke="none" /><text fill="#e1ed5e" style="font-size:6.75px; font-family:Arial;" text-anchor="middle"><textPath startOffset="22.20632615414155" xlink:href="#id39">March</textPath></text><path d="M 118.03404312379186 89.2402003453031 l 38.25641452619813 -22.825239630589166 a65.54823022965246,65.54823022965246 0 0,0 0.5697712040006997,0.9739236816865868 l -38.64364540466915 22.163336536548684" fill="#35ff68" stroke="none" /><path d="M 118.3937258080291 89.86733742301442 l 13.398197660832336 -7.38074588334414 a36.29663722369183,36.29663722369183 0 0,0 0.29675422080540353,0.5498405019971105 l -13.523259980856205 7.149024398014571" fill="#ffb010" stroke="none" /><path d="M 118.89224826269711 90.83032412892265 l 13.598004430670128 -6.600024062192674 a36.11509318919492,36.11509318919492 0 0,0 0.26663567988695575,0.5616027424181079 l -13.709598304398842 6.364978904134025" fill="#ffad10" stroke="none" /><path d="M 119.47837535516314 92.15188598940014 l 16.057755617932017 -6.469897747939014 a38.31216602144323,38.31216602144323 0 0,0 0.24119597457323555,0.6138174467863092 l -16.166745142386954 6.192531296256921" fill="#ffca12" stroke="none" /><path d="M 119.7369772167798 92.82701384747503 l 13.357502096612558 -4.854501098064173 a35.21228493846486,35.21228493846486 0 0,0 0.20213011747519447,0.5714490612367236 l -13.439085294897563 4.623854410400834" fill="#ffa10e" stroke="none" /><path d="M 119.97218684219823 93.5106431181261 l 13.705319325910274 -4.453128192149747 a35.41062554231733,35.41062554231733 0 0,0 0.18336720686021427,0.5813241553547757 l -13.779942016538694 4.216553870368553" fill="#ffa40f" stroke="none" /><path d="M 120.37134235888165 94.90015583598534 l 11.670841537969984 -2.9217256309379245 a33.031002571144484,33.031002571144484 0 0,0 0.1333307425015996,0.5527420055522048 l -11.719405080732402 2.7203983937263136" fill="#ff830c" stroke="none" /><path d="M 120.45610955862082 95.25157060432595 l 11.279590335081876 -2.618305214135489 a32.57949395792586,32.57949395792586 0 0,0 0.12210424014866512,0.5473693663510141 l -11.322988962232579 2.423757678234511" fill="#ff7d0b" stroke="none" /><path d="M 120.6074358757038 95.95851677861258 l 11.538768943856743 -2.262956991026945 a32.75857827643081,32.75857827643081 0 0,0 0.10375776760947641,0.5542781434654535 l -11.576012435376079 2.0640007700989287" fill="#ff7f0b" stroke="none" /><path d="M 120.78858239683441 97.02765380044208 l 62.36574719050324 -8.917038598673738 a84.0,84.0 0 0,0 0.19233600376865523,1.4331266317413425 l -62.50999919332973 7.84219362486773" fill="#4dd2ff" stroke="none" /><path d="M 120.94382443527127 98.46500227214037 l 11.49826911004013 -0.8427217776189121 a32.5291097887641,32.5291097887641 0 0,0 0.0361218864488791,0.5587895954387864 l -11.511071587493426 0.6446731179270905" fill="#ff7c0b" stroke="none" /><line stroke="#e1ed5e" stroke-width="0.3" x1="184.98032266829074" x2="189.97916517819016" y1="98.17113171792111" y2="98.06355123074" /><path d="M 185.9800911702706 98.14961562048488 a86.0,86.0 0 0,1 -9.607161424134198,41.387399972396054" fill="none" id="id40" stroke="none" /><text fill="#e1ed5e" style="font-size:6.75px; font-family:Arial;" text-anchor="middle"><textPath startOffset="21.466115282336823" xlink:href="#id40">April</textPath></text><path d="M 120.99513854157772 99.54816195383933 l 17.332115238894644 -0.3730058303671089 a38.336128518322994,38.336128518322994 0 0,0 0.008519735187112156,0.6598628793194304 l -17.335967981199474 0.07460669298721576" fill="#ffcb12" stroke="none" /><path d="M 120.99824983174949 100.27111621757518 l 11.686813446512724 0.15089279737659728 a32.687787522447984,32.687787522447984 0 0,0 -0.012106836300733137,0.5625571099953101 l -11.682484547526984 -0.3520397231620222" fill="#ff7f0b" stroke="none" /><path d="M 120.92983693683757 101.71520430193887 l 17.282771213779302 1.416326540180803 a38.34070822360664,38.34070822360664 0 0,0 -0.05956576594371544,0.6573032636536793 l -17.25583085155851 -1.7136111923830526" fill="#ffcb12" stroke="none" /><path d="M 120.8583938346157 102.4346265915055 l 11.299536243781153 1.318900756640964 a32.376247998808395,32.376247998808395 0 0,0 -0.06937534743791103,0.5529897780933729 l -11.275159387096394 -1.513208289021732" fill="#ff7a0b" stroke="none" /><path d="M 120.49622156327973 104.57218783832717 l 12.317819728681544 2.747793557183433 a33.62058050571348,33.62058050571348 0 0,0 -0.1308632011249194,0.5637552454379786 l -12.268695961626072 -2.959417459969976" fill="#ff8b0c" stroke="none" /><path d="M 120.02730092923936 106.31721596034902 l 8.274170220950968 2.6099233422973906 a29.676035540380212,29.676035540380212 0 0,0 -0.15785919661798695,0.4858406506228934 l -8.228018773316734 -2.7519628928980793" fill="#ff5407" stroke="none" /><path d="M 119.54520255179757 107.68017299344265 l 13.468333939635862 5.292303025037983 a35.47081512625925,35.47081512625925 0 0,0 -0.2281911616055697,0.5663517492840675 l -13.375240163772899 -5.523354142164863" fill="#ffa50f" stroke="none" /><path d="M 119.26925614724726 108.34839909993367 l 14.166522165844057 6.137641224693471 a36.43894394310724,36.43894394310724 0 0,0 -0.25430724275427385,0.5733956972594995 l -14.05877383835851 -6.380585258445659" fill="#ffb210" stroke="none" /><line stroke="#e1ed5e" stroke-width="0.3" x1="174.80103733775053" x2="179.2010983576182" y1="140.37084112569926" y2="142.7455964860345" /><path d="M 175.68104954172406 140.8457921977663 a86.0,86.0 0 0,1 -30.038265399797805,32.042727171017184" fill="none" id="id41" stroke="none" /><text fill="#e1ed5e" style="font-size:6.75px; font-family:Arial;" text-anchor="middle"><textPath startOffset="22.206326154141568" xlink:href="#id41">May</textPath></text><path d="M 118.48025628344425 109.97397251340804 l 10.442079280779527 5.635690876355746 a32.86583462550884,32.86583462550884 0 0,0 -0.2729798515121025,0.4955377228523016 l -10.343523019815915 -5.814599117605852" fill="#ff810b" stroke="none" /><path d="M 116.498646956653 112.99209946851258 l 11.597225017237266 9.132403486087755 a35.76131503400499,35.76131503400499 0 0,0 -0.38499965574057093,0.48034626693964166 l -11.43830744944184 -9.330677586605647" fill="#ffa90f" stroke="none" /><path d="M 115.56566222782051 114.09645910891815 l 6.518188305458511 5.902953152092768 a29.793840725258676,29.793840725258676 0 0,0 -0.3475289669169265,0.3771740557837575 l -6.415612930545863 -6.01427846267786" fill="#ff5607" stroke="none" /><path d="M 115.07121518719521 114.62390073753431 l 14.579727463823268 14.147000395323392 a41.315168547286106,41.315168547286106 0 0,0 -0.49963687523780836,0.506129516741924 l -14.334049963529925 -14.39587040604598" fill="#fff116" stroke="none" /><path d="M 114.0293411484842 115.62618273729858 l 5.702362041916991 6.351413823225575 a29.53565407048321,29.53565407048321 0 0,0 -0.38123166179572116,0.3363926164894611 l -5.592188027214681 -6.4486295814873245" fill="#ff5207" stroke="none" /><path d="M 112.34349029814194 116.9893568818739 l 7.718062117420002 10.623001159490352 a34.13075155818916,34.13075155818916 0 0,0 -0.4782736887406748,0.3412355779624366 l -7.534061100830443 -10.754280999297007" fill="#ff920d" stroke="none" /><path d="M 111.7513745106137 117.40417183066458 l 7.32330607477269 10.84605695944562 a34.086931016565394,34.086931016565394 0 0,0 -0.4891073694093632,0.32415369423484885 l -7.1355240066233625 -10.970508674771787" fill="#ff920d" stroke="none" /><path d="M 111.1453310114006 117.79835938074945 l 7.92597437523499 12.65725892113416 a35.93409766921028,35.93409766921028 0 0,0 -0.5270690244657481,0.3237688434823848 l -7.706926150836932 -12.791816231444923" fill="#ffab0f" stroke="none" /><line stroke="#e1ed5e" stroke-width="0.3" x1="143.8653032363475" x2="146.44561519142675" y1="172.8068346515853" y2="177.08958963109032" /><path d="M 144.38136562736335 173.6633856474863 a86.0,86.0 0 0,1 -40.68145358897372,12.25698825130547" fill="none" id="id42" stroke="none" /><text fill="#e1ed5e" style="font-size:6.75px; font-family:Arial;" text-anchor="middle"><textPath startOffset="21.466115282336833" xlink:href="#id42">June</textPath></text><path d="M 109.57404056367764 118.69057910512821 l 6.662900369566753 13.0074095256537 a35.614614052476355,35.614614052476355 0 0,0 -0.5480344457354467,0.2747958481002216 l -6.438012016148545 -13.120173214663224" fill="#ffa70f" stroke="none" /><path d="M 108.59647513512805 119.15986991738527 l 6.349561385734028 14.151936493829506 a36.5111004224906,36.5111004224906 0 0,0 -0.5756224045419613,0.25233594616805727 l -6.105018306534313 -14.25913699329202" fill="#ffb310" stroke="none" /><path d="M 107.93186726928326 119.44442032107085 l 5.535401334306632 13.569650945482909 a35.65524120286285,35.65524120286285 0 0,0 -0.5702782880326327,0.22692550001073195 l -5.301001970232133 -13.662923289899709" fill="#ffa70f" stroke="none" /><path d="M 106.91757812671514 119.82793768551818 l 5.524550658627354 15.835086238739411 a37.77112447536104,37.77112447536104 0 0,0 -0.615723768043409,0.20888693228893482 l -5.251157157646718 -15.927836157926468" fill="#ffc312" stroke="none" /><path d="M 105.88484417918355 120.15858648285463 l 4.13350265282235 14.15935038667222 a35.750357539851166,35.750357539851166 0 0,0 -0.592211196058606,0.16736479944391153 l -3.889160288659138 -14.228403979454649" fill="#ffa80f" stroke="none" /><path d="M 105.18746579009965 120.34920634021253 l 4.658913449053688 18.27582001155972 a39.8603041232293,39.8603041232293 0 0,0 -0.6663251824569658,0.16376651823677654 l -4.343634981853511 -18.353307788110527" fill="#ffdf14" stroke="none" /><path d="M 104.48393922423573 120.51570834832081 l 2.844390307054808 13.014155422294664 a34.32136620525496,34.32136620525496 0 0,0 -0.5782472580394472,0.1211773351149458 l -2.619951587585983 -13.061188738136151" fill="#ff950d" stroke="none" /><path d="M 103.41894727170886 120.7198165907248 l 1.8263610189435524 11.068279892496125 a32.217950541438064,32.217950541438064 0 0,0 -0.5479569753064873,0.08557961023850692 l -1.635568180028548 -11.098077810081739" fill="#ff780b" stroke="none" /><path d="M 101.26447882468166 120.96189622390904 l 0.6900693463801907 11.43962377524507 a32.4604183092052,32.4604183092052 0 0,0 -0.5580284911386963,0.028843698963310894 l -0.49305278682801473 -11.449807280970582" fill="#ff7b0b" stroke="none" /><line stroke="#e1ed5e" stroke-width="0.3" x1="102.19456741930631" x2="102.32365962044197" y1="184.97166512339345" y2="189.96999836594603" /><path d="M 102.22038585953345 185.97133177190398 a86.0,86.0 0 0,1 -42.740103519485714,-10.115201625700543" fill="none" id="id43" stroke="none" /><text fill="#e1ed5e" style="font-size:6.75px; font-family:Arial;" text-anchor="middle"><textPath startOffset="22.20632615414155" xlink:href="#id43">July</textPath></text><path d="M 100.18074693466247 120.99922214144158 l 0.13546417396179972 15.738260162159698 a36.738843142818666,36.738843142818666 0 0,0 -0.6324222172484995,0.0 l 0.13546417396178886 -15.738260162159698" fill="#ffb610" stroke="none" /><path d="M 99.09653310690486 120.98055641714683 l -0.994135691444779 23.08609216349017 a44.107487036762926,44.107487036762926 0 0,0 -0.7582537663127992,-0.03919305863522244 l 1.391377526171067 -23.065559298092747" fill="#eaff1a" stroke="none" /><path d="M 98.37488393609728 120.93702456842531 l -1.0409524575183564 13.41100962677407 a34.451347933506156,34.451347933506156 0 0,0 -0.5908499390340685,-0.05098101890674419 l 1.2716467142939667 -13.391104355588665" fill="#ff970d" stroke="none" /><path d="M 95.86986931433489 120.58985236759428 l -4.412771592258381 21.99889604749456 a43.437111677618276,43.437111677618276 0 0,0 -0.731829571542221,-0.15336200216231965 l 4.790792625229989 -21.9196780646057" fill="#f2ff19" stroke="none" /><path d="M 93.42475214034765 119.94407469862007 l -5.554367219656357 16.847534434732328 a38.73951554412591,38.73951554412591 0 0,0 -0.6315099381953864,-0.21424245830040556 l 5.843546890788969 -16.7494289895338" fill="#ffd013" stroke="none" /><path d="M 92.40401165467489 119.57807347666478 l -6.195703670163652 15.968947841890596 a38.128748907772035,38.128748907772035 0 0,0 -0.6098401502386975,-0.24266798144630833 l 6.469664896444208 -15.859933016038221" fill="#ffc812" stroke="none" /><path d="M 91.7346041902142 119.30500536409082 l -6.2737251090205985 14.653175682050332 a36.93973601765684,36.93973601765684 0 0,0 -0.5823801370974708,-0.25529833752893516 l 6.525025920775813 -14.543012791226944" fill="#ffb811" stroke="none" /><path d="M 90.42595943632237 118.69057910512821 l -8.832061535249839 17.242077019416477 a40.372519993690275,40.372519993690275 0 0,0 -0.6157945448528545,-0.3221546016194628 l 9.12754698262919 -17.087492998852298" fill="#ffe515" stroke="none" /><line stroke="#e1ed5e" stroke-width="0.3" x1="58.666819895761336" x2="56.23545636021788" y1="174.27360380694188" y2="178.64263932499728" /><path d="M 58.180547188652646 175.14741091055294 a86.0,86.0 0 0,1 -31.652253787137756,-30.449443065178592" fill="none" id="id44" stroke="none" /><text fill="#e1ed5e" style="font-size:6.75px; font-family:Arial;" text-anchor="middle"><textPath startOffset="22.20632615414155" xlink:href="#id44">August</textPath></text><path d="M 89.7882731507175 118.34994917583269 l -9.251864947762115 16.625126590125298 a40.026083126837236,40.026083126837236 0 0,0 -0.599154694582645,-0.34021567256101426 l 9.536668409265967 -16.46340775176965" fill="#ffe115" stroke="none" /><path d="M 89.1626897886671 117.98757091392108 l -9.638016173016547 15.997004422772807 a39.676067740655185,39.676067740655185 0 0,0 -0.5819549585245964,-0.35748426702049974 l 9.911950331473452 -15.828731688923929" fill="#ffdc14" stroke="none" /><path d="M 88.54995079064634 117.60387380957326 l -9.621636497325138 14.792781379675588 a38.64659371758572,38.64659371758572 0 0,0 -0.5545331664107532,-0.3675143449276995 l 9.874844362475853 -14.62496901365657" fill="#ffcf13" stroke="none" /><path d="M 87.95078237400918 117.19931262002967 l -9.932003953462544 14.177156247099155 a38.3100104502065,38.3100104502065 0 0,0 -0.5368375783485396,-0.3830193582299418 l 10.17456885965997 -14.004092627024994" fill="#ffca12" stroke="none" /><path d="M 86.51685102203217 116.09983520530335 l -10.189212301005936 12.166641426724773 a36.86969473309005,36.86969473309005 0 0,0 -0.48305361376848277,-0.4116687692778535 l 10.397131391351476 -11.989448267223969" fill="#ffb711" stroke="none" /><path d="M 84.67929136418377 114.36230785411682 l -11.028600829457291 10.338696732508874 a36.11683453578479,36.11683453578479 0 0,0 -0.42128325482687584,-0.45721976866123165 l 11.204930492279896 -10.147325709046298" fill="#ffad10" stroke="none" /><path d="M 83.72743513129214 113.27417163493432 l -17.205373970371024 14.035100733574268 a43.20380476544274,43.20380476544274 0 0,0 -0.46512411374025925,-0.5803138479928736 l 17.444415996166146 -13.736859052003133" fill="#f5ff19" stroke="none" /><path d="M 83.06392112726016 112.41649034213515 l -7.384012654311304 5.4135034737015175 a30.155854014716915,30.155854014716915 0 0,0 -0.3033107498133037,-0.4212721031828248 l 7.4761031965002145 -5.285597765067555" fill="#ff5b08" stroke="none" /><path d="M 82.24976979558568 111.22182372390057 l -9.456634344788533 5.978552526727771 a32.18798567418984,32.18798567418984 0 0,0 -0.29204521184735405,-0.4708698707177828 l 9.558144196303843 -5.814886324644724" fill="#ff780b" stroke="none" /><line stroke="#e1ed5e" stroke-width="0.3" x1="26.63291911575756" x2="22.317208475507996" y1="142.92168965132927" y2="145.44649492493687" /><path d="M 25.769776987707644 143.4266507060508 a86.0,86.0 0 0,1 -11.730757126820373,-40.83630448921669" fill="none" id="id45" stroke="none" /><text fill="#e1ed5e" style="font-size:6.75px; font-family:Arial;" text-anchor="middle"><textPath startOffset="21.46611528233685" xlink:href="#id45">September</textPath></text><path d="M 81.69416730710424 110.29060199501025 l -12.616612891882966 7.092413875598737 a35.47346729178648,35.47346729178648 0 0,0 -0.2946385492494088,-0.534854550439531 l 12.736827850583891 -6.874188806761384" fill="#ffa50f" stroke="none" /><path d="M 81.02952815118164 109.00673069616217 l -3.7140320718860727 1.7633344565686526 a25.11137235442384,25.11137235442384 0 0,0 -0.18202801325380724,-0.3920721465764195 l 3.743834701979707 -1.699142242713406" fill="#ff1101" stroke="none" /><path d="M 80.58989483394504 108.01547362559985 l -19.98646851945622 8.253484971670732 a42.623573665257304,42.623573665257304 0 0,0 -0.2742063511039959,-0.6805576759409299 l 20.125577484817605 -7.908227927886996" fill="#fcff18" stroke="none" /><path d="M 80.32549172779594 107.34259656027581 l -2.770439664118264 1.0339379498976207 a23.957087015418757,23.957087015418757 0 0,0 -0.14086281063766543,-0.38759395670498425 l 2.787826735761154 -0.9860961961865192" fill="#ff0000" stroke="none" /><path d="M 80.0844068197444 106.66101706037122 l -20.493282244830688 6.854232330431041 a42.609144314521544,42.609144314521544 0 0,0 -0.2266557903570943,-0.6975747945874776 l 20.60823028620403 -6.50045863586576" fill="#fdff18" stroke="none" /><path d="M 79.76711848015287 105.62410040840567 l -18.107105563584764 5.033202003150521 a39.793626427470585,39.793626427470585 0 0,0 -0.1777674592618,-0.6615388470312128 l 18.19106109918834 -4.720772222943769" fill="#ffde14" stroke="none" /><path d="M 79.58551787078972 104.9243191809786 l -10.043888840188908 2.422756264612256 a31.33196258954654,31.33196258954654 0 0,0 -0.1219550900168834,-0.5253793359314888 l 10.084104496136346 -2.2495082713321928" fill="#ff6c09" stroke="none" /><path d="M 79.23777060512086 103.15116336523772 l -12.641649908371388 1.9186718010757542 a33.786423029372585,33.786423029372585 0 0,0 -0.08231973319297534,-0.5757440222212691 l 12.672803692580962 -1.7007823068740846" fill="#ff8e0d" stroke="none" /><path d="M 79.04373962182676 101.35467743843564 l -15.955167976305745 1.0313913691616552 a36.98846938604548,36.98846938604548 0 0,0 -0.035603425779847694,-0.6357230843278383 l 15.970557752973125 -0.7565965684983793" fill="#ffb911" stroke="none" /><line stroke="#e1ed5e" stroke-width="0.3" x1="15.007084014347285" x2="10.007500721073583" y1="101.09737516637583" y2="101.16192664675087" /><path d="M 14.007167355692545 101.11028546245083 a86.0,86.0 0 0,1 10.666146001902534,-42.60595125391555" fill="none" id="id46" stroke="none" /><text fill="#e1ed5e" style="font-size:6.75px; font-family:Arial;" text-anchor="middle"><textPath startOffset="22.20632615414155" xlink:href="#id46">October</textPath></text><path d="M 79.00175016825051 100.2711162175752 l -38.51171293667797 0.4972390569402173 a59.51492282215863,59.51492282215863 0 0,0 -0.00440892984521196,-1.0244800240785767 l 38.51456616381268 0.1657504453420348" fill="#3dff2e" stroke="none" /><path d="M 79.01574976396665 99.18683210126434 l -14.42278002361475 -0.558902109620779 a35.43360506518449,35.43360506518449 0 0,0 0.02886386333069176,-0.6092705353021336 l 14.41102255205056 0.8070837515459217" fill="#ffa40f" stroke="none" /><path d="M 79.08570108090925 98.10471618934814 l -15.557144866497799 -1.4098108150555562 a36.620893794256666,36.620893794256666 0 0,0 0.06229540887698489,-0.6273062659651619 l 15.530572331938586 1.6773926117251485" fill="#ffb410" stroke="none" /><path d="M 79.16333360222342 97.38593545837743 l -16.65359354103934 -2.089277024220669 a37.78413704406883,37.78413704406883 0 0,0 0.0865148800583781,-0.6446363458954809 l 16.615162661923126 2.3756317121808093" fill="#ffc312" stroke="none" /><path d="M 79.46518482838121 95.60439243477599 l -18.998003526517344 -4.06664327520845 a40.42837423773187,40.42837423773187 0 0,0 0.15152095128055804,-0.6792387143178967 l 18.92518818823475 4.393060159076305" fill="#ffe615" stroke="none" /><path d="M 80.803312248108 91.48605970444005 l -8.338523297412642 -3.6982259869445344 a30.121833490697213,30.121833490697213 0 0,0 0.21429200630123243,-0.4721640304029209 l 8.273628974148059 3.841212026189526" fill="#ff5a08" stroke="none" /><path d="M 81.10775173730289 90.83032412892265 l -14.52711603414069 -7.050984272614219 a37.14786300047287,37.14786300047287 0 0,0 0.2841634395811599,-0.5728561543074921 l 14.403592581606118 7.300000015420673" fill="#ffbb11" stroke="none" /><path d="M 81.43458229118936 90.18545643968196 l -6.237821393004096 -3.297602604118543 a28.055820197943607,28.055820197943607 0 0,0 0.2293789094176061,-0.4250042825319415 l 6.180134384368018 3.4044878699829573" fill="#ff3d05" stroke="none" /><line stroke="#e1ed5e" stroke-width="0.3" x1="26.266209847984243" x2="21.928928074336255" y1="57.711370442889674" y2="55.22380399835377" /><path d="M 25.398753493254645 57.213857153982495 a86.0,86.0 0 0,1 29.58750427330803,-30.492523968695096" fill="none" id="id47" stroke="none" /><text fill="#e1ed5e" style="font-size:6.75px; font-family:Arial;" text-anchor="middle"><textPath startOffset="21.46611528233685" xlink:href="#id47">November</textPath></text><path d="M 81.78341655067845 89.55222093294921 l -24.295950241972918 -13.934485632740651 a49.00826820796815,49.00826820796815 0 0,0 0.42599929677752996,-0.7281708878937287 l 24.052491270725064 14.350635932988272" fill="#afff20" stroke="none" /><path d="M 82.7489923806493 88.02491185347247 l -17.00097762509906 -11.801525460422122 a41.69563343804945,41.69563343804945 0 0,0 0.41435011941925487,-0.586068859180574 l 16.79531488587593 12.092420819934482" fill="#fff617" stroke="none" /><path d="M 83.6137871275137 86.86637796730984 l -11.24195936329 -9.010480111132003 a35.407303778256676,35.407303778256676 0 0,0 0.3852677288019473,-0.4722926809421551 l 11.08519314241166 9.20265696168224" fill="#ffa40f" stroke="none" /><path d="M 84.5562425177563 85.77008943001954 l -13.592847552405228 -12.524478274441474 a39.48318318444865,39.48318318444865 0 0,0 0.46483491027725243,-0.49585347260692414 l 13.37524532015752 12.75660116392645" fill="#ffda14" stroke="none" /><path d="M 85.05521093208273 85.24692304244772 l -5.284664633728564 -5.216872829849695 a28.42586307534723,28.42586307534723 0 0,0 0.3467470699642781,-0.3452580278499956 l 5.194081763596973 5.3070667083498" fill="#ff4206" stroke="none" /><path d="M 85.31137513191541 84.99185889309783 l -15.59095105035581 -15.930095257790965 a43.29003565669838,43.29003565669838 0 0,0 0.5370371272945436,-0.5166292909633871 l 15.31443067944884 16.196107635516665" fill="#f4ff19" stroke="none" /><path d="M 85.83668400450813 84.49514656593479 l -8.480643792352579 -9.283923275368203 a33.57428131209461,33.57428131209461 0 0,0 0.4300529891578745,-0.38610581984428227 l 8.319579815598733 9.428528103981764" fill="#ff8b0c" stroke="none" /><path d="M 86.37877921826538 84.01681056812374 l -11.059349761106539 -12.97708076666466 a38.05033261737216,38.05033261737216 0 0,0 0.5021601381477915,-0.4205446743463119 l 10.834332085999637 13.165526598404783" fill="#ffc712" stroke="none" /><path d="M 87.51073957382395 83.11751280151077 l -12.494070155244122 -16.888988799596845 a42.008087293160926,42.008087293160926 0 0,0 0.5850219942811477,-0.4250433586637641 l 12.201502844609193 17.101551393077276" fill="#fffa17" stroke="none" /><line stroke="#e1ed5e" stroke-width="0.3" x1="56.762969772571076" x2="54.21961505331055" y1="26.818313649435495" y2="22.513508569990535" /><path d="M 56.25429882871897 25.957352633546506 a86.0,86.0 0 0,1 42.265352541879196,-11.944610805530505" fill="none" id="id48" stroke="none" /><text fill="#e1ed5e" style="font-size:6.75px; font-family:Arial;" text-anchor="middle"><textPath startOffset="22.20632615414155" xlink:href="#id48">December</textPath></text><path d="M 89.3179101791058 81.91981866633112 l -11.806285286887864 -19.98296049209691 a44.21006424601386,44.21006424601386 0 0,0 0.6585263120986313,-0.38146094489983945 l 11.460562242323913 20.183225594386798" fill="#e9ff1a" stroke="none" /><path d="M 90.26544431104013 81.39251694778311 l -7.28684365110381 -13.92871170235773 a36.719640583773824,36.719640583773824 0 0,0 0.5625790122542492,-0.2881748207640101 l 7.046004151260798 14.052079048434244" fill="#ffb510" stroke="none" /><path d="M 91.56875222667455 80.76684994638697 l -3.4018086157828837 -7.760120129315087 a29.473002199918035,29.473002199918035 0 0,0 0.4663979684626066,-0.19968726977896095 l 3.267726889529969 7.817526927056834" fill="#ff5107" stroke="none" /><path d="M 91.90106846888425 80.62456947434976 l -7.071138658164715 -16.916596378440463 a39.33500027144959,39.33500027144959 0 0,0 0.626955194314267,-0.25575076566821364 l 6.778899594262067 17.03580803029225" fill="#ffd814" stroke="none" /><path d="M 94.28887869178378 79.79150937346287 l -3.813352720539643 -13.493340195355481 a35.021836135073144,35.021836135073144 0 0,0 0.5815327706457578,-0.15895487374516415 l 3.580522060670163 13.556981609926941" fill="#ff9f0e" stroke="none" /><path d="M 95.692805502759 79.44645832069477 l -2.0931792512087823 -9.988461633096607 a31.205428220977986,31.205428220977986 0 0,0 0.5266786651655608,-0.10564678549657623 l 1.9209341765760852 10.023012374670394" fill="#ff6a09" stroke="none" /><path d="M 96.75951476605007 79.25152402106235 l -2.2411395919586066 -14.34977407149571 a35.52372963717016,35.52372963717016 0 0,0 0.6049708404341996,-0.08915697595492042 l 1.9937997710957582 14.386225531611599" fill="#ffa50f" stroke="none" /><path d="M 97.83486435360386 79.11191278185805 l -1.474130736399256 -14.221636156655677 a35.297831877606235,35.297831877606235 0 0,0 0.6048953695687499,-0.057442104010090256 l 1.2291102397402696 14.244903805180947" fill="#ffa20f" stroke="none" /><path d="M 99.27714615592234 79.0124445844662 l -0.5722783400046615 -16.61570104712222 a37.62555333773216,37.62555333773216 0 0,0 0.6474701339195629,-0.016722243336180387 l 0.2861815708902196 16.623090082600758" fill="#ffc112" stroke="none" /></svg>