<?xml version="1.0" encoding="utf-8" ?>
<svg baseProfile="full" height="200mm" version="1.1" viewBox="0,0,200,200" width="200mm" xmlns="http://www.w3.org/2000/svg" xmlns:ev="http://www.w3.org/2001/xml-events" xmlns:xlink="http://www.w3.org/1999/xlink"><defs /><rect fill="#1a1a1a" height="200" width="200" x="0" y="0" /><text alignment-baseline="middle" fill="#e1ed5e" style="dominant-baseline: central; font-size:9.0px; font-family:Arial;" text-anchor="middle" x="100.0" y="100.0">2018</text><line stroke="#e1ed5e" stroke-width="0.3" x1="100.0" x2="100.0" y1="15.0" y2="10.0" /><path d="M 100.0 14.0 a86.0,86.0 0 0,1 42.46469731375804,11.215312516191453" fill="none" id="id37" stroke="none" /><text fill="#e1ed5e" style="font-size:6.75px; font-family:Arial;" text-anchor="middle"><textPath startOffset="22.20632615414155" xlink:href="#id37">January</textPath></text><path d="M 100.0 79.0 l 0.0 -12.958963013837064 a33.958963013837064,33.958963013837064 0 0,0 0.5845477250399946,0.005031386817722306 l -0.22306724576746623 12.9570430036279" fill="#ff9b0e" stroke="none" /><path d="M 101.08401301168833 79.027996857942 l 0.641200132761262 -12.405064380189827 a33.42162468789439,33.42162468789439 0 0,0 0.5742757417538694,0.0346418810216179 l -0.8546379233547433 12.392189229787906" fill="#ff940d" stroke="none" /><path d="M 101.44485096284872 79.0497635885617 l 0.6655774221808526 -9.65082538154113 a30.6737492137183,30.6737492137183 0 0,0 0.5264342926506309,0.040861432950026755 l -0.8316019041938246 9.637938686402638" fill="#ff6e0a" stroke="none" /><path d="M 102.16513564639614 79.11191278185805 l 1.1441168596714364 -11.037836263211746 a32.0969740362883,32.0969740362883 0 0,0 0.5490619900199336,0.06169351206922183 l -1.333945553201095 11.016506797671923" fill="#ff820b" stroke="none" /><path d="M 102.52436894288641 79.15227682838746 l 1.486665084814802 -12.27775449561754 a33.367434193439806,33.367434193439806 0 0,0 0.5696063669443737,0.07395125424157192 l -1.6977861802670218 12.25034491821183" fill="#ff930d" stroke="none" /><path d="M 103.2404852339499 79.25152402106235 l 1.3509647533269877 -8.65008099377433 a29.7549418595207,29.7549418595207 0 0,0 0.5053675587774696,0.08338997735461841 l -1.4996615182433326 8.625544753480087" fill="#ff6109" stroke="none" /><path d="M 103.95276090670814 79.375362276772 l 2.439777204057767 -12.730221267288297 a33.961907510839566,33.961907510839566 0 0,0 0.5732019438291558,0.11497891752821135 l -2.658545557354048 12.686338393682876" fill="#ff9b0e" stroke="none" /><path d="M 106.74666289553966 80.11325718540242 l 4.895317772979419 -14.42964129886073 a36.23741067610358,36.23741067610358 0 0,0 0.5889752566620859,0.20548190221708354 l -5.142975033704778 14.343238543471438" fill="#ffb911" stroke="none" /><path d="M 107.08798089147638 80.2323363322302 l 3.230320494282278 -9.009037982433835 a30.570670606844413,30.570670606844413 0 0,0 0.49381484680125814,0.1818761755518277 l -3.3849176668561127 8.952098539075683" fill="#ff6d0a" stroke="none" /><path d="M 107.76421540070413 80.48803036053334 l 4.212038951193871 -10.585123144380105 a32.3923704341136,32.3923704341136 0 0,0 0.5162975660269538,0.21061074064224275 l -4.3936203868092125 10.511051517554284" fill="#ff860c" stroke="none" /><path d="M 108.76106565485865 80.91482961587045 l 5.408975554389179 -11.782952454175465 a33.96514500826502,33.96514500826502 0 0,0 0.5292445477653814,0.2484874115704578 l -5.610998313454158 11.688100059965004" fill="#ff9b0e" stroke="none" /><path d="M 109.41281617654863 81.2277094730956 l 7.2379903613116205 -14.43496349498413 a37.14796196341707,37.14796196341707 0 0,0 0.5691412937705362,0.29153627623705003 l -7.4853921426709125 14.30823469343458" fill="#ffc512" stroke="none" /><path d="M 110.05341064243156 81.56283822128135 l 4.80566663176391 -8.813213375614321 a31.038284802681993,31.038284802681993 0 0,0 0.46686888027089274,0.25981202640254114 l -4.956659601106839 8.7291859516516" fill="#ff730a" stroke="none" /><line stroke="#e1ed5e" stroke-width="0.3" x1="143.23703022742887" x2="145.7803849466894" y1="26.81831364943548" y2="22.513508569990506" /><path d="M 143.74570117128098 25.957352633546492 a86.0,86.0 0 0,1 28.547481713284135,27.462654790039103" fill="none" id="id38" stroke="none" /><text fill="#e1ed5e" style="font-size:6.75px; font-family:Arial;" text-anchor="middle"><textPath startOffset="19.985693538727396" xlink:href="#id38">February</textPath></text><path d="M 110.68208982089419 81.91981866633111 l 5.146896588695413 -8.711481104309335 a31.118322367144817,31.118322367144817 0 0,0 0.4588291924064855,0.27643945455003316 l -5.296087847319536 8.621595040300688" fill="#ff740a" stroke="none" /><path d="M 111.2981086023043 82.29822771554956 l 6.624070932193539 -10.378533201019346 a33.31228115011155,33.31228115011155 0 0,0 0.48070093499183636,0.3126612596851077 l -6.801738892969655 10.26297301717471" fill="#ff920d" stroke="none" /><path d="M 113.34407831869373 83.78471172551755 l 14.184150273391579 -17.23611628458567 a43.32204792472935,43.32204792472935 0 0,0 0.5717323364683167,0.47880938965043673 l -14.478740146819014 16.989405737541414" fill="#ecff1a" stroke="none" /><path d="M 113.89432698308785 84.25364557470405 l 9.2236874828666 -10.453147704827197 a34.940757071282896,34.940757071282896 0 0,0 0.4475561779644197,0.4018203555745753 l -9.40225464842701 10.292828340483325" fill="#ffa80f" stroke="none" /><path d="M 114.42810811169701 84.74124197986012 l 6.873799639936185 -7.2695355879458 a31.004762323733498,31.004762323733498 0 0,0 0.38463143395937527,0.3700151347258366 l -6.997914317507981 7.1501373664576615" fill="#ff730a" stroke="none" /><path d="M 115.68641384162765 86.03803664274999 l 8.18993779623556 -7.289595478206055 a31.96418183642035,31.96418183642035 0 0,0 0.3622731119592953,0.41414079220906047 l -8.314202771772704 7.147539129794046" fill="#ff800b" stroke="none" /><path d="M 116.38621287248628 86.86637796730983 l 19.787064426672494 -15.85941958271257 a46.35841296544039,46.35841296544039 0 0,0 0.4937080899933625,0.6269591374500548 l -20.05712659725982 15.516468051309477" fill="#c8ff1d" stroke="none" /><path d="M 117.45458315368197 88.32363383020206 l 6.525960842613339 -4.365587406883589 a28.85152968067135,28.85152968067135 0 0,0 0.27258288398647096,0.41516243314813667 l -6.600140361957735 4.2526069097577786" fill="#ff5507" stroke="none" /><line stroke="#e1ed5e" stroke-width="0.3" x1="172.23445277983987" x2="176.4835382374775" y1="55.19839476539836" y2="52.563006222186495" /><path d="M 173.08426987136738 54.67131705675599 a86.0,86.0 0 0,1 12.851231095245387,41.99856678651699" fill="none" id="id39" stroke="none" /><text fill="#e1ed5e" style="font-size:6.75px; font-family:Arial;" text-anchor="middle"><textPath startOffset="22.20632615414155" xlink:href="#id39">March</textPath></text><path d="M 118.03404312379186 89.2402003453031 l 26.119931207485944 -15.584149647298897 a51.415728275239516,51.415728275239516 0 0,0 0.4469258941289304,0.7639412262234607 l -26.3843167760852 15.132229008721541" fill="#8eff24" stroke="none" /><path d="M 118.3937258080291 89.86733742301442 l 9.744022658915386 -5.3677484798753134 a32.12468881904839,32.12468881904839 0 0,0 0.26264518501703565,0.4866416389460205 l -9.834975943150885 5.199225857596835" fill="#ff820c" stroke="none" /><path d="M 118.89224826269711 90.83032412892265 l 9.802937625414186 -4.758023468647969 a31.89662211035906,31.89662211035906 0 0,0 0.23549094773033538,0.496003993599304 l -9.883386766986277 4.5885770594081245" fill="#ff7f0b" stroke="none" /><path d="M 119.47837535516314 92.15188598940014 l 11.00258842667887 -4.4330991065635015 a32.8620959267535,32.8620959267535 0 0,0 0.20688481171062437,0.5264992797984002 l -11.077266788271194 4.243050821869317" fill="#ff8c0c" stroke="none" /><path d="M 119.7369772167798 92.82701384747503 l 9.143362595881095 -3.3229613920824312 a30.728471204306867,30.728471204306867 0 0,0 0.17639154929065115,0.49868266298615266 l -9.199207225981556 3.165081102669664" fill="#ff6f0a" stroke="none" /><path d="M 119.97218684219823 93.5106431181261 l 9.382893279923339 -3.04868683429847 a30.865757837898485,30.865757837898485 0 0,0 0.15983247162904615,0.5067126132256168 l -9.433981235320593 2.886724054646434" fill="#ff710a" stroke="none" /><path d="M 120.37134235888165 94.90015583598534 l 7.937633160871391 -1.9871391604152209 a29.182587747126263,29.182587747126263 0 0,0 0.11779648783175312,0.4883424910826395 l -7.970662448963964 1.8502114376731753" fill="#ff5908" stroke="none" /><path d="M 120.45610955862082 95.25157060432595 l 7.7223130071260115 -1.7925626561860035 a28.927635149045408,28.927635149045408 0 0,0 0.10841748842795346,0.48601434208938116 l -7.752024882556002 1.6593701445466584" fill="#ff5607" stroke="none" /><path d="M 120.6074358757038 95.95851677861258 l 8.073549675243527 -1.583366108541647 a29.22734784680356,29.22734784680356 0 0,0 0.09257313733642246,0.49452940131412704 l -8.099608536489809 1.4441586297649571" fill="#ff5a08" stroke="none" /><path d="M 120.78858239683441 97.02765380044208 l 62.36574719050324 -8.917038598673738 a84.0,84.0 0 0,0 0.19233600376865523,1.4331266317413425 l -62.50999919332973 7.84219362486773" fill="#4dd2ff" stroke="none" /><path d="M 120.94382443527127 98.46500227214037 l 7.874058643306866 -0.5770990949558634 a28.895178457997922,28.895178457997922 0 0,0 0.03208659449821218,0.4963654150244623 l -7.8828258288094935 0.44147461567836593" fill="#ff5507" stroke="none" /><line stroke="#e1ed5e" stroke-width="0.3" x1="184.98032266829074" x2="189.97916517819016" y1="98.17113171792111" y2="98.06355123074" /><path d="M 185.9800911702706 98.14961562048488 a86.0,86.0 0 0,1 -9.607161424134198,41.387399972396054" fill="none" id="id40" stroke="none" /><text fill="#e1ed5e" style="font-size:6.75px; font-family:Arial;" text-anchor="middle"><textPath startOffset="21.466115282336823" xlink:href="#id40">April</textPath></text><path d="M 120.99513854157772 99.54816195383933 l 11.88165331883095 -0.25570600594548665 a32.88440453495097,32.88440453495097 0 0,0 0.007308156281084696,0.5660247578408031 l -11.88429448222975 0.05114499004422078" fill="#ff8c0c" stroke="none" /><path d="M 120.99824983174949 100.27111621757518 l 8.017878081276587 0.10352180756931116 a29.018546357717085,29.018546357717085 0 0,0 -0.010747830216310891,0.49940943736407734 l -8.014908188375268 -0.24152106072350332" fill="#ff5708" stroke="none" /><path d="M 120.92983693683757 101.71520430193887 l 11.848197139411075 0.970962113324916 a32.88791583415113,32.88791583415113 0 0,0 -0.05109435865213082,0.5638219901020272 l -11.82972818448187 -1.1747654919755137" fill="#ff8c0c" stroke="none" /><path d="M 120.8583938346157 102.4346265915055 l 7.745661783404552 0.9040865896102275 a28.79824653524155,28.79824653524155 0 0,0 -0.06170845859157405,0.49187713046884224 l -7.72895181556613 -1.0372814743664647" fill="#ff5407" stroke="none" /><path d="M 120.49622156327973 104.57218783832717 l 8.445341488788003 1.8839417561105607 a29.65292028176967,29.65292028176967 0 0,0 -0.11541966296848975,0.497224887255025 l -8.41166125988896 -2.0290353007141504" fill="#ff6008" stroke="none" /><path d="M 120.02730092923936 106.31721596034902 l 5.672293711355331 1.789212859574394 a26.947789388062393,26.947789388062393 0 0,0 -0.14334651869660558,0.4411752207039308 l -5.640654941642478 -1.8865869802561201" fill="#ff3a05" stroke="none" /><path d="M 119.54520255179757 107.68017299344265 l 9.230904458119877 3.6272299013745157 a30.91798335713278,30.91798335713278 0 0,0 -0.19890184399915045,0.49365806498438053 l -9.167099999863337 -3.78558733420171" fill="#ff710a" stroke="none" /><path d="M 119.26925614724726 108.34839909993367 l 9.570845929193684 4.146565956169448 a31.430489011989167,31.430489011989167 0 0,0 -0.21935325599822755,0.4945836847076248 l -9.498051588464183 -4.3106979773697605" fill="#ff780b" stroke="none" /><line stroke="#e1ed5e" stroke-width="0.3" x1="174.80103733775053" x2="179.2010983576182" y1="140.37084112569926" y2="142.7455964860345" /><path d="M 175.68104954172406 140.8457921977663 a86.0,86.0 0 0,1 -30.038265399797805,32.042727171017184" fill="none" id="id41" stroke="none" /><text fill="#e1ed5e" style="font-size:6.75px; font-family:Arial;" text-anchor="middle"><textPath startOffset="22.206326154141568" xlink:href="#id41">May</textPath></text><path d="M 118.48025628344425 109.97397251340804 l 6.606727278127161 3.5657144178599163 a28.507540518524266,28.507540518524266 0 0,0 -0.23678036071179256,0.4298251321968511 l -6.544370507963861 -3.6789100684545732" fill="#ff5007" stroke="none" /><path d="M 116.498646956653 112.99209946851258 l 8.09262349431813 6.37265405312559 a31.300547301071326,31.300547301071326 0 0,0 -0.33697586131676244,0.42042919939998286 l -7.981729720946513 -6.5110110861038235" fill="#ff770a" stroke="none" /><path d="M 115.56566222782051 114.09645910891815 l 4.464225968273376 4.04285907619541 a27.022791961024552,27.022791961024552 0 0,0 -0.31520618842082043,0.34209406355252164 l -4.3939733718568315 -4.119104394549266" fill="#ff3b05" stroke="none" /><path d="M 115.07121518719521 114.62390073753431 l 12.934098351996623 12.550213641021312 a39.02217419221108,39.02217419221108 0 0,0 -0.4719069984203779,0.47803929792803235 l -12.71615072852071 -12.770993432930009" fill="#ffdd14" stroke="none" /><path d="M 114.0293411484842 115.62618273729858 l 3.897585492866494 4.341214779879821 a26.834151047003356,26.834151047003356 0 0,0 -0.3463619925976169,0.3056241876490528 l -3.8222811473622897 -4.407662109301163" fill="#ff3805" stroke="none" /><path d="M 112.34349029814194 116.9893568818739 l 5.287985894368867 7.2782881807158955 a29.99645895119812,29.99645895119812 0 0,0 -0.4203399109828722,0.29990136576944654 l -5.161918655537111 -7.3682338083295615" fill="#ff6509" stroke="none" /><path d="M 111.7513745106137 117.40417183066458 l 5.007942519150414 7.416927444756694 a29.949318465441916,29.949318465441916 0 0,0 -0.42973749567295433,0.2848065792626223 l -4.8795303247374955 -7.502032045110634" fill="#ff6409" stroke="none" /><path d="M 111.1453310114006 117.79835938074945 l 5.327774430420193 8.508104776357813 a31.03857695427603,31.03857695427603 0 0,0 -0.4552632050675575,0.27965984442780656 l -5.180532025420327 -8.598553087613999" fill="#ff730a" stroke="none" /><line stroke="#e1ed5e" stroke-width="0.3" x1="143.8653032363475" x2="146.44561519142675" y1="172.8068346515853" y2="177.08958963109032" /><path d="M 144.38136562736335 173.6633856474863 a86.0,86.0 0 0,1 -40.68145358897372,12.25698825130547" fill="none" id="id42" stroke="none" /><text fill="#e1ed5e" style="font-size:6.75px; font-family:Arial;" text-anchor="middle"><textPath startOffset="21.466115282336833" xlink:href="#id42">June</textPath></text><path d="M 109.57404056367764 118.69057910512821 l 4.519433508026165 8.822902820424517 a30.91306680155665,30.91306680155665 0 0,0 -0.47568746373641985,0.23851956942719993 l -4.366892136606985 -8.899390230761018" fill="#ff710a" stroke="none" /><path d="M 108.59647513512805 119.15986991738527 l 4.272490318622965 9.522549352070525 a31.437103031270016,31.437103031270016 0 0,0 -0.4956273743955981,0.21726847578912528 l -4.107942269569613 -9.594682381154106" fill="#ff790b" stroke="none" /><path d="M 107.93186726928326 119.44442032107085 l 3.7922297071331674 9.296387077114034 a31.040110499351893,31.040110499351893 0 0,0 -0.4964628054316135,0.1975527961058425 l -3.6316458256596875 -9.360286717625945" fill="#ff730a" stroke="none" /><path d="M 106.91757812671514 119.82793768551818 l 4.317530940754095 12.375391051668592 a34.106920962075264,34.106920962075264 0 0,0 -0.5559919696017198,0.1886226631732008 l -4.103869238215148 -12.447876701739915" fill="#ff9d0e" stroke="none" /><path d="M 105.88484417918355 120.15858648285463 l 2.8123859383475054 9.63385323979946 a31.035967462691843,31.035967462691843 0 0,0 -0.5141164641900036,0.14529444815065223 l -2.646138306052896 -9.680836481288631" fill="#ff730a" stroke="none" /><path d="M 105.18746579009965 120.34920634021253 l 3.189447052122977 12.511449482462268 a33.911581647904384,33.911581647904384 0 0,0 -0.5668833022218684,0.1393261234839155 l -2.9736104651578974 -12.564496864260212" fill="#ff9a0e" stroke="none" /><path d="M 104.48393922423573 120.51570834832081 l 1.8880637741474284 8.638601862415015 a29.842523788634555,29.842523788634555 0 0,0 -0.5027876061388482,0.10536403137872255 l -1.739084706579202 -8.669821874520279" fill="#ff6209" stroke="none" /><path d="M 103.41894727170886 120.7198165907248 l 1.535042347603625 9.302803867298469 a30.428600893152694,30.428600893152694 0 0,0 -0.5175240456954279,0.08082661251806793 l -1.37468243829968 -9.327848787163642" fill="#ff6b09" stroke="none" /><path d="M 101.26447882468166 120.96189622390904 l 0.47327346632516054 7.845690329480445 a28.859951941330838,28.859951941330838 0 0,0 -0.4961327140873331,0.025644394288514286 l -0.3381526838243479 -7.852674530531162" fill="#ff5507" stroke="none" /><line stroke="#e1ed5e" stroke-width="0.3" x1="102.19456741930631" x2="102.32365962044197" y1="184.97166512339345" y2="189.96999836594603" /><path d="M 102.22038585953345 185.97133177190398 a86.0,86.0 0 0,1 -42.740103519485714,-10.115201625700543" fill="none" id="id43" stroke="none" /><text fill="#e1ed5e" style="font-size:6.75px; font-family:Arial;" text-anchor="middle"><textPath startOffset="22.20632615414155" xlink:href="#id43">July</textPath></text><path d="M 100.18074693466247 120.99922214144158 l 0.09284732605221942 10.787024569188047 a31.787424144911594,31.787424144911594 0 0,0 -0.5471885214293423,0.0 l 0.09284732605221199 -10.787024569188047" fill="#ff7d0b" stroke="none" /><path d="M 99.09653310690486 120.98055641714683 l -0.8124605583865003 18.86718230873748 a39.88466733702424,39.88466733702424 0 0,0 -0.6856590855249785,-0.03544074284448413 l 1.1371077123249678 -18.850401759130794" fill="#ffe815" stroke="none" /><path d="M 98.37488393609728 120.93702456842531 l -0.7492399243276402 9.652759610055744 a30.68179366407537,30.68179366407537 0 0,0 -0.5262010633332528,-0.0454028418829957 l 0.9152853054024347 -9.638432515894085" fill="#ff6e0a" stroke="none" /><path d="M 95.86986931433489 120.58985236759428 l -2.9099856655943053 14.50708943771682 a35.79606909039963,35.79606909039963 0 0,0 -0.6030930900689044,-0.12638402078822158 l 3.1592702170925966 -14.454849436202057" fill="#ffb310" stroke="none" /><path d="M 93.42475214034765 119.94407469862007 l -3.9588612866105652 12.008037857573758 a33.64379515317883,33.64379515317883 0 0,0 -0.5484423514187131,-0.18606142278579021 l 4.164973370966504 -11.938113447889844" fill="#ff960d" stroke="none" /><path d="M 92.40401165467489 119.57807347666478 l -4.250217778441886 10.954608166213646 a32.75022515696862,32.75022515696862 0 0,0 -0.523814780243309,-0.20843671136384187 l 4.438153634727053 -10.879824610443737" fill="#ff8a0c" stroke="none" /><path d="M 91.7346041902142 119.30500536409082 l -4.290849318115563 10.021887760614469 a31.90181737863586,31.90181737863586 0 0,0 -0.5029539130909829,-0.2204802150460535 l 4.462723905864289 -9.946542992273963" fill="#ff7f0b" stroke="none" /><path d="M 90.42595943632237 118.69057910512821 l -7.253794541237171 14.160961590208865 a36.91069980880329,36.91069980880329 0 0,0 -0.5629920448987253,-0.2945308292437285 l 7.496477488662392 -14.034001342020419" fill="#ffc212" stroke="none" /><line stroke="#e1ed5e" stroke-width="0.3" x1="58.666819895761336" x2="56.23545636021788" y1="174.27360380694188" y2="178.64263932499728" /><path d="M 58.180547188652646 175.14741091055294 a86.0,86.0 0 0,1 -31.652253787137756,-30.449443065178592" fill="none" id="id44" stroke="none" /><text fill="#e1ed5e" style="font-size:6.75px; font-family:Arial;" text-anchor="middle"><textPath startOffset="22.20632615414155" xlink:href="#id44">August</textPath></text><path d="M 89.7882731507175 118.34994917583269 l -7.4597484827372424 13.404785257484779 a36.34066866942187,36.34066866942187 0 0,0 -0.5439873336733627,-0.308890205257046 l 7.689384583331813 -13.274391886433099" fill="#ffba11" stroke="none" /><path d="M 89.1626897886671 117.98757091392108 l -7.9000192630916155 13.112308676704892 a36.3082638855753,36.3082638855753 0 0,0 -0.5325571662430364,-0.3271401084090253 l 8.124555629266961 -12.974380101467489" fill="#ffba11" stroke="none" /><path d="M 88.54995079064634 117.60387380957326 l -7.331248756656309 11.271425617397286 a34.445900631065754,34.445900631065754 0 0,0 -0.4942581611823442,-0.32756735815788735 l 7.524181616578615 -11.14356023814808" fill="#ffa10e" stroke="none" /><path d="M 87.95078237400918 117.19931262002967 l -6.763733656503531 9.654699022606009 a32.788185025406925,32.788185025406925 0 0,0 -0.4594603248767468,-0.3278127423713156 l 6.928921309229162 -9.536842018390473" fill="#ff8b0c" stroke="none" /><path d="M 86.51685102203217 116.09983520530335 l -6.9616148520427235 8.312661386729909 a31.842712791484068,31.842712791484068 0 0,0 -0.41719188611326824,-0.3555399761304119 l 7.103672214733049 -8.191597020376546" fill="#ff7e0b" stroke="none" /><path d="M 84.67929136418377 114.36230785411682 l -7.281290423697209 6.82580271749947 a30.980419478781833,30.980419478781833 0 0,0 -0.36136976348222016,-0.39219550686486754 l 7.397706595175161 -6.699455955833261" fill="#ff720a" stroke="none" /><path d="M 83.72743513129214 113.27417163493432 l -13.579918368400504 11.077673904818152 a38.52509748999732,38.52509748999732 0 0,0 -0.41475402280136336,-0.5174694147910618 l 13.768590303256728 -10.84227665644883" fill="#ffd614" stroke="none" /><path d="M 83.06392112726016 112.41649034213515 l -5.054051449952851 3.705319365157262 a27.266803623585147,27.266803623585147 0 0,0 -0.2742523772679616,-0.3809125652344263 l 5.11708361959642 -3.6177731944716953" fill="#ff3e05" stroke="none" /><path d="M 82.24976979558568 111.22182372390057 l -6.474169836780559 4.093016925993312 a28.659481877512796,28.659481877512796 0 0,0 -0.2600307003076947,-0.41925228447345986 l 6.5436651767562095 -3.980968310154587" fill="#ff5207" stroke="none" /><line stroke="#e1ed5e" stroke-width="0.3" x1="26.63291911575756" x2="22.317208475507996" y1="142.92168965132927" y2="145.44649492493687" /><path d="M 25.769776987707644 143.4266507060508 a86.0,86.0 0 0,1 -11.730757126820373,-40.83630448921669" fill="none" id="id45" stroke="none" /><text fill="#e1ed5e" style="font-size:6.75px; font-family:Arial;" text-anchor="middle"><textPath startOffset="21.46611528233685" xlink:href="#id45">September</textPath></text><path d="M 81.69416730710424 110.29060199501025 l -8.644146246946391 4.859296493434495 a30.91635148377175,30.91635148377175 0 0,0 -0.25678766821230486,-0.4661442068255885 l 8.726510324610212 -4.709781768211084" fill="#ff710a" stroke="none" /><path d="M 81.02952815118164 109.00673069616217 l -2.4604962559268473 1.1681853426027873 a23.723728844819547,23.723728844819547 0 0,0 -0.17196922444717672,-0.3704064103587991 l 2.4802400972138505 -1.1256588649651609" fill="#ff0b01" stroke="none" /><path d="M 80.58989483394504 108.01547362559985 l -13.67625640398613 5.647659894950076 a35.79648781017303,35.79648781017303 0 0,0 -0.23028628199626963,-0.5715516662742062 l 13.771445300239789 -5.411408860833064" fill="#ffb310" stroke="none" /><path d="M 80.32549172779594 107.34259656027581 l -1.8774284256441007 0.7006629751338687 a23.00391269723507,23.00391269723507 0 0,0 -0.13525833905059056,-0.37217285792212235 l 1.8892110256999157 -0.6682423202056292" fill="#ff0000" stroke="none" /><path d="M 80.0844068197444 106.66101706037122 l -15.963339332137995 5.3391367592949335 a37.832545379931055,37.832545379931055 0 0,0 -0.20124707060560454,-0.6193747961076176 l 16.052878653759848 -5.0635630632095125" fill="#ffce13" stroke="none" /><path d="M 79.76711848015287 105.62410040840567 l -14.528575234641275 4.038483882315342 a36.07941810602626,36.07941810602626 0 0,0 -0.16117521985694305,-0.5997929517411615 l 14.595938530839991 -3.787799997398641" fill="#ffb711" stroke="none" /><path d="M 79.58551787078972 104.9243191809786 l -6.765216377419563 1.6318848825035785 a27.959252898339706,27.959252898339706 0 0,0 -0.10882730994832251,-0.4688252029820537 l 6.792304253298441 -1.5151910221729505" fill="#ff4806" stroke="none" /><path d="M 79.23777060512086 103.15116336523772 l -8.631301253526345 1.3100057699560435 a29.730147561550353,29.730147561550353 0 0,0 -0.0724367244477747,-0.5066222820757926 l 8.652572028990718 -1.1612380158998503" fill="#ff6108" stroke="none" /><path d="M 79.04373962182676 101.35467743843564 l -10.928026202062808 0.7064213879489161 a31.95083502981955,31.95083502981955 0 0,0 -0.03075442705443501,-0.5491409547124928 l 10.938566980004776 -0.5182087169009857" fill="#ff800b" stroke="none" /><line stroke="#e1ed5e" stroke-width="0.3" x1="15.007084014347285" x2="10.007500721073583" y1="101.09737516637583" y2="101.16192664675087" /><path d="M 14.007167355692545 101.11028546245083 a86.0,86.0 0 0,1 10.666146001902534,-42.60595125391555" fill="none" id="id46" stroke="none" /><text fill="#e1ed5e" style="font-size:6.75px; font-family:Arial;" text-anchor="middle"><textPath startOffset="22.20632615414155" xlink:href="#id46">October</textPath></text><path d="M 79.00175016825051 100.2711162175752 l -32.64156263725223 0.42144736198800703 a53.64428325573388,53.64428325573388 0 0,0 -0.00397402651731492,-0.9234238069288133 l 32.64398096105905 0.1404859231444817" fill="#76ff27" stroke="none" /><path d="M 79.01574976396665 99.18683210126434 l -9.862173484638125 -0.38217247694171647 a30.86957555537375,30.86957555537375 0 0,0 0.025146050148372956,-0.5307933750622532 l 9.854133826256254 0.5518769586269787" fill="#ff710a" stroke="none" /><path d="M 79.08570108090925 98.10471618934814 l -10.618095084315199 -0.9622270290349053 a31.661605135952275,31.661605135952275 0 0,0 0.05385921623669172,-0.542354957360777 l 10.599958742396279 1.1448575171001125" fill="#ff7c0b" stroke="none" /><path d="M 79.16333360222342 97.38593545837743 l -11.636925706192837 -1.4599108264890581 a32.7281447600527,32.7281447600527 0 0,0 0.0749381020703678,-0.5583759031323576 l 11.610071605064634 1.6600050716860753" fill="#ff8a0c" stroke="none" /><path d="M 79.46518482838121 95.60439243477599 l -12.637576231155158 -2.705153429602631 a33.92386119067938,33.92386119067938 0 0,0 0.12714277572715277,-0.569956133391838 l 12.589139068425968 2.922287732544428" fill="#ff9a0e" stroke="none" /><path d="M 80.803312248108 91.48605970444005 l -5.702630662330804 -2.529178867428767 a27.238328479200476,27.238328479200476 0 0,0 0.19377824593255738,-0.42696467863252485 l 5.658250099434894 2.626965554903363" fill="#ff3e05" stroke="none" /><path d="M 81.10775173730289 90.83032412892265 l -9.952555105690234 -4.830642872103913 a32.06293196623793,32.06293196623793 0 0,0 0.24526614170152708,-0.49444157532744254 l 9.867928951035294 5.001244035930317" fill="#ff810b" stroke="none" /><path d="M 81.43458229118936 90.18545643968196 l -4.144183541692562 -2.190808229032861 a25.68763244331652,25.68763244331652 0 0,0 0.21001706860810782,-0.3891297320659392 l 4.105858373865982 2.261818944431273" fill="#ff2703" stroke="none" /><line stroke="#e1ed5e" stroke-width="0.3" x1="26.266209847984243" x2="21.928928074336255" y1="57.711370442889674" y2="55.22380399835377" /><path d="M 25.398753493254645 57.213857153982495 a86.0,86.0 0 0,1 29.58750427330803,-30.492523968695096" fill="none" id="id47" stroke="none" /><text fill="#e1ed5e" style="font-size:6.75px; font-family:Arial;" text-anchor="middle"><textPath startOffset="21.46611528233685" xlink:href="#id47">November</textPath></text><path d="M 81.78341655067845 89.55222093294921 l -20.40333989240837 -11.701952126141727 a44.52088353628867,44.52088353628867 0 0,0 0.38699317017061846,-0.6614967735007968 l 20.198887047767425 12.051428311996414" fill="#ddff1b" stroke="none" /><path d="M 82.7489923806493 88.02491185347247 l -13.672324238523764 -9.490882592885274 a37.64359644053103,37.64359644053103 0 0,0 0.3740830248730702,-0.5291139095928314 l 13.506928593846816 9.724823002809892" fill="#ffcb12" stroke="none" /><path d="M 83.6137871275137 86.86637796730984 l -7.689589841227609 -6.163240240255326 a30.854710659649697,30.854710659649697 0 0,0 0.3357308529655505,-0.41156632847286345 l 7.582360496185666 6.294690738336271" fill="#ff710a" stroke="none" /><path d="M 84.5562425177563 85.77008943001954 l -11.20941387102917 -10.328377476144478 a36.24225510289569,36.24225510289569 0 0,0 0.4266795136627965,-0.45515195580672113 l 11.029967035395915 10.519798848829248" fill="#ffb911" stroke="none" /><path d="M 85.05521093208273 85.24692304244772 l -3.8248270245656095 -3.7757620523315993 a26.374540058802683,26.374540058802683 0 0,0 0.3217244261961082,-0.32034283926633617 l 3.759266798202186 3.8410407422480475" fill="#ff3104" stroke="none" /><path d="M 85.31137513191541 84.99185889309783 l -10.8879153740112 -11.124756181105887 a36.56621024143909,36.56621024143909 0 0,0 0.4536243088326544,-0.43638622569094815 l 10.694807821566117 11.310525493559144" fill="#ffbd11" stroke="none" /><path d="M 85.83668400450813 84.49514656593479 l -6.316788473056892 -6.915109391043307 a30.365925181392374,30.365925181392374 0 0,0 0.3889571535846361,-0.34920957290210364 l 6.1968203318762844 7.02281797271469" fill="#ff6a09" stroke="none" /><path d="M 86.37877921826538 84.01681056812374 l -7.575796698911912 -8.889467080546954 a32.679696939534544,32.679696939534544 0 0,0 0.43128246196440123,-0.36118665887556856 l 7.4216566999884 9.018554896816333" fill="#ff890c" stroke="none" /><path d="M 87.51073957382395 83.11751280151077 l -9.734392229181632 -13.158565566444015 a37.36784163651267,37.36784163651267 0 0,0 0.5204000144927761,-0.3780927421036091 l 9.506446898335074 13.324177543364291" fill="#ffc812" stroke="none" /><line stroke="#e1ed5e" stroke-width="0.3" x1="56.76296977257108" x2="54.21961505331056" y1="26.818313649435495" y2="22.513508569990535" /><path d="M 56.25429882871898 25.957352633546506 a86.0,86.0 0 0,1 42.26535254187918,-11.944610805530505" fill="none" id="id48" stroke="none" /><text fill="#e1ed5e" style="font-size:6.75px; font-family:Arial;" text-anchor="middle"><textPath startOffset="22.20632615414155" xlink:href="#id48">December</textPath></text><path d="M 89.3179101791058 81.91981866633112 l -8.63959310148049 -14.62311331798986 a37.984640475144644,37.984640475144644 0 0,0 0.5657961741312005,-0.32774566367285485 l 8.386600194883966 14.769663139052762" fill="#ffd013" stroke="none" /><path d="M 90.26544431104013 81.39251694778311 l -5.4746825240058525 -10.46478807422505 a32.81033184026164,32.81033184026164 0 0,0 0.5026847699207924,-0.25749466353582023 l 5.293737266496296 10.557475263073375" fill="#ff8b0c" stroke="none" /><path d="M 91.56875222667455 80.76684994638697 l -2.63873346313444 -6.019412311487247 a27.572384564611973,27.572384564611973 0 0,0 0.43632148701296947,-0.18681009004974192 l 2.5347282183311624 6.063941929499775" fill="#ff4206" stroke="none" /><path d="M 91.90106846888425 80.62456947434976 l -4.8483807001546175 -11.598994639828446 a33.571534197081945,33.571534197081945 0 0,0 0.5350920961156488,-0.21827750136796711 l 4.648004734450589 11.68073302737999" fill="#ff960d" stroke="none" /><path d="M 94.28887869178378 79.79150937346287 l -2.6062323191941883 -9.222010626397257 a30.58321067779459,30.58321067779459 0 0,0 0.5078300056029791,-0.13880912392089353 l 2.447104424367487 9.265506291144446" fill="#ff6d0a" stroke="none" /><path d="M 95.692805502759 79.44645832069477 l -1.427246172719201 -6.810689351596176 a27.95862925305603,27.95862925305603 0 0,0 0.47187987393037156,-0.09465466349505974 l 1.309799889321693 6.8342479711684465" fill="#ff4806" stroke="none" /><path d="M 96.75951476605007 79.25152402106235 l -1.5691892436188342 -10.04734876941454 a31.169148055591723,31.169148055591723 0 0,0 0.5308121046805556,-0.0782279060253854 l 1.3960081585096298 10.072871159600894" fill="#ff750a" stroke="none" /><path d="M 97.83486435360386 79.11191278185805 l -1.0084593298331432 -9.729083936411042 a30.78120976473048,30.78120976473048 0 0,0 0.5274944739091028,-0.0500919563273177 l 0.8408397288338041 9.74500143725354" fill="#ff700a" stroke="none" /><path d="M 99.27714615592234 79.0124445844662 l -0.4114777150063317 -11.94696744951499 a32.954051411539,32.954051411539 0 0,0 0.5670817353594664,-0.01464604817025048 l 0.20576934445198625 11.9522802898276" fill="#ff8d0d" stroke="none" /></svg>