<?xml version="1.0" encoding="utf-8" ?>
<svg baseProfile="full" height="200mm" version="1.1" viewBox="0,0,200,200" width="200mm" xmlns="http://www.w3.org/2000/svg" xmlns:ev="http://www.w3.org/2001/xml-events" xmlns:xlink="http://www.w3.org/1999/xlink"><defs /><rect fill="#1a1a1a" height="200" width="200" x="0" y="0" /><text alignment-baseline="middle" fill="#e1ed5e" style="dominant-baseline: central; font-size:9.0px; font-family:Arial;" text-anchor="middle" x="100.0" y="100.0">2023</text><line stroke="#e1ed5e" stroke-width="0.3" x1="100.0" x2="100.0" y1="15.0" y2="10.0" /><path d="M 100.0 14.0 a86.0,86.0 0 0,1 42.46469731375804,11.215312516191453" fill="none" id="id97" stroke="none" /><text fill="#e1ed5e" style="font-size:6.75px; font-family:Arial;" text-anchor="middle"><textPath startOffset="22.20632615414155" xlink:href="#id97">January</textPath></text><path d="M 100.72285384407766 79.0124445844662 l 1.9702971165446637 -57.20619770835019 a78.24011816003103,78.24011816003103 0 0,0 1.345577902306531,0.05794341497162467 l -2.9547158512405263 57.16380656685437" fill="#45fff0" stroke="none" /><path d="M 102.52436894288641 79.15227682838746 l 7.2183382434782555 -59.613281918700224 a81.0487117939735,81.0487117939735 0 0,0 1.3835604500739012,0.17962585487038746 l -8.243413422060003 59.480197740665695" fill="#49f0ff" stroke="none" /><path d="M 107.08798089147638 80.2323363322302 l 13.241742736584087 -36.92988465963616 a60.2321313679987,60.2321313679987 0 0,0 0.9729430245911029,0.35834312696085346 l -13.875468086947766 36.69647826486898" fill="#45ff2d" stroke="none" /><path d="M 109.08828744355905 81.06846463323043 l 22.48663134693808 -46.84121835580465 a72.95910244018144,72.95910244018144 0 0,0 1.1274916702365807,0.5532552659425277 l -23.28959428418509 46.44720792972729" fill="#3effb5" stroke="none" /><line stroke="#e1ed5e" stroke-width="0.3" x1="143.23703022742887" x2="145.7803849466894" y1="26.81831364943548" y2="22.513508569990506" /><path d="M 143.74570117128098 25.957352633546492 a86.0,86.0 0 0,1 28.547481713284135,27.462654790039103" fill="none" id="id98" stroke="none" /><text fill="#e1ed5e" style="font-size:6.75px; font-family:Arial;" text-anchor="middle"><textPath startOffset="19.985693538727396" xlink:href="#id98">February</textPath></text><path d="M 110.68208982089419 81.91981866633111 l 27.08653913078772 -45.84585482779294 a74.24962917218072,74.24962917218072 0 0,0 1.0947857981419364,0.659596193738613 l -27.871686995147293 45.37281202459571" fill="#40ffc4" stroke="none" /><path d="M 111.90073688211348 82.69761687909136 l 29.910286192848567 -43.4863182079514 a73.77958972388203,73.77958972388203 0 0,0 1.0401828119778824,0.7287145334948244 l -30.6544001444101 42.96501883169264" fill="#3fffbe" stroke="none" /><path d="M 113.06298171725822 83.55741782278167 l 32.9762808955024 -41.50776754184557 a74.01254444003763,74.01254444003763 0 0,0 0.9906987955090069,0.8010761941518189 l -33.685883089575896 40.933985250429615" fill="#3fffc1" stroke="none" /><path d="M 114.16331599549186 84.49514656593476 l 35.84223777753666 -39.237184545378284 a74.14341596048892,74.14341596048892 0 0,0 0.9348853340407997,0.868874030506506 l -36.51233099537231 38.61440592879714" fill="#40ffc3" stroke="none" /><path d="M 116.38621287248628 86.86637796730983 l 49.158638617458855 -39.400866098070516 a84.0,84.0 0 0,0 0.8945836776241438,1.1360304241878465 l -49.829576375676965 38.54884327992963" fill="#4dd2ff" stroke="none" /><path d="M 117.45458315368197 88.32363383020206 l 27.126058948573114 -18.146167928407394 a53.635969183822695,53.635969183822695 0 0,0 0.5067407977099561,0.7718010004000647 l -27.434396381640994 17.676548864029655" fill="#91ff24" stroke="none" /><line stroke="#e1ed5e" stroke-width="0.3" x1="172.23445277983987" x2="176.4835382374775" y1="55.19839476539836" y2="52.563006222186495" /><path d="M 173.08426987136738 54.67131705675599 a86.0,86.0 0 0,1 12.851231095245387,41.99856678651699" fill="none" id="id99" stroke="none" /><text fill="#e1ed5e" style="font-size:6.75px; font-family:Arial;" text-anchor="middle"><textPath startOffset="22.20632615414155" xlink:href="#id99">March</textPath></text><path d="M 117.84615892207809 88.93136811851018 l 44.78910111577705 -27.77931512982589 a73.70440140862502,73.70440140862502 0 0,0 0.659423458164344,1.083918781498323 l -45.26064037222762 27.004228575120486" fill="#3fffbe" stroke="none" /><path d="M 118.3937258080291 89.86733742301442 l 48.39423732409634 -26.65922513978003 a76.25139356825707,76.25139356825707 0 0,0 0.6234165094749992,1.1550961114982676 l -48.845961932789805 25.822248044949305" fill="#42ffda" stroke="none" /><path d="M 119.04729006885535 91.15688171328212 l 49.001773971729065 -22.7501383096779 a75.02538889712778,75.02538889712778 0 0,0 0.5337437747692725,1.176033657285692 l -49.38612006346168 21.903282643550146" fill="#41ffcd" stroke="none" /><path d="M 120.08093135843002 93.85539295169968 l 29.86376946619048 -9.138078561965484 a52.23058127115831,52.23058127115831 0 0,0 0.25566646405252585,0.861980218177645 l -30.016641827354707 8.62266895704131" fill="#a2ff22" stroke="none" /><path d="M 120.37134235888165 94.90015583598534 l 58.68112648777716 -14.690470327598225 a81.49202033591328,81.49202033591328 0 0,0 0.3289452554744631,1.363690449902473 l -58.925304543512446 13.678194646036347" fill="#4aebff" stroke="none" /><path d="M 120.53481517161879 95.60439243477599 l 25.86463909930331 -5.5364902165673655 a47.45056293645479,47.45056293645479 0 0,0 0.16409015665119517,0.8001618792642278 l -25.9561085518695 5.090452681139726" fill="#deff1b" stroke="none" /><path d="M 120.6074358757038 95.95851677861258 l 37.12045890482633 -7.2799795539304855 a58.82759008462667,58.82759008462667 0 0,0 0.1863273604098325,0.9953682098625632 l -37.24027198914602 6.639933266605359" fill="#55ff2b" stroke="none" /><path d="M 120.73433829027371 96.67025291283417 l 37.79070834946613 -6.06884576140998 a59.27490726873408,59.27490726873408 0 0,0 0.1531102088695633,1.0088049747963135 l -37.889574451775 5.4174416742215845" fill="#50ff2b" stroke="none" /><path d="M 120.87857604477298 97.74499172005257 l 31.80990918628322 -3.4356561695404833 a52.994906715833494,52.994906715833494 0 0,0 0.09014906629008264,0.9077887949391038 l -31.864335378255532 2.8875918438969443" fill="#98ff23" stroke="none" /><path d="M 120.94382443527127 98.46500227214037 l 52.99814129528943 -3.8842966202509324 a74.14029300812666,74.14029300812666 0 0,0 0.08232894360518947,1.2735923179193218 l -53.05715082989903 2.971445238078575" fill="#40ffc3" stroke="none" /><line stroke="#e1ed5e" stroke-width="0.3" x1="184.98032266829074" x2="189.97916517819016" y1="98.17113171792111" y2="98.06355123074" /><path d="M 185.9800911702706 98.14961562048488 a86.0,86.0 0 0,1 -9.607161424134198,41.387399972396054" fill="none" id="id100" stroke="none" /><text fill="#e1ed5e" style="font-size:6.75px; font-family:Arial;" text-anchor="middle"><textPath startOffset="21.466115282336823" xlink:href="#id100">April</textPath></text><path d="M 120.99980553446 99.90962569577887 l 57.12245496534726 -0.24583094897830182 a78.12298393924814,78.12298393924814 0 0,0 -0.005787435136495281,1.3447961061182843 l -57.11822323292126 -0.7374746353436672" fill="#45ffef" stroke="none" /><path d="M 120.95626037817324 101.35467743843564 l 36.899230173445225 2.385280279475475 a57.976245745134065,57.976245745134065 0 0,0 -0.07294913944326153,0.9953330493421739 l -36.852704475337625 -3.0200864653144195" fill="#5eff29" stroke="none" /><path d="M 120.89721153311464 102.0752229133903 l 57.53060578990385 5.713146520397915 a78.8135853041208,78.8135853041208 0 0,0 -0.14568390437888046,1.3488520211308461 l -57.42373958402392 -6.702594863413553" fill="#46fff6" stroke="none" /><path d="M 120.81339534386255 102.79330883721812 l 26.610909467086742 3.571377343905771 a47.84949233780874,47.84949233780874 0 0,0 -0.116584032563707,0.8153884522154079 l -26.545491383506434 -4.028911268101588" fill="#d9ff1c" stroke="none" /><path d="M 120.70491114924044 103.5080841355445 l 42.08247989126633 7.130138305198069 a63.682244388622394,63.682244388622394 0 0,0 -0.19242214125158702,1.0792055566254968 l -41.953511307675555 -7.853462612556784" fill="#31ff42" stroke="none" /><path d="M 120.5718875245553 104.21870165774334 l 37.551448248968896 7.700720548345151 a59.33291487166994,59.33291487166994 0 0,0 -0.21378485900217584,0.9987316886139138 l -37.41332935124228 -8.345966056375234" fill="#4fff2b" stroke="none" /><path d="M 120.41448212921028 104.9243191809786 l 34.67278167068172 8.363662754614595 a56.667248891044146,56.667248891044146 0 0,0 -0.2368925382218779,0.9462679335251414 l -34.523677818164785 -8.95925852753713" fill="#6dff28" stroke="none" /><path d="M 120.23288151984713 105.62410040840565 l 25.515788048266863 7.092581145314498 a47.48320499914897,47.48320499914897 0 0,0 -0.22567492776961148,0.785604029335132 l -25.389920483611153 -7.530742650154212" fill="#ddff1b" stroke="none" /><path d="M 120.02730092923936 106.31721596034902 l 25.05062212872381 7.901723277009587 a47.26729715411432,47.26729715411432 0 0,0 -0.2514344459824888,0.7738356550790919 l -24.910895431725073 -8.331757832066474" fill="#e0ff1b" stroke="none" /><path d="M 119.9155931802556 106.66101706037122 l 30.91163086322369 10.338778196572301 a53.594773464807545,53.594773464807545 0 0,0 -0.30015413204675234,0.8723884067626884 l -30.729085900233706 -10.86933930642429" fill="#91ff24" stroke="none" /><path d="M 119.41010516605496 108.01547362559984 l 49.10038794240819 20.276184038784542 a74.12223390699646,74.12223390699646 0 0,0 -0.4971449484587915,1.175103803912875 l -48.744092012757086 -21.11836236836358" fill="#40ffc2" stroke="none" /><path d="M 119.12269723197855 108.67885076344098 l 34.44570684034963 15.633210392972464 a58.82729156207528,58.82729156207528 0 0,0 -0.4264289046815174,0.9184899237877076 l -34.171503318828286 -16.223820384039" fill="#55ff2b" stroke="none" /><path d="M 118.81262510543309 109.33194174019688 l 33.69777512225039 16.715672185711 a58.61587091654146,58.61587091654146 0 0,0 -0.4561468379436929,0.9000209859246345 l -33.40504961452043 -17.29324738333833" fill="#57ff2a" stroke="none" /><line stroke="#e1ed5e" stroke-width="0.3" x1="174.80103733775053" x2="179.2010983576182" y1="140.37084112569926" y2="142.7455964860345" /><path d="M 175.68104954172406 140.8457921977663 a86.0,86.0 0 0,1 -30.038265399797805,32.042727171017184" fill="none" id="id101" stroke="none" /><text fill="#e1ed5e" style="font-size:6.75px; font-family:Arial;" text-anchor="middle"><textPath startOffset="22.206326154141568" xlink:href="#id101">May</textPath></text><path d="M 118.48025628344425 109.97397251340804 l 37.50568164469496 20.242178034941254 a63.619501724345234,63.619501724345234 0 0,0 -0.5284162818888655,0.9592290405128275 l -37.15168895335458 -20.884777593851886" fill="#31ff41" stroke="none" /><path d="M 118.12598468904814 110.60418214915192 l 32.23945776023258 18.860938500403698 a58.35127357654397,58.35127357654397 0 0,0 -0.5146557997019355,0.8625927232467338 l -31.910021084832422 -19.413093317536536" fill="#5aff2a" stroke="none" /><path d="M 117.94076556474637 110.91462005526583 l 22.59892443251431 13.748503259149778 a47.45246165054104,47.45246165054104 0 0,0 -0.4305415180584766,0.6941700145140417 l -22.35891827478787 -14.135469605029094" fill="#deff1b" stroke="none" /><path d="M 117.14729908036423 112.12312394758627 l 44.63570319785722 31.557399204341724 a75.6645721149392,75.6645721149392 0 0,0 -0.7610422205680302,1.0570210817353616 l -44.08588118491358 -32.321053891528216" fill="#42ffd4" stroke="none" /><path d="M 116.71984013943494 112.70617746262583 l 25.553695514485163 19.419431485301708 a53.09525936426354,53.09525936426354 0 0,0 -0.5592528290196956,0.7229096695479684 l -25.2156358682474 -19.856419148962928" fill="#97ff23" stroke="none" /><path d="M 116.498646956653 112.99209946851258 l 28.76113998024718 22.648377920500046 a57.608089207075075,57.608089207075075 0 0,0 -0.620197956688846,0.7737923107646231 l -28.36702411150348 -23.140098064842917" fill="#62ff29" stroke="none" /><path d="M 115.32070863581623 114.36230785411682 l 39.01602803480704 36.575345122794126 a74.47902686534553,74.47902686534553 0 0,0 -0.8848585363130385,0.9277706377064121 l -38.380662947115034 -37.24152287708305" fill="#40ffc6" stroke="none" /><path d="M 113.75828350139079 115.86535959552629 l 17.423676792260594 20.092106530403765 a47.59468476576201,47.59468476576201 0 0,0 -0.6235686147854096,0.5314187015523176 l -17.075242700898137 -20.38904962217903" fill="#dcff1b" stroke="none" /><line stroke="#e1ed5e" stroke-width="0.3" x1="143.8653032363475" x2="146.44561519142675" y1="172.8068346515853" y2="177.08958963109032" /><path d="M 144.38136562736335 173.6633856474863 a86.0,86.0 0 0,1 -40.68145358897372,12.25698825130547" fill="none" id="id102" stroke="none" /><text fill="#e1ed5e" style="font-size:6.75px; font-family:Arial;" text-anchor="middle"><textPath startOffset="21.466115282336833" xlink:href="#id102">June</textPath></text><path d="M 110.8373102113329 117.98757091392108 l 19.31942891023599 32.06603767565178 a58.43622718215581,58.43622718215581 0 0,0 -0.8660586378557847,0.511682708762934 l -18.764602401351823 -32.393838956708464" fill="#59ff2a" stroke="none" /><path d="M 110.21172684928248 118.3499491758327 l 26.7213775024343 48.0169442754299 a75.95142357735004,75.95142357735004 0 0,0 -1.147869011883456,0.6259097077244666 l -25.890885678682196 -48.46979463491414" fill="#42ffd7" stroke="none" /><path d="M 109.2508944713604 118.85261126421891 l 17.259170642731867 35.17286202729692 a60.17919338713092,60.17919338713092 0 0,0 -0.9338874654681016,0.4483227356725042 l -16.651170509263533 -35.46473903946899" fill="#46ff2d" stroke="none" /><path d="M 107.93186726928326 119.44442032107085 l 14.196895894039535 34.80270176572609 a58.586964538524136,58.586964538524136 0 0,0 -0.9370536479606107,0.37287298510683287 l -13.59572117003706 -35.041921595238996" fill="#57ff2a" stroke="none" /><path d="M 106.91757812671514 119.82793768551818 l 11.594819300176715 33.23437051919756 a56.198909335532804,56.198909335532804 0 0,0 -0.9161232210223578,0.3107987366577128 l -11.02102634621713 -33.429032242753394" fill="#73ff27" stroke="none" /><path d="M 106.2309692047433 120.05430185196036 l 16.026159509037868 51.58000782241877 a75.01235965563721,75.01235965563721 0 0,0 -1.2363645191954715,0.3725064875807947 l -15.13592001540215 -51.84822967910529" fill="#41ffcd" stroke="none" /><path d="M 105.18746579009965 120.34920634021253 l 13.580762770476827 53.27413327743609 a75.97790823494464,75.97790823494464 0 0,0 -1.2700854818075735,0.31215611040205354 l -12.661724003926043 -53.50001064615218" fill="#42ffd7" stroke="none" /><path d="M 104.48393922423573 120.51570834832081 l 5.615528007008053 25.693152616991817 a47.29966247307226,47.29966247307226 0 0,0 -0.7969059264038756,0.1669993850491222 l -5.1724306191748 -25.78600798276748" fill="#e0ff1b" stroke="none" /><path d="M 103.7750983002368 120.6578951692458 l 4.880161684192123 26.704965132877973 a48.14721239486819,48.14721239486819 0 0,0 -0.8165561531040939,0.14196875389244137 l -4.419756559615979 -26.78501246529142" fill="#d5ff1c" stroke="none" /><path d="M 103.06178313531738 120.77559828337769 l 3.9626535949721986 26.888416189800154 a48.17884377065465,48.17884377065465 0 0,0 -0.8214984030451385,0.11385219315155976 l -3.4992266007402297 -26.952642948444318" fill="#d4ff1c" stroke="none" /><path d="M 102.70371172650421 120.8252237178851 l 3.8379522711125698 29.56166290990862 a50.80976000632016,50.80976000632016 0 0,0 -0.8682966432194777,0.10513863126983108 l -3.328528204841712 -29.6233470699038" fill="#b3ff20" stroke="none" /><path d="M 101.98527174616119 120.90594882070398 l 5.695872778023614 59.980516529717626 a81.25035543360022,81.25035543360022 0 0,0 -1.3934655807109773,0.12023407370111856 l -4.662562879571095 -60.06967485569741" fill="#49eeff" stroke="none" /><path d="M 101.26447882468166 120.96189622390904 l 3.6305876423994494 60.1860623573062 a81.29546640259692,81.29546640259692 0 0,0 -1.3975539692965993,0.07223757678235153 l -2.5940456046893705 -60.23963974085075" fill="#49edff" stroke="none" /><line stroke="#e1ed5e" stroke-width="0.3" x1="102.19456741930631" x2="102.32365962044197" y1="184.97166512339345" y2="189.96999836594603" /><path d="M 102.22038585953345 185.97133177190398 a86.0,86.0 0 0,1 -42.740103519485714,-10.115201625700543" fill="none" id="id103" stroke="none" /><text fill="#e1ed5e" style="font-size:6.75px; font-family:Arial;" text-anchor="middle"><textPath startOffset="22.20632615414155" xlink:href="#id103">July</textPath></text><path d="M 99.81925306533755 120.99922214144158 l -0.5179500976683525 60.175566348781885 a81.17779538750423,81.17779538750423 0 0,0 -1.397187025651861,-0.024053841725070153 l 1.5536968132128812 -60.157735029777655" fill="#49efff" stroke="none" /><path d="M 98.73552117531835 120.96189622390904 l -3.611224668911149 59.86507268715545 a80.97389324904427,80.97389324904427 0 0,0 -1.390581014776998,-0.09590260838406342 l 4.641168444467077 -59.794041734255096" fill="#49f1ff" stroke="none" /><path d="M 98.01472825383883 120.90594882070398 l -4.276557285904489 45.03438278452661 a66.23698238170722,66.23698238170722 0 0,0 -1.13412665541293,-0.11755686499766084 l 5.051116537923012 -44.95409655107319" fill="#35ff63" stroke="none" /><path d="M 96.93821686468263 120.77559828337769 l -4.085357194653158 27.72101620823097 a49.02043688140691,49.02043688140691 0 0,0 -0.8337305716324235,-0.1302115687537734 l 4.561923629894098 -27.64658633213009" fill="#caff1d" stroke="none" /><path d="M 96.22490169976321 120.6578951692458 l -9.858178371993938 53.94540729061361 a75.83876957558618,75.83876957558618 0 0,0 -1.2821532985889486,-0.24572773122513528 l 10.785299285154583 -53.76772236104" fill="#42ffd6" stroke="none" /><path d="M 94.81253420990036 120.34920634021253 l -9.780188052621858 38.36537391894026 a60.592347673316226,60.592347673316226 0 0,0 -1.008457362110145,-0.2663427550596231 l 10.439135857543492 -38.191339814577056" fill="#41ff2d" stroke="none" /><path d="M 94.46302465271185 120.25689768951611 l -7.748865457263752 28.34904707576414 a50.389001105492966,50.389001105492966 0 0,0 -0.834702997854436,-0.2358954048165521 l 8.235699623222802 -28.21146287760907" fill="#b8ff1f" stroke="none" /><path d="M 93.76903079525671 120.05430185196036 l -8.343590870768542 26.85375009144291 a49.12008895064954,49.12008895064954 0 0,0 -0.8052856263306183,-0.2578270274691476 l 8.8045978421901 -26.706150217314057" fill="#c8ff1d" stroke="none" /><path d="M 93.08242187328487 119.8279376855182 l -18.453962766560853 52.89481623245422 a77.02151663472452,77.02151663472452 0 0,0 -1.248043596258518,-0.4475040303540254 l 19.361725923449097 -52.56932466106023" fill="#43ffe3" stroke="none" /><path d="M 92.40401165467489 119.57807347666478 l -12.818578829572665 33.03889721556067 a56.43846346034702,56.43846346034702 0 0,0 -0.9026900179482032,-0.35919898754039464 l 13.385389923562727 -32.81335138361421" fill="#70ff27" stroke="none" /><path d="M 91.40352486487194 119.15986991738527 l -12.0576838570961 26.87423049278398 a50.45525427792054,50.45525427792054 0 0,0 -0.7893412291423676,-0.36234784355678207 l 12.518493082005886 -26.662695578893125" fill="#b8ff1f" stroke="none" /><path d="M 90.42595943632237 118.69057910512821 l -18.3383546880121 35.80039865869634 a61.22392070379169,61.22392070379169 0 0,0 -0.9338370849724246,-0.4885394269912837 l 18.95188267551102 -35.47942981276034" fill="#3aff2e" stroke="none" /><line stroke="#e1ed5e" stroke-width="0.3" x1="58.666819895761336" x2="56.23545636021788" y1="174.27360380694188" y2="178.64263932499728" /><path d="M 58.180547188652646 175.14741091055294 a86.0,86.0 0 0,1 -31.652253787137756,-30.449443065178592" fill="none" id="id104" stroke="none" /><text fill="#e1ed5e" style="font-size:6.75px; font-family:Arial;" text-anchor="middle"><textPath startOffset="22.20632615414155" xlink:href="#id104">August</textPath></text><path d="M 89.4739219176387 118.17145234162733 l -15.011761091965035 25.915207840197287 a50.94913969520424,50.94913969520424 0 0,0 -0.7550956769814658,-0.4461238355980645 l 15.455624639974882 -25.65296543230547" fill="#b1ff20" stroke="none" /><path d="M 88.24862548938628 117.40417183066458 l -15.67127069535407 23.209666898153905 a49.004952467917605,49.004952467917605 0 0,0 -0.695037510092941,-0.4780531371323019 l 16.0684650900699 -22.936472971656503" fill="#caff1d" stroke="none" /><path d="M 87.65650970185807 116.9893568818739 l -16.323836010780546 22.467832757974637 a48.771768595953226,48.771768595953226 0 0,0 -0.6749432844405658,-0.49930690621410573 l 16.708164265639677 -22.183515903020766" fill="#cdff1d" stroke="none" /><path d="M 87.07902340077011 116.55440617244103 l -20.137876303922415 25.800726533734053 a53.72936833641322,53.72936833641322 0 0,0 -0.72417595850719,-0.5753291790850431 l 20.579009755146963 -25.45026344064388" fill="#90ff24" stroke="none" /><path d="M 86.24171649860922 115.8653595955263 l -18.17359353967432 20.956872753837374 a48.739322590247646,48.739322590247646 0 0,0 -0.6291031477256821,-0.5551103832991592 l 18.53163904030659 -20.640939228765923" fill="#cdff1d" stroke="none" /><path d="M 85.44109423537348 115.13401014063109 l -19.380536084014775 20.146103997663353 a48.9547971766648,48.9547971766648 0 0,0 -0.6022606753345088,-0.5894388298841033 l 19.72444671172508 -19.80951506485668" fill="#caff1d" stroke="none" /><path d="M 84.67929136418377 114.36230785411682 l -21.25347350057167 19.923943248351037 a50.13200388581285,50.13200388581285 0 0,0 -0.5847625917239014,-0.6346443013017851 l 21.5932825002913 -19.555147692247907" fill="#bcff1f" stroke="none" /><path d="M 84.19399662182784 113.82643327865904 l -20.735794924869595 18.13880954907279 a48.54976593410154,48.54976593410154 0 0,0 -0.5448150476645937,-0.6337429844230776 l 21.044952482104968 -17.77918946548818" fill="#d0ff1d" stroke="none" /><path d="M 83.28015986056508 112.70617746262583 l -33.82097425821436 25.702117801366466 a63.47890251936975,63.47890251936975 0 0,0 -0.653647498684509,-0.8756676420355027 l 34.25838302359396 -25.116137279821654" fill="#31ff3f" stroke="none" /><line stroke="#e1ed5e" stroke-width="0.3" x1="26.63291911575756" x2="22.317208475507996" y1="142.92168965132927" y2="145.44649492493687" /><path d="M 25.769776987707644 143.4266507060508 a86.0,86.0 0 0,1 -11.730757126820373,-40.83630448921669" fill="none" id="id105" stroke="none" /><text fill="#e1ed5e" style="font-size:6.75px; font-family:Arial;" text-anchor="middle"><textPath startOffset="21.46611528233685" xlink:href="#id105">September</textPath></text><path d="M 80.0844068197444 106.66101706037122 l -28.483491076058137 9.526656739737627 a51.03442112837655,51.03442112837655 0 0,0 -0.2714733478542719,-0.8355090534729471 l 28.643256674928658 -9.034948786286877" fill="#b0ff20" stroke="none" /><path d="M 79.86692584326677 105.97154293290107 l -26.15244540518815 7.756910311940787 a48.27856407985655,48.27856407985655 0 0,0 -0.229455055987416,-0.7987631515675473 l 26.282093098061672 -7.305589684868644" fill="#d3ff1c" stroke="none" /><path d="M 79.4281124754447 104.21870165774334 l -37.376802775905354 7.664905791636467 a59.154634928715915,59.154634928715915 0 0,0 -0.19597104365670232,-0.9992521295842124 l 37.50320375253772 -7.0203899349842995" fill="#51ff2b" stroke="none" /><path d="M 79.10278846688536 102.07522291339032 l -27.53933214613036 2.7348267494231644 a48.67479164156886,48.67479164156886 0 0,0 -0.07562070135406776,-0.834468138070737 l 27.582327443761503 -2.2603772228038608" fill="#ceff1d" stroke="none" /><line stroke="#e1ed5e" stroke-width="0.3" x1="15.007084014347285" x2="10.007500721073583" y1="101.09737516637583" y2="101.16192664675087" /><path d="M 14.007167355692545 101.11028546245083 a86.0,86.0 0 0,1 10.666146001902534,-42.60595125391555" fill="none" id="id106" stroke="none" /><text fill="#e1ed5e" style="font-size:6.75px; font-family:Arial;" text-anchor="middle"><textPath startOffset="22.20632615414155" xlink:href="#id106">October</textPath></text><path d="M 79.00175016825051 100.2711162175752 l -30.271442891573994 0.3908458639680622 a51.273965964623905,51.273965964623905 0 0,0 -0.003798430849004555,-0.8826215576723279 l 30.273685619712502 0.13028517190794098" fill="#adff20" stroke="none" /><path d="M 79.01574976396665 99.18683210126434 l -17.961512060534385 -0.6960327319819822 a38.97499310332865,38.97499310332865 0 0,0 0.031748642910582,-0.6701636728122283 l 17.946869809390307 1.0051075114172197" fill="#ffad10" stroke="none" /><path d="M 79.03285615573316 98.82574320788736 l -54.908926154106055 -3.0751531998337 a75.9949701209076,75.9949701209076 0 0,0 0.08438846618365925,-1.3054522206419341 l 54.847857096917984 4.019864484728646" fill="#42ffd8" stroke="none" /><path d="M 79.12142395522702 97.74499172005258 l -27.22441181619079 -2.9403956443465504 a48.38274137632755,48.38274137632755 0 0,0 0.09655731484764478,-0.8272441070561526 l 27.169764148339556 3.4085834897275644" fill="#d2ff1c" stroke="none" /><path d="M 79.21141760316559 97.0276538004421 l -27.269075709867682 -3.8989254776710665 a48.54639921933406,48.54639921933406 0 0,0 0.12539790725674915,-0.8262155319598973 l 27.197921909171633 4.367740122023055" fill="#d0ff1d" stroke="none" /><path d="M 79.32604984820605 96.31383870115002 l -31.245226537780685 -5.571017826381551 a52.73799648716181,52.73799648716181 0 0,0 0.16703950756132516,-0.892331728694782 l 31.144701306309496 6.108027632538906" fill="#9bff22" stroke="none" /><path d="M 79.46518482838121 95.60439243477599 l -6.41738749117154 -1.3736825371651897 a27.562763588973592,27.562763588973592 0 0,0 0.10330210496133739,-0.46308308103444756 l 6.392790999208165 1.4839437877495965" fill="#ff0000" stroke="none" /><path d="M 79.62865764111835 94.90015583598534 l -54.49309118088676 -13.642020645576162 a77.17474266734797,77.17474266734797 0 0,0 0.33370236767429984,-1.285891348411984 l 54.250192481342154 14.57800841953701" fill="#44ffe5" stroke="none" /><path d="M 79.81627453868168 94.20196356495316 l -27.03086039954153 -7.764964588305 a49.12404823273373,49.12404823273373 0 0,0 0.24046011753929053,-0.8107119772148149 l 26.89319438489053 8.229105952266353" fill="#c8ff1d" stroke="none" /><path d="M 80.02781315780177 93.51064311812611 l -57.65512199924667 -18.73328472626637 a81.62218281605655,81.62218281605655 0 0,0 0.44566763666400855,-1.332489507977887 l 57.32411706881089 19.72294733716658" fill="#4aeaff" stroke="none" /><path d="M 80.2630227832202 92.82701384747504 l -51.44039818909191 -18.694922724895733 a75.73220899563759,75.73220899563759 0 0,0 0.45581922474687403,-1.2213689032609918 l 51.110974375843405 19.577614765186066" fill="#42ffd5" stroke="none" /><path d="M 80.65960295795068 91.81776055985345 l -50.79768939708571 -21.49070966586046 a76.15664828490853,76.15664828490853 0 0,0 0.5211627555135633,-1.2029154943581741 l 50.420235931729465 22.361924304805235" fill="#42ffd9" stroke="none" /><path d="M 81.10775173730289 90.83032412892265 l -50.257510692187395 -24.39334253533521 a76.86459112014984,76.86459112014984 0 0,0 0.5879774724705759,-1.1853267056289711 l 49.830173206763405 25.254828829463143" fill="#43ffe1" stroke="none" /><path d="M 81.43458229118936 90.18545643968196 l -25.616570337434386 -13.542110895969026 a49.97580789851158,49.97580789851158 0 0,0 0.4085924500565697,-0.7570597555161784 l 25.379669788159344 13.981051634817677" fill="#beff1f" stroke="none" /><line stroke="#e1ed5e" stroke-width="0.3" x1="26.266209847984243" x2="21.928928074336255" y1="57.711370442889674" y2="55.22380399835377" /><path d="M 25.398753493254645 57.213857153982495 a86.0,86.0 0 0,1 29.58750427330803,-30.492523968695096" fill="none" id="id107" stroke="none" /><text fill="#e1ed5e" style="font-size:6.75px; font-family:Arial;" text-anchor="middle"><textPath startOffset="21.46611528233685" xlink:href="#id107">November</textPath></text><path d="M 81.78341655067845 89.55222093294921 l -48.23077842452661 -27.661856495384775 a76.60023644020808,76.60023644020808 0 0,0 0.6658396235926504,-1.1381357518049788 l 47.74747912646364 28.487971659543646" fill="#43ffde" stroke="none" /><path d="M 82.15384107792192 88.93136811851018 l -46.834175477713586 -29.04772114264831 a76.11088908971008,76.11088908971008 0 0,0 0.7001201617769633,-1.1074219617106364 l 46.327227719690654 29.849590752073162" fill="#42ffd9" stroke="none" /><path d="M 82.54541684631803 88.32363383020206 l -25.08562256654354 -16.781203658966838 a51.1810744638888,51.1810744638888 0 0,0 0.4961530753159119,-0.7280434159522337 l 24.79304502555889 17.210525098189486" fill="#afff20" stroke="none" /><path d="M 82.7489923806493 88.02491185347247 l -23.47014505922027 -16.292210988341594 a49.57068161576619,49.57068161576619 0 0,0 0.49260836575858585,-0.6967595987364045 l 23.186224073657804 16.693797087409784" fill="#c3ff1e" stroke="none" /><path d="M 83.17141714833178 87.43820079747576 l -44.5239121528821 -33.23514814676685 a76.56036200147639,76.56036200147639 0 0,0 0.7974091997559423,-1.0492970356230793 l 43.945227012902045 33.99662995827096" fill="#43ffde" stroke="none" /><path d="M 83.6137871275137 86.86637796730984 l -21.993574901436997 -17.627947479441353 a49.186199979476875,49.186199979476875 0 0,0 0.5351962316353608,-0.656087297670195 l 21.686880177725246 18.00391894671963" fill="#c7ff1e" stroke="none" /><path d="M 84.07557802195018 86.31012108654704 l -42.158997266036195 -36.24317218421958 a76.59630006081912,76.59630006081912 0 0,0 0.8681210778241841,-0.9924124618552592 l 41.52888432463417 36.963500202277785" fill="#43ffde" stroke="none" /><path d="M 84.5562425177563 85.77008943001954 l -20.736274303829816 -19.106446681602062 a49.196619953472705,49.196619953472705 0 0,0 0.5791910524332743,-0.6178406318075386 l 20.404315929426087 19.46055673028765" fill="#c7ff1e" stroke="none" /><path d="M 85.05521093208273 85.24692304244772 l -27.80332139274474 -27.446659723240032 a60.06845032032348,60.06845032032348 0 0,0 0.7327326910235792,-0.7295861039866416 l 27.326752901553846 27.92118167787678" fill="#47ff2c" stroke="none" /><path d="M 85.83668400450813 84.49514656593479 l -19.179399968960112 -20.996056683808682 a49.43736590190896,49.43736590190896 0 0,0 0.6332432490386234,-0.5685320413879463 l 18.81514573232552 21.323087733965906" fill="#c4ff1e" stroke="none" /><path d="M 86.37877921826538 84.01681056812374 l -36.544225253192316 -42.88112528402513 a77.34067185417936,77.34067185417936 0 0,0 1.0206849662335464,-0.85479430589238 l 35.80068274999966 43.50382074731132" fill="#44ffe6" stroke="none" /><path d="M 86.93701828274178 83.55741782278169 l -35.07722616337317 -44.15226065716266 a77.39001610617312,77.39001610617312 0 0,0 1.0501731021879548,-0.8196767638274208 l 34.31202050602579 44.749515810213296" fill="#44ffe7" stroke="none" /><path d="M 88.09926311788651 82.69761687909137 l -15.5857899002306 -22.660051286495325 a48.502632076234605,48.502632076234605 0 0,0 0.6919600418555564,-0.467214509103948 l 15.193425163968502 22.924977707897938" fill="#d0ff1d" stroke="none" /><path d="M 88.70189139769569 82.29822771554957 l -14.865782457004887 -23.291570752861006 a48.63130029865631,48.63130029865631 0 0,0 0.7095094765115405,-0.44429476910100413 l 14.462653828121105 23.544009863284938" fill="#cfff1d" stroke="none" /><line stroke="#e1ed5e" stroke-width="0.3" x1="56.762969772571076" x2="54.21961505331055" y1="26.818313649435495" y2="22.513508569990535" /><path d="M 56.25429882871897 25.957352633546506 a86.0,86.0 0 0,1 42.265352541879196,-11.944610805530505" fill="none" id="id108" stroke="none" /><text fill="#e1ed5e" style="font-size:6.75px; font-family:Arial;" text-anchor="middle"><textPath startOffset="22.20632615414155" xlink:href="#id108">December</textPath></text><path d="M 89.94658935756843 81.56283822128135 l -27.414430662443 -50.27590249438743 a78.26445127800534,78.26445127800534 0 0,0 1.1883337128921956,-0.6347667148243644 l 26.5449519030225 50.740347935713544" fill="#45fff1" stroke="none" /><path d="M 90.91171255644093 81.06846463323043 l -24.173604798331443 -50.35530148270753 a76.85713523230743,76.85713523230743 0 0,0 1.1975871078620723,-0.5622832050311827 l 23.30323947916976 50.76394967037872" fill="#43ffe1" stroke="none" /><path d="M 91.56875222667455 80.76684994638697 l -22.548137359938472 -51.43624300132813 a77.16142441653639,77.16142441653639 0 0,0 1.2210473621738347,-0.5227887566213617 l 21.65940623997433 51.816751285912275" fill="#44ffe5" stroke="none" /><path d="M 92.57280143429618 80.3572730644239 l -19.52146364781359 -51.62845404287923 a76.19587674646178,76.19587674646178 0 0,0 1.230808956935939,-0.4533173260635792 l 18.62987236510508 51.95683463674913" fill="#42ffda" stroke="none" /><path d="M 93.59665428221793 80.00007090966166 l -17.03687308109356 -53.21222194777669 a76.87303114205223,76.87303114205223 0 0,0 1.2636997521095288,-0.3926376643556171 l 16.118387956273303 53.49759974701483" fill="#43ffe1" stroke="none" /><path d="M 94.63758080256005 79.69619591428918 l -14.151403980513573 -53.5816621899436 a76.418920574628,76.418920574628 0 0,0 1.2747080292180575,-0.32495145920589985 l 13.226987062610515 53.817316645318364" fill="#43ffdc" stroke="none" /><path d="M 96.04723909329186 79.375362276772 l -10.648524087770555 -55.56165849156707 a77.57286416278883,77.57286416278883 0 0,0 1.3135851888719159,-0.24004929704112182 l 9.690543777795746 55.73672326995893" fill="#44ffe9" stroke="none" /><path d="M 97.47563105711357 79.15227682838746 l -6.828880833205732 -56.396913606383684 a77.80885034710727,77.80885034710727 0 0,0 1.3310252288719222,-0.14955619313380364 l 5.857088900824091 56.506105752988084" fill="#45ffec" stroke="none" /><path d="M 99.27714615592234 79.0124445844662 l -1.9409443580221108 -56.35396090953094 a77.38737602685444,77.38737602685444 0 0,0 1.3317017365839783,-0.03439392695314319 l 0.9706159862432536 56.37902162862644" fill="#44ffe7" stroke="none" /></svg>