<?xml version="1.0" encoding="utf-8" ?>
<svg baseProfile="full" height="200mm" version="1.1" viewBox="0,0,200,200" width="200mm" xmlns="http://www.w3.org/2000/svg" xmlns:ev="http://www.w3.org/2001/xml-events" xmlns:xlink="http://www.w3.org/1999/xlink"><defs /><rect fill="#1a1a1a" height="200" width="200" x="0" y="0" /><text alignment-baseline="middle" fill="#e1ed5e" style="dominant-baseline: central; font-size:9.0px; font-family:Arial;" text-anchor="middle" x="100.0" y="100.0">2019</text><line stroke="#e1ed5e" stroke-width="0.3" x1="100.0" x2="100.0" y1="15.0" y2="10.0" /><path d="M 100.0 14.0 a86.0,86.0 0 0,1 42.46469731375804,11.215312516191453" fill="none" id="id49" stroke="none" /><text fill="#e1ed5e" style="font-size:6.75px; font-family:Arial;" text-anchor="middle"><textPath startOffset="22.20632615414155" xlink:href="#id49">January</textPath></text><path d="M 100.0 79.0 l 0.0 -29.068983383121733 a50.06898338312173,50.06898338312173 0 0,0 0.861855243334243,0.007418260176788936 l -0.5003747640617147 29.064676499553503" fill="#fff917" stroke="none" /><path d="M 101.80526077348638 79.07773832637324 l 2.7098376465938068 -31.405951521113263 a52.5226428304705,52.5226428304705 0 0,0 0.9000752101666699,0.08547298663595754 l -3.2500379838507207 31.354652989962126" fill="#dfff1b" stroke="none" /><path d="M 103.2404852339499 79.25152402106235 l 4.874340793001756 -31.209876162119336 a52.58821882001494,52.58821882001494 0 0,0 0.8931753216322511,0.1473815810907924 l -5.410845320772882 31.12134831808892" fill="#deff1b" stroke="none" /><path d="M 103.95276090670814 79.375362276772 l 6.036631954920678 -31.497818885885373 a53.07106982823003,53.07106982823003 0 0,0 0.89572237298288,0.1796734815017803 l -6.577920737370683 31.389241448306382" fill="#d7ff1c" stroke="none" /><path d="M 105.36241919743992 79.69619591428918 l 9.055465036154798 -34.286836077057934 a56.46249533233757,56.46249533233757 0 0,0 0.9375519667658325,0.2562683687478259 l -9.644314892144342 34.12588116748382" fill="#a5ff21" stroke="none" /><path d="M 106.74666289553966 80.11325718540242 l 6.4102115028214595 -18.895004762734434 a40.952744585511574,40.952744585511574 0 0,0 0.6656147004778777,0.23221989930948658 l -6.734508207362611 18.78186401025274" fill="#ff6209" stroke="none" /><path d="M 107.4271985657038 80.35727306442388 l 10.26238878741958 -27.14096019848353 a50.01634615384615,50.01634615384615 0 0,0 0.8026833656690622,0.3114286754453034 l -10.728055318088309 26.96028881914768" fill="#fff817" stroke="none" /><path d="M 109.08828744355905 81.06846463323043 l 7.018818555178801 -14.62068761969858 a37.21814787154592,37.21814787154592 0 0,0 0.5751599225224377,0.28222847608964163 l -7.269449744711671 14.497703983474107" fill="#ff1f03" stroke="none" /><path d="M 110.05341064243156 81.56283822128135 l 13.356010472545867 -24.493869250826748 a48.8986137042569,48.8986137042569 0 0,0 0.7355187689022267,0.4093153985648161 l -13.77565333052013 24.260338454701753" fill="#ffe715" stroke="none" /><line stroke="#e1ed5e" stroke-width="0.3" x1="143.23703022742887" x2="145.7803849466894" y1="26.81831364943548" y2="22.513508569990506" /><path d="M 143.74570117128098 25.957352633546492 a86.0,86.0 0 0,1 28.547481713284135,27.462654790039103" fill="none" id="id50" stroke="none" /><text fill="#e1ed5e" style="font-size:6.75px; font-family:Arial;" text-anchor="middle"><textPath startOffset="19.985693538727396" xlink:href="#id50">February</textPath></text><path d="M 110.68208982089419 81.91981866633111 l 14.494863936437312 -24.53356719253896 a49.495561053024645,49.495561053024645 0 0,0 0.7297953931360631,0.4396935586280901 l -14.915021395791014 24.280427024452255" fill="#fff016" stroke="none" /><path d="M 111.2981086023043 82.29822771554956 l 16.115309070872666 -25.24931751921244 a50.95381814787155,50.95381814787155 0 0,0 0.7352708124284018,0.4782405892916785 l -16.547546909085348 24.96817800576123" fill="#f7ff18" stroke="none" /><path d="M 113.34407831869373 83.78471172551755 l 28.10571581613629 -34.153148178160876 a65.23085791635549,65.23085791635549 0 0,0 0.8608686013908866,0.7209526964092535 l -28.68944195448629 33.664294324357805" fill="#31ff2f" stroke="none" /><path d="M 114.16331599549186 84.49514656593476 l 14.324689475444222 -15.681512074993881 a42.23926904406273,42.23926904406273 0 0,0 0.5326012112921995,0.49499478091920196 l -14.592498570531268 15.43261270800004" fill="#ff780b" stroke="none" /><path d="M 115.19652480421416 85.50635884689758 l 23.522339273707463 -22.434362389228728 a53.505400485436894,53.505400485436894 0 0,0 0.6299182595741646,0.6719528795332134 l -23.90502485525209 22.02614009281746" fill="#d0ff1d" stroke="none" /><path d="M 116.60985879189232 87.15038557335679 l 23.451114158095507 -18.142103348513185 a50.64946321882002,50.64946321882002 0 0,0 0.5275360105090359,0.6941755527538109 l -23.759926108828658 17.735743019878342" fill="#fcff18" stroke="none" /><path d="M 116.82858285166822 87.43820079747576 l 16.603222488517364 -12.393577572987079 a41.718778005974606,41.718778005974606 0 0,0 0.4246125057200474,0.579170980613013 l -16.81409760675104 12.105944148702571" fill="#ff6f0a" stroke="none" /><path d="M 117.2510076193507 88.02491185347247 l 16.99655847784048 -11.79845783219301 a41.69025392083644,41.69025392083644 0 0,0 0.404148367540022,0.5930378600757595 l -17.197131311049237 11.504141948846845" fill="#ff6f0a" stroke="none" /><line stroke="#e1ed5e" stroke-width="0.3" x1="172.23445277983987" x2="176.4835382374775" y1="55.19839476539836" y2="52.563006222186495" /><path d="M 173.08426987136738 54.67131705675599 a86.0,86.0 0 0,1 12.851231095245387,41.99856678651699" fill="none" id="id51" stroke="none" /><text fill="#e1ed5e" style="font-size:6.75px; font-family:Arial;" text-anchor="middle"><textPath startOffset="22.20632615414155" xlink:href="#id51">March</textPath></text><path d="M 118.21658344932153 89.55222093294921 l 26.854495507992542 -15.401891183665601 a51.957748319641524,51.957748319641524 0 0,0 0.43828181383215736,0.7796544420084189 l -27.115634963117135 14.937353231722387" fill="#e8ff1a" stroke="none" /><path d="M 118.73160827565052 90.50648371742162 l 13.072693589201071 -6.625476447079317 a35.6557925690814,35.6557925690814 0 0,0 0.2727498122111049,0.549846977998448 l -13.184803414365584 6.399469880581919" fill="#ff0200" stroke="none" /><path d="M 119.04729006885535 91.15688171328212 l 29.325749762938475 -13.615116536939382 a53.332197535474236,53.332197535474236 0 0,0 0.3794146068120451,0.8359897927983666 l -29.555766686713866 13.108304735298953" fill="#d3ff1c" stroke="none" /><path d="M 119.34039704204932 91.81776055985345 l 27.2326403738322 -11.521169066055865 a50.56947815533981,50.56947815533981 0 0,0 0.33226149004376554,0.8045975528859628 l -27.426923550762165 11.050696942716598" fill="#fdff18" stroke="none" /><path d="M 119.97218684219823 93.5106431181261 l 14.918731351431411 -4.847389658887431 a36.68648244958924,36.68648244958924 0 0,0 0.18997398982032268,0.6022694628045707 l -14.99996082501994 4.589870029656441" fill="#ff1502" stroke="none" /><path d="M 120.18372546131832 94.20196356495316 l 28.38562498958993 -8.154138255429329 a50.533602501867065,50.533602501867065 0 0,0 0.2329676787200697,0.8381086928057178 l -28.521779438876365 7.66431825920466" fill="#feff18" stroke="none" /><path d="M 120.73433829027371 96.67025291283417 l 29.126015869031434 -4.6773745630525685 a50.49919716206124,50.49919716206124 0 0,0 0.1304420872423169,0.8594503756765669 l -29.20221384971305 4.175325074983919" fill="#feff18" stroke="none" /><path d="M 120.98425023603335 99.18683210126433 l 33.498597303140514 -1.298115666425462 a54.52373973114265,54.52373973114265 0 0,0 0.028270054172074573,0.9381454685186426 l -33.515979051768234 0.7213000504818204" fill="#c1ff1e" stroke="none" /><line stroke="#e1ed5e" stroke-width="0.3" x1="184.98032266829074" x2="189.97916517819016" y1="98.17113171792111" y2="98.06355123074" /><path d="M 185.9800911702706 98.14961562048488 a86.0,86.0 0 0,1 -9.607161424134198,41.387399972396054" fill="none" id="id52" stroke="none" /><text fill="#e1ed5e" style="font-size:6.75px; font-family:Arial;" text-anchor="middle"><textPath startOffset="21.466115282336823" xlink:href="#id52">April</textPath></text><path d="M 120.92983693683757 101.71520430193887 l 17.623794126066844 1.444273435705145 a38.68287434652726,38.68287434652726 0 0,0 -0.06009735203421987,0.6631692718660411 l -17.59632217775555 -1.7474240961197567" fill="#ff3a05" stroke="none" /><path d="M 120.81339534386255 102.79330883721812 l 29.47372634896562 3.955588164071042 a50.73797610156833,50.73797610156833 0 0,0 -0.12362174746351168,0.8646102138331431 l -29.401270550485506 -4.462343849884594" fill="#faff18" stroke="none" /><path d="M 120.70491114924044 103.5080841355445 l 30.202651291617 5.117309660678794 a51.63310306198656,51.63310306198656 0 0,0 -0.15601448011192268,0.875012058153346 l -30.110090369165885 -5.6364404695653585" fill="#edff1a" stroke="none" /><path d="M 119.9155931802556 106.66101706037122 l 22.33894828955398 7.471538222370933 a44.555307132188204,44.555307132188204 0 0,0 -0.24952917375646655,0.7252485809534243 l -22.207028284854285 -7.854959506413658" fill="#ffa00e" stroke="none" /><path d="M 119.26925614724726 108.34839909993367 l 27.18832320634237 11.779332385747528 a50.63034914115012,50.63034914115012 0 0,0 -0.3533490023716138,0.7967087189356704 l -26.981533119239486 -12.245589441175886" fill="#fcff18" stroke="none" /><line stroke="#e1ed5e" stroke-width="0.3" x1="174.80103733775053" x2="179.2010983576182" y1="140.37084112569926" y2="142.7455964860345" /><path d="M 175.68104954172406 140.8457921977663 a86.0,86.0 0 0,1 -30.038265399797805,32.042727171017184" fill="none" id="id53" stroke="none" /><text fill="#e1ed5e" style="font-size:6.75px; font-family:Arial;" text-anchor="middle"><textPath startOffset="22.206326154141568" xlink:href="#id53">May</textPath></text><path d="M 118.48025628344425 109.97397251340804 l 28.406924565942756 15.33149110410299 a53.28014843166542,53.28014843166542 0 0,0 -0.4425387997337013,0.8033364656002933 l -28.138809356757548 -15.81819808810109" fill="#d4ff1c" stroke="none" /><path d="M 117.94076556474637 110.91462005526583 l 33.063129309818045 20.114609543970655 a59.70100821508588,59.70100821508588 0 0,0 -0.5416739577355855,0.8733508926126822 l -32.7119907124145 -20.680756767948612" fill="#78ff26" stroke="none" /><path d="M 116.27256486870786 113.27417163493432 l 48.81769460612357 39.822514904802965 a84.0,84.0 0 0,0 -0.9236160004258265,1.1125549715449181 l -48.12498260580419 -40.656931133461654" fill="#4dd2ff" stroke="none" /><path d="M 113.48314897796784 116.09983520530334 l 20.859294934207405 24.907476101341274 a53.488344846900674,53.488344846900674 0 0,0 -0.7109616581653627,0.5850730426468369 l -20.42746314749735 -25.26284426284529" fill="#d1ff1d" stroke="none" /><path d="M 112.63410532772338 116.77436683061366 l 17.871267510063078 23.72777408179523 a50.70504107542943,50.70504107542943 0 0,0 -0.7016974767649445,0.5190990180932709 l -17.460185062879567 -24.03188304862827" fill="#fbff18" stroke="none" /><line stroke="#e1ed5e" stroke-width="0.3" x1="143.8653032363475" x2="146.44561519142675" y1="172.8068346515853" y2="177.08958963109032" /><path d="M 144.38136562736335 173.6633856474863 a86.0,86.0 0 0,1 -40.68145358897372,12.25698825130547" fill="none" id="id54" stroke="none" /><text fill="#e1ed5e" style="font-size:6.75px; font-family:Arial;" text-anchor="middle"><textPath startOffset="21.466115282336833" xlink:href="#id54">June</textPath></text><path d="M 109.89434966115114 118.52300852407294 l 13.987638051822756 26.185969542076606 a50.687691374159826,50.687691374159826 0 0,0 -0.7731299370034603,0.40446504266280137 l -13.5348172122928 -26.422864003684126" fill="#fbff18" stroke="none" /><path d="M 108.59647513512805 119.15986991738527 l 12.81670883944203 28.565949447029197 a52.30944734876774,52.30944734876774 0 0,0 -0.8246941208217035,0.361521667042077 l -12.323094043962573 -28.78233566736573" fill="#e2ff1b" stroke="none" /><path d="M 106.91757812671514 119.82793768551818 l 10.165003922627424 29.13607344346864 a51.85835511575802,51.85835511575802 0 0,0 -0.8453659312482651,0.28679402226288464 l -9.66196825844193 -29.306730452629647" fill="#e9ff1a" stroke="none" /><path d="M 105.88484417918355 120.15858648285463 l 9.158288753854404 31.371800213942524 a53.681250000000006,53.681250000000006 0 0,0 -0.8892397015326017,0.25130802202841074 l -8.616917884217196 -31.524797029309454" fill="#ceff1d" stroke="none" /><path d="M 103.41894727170886 120.7198165907248 l 4.814645042849234 29.178151726047847 a50.572712845407025,50.572712845407025 0 0,0 -0.8601313956382978,0.13433483450312242 l -4.311677783602419 -29.256704867898076" fill="#fdff18" stroke="none" /><line stroke="#e1ed5e" stroke-width="0.3" x1="102.19456741930631" x2="102.32365962044197" y1="184.97166512339345" y2="189.96999836594603" /><path d="M 102.22038585953345 185.97133177190398 a86.0,86.0 0 0,1 -42.740103519485714,-10.115201625700543" fill="none" id="id55" stroke="none" /><text fill="#e1ed5e" style="font-size:6.75px; font-family:Arial;" text-anchor="middle"><textPath startOffset="22.20632615414155" xlink:href="#id55">July</textPath></text><path d="M 98.37488393609728 120.93702456842531 l -1.4907087098311522 19.20540050976247 a40.26316747572815,40.26316747572815 0 0,0 -0.690524216767021,-0.059581334997031075 l 1.821077244339715 -19.176894922486774" fill="#ff5607" stroke="none" /><path d="M 96.58105272829116 120.7198165907248 l -4.794058588496597 29.053391814723938 a50.44626587005228,50.44626587005228 0 0,0 -0.8555471178577877,-0.14874783290385182 l 5.293454677826435 -28.96656540329908" fill="#ffff18" stroke="none" /><path d="M 95.16358092515715 120.4354850818985 l -6.815030084237696 28.79577709540279 a50.59123879761016,50.59123879761016 0 0,0 -0.8457089619368044,-0.2078546868472492 l 7.309692330917711 -28.67420115024151" fill="#fdff18" stroke="none" /><path d="M 93.42475214034765 119.94407469862007 l -4.55531723099748 13.81721101168168 a35.548753734129946,35.548753734129946 0 0,0 -0.5794959218834999,-0.1965964799131451 l 4.792482885818206 -13.736751544870412" fill="#ff0000" stroke="none" /><line stroke="#e1ed5e" stroke-width="0.3" x1="58.666819895761336" x2="56.23545636021788" y1="174.27360380694188" y2="178.64263932499728" /><path d="M 58.180547188652646 175.14741091055294 a86.0,86.0 0 0,1 -31.652253787137756,-30.449443065178592" fill="none" id="id56" stroke="none" /><text fill="#e1ed5e" style="font-size:6.75px; font-family:Arial;" text-anchor="middle"><textPath startOffset="22.20632615414155" xlink:href="#id56">August</textPath></text><path d="M 89.4739219176387 118.17145234162733 l -7.505136909041337 12.956320159601106 a35.97308625840179,35.97308625840179 0 0,0 -0.5331419153277163,-0.3149896409616677 l 7.727046695397435 -12.82521194634569" fill="#ff0801" stroke="none" /><path d="M 87.65650970185807 116.9893568818739 l -17.361144455044858 23.895565346612113 a50.53654312920089,50.53654312920089 0 0,0 -0.6993656655445819,-0.5173739998981797 l 17.769895091008003 -23.593181397974163" fill="#feff18" stroke="none" /><path d="M 85.97065885151581 115.62618273729859 l -19.544881275973818 21.76951028310911 a50.256007281553394,50.256007281553394 0 0,0 -0.6387309993068342,-0.5834656237009671 l 19.91671182474751 -21.429851892821564" fill="#fffc17" stroke="none" /><path d="M 84.9287848128048 114.62390073753433 l -22.488850283271667 21.821380038635112 a52.33561893203884,52.33561893203884 0 0,0 -0.6217806691938615,-0.6519345458034065 l 22.861137503844486 -21.431038376249205" fill="#e2ff1b" stroke="none" /><path d="M 83.28015986056508 112.70617746262583 l -23.52562047550458 17.878203749993975 a50.548011575802846,50.548011575802846 0 0,0 -0.520497047344466,-0.6972908533297434 l 23.829878789544132 -17.470600017154926" fill="#fdff18" stroke="none" /><path d="M 82.44556493220864 111.52570212397912 l -12.52646270471779 8.224490121394487 a35.985142830470494,35.985142830470494 0 0,0 -0.33551028366135693,-0.5207194109486447 l 12.666177851756194 -8.007649110524394" fill="#ff0801" stroke="none" /><line stroke="#e1ed5e" stroke-width="0.3" x1="26.63291911575756" x2="22.317208475507996" y1="142.92168965132927" y2="145.44649492493687" /><path d="M 25.769776987707644 143.4266507060508 a86.0,86.0 0 0,1 -11.730757126820373,-40.83630448921669" fill="none" id="id57" stroke="none" /><text fill="#e1ed5e" style="font-size:6.75px; font-family:Arial;" text-anchor="middle"><textPath startOffset="21.46611528233685" xlink:href="#id57">September</textPath></text><path d="M 81.69416730710424 110.29060199501025 l -18.036594087521806 10.139249834413357 a41.69113610903659,41.69113610903659 0 0,0 -0.34628179305636625,-0.6286020387433371 l 18.208452290029687 -9.827277277272199" fill="#ff6f0a" stroke="none" /><path d="M 81.35079622478065 109.6543875284942 l -26.180264799383277 13.55309454592887 a50.48037714712473,50.48037714712473 0 0,0 -0.3928366849082888,-0.775104047750019 l 26.409680154077833 -13.100436286476166" fill="#feff18" stroke="none" /><path d="M 80.45479744820244 107.68017299344265 l -26.804223633955093 10.532562858744393 a49.79932785660941,49.79932785660941 0 0,0 -0.30663514115513857,-0.8005275939019223 l 26.981553054703742 -10.069611698009314" fill="#fff517" stroke="none" /><path d="M 79.29508885075956 103.50808413554451 l -28.692402754792955 4.861424528181822 a50.10133028379387,50.10133028379387 0 0,0 -0.13674858838250473,-0.8515335903945919 l 28.77183309753675 -4.366811708094017" fill="#fffa17" stroke="none" /><path d="M 79.04373962182676 101.35467743843564 l -27.523285661729247 1.7791902488670046 a48.58073188946976,48.58073188946976 0 0,0 -0.0467616127638402,-0.8349600085730758 l 27.549833625380618 -1.305158523958491" fill="#ffe215" stroke="none" /><line stroke="#e1ed5e" stroke-width="0.3" x1="15.007084014347285" x2="10.007500721073583" y1="101.09737516637583" y2="101.16192664675087" /><path d="M 14.007167355692545 101.11028546245083 a86.0,86.0 0 0,1 10.666146001902534,-42.60595125391555" fill="none" id="id58" stroke="none" /><text fill="#e1ed5e" style="font-size:6.75px; font-family:Arial;" text-anchor="middle"><textPath startOffset="22.20632615414155" xlink:href="#id58">October</textPath></text><path d="M 79.00175016825051 100.2711162175752 l -23.08729341331181 0.2980886366444628 a44.08921769977596,44.08921769977596 0 0,0 -0.0032661769275825325,-0.758944491042084 l 23.089003887528893 0.0993653326012965" fill="#ff980e" stroke="none" /><path d="M 79.00486145842228 99.54816195383935 l -28.013281029698916 -0.6028760487549109 a49.019767550410755,49.019767550410755 0 0,0 0.02541629556200608,-0.8434431134405219 l 27.998753039681265 1.0849893096204273" fill="#ffe915" stroke="none" /><path d="M 79.05617556472873 98.46500227214037 l -30.592217342587983 -2.2421398850143865 a51.6742718446602,51.6742718446602 0 0,0 0.07265283568882006,-0.8865486182882386 l 30.549090023079664 2.7684024205104034" fill="#ecff1a" stroke="none" /><path d="M 79.26566170972629 96.67025291283419 l -29.872486888602392 -4.797251053359254 a51.25523244958925,51.25523244958925 0 0,0 0.14739086071328353,-0.8699092032480641 l 29.785484166368885 5.310746044923146" fill="#f2ff19" stroke="none" /><path d="M 79.3925641242962 95.95851677861259 l -28.7451799475685 -5.637438988264827 a50.29276512322629,50.29276512322629 0 0,0 0.17391885779192848,-0.8480901166186012 l 28.643881793861578 6.131404761046831" fill="#fffd17" stroke="none" /><path d="M 80.02781315780177 93.51064311812611 l -28.42848383835114 -9.236974333119132 a50.89147684839432,50.89147684839432 0 0,0 0.27787402187562305,-0.830807956935024 l 28.265272522703743 9.72495539297648" fill="#f8ff18" stroke="none" /><path d="M 80.803312248108 91.48605970444005 l -36.54807776497491 -16.209470926973317 a60.981357356236,60.981357356236 0 0,0 0.43383207130721574,-0.9558914625052175 l 36.263643376704344 16.836184398320604" fill="#67ff28" stroke="none" /><line stroke="#e1ed5e" stroke-width="0.3" x1="26.266209847984243" x2="21.928928074336255" y1="57.711370442889674" y2="55.22380399835377" /><path d="M 25.398753493254645 57.213857153982495 a86.0,86.0 0 0,1 29.58750427330803,-30.492523968695096" fill="none" id="id59" stroke="none" /><text fill="#e1ed5e" style="font-size:6.75px; font-family:Arial;" text-anchor="middle"><textPath startOffset="21.46611528233685" xlink:href="#id59">November</textPath></text><path d="M 82.15384107792192 88.93136811851018 l -25.043432181905334 -15.532559867974527 a50.46920276325616,50.46920276325616 0 0,0 0.4642503434918141,-0.7343325534429112 l 24.77235424216756 15.961340069131653" fill="#ffff18" stroke="none" /><path d="M 83.17141714833178 87.43820079747577 l -23.85748538768309 -17.80856674378392 a50.771205190440625,50.771205190440625 0 0,0 0.5288040056651414,-0.6958440857465321 l 23.547405441793842 18.216595605411477" fill="#faff18" stroke="none" /><path d="M 83.84228863543731 86.58626213691792 l -23.208232494679113 -19.266908532099198 a51.16348487677371,51.16348487677371 0 0,0 0.5683760951792065,-0.6727780216431969 l 22.87314578601278 19.66354550337151" fill="#f4ff19" stroke="none" /><path d="M 84.80347519578584 85.50635884689758 l -19.80392897083912 -18.887939421865333 a48.36694828230023,48.36694828230023 0 0,0 0.5797947303942032,-0.5975294350668631 l 19.475869976741805 19.226033052482318" fill="#ffde14" stroke="none" /><path d="M 85.83668400450813 84.49514656593479 l -10.12309524423865 -11.08194635429738 a36.0095500373413,36.0095500373413 0 0,0 0.46124634769799466,-0.41411152513286564 l 9.930837908944685 11.254556888199524" fill="#ff0901" stroke="none" /><path d="M 86.10567301691215 84.25364557470407 l -19.630536061692 -22.24716452709101 a50.669753547423454,50.669753547423454 0 0,0 0.6589630435638568,-0.5714462578489141 l 19.24467921948137 22.581775778359606" fill="#fbff18" stroke="none" /><line stroke="#e1ed5e" stroke-width="0.3" x1="56.76296977257108" x2="54.21961505331056" y1="26.818313649435495" y2="22.513508569990535" /><path d="M 56.25429882871898 25.957352633546506 a86.0,86.0 0 0,1 42.26535254187918,-11.944610805530505" fill="none" id="id60" stroke="none" /><text fill="#e1ed5e" style="font-size:6.75px; font-family:Arial;" text-anchor="middle"><textPath startOffset="22.20632615414155" xlink:href="#id60">December</textPath></text><path d="M 89.3179101791058 81.91981866633112 l -9.706920325388932 -16.42963901419587 a40.0829070201643,40.0829070201643 0 0,0 0.5970506803902884,-0.34585029103690773 l 9.42267291253332 16.594293462622826" fill="#ff5307" stroke="none" /><path d="M 90.91171255644093 81.06846463323043 l -13.513312834767676 -28.149171275929685 a52.224757281553394,52.224757281553394 0 0,0 0.8137656424816048,-0.3820738805510879 l 13.026768980986464 28.377610139120783" fill="#e4ff1b" stroke="none" /><path d="M 91.56875222667455 80.76684994638697 l -13.126087978769837 -29.94290127628793 a53.69360063480209,53.69360063480209 0 0,0 0.8496788377935881,-0.36378813541415644 l 12.60872538318594 30.164408939664874" fill="#ceff1d" stroke="none" /><path d="M 92.91201910852362 80.23233633223022 l -9.89313270171957 -27.590949081618117 a50.31099701269605,50.31099701269605 0 0,0 0.8177166035214979,-0.2852852666822546 l 9.416734094134785 27.75715520147258" fill="#fffd17" stroke="none" /><path d="M 94.98787191387505 79.60689891045804 l -8.443016790187263 -34.35253288510964 a56.3748646377894,56.3748646377894 0 0,0 0.9443496204889417,-0.22349704445719165 l 7.850443482735788 34.4927758417077" fill="#a7ff21" stroke="none" /><path d="M 96.04723909329186 79.375362276772 l -7.436168356051885 -38.80029225451615 a60.50644604182226,60.50644604182226 0 0,0 1.0245898770093584,-0.1872372510097844 l 6.767183357939634 38.92254498687667" fill="#6eff28" stroke="none" /><path d="M 96.75951476605007 79.25152402106235 l -4.635025271289888 -29.677564796647196 a51.03733196415236,51.03733196415236 0 0,0 0.8691682412638724,-0.12809280515326274 l 4.123488049597367 29.75295208596143" fill="#f6ff19" stroke="none" /><path d="M 98.91598698831166 79.02799685794201 l -1.6700550162289387 -32.30994339561747 a53.353075989544436,53.353075989544436 0 0,0 0.9175691673263336,-0.039512458503092256 l 1.113645016513281 32.33390358064476" fill="#d3ff1c" stroke="none" /><path d="M 99.63851952072746 79.00311137660856 l -0.33292007938154816 -19.337934489111447 a40.3408000373413,40.3408000373413 0 0,0 0.6944005586540791,-0.005976924838415928 l 4.737129771735807e-15 19.340800037341303" fill="#ff5708" stroke="none" /></svg>