<?xml version="1.0" encoding="utf-8" ?>
<svg baseProfile="full" height="200mm" version="1.1" viewBox="0,0,200,200" width="200mm" xmlns="http://www.w3.org/2000/svg" xmlns:ev="http://www.w3.org/2001/xml-events" xmlns:xlink="http://www.w3.org/1999/xlink"><defs /><rect fill="#1a1a1a" height="200" width="200" x="0" y="0" /><text alignment-baseline="middle" fill="#e1ed5e" style="dominant-baseline: central; font-size:9.0px; font-family:Arial;" text-anchor="middle" x="100.0" y="100.0">2020</text><line stroke="#e1ed5e" stroke-width="0.3" x1="100.0" x2="100.0" y1="15.0" y2="10.0" /><path d="M 100.0 14.0 a86.0,86.0 0 0,1 42.35913384403234,11.155469271406648" fill="none" id="id61" stroke="none" /><text fill="#e1ed5e" style="font-size:6.75px; font-family:Arial;" text-anchor="middle"><textPath startOffset="22.145653131862478" xlink:href="#id61">January</textPath></text><path d="M 103.23170211078529 79.25015418208739 l 9.687248171915526 -62.199082426646754 a83.94893670159233,83.94893670159233 0 0,0 1.4220250180728644,0.233993675579907 l -10.753550693041461 62.02362275257118" fill="#4dd3ff" stroke="none" /><path d="M 104.9986988182912 79.60360301121754 l 6.5277912302024985 -26.63561583344559 a48.42385985181528,48.42385985181528 0 0,0 0.8056685863723617,0.2047978041133554 l -6.984065109800254 26.519632797496968" fill="#fff917" stroke="none" /><path d="M 107.06938296918511 80.22567764915836 l 16.56575252984491 -46.33735814530123 a70.2095002694193,70.2095002694193 0 0,0 1.131412216576864,0.4154702376191737 l -17.3587538980759 46.04615705867334" fill="#38ff82" stroke="none" /><path d="M 107.40779381753099 80.34994680014964 l 6.288996888136314 -16.682311423559675 a38.828376154086996,38.828376154086996 0 0,0 0.6216750983494762,0.24047728314375635 l -6.574444248979316 16.57189425227788" fill="#ff6109" stroke="none" /><path d="M 108.07796709384702 80.6158196554323 l 9.06119188880192 -21.743561922040758 a44.55605407328041,44.55605407328041 0 0,0 0.703486891405213,0.30027672202455513 l -9.433113855377563 21.584810550356803" fill="#ffbe11" stroke="none" /><path d="M 109.3889696526874 81.21577127319529 l 25.358654190658076 -50.734295470315324 a77.71886881127513,77.71886881127513 0 0,0 1.18825776831019,0.606732883170988 l -26.22583918068184 50.291504635471505" fill="#43ffe3" stroke="none" /><line stroke="#e1ed5e" stroke-width="0.3" x1="143.13028292997686" x2="145.6673583964461" y1="26.7553504044142" y2="22.446841604673864" /><path d="M 143.63769802327073 25.89364864446614 a86.0,86.0 0 0,1 29.32050498858742,28.57503671076993" fill="none" id="id62" stroke="none" /><text fill="#e1ed5e" style="font-size:6.75px; font-family:Arial;" text-anchor="middle"><textPath startOffset="20.669276256404974" xlink:href="#id62">February</textPath></text><path d="M 110.65571695917076 81.90426304109057 l 31.875916232791464 -54.1322745041939 a83.82019721934451,83.82019721934451 0 0,0 1.23362272854262,0.7407550036299172 l -32.80047171789152 53.57710550002806" fill="#4dd4ff" stroke="none" /><path d="M 111.5731344415666 82.4767994020092 l 13.613077954566956 -20.61193507760481 a45.70157401949342,45.70157401949342 0 0,0 0.6509290680495307,0.43797412702503624 l -13.964903310713487 20.375211276522652" fill="#ffd013" stroke="none" /><path d="M 112.45986205192187 83.09580414077388 l 15.05526561769518 -20.42535925788498 a46.37432410199378,46.37432410199378 0 0,0 0.6367570355282531,0.47783435043634537 l -15.4036756421342 20.163905880184622" fill="#ffda14" stroke="none" /><path d="M 113.31354834802062 83.75963576809568 l 15.682205128631173 -19.129740366043986 a45.736178447139295,45.736178447139295 0 0,0 0.6029022881676108,0.5029625317523495 l -16.008281750960677 18.857715650379767" fill="#ffd013" stroke="none" /><path d="M 114.13192950727249 84.46653392183569 l 16.696636111371134 -18.352527906537325 a45.811145439011355,45.811145439011355 0 0,0 0.5771554869127832,0.5342065022553603 l -17.009221369597885 18.063203658149586" fill="#ffd113" stroke="none" /><path d="M 114.91283532996326 85.21462403516908 l 17.737120288375664 -17.58552188061414 a45.977109839568435,45.977109839568435 0 0,0 0.5508784609797286,0.5652498307088389 l -18.036385550506203 17.278449357837562" fill="#ffd413" stroke="none" /><path d="M 115.41159269507618 85.73525988315684 l 18.390200456795604 -17.021694993058787 a46.05868259262342,46.05868259262342 0 0,0 0.5320924901506969,0.5848628555604105 l -18.67969064778818 16.703494561940705" fill="#ffd513" stroke="none" /><path d="M 115.8921839302757 86.27271002978787 l 18.946165092250535 -16.36524616036971 a46.03554380460525,46.03554380460525 0 0,0 0.5114448876914656,0.6024807916906787 l -19.224304543449115 16.03759858622948" fill="#ffd513" stroke="none" /><path d="M 116.35404254752997 86.82634096563983 l 19.584501604395676 -15.775888178373076 a46.14818782554934,46.14818782554934 0 0,0 0.49166184674447105,0.6211986820362977 l -19.852429881781706 15.437369552422101" fill="#ffd714" stroke="none" /><path d="M 117.01052211995028 87.68569379921539 l 20.133340236409317 -14.574985692234952 a45.855212672674355,45.855212672674355 0 0,0 0.45611721814377537,0.6415859884433656 l -20.380572553083052 14.227222477082082" fill="#ffd213" stroke="none" /><path d="M 117.81537515405839 88.88188828441811 l 21.271442723170015 -13.274953488359793 a46.073864194479846,46.073864194479846 0 0,0 0.4129798687015379,0.6745715788819235 l -21.496190556326955 12.907844793353316" fill="#ffd513" stroke="none" /><line stroke="#e1ed5e" stroke-width="0.3" x1="172.87174338648825" x2="177.1583165268699" y1="56.24261187166439" y2="53.66864786411523" /><path d="M 173.72905801456457 55.72781907015455 a86.0,86.0 0 0,1 12.242430191666344,42.057860355516425" fill="none" id="id63" stroke="none" /><text fill="#e1ed5e" style="font-size:6.75px; font-family:Arial;" text-anchor="middle"><textPath startOffset="22.145653131862474" xlink:href="#id63">March</textPath></text><path d="M 118.18653347947321 89.5 l 21.894310334900883 -12.640685965576235 a46.281371931152464,46.281371931152464 0 0,0 0.3913346417147088,0.6914508149487519 l -22.10807834163697 12.262978380528365" fill="#ffd914" stroke="none" /><path d="M 118.70294669586156 90.45014215332178 l 22.11999591332151 -11.294627524552903 a45.836723417627944,45.836723417627944 0 0,0 0.35180795516870855,0.703851577143716 l -22.310623781701956 10.913244091245437" fill="#ffd213" stroke="none" /><path d="M 119.16976305983485 91.42560881287824 l 22.68345286796524 -10.146019945968419 a45.84916004128086,45.84916004128086 0 0,0 0.31519358323535057,0.7212246014548834 l -22.85428033321756 9.755133274737686" fill="#ffd213" stroke="none" /><path d="M 119.4528033332814 92.08871423366111 l 23.572963375630835 -9.586918986889158 a46.447860773943425,46.447860773943425 0 0,0 0.2940400074417625,0.7411728999025896 l -23.73406205803872 9.180845069773003" fill="#ffdb14" stroke="none" /><path d="M 119.83427380445688 93.10060997987247 l 23.898537916712232 -8.313152053046323 a46.30313442270741,46.30313442270741 0 0,0 0.254699383462722,0.7529734700929708 l -24.03772272174732 7.901676908479191" fill="#ffd914" stroke="none" /><path d="M 120.05942366710727 93.78553927170692 l 12.298129657645744 -3.8099920046166087 a33.874782800168255,33.874782800168255 0 0,0 0.16731510148148956,0.5569375565442778 l -12.361721079130861 3.5983168444816074" fill="#ff0c01" stroke="none" /><path d="M 120.43855184770803 95.1765574152323 l 24.262233898619616 -5.7258211374364 a45.928718808820484,45.928718808820484 0 0,0 0.17450537635790422,0.7689028866357212 l -24.356950136535186 5.308483916861653" fill="#ffd313" stroke="none" /><path d="M 120.7213421655516 96.59031103205396 l 28.04970379918348 -4.615568085991507 a49.42691245946966,49.42691245946966 0 0,0 0.13057768340304599,0.8384023975572946 l -28.12480297472479 4.133377506502771" fill="#f6ff19" stroke="none" /><path d="M 120.96210409425399 98.7389718711861 l 27.0932485064589 -1.6298625516774987 a48.14222847464994,48.14222847464994 0 0,0 0.04254491621466813,0.8253600085988528 l -27.117235012130138 1.1645307497019153" fill="#fff517" stroke="none" /><line stroke="#e1ed5e" stroke-width="0.3" x1="184.99686870605535" x2="189.99668451229388" y1="99.2704041080226" y2="99.22748670261217" /><path d="M 185.99683186730306 99.26182062694052 a86.0,86.0 0 0,1 -10.086455211305974,41.156179273409016" fill="none" id="id64" stroke="none" /><text fill="#e1ed5e" style="font-size:6.75px; font-family:Arial;" text-anchor="middle"><textPath startOffset="21.40746469413373" xlink:href="#id64">April</textPath></text><path d="M 120.82617615685814 102.69636545807757 l 24.56908266256553 3.180959640840203 a45.77414634486186,45.77414634486186 0 0,0 -0.10758119629158167,0.7784039448528816 l -24.51085694971874 -3.60225189389317" fill="#ffd113" stroke="none" /><path d="M 120.65975698304385 103.76489593502545 l 24.458909776126703 4.457228130363348 a45.861720576879,45.861720576879 0 0,0 -0.1477920320836663,0.7733103628300816 l -24.37879145176088 -4.876441058226744" fill="#ffd213" stroke="none" /><path d="M 120.43855184770803 104.8234425847677 l 24.27251847167447 5.728248268673909 a45.9392858996673,45.9392858996673 0 0,0 -0.18772208348216682,0.7659701609253221 l -24.17060886167601 -6.1440742542073306" fill="#ffd313" stroke="none" /><path d="M 120.26092885502905 105.52220625578681 l 24.583544718841058 6.7003544312877 a46.48029474806237,46.48029474806237 0 0,0 -0.21642444329921579,0.7680139986776311 l -24.464901783467262 -7.12137635386834" fill="#ffdc14" stroke="none" /><path d="M 120.05942366710727 106.21446072829308 l 30.239544098808828 9.36828806062273 a52.65746118201221,52.65746118201221 0 0,0 -0.2749102725303847,0.8611525131950912 l -30.074269110501188 -9.886009607509203" fill="#c8ff1d" stroke="none" /><path d="M 119.83427380445688 106.89939002012753 l 56.35955661959455 19.604779399216863 a80.67199508688512,80.67199508688512 0 0,0 -0.46620664790286787,1.3040629681432165 l -56.01470980164774 -20.569377323741" fill="#48f8ff" stroke="none" /><path d="M 118.8641267826498 109.22738970284198 l 13.380528085067922 6.545086793219711 a35.89552593788049,35.89552593788049 0 0,0 -0.2755068564751472,0.5511982676768782 l -13.266201315381045 -6.773816917060335" fill="#ff2f04" stroke="none" /><line stroke="#e1ed5e" stroke-width="0.3" x1="174.33088141563837" x2="178.70328620479359" y1="141.23008692659167" y2="143.65538615756765" /><path d="M 175.20536237346943 141.71514677278685 a86.0,86.0 0 0,1 -30.301960400862466,31.631185727798858" fill="none" id="id65" stroke="none" /><text fill="#e1ed5e" style="font-size:6.75px; font-family:Arial;" text-anchor="middle"><textPath startOffset="22.145653131862474" xlink:href="#id65">May</textPath></text><path d="M 117.81537515405839 111.11811171558189 l 21.157118681382407 13.203606830914751 a45.939103918214045,45.939103918214045 0 0,0 -0.423257327177818,0.6654308194969597 l -20.9273436625787 -13.564851325090382" fill="#ffd313" stroke="none" /><path d="M 117.423217284605 111.72311816256416 l 20.871017206406957 14.042951820374167 a46.15559291806666,46.15559291806666 0 0,0 -0.44795159714648103,0.6535747674323853 l -20.626875872445158 -14.399161322876596" fill="#ffd714" stroke="none" /><path d="M 117.01052211995028 112.31430620078461 l 22.003376298932327 15.92874758843272 a48.16382830693086,48.16382830693086 0 0,0 -0.4905783620935072,0.6655637664822988 l -21.72669591725499 -16.3041176641839" fill="#fff517" stroke="none" /><path d="M 116.79662413953412 112.60449989151573 l 22.06963026292054 16.561461990450304 a48.592582394606495,48.592582394606495 0 0,0 -0.5063995510622701,0.6628932679844955 l -21.782078734503965 -16.937876171675672" fill="#fffc17" stroke="none" /><path d="M 116.1254893667686 113.45245675266167 l 19.178608485624387 15.999477309555475 a45.976034465540046,45.976034465540046 0 0,0 -0.5107837518664176,0.6017019753511642 l -18.901130170250855 -16.326346067356194" fill="#ffd413" stroke="none" /><path d="M 114.91283532996326 114.78537596483092 l 17.41510079756614 17.266254676606607 a45.523647492712584,45.523647492712584 0 0,0 -0.5549724563471331,0.5502291305216341 l -17.116136421089045 -17.562663817356903" fill="#ffcd13" stroke="none" /><path d="M 114.65682725009322 115.03919595460226 l 16.95658622867247 17.398951264332705 a45.29504726542078,45.29504726542078 0 0,0 -0.5615022408200088,0.5379064450110164 l -16.65541150198715 -17.687469839649303" fill="#ffc912" stroke="none" /><path d="M 114.13192950727249 115.5334660781643 l 38.37412031932002 42.179880387373856 a78.02381449688205,78.02381449688205 0 0,0 -0.998463223617016,0.8928319713881026 l -37.644392068879625 -42.83240788864535" fill="#44ffe7" stroke="none" /><path d="M 113.86319453409587 115.77377054828091 l 16.080928921465535 18.297145177221218 a45.35942931625321,45.35942931625321 0 0,0 -0.589284909700961,0.5090102698298556 l -15.76446453200172 -18.57049957951579" fill="#ffca12" stroke="none" /><path d="M 111.27062007382361 117.71928675628689 l 19.149788924056217 30.106648884013243 a56.68087334779184,56.68087334779184 0 0,0 -0.8254782991086546,0.5151595107548308 l -18.63014649615785 -30.43094419160962" fill="#91ff24" stroke="none" /><path d="M 110.96478420261333 117.91015095944535 l 6.377925834552116 10.417862531006273 a33.215146240057535,33.215146240057535 0 0,0 -0.4888435089979146,0.29353648153840683 l -6.198149568996764 -10.525813013080603" fill="#ff0000" stroke="none" /><line stroke="#e1ed5e" stroke-width="0.3" x1="143.1302829299769" x2="145.66735839644613" y1="173.24464959558577" y2="177.55315839532614" /><path d="M 143.63769802327073 174.10635135553383 a86.0,86.0 0 0,1 -40.68552437913181,11.842963189579606" fill="none" id="id66" stroke="none" /><text fill="#e1ed5e" style="font-size:6.75px; font-family:Arial;" text-anchor="middle"><textPath startOffset="21.407464694133747" xlink:href="#id66">June</textPath></text><path d="M 110.02825361518725 118.45085714620011 l 12.361689345828703 22.744116070236657 a46.88640916193616,46.88640916193616 0 0,0 -0.7104657039493277,0.3782829702131011 l -11.96943482609282 -22.952969508172327" fill="#ffe215" stroke="none" /><path d="M 109.3889696526874 118.78422872680471 l 11.116779408335162 22.241005651970564 a45.86453532291668,45.86453532291668 0 0,0 -0.7072742707944929,0.34596328781126956 l -10.7333448882786 -22.428562689879058" fill="#ffd213" stroke="none" /><path d="M 108.07796709384702 119.3841803445677 l 9.67603895819871 23.218971061376624 a46.154449846292096,46.154449846292096 0 0,0 -0.7339558391608947,0.2984934502237351 l -9.276028657847375 -23.38165176817965" fill="#ffd714" stroke="none" /><path d="M 107.407793817531 119.65005319985036 l 8.999380945649095 23.871927149109602 a46.51191414255912,46.51191414255912 0 0,0 -0.7495303011035162,0.2752379086416687 l -8.588261492891453 -24.02289590675999" fill="#ffdc14" stroke="none" /><path d="M 106.38641147887787 120.00534299687104 l 7.648536392788374 23.958931313437226 a46.15015901806211,46.15015901806211 0 0,0 -0.7567733120158937,0.23445030653870616 l -7.236122447900856 -24.086698207782575" fill="#ffd714" stroke="none" /><path d="M 105.3480935250658 120.30758222061773 l 6.722674646305992 25.527090631916604 a47.397475457516194,47.397475457516194 0 0,0 -0.7885917637778712,0.20045694258822763 l -6.2834775893027235 -25.6387328063401" fill="#ffea16" stroke="none" /><path d="M 104.64783097203109 120.47920084513623 l 5.541960545507978 24.418900723853536 a46.03988896240121,46.03988896240121 0 0,0 -0.7722371060590248,0.16830548301566842 l -5.121961022829818 -24.51043766500292" fill="#ffd513" stroke="none" /><path d="M 103.2317021107853 120.74984581791261 l 3.9144330565140604 25.13346824762563 a46.43647012280469,46.43647012280469 0 0,0 -0.7887010989049158,0.11591190112504457 l -3.4824068520014593 -25.196961222049556" fill="#ffdb14" stroke="none" /><line stroke="#e1ed5e" stroke-width="0.3" x1="101.45913802915013" x2="101.54496967792366" y1="184.9874750549273" y2="189.98673829345242" /><path d="M 101.47630435890484 185.9873277026323 a86.0,86.0 0 0,1 -42.54439059252881,-10.42667462771756" fill="none" id="id67" stroke="none" /><text fill="#e1ed5e" style="font-size:6.75px; font-family:Arial;" text-anchor="middle"><textPath startOffset="22.145653131862474" xlink:href="#id67">July</textPath></text><path d="M 96.41257539226777 120.69131181640829 l -4.316633217572884 24.897193298322026 a46.26862791029748,46.26862791029748 0 0,0 -0.7814226307634595,-0.14240123388250922 l 4.7433905818874 -24.81942389050815" fill="#ffd814" stroke="none" /><path d="M 95.00130118170881 120.39639698878247 l -6.3502752675172225 25.91129012821892 a47.67809873439215,47.67809873439215 0 0,0 -0.7932607298511614,-0.2016437755062133 l 6.794141290593763 -25.79846112087744" fill="#ffee16" stroke="none" /><line stroke="#e1ed5e" stroke-width="0.3" x1="58.13341422392154" x2="55.67067388415222" y1="173.97424548756322" y2="178.32567169271397" /><path d="M 57.64086615596768 174.84453072859336 a86.0,86.0 0 0,1 -31.369924170532247,-30.572349798747897" fill="none" id="id68" stroke="none" /><text fill="#e1ed5e" style="font-size:6.75px; font-family:Arial;" text-anchor="middle"><textPath startOffset="22.145653131862474" xlink:href="#id68">August</textPath></text><path d="M 86.68645165197938 116.24036423190432 l -8.284112449259956 10.105270210254425 a34.066866690000296,34.066866690000296 0 0,0 -0.4490753835465415,-0.3746346568740059 l 8.45636216696839 -9.96157336946855" fill="#ff0f01" stroke="none" /><line stroke="#e1ed5e" stroke-width="0.3" x1="26.387840678322732" x2="22.057713659400534" y1="142.50000000000003" y2="145.00000000000006" /><path d="M 25.521815274538284 143.00000000000003 a86.0,86.0 0 0,1 -11.493303480769212,-40.785679425670985" fill="none" id="id69" stroke="none" /><text fill="#e1ed5e" style="font-size:6.75px; font-family:Arial;" text-anchor="middle"><textPath startOffset="21.40746469413373" xlink:href="#id69">September</textPath></text><path d="M 80.05021161711548 106.5578916946017 l -16.84082276543955 5.5359129442438055 a38.727369899203694,38.727369899203694 0 0,0 -0.20218505743326584,-0.6333418127178303 l 16.933372538650072 -5.246002097834584" fill="#ff5f08" stroke="none" /><path d="M 79.56144815229197 104.8234425847677 l -25.889978529141388 6.109964438120695 a47.60117767457865,47.60117767457865 0 0,0 -0.18085985502357502,-0.7969018921166665 l 25.991049245722632 -5.664628212065002" fill="#ffed16" stroke="none" /><path d="M 79.34024301695615 103.76489593502545 l -61.97927094913153 11.294687805076363 a84.0,84.0 0 0,0 -0.24634073003106272,-1.4208278683176294 l 62.16402649665483 -10.22906690383814" fill="#4dd2ff" stroke="none" /><path d="M 79.17382384314188 102.69636545807758 l -58.664964495089876 7.595354167395641 a80.15460644901908,80.15460644901908 0 0,0 -0.16495785082878575,-1.3660876415152576 l 58.78670443217832 -6.587172848956984" fill="#47feff" stroke="none" /><line stroke="#e1ed5e" stroke-width="0.3" x1="15.003131293944662" x2="10.003315487706104" y1="100.72959589197737" y2="100.7725132973878" /><path d="M 14.003168132696942 100.73817937305945 a86.0,86.0 0 0,1 10.791469493833604,-42.45332614584628" fill="none" id="id70" stroke="none" /><text fill="#e1ed5e" style="font-size:6.75px; font-family:Arial;" text-anchor="middle"><textPath startOffset="22.145653131862435" xlink:href="#id70">October</textPath></text><path d="M 79.13060592940154 97.66154086499901 l -61.53371975480176 -6.894981645582621 a82.91881328607164,82.91881328607164 0 0,0 0.17064657714514822,-1.4131984560519057 l 61.406291091396945 7.950273778557963" fill="#4bdeff" stroke="none" /><path d="M 79.48165901384962 95.52812308129327 l -60.54030459422627 -13.194477611476175 a82.96146156928063,82.96146156928063 0 0,0 0.31521064488238365,-1.3888762616189294 l 60.30488308778623 14.231788207034112" fill="#4bdeff" stroke="none" /><path d="M 79.73907114497095 94.47779374421319 l -27.11054994182746 -7.389100941905741 a49.09947919229097,49.09947919229097 0 0,0 0.2286200530368997,-0.8112919152482786 l 26.979711396715977 7.853400781057033" fill="#fbff18" stroke="none" /><path d="M 80.16572619554312 93.10060997987247 l -26.551771919066635 -9.236084567610757 a49.11230780605166,49.11230780605166 0 0,0 0.28382196781390234,-0.7939005576959495 l 26.38930978120879 9.690520081687627" fill="#fbff18" stroke="none" /><path d="M 80.83023694016515 91.42560881287825 l -15.29106195763313 -6.8394975191932055 a37.750979138761565,37.750979138761565 0 0,0 0.2696777779879658,-0.589294613993816 l 15.171399714790118 7.1009811154016935" fill="#ff4f07" stroke="none" /><path d="M 81.29705330413844 90.45014215332179 l -22.387503616566676 -11.431218863897723 a46.13708580754971,46.13708580754971 0 0,0 0.36622285357759343,-0.7022806100282828 l 22.187972694014146 11.81384571703049" fill="#ffd614" stroke="none" /><line stroke="#e1ed5e" stroke-width="0.3" x1="26.387840678322718" x2="22.05771365940052" y1="57.49999999999999" y2="54.99999999999999" /><path d="M 25.521815274538284 56.99999999999999 a86.0,86.0 0 0,1 29.574782752854787,-30.34633250058573" fill="none" id="id71" stroke="none" /><text fill="#e1ed5e" style="font-size:6.75px; font-family:Arial;" text-anchor="middle"><textPath startOffset="21.40746469413373" xlink:href="#id71">November</textPath></text><path d="M 83.8745106332314 86.54754324733833 l -14.49475752023794 -12.092042247297865 a39.876320649981835,39.876320649981835 0 0,0 0.44301725690353694,-0.5218732146813188 l 14.285045699827288 12.33908224442874" fill="#ff730a" stroke="none" /><path d="M 84.34580500576568 86.00192230759919 l -11.679032198858378 -10.443462608705467 a36.66734515996249,36.66734515996249 0 0,0 0.42359915427770384,-0.4656096742009419 l 11.498035343738808 10.642409858464067" fill="#ff3c05" stroke="none" /><path d="M 84.83555147118756 85.47280134310135 l -38.31503737676398 -36.70493908572989 a74.05935018891546,74.05935018891546 0 0,0 0.887348095510759,-0.9104973170946391 l 37.67930248010242 37.357259094892264" fill="#3effb5" stroke="none" /><path d="M 85.86807049272753 84.46653392183569 l -12.2138523151776 -13.425163246383706 a39.14974370532601,39.14974370532601 0 0,0 0.5009954916438984,-0.4479932579194774 l 11.981591796710312 13.632852034186584" fill="#ff6709" stroke="none" /><path d="M 88.4268655584334 82.4767994020092 l -13.64186916256325 -20.655528636093653 a45.75381702859135,45.75381702859135 0 0,0 0.6591041442967633,-0.4272233432628033 l 13.28527938600946 20.88666582106036" fill="#ffd113" stroke="none" /><line stroke="#e1ed5e" stroke-width="0.3" x1="56.869717070023135" x2="54.33264160355391" y1="26.7553504044142" y2="22.446841604673864" /><path d="M 56.362301976729285 25.89364864446614 a86.0,86.0 0 0,1 42.16139366436587,-11.88097634709845" fill="none" id="id72" stroke="none" /><text fill="#e1ed5e" style="font-size:6.75px; font-family:Arial;" text-anchor="middle"><textPath startOffset="22.145653131862474" xlink:href="#id72">December</textPath></text><path d="M 90.61103034731259 81.2157712731953 l -12.237868469174312 -24.48393476143822 a48.37203839817513,48.37203839817513 0 0,0 0.7459423265500681,-0.36487777156230866 l 11.81576589336219 24.690406283097744" fill="#fff817" stroke="none" /></svg>