<?xml version="1.0" encoding="utf-8" ?>
<svg baseProfile="full" height="200mm" version="1.1" viewBox="0,0,200,200" width="200mm" xmlns="http://www.w3.org/2000/svg" xmlns:ev="http://www.w3.org/2001/xml-events" xmlns:xlink="http://www.w3.org/1999/xlink"><defs /><rect fill="#1a1a1a" height="200" width="200" x="0" y="0" /><rect fill="#1a1a1a" height="200" width="180" x="10" y="0" /><text alignment-baseline="middle" fill="#e1ed5e" style="dominant-baseline: central; font-size:9.0px; font-family:Arial;" text-anchor="middle" x="100.0" y="100.0">2018</text><line stroke="#e1ed5e" stroke-width="0.3" x1="100.0" x2="100.0" y1="15.0" y2="10.0" /><path d="M 100.0 14.0 a86.0,86.0 0 0,1 42.46469731375804,11.215312516191453" fill="none" id="id37" stroke="none" /><text fill="#e1ed5e" style="font-size:6.75px; font-family:Arial;" text-anchor="middle"><textPath startOffset="22.20632615414155" xlink:href="#id37">January</textPath></text><path d="M 100.0 79.0 l 0.0 -14.257081050905413 a35.25708105090541,35.25708105090541 0 0,0 0.6068926931443651,0.005223717012754822 l -0.24541221387183673 14.254968710501217" fill="#ffa10e" stroke="none" /><path d="M 101.08401301168833 79.027996857942 l 0.8898581533721197 -17.215760131366093 a38.23874254213042,38.23874254213042 0 0,0 0.6570471197072338,0.03963487657859329 l -1.1860673219189655 17.197891985407196" fill="#ffc912" stroke="none" /><path d="M 101.44485096284872 79.0497635885617 l 0.9741766842215467 -14.125492777963025 a35.159045392693905,35.159045392693905 0 0,0 0.6034126139134124,0.0468364322173565 l -1.2171794874973003 14.106631083557204" fill="#ffa00e" stroke="none" /><path d="M 102.16513564639614 79.11191278185805 l 1.496580799370356 -14.438222528125678 a35.515578660898086,35.515578660898086 0 0,0 0.6075418285292418,0.06826440331366795 l -1.744889331409323 14.41032217134141" fill="#ffa40f" stroke="none" /><path d="M 102.52436894288641 79.15227682838746 l 2.205689493141053 -18.215880877919776 a39.348934091622766,39.348934091622766 0 0,0 0.671714920036298,0.08720787496799957 l -2.518919141685197 18.17521467978764" fill="#ffd714" stroke="none" /><path d="M 103.2404852339499 79.25152402106235 l 2.0052996827180603 -12.839716676237188 a33.99536652594118,33.99536652594118 0 0,0 0.5773883031622548,0.09527401727565844 l -2.22601719201919 12.803296396021906" fill="#ff900d" stroke="none" /><path d="M 103.95276090670814 79.375362276772 l 2.744107822928474 -14.318151554607741 a35.57873765744392,35.57873765744392 0 0,0 0.6004904635502403,0.12045273786719594 l -2.9901646959458397 14.268794860663338" fill="#ffa50f" stroke="none" /><path d="M 106.74666289553966 80.11325718540242 l 7.17677707308859 -21.154565167998815 a43.33879487805729,43.33879487805729 0 0,0 0.7043957435281607,0.2457498437439889 l -7.539854820680024 21.027894471082618" fill="#f4ff19" stroke="none" /><path d="M 107.08798089147638 80.2323363322302 l 2.877629728663311 -8.025419016718512 a29.525731830710722,29.525731830710722 0 0,0 0.4769357181655381,0.17565945002646569 l -3.0153477726014253 7.974696298885721" fill="#ff5107" stroke="none" /><path d="M 107.76421540070413 80.48803036053334 l 5.58613910662014 -14.03832467609344 a36.10892153100031,36.10892153100031 0 0,0 0.5755351661044278,0.23477524508140266 l -5.8269581423129555 13.940088544828457" fill="#ffac10" stroke="none" /><path d="M 108.76106565485865 80.91482961587045 l 7.983968515617816 -17.392336213984276 a40.13732249398137,40.13732249398137 0 0,0 0.6254193552440698,0.2936427732450776 l -8.282166082161485 17.252328458099193" fill="#ffe115" stroke="none" /><path d="M 109.41281617654863 81.2277094730956 l 9.868333291683228 -19.680743370867148 a43.016259027947385,43.016259027947385 0 0,0 0.6590490574003611,0.33759052480473134 l -10.205642836672345 19.507960320749916" fill="#f8ff18" stroke="none" /><path d="M 110.05341064243156 81.56283822128135 l 7.106945083085229 -13.033576455762834 a35.84529500017445,35.84529500017445 0 0,0 0.5391745338410349,0.30005004433065413 l -7.330243705998299 12.909311013872" fill="#ffa90f" stroke="none" /><line stroke="#e1ed5e" stroke-width="0.3" x1="143.23703022742887" x2="145.7803849466894" y1="26.81831364943548" y2="22.513508569990506" /><path d="M 143.74570117128098 25.957352633546492 a86.0,86.0 0 0,1 28.547481713284135,27.462654790039103" fill="none" id="id38" stroke="none" /><text fill="#e1ed5e" style="font-size:6.75px; font-family:Arial;" text-anchor="middle"><textPath startOffset="19.985693538727396" xlink:href="#id38">February</textPath></text><path d="M 110.68208982089419 81.91981866633111 l 7.5869262492603395 -12.841401322378747 a35.915194864101046,35.915194864101046 0 0,0 0.5295574632910078,0.31905244637393343 l -7.806845778768985 12.708902266546199" fill="#ffaa0f" stroke="none" /><path d="M 111.2981086023043 82.29822771554956 l 9.793849071011135 -15.344912334083636 a39.20400544293639,39.20400544293639 0 0,0 0.565719350978204,0.36795960238373726 l -10.056535447773618 15.174053807540371" fill="#ffd513" stroke="none" /><path d="M 113.34407831869373 83.78471172551755 l 14.938514333145365 -18.152794859207074 a44.509214612190775,44.509214612190775 0 0,0 0.5873996840779903,0.491930342704742 l -15.248771554182472 17.89296335910851" fill="#e6ff1a" stroke="none" /><path d="M 113.89432698308785 84.25364557470407 l 13.725622967522632 -15.555163212846864 a41.74501936429294,41.74501936429294 0 0,0 0.5347119776946395,0.48006969311531517 l -13.991345932813262 15.316594510962252" fill="#fff617" stroke="none" /><path d="M 114.42810811169701 84.74124197986012 l 10.259506958515313 -10.850163644047829 a35.932633194933885,35.932633194933885 0 0,0 0.44576443087661544,0.42882502932460836 l -10.444754633004347 10.671955527960918" fill="#ffaa0f" stroke="none" /><path d="M 115.68641384162765 86.03803664274999 l 12.301638091927293 -10.949285286471708 a37.468671714176054,37.468671714176054 0 0,0 0.42465946328116355,0.485459176341235 l -12.488289418786305 10.735910553927527" fill="#ffbe11" stroke="none" /><path d="M 116.38621287248628 86.86637796730983 l 23.30980374111644 -18.68291071123865 a50.87303304141516,50.87303304141516 0 0,0 0.5417879165486161,0.6880156345923952 l -23.627945738259022 18.278902682693218" fill="#9aff22" stroke="none" /><path d="M 117.45458315368197 88.32363383020206 l 9.196770595478625 -6.152244376560015 a32.06484072432923,32.06484072432923 0 0,0 0.30294153744853103,0.461400745158349 l -9.30130876828508 5.9930255674239925" fill="#ff750a" stroke="none" /><line stroke="#e1ed5e" stroke-width="0.3" x1="172.23445277983987" x2="176.4835382374775" y1="55.19839476539836" y2="52.563006222186495" /><path d="M 173.08426987136738 54.67131705675599 a86.0,86.0 0 0,1 12.851231095245387,41.99856678651699" fill="none" id="id39" stroke="none" /><text fill="#e1ed5e" style="font-size:6.75px; font-family:Arial;" text-anchor="middle"><textPath startOffset="22.20632615414155" xlink:href="#id39">March</textPath></text><path d="M 118.03404312379186 89.2402003453031 l 38.99861038996355 -23.26806206058131 a66.4124908412128,66.4124908412128 0 0,0 0.5772836998757805,0.9867649723484173 l -39.39335376430966 22.593317675879" fill="#36ff72" stroke="none" /><path d="M 118.3937258080291 89.86733742301442 l 12.781203925277707 -7.040858826217305 a35.592219392205436,35.592219392205436 0 0,0 0.29099503811815086,0.5391696111458946 l -12.900507062614322 6.819808231738952" fill="#ffa50f" stroke="none" /><path d="M 118.89224826269711 90.83032412892265 l 13.098871549363837 -6.357761379925645 a35.560273542444435,35.560273542444435 0 0,0 0.262539477976276,0.5529750965324886 l -13.20636922118187 6.131343867752616" fill="#ffa50f" stroke="none" /><path d="M 119.47837535516314 92.15188598940014 l 16.311924552512274 -6.5723060207116095 a38.58619029343009,38.58619029343009 0 0,0 0.2429211067754086,0.6182077200716752 l -16.422639209169382 6.2905492957441504" fill="#ffcd13" stroke="none" /><path d="M 119.7369772167798 92.82701384747503 l 13.582230083996889 -4.936173723202644 a35.45139388018562,35.45139388018562 0 0,0 0.2035026815835404,0.5753294848024881 l -13.665185846390239 4.701646611973541" fill="#ffa30f" stroke="none" /><path d="M 119.97218684219823 93.5106431181261 l 13.93377269536509 -4.52735719155639 a35.650835630299014,35.650835630299014 0 0,0 0.18461108923219355,0.5852676023954605 l -14.00963926836549 4.28683942273451" fill="#ffa60f" stroke="none" /><path d="M 120.37134235888165 94.90015583598534 l 11.942478231129451 -2.98972825835131 a33.311021946198665,33.311021946198665 0 0,0 0.13446105003950712,0.5574278600196115 l -11.992172081429777 2.7837151666722924" fill="#ff860c" stroke="none" /><path d="M 120.45610955862082 95.25157060432595 l 11.467440503763331 -2.6619104392831727 a32.7723387181187,32.7723387181187 0 0,0 0.12282700038982809,0.5506093587931061 l -11.511561891155198 2.4641229109401026" fill="#ff7f0b" stroke="none" /><path d="M 120.6074358757038 95.95851677861258 l 11.475338493989483 -2.250517156182386 a32.69393949966854,32.69393949966854 0 0,0 0.10355303420739571,0.5531844494449945 l -11.512377252106738 2.052654629274829" fill="#ff7e0b" stroke="none" /><path d="M 120.78858239683441 97.02765380044208 l 62.36574719050324 -8.917038598673738 a84.0,84.0 0 0,0 0.19233600376865523,1.4331266317413425 l -62.50999919332973 7.84219362486773" fill="#4dd2ff" stroke="none" /><path d="M 120.94382443527127 98.46500227214037 l 11.68677241524348 -0.856537408382789 a32.71811869788214,32.71811869788214 0 0,0 0.03633177102295209,0.5620364169025841 l -11.699784777270848 0.6552419272271696" fill="#ff7e0b" stroke="none" /><line stroke="#e1ed5e" stroke-width="0.3" x1="184.98032266829074" x2="189.97916517819016" y1="98.17113171792111" y2="98.06355123074" /><path d="M 185.9800911702706 98.14961562048488 a86.0,86.0 0 0,1 -9.607161424134198,41.387399972396054" fill="none" id="id40" stroke="none" /><text fill="#e1ed5e" style="font-size:6.75px; font-family:Arial;" text-anchor="middle"><textPath startOffset="21.466115282336823" xlink:href="#id40">April</textPath></text><path d="M 120.99513854157772 99.54816195383933 l 17.59779533903317 -0.3787235529300075 a38.60187013712013,38.60187013712013 0 0,0 0.008578793008228966,0.6644369726489295 l -17.601707139159114 0.07575032222061519" fill="#ffcd13" stroke="none" /><path d="M 120.99824983174949 100.27111621757518 l 11.85678364247937 0.15308734582707403 a32.85777188514009,32.85777188514009 0 0,0 -0.012169794763473525,0.565482542368327 l -11.852391785030889 -0.3571597039855158" fill="#ff800b" stroke="none" /><path d="M 120.92983693683757 101.71520430193887 l 17.547149987365497 1.4379924332866516 a38.605973273786674,38.605973273786674 0 0,0 -0.059977879246368083,0.6618508996076036 l -17.519797511842054 -1.7398247214428257" fill="#ffcd13" stroke="none" /><path d="M 120.8583938346157 102.4346265915055 l 11.47346296920032 1.3392017747364342 a32.55135550050591,32.55135550050591 0 0,0 -0.06975056521390832,0.5559806329481344 l -11.448710894739563 -1.5365001619719636" fill="#ff7c0b" stroke="none" /><path d="M 120.49622156327973 104.57218783832717 l 12.504976405014993 2.78954347078344 a33.81233732249398,33.81233732249398 0 0,0 -0.1316095865383764,0.5669706542644303 l -12.455106252546065 -3.0043827823964353" fill="#ff8d0d" stroke="none" /><path d="M 120.02730092923936 106.31721596034902 l 8.400831188433314 2.64987603927637 a29.808848260702696,29.808848260702696 0 0,0 -0.15856568280958855,0.4880149915440272 l -8.353973254607478 -2.7940899307981923" fill="#ff5507" stroke="none" /><path d="M 119.54520255179757 107.68017299344265 l 13.677754704350994 5.374593689315767 a35.69582359303583,35.69582359303583 0 0,0 -0.22963868806421112,0.5699443912436346 l -13.58321340202939 -5.609237448402215" fill="#ffa70f" stroke="none" /><path d="M 119.26925614724726 108.34839909993367 l 14.590607337760733 6.321375990606071 a36.901119988835006,36.901119988835006 0 0,0 -0.2575327675126096,0.5806684040758792 l -14.47963348551685 -6.571592731174637" fill="#ffb711" stroke="none" /><line stroke="#e1ed5e" stroke-width="0.3" x1="174.80103733775053" x2="179.2010983576182" y1="140.37084112569926" y2="142.7455964860345" /><path d="M 175.68104954172406 140.8457921977663 a86.0,86.0 0 0,1 -30.038265399797805,32.042727171017184" fill="none" id="id41" stroke="none" /><text fill="#e1ed5e" style="font-size:6.75px; font-family:Arial;" text-anchor="middle"><textPath startOffset="22.206326154141568" xlink:href="#id41">May</textPath></text><path d="M 118.48025628344425 109.97397251340804 l 6.498426953946635 3.507263688605829 a28.384473675028783,28.384473675028783 0 0,0 -0.23575818162988696,0.4279695802512149 l -6.437092362865238 -3.6186037872548487" fill="#ff4006" stroke="none" /><path d="M 116.498646956653 112.99209946851258 l 11.565573966885248 9.107479406220072 a35.72102857541607,35.72102857541607 0 0,0 -0.3845659392322996,0.4798051389086114 l -11.407090115598095 -9.305212378706935" fill="#ffa70f" stroke="none" /><path d="M 115.56566222782051 114.09645910891815 l 6.624245327280013 5.998999722385703 a29.936924740937165,29.936924740937165 0 0,0 -0.34919796423115707,0.37898542273738195 l -6.520000955053134 -6.112136399924419" fill="#ff5708" stroke="none" /><path d="M 115.07121518719521 114.62390073753431 l 10.480491806041313 10.16943026480754 a35.603356477443214,35.603356477443214 0 0,0 -0.43056219794935363,0.43615723333415923 l -10.303888983036424 -10.348327992122364" fill="#ffa60f" stroke="none" /><path d="M 114.0293411484842 115.62618273729858 l 5.8067502242154285 6.467683631974653 a29.69190886570601,29.69190886570601 0 0,0 -0.3832485216595381,0.33817226082300417 l -5.694559349649303 -6.566679034569946" fill="#ff5307" stroke="none" /><path d="M 112.34349029814194 116.9893568818739 l 7.840728365022592 10.791836764942596 a34.33944384355047,34.33944384355047 0 0,0 -0.4811980904773698,0.3433220609538866 l -7.653802946696337 -10.925203087740702" fill="#ff940d" stroke="none" /><path d="M 111.7513745106137 117.40417183066458 l 7.453785205619163 11.039300840109686 a34.32010048497959,34.32010048497959 0 0,0 -0.4924530770433895,0.3263710468188203 l -7.2626574298358095 -11.165969908019825" fill="#ff940d" stroke="none" /><path d="M 111.1453310114006 117.79835938074945 l 8.202926293112201 13.09953288863896 a36.455929660514286,36.455929660514286 0 0,0 -0.5347230772020518,0.3284705878220339 l -7.976224015977841 -13.238791943289373" fill="#ffb110" stroke="none" /><line stroke="#e1ed5e" stroke-width="0.3" x1="143.8653032363475" x2="146.44561519142675" y1="172.8068346515853" y2="177.08958963109032" /><path d="M 144.38136562736335 173.6633856474863 a86.0,86.0 0 0,1 -40.68145358897372,12.25698825130547" fill="none" id="id42" stroke="none" /><text fill="#e1ed5e" style="font-size:6.75px; font-family:Arial;" text-anchor="middle"><textPath startOffset="21.466115282336833" xlink:href="#id42">June</textPath></text><path d="M 109.57404056367764 118.69057910512821 l 6.835880328498624 13.34510347885083 a35.9940337043369,35.9940337043369 0 0,0 -0.5538729208710229,0.27772338073795516 l -6.605153499944841 -13.460794700498086" fill="#ffab0f" stroke="none" /><path d="M 108.59647513512805 119.15986991738527 l 6.565006376528475 14.632121445578617 a37.03740274240256,37.03740274240256 0 0,0 -0.583919919637319,0.25597333294437097 l -6.312165782233403 -14.742959331817442" fill="#ffb911" stroke="none" /><path d="M 107.93186726928326 119.44442032107085 l 5.623846381932208 13.786467821379045 a35.88940371933987,35.88940371933987 0 0,0 -0.5740235382262342,0.22841581235592098 l -5.3857017676641075 -13.881230478141035" fill="#ffa90f" stroke="none" /><path d="M 106.91757812671514 119.82793768551818 l 4.829343733206908 13.84240623668167 a35.660653850179685,35.660653850179685 0 0,0 -0.5813200550554818,0.1972153249247532 l -4.590353945214199 -13.923484548504545" fill="#ffa60f" stroke="none" /><path d="M 105.88484417918355 120.15858648285463 l 4.2281109628618525 14.48343200070616 a36.087966225881864,36.087966225881864 0 0,0 -0.5978037455465697,0.16894530979167702 l -3.9781760492106772 -14.554066103836355" fill="#ffac0f" stroke="none" /><path d="M 105.18746579009965 120.34920634021253 l 4.7367548131446915 18.58117334665343 a40.17542304874219,40.17542304874219 0 0,0 -0.6715928712053729,0.1650611879689045 l -4.4162086571961074 -18.659955792936362" fill="#ffe215" stroke="none" /><path d="M 104.48393922423573 120.51570834832081 l 2.8033185647182677 12.826236754133532 a34.12901154879452,34.12901154879452 0 0,0 -0.5750064618542319,0.12049819476466284 l -2.582120641434658 -12.872590929624735" fill="#ff910d" stroke="none" /><path d="M 103.41894727170886 120.7198165907248 l 1.4381265314632308 8.715465784671153 a29.83332054010676,29.83332054010676 0 0,0 -0.5073996269713105,0.07924538653254819 l -1.2878910408834032 -8.738929478550807" fill="#ff5507" stroke="none" /><path d="M 101.26447882468166 120.96189622390904 l 0.700336236104697 11.609823127536794 a32.630927043717946,32.630927043717946 0 0,0 -0.5609597143576877,0.028995209722108044 l -0.5003884533335297 -11.620158144021103" fill="#ff7d0b" stroke="none" /><line stroke="#e1ed5e" stroke-width="0.3" x1="102.19456741930631" x2="102.32365962044197" y1="184.97166512339345" y2="189.96999836594603" /><path d="M 102.22038585953345 185.97133177190398 a86.0,86.0 0 0,1 -42.740103519485714,-10.115201625700543" fill="none" id="id43" stroke="none" /><text fill="#e1ed5e" style="font-size:6.75px; font-family:Arial;" text-anchor="middle"><textPath startOffset="22.20632615414155" xlink:href="#id43">July</textPath></text><path d="M 100.18074693466247 120.99922214144158 l 0.13756594268657854 15.98244415578585 a36.983036181570775,36.983036181570775 0 0,0 -0.6366257546980569,0.0 l 0.13756594268656752 -15.98244415578585" fill="#ffb811" stroke="none" /><path d="M 99.09653310690486 120.98055641714683 l -0.8167862726480836 18.967635233801158 a39.98521335612854,39.98521335612854 0 0,0 -0.6873875765997488,-0.03553008608952116 l 1.1431619176613212 -18.950765340949435" fill="#ffdf14" stroke="none" /><path d="M 98.37488393609728 120.93702456842531 l -1.004497614935801 12.941347212044082 a33.980272844632076,33.980272844632076 0 0,0 -0.5827708737946204,-0.05028392316295099 l 1.227112806471963 -12.922139036602468" fill="#ff8f0d" stroke="none" /><path d="M 95.86986931433489 120.58985236759428 l -4.021160139469924 20.04660382914918 a41.445930009420465,41.445930009420465 0 0,0 -0.6982820917301418,-0.14633180159166173 l 4.365633692629452 -19.974416046830978" fill="#fff216" stroke="none" /><path d="M 93.42475214034765 119.94407469862007 l -5.417163661769337 16.431367916629416 a38.301315376295314,38.301315376295314 0 0,0 -0.624366643886796,-0.21181906503218717 l 5.699200038593359 -16.335685864699105" fill="#ffc912" stroke="none" /><path d="M 92.40401165467489 119.57807347666478 l -6.286428399338568 16.202783826516637 a38.37956805415024,38.37956805415024 0 0,0 -0.6138518104764886,-0.24426430384615708 l 6.564401285856915 -16.092172678264415" fill="#ffca12" stroke="none" /><path d="M 91.7346041902142 119.30500536409082 l -6.384550358774911 14.912023786874384 a37.221311189421165,37.221311189421165 0 0,0 -0.5868193617594166,-0.257244363163945 l 6.640290395192071 -14.799914870415986" fill="#ffbb11" stroke="none" /><path d="M 90.42595943632237 118.69057910512821 l -7.203863409512796 14.063485319756914 a36.80117930288545,36.80117930288545 0 0,0 -0.5613215489746595,-0.2936569047287704 l 7.444875861013951 -13.937398996083427" fill="#ffb610" stroke="none" /><line stroke="#e1ed5e" stroke-width="0.3" x1="58.666819895761336" x2="56.23545636021788" y1="174.27360380694188" y2="178.64263932499728" /><path d="M 58.180547188652646 175.14741091055294 a86.0,86.0 0 0,1 -31.652253787137756,-30.449443065178592" fill="none" id="id44" stroke="none" /><text fill="#e1ed5e" style="font-size:6.75px; font-family:Arial;" text-anchor="middle"><textPath startOffset="22.20632615414155" xlink:href="#id44">August</textPath></text><path d="M 89.7882731507175 118.34994917583269 l -7.7504516294770625 13.927163895952292 a36.93848784061966,36.93848784061966 0 0,0 -0.5529361524173706,-0.31397157808971654 l 7.9890365488156405 -13.791689152067942" fill="#ffb711" stroke="none" /><path d="M 89.1626897886671 117.98757091392108 l -7.884340746679703 13.086285759552492 a36.27788283730505,36.27788283730505 0 0,0 -0.5321115474432699,-0.32686637294604554 l 8.108431494055282 -12.948630919778068" fill="#ffaf10" stroke="none" /><path d="M 88.54995079064634 117.60387380957326 l -8.68767140456679 13.35685710242155 a36.93365200097694,36.93365200097694 0 0,0 -0.5299544674203709,-0.35122492347236584 l 8.916300570727122 -13.205334157857866" fill="#ffb711" stroke="none" /><path d="M 87.95078237400918 117.19931262002967 l -10.150333910381617 14.48880512754337 a38.69052719723666,38.69052719723666 0 0,0 -0.5421697535841022,-0.3868237236824825 l 10.398230991814607 -14.311937142016669" fill="#ffcf13" stroke="none" /><path d="M 86.51685102203217 116.09983520530335 l -10.379780736180804 12.394193640726218 a37.166505006803675,37.166505006803675 0 0,0 -0.48694231630206525,-0.4149828059405723 l 10.591588529059925 -12.213686444562693" fill="#ffba11" stroke="none" /><path d="M 84.67929136418377 114.36230785411682 l -10.791795763059195 10.116705221158469 a35.792247304699764,35.792247304699764 0 0,0 -0.41749712110435216,-0.45311066827592406 l 10.964339292159275 -9.929443298081202" fill="#ffa80f" stroke="none" /><path d="M 83.72743513129214 113.27417163493432 l -14.843740447069031 12.108623317133977 a40.15607969017131,40.15607969017131 0 0,0 -0.43231287333549157,-0.5393767806290796 l 15.049971232459384 -11.851318702926639" fill="#ffe215" stroke="none" /><path d="M 83.06392112726016 112.41649034213515 l -7.508814816359503 5.50500073534 a30.310603258783715,30.310603258783715 0 0,0 -0.30486723397813736,-0.4234339235538267 l 7.6024618427132475 -5.374933206335036" fill="#ff5c08" stroke="none" /><path d="M 82.24976979558568 111.22182372390057 l -9.614269344870307 6.078210512188422 a32.374481002058545,32.374481002058545 0 0,0 -0.29373730491857813,-0.4735980635227592 l 9.71747128945684 -5.911816117300398" fill="#ff790b" stroke="none" /><line stroke="#e1ed5e" stroke-width="0.3" x1="26.63291911575756" x2="22.317208475507996" y1="142.92168965132927" y2="145.44649492493687" /><path d="M 25.769776987707644 143.4266507060508 a86.0,86.0 0 0,1 -11.730757126820373,-40.83630448921669" fill="none" id="id45" stroke="none" /><text fill="#e1ed5e" style="font-size:6.75px; font-family:Arial;" text-anchor="middle"><textPath startOffset="21.46611528233685" xlink:href="#id45">September</textPath></text><path d="M 81.69416730710424 110.29060199501025 l -12.817212523915945 7.205180719272448 a35.70359024458323,35.70359024458323 0 0,0 -0.29654992409200065,-0.5383242509751881 l 12.939338857459461 -6.983485949899438" fill="#ffa70f" stroke="none" /><path d="M 81.02952815118164 109.00673069616217 l -3.896819928220691 1.8501178012136743 a25.313715501901537,25.313715501901537 0 0,0 -0.18349476388021813,-0.395231396937447 l 3.9280893089407356 -1.7827663369974003" fill="#ff1302" stroke="none" /><path d="M 80.58989483394504 108.01547362559985 l -20.329648824492182 8.395202528598327 a42.99486410104323,42.99486410104323 0 0,0 -0.27659494001951557,-0.6864859577424984 l 20.471146378769085 -8.044017203013023" fill="#f8ff18" stroke="none" /><path d="M 80.32549172779594 107.34259656027581 l -2.8449472134022704 1.061744432657865 a24.036614214437737,24.036614214437737 0 0,0 -0.14133041443142985,-0.38888060151758574 l 2.862801888838925 -1.012616034134162" fill="#ff0000" stroke="none" /><path d="M 80.0844068197444 106.66101706037122 l -17.991644455595203 6.0175285555473925 a39.97129199958131,39.97129199958131 0 0,0 -0.21262395491644911,-0.6543892456554515 l 18.0925606615279 -5.706940409914138" fill="#ffdf14" stroke="none" /><path d="M 79.76711848015287 105.62410040840567 l -15.27324534505078 4.245478593769236 a36.8523219706221,36.8523219706221 0 0,0 -0.16462796263506344,-0.6126418920704031 l 15.344061384027619 -3.981945768523294" fill="#ffb610" stroke="none" /><path d="M 79.58551787078972 104.9243191809786 l -10.374554202742386 2.5025183559061355 a31.672111929102265,31.672111929102265 0 0,0 -0.12327907166042533,-0.5310830142000486 l 10.416093840333366 -2.3235666843575125" fill="#ff6f0a" stroke="none" /><path d="M 79.23777060512086 103.15116336523772 l -12.886766114136394 1.955874029851016 a34.03434632427341,34.03434632427341 0 0,0 -0.0829237917957702,-0.5799688066823071 l 12.918523956948764 -1.7337597511883083" fill="#ff900d" stroke="none" /><path d="M 79.04373962182676 101.35467743843564 l -16.213993410490463 1.0481226451553691 a37.24783503715851,37.24783503715851 0 0,0 -0.03585307941143939,-0.640180817627732 l 16.229632840789435 -0.7688701111921994" fill="#ffbc11" stroke="none" /><line stroke="#e1ed5e" stroke-width="0.3" x1="15.007084014347285" x2="10.007500721073583" y1="101.09737516637583" y2="101.16192664675087" /><path d="M 14.007167355692545 101.11028546245083 a86.0,86.0 0 0,1 10.666146001902534,-42.60595125391555" fill="none" id="id46" stroke="none" /><text fill="#e1ed5e" style="font-size:6.75px; font-family:Arial;" text-anchor="middle"><textPath startOffset="22.20632615414155" xlink:href="#id46">October</textPath></text><path d="M 79.00175016825051 100.2711162175752 l -29.924026242209848 0.3863602383253078 a50.92652035867555,50.92652035867555 0 0,0 -0.003772691702770073,-0.876640686558513 l 29.926243231202122 0.12878992643688061" fill="#9aff23" stroke="none" /><path d="M 79.01574976396665 99.18683210126434 l -14.680701831157293 -0.56889692630083 a35.69172045636928,35.69172045636928 0 0,0 0.029074121568909417,-0.6137087543957759 l 14.668734101354884 0.821516787319615" fill="#ffa70f" stroke="none" /><path d="M 79.08570108090925 98.10471618934814 l -15.864394371458937 -1.4376542065474933 a36.92940232371515,36.92940232371515 0 0,0 0.06282020942097565,-0.6325909358238577 l 15.837297036355732 1.7105206730757814" fill="#ffb711" stroke="none" /><path d="M 79.16333360222342 97.38593545837743 l -16.5847098333149 -2.0806352168211344 a37.714713373573844,37.714713373573844 0 0,0 0.08635591968516432,-0.6434519064781047 l 16.546437914571904 2.3658054653638985" fill="#ffc212" stroke="none" /><path d="M 79.46518482838121 95.60439243477599 l -18.764411895771126 -4.016641503548961 a40.18949094588465,40.18949094588465 0 0,0 0.15062564385580532,-0.6752252266848744 l 18.692491864913283 4.3390448997837945" fill="#ffe215" stroke="none" /><path d="M 80.803312248108 91.48605970444005 l -8.48643496359417 -3.7638264233928584 a30.28363978926067,30.28363978926067 0 0,0 0.21544312468723797,-0.47470036717995984 l 8.42038952194358 3.909348799414889" fill="#ff5c08" stroke="none" /><path d="M 81.10775173730289 90.83032412892265 l -14.758905673252624 -7.163487339024113 a37.40551271763023,37.40551271763023 0 0,0 0.2861343370681464,-0.576829363375462 l 14.633411323231064 7.416476290898536" fill="#ffbe11" stroke="none" /><path d="M 81.43458229118936 90.18545643968196 l -6.527595943450214 -3.4507909132981056 a28.383594431457382,28.383594431457382 0 0,0 0.23205872756899604,-0.429969578572625 l 6.467229116662746 3.562641475203203" fill="#ff4006" stroke="none" /><line stroke="#e1ed5e" stroke-width="0.3" x1="26.266209847984243" x2="21.928928074336255" y1="57.711370442889674" y2="55.22380399835377" /><path d="M 25.398753493254645 57.213857153982495 a86.0,86.0 0 0,1 29.58750427330803,-30.492523968695096" fill="none" id="id47" stroke="none" /><text fill="#e1ed5e" style="font-size:6.75px; font-family:Arial;" text-anchor="middle"><textPath startOffset="21.46611528233685" xlink:href="#id47">November</textPath></text><path d="M 81.78341655067845 89.55222093294921 l -19.15661788362413 -10.9869181494334 a43.083667701755,43.083667701755 0 0,0 0.37450032034717634,-0.6401424435357735 l 18.964657888806627 11.315040005323064" fill="#f7ff18" stroke="none" /><path d="M 82.7489923806493 88.02491185347247 l -14.29424233449329 -9.92259789807137 a38.40066989986393,38.40066989986393 0 0,0 0.38160643805612726,-0.5397552439974607 l 14.121323276633285 10.167179642400615" fill="#ffcb12" stroke="none" /><path d="M 83.6137871275137 86.86637796730984 l -11.439418683243055 -9.168744628703962 a35.660360768989214,35.660360768989214 0 0,0 0.38802124803875665,-0.4756681699467039 l 11.279898943127906 9.364296968258747" fill="#ffa60f" stroke="none" /><path d="M 84.5562425177563 85.77008943001954 l -11.01997044837453 -10.153823908753512 a35.98465510624193,35.98465510624193 0 0,0 0.42364679285170004,-0.45191686069578263 l 10.843556333552373 10.342010186327345" fill="#ffab0f" stroke="none" /><path d="M 85.05521093208273 85.24692304244772 l -5.068536605693559 -5.003517297309629 a28.12216600956003,28.12216600956003 0 0,0 0.34304248349528227,-0.3415693500526113 l 4.981658322030963 5.090022498012349" fill="#ff3d05" stroke="none" /><path d="M 85.31137513191541 84.99185889309783 l -15.535984428354332 -15.873932967135671 a43.211451100798996,43.211451100798996 0 0,0 0.5360622418847786,-0.5156914519715938 l 15.260438942857126 16.13900750586958" fill="#f6ff19" stroke="none" /><path d="M 85.83668400450813 84.49514656593479 l -7.870793035365034 -8.616307965030193 a32.670053382645406,32.670053382645406 0 0,0 0.41847073307546107,-0.37570715597473536 l 7.721311314693602 8.750514129774206" fill="#ff7d0b" stroke="none" /><path d="M 86.37877921826538 84.01681056812374 l -11.237257637205909 -13.185838508036273 a38.324615330937505,38.324615330937505 0 0,0 0.5057799184719362,-0.4235761362684738 l 11.008620181774864 13.37731580169856" fill="#ffca12" stroke="none" /><path d="M 87.51073957382395 83.11751280151077 l -10.965850410827263 -14.823201924216939 a39.4384703953107,39.4384703953107 0 0,0 0.5492364468072065,-0.39904363653599095 l 10.709068647666275 15.009764795569597" fill="#ffd814" stroke="none" /><line stroke="#e1ed5e" stroke-width="0.3" x1="56.762969772571076" x2="54.21961505331055" y1="26.818313649435495" y2="22.513508569990535" /><path d="M 56.25429882871897 25.957352633546506 a86.0,86.0 0 0,1 42.265352541879196,-11.944610805530505" fill="none" id="id48" stroke="none" /><text fill="#e1ed5e" style="font-size:6.75px; font-family:Arial;" text-anchor="middle"><textPath startOffset="22.20632615414155" xlink:href="#id48">December</textPath></text><path d="M 89.3179101791058 81.91981866633112 l -11.184197612203256 -18.930033756568246 a42.987097449495835,42.987097449495835 0 0,0 0.6403097401920952,-0.3709087306532167 l 10.856691139545841 19.11974664461151" fill="#f9ff18" stroke="none" /><path d="M 90.26544431104013 81.39251694778311 l -6.69358116240695 -12.794697777463089 a35.43981717316213,35.43981717316213 0 0,0 0.5429709284398354,-0.27813079865216006 l 6.4723497463783515 12.908021101427755" fill="#ffa30f" stroke="none" /><path d="M 91.56875222667455 80.76684994638697 l -3.0029021063503083 -6.850144647684371 a28.47943198074038,28.47943198074038 0 0,0 0.45067513410029336,-0.19295557264626023 l 2.8845432144597067 6.900819748293418" fill="#ff4206" stroke="none" /><path d="M 91.90106846888425 80.62456947434976 l -7.178183528569176 -17.172684535462224 a39.612560622448626,39.612560622448626 0 0,0 0.6313791908210332,-0.2575554249232605 l 6.881520468159762 17.29370084656906" fill="#ffdb14" stroke="none" /><path d="M 94.28887869178378 79.79150937346287 l -3.8834668426023535 -13.741435184417218 a35.27964830257144,35.27964830257144 0 0,0 0.5858137062167322,-0.1601250151499895 l 3.6463552471618987 13.806246740393505" fill="#ffa10e" stroke="none" /><path d="M 95.692805502759 79.44645832069477 l -2.136570447862071 -10.195520489969581 a31.416984752799973,31.416984752799973 0 0,0 0.5302492718881487,-0.10636301561460333 l 1.9607547665067857 10.230787461661397" fill="#ff6c09" stroke="none" /><path d="M 96.75951476605007 79.25152402106235 l -2.2272188208220047 -14.26064088165426 a35.43351592756708,35.43351592756708 0 0,0 0.6034344965796917,-0.08893055880728312 l 1.9814153438136641 14.296865924622512" fill="#ffa30f" stroke="none" /><path d="M 97.83486435360386 79.11191278185805 l -1.4998140363706698 -14.469415094084171 a35.54693834827815,35.54693834827815 0 0,0 0.6091642819246572,-0.057847488676421574 l 1.2505246273557762 14.493088127275774" fill="#ffa50f" stroke="none" /><path d="M 99.27714615592234 79.0124445844662 l -0.5528655356067975 -16.052063859038984 a37.061581940616165,37.061581940616165 0 0,0 0.6377651700419604,-0.016471592751654322 l 0.27647373036995804 16.059202243932997" fill="#ffb911" stroke="none" /></svg>