<?xml version="1.0" encoding="utf-8" ?>
<svg baseProfile="full" height="200mm" version="1.1" viewBox="0,0,200,200" width="200mm" xmlns="http://www.w3.org/2000/svg" xmlns:ev="http://www.w3.org/2001/xml-events" xmlns:xlink="http://www.w3.org/1999/xlink"><defs /><rect fill="#1a1a1a" height="200" width="200" x="0" y="0" /><text alignment-baseline="middle" fill="#e1ed5e" style="dominant-baseline: central; font-size:9.0px; font-family:Arial;" text-anchor="middle" x="100.0" y="100.0">2025</text><line stroke="#e1ed5e" stroke-width="0.3" x1="100.0" x2="100.0" y1="15.0" y2="10.0" /><path d="M 100.0 14.0 a86.0,86.0 0 0,1 42.46469731375804,11.215312516191453" fill="none" id="id121" stroke="none" /><text fill="#e1ed5e" style="font-size:6.75px; font-family:Arial;" text-anchor="middle"><textPath startOffset="22.20632615414155" xlink:href="#id121">January</textPath></text><path d="M 100.0 79.0 l 0.0 -29.311692560498216 a50.311692560498216,50.311692560498216 0 0,0 0.8660330828467141,0.007454220160463782 l -0.5045526035741857 29.307349716946312" fill="#c9ff1d" stroke="none" /><path d="M 102.88285421437855 79.19881850522331 l 4.03465199288229 -29.11195715469028 a50.39021037829079,50.39021037829079 0 0,0 0.8581477292382221,0.12646866815357674 l -4.535168702549169 29.038194002375736" fill="#c8ff1d" stroke="none" /><path d="M 104.307194497241 79.44645832069477 l 6.166375240635384 -29.425383645855707 a51.06455365233473,51.06455365233473 0 0,0 0.8587532695321214,0.18769020322473598 l -6.671971234321033 29.3148799445351" fill="#bfff1e" stroke="none" /><path d="M 105.01212808612495 79.60689891045804 l 7.5416809763873145 -30.685221904504186 a52.598414442472674,52.598414442472674 0 0,0 0.8773693832599705,0.22366099123718852 l -8.06875924833231 30.550857917098128" fill="#abff21" stroke="none" /><path d="M 105.71112130821622 79.79150937346287 l 8.024809160376632 -28.395348644392843 a50.50751407179343,50.50751407179343 0 0,0 0.8346000695897132,0.2436426465540368 l -8.512399447689774 28.253007668920105" fill="#c6ff1e" stroke="none" /><path d="M 106.74666289553966 80.11325718540242 l 10.112771768756716 -29.808824662181593 a52.47751865359861,52.47751865359861 0 0,0 0.8529295951704025,0.29757038804333763 l -10.624383367990392 29.630333420966046" fill="#adff20" stroke="none" /><path d="M 107.4271985657038 80.35727306442388 l 11.2312338507231 -29.70326667958791 a52.75570287756745,52.75570287756745 0 0,0 0.8466457148578924,0.32848538393449617 l -11.740862730580659 29.505538591762864" fill="#a9ff21" stroke="none" /><path d="M 108.09893153111575 80.62456947434976 l 12.237715053776146 -29.276824591759233 a52.73159510510081,52.73159510510081 0 0,0 0.8344555014785575,0.35727029727755866 l -12.739854313045019 29.061834766518885" fill="#aaff21" stroke="none" /><path d="M 109.73455568895987 81.39251694778311 l 13.569346231369273 -25.937637843730446 a50.27265300684742,50.27265300684742 0 0,0 0.7633183064474616,0.40773820391722254 l -14.013809584345045 25.70022091331147" fill="#caff1d" stroke="none" /><path d="M 110.36928655335952 81.73862282372117 l 14.483190244060825 -25.506383530013196 a50.33152570913738,50.33152570913738 0 0,0 0.7497078905630241,0.434279200510073 l -14.920094867089178 25.253300172113075" fill="#c9ff1d" stroke="none" /><line stroke="#e1ed5e" stroke-width="0.3" x1="143.23703022742887" x2="145.7803849466894" y1="26.81831364943548" y2="22.513508569990506" /><path d="M 143.74570117128098 25.957352633546492 a86.0,86.0 0 0,1 28.547481713284135,27.462654790039103" fill="none" id="id122" stroke="none" /><text fill="#e1ed5e" style="font-size:6.75px; font-family:Arial;" text-anchor="middle"><textPath startOffset="19.985693538727396" xlink:href="#id122">February</textPath></text><path d="M 111.2981086023043 82.29822771554956 l 16.708441432059818 -26.178631828523642 a52.056284058173546,52.056284058173546 0 0,0 0.7511795516555567,0.48858807581539127 l -17.156588009499657 25.887144828548724" fill="#b2ff20" stroke="none" /><path d="M 111.90073688211348 82.69761687909136 l 33.809105846964634 -49.15477992112764 a80.65943368207371,80.65943368207371 0 0,0 1.1371784100990308,0.7966661485590109 l -34.65021539664731 48.56552892980469" fill="#48f5ff" stroke="none" /><path d="M 112.77801427241765 83.33499621200491 l 18.2547121255363 -23.80767779994535 a51.00066727611592,51.00066727611592 0 0,0 0.6920728494685148,0.5401738364878146 l -18.661817530164246 23.48992557423431" fill="#c0ff1e" stroke="none" /><path d="M 113.34407831869373 83.78471172551755 l 18.710740434703627 -22.736680850613798 a50.44568667424011,50.44568667424011 0 0,0 0.665744850223216,0.5575421662650075 l -19.099342821885962 22.41123752695497" fill="#c7ff1e" stroke="none" /><path d="M 113.89432698308785 84.25364557470407 l 19.950775982253155 -22.610090438970186 a51.15376679541812,51.15376679541812 0 0,0 0.6552286290973599,0.5882707326798893 l -20.337015598946508 22.263320697521" fill="#beff1f" stroke="none" /><path d="M 114.42810811169701 84.74124197986012 l 21.390378625577625 -22.621857895717675 a52.133530997938735,52.133530997938735 0 0,0 0.6467456378387832,0.6221687911850121 l -21.776607507028825 22.25030601777036" fill="#b1ff20" stroke="none" /><path d="M 114.68862486808459 84.99185889309783 l 22.52493816621607 -23.014914837763175 a53.20340268327788,53.20340268327788 0 0,0 0.6489908131779811,0.6462038403775936 l -22.917764779561374 22.623775146735465" fill="#a4ff21" stroke="none" /><path d="M 115.19652480421416 85.50635884689758 l 22.505488474943263 -21.464543909450583 a52.100219560905614,52.100219560905614 0 0,0 0.6133750860937889,0.6543057755037626 l -22.871630883007516 21.073968717068766" fill="#b2ff20" stroke="none" /><path d="M 115.68641384162765 86.03803664274999 l 22.93995331428232 -20.41810134710829 a51.710589715637795,51.710589715637795 0 0,0 0.5860733853099733,0.6699831924379466 l -23.288018563170144 20.020202598467396" fill="#b7ff1f" stroke="none" /><path d="M 116.15771136456269 86.58626213691792 l 45.59702192064339 -37.853535416045666 a80.26194859710114,80.26194859710114 0 0,0 0.8733322039677796,1.070602018102329 l -46.24185261668758 37.06304922833523" fill="#48faff" stroke="none" /><path d="M 116.82858285166822 87.43820079747576 l 31.560170973177797 -23.558283787579505 a60.383208691932985,60.383208691932985 0 0,0 0.6145785368503925,0.838284433586684 l -31.961012122541817 23.01153691032133" fill="#4dff2c" stroke="none" /><path d="M 117.2510076193507 88.02491185347247 l 48.820827955916556 -33.88983015129878 a80.43057992300835,80.43057992300835 0 0,0 0.7796999183047653,1.1441134201956484 l -49.396952339890056 33.044438707832725" fill="#48f8ff" stroke="none" /><line stroke="#e1ed5e" stroke-width="0.3" x1="172.23445277983987" x2="176.4835382374775" y1="55.19839476539836" y2="52.563006222186495" /><path d="M 173.08426987136738 54.67131705675599 a86.0,86.0 0 0,1 12.851231095245387,41.99856678651699" fill="none" id="id123" stroke="none" /><text fill="#e1ed5e" style="font-size:6.75px; font-family:Arial;" text-anchor="middle"><textPath startOffset="22.20632615414155" xlink:href="#id123">March</textPath></text><path d="M 117.84615892207809 88.93136811851018 l 7.294296553459531 -4.5241042477090065 a29.583372382341935,29.583372382341935 0 0,0 0.2646784906694135,0.4350618461372756 l -7.371090842415168 4.39787462836465" fill="#ff0000" stroke="none" /><path d="M 118.03404312379186 89.2402003453031 l 26.246141368088114 -15.659451454727476 a51.56269550574086,51.56269550574086 0 0,0 0.4482033915621585,0.7661248834437345 l -26.5118044341206 15.205347158929845" fill="#b9ff1f" stroke="none" /><path d="M 118.3937258080291 89.86733742301442 l 26.234369877812313 -14.45188542365197 a50.95161356561997,50.95161356561997 0 0,0 0.4165704467127403,0.771841771672361 l -26.479248423743517 13.998162668647149" fill="#c1ff1e" stroke="none" /><path d="M 118.89224826269711 90.83032412892265 l 26.2579691499812 -12.74475450407308 a50.18749237688047,50.18749237688047 0 0,0 0.37053140307926863,0.7804336321739468 l -26.473458746902228 12.290878456258593" fill="#cbff1d" stroke="none" /><path d="M 119.04729006885535 91.15688171328212 l 21.11435999527152 -9.80280041473379 a44.27898395508333,44.27898395508333 0 0,0 0.31500845762412305,0.6940793804213745 l -21.27997076985899 9.437899025470353" fill="#ffe315" stroke="none" /><path d="M 119.34039704204932 91.81776055985345 l 28.0642326198123 -11.872986397333229 a51.47242948191359,51.47242948191359 0 0,0 0.3381942377039808,0.8189641719264973 l -28.26444854440248 11.388147654953428" fill="#baff1f" stroke="none" /><path d="M 119.61058180528143 92.48833698450437 l 29.14967031004106 -11.165528007070991 a52.21493704720187,52.21493704720187 0 0,0 0.31427278354489585,0.8420948133027227 l -29.337547682087582 10.662110056738936" fill="#b0ff20" stroke="none" /><path d="M 119.85752413597 93.16781622104841 l 28.430137744742833 -9.781678954686207 a51.065827368585786,51.065827368585786 0 0,0 0.2788259981840789,0.8336542449274781 l -28.59430103669868 9.290851606836416" fill="#bfff1e" stroke="none" /><path d="M 120.28053869075195 94.5502522615342 l 31.364038682110348 -8.428084750772818 a53.476692180995336,53.476692180995336 0 0,0 0.23123237187986093,0.8910326544740053 l -31.50446738586051 7.886955670749963" fill="#a0ff22" stroke="none" /><path d="M 120.45610955862082 95.25157060432595 l 29.530146043524958 -6.854764496141839 a51.315298475348705,51.315298475348705 0 0,0 0.19232390584170123,0.862150358960118 l -29.643764336368697 6.345435967631757" fill="#bcff1f" stroke="none" /><path d="M 120.67395015179393 96.31383870115 l 29.728165166594756 -5.300526078390162 a51.19700946915161,51.19700946915161 0 0,0 0.14722343321778955,0.8689210366921074 l -29.81500046133277 4.788019253382218" fill="#bdff1f" stroke="none" /><path d="M 120.78858239683441 97.02765380044208 l 29.653952669556794 -4.239914576024634 a50.9555301161622,50.9555301161622 0 0,0 0.11667360752923807,0.8693538957615485 l -29.72254227614387 3.728842338198421" fill="#c1ff1e" stroke="none" /><path d="M 120.87857604477298 97.74499172005257 l 29.315302166360766 -3.166224026607132 a50.48579175962044,50.48579175962044 0 0,0 0.08588083780295697,0.8648083165569463 l -29.365460129845953 2.661140179345751" fill="#c7ff1e" stroke="none" /><path d="M 120.96714384426684 98.82574320788733 l 30.26255169460177 -1.6948425182747844 a51.309974038758206,51.309974038758206 0 0,0 0.04179659606838681,0.8822600830884673 l -30.287241898903652 1.1736713285633176" fill="#bcff1f" stroke="none" /><line stroke="#e1ed5e" stroke-width="0.3" x1="184.98032266829074" x2="189.97916517819016" y1="98.17113171792111" y2="98.06355123074" /><path d="M 185.9800911702706 98.14961562048488 a86.0,86.0 0 0,1 -9.607161424134198,41.387399972396054" fill="none" id="id124" stroke="none" /><text fill="#e1ed5e" style="font-size:6.75px; font-family:Arial;" text-anchor="middle"><textPath startOffset="21.466115282336823" xlink:href="#id124">April</textPath></text><path d="M 120.99824983174949 100.27111621757518 l 57.71700884659616 0.7452057792255975 a78.72181946068099,78.72181946068099 0 0,0 -0.029156827480349378,1.3548032034581923 l -57.69562995643081 -1.7385987984739046" fill="#46fff3" stroke="none" /><path d="M 120.92983693683757 101.71520430193887 l 36.25089516716403 2.9707680727516266 a57.37241899245632,57.37241899245632 0 0,0 -0.08913325391379419,0.9835780295844639 l -36.19438731697316 -3.594327490884661" fill="#70ff27" stroke="none" /><path d="M 120.8583938346157 102.4346265915055 l 30.288335745425357 3.535305172725348 a51.493961121702604,51.493961121702604 0 0,0 -0.11034050158943318,0.8795223626557079 l -30.222993734589075 -4.056145289668451" fill="#baff1f" stroke="none" /><path d="M 120.81339534386255 102.79330883721812 l 29.49552546069919 3.9585137632076988 a50.75997065550064,50.75997065550064 0 0,0 -0.12367533661705517,0.864985016248212 l -29.423016073065536 -4.46564425143632" fill="#c3ff1e" stroke="none" /><path d="M 120.70491114924044 103.5080841355445 l 62.114733447721314 10.524252406633499 a84.0,84.0 0 0,0 -0.25381423064324515,1.4235249970671267 l -61.924372774738885 -11.591896154433844" fill="#4dd2ff" stroke="none" /><line stroke="#e1ed5e" stroke-width="0.3" x1="174.80103733775053" x2="179.2010983576182" y1="140.37084112569926" y2="142.7455964860345" /><path d="M 175.68104954172406 140.8457921977663 a86.0,86.0 0 0,1 -30.038265399797805,32.042727171017184" fill="none" id="id125" stroke="none" /><text fill="#e1ed5e" style="font-size:6.75px; font-family:Arial;" text-anchor="middle"><textPath startOffset="22.206326154141568" xlink:href="#id125">May</textPath></text><line stroke="#e1ed5e" stroke-width="0.3" x1="143.8653032363475" x2="146.44561519142675" y1="172.8068346515853" y2="177.08958963109032" /><path d="M 144.38136562736335 173.6633856474863 a86.0,86.0 0 0,1 -40.68145358897372,12.25698825130547" fill="none" id="id126" stroke="none" /><text fill="#e1ed5e" style="font-size:6.75px; font-family:Arial;" text-anchor="middle"><textPath startOffset="21.466115282336833" xlink:href="#id126">June</textPath></text><line stroke="#e1ed5e" stroke-width="0.3" x1="102.19456741930631" x2="102.32365962044197" y1="184.97166512339345" y2="189.96999836594603" /><path d="M 102.22038585953345 185.97133177190398 a86.0,86.0 0 0,1 -42.740103519485714,-10.115201625700543" fill="none" id="id127" stroke="none" /><text fill="#e1ed5e" style="font-size:6.75px; font-family:Arial;" text-anchor="middle"><textPath startOffset="22.20632615414155" xlink:href="#id127">July</textPath></text><line stroke="#e1ed5e" stroke-width="0.3" x1="58.666819895761336" x2="56.23545636021788" y1="174.27360380694188" y2="178.64263932499728" /><path d="M 58.180547188652646 175.14741091055294 a86.0,86.0 0 0,1 -31.652253787137756,-30.449443065178592" fill="none" id="id128" stroke="none" /><text fill="#e1ed5e" style="font-size:6.75px; font-family:Arial;" text-anchor="middle"><textPath startOffset="22.20632615414155" xlink:href="#id128">August</textPath></text><line stroke="#e1ed5e" stroke-width="0.3" x1="26.63291911575756" x2="22.317208475507996" y1="142.92168965132927" y2="145.44649492493687" /><path d="M 25.769776987707644 143.4266507060508 a86.0,86.0 0 0,1 -11.730757126820373,-40.83630448921669" fill="none" id="id129" stroke="none" /><text fill="#e1ed5e" style="font-size:6.75px; font-family:Arial;" text-anchor="middle"><textPath startOffset="21.46611528233685" xlink:href="#id129">September</textPath></text><line stroke="#e1ed5e" stroke-width="0.3" x1="15.007084014347285" x2="10.007500721073583" y1="101.09737516637583" y2="101.16192664675087" /><path d="M 14.007167355692545 101.11028546245083 a86.0,86.0 0 0,1 10.666146001902534,-42.60595125391555" fill="none" id="id130" stroke="none" /><text fill="#e1ed5e" style="font-size:6.75px; font-family:Arial;" text-anchor="middle"><textPath startOffset="22.20632615414155" xlink:href="#id130">October</textPath></text><line stroke="#e1ed5e" stroke-width="0.3" x1="26.266209847984243" x2="21.928928074336255" y1="57.711370442889674" y2="55.22380399835377" /><path d="M 25.398753493254645 57.213857153982495 a86.0,86.0 0 0,1 29.58750427330803,-30.492523968695096" fill="none" id="id131" stroke="none" /><text fill="#e1ed5e" style="font-size:6.75px; font-family:Arial;" text-anchor="middle"><textPath startOffset="21.46611528233685" xlink:href="#id131">November</textPath></text><line stroke="#e1ed5e" stroke-width="0.3" x1="56.762969772571076" x2="54.21961505331055" y1="26.818313649435495" y2="22.513508569990535" /><path d="M 56.25429882871897 25.957352633546506 a86.0,86.0 0 0,1 42.265352541879196,-11.944610805530505" fill="none" id="id132" stroke="none" /><text fill="#e1ed5e" style="font-size:6.75px; font-family:Arial;" text-anchor="middle"><textPath startOffset="22.20632615414155" xlink:href="#id132">December</textPath></text></svg>