<?xml version="1.0" encoding="utf-8" ?>
<svg baseProfile="full" height="200mm" version="1.1" viewBox="0,0,200,200" width="200mm" xmlns="http://www.w3.org/2000/svg" xmlns:ev="http://www.w3.org/2001/xml-events" xmlns:xlink="http://www.w3.org/1999/xlink"><defs /><rect fill="#1a1a1a" height="200" width="200" x="0" y="0" /><text alignment-baseline="middle" fill="#e1ed5e" style="dominant-baseline: central; font-size:9.0px; font-family:Arial;" text-anchor="middle" x="100.0" y="100.0">2015</text><line stroke="#e1ed5e" stroke-width="0.3" x1="100.0" x2="100.0" y1="15.0" y2="10.0" /><path d="M 100.0 14.0 a86.0,86.0 0 0,1 42.46469731375804,11.215312516191453" fill="none" id="id1" stroke="none" /><text fill="#e1ed5e" style="font-size:6.75px; font-family:Arial;" text-anchor="middle"><textPath startOffset="22.20632615414155" xlink:href="#id1">January</textPath></text><line stroke="#e1ed5e" stroke-width="0.3" x1="143.23703022742887" x2="145.7803849466894" y1="26.81831364943548" y2="22.513508569990506" /><path d="M 143.74570117128098 25.957352633546492 a86.0,86.0 0 0,1 28.547481713284135,27.462654790039103" fill="none" id="id2" stroke="none" /><text fill="#e1ed5e" style="font-size:6.75px; font-family:Arial;" text-anchor="middle"><textPath startOffset="19.985693538727396" xlink:href="#id2">February</textPath></text><line stroke="#e1ed5e" stroke-width="0.3" x1="172.23445277983987" x2="176.4835382374775" y1="55.19839476539836" y2="52.563006222186495" /><path d="M 173.08426987136738 54.67131705675599 a86.0,86.0 0 0,1 12.851231095245387,41.99856678651699" fill="none" id="id3" stroke="none" /><text fill="#e1ed5e" style="font-size:6.75px; font-family:Arial;" text-anchor="middle"><textPath startOffset="22.20632615414155" xlink:href="#id3">March</textPath></text><line stroke="#e1ed5e" stroke-width="0.3" x1="184.98032266829074" x2="189.97916517819016" y1="98.17113171792111" y2="98.06355123074" /><path d="M 185.9800911702706 98.14961562048488 a86.0,86.0 0 0,1 -9.607161424134198,41.387399972396054" fill="none" id="id4" stroke="none" /><text fill="#e1ed5e" style="font-size:6.75px; font-family:Arial;" text-anchor="middle"><textPath startOffset="21.466115282336823" xlink:href="#id4">April</textPath></text><line stroke="#e1ed5e" stroke-width="0.3" x1="174.80103733775053" x2="179.2010983576182" y1="140.37084112569926" y2="142.7455964860345" /><path d="M 175.68104954172406 140.8457921977663 a86.0,86.0 0 0,1 -30.038265399797805,32.042727171017184" fill="none" id="id5" stroke="none" /><text fill="#e1ed5e" style="font-size:6.75px; font-family:Arial;" text-anchor="middle"><textPath startOffset="22.206326154141568" xlink:href="#id5">May</textPath></text><path d="M 117.35343817320211 111.8261652097733 l 5.228983196206269 3.5634909082718718 a27.32777470518221,27.32777470518221 0 0,0 -0.2682534612858944,0.38643911827087635 l -5.166868827758239 -3.6529712887297676" fill="red" stroke="none" /><path d="M 117.14729908036423 112.12312394758627 l 8.486683009324604 6.000076720171792 a31.393493596895436,31.393493596895436 0 0,0 -0.3157590588376875,0.43856171565781965 l -8.382144158111315 -6.145272041280743" fill="red" stroke="none" /><path d="M 116.498646956653 112.99209946851258 l 9.902832949467596 7.798129812558101 a33.60463918557642,33.60463918557642 0 0,0 -0.36178128531992326,0.45137777985222677 l -9.76713375209282 -7.967435425988578" fill="red" stroke="none" /><path d="M 115.32070863581623 114.36230785411682 l 7.179789173409132 6.7306509697006 a30.84129234656377,30.84129234656377 0 0,0 -0.36641430416541637,0.38418393301235576 l -7.062868317864751 -6.853242019295463" fill="red" stroke="none" /><path d="M 114.55890576462653 115.13401014063108 l 8.52526732424793 8.862031544310131 a33.29698280238845,33.29698280238845 0 0,0 -0.41647258119490427,0.39380082042761966 l -8.371458908662216 -9.007467001483674" fill="red" stroke="none" /><path d="M 114.29624159901734 115.38237550388516 l 11.02392052279975 11.861445110045393 a37.19323018398816,37.19323018398816 0 0,0 -0.4727090425185274,0.4318085025174548 l -10.81811193081436 -12.049446379149432" fill="red" stroke="none" /><path d="M 113.75828350139079 115.86535959552629 l 1.047838192982463 1.2083142295994067 a22.599371175220174,22.599371175220174 0 0,0 -0.2960889151406009,0.2523333969946528 l -1.0268838012648147 -1.2261720168170063" fill="red" stroke="none" /><path d="M 113.48314897796784 116.09983520530334 l 21.568638343715783 25.754482391616218 a54.593146968720816,54.593146968720816 0 0,0 -0.7256465759866584,0.5971577302696479 l -21.122121639184435 -26.121935240743042" fill="red" stroke="none" /><path d="M 112.04921762599082 117.19931262002967 l 8.541042205597925 12.191667505288892 a35.88577033671157,35.88577033671157 0 0,0 -0.5089680778473284,0.35007288496210726 l -8.329917243127714 -12.336881179616094" fill="red" stroke="none" /><path d="M 111.7513745106137 117.40417183066458 l 9.300871230064049 13.774895942318633 a37.6208893823387,37.6208893823387 0 0,0 -0.5398155155620807,0.3577602884741736 l -9.062381015762003 -13.932954251884125" fill="red" stroke="none" /><path d="M 111.1453310114006 117.79835938074945 l 8.954773710486482 14.30018368314902 a37.87255835899883,37.87255835899883 0 0,0 -0.5555017012547214,0.341234515820852 l -8.707292809299451 -14.45220666579825" fill="red" stroke="none" /><line stroke="#e1ed5e" stroke-width="0.3" x1="143.8653032363475" x2="146.44561519142675" y1="172.8068346515853" y2="177.08958963109032" /><path d="M 144.38136562736335 173.6633856474863 a86.0,86.0 0 0,1 -40.68145358897372,12.25698825130547" fill="none" id="id6" stroke="none" /><text fill="#e1ed5e" style="font-size:6.75px; font-family:Arial;" text-anchor="middle"><textPath startOffset="21.466115282336833" xlink:href="#id6">June</textPath></text><path d="M 110.8373102113329 117.98757091392108 l 8.482997171391322 14.079924834432328 a37.437929442393205,37.437929442393205 0 0,0 -0.5548517373640597,0.32781618648729205 l -8.23937756299888 -14.223859593213371" fill="red" stroke="none" /><path d="M 110.5260780823613 118.17145234162733 l 8.117054967297308 14.012690798843508 a37.19389035303498,37.19389035303498 0 0,0 -0.5567592997844888,0.3161424609427835 l -7.87464690059162 -14.15033642558092" fill="red" stroke="none" /><path d="M 109.89434966115114 118.52300852407294 l 8.965122890096142 16.783422195460606 a40.02778728663965,40.02778728663965 0 0,0 -0.6105364009354742,0.3194037892371183 l -8.674895586634172 -16.93525540364244" fill="red" stroke="none" /><path d="M 109.57404056367764 118.69057910512821 l 14.717716966219363 28.732137844457206 a53.28230068955172,53.28230068955172 0 0,0 -0.819903202738133,0.41111648676418316 l -14.220959855798469 -28.981222172130693" fill="red" stroke="none" /><path d="M 108.92500713936063 119.00905698771935 l 6.7624611542044395 14.403126793097389 a36.91166057582187,36.91166057582187 0 0,0 -0.5774600870727374,0.26508360334637826 l -6.513533071364282 -14.517397466777842" fill="red" stroke="none" /><path d="M 108.59647513512805 119.15986991738527 l 10.725166538790196 23.904308742289235 a47.200098735147364,47.200098735147364 0 0,0 -0.7441417545390475,0.3262098768795935 l -10.312104109593395 -24.085383172463285" fill="red" stroke="none" /><path d="M 107.93186726928326 119.44442032107085 l 8.732300743709775 21.4066272500845 a44.119186112461975,44.119186112461975 0 0,0 -0.7056526074934459,0.28079373553173737 l -8.362527060174463 -21.553767830022306" fill="red" stroke="none" /><path d="M 107.59598834532513 119.57807347666477 l 5.835969808537057 15.04176158846453 a37.13422248794044,37.13422248794044 0 0,0 -0.5979136405755305,0.22607977742918497 l -5.576185947201251 -15.139989616000346" fill="red" stroke="none" /><path d="M 106.91757812671514 119.82793768551818 l 10.669387972240827 30.58179553321002 a53.38953623837892,53.38953623837892 0 0,0 -0.8703263904210408,0.295261965219988 l -10.14139184888256 -30.76092048532813" fill="red" stroke="none" /><path d="M 105.53697534728816 120.25689768951611 l 6.283496253182243 22.988027352426343 a44.83131819097838,44.83131819097838 0 0,0 -0.7461416271002721,0.19706278529290022 l -5.886864183270473 -23.092781487022826" fill="red" stroke="none" /><path d="M 104.83641907484287 120.43548508189849 l 8.223185752812043 34.74570486486027 a56.705528850322686,56.705528850322686 0 0,0 -0.9517883970362139,0.2166239404084638 l -7.623877206382967 -34.88210553884642" fill="red" stroke="none" /><path d="M 103.7750983002368 120.6578951692458 l 5.761326637174988 31.526829830915524 a53.048929526705365,53.048929526705365 0 0,0 -0.8996871815829931,0.1564221487729792 l -5.217790484119945 -31.621330558209507" fill="red" stroke="none" /><path d="M 103.06178313531738 120.77559828337769 l 3.332975528671683 22.615762649314334 a43.86004037802308,43.86004037802308 0 0,0 -0.7478584023219631,0.10364636006054243 l -2.9431885351628897 -22.66978357486748" fill="red" stroke="none" /><path d="M 102.70371172650421 120.8252237178851 l 2.0869766571927144 16.074848273945456 a37.2097568950936,37.2097568950936 0 0,0 -0.6358838735511385,0.07699668153021524 l -1.8099653605901953 -16.10839048420102" fill="red" stroke="none" /><path d="M 102.34483914955558 120.86867818915974 l 2.292122957139949 20.3995128499985 a41.52788231084497,41.52788231084497 0 0,0 -0.7110510862370787,0.07370335240095863 l -1.9406392742972676 -20.435945570855218" fill="red" stroke="none" /><line stroke="#e1ed5e" stroke-width="0.3" x1="102.19456741930631" x2="102.32365962044197" y1="184.97166512339345" y2="189.96999836594603" /><path d="M 102.22038585953345 185.97133177190398 a86.0,86.0 0 0,1 -42.740103519485714,-10.115201625700543" fill="none" id="id7" stroke="none" /><text fill="#e1ed5e" style="font-size:6.75px; font-family:Arial;" text-anchor="middle"><textPath startOffset="22.20632615414155" xlink:href="#id7">July</textPath></text><path d="M 100.54218724476979 120.99299961872073 l 0.921008161153713 35.66060279442362 a56.672494273523476,56.672494273523476 0 0,0 -0.9754154240370632,0.016792661107794947 l -0.30703304722398195 -35.67117293281057" fill="red" stroke="none" /><path d="M 99.45781275523022 120.99299961872073 l -1.0083770612444007 39.04344756619831 a60.05646709767949,60.05646709767949 0 0,0 -1.0331990148910961,-0.03558546313871868 l 1.6802964278101398 -39.020305304633496" fill="red" stroke="none" /><path d="M 97.2962882734958 120.8252237178851 l -3.3022562706083276 25.435487420888926 a46.648955472201415,46.648955472201415 0 0,0 -0.7954122478854261,-0.11023688974400578 l 3.7395971096805845 -25.374875965652315" fill="red" stroke="none" /><path d="M 96.58105272829116 120.7198165907248 l -4.369529998148486 26.480624869085915 a47.83870872195551,47.83870872195551 0 0,0 -0.8113240626082605,-0.14105908789442978 l 4.824703032228796 -26.40148720267048" fill="red" stroke="none" /><path d="M 95.51606077576429 120.51570834832081 l -10.3865969640485 47.522587481612064 a69.6444006792257,69.6444006792257 0 0,0 -1.168964187954147,-0.2660524433577075 l 11.20308130139551 -47.33675830467667" fill="red" stroke="none" /><path d="M 93.42475214034765 119.94407469862007 l -10.012559895593073 30.37014676016699 a52.97807326742686,52.97807326742686 0 0,0 -0.8636189509575931,-0.29298643757958814 l 10.533848579487891 -30.193297335689277" fill="red" stroke="none" /><path d="M 92.7421414339146 119.70592522655815 l -7.831149957633587 21.26247764377773 a43.65877016104564,43.65877016104564 0 0,0 -0.7029681103062813,-0.2658023887277139 l 8.19598828870015 -21.12452700494338" fill="red" stroke="none" /><path d="M 91.7346041902142 119.30500536409082 l -9.056093617539029 21.151792350623122 a44.00893633468331,44.00893633468331 0 0,0 -0.6938309024151085,-0.30415507780810835 l 9.41884519461188 -20.99277271952056" fill="red" stroke="none" /><line stroke="#e1ed5e" stroke-width="0.3" x1="58.666819895761336" x2="56.23545636021788" y1="174.27360380694188" y2="178.64263932499728" /><path d="M 58.180547188652646 175.14741091055294 a86.0,86.0 0 0,1 -31.652253787137756,-30.449443065178592" fill="none" id="id8" stroke="none" /><text fill="#e1ed5e" style="font-size:6.75px; font-family:Arial;" text-anchor="middle"><textPath startOffset="22.20632615414155" xlink:href="#id8">August</textPath></text><path d="M 85.44109423537348 115.13401014063109 l -23.108083136557152 24.020896224832015 a54.33147103999741,54.33147103999741 0 0,0 -0.6684065776512613,-0.6541765171680348 l 23.518139666584208 -23.61956960474141" fill="red" stroke="none" /><path d="M 84.43433777217949 114.09645910891817 l -20.07152597773798 18.177025882848604 a48.078966468843646,48.078966468843646 0 0,0 -0.5502549575638501,-0.6182172780357457 l 20.381439784950167 -17.828834435071993" fill="red" stroke="none" /><path d="M 84.19399662182784 113.82643327865904 l -26.661113020128052 23.322030970628383 a56.42219750477081,56.42219750477081 0 0,0 -0.6331577842131503,-0.7365055453185162 l 27.05861331391198 -22.85964832614834" fill="red" stroke="none" /><path d="M 83.72743513129214 113.27417163493432 l -15.055081257696015 12.28102233452081 a40.4288183185913,40.4288183185913 0 0,0 -0.4352491266010384,-0.5430402080474281 l 15.264248296351914 -12.020054292895122" fill="red" stroke="none" /><path d="M 83.28015986056508 112.70617746262583 l -17.786956428004096 13.517128334329374 a43.34029044973333,43.34029044973333 0 0,0 -0.4462785479960685,-0.5978630448387375 l 18.01699624269525 -13.208952409981329" fill="red" stroke="none" /><path d="M 82.05923443525364 110.91462005526583 l -9.309300509647478 5.663497339419766 a31.896709507577853,31.896709507577853 0 0,0 -0.2813276477667358,-0.4715213195931162 l 9.405409033112447 -5.502413925940538" fill="red" stroke="none" /><line stroke="#e1ed5e" stroke-width="0.3" x1="26.63291911575756" x2="22.317208475507996" y1="142.92168965132927" y2="145.44649492493687" /><path d="M 25.769776987707644 143.4266507060508 a86.0,86.0 0 0,1 -11.730757126820373,-40.83630448921669" fill="none" id="id9" stroke="none" /><text fill="#e1ed5e" style="font-size:6.75px; font-family:Arial;" text-anchor="middle"><textPath startOffset="21.46611528233685" xlink:href="#id9">September</textPath></text><path d="M 81.51974371655577 109.97397251340807 l -27.78671551112422 14.996758296805949 a52.57537518872847,52.57537518872847 0 0,0 -0.4229751317748206,-0.8001095469776688 l 28.04074315112393 -14.516233734742155" fill="red" stroke="none" /><path d="M 81.18737489456691 109.33194174019688 l -14.133890229149285 7.011070461541666 a36.77726091646911,36.77726091646911 0 0,0 -0.2764367079188298,-0.5695414961610499 l 14.252480193682835 -6.766740009415331" fill="red" stroke="none" /><path d="M 80.87730276802145 108.67885076344099 l -19.113081092197056 8.67448647104691 a41.989439829906765,41.989439829906765 0 0,0 -0.29304413115296796,-0.6607371543586926 l 19.259566308081304 -8.344200980195522" fill="red" stroke="none" /><path d="M 80.20201598880116 107.00284435728193 l -14.83016291849221 5.245651408375201 a36.73056231948528,36.73056231948528 0 0,0 -0.20570718635155366,-0.5978813729371324 l 14.918260935786991 -4.9895973323487715" fill="red" stroke="none" /><path d="M 79.97269907076064 106.31721596034903 l -30.24161103817498 9.539118056498001 a52.71040541336665,52.71040541336665 0 0,0 -0.26549284300391085,-0.8676459722498752 l 30.401330653685022 -9.01714511169608" fill="red" stroke="none" /><path d="M 79.50377843672027 104.57218783832718 l -15.255042055823408 3.403013455209958 a36.629997079375315,36.629997079375315 0 0,0 -0.13198304478723147,-0.6165808458278789 l 15.31135913933508 -3.139918789965915" fill="red" stroke="none" /><path d="M 79.35854240842038 103.8639653848113 l -31.182535929452584 5.837196278773971 a52.72417701672549,52.72417701672549 0 0,0 -0.15931126697379105,-0.8935021896797833 l 31.278393638765564 -5.299575338360973" fill="red" stroke="none" /><path d="M 79.23777060512086 103.15116336523772 l -32.43699029008626 4.9230867040657 a53.808461130856145,53.808461130856145 0 0,0 -0.13110290367127145,-0.9169334029258803 l 32.51692724477412 -4.364007829159418" fill="red" stroke="none" /><path d="M 79.1416061653843 102.43462659150553 l -62.5751815038471 7.303879774516597 a84.0,84.0 0 0,0 -0.15527079399579247,-1.4376147124608716 l 62.69163459934394 -6.225668740170943" fill="red" stroke="none" /><path d="M 79.04373962182676 101.35467743843564 l -24.674331738174807 1.5950250622480393 a45.72583166800866,45.72583166800866 0 0,0 -0.044013615081567675,-0.7858926639556695 l 24.698131704143904 -1.1700606819569324" fill="red" stroke="none" /><path d="M 79.0095281055655 100.63252640178507 l -33.05976719665112 0.9962222714151787 a54.07477386031284,54.07477386031284 0 0,0 -0.020028104828948127,-0.9306273324744185 l 33.07201736416508 -0.42700512315063127" fill="red" stroke="none" /><line stroke="#e1ed5e" stroke-width="0.3" x1="15.007084014347285" x2="10.007500721073583" y1="101.09737516637583" y2="101.16192664675087" /><path d="M 14.007167355692545 101.11028546245083 a86.0,86.0 0 0,1 10.666146001902534,-42.60595125391555" fill="none" id="id10" stroke="none" /><text fill="#e1ed5e" style="font-size:6.75px; font-family:Arial;" text-anchor="middle"><textPath startOffset="22.20632615414155" xlink:href="#id10">October</textPath></text><path d="M 79.00019446554 99.90962569577889 l -24.454359484144234 -0.10524124711183994 a45.4545859400614,45.4545859400614 0 0,0 0.010101725192831111,-0.7823897486764977 l 24.448924751833687 0.5261672538488096" fill="red" stroke="none" /><path d="M 79.08570108090925 98.10471618934814 l -51.79449063152249 -4.693691141866466 a73.00673029824223,73.00673029824223 0 0,0 0.12419096432359691,-1.2505860624542846 l 51.70602254151667 5.584552735025182" fill="red" stroke="none" /><path d="M 79.26566170972629 96.67025291283419 l -31.603608880623494 -5.075253578916816 a53.00853469263678,53.00853469263678 0 0,0 0.15243270160138153,-0.8996664335718677 l 31.51156431750189 5.6185058008045115" fill="red" stroke="none" /><path d="M 79.54389044137918 95.25157060432595 l -30.716986461531395 -7.130263017142898 a52.53369480367847,52.53369480367847 0 0,0 0.21205400954575288,-0.8791007709290771 l 30.589699651724825 7.6579490197313715" fill="red" stroke="none" /><path d="M 79.81627453868168 94.20196356495316 l -25.000763370507276 -7.181792935302733 a47.01184958578806,47.01184958578806 0 0,0 0.2301209953947836,-0.7758535971964774 l 24.873436478000787 7.611075919245749" fill="red" stroke="none" /><path d="M 80.02781315780177 93.51064311812611 l -29.29858176446513 -9.519686286964971 a51.80635194909124,51.80635194909124 0 0,0 0.28286935782356265,-0.8457433756010027 l 29.130375112869793 10.022602765488296" fill="red" stroke="none" /><path d="M 80.2630227832202 92.82701384747504 l -30.467027642114754 -11.072595615081738 a53.41669549785283,53.41669549785283 0 0,0 0.3215059623016364,-0.861476136260557 l 30.27191709131149 11.595394888371636" fill="red" stroke="none" /><path d="M 80.65960295795068 91.81776055985345 l -29.4213103536068 -12.44711809342282 a52.945958300775146,52.945958300775146 0 0,0 0.36232505162397244,-0.8362961742404458 l 29.202694592140144 12.951713412249866" fill="red" stroke="none" /><path d="M 80.95270993114464 91.15688171328213 l -36.92360958425466 -17.14258805036279 a61.70898266715718,61.70898266715718 0 0,0 0.4555939109001952,-0.9595969672889103 l 36.62305747951272 17.775627433292232" fill="red" stroke="none" /><path d="M 81.43458229118936 90.18545643968196 l -16.47881144697758 -8.711466410576666 a39.63976592470101,39.63976592470101 0 0,0 0.3240869884831794,-0.60048396937604 l 16.32641635927593 8.993831363285178" fill="red" stroke="none" /><line stroke="#e1ed5e" stroke-width="0.3" x1="26.266209847984243" x2="21.928928074336255" y1="57.711370442889674" y2="55.22380399835377" /><path d="M 25.398753493254645 57.213857153982495 a86.0,86.0 0 0,1 29.58750427330803,-30.492523968695096" fill="none" id="id11" stroke="none" /><text fill="#e1ed5e" style="font-size:6.75px; font-family:Arial;" text-anchor="middle"><textPath startOffset="21.46611528233685" xlink:href="#id11">November</textPath></text><path d="M 81.96595687620814 89.24020034530311 l -35.542912331335764 -21.20626047106941 a62.38845370583275,62.38845370583275 0 0,0 0.5581811819370331,-0.9175030992447465 l 35.17261535111252 21.81493134352123" fill="red" stroke="none" /><path d="M 82.54541684631803 88.32363383020206 l -34.06394943919867 -22.78731857069097 a61.98310065183504,61.98310065183504 0 0,0 0.6008687064145507,-0.881700683359283 l 33.666656267115386 23.37029727732067" fill="red" stroke="none" /><path d="M 83.17141714833178 87.43820079747576 l -25.785633634610463 -19.24784486506671 a53.17729687043381,53.17729687043381 0 0,0 0.5538644885432892,-0.7288207436573853 l 25.450493205843067 19.68885038460512" fill="red" stroke="none" /><path d="M 83.6137871275137 86.86637796730984 l -24.83632432932112 -19.906423708818647 a52.82936868783679,52.82936868783679 0 0,0 0.574837638467758,-0.7046829751940087 l 24.489988198776967 20.330990853620737" fill="red" stroke="none" /><path d="M 84.80347519578584 85.50635884689758 l -25.37413137519372 -24.200503698171183 a56.064382531149576,56.064382531149576 0 0,0 0.6720670769766174,-0.6926241991883041 l 24.953800034513986 24.63369209290961" fill="red" stroke="none" /><path d="M 85.57189188830299 84.74124197986013 l -21.0228335879741 -22.233152685936975 a51.59857203243051,51.59857203243051 0 0,0 0.6506140515062299,-0.6046748543941954 l 20.637011652673017 22.591732126405816" fill="red" stroke="none" /><path d="M 86.10567301691215 84.25364557470407 l -21.004307729324434 -23.804051420878704 a52.746083336940885,52.746083336940885 0 0,0 0.6859658312577449,-0.5948628092471653 l 20.591448099419917 24.16207922354555" fill="red" stroke="none" /><path d="M 87.51073957382395 83.11751280151077 l -22.000693854626196 -29.73966589567952 a57.992948756102564,57.992948756102564 0 0,0 0.8076337848655869,-0.586780291758783 l 21.485514753406825 30.113965422254967" fill="red" stroke="none" /><path d="M 88.70189139769569 82.29822771554957 l -20.986585207682285 -32.88158801189414 a60.008147724074895,60.008147724074895 0 0,0 0.8754927221082747,-0.5482334622663474 l 20.41747333320177 33.23796581548342" fill="red" stroke="none" /><line stroke="#e1ed5e" stroke-width="0.3" x1="56.762969772571076" x2="54.21961505331055" y1="26.818313649435495" y2="22.513508569990535" /><path d="M 56.25429882871897 25.957352633546506 a86.0,86.0 0 0,1 42.265352541879196,-11.944610805530505" fill="none" id="id12" stroke="none" /><text fill="#e1ed5e" style="font-size:6.75px; font-family:Arial;" text-anchor="middle"><textPath startOffset="22.20632615414155" xlink:href="#id12">December</textPath></text><path d="M 89.63071344664047 81.73862282372117 l -6.237767054780129 -10.985347578054952 a33.63279855140492,33.63279855140492 0 0,0 0.5058948037848292,-0.2815299105855768 l 6.047748161923254 11.091092886200714" fill="red" stroke="none" /><path d="M 90.91171255644093 81.06846463323043 l -13.860461548618584 -28.872306211373953 a53.02690213405095,53.02690213405095 0 0,0 0.8262646555021315,-0.3879423347576922 l 13.361418681816845 29.106613528771653" fill="red" stroke="none" /><path d="M 94.28887869178378 79.79150937346287 l -5.8383281183733615 -20.658604972207538 a42.4677440504471,42.4677440504471 0 0,0 0.7051710471570288,-0.19274988517864775 l 5.48185918199261 20.75604139821248" fill="red" stroke="none" /><path d="M 95.692805502759 79.44645832069477 l -6.736636273960548 -32.14661760082112 a53.844897495060984,53.844897495060984 0 0,0 0.9087828738594503,-0.18229329511080694 l 6.182286990633962 32.25781485200914" fill="red" stroke="none" /><path d="M 97.47563105711357 79.15227682838746 l -4.9721859130083805 -41.063235136170015 a62.363170968893414,62.363170968893414 0 0,0 1.0668060707972684,-0.11986809212902072 l 4.264613138701394 41.142739181769635" fill="red" stroke="none" /></svg>