<?xml version="1.0" encoding="utf-8" ?>
<svg baseProfile="full" height="200mm" version="1.1" viewBox="0,0,200,200" width="200mm" xmlns="http://www.w3.org/2000/svg" xmlns:ev="http://www.w3.org/2001/xml-events" xmlns:xlink="http://www.w3.org/1999/xlink"><defs /><rect fill="#1a1a1a" height="200" width="200" x="0" y="0" /><rect fill="#1a1a1a" height="200" width="180" x="10" y="0" /><text alignment-baseline="middle" fill="#e1ed5e" style="dominant-baseline: central; font-size:9.0px; font-family:Arial;" text-anchor="middle" x="100.0" y="100.0">2026</text><line stroke="#e1ed5e" stroke-width="0.3" x1="100.0" x2="100.0" y1="15.0" y2="10.0" /><path d="M 100.0 14.0 a86.0,86.0 0 0,1 42.46469731375804,11.215312516191453" fill="none" id="id133" stroke="none" /><text fill="#e1ed5e" style="font-size:6.75px; font-family:Arial;" text-anchor="middle"><textPath startOffset="22.20632615414155" xlink:href="#id133">January</textPath></text><path d="M 100.0 79.0 l 0.0 -60.28999894896761 a81.28999894896761,81.28999894896761 0 0,0 1.3992737038160066,0.012043990535218707 l -1.0377932245434782 60.28106633504095" fill="red" stroke="none" /><path d="M 100.72285384407766 79.0124445844662 l 2.0705547096237265 -60.117106750080076 a81.1527532271472,81.1527532271472 0 0,0 1.3956695621347843,0.06010046721443472 l -3.1050651041478425 60.07255855634144" fill="red" stroke="none" /><path d="M 101.44485096284872 79.0497635885617 l 4.183053309281093 -60.65397608781892 a81.79804890167115,81.79804890167115 0 0,0 1.403848538818155,0.108965665310448 l -5.226492037461589 60.57298516032001" fill="red" stroke="none" /><path d="M 102.16513564639614 79.11191278185805 l 3.1190167222680523 -30.090628934968088 a51.25184647283082,51.25184647283082 0 0,0 0.8767318933165941,0.0985110436069984 l -3.6365153190943715 30.032481937890488" fill="red" stroke="none" /><path d="M 102.88285421437855 79.19881850522331 l 7.0310527760746755 -50.73243182573139 a72.21733439073563,72.21733439073563 0 0,0 1.2298647108992136,0.1812500886468342 l -7.903286467402545 50.60388725292359" fill="red" stroke="none" /><path d="M 103.59715602781102 79.31037775812273 l 10.385108613948287 -59.73162478976663 a81.62769565923618,81.62769565923618 0 0,0 1.3822479442643785,0.25259697670780346 l -11.411751679315566 59.54401233170808" fill="red" stroke="none" /><path d="M 104.66035177308747 79.52364482259891 l 13.388464511054357 -58.82537798788454 a81.32972797370508,81.32972797370508 0 0,0 1.3623748498538517,0.3224301103943855 l -14.399063047870733 58.58620196534929" fill="red" stroke="none" /><path d="M 105.36241919743992 79.69619591428918 l 15.384182689757452 -58.24934975257842 a81.24665819470853,81.24665819470853 0 0,0 1.3490895812387884,0.36875714470673465 l -16.38457016021995 57.975906067045386" fill="red" stroke="none" /><path d="M 106.0581310904928 79.89281104454417 l 12.926760576050315 -42.90445578050999 a65.8095242645162,65.8095242645162 0 0,0 1.0818290662409478,0.3361295569551189 l -13.66337501500198 42.675586088672354" fill="red" stroke="none" /><path d="M 106.74666289553966 80.11325718540242 l 20.239988686618958 -59.66022844379275 a84.0,84.0 0 0,0 1.3652719837469054,0.4763165873111701 l -21.26394267442914 59.302991003309366" fill="red" stroke="none" /><path d="M 107.4271985657038 80.35727306442388 l 19.76068135004621 -52.26111357951929 a76.87225178914377,76.87225178914377 0 0,0 1.2336782379679008,0.4786479899901674 l -20.657342753013776 51.913222885638575" fill="red" stroke="none" /><path d="M 108.09893153111575 80.62456947434976 l 23.26093243648052 -55.64815292651117 a81.31407714577821,81.31407714577821 0 0,0 1.2867613598015917,0.5509240609319699 l -24.215377554072425 55.23950933761641" fill="red" stroke="none" /><path d="M 108.76106565485865 80.91482961587045 l 12.838859167553494 -27.96826600822403 a51.77434334362071,51.77434334362071 0 0,0 0.8067472970327771,0.37877867325712455 l -13.31838467588587 27.743122352326903" fill="red" stroke="none" /><path d="M 109.41281617654863 81.2277094730956 l 24.592184057124303 -49.04500578281947 a75.86518120754067,75.86518120754067 0 0,0 1.162325067176421,0.5953880443583008 l -25.43276961188948 48.61442521314867" fill="red" stroke="none" /><path d="M 110.05341064243156 81.56283822128135 l 14.5194691849226 -26.62756071792088 a51.32889670262471,51.32889670262471 0 0,0 0.7720743810889997,0.4296585571688322 l -14.975667655083635 26.373686763191866" fill="red" stroke="none" /><line stroke="#e1ed5e" stroke-width="0.3" x1="143.23703022742887" x2="145.7803849466894" y1="26.81831364943548" y2="22.513508569990506" /><path d="M 143.74570117128098 25.957352633546492 a86.0,86.0 0 0,1 28.547481713284135,27.462654790039103" fill="none" id="id134" stroke="none" /><text fill="#e1ed5e" style="font-size:6.75px; font-family:Arial;" text-anchor="middle"><textPath startOffset="19.985693538727396" xlink:href="#id134">February</textPath></text><line stroke="#e1ed5e" stroke-width="0.3" x1="172.23445277983987" x2="176.4835382374775" y1="55.19839476539836" y2="52.563006222186495" /><path d="M 173.08426987136738 54.67131705675599 a86.0,86.0 0 0,1 12.851231095245387,41.99856678651699" fill="none" id="id135" stroke="none" /><text fill="#e1ed5e" style="font-size:6.75px; font-family:Arial;" text-anchor="middle"><textPath startOffset="22.20632615414155" xlink:href="#id135">March</textPath></text><line stroke="#e1ed5e" stroke-width="0.3" x1="184.98032266829074" x2="189.97916517819016" y1="98.17113171792111" y2="98.06355123074" /><path d="M 185.9800911702706 98.14961562048488 a86.0,86.0 0 0,1 -9.607161424134198,41.387399972396054" fill="none" id="id136" stroke="none" /><text fill="#e1ed5e" style="font-size:6.75px; font-family:Arial;" text-anchor="middle"><textPath startOffset="21.466115282336823" xlink:href="#id136">April</textPath></text><line stroke="#e1ed5e" stroke-width="0.3" x1="174.80103733775053" x2="179.2010983576182" y1="140.37084112569926" y2="142.7455964860345" /><path d="M 175.68104954172406 140.8457921977663 a86.0,86.0 0 0,1 -30.038265399797805,32.042727171017184" fill="none" id="id137" stroke="none" /><text fill="#e1ed5e" style="font-size:6.75px; font-family:Arial;" text-anchor="middle"><textPath startOffset="22.206326154141568" xlink:href="#id137">May</textPath></text><line stroke="#e1ed5e" stroke-width="0.3" x1="143.8653032363475" x2="146.44561519142675" y1="172.8068346515853" y2="177.08958963109032" /><path d="M 144.38136562736335 173.6633856474863 a86.0,86.0 0 0,1 -40.68145358897372,12.25698825130547" fill="none" id="id138" stroke="none" /><text fill="#e1ed5e" style="font-size:6.75px; font-family:Arial;" text-anchor="middle"><textPath startOffset="21.466115282336833" xlink:href="#id138">June</textPath></text><line stroke="#e1ed5e" stroke-width="0.3" x1="102.19456741930631" x2="102.32365962044197" y1="184.97166512339345" y2="189.96999836594603" /><path d="M 102.22038585953345 185.97133177190398 a86.0,86.0 0 0,1 -42.740103519485714,-10.115201625700543" fill="none" id="id139" stroke="none" /><text fill="#e1ed5e" style="font-size:6.75px; font-family:Arial;" text-anchor="middle"><textPath startOffset="22.20632615414155" xlink:href="#id139">July</textPath></text><line stroke="#e1ed5e" stroke-width="0.3" x1="58.666819895761336" x2="56.23545636021788" y1="174.27360380694188" y2="178.64263932499728" /><path d="M 58.180547188652646 175.14741091055294 a86.0,86.0 0 0,1 -31.652253787137756,-30.449443065178592" fill="none" id="id140" stroke="none" /><text fill="#e1ed5e" style="font-size:6.75px; font-family:Arial;" text-anchor="middle"><textPath startOffset="22.20632615414155" xlink:href="#id140">August</textPath></text><line stroke="#e1ed5e" stroke-width="0.3" x1="26.63291911575756" x2="22.317208475507996" y1="142.92168965132927" y2="145.44649492493687" /><path d="M 25.769776987707644 143.4266507060508 a86.0,86.0 0 0,1 -11.730757126820373,-40.83630448921669" fill="none" id="id141" stroke="none" /><text fill="#e1ed5e" style="font-size:6.75px; font-family:Arial;" text-anchor="middle"><textPath startOffset="21.46611528233685" xlink:href="#id141">September</textPath></text><line stroke="#e1ed5e" stroke-width="0.3" x1="15.007084014347285" x2="10.007500721073583" y1="101.09737516637583" y2="101.16192664675087" /><path d="M 14.007167355692545 101.11028546245083 a86.0,86.0 0 0,1 10.666146001902534,-42.60595125391555" fill="none" id="id142" stroke="none" /><text fill="#e1ed5e" style="font-size:6.75px; font-family:Arial;" text-anchor="middle"><textPath startOffset="22.20632615414155" xlink:href="#id142">October</textPath></text><line stroke="#e1ed5e" stroke-width="0.3" x1="26.266209847984243" x2="21.928928074336255" y1="57.711370442889674" y2="55.22380399835377" /><path d="M 25.398753493254645 57.213857153982495 a86.0,86.0 0 0,1 29.58750427330803,-30.492523968695096" fill="none" id="id143" stroke="none" /><text fill="#e1ed5e" style="font-size:6.75px; font-family:Arial;" text-anchor="middle"><textPath startOffset="21.46611528233685" xlink:href="#id143">November</textPath></text><line stroke="#e1ed5e" stroke-width="0.3" x1="56.762969772571076" x2="54.21961505331055" y1="26.818313649435495" y2="22.513508569990535" /><path d="M 56.25429882871897 25.957352633546506 a86.0,86.0 0 0,1 42.265352541879196,-11.944610805530505" fill="none" id="id144" stroke="none" /><text fill="#e1ed5e" style="font-size:6.75px; font-family:Arial;" text-anchor="middle"><textPath startOffset="22.20632615414155" xlink:href="#id144">December</textPath></text></svg>