<?xml version="1.0" encoding="utf-8" ?>
<svg baseProfile="full" height="200mm" version="1.1" viewBox="0,0,200,200" width="200mm" xmlns="http://www.w3.org/2000/svg" xmlns:ev="http://www.w3.org/2001/xml-events" xmlns:xlink="http://www.w3.org/1999/xlink"><defs /><rect fill="#1a1a1a" height="200" width="200" x="0" y="0" /><text alignment-baseline="middle" fill="#e1ed5e" style="dominant-baseline: central; font-size:9.0px; font-family:Arial;" text-anchor="middle" x="100.0" y="100.0">2019</text><line stroke="#e1ed5e" stroke-width="0.3" x1="100.0" x2="100.0" y1="15.0" y2="10.0" /><path d="M 100.0 14.0 a86.0,86.0 0 0,1 42.46469731375804,11.215312516191453" fill="none" id="id49" stroke="none" /><text fill="#e1ed5e" style="font-size:6.75px; font-family:Arial;" text-anchor="middle"><textPath startOffset="22.20632615414155" xlink:href="#id49">January</textPath></text><path d="M 100.0 79.0 l 0.0 -22.451321051898773 a43.45132105189877,43.45132105189877 0 0,0 0.747943064707851,0.006437782091993305 l -0.3864625854353226 22.44799464641534" fill="#ffb711" stroke="none" /><path d="M 101.80526077348638 79.07773832637324 l 2.0859064196038237 -24.1748342281689 a45.264657746417754,45.264657746417754 0 0,0 0.7756958549426516,0.07366166815193557 l -2.5017274016367197 24.13534701550179" fill="#ffd313" stroke="none" /><path d="M 103.2404852339499 79.25152402106235 l 3.7588963983445094 -24.067806515908963 a45.35956922075424,45.35956922075424 0 0,0 0.7704015982459551,0.12712286476619827 l -4.172627202729339 23.99953738820314" fill="#ffd413" stroke="none" /><path d="M 103.95276090670814 79.375362276772 l 4.661446448216563 -24.322403132842354 a45.76506364106683,45.76506364106683 0 0,0 0.7724131346318491,0.1549388083216497 l -5.079425992315538 24.238560368443498" fill="#ffda14" stroke="none" /><path d="M 105.36241919743992 79.69619591428918 l 6.702803064451436 -25.37891858784483 a47.24913479734666,47.24913479734666 0 0,0 0.7845653826756284,0.21445135621427858 l -7.1386663363507745 25.25978069080426" fill="#fff016" stroke="none" /><path d="M 106.74666289553966 80.11325718540242 l 4.961432256887457 -14.624523088295957 a36.44320192187439,36.44320192187439 0 0,0 0.5923200307376962,0.2066488282157034 l -5.212434291688427 14.536953406908045" fill="#ff4606" stroke="none" /><path d="M 107.4271985657038 80.35727306442388 l 7.9296970440796235 -20.97168566866519 a43.42078711812282,43.42078711812282 0 0,0 0.696835059417761,0.27036117707190077 l -8.289515268497052 20.832081787702744" fill="#ffb610" stroke="none" /><path d="M 109.08828744355905 81.06846463323043 l 5.432458140833297 -11.316188452486474 a33.55259823877488,33.55259823877488 0 0,0 0.5185134378541728,0.2544322920759059 l -5.626442845697901 11.221001000275734" fill="#ff1402" stroke="none" /><path d="M 110.05341064243156 81.56283822128135 l 10.33550568331988 -18.9545018228904 a42.589252351202276,42.589252351202276 0 0,0 0.640615184865571,0.35650165679834595 l -10.660244957257486 18.773784768531872" fill="#ffa90f" stroke="none" /><line stroke="#e1ed5e" stroke-width="0.3" x1="143.23703022742887" x2="145.7803849466894" y1="26.81831364943548" y2="22.513508569990506" /><path d="M 143.74570117128098 25.957352633546492 a86.0,86.0 0 0,1 28.547481713284135,27.462654790039103" fill="none" id="id50" stroke="none" /><text fill="#e1ed5e" style="font-size:6.75px; font-family:Arial;" text-anchor="middle"><textPath startOffset="19.985693538727396" xlink:href="#id50">February</textPath></text><path d="M 110.68208982089419 81.91981866633111 l 11.271963241736366 -19.07858319992891 a43.15963655477376,43.15963655477376 0 0,0 0.6363743183627557,0.38340840637271256 l -11.598699626316758 18.881728184097586" fill="#ffb210" stroke="none" /><path d="M 111.2981086023043 82.29822771554956 l 12.446121837532292 -19.50046882604649 a44.133833085554784,44.133833085554784 0 0,0 0.6368574620693241,0.4142298086726983 l -12.779946325385897 19.283340093214264" fill="#ffc112" stroke="none" /><path d="M 113.34407831869373 83.78471172551755 l 21.69218155818245 -26.35963075663162 a55.13767529254314,55.13767529254314 0 0,0 0.7276662446154203,0.6093995533045079 l -22.14270533975699 25.982330045933296" fill="#9fff22" stroke="none" /><path d="M 114.16331599549186 84.49514656593476 l 11.010413803935446 -12.053310985419365 a37.32518048430471,37.32518048430471 0 0,0 0.4706387394370633,0.43740741624398655 l -11.216260427167356 11.861998983100738" fill="#ff5407" stroke="none" /><path d="M 115.19652480421416 85.50635884689758 l 18.176217883799367 -17.335514726059998 a46.11762264579972,46.11762264579972 0 0,0 0.5429420643369852,0.5791727386940279 l -18.471927270106814 17.020072570487915" fill="#ffdf14" stroke="none" /><path d="M 116.60985879189232 87.15038557335679 l 18.091805590428795 -13.996068782491621 a43.87363921386597,43.87363921386597 0 0,0 0.4569628802856809,0.6013095858692147 l -18.330044410938587 13.682574420741373" fill="#ffbd11" stroke="none" /><path d="M 116.82858285166822 87.43820079747576 l 12.799097179122219 -9.553964832029203 a36.97169786254001,36.97169786254001 0 0,0 0.3762968624797545,0.5132684975314655 l -12.9616566541156 9.332233890826245" fill="#ff4f07" stroke="none" /><path d="M 117.2510076193507 88.02491185347247 l 17.73288955231042 -12.309594904088684 a42.58660460973903,42.58660460973903 0 0,0 0.4128376566086669,0.605788319582041 l -17.942151674587823 12.002528561236236" fill="#ffa90f" stroke="none" /><line stroke="#e1ed5e" stroke-width="0.3" x1="172.23445277983987" x2="176.4835382374775" y1="55.19839476539836" y2="52.563006222186495" /><path d="M 173.08426987136738 54.67131705675599 a86.0,86.0 0 0,1 12.851231095245387,41.99856678651699" fill="none" id="id51" stroke="none" /><text fill="#e1ed5e" style="font-size:6.75px; font-family:Arial;" text-anchor="middle"><textPath startOffset="22.20632615414155" xlink:href="#id51">March</textPath></text><path d="M 118.21658344932153 89.55222093294921 l 20.359285551839626 -11.676685587084771 a44.47009787966337,44.47009787966337 0 0,0 0.37512085858856875,0.6672981503188421 l -20.55726405172063 11.324503926831134" fill="#ffc612" stroke="none" /><path d="M 118.73160827565052 90.50648371742162 l 13.890054058076563 -7.03972944691875 a36.57213512727475,36.57213512727475 0 0,0 0.27975939586245824,0.5639778709089841 l -14.00917346689243 6.799591987510817" fill="#ff4806" stroke="none" /><path d="M 119.04729006885535 91.15688171328212 l 22.07482255333447 -10.248716026887049 a45.337912214505494,45.337912214505494 0 0,0 0.3225418589793472,0.7106782317174202 l -22.247966729277167 9.867215786327566" fill="#ffd413" stroke="none" /><path d="M 119.34039704204932 91.81776055985345 l 21.033179402699567 -8.898395916395865 a43.83804032028746,43.83804032028746 0 0,0 0.28803327874324414,0.6974954310714984 l -21.183234368329007 8.535025914871063" fill="#ffbd11" stroke="none" /><path d="M 119.97218684219823 93.5106431181261 l 11.133700128081488 -3.617558463564508 a32.70666510067444,32.70666510067444 0 0,0 0.1693652606632446,0.536934159533541 l -11.194320872512938 3.425374137604548" fill="#ff0600" stroke="none" /><path d="M 120.18372546131832 94.20196356495316 l 21.856248947094354 -6.2784904586405474 a43.74016403803199,43.74016403803199 0 0,0 0.20164888268947168,0.725438320049876 l -21.96108460035019 5.90134083517172" fill="#ffbb11" stroke="none" /><path d="M 120.73433829027371 96.67025291283417 l 22.505616721210703 -3.6141983734043097 a43.7939731921479,43.7939731921479 0 0,0 0.11312214040720547,0.745333566226239 l -22.56449475505721 3.2262656947859885" fill="#ffbc11" stroke="none" /><path d="M 120.98425023603335 99.18683210126433 l 25.652736305875727 -0.9940780082220516 a46.67199000983806,46.67199000983806 0 0,0 0.024198994647152285,0.8030468223636525 l -25.666046994978522 0.5523610384334" fill="#ffe815" stroke="none" /><line stroke="#e1ed5e" stroke-width="0.3" x1="184.98032266829074" x2="189.97916517819016" y1="98.17113171792111" y2="98.06355123074" /><path d="M 185.9800911702706 98.14961562048488 a86.0,86.0 0 0,1 -9.607161424134198,41.387399972396054" fill="none" id="id52" stroke="none" /><text fill="#e1ed5e" style="font-size:6.75px; font-family:Arial;" text-anchor="middle"><textPath startOffset="21.466115282336823" xlink:href="#id52">April</textPath></text><path d="M 120.92983693683757 101.71520430193887 l 13.435231684730544 1.101019910128222 a34.48027059316267,34.48027059316267 0 0,0 -0.05356822612274377,0.5911209114961896 l -13.414288862330725 -1.3321222101729824" fill="#ff2403" stroke="none" /><path d="M 120.81339534386255 102.79330883721812 l 24.007353050786662 3.2219611614090757 a45.222593466240234,45.222593466240234 0 0,0 -0.11018366239002977,0.7706242781277726 l -23.94833533738003 -3.6347309115172575" fill="#ffd213" stroke="none" /><path d="M 120.70491114924044 103.5080841355445 l 23.282433219513482 3.9448000537421195 a44.61425722069421,44.61425722069421 0 0,0 -0.1348063496689327,0.7560655997528662 l -23.21108042750536 -4.344984404228204" fill="#ffc912" stroke="none" /><path d="M 119.9155931802556 106.66101706037122 l 16.98885916827343 5.682134583282395 a38.91390491383612,38.91390491383612 0 0,0 -0.2179348581747807,0.6334207109017425 l -16.888533479155416 -5.973727997273437" fill="#ff6f0a" stroke="none" /><path d="M 119.26925614724726 108.34839909993367 l 20.94418725371656 9.074062469336578 a43.825371616167956,43.825371616167956 0 0,0 -0.3058570916816399,0.6896269978280405 l -20.784889077303646 -9.433237803657306" fill="#ffbd11" stroke="none" /><line stroke="#e1ed5e" stroke-width="0.3" x1="174.80103733775053" x2="179.2010983576182" y1="140.37084112569926" y2="142.7455964860345" /><path d="M 175.68104954172406 140.8457921977663 a86.0,86.0 0 0,1 -30.038265399797805,32.042727171017184" fill="none" id="id53" stroke="none" /><text fill="#e1ed5e" style="font-size:6.75px; font-family:Arial;" text-anchor="middle"><textPath startOffset="22.206326154141568" xlink:href="#id53">May</textPath></text><path d="M 118.48025628344425 109.97397251340804 l 27.810305615881195 15.00949010381257 a52.60218175419477,52.60218175419477 0 0,0 -0.4369076862976639,0.7931143590464346 l -27.547821520132022 -15.48597498125681" fill="#c1ff1e" stroke="none" /><path d="M 117.94076556474637 110.91462005526583 l 25.190561334617534 15.32517689693736 a50.48602087897841,50.48602087897841 0 0,0 -0.45806534190032855,0.7385471823234079 l -24.923031353049243 -15.756520410626042" fill="#dfff1b" stroke="none" /><path d="M 116.27256486870786 113.27417163493432 l 42.39205152220122 34.58086493450011 a75.70760689226958,75.70760689226958 0 0,0 -0.8324375842815329,1.0027246956162241 l -41.79051793802615 -35.30545088723011" fill="#41ffcc" stroke="none" /><path d="M 113.48314897796784 116.09983520530334 l 15.76225879365155 18.82125380768293 a45.54971277166527,45.54971277166527 0 0,0 -0.6054421652752937,0.49823768372881116 l -15.435946499831566 -19.08978661026892" fill="#ffd714" stroke="none" /><path d="M 112.63410532772338 116.77436683061366 l 13.632965099317081 18.100558103080683 a43.6602723073267,43.6602723073267 0 0,0 -0.604206253720347,0.4469773419708481 l -13.319373875178169 -18.3325453937913" fill="#ffba11" stroke="none" /><line stroke="#e1ed5e" stroke-width="0.3" x1="143.8653032363475" x2="146.44561519142675" y1="172.8068346515853" y2="177.08958963109032" /><path d="M 144.38136562736335 173.6633856474863 a86.0,86.0 0 0,1 -40.68145358897372,12.25698825130547" fill="none" id="id54" stroke="none" /><text fill="#e1ed5e" style="font-size:6.75px; font-family:Arial;" text-anchor="middle"><textPath startOffset="21.466115282336833" xlink:href="#id54">June</textPath></text><path d="M 109.89434966115114 118.52300852407294 l 10.806116355150197 20.229908201494016 a43.93515503592508,43.93515503592508 0 0,0 -0.6701347550912216,0.3505828313392342 l -10.45629069753248 -20.412920451777968" fill="#ffbe11" stroke="none" /><path d="M 108.59647513512805 119.15986991738527 l 11.880700769025887 26.479769636246907 a50.02290906769747,50.02290906769747 0 0,0 -0.7886452850376099,0.34571891681195965 l -11.423134809330524 -26.68035310635332" fill="#e6ff1a" stroke="none" /><path d="M 106.91757812671514 119.82793768551818 l 7.821019188237655 22.4174817054443 a44.742616266045985,44.742616266045985 0 0,0 -0.7293691321639378,0.24744161007152551 l -7.43398032313649 -22.548786302413948" fill="#ffcb12" stroke="none" /><path d="M 105.88484417918355 120.15858648285463 l 7.057514148602112 24.175577973978566 a46.184659543730916,46.184659543730916 0 0,0 -0.7650573127125784,0.21621283852351758 l -6.6403256677849285 -24.293479605840606" fill="#ffe015" stroke="none" /><path d="M 103.41894727170886 120.7198165907248 l 3.7210079099229993 22.550392064895842 a43.85532940358171,43.85532940358171 0 0,0 -0.7458833739330604,0.11649164314200144 l -3.332288672381422 -22.611102015384947" fill="#ffbd11" stroke="none" /><line stroke="#e1ed5e" stroke-width="0.3" x1="102.19456741930631" x2="102.32365962044197" y1="184.97166512339345" y2="189.96999836594603" /><path d="M 102.22038585953345 185.97133177190398 a86.0,86.0 0 0,1 -42.740103519485714,-10.115201625700543" fill="none" id="id55" stroke="none" /><text fill="#e1ed5e" style="font-size:6.75px; font-family:Arial;" text-anchor="middle"><textPath startOffset="22.20632615414155" xlink:href="#id55">July</textPath></text><path d="M 98.37488393609728 120.93702456842531 l -1.579935878208476 20.35495004532037 a41.41617468397883,41.41617468397883 0 0,0 -0.7102986023735184,-0.061287552193434916 l 1.9300787983235361 -20.32473824084827" fill="#ff970d" stroke="none" /><path d="M 96.58105272829116 120.7198165907248 l -5.3394804299705045 32.358807084923846 a53.79637856869803,53.79637856869803 0 0,0 -0.9123635980152749,-0.15862610625694576 l 5.895692999457829 -32.26210240014589" fill="#b1ff20" stroke="none" /><path d="M 95.16358092515715 120.4354850818985 l -5.258405160114213 22.21851715932696 a43.832286998617164,43.832286998617164 0 0,0 -0.7327228749074969,-0.18008545559328543 l 5.640081319764921 -22.124710445419645" fill="#ffbd11" stroke="none" /><path d="M 93.42475214034765 119.94407469862007 l -4.673756413655484 14.176461332976736 a35.92702431630532,35.92702431630532 0 0,0 -0.5856622775700754,-0.19868844255877158 l 4.9170884241627855 -14.093909903519842" fill="#ff3d05" stroke="none" /><line stroke="#e1ed5e" stroke-width="0.3" x1="58.666819895761336" x2="56.23545636021788" y1="174.27360380694188" y2="178.64263932499728" /><path d="M 58.180547188652646 175.14741091055294 a86.0,86.0 0 0,1 -31.652253787137756,-30.449443065178592" fill="none" id="id56" stroke="none" /><text fill="#e1ed5e" style="font-size:6.75px; font-family:Arial;" text-anchor="middle"><textPath startOffset="22.20632615414155" xlink:href="#id56">August</textPath></text><path d="M 89.4739219176387 118.17145234162733 l -5.762963525625164 9.948759284611198 a32.49737186929359,32.49737186929359 0 0,0 -0.4816298206125052,-0.2845553874298403 l 5.933361217266052 -9.848085324887608" fill="#ff0200" stroke="none" /><path d="M 87.65650970185807 116.9893568818739 l -13.859171238495243 19.075512725378942 a44.57863043423065,44.57863043423065 0 0,0 -0.616915238206849,-0.45637914486505915 l 14.185471447120657 -18.834123631774116" fill="#ffc812" stroke="none" /><path d="M 85.97065885151581 115.62618273729859 l -15.015387230597666 16.724462129283236 a43.475975778564646,43.475975778564646 0 0,0 -0.5525598820317629,-0.504750351167661 l 15.301046662096283 -16.463519011528998" fill="#ffb711" stroke="none" /><path d="M 84.9287848128048 114.62390073753433 l -17.08117886638173 16.574208590310956 a44.800652551147905,44.800652551147905 0 0,0 -0.5322604431170951,-0.5580729466590644 l 17.36394586087778 -16.277728527069392" fill="#ffcc13" stroke="none" /><path d="M 83.28015986056508 112.70617746262583 l -18.151819283525295 13.794404441822675 a43.79855559473753,43.79855559473753 0 0,0 -0.45099734201861613,-0.6041846405662382 l 18.386577892238996 -13.47990692174713" fill="#ffbc11" stroke="none" /><path d="M 82.44556493220864 111.52570212397912 l -9.519095728056136 6.249945465492043 a32.387493218506044,32.387493218506044 0 0,0 -0.30196731712344754,-0.46865998199021713 l 9.62526790855663 -6.085163883580377" fill="#ff0000" stroke="none" /><line stroke="#e1ed5e" stroke-width="0.3" x1="26.63291911575756" x2="22.317208475507996" y1="142.92168965132927" y2="145.44649492493687" /><path d="M 25.769776987707644 143.4266507060508 a86.0,86.0 0 0,1 -11.730757126820373,-40.83630448921669" fill="none" id="id57" stroke="none" /><text fill="#e1ed5e" style="font-size:6.75px; font-family:Arial;" text-anchor="middle"><textPath startOffset="21.46611528233685" xlink:href="#id57">September</textPath></text><path d="M 81.69416730710424 110.29060199501025 l -13.923512605245893 7.8270859893032485 a36.97271042598558,36.97271042598558 0 0,0 -0.3070910907052264,-0.5574595302670112 l 14.056180105402635 -7.586255940638415" fill="#ff4f07" stroke="none" /><path d="M 81.35079622478065 109.6543875284942 l -20.183481079712404 10.448657774681969 a43.7276782313445,43.7276782313445 0 0,0 -0.34028739732021074,-0.6714193179865342 l 20.360347146818885 -10.09968424499275" fill="#ffbb11" stroke="none" /><path d="M 80.45479744820244 107.68017299344265 l -23.916752252227184 9.397947872457353 a46.696934885465225,46.696934885465225 0 0,0 -0.28753241934000373,-0.7506564151647444 l 24.074978951160695 -8.98486789045945" fill="#ffe815" stroke="none" /><path d="M 79.29508885075956 103.50808413554451 l -22.490866669297713 3.8106829818540198 a43.81140917006923,43.81140917006923 0 0,0 -0.11958062440895366,-0.7446286623431863 l 22.55312904806796 -3.42297508981762" fill="#ffbc11" stroke="none" /><path d="M 79.04373962182676 101.35467743843564 l -21.358024755289115 1.3806487294686969 a42.40260293426307,42.40260293426307 0 0,0 -0.04081482557945311,-0.728776128570167 l 21.3786259317561 -1.0128008845630923" fill="#ffa60f" stroke="none" /><line stroke="#e1ed5e" stroke-width="0.3" x1="15.007084014347285" x2="10.007500721073583" y1="101.09737516637583" y2="101.16192664675087" /><path d="M 14.007167355692545 101.11028546245083 a86.0,86.0 0 0,1 10.666146001902534,-42.60595125391555" fill="none" id="id58" stroke="none" /><text fill="#e1ed5e" style="font-size:6.75px; font-family:Arial;" text-anchor="middle"><textPath startOffset="22.20632615414155" xlink:href="#id58">October</textPath></text><path d="M 79.00175016825051 100.2711162175752 l -17.879852582430637 0.23085343025214242 a38.88134283759781,38.88134283759781 0 0,0 -0.0028803719257244533,-0.6692969957383343 l 17.881177251645862 0.07695304368986734" fill="#ff6e0a" stroke="none" /><path d="M 79.00486145842228 99.54816195383935 l -21.720471323306505 -0.46744799063725084 a42.72550073371224,42.72550073371224 0 0,0 0.02215277650115333,-0.7351428038716922 l 21.709206852349705 0.8412609419339374" fill="#ffac0f" stroke="none" /><path d="M 79.05617556472873 98.46500227214037 l -40.002158440414455 -2.9318056262975896 a61.109452303944664,61.109452303944664 0 0,0 0.08591848203722807,-1.0484231043888725 l 39.94576547455773 3.6199426478942405" fill="#53ff2b" stroke="none" /><path d="M 79.26566170972629 96.67025291283419 l -22.948139936178535 -3.6852635969679253 a44.24216629984325,44.24216629984325 0 0,0 0.1272239078647741,-0.7508827059504131 l 22.881304166793537 4.079732091234166" fill="#ffc312" stroke="none" /><path d="M 79.3925641242962 95.95851677861259 l -22.12035952683309 -4.33819434974706 a43.54174429392128,43.54174429392128 0 0,0 0.15057295846256338,-0.734247220361228 l 22.04240727245553 4.718317226271691" fill="#ffb811" stroke="none" /><path d="M 80.02781315780177 93.51064311812611 l -21.91723838660989 -7.121342438841474 a44.04514822314516,44.04514822314516 0 0,0 0.24049218530901117,-0.7190410236508215 l 21.791408907529103 7.497556565414618" fill="#ffc011" stroke="none" /><path d="M 80.803312248108 91.48605970444005 l -57.59006325567602 -25.54182088667983 a84.0,84.0 0 0,0 0.5975907321465934,-1.3167119646317162 l 57.141870206566075 26.529354860153617" fill="#4dd2ff" stroke="none" /><line stroke="#e1ed5e" stroke-width="0.3" x1="26.266209847984243" x2="21.928928074336255" y1="57.711370442889674" y2="55.22380399835377" /><path d="M 25.398753493254645 57.213857153982495 a86.0,86.0 0 0,1 29.58750427330803,-30.492523968695096" fill="none" id="id59" stroke="none" /><text fill="#e1ed5e" style="font-size:6.75px; font-family:Arial;" text-anchor="middle"><textPath startOffset="21.46611528233685" xlink:href="#id59">November</textPath></text><path d="M 82.15384107792192 88.93136811851018 l -19.265631609016715 -11.94902416680762 a43.67032729876868,43.67032729876868 0 0,0 0.4017096236680334,-0.6354081538680418 l 19.05709438910272 12.278879968389878" fill="#ffba11" stroke="none" /><path d="M 83.17141714833178 87.43820079747576 l -30.426362334082178 -22.71194535350304 a58.968355068732734,58.968355068732734 0 0,0 0.6141808580447368,-0.8081900157159293 l 30.030905535813332 23.232320145099994" fill="#6eff28" stroke="none" /><path d="M 83.84228863543731 86.58626213691792 l -20.311608296307558 -16.862201775792567 a47.39877421984157,47.39877421984157 0 0,0 0.5265538552004358,-0.6232736809218778 l 20.018343827619997 17.20933440634356" fill="#fff216" stroke="none" /><path d="M 84.80347519578584 85.50635884689758 l -15.35008851037815 -14.640102089399122 a42.212208901113335,42.212208901113335 0 0,0 0.5060153089733117,-0.521493255898408 l 15.09580893770172 14.902159540847652" fill="#ffa30f" stroke="none" /><path d="M 85.83668400450813 84.49514656593479 l -12.408474035199543 -13.583794311827132 a39.398089460274086,39.398089460274086 0 0,0 0.5046501511678426,-0.4530798884406106 l 12.17281289643573 13.79537320903702" fill="#ff770a" stroke="none" /><path d="M 86.10567301691215 84.25364557470407 l -25.980715528242442 -29.443783454099872 a60.26746698542425,60.26746698542425 0 0,0 0.7837818558842955,-0.679687901908197 l 25.47003987371137 29.88663634942775" fill="#5dff2a" stroke="none" /><line stroke="#e1ed5e" stroke-width="0.3" x1="56.762969772571076" x2="54.21961505331055" y1="26.818313649435495" y2="22.513508569990535" /><path d="M 56.25429882871897 25.957352633546506 a86.0,86.0 0 0,1 42.265352541879196,-11.944610805530505" fill="none" id="id60" stroke="none" /><text fill="#e1ed5e" style="font-size:6.75px; font-family:Arial;" text-anchor="middle"><textPath startOffset="22.20632615414155" xlink:href="#id60">December</textPath></text><path d="M 89.3179101791058 81.91981866633112 l -7.455054032046278 -12.618198406087991 a35.655946289343824,35.655946289343824 0 0,0 0.5311093574451329,-0.30765282056918447 l 7.236747942135826 12.744655384047224" fill="#ff3805" stroke="none" /><path d="M 90.91171255644093 81.06846463323043 l -10.40471203816261 -21.6737394316382 a45.04181801668989,45.04181801668989 0 0,0 0.7018411551304184,-0.3295238329961795 l 10.030092671732584 21.84962824727439" fill="#ffcf13" stroke="none" /><path d="M 91.56875222667455 80.76684994638697 l -10.12828492938476 -23.104388468917218 a46.226869051339634,46.226869051339634 0 0,0 0.7315209243933659,-0.3131990833060512 l 9.729080247201086 23.275307080186057" fill="#ffe115" stroke="none" /><path d="M 92.91201910852362 80.23233633223022 l -9.040295059600897 -25.21247093237692 a47.784242107638505,47.784242107638505 0 0,0 0.7766486549301881,-0.2709574658090553 l 8.604964400607424 25.364349251358185" fill="#fff817" stroke="none" /><path d="M 94.98787191387505 79.60689891045804 l -6.480284897517305 -26.366665562666142 a48.15133781688253,48.15133781688253 0 0,0 0.8065952421449735,-0.19089503376863523 l 6.025465968409797 26.474306508575648" fill="#fffd18" stroke="none" /><path d="M 96.04723909329186 79.375362276772 l -10.369477930911822 -54.10565697032571 a76.09036384659501,76.09036384659501 0 0,0 1.2884811724240575,-0.23546169849611054 l 9.436601637384872 54.27613415017256" fill="#41ffd0" stroke="none" /><path d="M 96.75951476605007 79.25152402106235 l -1.7981679562449195 -11.513474665880768 a32.65304710711942,32.65304710711942 0 0,0 0.5560829775728799,-0.08195217578556711 l 1.5997159982433908 11.542721325827303" fill="#ff0500" stroke="none" /><path d="M 98.91598698831166 79.02799685794201 l -1.2873376314451523 -24.90565017250861 a45.93889830551288,45.93889830551288 0 0,0 0.7900597272843105,-0.034021633791649956 l 0.8584370717715177 24.924119532824456" fill="#ffdd14" stroke="none" /><path d="M 99.63851952072746 79.00311137660856 l -0.2929995108611111 -17.0191156895654 a38.02163762885863,38.02163762885863 0 0,0 0.6544799901336427,-0.005633315901787258 l 4.169098807685572e-15 17.021637628858628" fill="#ff6008" stroke="none" /></svg>