<?xml version="1.0" encoding="utf-8" ?>
<svg baseProfile="full" height="200mm" version="1.1" viewBox="0,0,200,200" width="200mm" xmlns="http://www.w3.org/2000/svg" xmlns:ev="http://www.w3.org/2001/xml-events" xmlns:xlink="http://www.w3.org/1999/xlink"><defs /><rect fill="#1a1a1a" height="200" width="200" x="0" y="0" /><text alignment-baseline="middle" fill="#e1ed5e" style="dominant-baseline: central; font-size:9.0px; font-family:Arial;" text-anchor="middle" x="100.0" y="100.0">2018</text><line stroke="#e1ed5e" stroke-width="0.3" x1="100.0" x2="100.0" y1="15.0" y2="10.0" /><path d="M 100.0 14.0 a86.0,86.0 0 0,1 42.46469731375804,11.215312516191453" fill="none" id="id37" stroke="none" /><text fill="#e1ed5e" style="font-size:6.75px; font-family:Arial;" text-anchor="middle"><textPath startOffset="22.20632615414155" xlink:href="#id37">January</textPath></text><path d="M 100.0 79.0 l 0.0 -7.645270387791594 a28.645270387791594,28.645270387791594 0 0,0 0.49308124136524145,0.004244105915734229 l -0.13160076209271307 7.644137658484419" fill="#ff5c08" stroke="none" /><path d="M 101.08401301168833 79.027996857942 l 0.37828245843540065 -7.3184923256009835 a28.328262245460408,28.328262245460408 0 0,0 0.4867577194564814,0.029362554915287567 l -0.504202226731494 7.310896501305392" fill="#ff5808" stroke="none" /><path d="M 101.44485096284872 79.0497635885617 l 0.3926640851701344 -5.693601365206553 a26.707125510242825,26.707125510242825 0 0,0 0.45835762132489544,0.0355773730404197 l -0.49061189585737097 5.685998729977669" fill="#ff4106" stroke="none" /><path d="M 102.16513564639614 79.11191278185805 l 0.6749832326922577 -6.511882365766433 a27.546771288963402,27.546771288963402 0 0,0 0.47122464084752275,0.05294757895440172 l -0.7869745770495057 6.49929883334143" fill="#ff4d07" stroke="none" /><path d="M 102.52436894288641 79.15227682838746 l 0.877072998615875 -7.243384580517189 a28.29629201897616,28.29629201897616 0 0,0 0.4830382822211398,0.06271223232382887 l -1.001626009344861 7.227214025029223" fill="#ff5708" stroke="none" /><path d="M 103.2404852339499 79.25152402106235 l 0.7970152251019349 -5.103202162324905 a26.165065883277954,26.165065883277954 0 0,0 0.44439594381035147,0.07332913846008753 l -0.8847403750511615 5.0887267609251925" fill="#ff3905" stroke="none" /><path d="M 103.95276090670814 79.375362276772 l 1.4393710662709012 -7.510321896969167 a28.647007523372288,28.647007523372288 0 0,0 0.4834981778348149,0.09698518595896284 l -1.5684356535728414 7.484432754932996" fill="#ff5c08" stroke="none" /><path d="M 106.74666289553966 80.11325718540242 l 2.888041887967998 -8.512911813301796 a29.989463470514302,29.989463470514302 0 0,0 0.48742588433207634,0.17005332018533775 l -3.034149776363348 8.461937639944251" fill="#ff6e0a" stroke="none" /><path d="M 107.08798089147638 80.2323363322302 l 1.9057600204308391 -5.314972443091899 a26.646313250812323,26.646313250812323 0 0,0 0.43042382893694925,0.15852872869359622 l -1.996966175140365 5.281380446591978" fill="#ff4006" stroke="none" /><path d="M 107.76421540070413 80.48803036053334 l 2.48493468431101 -6.244799714332618 a27.721043360775216,27.721043360775216 0 0,0 0.4418419221281525,0.18023841402603907 l -2.5920604760275503 6.201100414122999" fill="#ff4f07" stroke="none" /><path d="M 108.76106565485865 80.91482961587045 l 3.19107945520834 -6.951471146454852 a28.64891751749534,28.64891751749534 0 0,0 0.4464071444954813,0.20959414000692958 l -3.3102648110034196 6.89551202380792" fill="#ff5c08" stroke="none" /><path d="M 109.41281617654863 81.2277094730956 l 4.270125110888173 -8.516051696360094 a30.526652347898256,30.526652347898256 0 0,0 0.46769667818858834,0.23957240400573038 l -4.416082276665517 8.441286767041863" fill="#ff760a" stroke="none" /><path d="M 110.05341064243156 81.56283822128135 l 2.8351512967660013 -5.199443749467295 a26.922186942289855,26.922186942289855 0 0,0 0.40495572974137,0.22535742516480656 l -2.9242311155794063 5.149870926742309" fill="#ff4406" stroke="none" /><line stroke="#e1ed5e" stroke-width="0.3" x1="143.23703022742887" x2="145.7803849466894" y1="26.81831364943548" y2="22.513508569990506" /><path d="M 143.74570117128098 25.957352633546492 a86.0,86.0 0 0,1 28.547481713284135,27.462654790039103" fill="none" id="id38" stroke="none" /><text fill="#e1ed5e" style="font-size:6.75px; font-family:Arial;" text-anchor="middle"><textPath startOffset="19.985693538727396" xlink:href="#id38">February</textPath></text><path d="M 110.68208982089419 81.91981866633111 l 3.0364633371175516 -5.139425774228047 a26.969405907329357,26.969405907329357 0 0,0 0.3976548152611097,0.23958257680472192 l -3.124480218596299 5.08639658796471" fill="#ff4506" stroke="none" /><path d="M 111.2981086023043 82.29822771554956 l 3.907937177570146 -6.122919902290167 a28.263753927116195,28.263753927116195 0 0,0 0.40784997214453583,0.2652769669678556 l -4.012754175498962 6.054744011162783" fill="#ff5708" stroke="none" /><path d="M 113.34407831869373 83.78471172551755 l 8.368081917153175 -10.168619918921872 a34.16911637231901,34.16911637231901 0 0,0 0.4509387176835733,0.3776482077567209 l -8.541878171795865 10.023070553771332" fill="#ffa60f" stroke="none" /><path d="M 113.89432698308785 84.25364557470407 l 5.441607071777901 -6.166939478227904 a29.224489652966263,29.224489652966263 0 0,0 0.37433650522679063,0.33608301044775063 l -5.546954564600682 6.072357459010855" fill="#ff6409" stroke="none" /><path d="M 114.42810811169701 84.74124197986012 l 4.055267136938632 -4.288735534176283 a26.902410019139705,26.902410019139705 0 0,0 0.3337394570092884,0.3210570932215102 l -4.1284898375603385 4.21829535419247" fill="#ff4406" stroke="none" /><path d="M 115.68641384162765 86.03803664274999 l 4.831736061331284 -4.300570067913689 a27.468429196907415,27.468429196907415 0 0,0 0.3113195068380837,0.35589201333425063 l -4.9050474317472155 4.216762498376491" fill="#ff4c07" stroke="none" /><path d="M 116.38621287248628 86.86637796730983 l 11.67357739666636 -9.356423872327525 a35.96045042485754,35.96045042485754 0 0,0 0.38297180940583053,0.4863353065492492 l -11.832903286666154 9.154096171825238" fill="#ffbe11" stroke="none" /><path d="M 117.45458315368197 88.32363383020206 l 3.850056144820058 -2.5755221379616056 a25.6320887946365,25.6320887946365 0 0,0 0.24216631712668152,0.36883591505997265 l -3.8938190973046645 2.5088681589239585" fill="#ff3204" stroke="none" /><line stroke="#e1ed5e" stroke-width="0.3" x1="172.23445277983987" x2="176.4835382374775" y1="55.19839476539836" y2="52.563006222186495" /><path d="M 173.08426987136738 54.67131705675599 a86.0,86.0 0 0,1 12.851231095245387,41.99856678651699" fill="none" id="id39" stroke="none" /><text fill="#e1ed5e" style="font-size:6.75px; font-family:Arial;" text-anchor="middle"><textPath startOffset="22.20632615414155" xlink:href="#id39">March</textPath></text><path d="M 118.03404312379186 89.2402003453031 l 15.409715760321303 -9.194025609162459 a38.94406438675001,38.94406438675001 0 0,0 0.33851724717170856,0.578635707394356 l -15.56569268196334 8.927410489414209" fill="#ffe315" stroke="none" /><path d="M 118.3937258080291 89.86733742301442 l 5.748584035052231 -3.1667571285206573 a27.563121903415613,27.563121903415613 0 0,0 0.22535070433669488,0.41754063029534016 l -5.80224283860739 3.0673355148928585" fill="#ff4d07" stroke="none" /><path d="M 118.89224826269711 90.83032412892265 l 5.783341511270822 -2.807043734165344 a27.428571657958337,27.428571657958337 0 0,0 0.20250358524717507,0.42652419538348635 l -5.8308032903597535 2.707077123141317" fill="#ff4b07" stroke="none" /><path d="M 119.47837535516314 92.15188598940014 l 6.49108755058016 -2.615351343264623 a27.99816263300681,27.99816263300681 0 0,0 0.17626369959736446,0.4485718894745146 l -6.535144800059225 2.5032304488943242" fill="#ff5307" stroke="none" /><path d="M 119.7369772167798 92.82701384747503 l 5.39421859793032 -1.96041444855859 a26.739409298209583,26.739409298209583 0 0,0 0.15349301961260464,0.4339454360371466 l -5.427164698352734 1.8672713860948287" fill="#ff4106" stroke="none" /><path d="M 119.97218684219823 93.5106431181261 l 5.535532130789415 -1.7986034184235895 a26.820402926582233,26.820402926582233 0 0,0 0.13888436863776057,0.440301402157886 l -5.565671983195381 1.7030518498392844" fill="#ff4306" stroke="none" /><path d="M 120.37134235888165 94.90015583598534 l 4.6828864075902725 -1.1723327061989375 a25.827399826036523,25.827399826036523 0 0,0 0.10425315999034834,0.4321966536526914 l -4.70237236784144 1.0915508208868399" fill="#ff3505" stroke="none" /><path d="M 120.45610955862082 95.25157060432595 l 4.555856120246554 -1.057540343233223 a25.676987980095078,25.676987980095078 0 0,0 0.09623443232927123,0.4314000904562248 l -4.573384939577863 0.9789620832270344" fill="#ff3204" stroke="none" /><path d="M 120.6074358757038 95.95851677861258 l 4.763071720368126 -0.9341227388133415 a25.85380649640452,25.85380649640452 0 0,0 0.08188796301347256,0.43744877281968275 l -4.778445407291458 0.851995888531096" fill="#ff3505" stroke="none" /><path d="M 120.78858239683441 97.02765380044208 l 62.36574719050324 -8.917038598673738 a84.0,84.0 0 0,0 0.19233600376865523,1.4331266317413425 l -62.50999919332973 7.84219362486773" fill="#4dd2ff" stroke="none" /><path d="M 120.94382443527127 98.46500227214037 l 4.645379982420663 -0.3404654073614032 a25.657839829221736,25.657839829221736 0 0,0 0.028491698139086637,0.44075395948758056 l -4.650552271564165 0.2604523836207874" fill="#ff3204" stroke="none" /><line stroke="#e1ed5e" stroke-width="0.3" x1="184.98032266829074" x2="189.97916517819016" y1="98.17113171792111" y2="98.06355123074" /><path d="M 185.9800911702706 98.14961562048488 a86.0,86.0 0 0,1 -9.607161424134198,41.387399972396054" fill="none" id="id40" stroke="none" /><text fill="#e1ed5e" style="font-size:6.75px; font-family:Arial;" text-anchor="middle"><textPath startOffset="21.466115282336823" xlink:href="#id40">April</textPath></text><path d="M 120.99513854157772 99.54816195383933 l 7.009700712894257 -0.1508563264782901 a28.011323820477042,28.011323820477042 0 0,0 0.006225173756834818,0.4821465678490346 l -7.011258893768808 0.030173500568792765" fill="#ff5307" stroke="none" /><path d="M 120.99824983174949 100.27111621757518 l 4.730227704350628 0.06107373013220529 a25.730621960748763,25.730621960748763 0 0,0 -0.009530055461260688,0.44282422965091084 l -4.72847558620436 -0.14248777557323095" fill="#ff3304" stroke="none" /><path d="M 120.92983693683757 101.71520430193887 l 6.989962903816919 0.5728288509461952 a28.013395346707114,28.013395346707114 0 0,0 -0.04352134918267708,0.4802544616553062 l -6.979066958357167 -0.6930647011500719" fill="#ff5307" stroke="none" /><path d="M 120.8583938346157 102.4346265915055 l 4.569630965323504 0.5333749640435134 a25.600653867822686,25.600653867822686 0 0,0 -0.05485670411170766,0.43726190576293955 l -4.559772751964949 -0.6119546240938478" fill="#ff3104" stroke="none" /><path d="M 120.49622156327973 104.57218783832717 l 4.982414034986961 1.111450361030968 a26.104877228795118,26.104877228795118 0 0,0 -0.10160942338733864,0.43773073658697614 l -4.96254404566907 -1.1970497549665091" fill="#ff3905" stroke="none" /><path d="M 120.02730092923936 106.31721596034902 l 3.346426646636516 1.0555640970773765 a24.508958088144926,24.508958088144926 0 0,0 -0.13037335895065794,0.4012479405286828 l -3.327761036669611 -1.1130109375838544" fill="#ff2203" stroke="none" /><path d="M 119.54520255179757 107.68017299344265 l 5.445864798814731 2.1399207116403214 a26.851213896199372,26.851213896199372 0 0,0 -0.17273946673295765,0.42872519017064187 l -5.408222717824382 -2.233345269653777" fill="#ff4306" stroke="none" /><path d="M 119.26925614724726 108.34839909993367 l 5.646416683993185 2.446308233295928 a27.153571754807775,27.153571754807775 0 0,0 -0.18950466771696067,0.4272829979305428 l -5.603470931544951 -2.5431395677191584" fill="#ff4706" stroke="none" /><line stroke="#e1ed5e" stroke-width="0.3" x1="174.80103733775053" x2="179.2010983576182" y1="140.37084112569926" y2="142.7455964860345" /><path d="M 175.68104954172406 140.8457921977663 a86.0,86.0 0 0,1 -30.038265399797805,32.042727171017184" fill="none" id="id41" stroke="none" /><text fill="#e1ed5e" style="font-size:6.75px; font-family:Arial;" text-anchor="middle"><textPath startOffset="22.206326154141568" xlink:href="#id41">May</textPath></text><path d="M 118.48025628344425 109.97397251340804 l 3.8977051146567634 2.1036290342890798 a25.429148933454993,25.429148933454993 0 0,0 -0.21121159340788268,0.3834103925897554 l -3.8609171117973715 -2.1704099452766403" fill="#ff2f04" stroke="none" /><path d="M 116.498646956653 112.99209946851258 l 4.774324511505615 3.759611264572574 a27.07691133733777,27.07691133733777 0 0,0 -0.2915049833452819,0.3636972876634524 l -4.708901616105479 -3.841236385814277" fill="#ff4606" stroke="none" /><path d="M 115.56566222782051 114.09645910891815 l 2.633714947963647 2.385125317839716 a24.553206609377952,24.553206609377952 0 0,0 -0.2863998168662052,0.31083043655746195 l -2.59226872310172 -2.4301070091985126" fill="#ff2203" stroke="none" /><path d="M 115.07121518719521 114.62390073753431 l 7.630601230802089 7.404124589884779 a31.63236267656699,31.63236267656699 0 0,0 -0.382539764445598,0.3875107617332421 l -7.502020841300955 -7.534375845598686" fill="#ff850c" stroke="none" /><path d="M 114.0293411484842 115.62618273729858 l 2.299419708249888 2.5611432618659142 a24.44191600747159,24.44191600747159 0 0,0 -0.31548420206857425,0.27837812760631697 l -2.254993153274726 -2.60034453124452" fill="#ff2103" stroke="none" /><path d="M 112.34349029814194 116.9893568818739 l 3.1197003900783162 4.2938992141906605 a26.307551317272587,26.307551317272587 0 0,0 -0.3686473058993524,0.26302006456614513 l -3.045325756330079 -4.346963540601025" fill="#ff3b05" stroke="none" /><path d="M 111.7513745106137 117.40417183066458 l 2.9544859881567445 4.375690840482407 a26.279740314229116,26.279740314229116 0 0,0 -0.37708336510574275,0.2499102926646577 l -2.8787279243110375 -4.425899154238383" fill="#ff3b05" stroke="none" /><path d="M 111.1453310114006 117.79835938074945 l 3.143174036551569 5.01944186687332 a26.92235930005708,26.92235930005708 0 0,0 -0.39488793577683007,0.24257242284576538 l -3.05630690084243 -5.072802756547464" fill="#ff4406" stroke="none" /><line stroke="#e1ed5e" stroke-width="0.3" x1="143.8653032363475" x2="146.44561519142675" y1="172.8068346515853" y2="177.08958963109032" /><path d="M 144.38136562736335 173.6633856474863 a86.0,86.0 0 0,1 -40.68145358897372,12.25698825130547" fill="none" id="id42" stroke="none" /><text fill="#e1ed5e" style="font-size:6.75px; font-family:Arial;" text-anchor="middle"><textPath startOffset="21.466115282336833" xlink:href="#id42">June</textPath></text><path d="M 109.57404056367764 118.69057910512821 l 2.666285190536617 5.205160134752323 a26.848313324856125,26.848313324856125 0 0,0 -0.4131394064874347,0.2071566750461901 l -2.576291876366422 -5.250284650707815" fill="#ff4306" stroke="none" /><path d="M 108.59647513512805 119.15986991738527 l 2.5205985756897946 5.617923633236182 a27.157473761912676,27.157473761912676 0 0,0 -0.42815609957589534,0.1876910517061584 l -2.4235218014561455 -5.660479238236795" fill="#ff4706" stroke="none" /><path d="M 107.93186726928326 119.44442032107085 l 2.2372640042796355 5.48449692758742 a26.923264030377272,26.923264030377272 0 0,0 -0.43061699771256406,0.1713513903118334 l -2.142525930525205 -5.522195162305323" fill="#ff4406" stroke="none" /><path d="M 106.91757812671514 119.82793768551818 l 2.547170743096952 7.300986247405658 a28.732559665420993,28.732559665420993 0 0,0 -0.46838213446002996,0.15890065039587903 l -2.421118875699695 -7.343749884699659" fill="#ff5d08" stroke="none" /><path d="M 105.88484417918355 120.15858648285463 l 1.6591953314884273 5.683588479720542 a26.920819804287667,26.920819804287667 0 0,0 -0.4459482923325689,0.12602944187027687 l -1.5611158710512527 -5.7113067149293375" fill="#ff4406" stroke="none" /><path d="M 105.18746579009965 120.34920634021253 l 1.8816463227025602 7.381255285201784 a28.617317275068654,28.617317275068654 0 0,0 -0.47838167756543865,0.11757457737719508 l -1.7543113603939104 -7.412551120893009" fill="#ff5c08" stroke="none" /><path d="M 104.48393922423573 120.51570834832081 l 1.1138821869727162 5.096429933484894 a26.21673572201774,26.21673572201774 0 0,0 -0.4417002358047294,0.09256257898383141 l -1.025990489738609 -5.114848493195267" fill="#ff3a05" stroke="none" /><path d="M 103.41894727170886 120.7198165907248 l 0.90561365069173 5.488282577405955 a26.56249779629412,26.56249779629412 0 0,0 -0.45177007551495507,0.07055719467457423 l -0.8110077115682579 -5.5030580794276345" fill="#ff3f05" stroke="none" /><path d="M 101.26447882468166 120.96189622390904 l 0.27921243494249914 4.628643810751902 a25.63705759190442,25.63705759190442 0 0,0 -0.44072779435468007,0.022780592795880735 l -0.19949657217433944 -4.632764210309985" fill="#ff3204" stroke="none" /><line stroke="#e1ed5e" stroke-width="0.3" x1="102.19456741930631" x2="102.32365962044197" y1="184.97166512339345" y2="189.96999836594603" /><path d="M 102.22038585953345 185.97133177190398 a86.0,86.0 0 0,1 -42.740103519485714,-10.115201625700543" fill="none" id="id43" stroke="none" /><text fill="#e1ed5e" style="font-size:6.75px; font-family:Arial;" text-anchor="middle"><textPath startOffset="22.20632615414155" xlink:href="#id43">July</textPath></text><path d="M 100.18074693466247 120.99922214144158 l 0.054776212548390046 6.363913487764098 a27.36414922147548,27.36414922147548 0 0,0 -0.4710462944216866,0.0 l 0.05477621254838566 -6.363913487764098" fill="#ff4a06" stroke="none" /><path d="M 99.09653310690486 120.98055641714683 l -0.4793192666456848 11.130883702039842 a32.14119917009448,32.14119917009448 0 0,0 -0.5525407807572655,-0.02856004701945329 l 0.6708481158164392 -11.120983848258188" fill="#ff8c0c" stroke="none" /><path d="M 98.37488393609728 120.93702456842531 l -0.44202161860459377 5.694742482745835 a26.71187141452817,26.71187141452817 0 0,0 -0.4581158225571239,-0.03952816082107903 l 0.5399817589032594 -5.686290069646092" fill="#ff4106" stroke="none" /><path d="M 95.86986931433489 120.58985236759428 l -1.7167752708539281 8.558603120696826 a29.729089569263053,29.729089569263053 0 0,0 -0.5008764635017058,-0.10496353285742016 l 1.8638431957850208 -8.527783607112864" fill="#ff6b09" stroke="none" /><path d="M 93.42475214034765 119.94407469862007 l -2.3355699782136004 7.084262540911929 a28.459333942900038,28.459333942900038 0 0,0 -0.4639281613857926,-0.15738962090463207 l 2.457167872536619 -7.0430099331091744" fill="#ff5908" stroke="none" /><path d="M 92.40401165467489 119.57807347666478 l -2.50745866690809 6.462781114012538 a27.932163348759868,27.932163348759868 0 0,0 -0.4467535699716435,-0.17777246543461747 l 2.6183333129215915 -6.418661804171854" fill="#ff5207" stroke="none" /><path d="M 91.7346041902142 119.30500536409082 l -2.531429651835345 5.912513342632818 a27.43163665865869,27.43163665865869 0 0,0 -0.4324784646658398,-0.18958584953898616 l 2.632828791158928 -5.868062939799379" fill="#ff4b07" stroke="none" /><path d="M 90.42595943632237 118.69057910512821 l -4.27944894556994 8.354401520606059 a30.38667715676024,30.38667715676024 0 0,0 -0.4634823397762202,-0.24247205464274355 l 4.422622187872656 -8.279500047018598" fill="#ff740a" stroke="none" /><line stroke="#e1ed5e" stroke-width="0.3" x1="58.666819895761336" x2="56.23545636021788" y1="174.27360380694188" y2="178.64263932499728" /><path d="M 58.180547188652646 175.14741091055294 a86.0,86.0 0 0,1 -31.652253787137756,-30.449443065178592" fill="none" id="id44" stroke="none" /><text fill="#e1ed5e" style="font-size:6.75px; font-family:Arial;" text-anchor="middle"><textPath startOffset="22.20632615414155" xlink:href="#id44">August</textPath></text><path d="M 89.7882731507175 118.34994917583269 l -4.4009535419267785 7.908287698199792 a30.050381560779414,30.050381560779414 0 0,0 -0.44982735705329646,-0.25542371310773604 l 4.536429665901282 -7.831360819297423" fill="#ff6f0a" stroke="none" /><path d="M 89.1626897886671 117.98757091392108 l -4.660695710807045 7.7357382017801 a30.031264033080596,30.031264033080596 0 0,0 -0.44048828450064603,-0.2705838814657602 l 4.793163195239999 -7.654365853485961" fill="#ff6f0a" stroke="none" /><path d="M 88.54995079064634 117.60387380957326 l -4.32514383789437 6.649690751402783 a28.932544125800206,28.932544125800206 0 0,0 -0.4151479797583855,-0.27513744365643106 l 4.438966516392717 -6.574255286655034" fill="#ff6008" stroke="none" /><path d="M 87.95078237400918 117.19931262002967 l -3.990332604527178 5.695886658659018 a27.954558154407973,27.954558154407973 0 0,0 -0.39172678699530106,-0.2794866615298774 l 4.087786719371366 -5.626355735284921" fill="#ff5207" stroke="none" /><path d="M 86.51685102203217 116.09983520530335 l -4.107074603323009 4.904138076159792 a27.396767313831347,27.396767313831347 0 0,0 -0.35894269134382195,-0.305898748658596 l 4.190882771243888 -4.8327149372782445" fill="#ff4b06" stroke="none" /><path d="M 84.67929136418377 114.36230785411682 l -4.295670417591542 4.0269508704735815 a26.88804871326478,26.88804871326478 0 0,0 -0.31363448163333457,-0.3403882862505607 l 4.3643513072206055 -3.9524113294216767" fill="#ff4406" stroke="none" /><path d="M 83.72743513129214 113.27417163493432 l -8.011609235993838 6.535384982555115 a31.339107283536073,31.339107283536073 0 0,0 -0.3373909909046929,-0.4209471373900173 l 8.122918138953391 -6.396510011586838" fill="#ff810b" stroke="none" /><path d="M 83.06392112726016 112.41649034213515 l -2.981688414994465 2.185990375117199 a24.69716374052019,24.69716374052019 0 0,0 -0.24840666919077586,-0.3450151372447281 l 3.018874876560848 -2.1343416324213327" fill="#ff2403" stroke="none" /><path d="M 82.24976979558568 111.22182372390057 l -3.819501520748325 2.4147164451055123 a25.518788264265297,25.518788264265297 0 0,0 -0.23153483415090126,-0.3733078749473972 l 3.8605009945671824 -2.348612238792851" fill="#ff3004" stroke="none" /><line stroke="#e1ed5e" stroke-width="0.3" x1="26.63291911575756" x2="22.317208475507996" y1="142.92168965132927" y2="145.44649492493687" /><path d="M 25.769776987707644 143.4266507060508 a86.0,86.0 0 0,1 -11.730757126820373,-40.83630448921669" fill="none" id="id45" stroke="none" /><text fill="#e1ed5e" style="font-size:6.75px; font-family:Arial;" text-anchor="middle"><textPath startOffset="21.46611528233685" xlink:href="#id45">September</textPath></text><path d="M 81.69416730710424 110.29060199501025 l -5.099700898826101 2.8667907723084243 a26.85025115611975,26.85025115611975 0 0,0 -0.22301510541804645,-0.404837195450022 l 5.148292413695663 -2.7785830584605797" fill="#ff4306" stroke="none" /><path d="M 81.02952815118164 109.00673069616217 l -1.45159447901995 0.6891826759376505 a22.60689118870376,22.60689118870376 0 0,0 -0.16387346063146552,-0.3529688553327174 l 1.4632425564912421 -0.664093753326106" fill="#ff0601" stroke="none" /><path d="M 80.58989483394504 108.01547362559985 l -8.068444827691597 3.3318936792300735 a29.72933659719893,29.72933659719893 0 0,0 -0.191255031149702,-0.4746793026026106 l 8.124602473098687 -3.1925150087846577" fill="#ff6b09" stroke="none" /><path d="M 80.32549172779594 107.34259656027581 l -1.1076077563034172 0.41336315952852043 a22.182228422716562,22.182228422716562 0 0,0 -0.13042700224027823,-0.35887909399673695 l 1.11455901954892 -0.39423626852566634" fill="#ff0000" stroke="none" /><path d="M 80.0844068197444 106.66101706037122 l -9.417732372254608 3.1498773565926594 a30.93052921031843,30.93052921031843 0 0,0 -0.16453237109337235,-0.5063785698464838 l 9.47055699436423 -2.987299886768372" fill="#ff7b0b" stroke="none" /><path d="M 79.76711848015287 105.62410040840567 l -8.571278882392358 2.382544128266413 a29.896254166944757,29.896254166944757 0 0,0 -0.13355357683696742,-0.4970025425604281 l 8.6110205355711 -2.234650652530446" fill="#ff6d0a" stroke="none" /><path d="M 79.58551787078972 104.9243191809786 l -3.9912073506238057 0.9627468768270876 a25.105681145012824,25.105681145012824 0 0,0 -0.09772019851053715,-0.42097605760818807 l 4.007188115064898 -0.8939021618703253" fill="#ff2a04" stroke="none" /><path d="M 79.23777060512086 103.15116336523772 l -5.092122865944862 0.7728510614766846 a26.150438238160337,26.150438238160337 0 0,0 -0.06371485660891858,-0.44562155872488346 l 5.10467177357038 -0.6850840307714006" fill="#ff3905" stroke="none" /><path d="M 79.04373962182676 101.35467743843564 l -6.447098817276698 0.4167603930053465 a27.460555114300053,27.460555114300053 0 0,0 -0.02643228692924095,-0.47196623932764 l 6.453317455093471 -0.30572243734226895" fill="#ff4c07" stroke="none" /><line stroke="#e1ed5e" stroke-width="0.3" x1="15.007084014347285" x2="10.007500721073583" y1="101.09737516637583" y2="101.16192664675087" /><path d="M 14.007167355692545 101.11028546245083 a86.0,86.0 0 0,1 10.666146001902534,-42.60595125391555" fill="none" id="id46" stroke="none" /><text fill="#e1ed5e" style="font-size:6.75px; font-family:Arial;" text-anchor="middle"><textPath startOffset="22.20632615414155" xlink:href="#id46">October</textPath></text><path d="M 79.00175016825051 100.2711162175752 l -19.257217724548298 0.24863710415558612 a40.25882278074701,40.25882278074701 0 0,0 -0.0029824171295917126,-0.6930087073294284 l 19.258644438967394 0.08288108137751768" fill="#fff417" stroke="none" /><path d="M 79.01574976396665 99.18683210126434 l -5.818288301375604 -0.22546649125178286 a26.822655227351316,26.822655227351316 0 0,0 0.021849468977945846,-0.4612077568322308 l 5.81354522416416 0.32558535470702277" fill="#ff4306" stroke="none" /><path d="M 79.08570108090925 98.10471618934814 l -6.264251841462286 -0.5676755002354958 a27.289921033433668,27.289921033433668 0 0,0 0.0464225913913931,-0.4674691600414253 l 6.253552124388665 0.6754201909813514" fill="#ff4906" stroke="none" /><path d="M 79.16333360222342 97.38593545837743 l -6.865321199812902 -0.8612890552010557 a27.919136796827303,27.919136796827303 0 0,0 0.06392684762110044,-0.4763292676043267 l 6.849478353133968 0.9793366648700418" fill="#ff5207" stroke="none" /><path d="M 79.46518482838121 95.60439243477599 l -7.455665027390303 -1.595932435928002 a28.62456171466255,28.62456171466255 0 0,0 0.10728160364526296,-0.4809223933332095 l 7.427089036743003 1.724032998811171" fill="#ff5c08" stroke="none" /><path d="M 80.803312248108 91.48605970444005 l -3.364324235564043 -1.4921144755128142 a24.680364543090597,24.680364543090597 0 0,0 0.17558044186845637,-0.3868682295876163 l 3.338141476732235 1.5498047139425013" fill="#ff2403" stroke="none" /><path d="M 81.10775173730289 90.83032412892265 l -5.871609846494028 -2.8498862806120013 a27.526687827824013,27.526687827824013 0 0,0 0.21056603695700474,-0.4244882815915788 l 5.821683796583611 2.9505341507025418" fill="#ff4c07" stroke="none" /><path d="M 81.43458229118936 90.18545643968196 l -2.444902703946694 -1.292489318849882 a23.76551584177471,23.76551584177471 0 0,0 0.19430221847275334,-0.36001250143723396 l 2.422292386255469 1.3343828036195886" fill="#ff1702" stroke="none" /><line stroke="#e1ed5e" stroke-width="0.3" x1="26.266209847984243" x2="21.928928074336255" y1="57.711370442889674" y2="55.22380399835377" /><path d="M 25.398753493254645 57.213857153982495 a86.0,86.0 0 0,1 29.58750427330803,-30.492523968695096" fill="none" id="id47" stroke="none" /><text fill="#e1ed5e" style="font-size:6.75px; font-family:Arial;" text-anchor="middle"><textPath startOffset="21.46611528233685" xlink:href="#id47">November</textPath></text><path d="M 81.78341655067845 89.55222093294921 l -12.037155297450711 -6.903684189376844 a34.87638148227403,34.87638148227403 0 0,0 0.3031593347176872,-0.5181975735747137 l 11.9165362882627 7.10986117530545" fill="#ffb010" stroke="none" /><path d="M 82.7489923806493 88.02491185347247 l -8.066125007183023 -5.599241510598915 a30.819056885746072,30.819056885746072 0 0,0 0.30626420198102833,-0.4331889941637824 l 7.968548185398117 5.7372570050944836" fill="#ff7a0b" stroke="none" /><path d="M 83.6137871275137 86.86637796730984 l -4.536550759858484 -3.6360654823504883 a26.813885532818244,26.813885532818244 0 0,0 0.2917625370257129,-0.3576663720028197 l 4.473289730756378 3.7136160239613902" fill="#ff4306" stroke="none" /><path d="M 84.5562425177563 85.77008943001954 l -6.6131062987967235 -6.093330028644056 a29.992321488756964,29.992321488756964 0 0,0 0.3530991410470679,-0.37666154454337436 l 6.5072398357792 6.206260990065481" fill="#ff6f0a" stroke="none" /><path d="M 85.05521093208273 85.24692304244772 l -2.2564951191012153 -2.2275487459309264 a24.17076388872241,24.17076388872241 0 0,0 0.29484211385235126,-0.29357596811495407 l 2.217817205081551 2.26606056469599" fill="#ff1d02" stroke="none" /><path d="M 85.31137513191541 84.99185889309783 l -6.423435031400831 -6.563161644338015 a30.183442076494906,30.183442076494906 0 0,0 0.37444249649431555,-0.36021338495712657 l 6.309509291294088 6.672758116057455" fill="#ff710a" stroke="none" /><path d="M 85.83668400450813 84.49514656593479 l -3.726652804505979 -4.079638239512896 a26.525521630636167,26.525521630636167 0 0,0 0.33976542223459627,-0.30504475079574145 l 3.655876394675411 4.143181999077917" fill="#ff3e05" stroke="none" /><path d="M 86.37877921826538 84.01681056812374 l -4.469417352628983 -5.244430388572473 a27.890554518510356,27.890554518510356 0 0,0 0.3680789035636273,-0.3082554963519538 l 4.378480912106245 5.320587042318239" fill="#ff5207" stroke="none" /><path d="M 87.51073957382395 83.11751280151077 l -5.742902466304289 -7.763027918478588 a30.65637256947773,30.65637256947773 0 0,0 0.4269333210260578,-0.31018521434799723 l 5.60842382892445 7.860732367643254" fill="#ff780b" stroke="none" /><line stroke="#e1ed5e" stroke-width="0.3" x1="56.762969772571076" x2="54.21961505331055" y1="26.818313649435495" y2="22.513508569990535" /><path d="M 56.25429882871897 25.957352633546506 a86.0,86.0 0 0,1 42.265352541879196,-11.944610805530505" fill="none" id="id48" stroke="none" /><text fill="#e1ed5e" style="font-size:6.75px; font-family:Arial;" text-anchor="middle"><textPath startOffset="22.20632615414155" xlink:href="#id48">December</textPath></text><path d="M 89.3179101791058 81.91981866633112 l -5.097014724927422 -8.627052574189442 a31.02025923935881,31.02025923935881 0 0,0 0.46205897380210853,-0.2676543814692759 l 4.947759018659993 8.713511113048764" fill="#ff7c0b" stroke="none" /><path d="M 90.26544431104013 81.39251694778311 l -3.229843941884127 -6.173806831068202 a27.967623890270627,27.967623890270627 0 0,0 0.4284899844645959,-0.2194892126840548 l 3.1230934698307675 6.228488569064762" fill="#ff5307" stroke="none" /><path d="M 91.56875222667455 80.76684994638697 l -1.5567473095984359 -3.55121275118875 a24.877444285885684,24.877444285885684 0 0,0 0.3936751809936428,-0.16855116743215728 l 1.4953883708144848 3.5774834465836935" fill="#ff2703" stroke="none" /><path d="M 91.90106846888425 80.62456947434976 l -2.860350890426458 -6.842943386237589 a28.41670286607305,28.41670286607305 0 0,0 0.45292994392327374,-0.18476149651991536 l 2.742137076914804 6.891165768941081" fill="#ff5908" stroke="none" /><path d="M 94.28887869178378 79.79150937346287 l -1.5375729332945272 -5.440617793461729 a26.653711391619872,26.653711391619872 0 0,0 0.44258121058474104,-0.12097416345489767 l 1.4436938334860636 5.466278497742922" fill="#ff4006" stroke="none" /><path d="M 95.692805502759 79.44645832069477 l -0.8420182146309035 -4.0180345884626725 a25.105313219213926,25.105313219213926 0 0,0 0.4237222050351503,-0.08499468815850558 l 0.7727296001286169 4.031933232698388" fill="#ff2a04" stroke="none" /><path d="M 96.75951476605007 79.25152402106235 l -0.9257589549619345 -5.9275343205007704 a26.9993910327138,26.9993910327138 0 0,0 0.45980094013500156,-0.0677627062723281 l 0.8235890343982841 5.942591510934068" fill="#ff4506" stroke="none" /><path d="M 97.83486435360386 79.11191278185805 l -0.5949507104413458 -5.739770785668625 a26.770522941629267,26.770522941629267 0 0,0 0.45876374006413073,-0.04356514497971654 l 0.4960618432869788 5.749161475163522" fill="#ff4206" stroke="none" /><path d="M 99.27714615592234 79.0124445844662 l -0.2427554107851867 -7.048233440296125 a28.052412694842385,28.052412694842385 0 0,0 0.48273308411605165,-0.012467571361393955 l 0.12139569147425605 7.051367803799878" fill="#ff5407" stroke="none" /></svg>