<?xml version="1.0" encoding="utf-8" ?>
<svg baseProfile="full" height="200mm" version="1.1" viewBox="0,0,200,200" width="200mm" xmlns="http://www.w3.org/2000/svg" xmlns:ev="http://www.w3.org/2001/xml-events" xmlns:xlink="http://www.w3.org/1999/xlink"><defs /><rect fill="#1a1a1a" height="200" width="200" x="0" y="0" /><text alignment-baseline="middle" fill="#e1ed5e" style="dominant-baseline: central; font-size:9.0px; font-family:Arial;" text-anchor="middle" x="100.0" y="100.0">2017</text><line stroke="#e1ed5e" stroke-width="0.3" x1="100.0" x2="100.0" y1="15.0" y2="10.0" /><path d="M 100.0 14.0 a86.0,86.0 0 0,1 42.46469731375804,11.215312516191453" fill="none" id="id25" stroke="none" /><text fill="#e1ed5e" style="font-size:6.75px; font-family:Arial;" text-anchor="middle"><textPath startOffset="22.20632615414155" xlink:href="#id25">January</textPath></text><path d="M 100.0 79.0 l 0.0 -23.09093286179813 a44.09093286179813,44.09093286179813 0 0,0 0.7589529305931266,0.006532547483606583 l -0.3974724513205983 23.087511690923083" fill="#ffcc13" stroke="none" /><path d="M 101.44485096284872 79.0497635885617 l 0.8695570618834295 -12.608515679551777 a33.63846498295479,33.63846498295479 0 0,0 0.5773158473642025,0.044810820870508444 l -1.086463098609973 12.591679596492803" fill="#ff2603" stroke="none" /><path d="M 101.80526077348638 79.07773832637324 l 2.1024212438699377 -24.36623453989356 a45.45676922121517,45.45676922121517 0 0,0 0.7789880498272813,0.07397430172543976 l -2.521534420787463 24.326434693652946" fill="#ffe015" stroke="none" /><path d="M 106.74666289553966 80.11325718540242 l 7.868133441079496 -23.19243581550946 a45.490745250056385,45.490745250056385 0 0,0 0.739371904877019,0.25795233966367476 l -8.266187350019788 23.053562622673578" fill="#ffe115" stroke="none" /><path d="M 107.4271985657038 80.35727306442388 l 7.653133231879124 -20.240256800127653 a42.63881798065704,42.63881798065704 0 0,0 0.6842856897141106,0.26549221659304045 l -8.000402086592903 20.105521879644066" fill="#ffb610" stroke="none" /><path d="M 109.08828744355905 81.06846463323043 l 11.674170799183658 -24.318110395934447 a47.97511366199163,47.97511366199163 0 0,0 0.7413953738931746,0.36379949012462337 l -12.091037440087264 24.11355574567499" fill="#f9ff18" stroke="none" /><path d="M 110.05341064243156 81.56283822128135 l 10.121561338694695 -18.562144777725234 a42.14235612892261,42.14235612892261 0 0,0 0.6338931014701945,0.35276082466666553 l -10.439578529236925 18.38516855549839" fill="#ffaf10" stroke="none" /><line stroke="#e1ed5e" stroke-width="0.3" x1="143.23703022742887" x2="145.7803849466894" y1="26.81831364943548" y2="22.513508569990506" /><path d="M 143.74570117128098 25.957352633546492 a86.0,86.0 0 0,1 28.547481713284135,27.462654790039103" fill="none" id="id26" stroke="none" /><text fill="#e1ed5e" style="font-size:6.75px; font-family:Arial;" text-anchor="middle"><textPath startOffset="19.985693538727396" xlink:href="#id26">February</textPath></text><path d="M 112.77801427241765 83.33499621200491 l 14.215687577291408 -18.540008038329802 a44.362741092527884,44.362741092527884 0 0,0 0.6019969988219721,0.46986820629871506 l -14.53271713127281 18.292561442807862" fill="#ffd013" stroke="none" /><path d="M 114.94478906791727 85.2469230424477 l 14.537453919356349 -14.350967113985753 a41.42762403129913,41.42762403129913 0 0,0 0.49661016374046957,0.5118004270003574 l -14.782328346799927 14.098602491435281" fill="#ffa40f" stroke="none" /><path d="M 117.65298651832404 88.62581576622439 l 19.477132112804256 -12.549518959110117 a44.17000434710134,44.17000434710134 0 0,0 0.4063059958836263,0.6426785108919311 l -19.690265704933836 12.212392800503979" fill="#ffcd13" stroke="none" /><line stroke="#e1ed5e" stroke-width="0.3" x1="172.23445277983987" x2="176.4835382374775" y1="55.19839476539836" y2="52.563006222186495" /><path d="M 173.08426987136738 54.67131705675599 a86.0,86.0 0 0,1 12.851231095245387,41.99856678651699" fill="none" id="id27" stroke="none" /><text fill="#e1ed5e" style="font-size:6.75px; font-family:Arial;" text-anchor="middle"><textPath startOffset="22.20632615414155" xlink:href="#id27">March</textPath></text><path d="M 118.3937258080291 89.86733742301442 l 18.555929141994543 -10.222016505009051 a42.18518651679517,42.18518651679517 0 0,0 0.3448978503758168,0.6390433358409381 l -18.729135091588827 9.901092185835655" fill="#ffaf10" stroke="none" /><path d="M 119.04729006885535 91.15688171328212 l 41.41562726199888 -19.228104862818594 a66.66151769400983,66.66151769400983 0 0,0 0.47424172815199606,1.0449287848596878 l -41.74047130711423 18.512354069116842" fill="#34ff58" stroke="none" /><path d="M 119.47837535516314 92.15188598940014 l 19.30539750629197 -7.778418779118992 a41.81350935280486,41.81350935280486 0 0,0 0.2632388399296499,0.6699141347881248 l -19.436429896103324 7.444955639435082" fill="#ffa90f" stroke="none" /><path d="M 119.97218684219823 93.5106431181261 l 21.514861059490634 -6.990602119942883 a43.622063663789305,43.622063663789305 0 0,0 0.22588858143577523,0.7161285327727387 l -21.632005124694615 6.619223420743725" fill="#ffc512" stroke="none" /><path d="M 120.37134235888165 94.90015583598534 l 20.10593982500367 -5.033402221227201 a41.726407169775555,41.726407169775555 0 0,0 0.16843003290279718,0.6982512242500939 l -20.18960265816729 4.686565765317701" fill="#ffa80f" stroke="none" /><path d="M 120.83666639777658 97.38593545837742 l 20.765837627634667 -2.6051787163653053 a41.92861602021239,41.92861602021239 0 0,0 0.08367683316453181,0.7168920059728644 l -20.80760481380279 2.2473429720675884" fill="#ffab0f" stroke="none" /><line stroke="#e1ed5e" stroke-width="0.3" x1="184.98032266829074" x2="189.97916517819016" y1="98.17113171792111" y2="98.06355123074" /><path d="M 185.9800911702706 98.14961562048488 a86.0,86.0 0 0,1 -9.607161424134198,41.387399972396054" fill="none" id="id28" stroke="none" /><text fill="#e1ed5e" style="font-size:6.75px; font-family:Arial;" text-anchor="middle"><textPath startOffset="21.466115282336823" xlink:href="#id28">April</textPath></text><path d="M 120.9764740272857 100.99374915477107 l 22.455209484337644 1.0638034502958453 a43.48039391928773,43.48039391928773 0 0,0 -0.041852258378880326,0.7473001881118198 l -22.433570875071236 -1.4501753547430885" fill="#ffc312" stroke="none" /><path d="M 120.81339534386255 102.79330883721812 l 22.792889373023137 3.0589713143643644 a43.997241388326884,43.997241388326884 0 0,0 -0.1071981242040671,0.7497434310087484 l -22.73685719780247 -3.450860217353522" fill="#ffcb12" stroke="none" /><path d="M 120.64145759157962 103.86396538481128 l 22.02897460191274 4.123700806836471 a43.41161820030005,43.41161820030005 0 0,0 -0.14381662799189304,0.7333178877297051 l -21.954728040945184 -4.502282421634121" fill="#ffc212" stroke="none" /><path d="M 120.32669344350535 105.2749913415812 l 19.63873063048138 5.0964577354087375 a41.28924893201853,41.28924893201853 0 0,0 -0.18444875565313706,0.6864024364066419 l -19.548093798486462 -5.433751104990928" fill="#ffa10e" stroke="none" /><path d="M 119.79798401119884 107.00284435728193 l 19.448616577601744 6.8792678476938995 a41.62942105108334,41.62942105108334 0 0,0 -0.2447725489622422,0.6735089291173765 l -19.327319767634275 -7.213024573817408" fill="#ffa70f" stroke="none" /><path d="M 118.97047184881838 109.00673069616215 l 18.583437044943487 8.822975738651165 a41.57155884439011,41.57155884439011 0 0,0 -0.3124731038588929,0.6437871454254808 l -18.42881068446988 -9.14155184004192" fill="#ffa60f" stroke="none" /><line stroke="#e1ed5e" stroke-width="0.3" x1="174.80103733775053" x2="179.2010983576182" y1="140.37084112569926" y2="142.7455964860345" /><path d="M 175.68104954172406 140.8457921977663 a86.0,86.0 0 0,1 -30.038265399797805,32.042727171017184" fill="none" id="id29" stroke="none" /><text fill="#e1ed5e" style="font-size:6.75px; font-family:Arial;" text-anchor="middle"><textPath startOffset="22.206326154141568" xlink:href="#id29">May</textPath></text><path d="M 118.48025628344425 109.97397251340804 l 14.520740675087564 7.8369837596568805 a37.50061284323307,37.50061284323307 0 0,0 -0.3114757876136016,0.5654190287770218 l -14.383688478022457 -8.085773306831708" fill="#ff6609" stroke="none" /><path d="M 118.12598468904814 110.60418214915192 l 17.602439001349392 10.297894025720217 a41.3934420871316,41.3934420871316 0 0,0 -0.36508843310546,0.6119092137321879 l -17.422569692545707 -10.599365333338508" fill="#ffa30f" stroke="none" /><path d="M 117.14729908036423 112.12312394758627 l 19.90968938820109 14.076131236755558 a45.38305153439603,45.38305153439603 0 0,0 -0.4564675032249451,0.6339934382033939 l -19.66444209260054 -14.416758280410082" fill="#ffdf14" stroke="none" /><path d="M 116.0416608686014 113.55231037782055 l 15.640607549658391 13.21349265184499 a41.47498455635053,41.47498455635053 0 0,0 -0.46542337029238934,0.5413925275627445 l -15.410841669795222 -13.480762278569262" fill="#ffa40f" stroke="none" /><path d="M 115.07121518719521 114.62390073753431 l 14.423246183752278 13.995163487773647 a41.0971299325709,41.0971299325709 0 0,0 -0.49700006808034025,0.503458445012649 l -14.180205490616402 -14.24136242676696" fill="#ff9e0e" stroke="none" /><path d="M 114.0293411484842 115.62618273729858 l 14.984222812790042 16.689750528616486 a43.42932691836275,43.42932691836275 0 0,0 -0.5605643413972381,0.4946328555846746 l -14.694716118486216 -16.94520652597345" fill="#ffc212" stroke="none" /><path d="M 112.04921762599082 117.19931262002967 l 13.03886887643133 18.611962118899513 a43.7248154116182,43.7248154116182 0 0,0 -0.6201492972136062,0.4265443414467177 l -12.71656269459484 -18.833647249711326" fill="#ffc612" stroke="none" /><path d="M 111.1453310114006 117.79835938074945 l 13.202447484998638 21.083438868088678 a45.87601282558319,45.87601282558319 0 0,0 -0.6728936273548476,0.4133462248823611 l -12.837574657711482 -21.30757355979942" fill="#ffe615" stroke="none" /><line stroke="#e1ed5e" stroke-width="0.3" x1="143.8653032363475" x2="146.44561519142675" y1="172.8068346515853" y2="177.08958963109032" /><path d="M 144.38136562736335 173.6633856474863 a86.0,86.0 0 0,1 -40.68145358897372,12.25698825130547" fill="none" id="id30" stroke="none" /><text fill="#e1ed5e" style="font-size:6.75px; font-family:Arial;" text-anchor="middle"><textPath startOffset="21.466115282336833" xlink:href="#id30">June</textPath></text><path d="M 110.21172684928248 118.3499491758327 l 10.762280481657983 19.339265803839666 a43.132191102496805,43.132191102496805 0 0,0 -0.6518654061930702,0.35544899430338683 l -10.427792263596263 -19.521655449902823" fill="#ffbe11" stroke="none" /><path d="M 109.57404056367764 118.69057910512821 l 9.361625545108506 18.27589946372939 a41.53408225500162,41.53408225500162 0 0,0 -0.6391226846993606,0.32046938207755027 l -9.045648952726385 -18.434336686716247" fill="#ffa50f" stroke="none" /><path d="M 107.59598834532513 119.57807347666477 l 7.365415659623711 18.983790181699945 a41.36255478818504,41.36255478818504 0 0,0 -0.6659957866342878,0.25182261951094337 l -7.037549652229148 -19.107761051317517" fill="#ffa30f" stroke="none" /><path d="M 104.83641907484287 120.43548508189849 l 4.75534075369056 20.092902109510575 a41.64795343045128,41.64795343045128 0 0,0 -0.6990506858694526,0.15910166019025168 l -4.408769918428246 -20.171780503278512" fill="#ffa70f" stroke="none" /><path d="M 104.13013068566511 120.58985236759428 l 4.058584285640184 20.23317362639634 a41.63621625685159,41.63621625685159 0 0,0 -0.703914532279924,0.13490689544215426 l -3.709702138788556 -20.30003772018696" fill="#ffa70f" stroke="none" /><path d="M 103.06178313531738 120.77559828337769 l 3.0398168270457218 20.626546839741252 a41.84933861958288,41.84933861958288 0 0,0 -0.7135738874958775,0.09889483870685753 l -2.6843143483630136 -20.675816243940712" fill="#ffaa0f" stroke="none" /><path d="M 102.34483914955558 120.86867818915974 l 2.301782234094605 20.48547880734141 a41.61438923226268,41.61438923226268 0 0,0 -0.7125322800042124,0.07385688419115796 l -1.9488173574847896 -20.522065059988325" fill="#ffa60f" stroke="none" /><path d="M 101.62511606390274 120.93702456842531 l 1.5800570199052075 20.356510762574214 a41.41774009563623,41.41774009563623 0 0,0 -0.7112752115650501,0.04905370297965271 l -1.229419047561227 -20.38069281007015" fill="#ffa30f" stroke="none" /><path d="M 101.26447882468166 120.96189622390904 l 1.2400200529029597 20.556430963612144 a41.593797699631644,41.593797699631644 0 0,0 -0.7150408214077614,0.03695944297947661 l -0.8859911630817187 -20.574730213353824" fill="#ffa60f" stroke="none" /><line stroke="#e1ed5e" stroke-width="0.3" x1="102.19456741930631" x2="102.32365962044197" y1="184.97166512339345" y2="189.96999836594603" /><path d="M 102.22038585953345 185.97133177190398 a86.0,86.0 0 0,1 -42.740103519485714,-10.115201625700543" fill="none" id="id31" stroke="none" /><text fill="#e1ed5e" style="font-size:6.75px; font-family:Arial;" text-anchor="middle"><textPath startOffset="22.20632615414155" xlink:href="#id31">July</textPath></text><path d="M 99.45781275523022 120.99299961872073 l -0.45149633531585376 17.481529649713764 a38.48735908691261,38.48735908691261 0 0,0 -0.6621285502805486,-0.022805046055512604 l 0.7523452372710453 -17.47116780523216" fill="#ff750a" stroke="none" /><path d="M 97.65516085044442 120.86867818915974 l -2.2755020341808034 20.25158940181364 a41.37902801428987,41.37902801428987 0 0,0 -0.7071332578627123,-0.08562398972475976 l 2.6237627150949048 -20.20941988336353" fill="#ffa30f" stroke="none" /><path d="M 96.58105272829116 120.7198165907248 l -3.42318252838713 20.745483480154434 a42.02601396955722,42.02601396955722 0 0,0 -0.7127432428660857,-0.12391954876623976 l 3.779774742725266 -20.683485352867187" fill="#ffad10" stroke="none" /><path d="M 96.22490169976321 120.6578951692458 l -3.6671329393552434 20.067092776931677 a41.399413631594605,41.399413631594605 0 0,0 -0.6999110750932437,-0.13413962334401508 l 4.012011629020182 -20.000995955239194" fill="#ffa30f" stroke="none" /><path d="M 92.7421414339146 119.70592522655815 l -7.094910151174382 19.26350143849657 a41.528522541191236,41.528522541191236 0 0,0 -0.6686681028097431,-0.2528330608274965 l 7.425448474744408 -19.13852012756244" fill="#ffa50f" stroke="none" /><line stroke="#e1ed5e" stroke-width="0.3" x1="58.666819895761336" x2="56.23545636021788" y1="174.27360380694188" y2="178.64263932499728" /><path d="M 58.180547188652646 175.14741091055294 a86.0,86.0 0 0,1 -31.652253787137756,-30.449443065178592" fill="none" id="id32" stroke="none" /><text fill="#e1ed5e" style="font-size:6.75px; font-family:Arial;" text-anchor="middle"><textPath startOffset="22.20632615414155" xlink:href="#id32">August</textPath></text><path d="M 89.1626897886671 117.98757091392108 l -10.272652595966857 17.0503624460984 a40.90583459442852,40.90583459442852 0 0,0 -0.5999927571053579,-0.36856455615602807 l 10.564624553004522 -16.871009423113993" fill="#ff9b0e" stroke="none" /><path d="M 88.54995079064634 117.60387380957326 l -11.375537120895643 17.489315227464168 a41.86334086177199,41.86334086177199 0 0,0 -0.6006897046154815,-0.3981043816106922 l 11.674901524251087 -17.290912824762156" fill="#ffaa0f" stroke="none" /><path d="M 87.65650970185807 116.9893568818739 l -12.423171009559223 17.099027972478936 a42.135560923154365,42.135560923154365 0 0,0 -0.5831060611482329,-0.4313679239403591 l 12.71566204112602 -16.882650099798806" fill="#ffae10" stroke="none" /><path d="M 86.51685102203217 116.09983520530335 l -15.667680797892816 18.708320979583828 a45.40240757506922,45.40240757506922 0 0,0 -0.5948461795438527,-0.5069408191195448 l 15.987392454013724 -18.435855770241332" fill="#ffdf14" stroke="none" /><path d="M 84.4343377721795 114.09645910891817 l -15.168877776340455 13.73712612883164 a41.464688790035005,41.464688790035005 0 0,0 -0.4745557620367075,-0.5331684293793233 l 15.403092388025497 -13.47398352971145" fill="#ffa40f" stroke="none" /><path d="M 83.50135304334701 112.99209946851258 l -16.34533595816708 12.871372493314007 a41.80486090909983,41.80486090909983 0 0,0 -0.4403309638209402,-0.5691871279498235 l 16.56447373920609 -12.588107371250931" fill="#ffa90f" stroke="none" /><path d="M 82.6465618267979 111.8261652097733 l -16.896788151687375 11.514963559496337 a41.44739190262493,41.44739190262493 0 0,0 -0.39670462196438333,-0.593019584246822 l 17.09249587906249 -11.222407061043693" fill="#ffa40f" stroke="none" /><path d="M 82.44556493220864 111.52570212397912 l -17.168233020923395 11.27213373885698 a41.53799464620152,41.53799464620152 0 0,0 -0.3872827303236463,-0.6010713978837697 l 17.359720614624084 -10.974940741051762" fill="#ffa50f" stroke="none" /><path d="M 82.05923443525364 110.91462005526583 l -22.817271950180213 13.881339295980718 a47.708041483767005,47.708041483767005 0 0,0 -0.42078293646551196,-0.7052564049054847 l 23.052835762343957 -13.486520797189122" fill="#fdff18" stroke="none" /><line stroke="#e1ed5e" stroke-width="0.3" x1="26.63291911575756" x2="22.317208475507996" y1="142.92168965132927" y2="145.44649492493687" /><path d="M 25.769776987707644 143.4266507060508 a86.0,86.0 0 0,1 -11.730757126820373,-40.83630448921669" fill="none" id="id33" stroke="none" /><text fill="#e1ed5e" style="font-size:6.75px; font-family:Arial;" text-anchor="middle"><textPath startOffset="21.46611528233685" xlink:href="#id33">September</textPath></text><path d="M 81.69416730710424 110.29060199501025 l -37.40498534773021 21.02716785956772 a63.91007710384997,63.91007710384997 0 0,0 -0.5308297676516159,-0.9636102182165337 l 37.76139152483334 -20.380187122953362" fill="#30ff32" stroke="none" /><path d="M 81.18737489456691 109.33194174019688 l -22.1528312854336 10.988840195214108 a45.72857745194492,45.72857745194492 0 0,0 -0.3437193824014809,-0.7081637340652069 l 22.3387039244498 -10.605887505183615" fill="#ffe415" stroke="none" /><path d="M 80.87730276802145 108.67885076344099 l -24.37053072489533 11.06058400765341 a47.7630208758919,47.7630208758919 0 0,0 -0.33333792997752143,-0.7515890334558368 l 24.55730973960413 -10.639446637704879" fill="#fcff18" stroke="none" /><path d="M 80.73074385275274 108.34839909993369 l -19.641350911826997 8.509609038395755 a42.40551591594732,42.40551591594732 0 0,0 -0.28441787184739076,-0.6722798333660959 l 19.784919764866697 -8.1702546793635" fill="#ffb310" stroke="none" /><path d="M 80.45479744820244 107.68017299344265 l -23.210003891845393 9.120235239079456 a45.937581508150004,45.937581508150004 0 0,0 -0.28285676526872533,-0.7384497578015411 l 23.363554936707626 -8.719361914444756" fill="#ffe715" stroke="none" /><path d="M 80.32549172779594 107.34259656027581 l -29.798921190887373 11.121063520823036 a52.806504963213065,52.806504963213065 0 0,0 -0.310491534479239,-0.8543393520790024 l 29.985936986371836 -10.606476371737918" fill="#b7ff1f" stroke="none" /><path d="M 80.0844068197444 106.66101706037122 l -19.35344086598081 6.472998249079986 a41.4072384139944,41.4072384139944 0 0,0 -0.22026235213622883,-0.6778978150291729 l 19.46199546913329 -6.1389015340730095" fill="#ffa30f" stroke="none" /><path d="M 79.97269907076064 106.31721596034903 l -20.270874530102564 6.3940464351259 a42.25540364306703,42.25540364306703 0 0,0 -0.21283287725635316,-0.695550157301629 l 20.377934179865047 -6.044169305272224" fill="#ffb010" stroke="none" /><path d="M 79.76711848015287 105.62410040840567 l -19.74450321736055 5.488346704328629 a41.49310510506585,41.49310510506585 0 0,0 -0.18535942897424976,-0.6897913906132772 l 19.83605072267657 -5.147664380539813" fill="#ffa50f" stroke="none" /><path d="M 79.35854240842038 103.8639653848113 l -30.365208644204383 5.68419718342185 a51.892652745047414,51.892652745047414 0 0,0 -0.15679873491096777,-0.8794105755559525 l 30.45855382145454 -5.160667857132684" fill="#c3ff1e" stroke="none" /><path d="M 79.29508885075956 103.50808413554451 l -16.720066245315543 2.832922040459782 a37.958362613621134,37.958362613621134 0 0,0 -0.10360508344432064,-0.6451489535065702 l 16.766353083121153 -2.544693857259998" fill="#ff6d0a" stroke="none" /><path d="M 79.18660465613746 102.79330883721812 l -33.20002923036886 4.455685077467955 a54.497687538200566,54.497687538200566 0 0,0 -0.1167768423217085,-0.9308263310640421 l 33.271807581937416 -3.883540992116504" fill="#a0ff22" stroke="none" /><path d="M 79.07016306316243 101.71520430193888 l -22.721334822779774 1.8620179101937169 a43.79750352180578,43.79750352180578 0 0,0 -0.05510860785509529,-0.751913170189939 l 22.750019989299204 -1.4706316035070173" fill="#ffc812" stroke="none" /><path d="M 79.0235259727143 100.99374915477108 l -20.905170017858126 0.9903711657435486 a41.92861602021239,41.92861602021239 0 0,0 -0.027948152227806868,-0.7212176241768646 l 20.919120302937134 -0.6303762945526872" fill="#ffab0f" stroke="none" /><path d="M 79.0095281055655 100.63252640178507 l -16.590891598326955 0.4999495493895236 a37.59842262323052,37.59842262323052 0 0,0 -0.013925627347908786,-0.647069183155349 l 16.59703928835987 -0.21429055044404569" fill="#ff6709" stroke="none" /><line stroke="#e1ed5e" stroke-width="0.3" x1="15.007084014347285" x2="10.007500721073583" y1="101.09737516637583" y2="101.16192664675087" /><path d="M 14.007167355692545 101.11028546245083 a86.0,86.0 0 0,1 10.666146001902534,-42.60595125391555" fill="none" id="id34" stroke="none" /><text fill="#e1ed5e" style="font-size:6.75px; font-family:Arial;" text-anchor="middle"><textPath startOffset="22.20632615414155" xlink:href="#id34">October</textPath></text><path d="M 79.00019446554 99.90962569577889 l -24.81380252787835 -0.10678813834048902 a45.81403231236375,45.81403231236375 0 0,0 0.010181607748121494,-0.7885767406174023 l 24.808287913012514 0.5339011370183633" fill="#ffe515" stroke="none" /><path d="M 79.03285615573316 98.82574320788736 l -62.90143153280056 -3.522770376337934 a84.0,84.0 0 0,0 0.09327763598234728,-1.442963742987953 l 62.831473305813795 4.604993183578899" fill="#4dd2ff" stroke="none" /><path d="M 79.12142395522702 97.74499172005258 l -24.71948447162567 -2.669848846013758 a45.86324607535194,45.86324607535194 0 0,0 0.09152916443464457,-0.7841659849572773 l 24.669864954187435 3.094958569295897" fill="#ffe615" stroke="none" /><path d="M 79.26566170972629 96.67025291283419 l -30.78119192760384 -4.943180858996086 a52.17558040339793,52.17558040339793 0 0,0 0.15003743688872057,-0.8855294456495814 l 30.691542629194895 5.4722960929614946" fill="#bfff1e" stroke="none" /><path d="M 79.3925641242962 95.95851677861259 l -26.31970817338117 -5.161761007828454 a47.82108899791143,47.82108899791143 0 0,0 0.1653714834828588,-0.8064100839493771 l 26.226957393983316 5.614046747941233" fill="#fcff18" stroke="none" /><path d="M 79.54389044137918 95.25157060432595 l -30.217710401399845 -7.014367220159065 a52.02114390866511,52.02114390866511 0 0,0 0.20998508077936734,-0.8705237254988919 l 30.092492520359663 7.533476177317354" fill="#c1ff1e" stroke="none" /><path d="M 80.2630227832202 92.82701384747504 l -28.952589783181228 -10.522205265451385 a51.80534464669179,51.80534464669179 0 0,0 0.3118075168777911,-0.8354891242883513 l 28.767177677801808 11.019017526769078" fill="#c4ff1e" stroke="none" /><path d="M 80.52162464483688 92.15188598940014 l -25.507770709356198 -10.277443012217299 a48.500403659409514,48.500403659409514 0 0,0 0.31866685153636176,-0.771677057423238 l 25.327082170933632 10.714994640093849" fill="#f2ff19" stroke="none" /><path d="M 80.803312248108 91.48605970444005 l -25.202323179983743 -11.177505079887549 a48.56979712437612,48.56979712437612 0 0,0 0.3455340550448504,-0.7613384880166806 l 25.006186807975542 11.6096655767463" fill="#f1ff19" stroke="none" /><line stroke="#e1ed5e" stroke-width="0.3" x1="26.266209847984243" x2="21.928928074336255" y1="57.711370442889674" y2="55.22380399835377" /><path d="M 25.398753493254645 57.213857153982495 a86.0,86.0 0 0,1 29.58750427330803,-30.492523968695096" fill="none" id="id35" stroke="none" /><text fill="#e1ed5e" style="font-size:6.75px; font-family:Arial;" text-anchor="middle"><textPath startOffset="21.46611528233685" xlink:href="#id35">November</textPath></text><path d="M 81.78341655067845 89.55222093294921 l -25.069676063607687 -14.378241536003262 a49.90021604766777,49.90021604766777 0 0,0 0.43375246101630976,-0.7414235588029073 l 24.818463928121055 14.807644507160061" fill="#deff1b" stroke="none" /><path d="M 82.54541684631803 88.32363383020206 l -22.18096873813809 -14.838115050184273 a47.686420374504415,47.686420374504415 0 0,0 0.46227564324213344,-0.678332464639518 l 21.92226862922722 15.217725538094207" fill="#fdff18" stroke="none" /><path d="M 82.95767976084542 87.72973835380427 l -15.98758816202984 -11.510867480885878 a40.70033109877072,40.70033109877072 0 0,0 0.41424678280387495,-0.5650321462045879 l 15.787078766712332 11.784362070761969" fill="#ff980e" stroke="none" /><path d="M 83.17141714833178 87.43820079747577 l -12.91899598340868 -9.643464032130877 a37.12131681216927,37.12131681216927 0 0,0 0.3866345293992716,-0.5087657198993334 l 12.7510855137853 9.864414527911235" fill="#ff5f08" stroke="none" /><path d="M 83.6137871275137 86.86637796730984 l -27.120151441251277 -21.736921231920206 a55.75624201260987,55.75624201260987 0 0,0 0.6066850179064261,-0.7437240967092832 l 26.74196793126846 22.20052949823757" fill="#90ff24" stroke="none" /><path d="M 84.07557802195018 86.31012108654704 l -22.643158020868963 -19.465830028314745 a50.86019329892696,50.86019329892696 0 0,0 0.5764352297689646,-0.658965114530921 l 22.304730927522154 19.852710699048608" fill="#d1ff1c" stroke="none" /><path d="M 84.5562425177563 85.77008943001954 l -27.096323402892917 -24.966609275090565 a57.84484116737648,57.84484116737648 0 0,0 0.6810064281906653,-0.7264501757937509 l 26.662549652731794 25.429328867762365" fill="#76ff27" stroke="none" /><path d="M 84.80347519578584 85.50635884689758 l -15.096440158370578 -14.398185714409616 a41.86169353916151,41.86169353916151 0 0,0 0.5018135355102585,-0.5171629589984075 l 14.846362359157206 14.655912868958147" fill="#ffaa0f" stroke="none" /><path d="M 85.31137513191541 84.99185889309783 l -11.703955980585995 -11.958547817996783 a37.73288533131122,37.73288533131122 0 0,0 0.4680975664598767,-0.45030948806118914 l 11.49637517051369 12.15824039282028" fill="#ff6909" stroke="none" /><path d="M 85.83668400450813 84.49514656593479 l -16.64678365276429 -18.223553069553574 a45.68224650352508,45.68224650352508 0 0,0 0.5851439224466952,-0.5253479910594027 l 16.330628742721625 18.507400069382257" fill="#ffe415" stroke="none" /><path d="M 87.51073957382395 83.11751280151077 l -17.33884950380658 -23.437969487050868 a50.15431556033482,50.15431556033482 0 0,0 0.6984697376519202,-0.5074679689288688 l 16.93283444980088 23.732956690796403" fill="#dbff1b" stroke="none" /><path d="M 87.80319425747018 82.90503203632743 l -14.303882259754529 -20.048233459519665 a45.62788485737913,45.62788485737913 0 0,0 0.6432855177586764,-0.4506626148591436 l 13.956665602412192 20.291480917142753" fill="#ffe315" stroke="none" /><path d="M 89.00827224532344 82.1063720568725 l -10.514516960250754 -17.116768053901566 a41.088275573539555,41.088275573539555 0 0,0 0.6058327976795581,-0.36500748189249527 l 10.218322096353548 17.29522214525268" fill="#ff9e0e" stroke="none" /><line stroke="#e1ed5e" stroke-width="0.3" x1="56.76296977257108" x2="54.21961505331056" y1="26.818313649435495" y2="22.513508569990535" /><path d="M 56.25429882871898 25.957352633546506 a86.0,86.0 0 0,1 42.26535254187918,-11.944610805530505" fill="none" id="id36" stroke="none" /><text fill="#e1ed5e" style="font-size:6.75px; font-family:Arial;" text-anchor="middle"><textPath startOffset="22.20632615414155" xlink:href="#id36">December</textPath></text><path d="M 89.3179101791058 81.91981866633112 l -6.844440704684721 -11.584692802918697 a34.45553699775454,34.45553699775454 0 0,0 0.5132287884552188,-0.29729524089935894 l 6.644015183764179 11.700792201208102" fill="#ff3404" stroke="none" /><path d="M 89.94658935756843 81.56283822128135 l -12.41578190879884 -22.769564260676272 a46.93462351814506,46.93462351814506 0 0,0 0.7126351046709357,-0.3806649927986384 l 12.022001757599599 22.979907979976662" fill="#fff617" stroke="none" /><path d="M 90.58718382345135 81.22770947309562 l -4.667750906157467 -9.309049966992777 a31.413755797496986,31.413755797496986 0 0,0 0.4854603032097896,-0.23821326245409402 l 4.5068193359372515 9.3880183895817" fill="#ff0000" stroke="none" /><path d="M 90.91171255644093 81.06846463323043 l -6.76900684395076 -14.10031243619811 a36.64091635588706,36.64091635588706 0 0,0 0.5709383899807046,-0.2680632295439399 l 6.525290242670447 14.214740648382056" fill="#ff5808" stroke="none" /><path d="M 91.56875222667455 80.76684994638697 l -12.637405655268013 -28.828131468882344 a52.47642269513746,52.47642269513746 0 0,0 0.830417504507403,-0.35554143770897706 l 12.139304392970303 29.041392434554105" fill="#bbff1f" stroke="none" /><path d="M 92.23578459929587 80.48803036053334 l -7.388225077492798 -18.567081921569553 a40.98305284179493,40.98305284179493 0 0,0 0.6577132741615571,-0.25518253218589315 l 7.067528638331564 18.691507157645997" fill="#ff9d0e" stroke="none" /><path d="M 92.57280143429618 80.3572730644239 l -4.145695993992729 -10.96413050594053 a32.72172995022079,32.72172995022079 0 0,0 0.5285613871624758,-0.19467361960497978 l 3.9563522810576846 11.033867393351832" fill="#ff1602" stroke="none" /><path d="M 92.91201910852362 80.23233633223022 l -4.688685772239149 -13.07627162213968 a34.89145974355371,34.89145974355371 0 0,0 0.5670991959512528,-0.1978497741827887 l 4.46290457222461 13.155042249494679" fill="#ff3b05" stroke="none" /><path d="M 93.59665428221793 80.00007090966166 l -9.423655573063256 -29.433432386705167 a51.905213579952346,51.905213579952346 0 0,0 0.8532589981130129,-0.26511172416568607 l 8.915611202239514 29.59128424575338" fill="#c3ff1e" stroke="none" /><path d="M 93.94186890950719 79.89281104454417 l -3.5397032409139246 -11.74842221935246 a33.27008246418544,33.27008246418544 0 0,0 0.5497640034390862,-0.16049118812546093 l 3.336949019751417 11.807611736396618" fill="#ff2003" stroke="none" /><path d="M 94.98787191387505 79.60689891045804 l -5.544743793660126 -22.560181774433296 a44.231573029668155,44.231573029668155 0 0,0 0.7409342704868611,-0.17535520319807021 l 5.15558583621073 22.652282889772238" fill="#ffce13" stroke="none" /><path d="M 99.27714615592234 79.0124445844662 l -0.47436020978749077 -13.772716672126581 a34.78088321332501,34.78088321332501 0 0,0 0.5985183236996766,-0.01545796250010841 l 0.2372152508929352 13.778841426769048" fill="#ff3905" stroke="none" /><path d="M 99.63851952072746 79.00311137660856 l -0.29146372926299674 -16.929908562169874 a37.93241728250602,37.93241728250602 0 0,0 0.6529442085355284,-0.005620096944708735 l 4.147246125369665e-15 16.932417282506023" fill="#ff6d0a" stroke="none" /></svg>