<?xml version="1.0" encoding="utf-8" ?>
<svg baseProfile="full" height="200mm" version="1.1" viewBox="0,0,200,200" width="200mm" xmlns="http://www.w3.org/2000/svg" xmlns:ev="http://www.w3.org/2001/xml-events" xmlns:xlink="http://www.w3.org/1999/xlink"><defs /><rect fill="#1a1a1a" height="200" width="200" x="0" y="0" /><text alignment-baseline="middle" fill="#e1ed5e" style="dominant-baseline: central; font-size:9.0px; font-family:Arial;" text-anchor="middle" x="100.0" y="100.0">2022</text><line stroke="#e1ed5e" stroke-width="0.3" x1="100.0" x2="100.0" y1="15.0" y2="10.0" /><path d="M 100.0 14.0 a86.0,86.0 0 0,1 42.46469731375804,11.215312516191453" fill="none" id="id85" stroke="none" /><text fill="#e1ed5e" style="font-size:6.75px; font-family:Arial;" text-anchor="middle"><textPath startOffset="22.20632615414155" xlink:href="#id85">January</textPath></text><path d="M 100.72285384407766 79.0124445844662 l 0.7770867680805081 -22.56217040469323 a43.575548658128795,43.575548658128795 0 0,0 0.7494147086451417,0.032271373789975084 l -1.1653423091149815 22.54545130437906" fill="#f6ff19" stroke="none" /><path d="M 101.80526077348638 79.07773832637324 l 1.899806464141917 -22.01800900778548 a43.09981867048049,43.09981867048049 0 0,0 0.7385972269748898,0.07013870640753458 l -2.278528818207051 21.98204475686277" fill="#fcff18" stroke="none" /><path d="M 103.2404852339499 79.25152402106235 l 3.361757548962927 -21.524969477070574 a42.78590656380471,42.78590656380471 0 0,0 0.726689679056197,0.11991002356171188 l -3.731776434157999 21.463913190569237" fill="#fffe18" stroke="none" /><path d="M 103.95276090670814 79.375362276772 l 3.9059166769919624 -20.38021482740348 a41.751128680115706,41.751128680115706 0 0,0 0.7046667831854042,0.14134952754607777 l -4.256149869644492 20.309961343780195" fill="#fff116" stroke="none" /><path d="M 104.66035177308747 79.52364482259891 l 5.0170050046977 -22.043395306816183 a43.60711427559315,43.60711427559315 0 0,0 0.7304738039081935,0.17287954872301967 l -5.395702495568417 21.953769845952294" fill="#f5ff19" stroke="none" /><path d="M 105.71112130821622 79.79150937346287 l 6.661573884635907 -23.571615124332894 a45.49484856434394,45.49484856434394 0 0,0 0.7517694045246973,0.21946210405516972 l -7.066333506884032 23.45345469135902" fill="#deff1b" stroke="none" /><path d="M 106.40334571778207 80.00007090966166 l 7.185843537475822 -22.44394845099221 a44.56622942720958,44.56622942720958 0 0,0 0.7285881957260245,0.24020407298448973 l -7.5711145554442645 22.316930653748482" fill="#e9ff1a" stroke="none" /><path d="M 107.4271985657038 80.35727306442388 l 21.539048560463034 -56.9643649058947 a81.90048835618572,81.90048835618572 0 0,0 1.3143734938468254,0.5099564955951714 l -22.516405219309526 56.58516570640898" fill="#4ae6ff" stroke="none" /><path d="M 108.76106565485865 80.91482961587045 l 8.965112489204861 -19.529667521036643 a42.4890938716906,42.4890938716906 0 0,0 0.6620646331882803,0.31084822259941575 l -9.299955333692738 19.372454315797224" fill="#fffb17" stroke="none" /><path d="M 110.05341064243156 81.56283822128135 l 7.12991173779602 -13.075695488146893 a35.89326874421819,35.89326874421819 0 0,0 0.5398961409886749,0.30045161792704833 l -7.35393196785673 12.951028472659663" fill="#ffa40f" stroke="none" /><line stroke="#e1ed5e" stroke-width="0.3" x1="143.23703022742887" x2="145.7803849466894" y1="26.81831364943548" y2="22.513508569990506" /><path d="M 143.74570117128098 25.957352633546492 a86.0,86.0 0 0,1 28.547481713284135,27.462654790039103" fill="none" id="id86" stroke="none" /><text fill="#e1ed5e" style="font-size:6.75px; font-family:Arial;" text-anchor="middle"><textPath startOffset="19.985693538727396" xlink:href="#id86">February</textPath></text><path d="M 111.60114157652 82.49532879139004 l 11.7160097300676 -17.677992881044364 a42.20793050482045,42.20793050482045 0 0,0 0.6021570399075775,0.4065791213167027 l -12.01857146438172 17.47370184742899" fill="#fff717" stroke="none" /><path d="M 111.90073688211348 82.69761687909136 l 6.026872855066471 -8.762420696494337 a31.634999429877247,31.634999429877247 0 0,0 0.4460065824036004,0.31245611337670465 l -6.176810577053722 8.657379740353697" fill="#ff6809" stroke="none" /><path d="M 112.77801427241765 83.33499621200491 l 8.547996369059192 -11.148241724665661 a35.04818619883099,35.04818619883099 0 0,0 0.475599622256066,0.3712130490070646 l -8.738628546474688 10.999450286435373" fill="#ff980e" stroke="none" /><path d="M 113.34407831869373 83.78471172551755 l 14.997729326473843 -18.224750985667132 a44.602403128489875,44.602403128489875 0 0,0 0.5886295171700978,0.4929602925512757 l -15.30921638060306 17.963889535722036" fill="#e9ff1a" stroke="none" /><path d="M 114.16331599549186 84.49514656593476 l 11.282616744391726 -12.35129676060362 a37.72877677145959,37.72877677145959 0 0,0 0.47572774491174347,0.44213709221284936 l -11.493552373098316 12.155255082316131" fill="#ffbc11" stroke="none" /><path d="M 114.68862486808459 84.99185889309783 l 15.14344354956077 -15.472853291395447 a42.65024414448439,42.65024414448439 0 0,0 0.5202602697114372,0.5180261067751271 l -15.40753961943953 15.209891333970202" fill="#fffd17" stroke="none" /><path d="M 115.4437574822437 85.77008943001954 l 15.423789227777842 -14.211511778390118 a41.97284771246473,41.97284771246473 0 0,0 0.4849989723278213,0.5355479788054576 l -15.666131840721699 13.943911012315112" fill="#fff417" stroke="none" /><path d="M 116.15771136456269 86.58626213691792 l 16.19391590735415 -13.443793991422277 a42.04705464663071,42.04705464663071 0 0,0 0.45751501859527416,0.5608593156130726 l -16.42292941802583 13.163050506201104" fill="#fff517" stroke="none" /><path d="M 116.82858285166822 87.43820079747576 l 17.093440676244942 -12.759503955139257 a42.330509964216034,42.330509964216034 0 0,0 0.4308386957484496,0.5876634968146205 l -17.31054198450702 12.463378014653143" fill="#fff917" stroke="none" /><path d="M 117.45458315368197 88.32363383020206 l 25.443768505686716 -17.020787904023972 a51.61196786625688,51.61196786625688 0 0,0 0.4876184800220965,0.7426763986546469 l -25.732983621066737 16.58029344139165" fill="#95ff23" stroke="none" /><line stroke="#e1ed5e" stroke-width="0.3" x1="172.23445277983987" x2="176.4835382374775" y1="55.19839476539836" y2="52.563006222186495" /><path d="M 173.08426987136738 54.67131705675599 a86.0,86.0 0 0,1 12.851231095245387,41.99856678651699" fill="none" id="id87" stroke="none" /><text fill="#e1ed5e" style="font-size:6.75px; font-family:Arial;" text-anchor="middle"><textPath startOffset="22.20632615414155" xlink:href="#id87">March</textPath></text><path d="M 117.84615892207809 88.93136811851018 l 26.212136215536148 -16.257419193903097 a51.84444461857127,51.84444461857127 0 0,0 0.46384533764068275,0.7624397751616909 l -26.488097351463054 15.803811645534324" fill="#93ff23" stroke="none" /><path d="M 118.3937258080291 89.86733742301442 l 18.26184954709763 -10.060015106436158 a41.84943770998522,41.84943770998522 0 0,0 0.34215283366980087,0.633957236780477 l -18.432310479985897 9.744176886323222" fill="#fff216" stroke="none" /><path d="M 118.89224826269711 90.83032412892265 l 19.007787627273515 -9.225754878127434 a42.128429746548235,42.128429746548235 0 0,0 0.3110318018340726,0.6551122976614283 l -19.163777622949347 8.897200164825465" fill="#fff617" stroke="none" /><path d="M 119.34039704204932 91.81776055985345 l 33.76616852753784 -14.285274250987147 a57.66364953814614,57.66364953814614 0 0,0 0.37887300434566223,0.9174710319601557 l -34.0070632187697 13.701928648573688" fill="#53ff2b" stroke="none" /><path d="M 119.61058180528143 92.48833698450437 l 58.83174541584429 -22.534989046486903 a84.0,84.0 0 0,0 0.505581645993499,1.354707451882667 l -59.21093165033941 21.518958457574904" fill="#4dd2ff" stroke="none" /><path d="M 119.97218684219823 93.5106431181261 l 38.328041684972575 -12.453535661483462 a61.30048796077829,61.30048796077829 0 0,0 0.3174329480032255,1.0063491915456007 l -38.53673011674401 11.791936303511443" fill="#30ff32" stroke="none" /><path d="M 120.18372546131832 94.20196356495316 l 37.21876718982324 -10.6915727053308 a59.72397652674164,59.72397652674164 0 0,0 0.2753367162939325,0.9905326637683789 l -37.39729067668353 10.049328738143469" fill="#3dff2e" stroke="none" /><path d="M 120.45610955862082 95.25157060432595 l 25.34835173470288 -5.884054255967901 a47.022317924300836,47.022317924300836 0 0,0 0.17623430270557966,0.7900238229550174 l -25.445880424410497 5.44685226346292" fill="#cbff1d" stroke="none" /><path d="M 120.73433829027371 96.67025291283417 l 39.1193406959454 -6.282212092356692 a60.62056290941362,60.62056290941362 0 0,0 0.15658610829656464,1.0317068091007644 l -39.22168269768126 5.607906170863846" fill="#34ff2f" stroke="none" /><path d="M 120.94382443527127 98.46500227214037 l 20.911248216074004 -1.5326101781260784 a41.96733640480721,41.96733640480721 0 0,0 0.046602546765665796,0.7209207716894197 l -20.934531353844086 1.1724303421836233" fill="#fff417" stroke="none" /><line stroke="#e1ed5e" stroke-width="0.3" x1="184.98032266829074" x2="189.97916517819016" y1="98.17113171792111" y2="98.06355123074" /><path d="M 185.9800911702706 98.14961562048488 a86.0,86.0 0 0,1 -9.607161424134198,41.387399972396054" fill="none" id="id88" stroke="none" /><text fill="#e1ed5e" style="font-size:6.75px; font-family:Arial;" text-anchor="middle"><textPath startOffset="21.466115282336823" xlink:href="#id88">April</textPath></text><path d="M 120.99980553446 99.90962569577887 l 32.644031179982434 -0.14048613926555825 a53.64433347512231,53.64433347512231 0 0,0 -0.003974030237621525,0.9234246713970241 l -32.64161285245531 -0.4214480103351506" fill="#7eff26" stroke="none" /><path d="M 120.8583938346157 102.4346265915055 l 20.710838658816545 2.417403704759612 a41.85144308251387,41.85144308251387 0 0,0 -0.08967865593116964,0.7148271233880641 l -20.666158493638527 -2.773548582435071" fill="#fff216" stroke="none" /><path d="M 120.76222939487914 103.15116336523771 l 20.762394557879013 3.1511884326610797 a42.0001670544589,42.0001670544589 0 0,0 -0.1146369472425903,0.7138443799091212 l -20.705075856275133 -3.508112042263406" fill="#fff417" stroke="none" /><path d="M 119.9155931802556 106.66101706037122 l 19.929381128716777 6.665628610682385 a42.014538704173354,42.014538704173354 0 0,0 -0.23529976120482368,0.6838912474379784 l -19.811690536568722 -7.007692561209664" fill="#fff417" stroke="none" /><path d="M 119.54520255179757 107.68017299344265 l 19.095322438763446 7.503395235051303 a41.516634204804,41.516634204804 0 0,0 -0.2670851783762448,0.6628835092337834 l -18.963334646129812 -7.8309781121279" fill="#ffee16" stroke="none" /><path d="M 119.12269723197855 108.67885076344098 l 32.912351323493816 14.937295818963719 a57.1434043225637,57.1434043225637 0 0,0 -0.41422269609898554,0.8921988364162269 l -32.650354010555 -15.501614722658775" fill="#58ff2a" stroke="none" /><line stroke="#e1ed5e" stroke-width="0.3" x1="174.80103733775053" x2="179.2010983576182" y1="140.37084112569926" y2="142.7455964860345" /><path d="M 175.68104954172406 140.8457921977663 a86.0,86.0 0 0,1 -30.038265399797805,32.042727171017184" fill="none" id="id89" stroke="none" /><text fill="#e1ed5e" style="font-size:6.75px; font-family:Arial;" text-anchor="middle"><textPath startOffset="22.206326154141568" xlink:href="#id89">May</textPath></text><path d="M 118.48025628344425 109.97397251340804 l 39.422142121073186 21.276510233653966 a65.79726751864308,65.79726751864308 0 0,0 -0.5465045547086329,0.9920645097747095 l -39.05006115691304 -21.95194526182648" fill="#35ff69" stroke="none" /><path d="M 117.75023020441432 111.22182372390056 l 31.771758796672422 20.086335360646586 a58.58863558649466,58.58863558649466 0 0,0 -0.5462557099623778,0.8478009926099536 l -31.421298223332993 -20.630257953177992" fill="#49ff2c" stroke="none" /><path d="M 117.14729908036423 112.12312394758627 l 17.124967210510857 12.107335337091694 a41.97265054602926,41.97265054602926 0 0,0 -0.4221653315656461,0.5863507219213435 l -16.91402208656961 -12.400319664464169" fill="#fff417" stroke="none" /><path d="M 116.71984013943494 112.70617746262583 l 24.20154452736621 18.391869603410488 a51.3969673654946,51.3969673654946 0 0,0 -0.5413647046148962,0.699786857411329 l -23.881373005533245 -18.80573445493507" fill="#98ff23" stroke="none" /><path d="M 116.0416608686014 113.55231037782055 l 19.490066074574514 16.46559086932582 a46.51427753763187,46.51427753763187 0 0,0 -0.5219732339831725,0.607172794715306 l -19.20375033102056 -16.798640763202652" fill="#d1ff1c" stroke="none" /><path d="M 114.55890576462653 115.13401014063108 l 7.852107297156675 8.162280420086281 a32.32600594482384,32.32600594482384 0 0,0 -0.4043277799511879,0.38231715281141315 l -7.71044368281468 -8.296232209643616" fill="#ff720a" stroke="none" /><path d="M 113.75828350139079 115.86535959552629 l 7.028203722862461 8.10457055653474 a31.7275212176862,31.7275212176862 0 0,0 -0.41568268712474826,0.35425380401101736 l -6.887655559160665 -8.224348750768705" fill="#ff6a09" stroke="none" /><path d="M 113.20401910651253 116.32954008644616 l 12.917791072769575 15.975559066488008 a41.544775824685274,41.544775824685274 0 0,0 -0.5599494054244999,0.444857673011021 l -12.640884174627724 -16.195550653504156" fill="#ffee16" stroke="none" /><path d="M 111.7513745106137 117.40417183066458 l 5.830159269650496 8.634657472408307 a31.418640351567387,31.418640351567387 0 0,0 -0.45082053662460775,0.2987792691822934 l -5.680664034285924 -8.733734762681918" fill="#ff6509" stroke="none" /><line stroke="#e1ed5e" stroke-width="0.3" x1="143.8653032363475" x2="146.44561519142675" y1="172.8068346515853" y2="177.08958963109032" /><path d="M 144.38136562736335 173.6633856474863 a86.0,86.0 0 0,1 -40.68145358897372,12.25698825130547" fill="none" id="id90" stroke="none" /><text fill="#e1ed5e" style="font-size:6.75px; font-family:Arial;" text-anchor="middle"><textPath startOffset="21.466115282336833" xlink:href="#id90">June</textPath></text><path d="M 110.21172684928248 118.3499491758327 l 5.020341448905036 9.021295985723174 a31.324127543072052,31.324127543072052 0 0,0 -0.47340778668038197,0.2581396712760891 l -4.864310850356005 -9.106376308759033" fill="#ff6409" stroke="none" /><path d="M 109.57404056367764 118.69057910512821 l 4.799782000591414 9.370203162682671 a31.527991953034046,31.527991953034046 0 0,0 -0.48514987610630117,0.24326421942591694 l -4.637778216802352 -9.45143522301789" fill="#ff6709" stroke="none" /><path d="M 108.59647513512805 119.15986991738527 l 3.8158389492493376 8.504762329219533 a30.321566883476187,30.321566883476187 0 0,0 -0.4780401860524329,0.2095587692593043 l -3.668878088539151 -8.569185651773292" fill="#ff5507" stroke="none" /><path d="M 106.91757812671514 119.82793768551818 l 3.799556878862766 10.890715745692257 a32.53448403393852,32.53448403393852 0 0,0 -0.5303589813375095,0.17992656183392022 l -3.6115281645880297 -10.9545052944243" fill="#ff750a" stroke="none" /><path d="M 105.18746579009965 120.34920634021253 l 2.5920902406539397 10.168159423853254 a31.49335017449571,31.49335017449571 0 0,0 -0.526458911008978,0.1293907916443388 l -2.416678044901751 -10.211271473811623" fill="#ff6609" stroke="none" /><path d="M 104.48393922423573 120.51570834832081 l 2.1926065234253693 10.031999478067792 a31.268813801726075,31.268813801726075 0 0,0 -0.5268177768583617,0.11039978729397015 l -2.0195972851376296 -10.068255246088304" fill="#ff6309" stroke="none" /><path d="M 103.06178313531738 120.77559828337769 l 1.5007302120917445 10.183140555744941 a31.29313085254153,31.29313085254153 0 0,0 -0.5335797833592575,0.07394929598353417 l -1.3252218375456566 -10.207464417221079" fill="#ff6309" stroke="none" /><path d="M 101.62511606390274 120.93702456842531 l 0.7979312697410251 10.280069817513397 a31.310990726607237,31.310990726607237 0 0,0 -0.5377099644247689,0.037083627343141204 l -0.6208585445373259 -10.292281789372822" fill="#ff6409" stroke="none" /><line stroke="#e1ed5e" stroke-width="0.3" x1="102.19456741930631" x2="102.32365962044197" y1="184.97166512339345" y2="189.96999836594603" /><path d="M 102.22038585953345 185.97133177190398 a86.0,86.0 0 0,1 -42.740103519485714,-10.115201625700543" fill="none" id="id91" stroke="none" /><text fill="#e1ed5e" style="font-size:6.75px; font-family:Arial;" text-anchor="middle"><textPath startOffset="22.20632615414155" xlink:href="#id91">July</textPath></text><path d="M 100.18074693466247 120.99922214144158 l 0.08957850143886356 10.407251743023892 a31.40763725110526,31.40763725110526 0 0,0 -0.5406508722026309,0.0 l 0.0895785014388564 -10.407251743023892" fill="#ff6509" stroke="none" /><path d="M 98.01472825383883 120.90594882070398 l -0.797084557304604 8.39371687679812 a29.431478328225666,29.431478328225666 0 0,0 -0.5039333447875646,-0.052234751646360086 l 0.9414504986977619 -8.378752756695999" fill="#ff4806" stroke="none" /><path d="M 97.2962882734958 120.8252237178851 l -1.3184229198229633 10.155096044799398 a31.240322977065464,31.240322977065464 0 0,0 -0.5326793552464878,-0.07382450485182059 l 1.4930308662562823 -10.130896974454972" fill="#ff6309" stroke="none" /><path d="M 96.58105272829116 120.7198165907248 l -0.843679544103859 5.112943846730062 a26.18208355325868,26.18208355325868 0 0,0 -0.4440369517379906,-0.07720151575712204 l 0.9315654673138996 -5.0976637524519335" fill="#ff1802" stroke="none" /><path d="M 95.86986931433489 120.58985236759428 l -2.1919964453665335 10.92771310046823 a32.145391963616376,32.145391963616376 0 0,0 -0.5415863882107926,-0.11349469339539336 l 2.379774295006713 -10.888362426346296" fill="#ff6f0a" stroke="none" /><path d="M 95.16358092515715 120.4354850818985 l -1.0446631020069497 4.414050334826805 a25.535985158163484,25.535985158163484 0 0,0 -0.42687255764854376,-0.10491488891228344 l 1.1204889443987038 -4.395414187600491" fill="#ff0f01" stroke="none" /><path d="M 94.46302465271185 120.25689768951611 l -1.8664689534315735 6.828433984059416 a28.07892767506361,28.07892767506361 0 0,0 -0.4651325605333051,-0.13145110769028048 l 1.9837326820694925 -6.795294083030614" fill="#ff3505" stroke="none" /><path d="M 93.08242187328487 119.8279376855182 l -3.4501371267359735 9.889169692384572 a31.473734930675853,31.473734930675853 0 0,0 -0.5099950643254237,-0.18286608531182544 l 3.6198517516911237 -9.828316066032789" fill="#ff6609" stroke="none" /><path d="M 92.06813273071674 119.44442032107085 l -3.7510383490629824 9.195409330926315 a30.931054398170815,30.931054398170815 0 0,0 -0.4912566395060244,-0.20534531515561208 l 3.9087664480664692 -9.12947897275073" fill="#ff5e08" stroke="none" /><path d="M 91.40352486487194 119.15986991738527 l -2.8695494334912572 6.395667177879892 a28.009912453195128,28.009912453195128 0 0,0 -0.4381977465060625,-0.20115509317868815 l 2.979215175764739 -6.34532501436713" fill="#ff3404" stroke="none" /><path d="M 90.7491055286396 118.85261126421891 l -5.316332431699498 10.834276512015105 a33.068344462400056,33.068344462400056 0 0,0 -0.5088526805916669,-0.2551492976570288 l 5.5020390199739255 -10.741159373448774" fill="#ff7c0b" stroke="none" /><line stroke="#e1ed5e" stroke-width="0.3" x1="58.666819895761336" x2="56.23545636021788" y1="174.27360380694188" y2="178.64263932499728" /><path d="M 58.180547188652646 175.14741091055294 a86.0,86.0 0 0,1 -31.652253787137756,-30.449443065178592" fill="none" id="id92" stroke="none" /><text fill="#e1ed5e" style="font-size:6.75px; font-family:Arial;" text-anchor="middle"><textPath startOffset="22.20632615414155" xlink:href="#id92">August</textPath></text><path d="M 89.7882731507175 118.34994917583269 l -2.438737981636439 4.382287019295447 a26.015165247782125,26.015165247782125 0 0,0 -0.3894237749708985,-0.22112498276469467 l 2.513810523528545 -4.339658870736119" fill="#ff1602" stroke="none" /><path d="M 89.1626897886671 117.98757091392108 l -5.33217046729663 8.850239822914261 a31.332414374937148,31.332414374937148 0 0,0 -0.4595731116105034,-0.2823073410404963 l 5.483722778839443 -8.757144015045386" fill="#ff6409" stroke="none" /><path d="M 88.24862548938628 117.40417183066458 l -4.655794181769019 6.895384184593112 a29.320020583876644,29.320020583876644 0 0,0 -0.4158460130296573,-0.2860226796481884 l 4.773797079421566 -6.814220715579823" fill="#ff4706" stroke="none" /><path d="M 87.07902340077011 116.55440617244103 l -6.369841811724003 8.16106644847277 a31.352675513256237,31.352675513256237 0 0,0 -0.42257808987100653,-0.3357215918158625 l 6.509377394312367 -8.050210942651777" fill="#ff6409" stroke="none" /><path d="M 85.97065885151581 115.62618273729859 l -6.864651383608797 7.645996758708122 a31.27544184221084,31.27544184221084 0 0,0 -0.39749664372901233,-0.36310375949199364 l 6.995247576804664 -7.526700232629553" fill="#ff6309" stroke="none" /><path d="M 84.9287848128048 114.62390073753433 l -7.2568228925649025 7.041440012143157 a31.111545675052092,31.111545675052092 0 0,0 -0.3696250867809441,-0.38755042574819637 l 7.376954530724804 -6.915482469812461" fill="#ff6108" stroke="none" /><path d="M 83.72743513129214 113.27417163493432 l -7.956378687270193 6.490331250143264 a31.267831394789923,31.267831394789923 0 0,0 -0.3366236479643179,-0.41998975908752867 l 8.06692024728937 -6.352413657477475" fill="#ff6309" stroke="none" /><path d="M 83.06392112726016 112.41649034213515 l -8.877877474427953 6.508713188465507 a32.00818131303532,32.00818131303532 0 0,0 -0.3219416525056439,-0.447148797517687 l 8.988598919309204 -6.354930785496682" fill="#ff6e0a" stroke="none" /><path d="M 82.6465618267979 111.8261652097733 l -8.531439857745386 5.814076509100473 a31.324192544698136,31.324192544698136 0 0,0 -0.29981263938098457,-0.44817921676147726 l 8.630255602537101 -5.666360378133175" fill="#ff6409" stroke="none" /><path d="M 82.05923443525364 110.91462005526583 l -4.988308327574499 3.0347361664978028 a26.83890773785636,26.83890773785636 0 0,0 -0.23671804706770017,-0.3967530628820942 l 5.039807250340431 -2.9484210097295978" fill="#ff2203" stroke="none" /><line stroke="#e1ed5e" stroke-width="0.3" x1="26.63291911575756" x2="22.317208475507996" y1="142.92168965132927" y2="145.44649492493687" /><path d="M 25.769776987707644 143.4266507060508 a86.0,86.0 0 0,1 -11.730757126820373,-40.83630448921669" fill="none" id="id93" stroke="none" /><text fill="#e1ed5e" style="font-size:6.75px; font-family:Arial;" text-anchor="middle"><textPath startOffset="21.46611528233685" xlink:href="#id93">September</textPath></text><path d="M 81.35079622478065 109.6543875284942 l -9.73222704157818 5.038214634103391 a31.959007705450304,31.959007705450304 0 0,0 -0.24870397864455432,-0.4907165444182804 l 9.817509690009002 -4.869943877982426" fill="#ff6d0a" stroke="none" /><path d="M 80.87730276802145 108.67885076344099 l -9.343826011418333 4.240702581278458 a31.261122887604436,31.261122887604436 0 0,0 -0.21817125049949837,-0.49191857434834024 l 9.415438346649111 -4.079235670437422" fill="#ff6309" stroke="none" /><path d="M 80.45479744820244 107.68017299344265 l -9.247796933302608 3.6338677006680786 a30.936133180747923,30.936133180747923 0 0,0 -0.19048661845370274,-0.49730045214910856 l 9.30897783134982 -3.474143681685812" fill="#ff5e08" stroke="none" /><path d="M 79.97269907076064 106.31721596034903 l -6.985281048817232 2.2033687457448012 a28.324546754625175,28.324546754625175 0 0,0 -0.14266565369227216,-0.4662396108458263 l 7.022173475015634 -2.0828021623469275" fill="#ff3805" stroke="none" /><path d="M 79.76711848015287 105.62410040840567 l -5.001249301074299 1.3901889461033665 a26.19086889425693,26.19086889425693 0 0,0 -0.11700075205955303,-0.43540332376170676 l 5.0244381294756275 -1.303894689166121" fill="#ff1902" stroke="none" /><path d="M 79.50377843672027 104.57218783832718 l -7.91726431404623 1.7661411152169193 a29.111863451595422,29.111863451595422 0 0,0 -0.10489414917084704,-0.49003054386584005 l 7.946492501941519 -1.6295967519349155" fill="#ff4406" stroke="none" /><path d="M 79.35854240842038 103.8639653848113 l -9.72854531928924 1.8211292585091556 a30.897530288191227,30.897530288191227 0 0,0 -0.09335991522468597,-0.5236119846771363 l 9.758451676853117 -1.6533985230988058" fill="#ff5e08" stroke="none" /><path d="M 79.18660465613746 102.79330883721812 l -6.886857312287764 0.9242662753122741 a27.948602146294682,27.948602146294682 0 0,0 -0.05988785310683628,-0.47736511344574895 l 6.901746674641448 -0.8055834075791166" fill="#ff3304" stroke="none" /><path d="M 79.04373962182676 101.35467743843564 l -10.778481227184091 0.6967543385878276 a31.80097792670186,31.80097792670186 0 0,0 -0.030610181392557296,-0.5465653515209112 l 10.78887775946418 -0.5111172707314787" fill="#ff6b09" stroke="none" /><line stroke="#e1ed5e" stroke-width="0.3" x1="15.007084014347285" x2="10.007500721073583" y1="101.09737516637583" y2="101.16192664675087" /><path d="M 14.007167355692545 101.11028546245083 a86.0,86.0 0 0,1 10.666146001902534,-42.60595125391555" fill="none" id="id94" stroke="none" /><text fill="#e1ed5e" style="font-size:6.75px; font-family:Arial;" text-anchor="middle"><textPath startOffset="22.20632615414155" xlink:href="#id94">October</textPath></text><path d="M 79.00175016825051 100.2711162175752 l -3.570466570572693 0.046099622556578033 a24.57076416286164,24.57076416286164 0 0,0 -0.0018202287812926704,-0.42295706467463273 l 3.570731096643488 0.015366920321730074" fill="#ff0000" stroke="none" /><path d="M 79.00019446554 99.90962569577889 l -7.147546012229605 -0.03076002283372115 a28.147612201004197,28.147612201004197 0 0,0 0.006255462180732833,-0.4844924396589377 l 7.145957542931156 0.1537887205531308" fill="#ff3605" stroke="none" /><path d="M 79.08570108090925 98.10471618934814 l -13.223124552590482 -1.1982985414768723 a34.277309303011165,34.277309303011165 0 0,0 0.05830876248489722,-0.5871612808526565 l 13.200538664423357 1.4257353530339592" fill="#ff8d0d" stroke="none" /><path d="M 79.21141760316559 97.0276538004421 l -9.791962270390208 -1.4000522635463926 a30.891545452830247,30.891545452830247 0 0,0 0.0797944896841887,-0.5257459887819792 l 9.766411887266717 1.5683973647204636" fill="#ff5e08" stroke="none" /><path d="M 79.3925641242962 95.95851677861259 l -7.736570418328453 -1.5172785069112225 a28.883949258163046,28.883949258163046 0 0,0 0.09988441580397003,-0.4870718846884079 l 7.709306706609489 1.6502260477630328" fill="#ff4006" stroke="none" /><path d="M 79.62865764111835 94.90015583598534 l -10.056404038218943 -2.5175608235224702 a31.36674368739005,31.36674368739005 0 0,0 0.13562930400470943,-0.5226350350052567 l 10.011578402343927 2.6902922840765906" fill="#ff6409" stroke="none" /><path d="M 79.91906864156998 93.8553929516997 l -9.643204293530282 -2.950744664806152 a31.08455666470484,31.08455666470484 0 0,0 0.16096547984681822,-0.5103045588983658 l 9.590983329915261 3.1162993901309326" fill="#ff6008" stroke="none" /><path d="M 80.52162464483688 92.15188598940014 l -6.5024198631200125 -2.6199172928982493 a28.010380210653697,28.010380210653697 0 0,0 0.18403928624486526,-0.4456657295071779 l 6.456358889988947 2.7314575928587383" fill="#ff3404" stroke="none" /><path d="M 81.10775173730289 90.83032412892265 l -9.86562543436568 -4.788450069080073 a31.966303811005602,31.966303811005602 0 0,0 0.24452698238701007,-0.492951475253489 l 9.781738439025258 4.957561132832525" fill="#ff6d0a" stroke="none" /><path d="M 81.6062741919709 89.86733742301443 l -5.418333080977332 -2.9848297953477383 a27.18607648543153,27.18607648543153 0 0,0 0.22932408155398706,-0.4079419524158891 l 5.366151358130914 3.077655257698412" fill="#ff2703" stroke="none" /><line stroke="#e1ed5e" stroke-width="0.3" x1="26.266209847984243" x2="21.928928074336255" y1="57.711370442889674" y2="55.22380399835377" /><path d="M 25.398753493254645 57.213857153982495 a86.0,86.0 0 0,1 29.58750427330803,-30.492523968695096" fill="none" id="id95" stroke="none" /><text fill="#e1ed5e" style="font-size:6.75px; font-family:Arial;" text-anchor="middle"><textPath startOffset="21.46611528233685" xlink:href="#id95">November</textPath></text><path d="M 82.15384107792192 88.93136811851018 l -8.873095416760322 -5.503314592584506 a31.441182585315065,31.441182585315065 0 0,0 0.28921756270832805,-0.45747272845666004 l 8.77705025780603 5.655234968755382" fill="#ff6509" stroke="none" /><path d="M 82.54541684631803 88.32363383020206 l -8.738557224806907 -5.845719319344213 a31.513553953434545,31.513553953434545 0 0,0 0.30549469451178174,-0.44827576813068437 l 8.636638064626384 5.995273110745313" fill="#ff6609" stroke="none" /><path d="M 83.39014120810768 87.1503855733568 l -7.854318649489273 -6.076208563506517 a30.930288613879505,30.930288613879505 0 0,0 0.32940156354975764,-0.41830653445567734 l 7.748563005345545 6.2105074919152425" fill="#ff5e08" stroke="none" /><path d="M 84.31358615837235 86.03803664274999 l -7.3992081734959125 -6.585792931005279 a30.905601956711557,30.905601956711557 0 0,0 0.3571162312088221,-0.39433666200273415 l 7.284748301671046 6.712182380277569" fill="#ff5e08" stroke="none" /><path d="M 85.05521093208273 85.24692304244772 l -7.466440924102955 -7.370661241969591 a31.49163415379092,31.49163415379092 0 0,0 0.384144250687122,-0.38249461319403066 l 7.338460873248519 7.4980917058137315" fill="#ff6609" stroke="none" /><path d="M 85.57189188830299 84.74124197986013 l -7.208547743035831 -7.62355568977448 a31.491985604199037,31.491985604199037 0 0,0 0.3970871196017995,-0.36904920155221926 l 7.076252739639176 7.7465094774013465" fill="#ff6609" stroke="none" /><path d="M 86.37877921826538 84.01681056812374 l -6.8157106054153545 -7.997579326023441 a31.507863062145837,31.507863062145837 0 0,0 0.41581746543800785,-0.34823516903420476 l 6.677035603018236 8.113715652451457" fill="#ff6609" stroke="none" /><path d="M 87.22198572758235 83.33499621200491 l -6.272614052336973 -8.180702784819223 a31.308714037314463,31.308714037314463 0 0,0 0.4305005523406304,-0.3242440908105277 l 6.130867346237952 8.287463465135605" fill="#ff6409" stroke="none" /><path d="M 87.80319425747018 82.90503203632743 l -5.99172133971764 -8.397959802914837 a31.316319763568846,31.316319763568846 0 0,0 0.44151367165873934,-0.3093085422769183 l 5.84627652847524 8.499853187955699" fill="#ff6409" stroke="none" /><path d="M 88.39885842347998 82.49532879139004 l -3.2774747973414446 -4.945299421057239 a26.9327756919605,26.9327756919605 0 0,0 0.3886437677056878,-0.2527847173454923 l 3.1918640038514696 5.000983062562266" fill="#ff2403" stroke="none" /><line stroke="#e1ed5e" stroke-width="0.3" x1="56.762969772571076" x2="54.21961505331055" y1="26.818313649435495" y2="22.513508569990535" /><path d="M 56.25429882871897 25.957352633546506 a86.0,86.0 0 0,1 42.265352541879196,-11.944610805530505" fill="none" id="id96" stroke="none" /><text fill="#e1ed5e" style="font-size:6.75px; font-family:Arial;" text-anchor="middle"><textPath startOffset="22.20632615414155" xlink:href="#id96">December</textPath></text><path d="M 89.3179101791058 81.91981866633112 l -5.037401261600892 -8.526152633733645 a30.90306468746425,30.90306468746425 0 0,0 0.4603133148130666,-0.26664318310833157 l 4.889891214322505 8.611599974232025" fill="#ff5e08" stroke="none" /><path d="M 90.26544431104013 81.39251694778311 l -5.709826143329023 -10.914262200337973 a33.317598546988364,33.317598546988364 0 0,0 0.5104565672010167,-0.26147567996099513 l 5.521109088539243 11.010930405611473" fill="#ff800b" stroke="none" /><path d="M 90.91171255644093 81.06846463323043 l -4.509632458896054 -9.39387832052209 a31.420255986064056,31.420255986064056 0 0,0 0.4895901126278126,-0.22986912256544556 l 4.347264134968634 9.470112425727544" fill="#ff6509" stroke="none" /><path d="M 91.90106846888425 80.62456947434976 l -3.978316816503292 -9.517502499069323 a31.315515426398417,31.315515426398417 0 0,0 0.4991337212080693,-0.20360917738214118 l 3.8138992257068423 9.584572562635042" fill="#ff6409" stroke="none" /><path d="M 95.33964822691252 79.52364482259891 l -1.5300356558208958 -6.722572682945914 a27.894490016351746,27.894490016351746 0 0,0 0.4691020050143614,-0.10252752889342473 l 1.4140909266530135 6.747913709935207" fill="#ff3204" stroke="none" /><path d="M 96.04723909329186 79.375362276772 l -1.9012745710287842 -9.920432873464913 a31.10098180333793,31.10098180333793 0 0,0 0.526650517512243,-0.09624201580997276 l 1.730228932413648 9.951690370625622" fill="#ff6108" stroke="none" /><path d="M 97.47563105711357 79.15227682838746 l -1.2699153729845631 -10.48770791684882 a31.5643126801357,31.5643126801357 0 0,0 0.5399500997873884,-0.06066968503283693 l 1.0891985696874569 10.508013555352255" fill="#ff6709" stroke="none" /><path d="M 99.27714615592234 79.0124445844662 l -0.3508068542506479 -10.18543147284355 a31.191470930978568,31.191470930978568 0 0,0 0.5367508001689926,-0.013862689599255714 l 0.17542941888677627 10.189960954585166" fill="#ff6209" stroke="none" /></svg>