<?xml version="1.0" encoding="utf-8" ?>
<svg baseProfile="full" height="200mm" version="1.1" viewBox="0,0,200,200" width="200mm" xmlns="http://www.w3.org/2000/svg" xmlns:ev="http://www.w3.org/2001/xml-events" xmlns:xlink="http://www.w3.org/1999/xlink"><defs /><rect fill="#1a1a1a" height="200" width="200" x="0" y="0" /><text alignment-baseline="middle" fill="#e1ed5e" style="dominant-baseline: central; font-size:9.0px; font-family:Arial;" text-anchor="middle" x="100.0" y="100.0">2016</text><line stroke="#e1ed5e" stroke-width="0.3" x1="100.0" x2="100.0" y1="15.0" y2="10.0" /><path d="M 100.0 14.0 a86.0,86.0 0 0,1 42.35913384403234,11.155469271406648" fill="none" id="id13" stroke="none" /><text fill="#e1ed5e" style="font-size:6.75px; font-family:Arial;" text-anchor="middle"><textPath startOffset="22.145653131862478" xlink:href="#id13">January</textPath></text><path d="M 100.0 79.0 l 0.0 -13.236427000300722 a34.23642700030072,34.23642700030072 0 0,0 0.5877137955101291,0.0050448160901730085 l -0.2272208706612743 13.234476582404984" fill="#ff0000" stroke="none" /><path d="M 101.44090949804482 79.04949213459386 l 0.9899636474793181 -14.393854167193878 a35.42785728407982,35.42785728407982 0 0,0 0.6063747788845893,0.04693724286779308 l -1.2369074211391409 14.374739157331032" fill="#ff1602" stroke="none" /><path d="M 102.51750503828377 79.15144685158666 l 3.6339833686213887 -30.094595343015627 a51.31320675849513,51.31320675849513 0 0,0 0.8736004498126346,0.11310506831855899 l -4.150061640324815 30.02777867849667" fill="#e4ff1a" stroke="none" /><path d="M 103.94208987418118 79.37332000966035 l 5.624532714290533 -29.429931862465548 a50.962580958313474,50.962580958313474 0 0,0 0.8578786416750926,0.17159975462763008 l -6.1289078414965825 29.32904271117506" fill="#eaff1a" stroke="none" /><path d="M 104.64783097203109 79.52079915486377 l 4.491202877087525 -19.78906855899191 a41.29231720912231,41.29231720912231 0 0,0 0.6899117336311538,0.16281729060469394 l -4.830246764458563 19.70905512474099" fill="#ff7b0b" stroke="none" /><path d="M 104.9986988182912 79.60360301121754 l 3.595663537469832 -14.671534256067726 a36.105717914142936,36.105717914142936 0 0,0 0.6007212725475521,0.15270099837932513 l -3.8469901032427787 14.607648025853132" fill="#ff2203" stroke="none" /><path d="M 105.69591212413111 79.78721728523813 l 7.308633094870433 -25.935760501408534 a47.945867781570115,47.945867781570115 0 0,0 0.7902848609650432,0.23004040529195383 l -7.752777968217081 25.806476401814063" fill="#ffe715" stroke="none" /><path d="M 107.06938296918511 80.22567764915836 l 5.165139742086367 -14.447815133564934 a36.34333831631656,36.34333831631656 0 0,0 0.5856657119688496,0.21506456175035457 l -5.412394605709342 14.357019722805857" fill="#ff2603" stroke="none" /><path d="M 108.07796709384702 80.6158196554323 l 10.78427481771586 -25.87833368511898 a49.0354906798933,49.0354906798933 0 0,0 0.774211846726662,0.3304649998854785 l -11.226921739612951 25.6893940355741" fill="#fff717" stroke="none" /><path d="M 110.02825361518725 81.54914285379988 l 13.221706496454791 -24.326450761638238 a48.68735684995598,48.68735684995598 0 0,0 0.7309034385841202,0.4054198165532309 l -13.637354123195012 24.095898029651863" fill="#fff216" stroke="none" /><line stroke="#e1ed5e" stroke-width="0.3" x1="143.13028292997686" x2="145.6673583964461" y1="26.7553504044142" y2="22.446841604673864" /><path d="M 143.63769802327073 25.89364864446614 a86.0,86.0 0 0,1 29.32050498858742,28.57503671076993" fill="none" id="id14" stroke="none" /><text fill="#e1ed5e" style="font-size:6.75px; font-family:Arial;" text-anchor="middle"><textPath startOffset="20.669276256404974" xlink:href="#id14">February</textPath></text><path d="M 111.27062007382361 82.28071324371311 l 11.63063861964513 -18.285295707809365 a42.670805103244604,42.670805103244604 0 0,0 0.6146919822329765,0.39843591638557524 l -11.942816234135114 18.082945949719893" fill="#ff920d" stroke="none" /><path d="M 112.45986205192187 83.09580414077388 l 14.799725969098938 -20.078670646753658 a45.943634532706504,45.943634532706504 0 0,0 0.6308433188610486,0.47339658720064903 l -15.142222276870754 19.82165503228899" fill="#ffc712" stroke="none" /><path d="M 113.86319453409587 84.22622945171908 l 15.722776152251889 -17.88963307105313 a44.8168986509734,44.8168986509734 0 0,0 0.5735175265156587,0.5128429086948625 l -16.027558705590923 17.61709463247488" fill="#ffb510" stroke="none" /><path d="M 114.91283532996326 85.21462403516908 l 19.31607451597085 -19.150980854022627 a48.20056621428458,48.20056621428458 0 0,0 0.5775189834056309,0.5925853536197401 l -19.64198030052729 18.816572808335145" fill="#ffeb16" stroke="none" /><path d="M 115.41159269507618 85.73525988315684 l 11.862005508471594 -10.979295209181677 a37.16329477468533,37.16329477468533 0 0,0 0.4293286074585572,0.47190734689916664 l -12.048731816772028 10.774050286724838" fill="#ff3405" stroke="none" /><path d="M 116.7966241395341 87.39550010848427 l 28.99631815023573 -21.75937771440419 a57.25268244954847,57.25268244954847 0 0,0 0.5831539594936649,0.7911603440138847 l -29.36557412931322 21.258411061121432" fill="#90ff24" stroke="none" /><path d="M 117.42321728460499 88.27688183743584 l 21.53190205926876 -14.487624643733469 a46.95214970108749,46.95214970108749 0 0,0 0.444202127892462,0.6725786373963747 l -21.777428626081946 14.115866127998034" fill="#ffd714" stroke="none" /><line stroke="#e1ed5e" stroke-width="0.3" x1="172.87174338648825" x2="177.1583165268699" y1="56.24261187166439" y2="53.66864786411523" /><path d="M 173.72905801456457 55.72781907015455 a86.0,86.0 0 0,1 12.242430191666344,42.057860355516425" fill="none" id="id15" stroke="none" /><text fill="#e1ed5e" style="font-size:6.75px; font-family:Arial;" text-anchor="middle"><textPath startOffset="22.145653131862474" xlink:href="#id15">March</textPath></text><path d="M 118.00360718960297 89.18935116829356 l 21.811983992285032 -13.09746967816375 a46.44221605226473,46.44221605226473 0 0,0 0.4045477274186921,0.6870104837378227 l -22.03360542983349 12.72110802613237" fill="#ffcf13" stroke="none" /><path d="M 118.36410011445183 89.81374322990088 l 12.992996758811868 -7.2069962793422695 a35.85795275752851,35.85795275752851 0 0,0 0.2939577771658062,0.5408492008306274 l -13.114799885593015 6.982892245037039" fill="#ff1d03" stroke="none" /><path d="M 118.53625476483649 90.13048839642627 l 24.983678521678943 -13.302401601505014 a49.30438271438409,49.30438271438409 0 0,0 0.39136394107900224,0.7504919602888815 l -25.208350531732886 12.871563398111634" fill="#fffc17" stroke="none" /><path d="M 119.0197475246899 91.09779779509293 l 22.72232317875998 -10.63519456501651 a46.08807154955856,46.08807154955856 0 0,0 0.3292346055859861,0.7194370305915833 l -22.901542249201018 10.243568552210244" fill="#ffca12" stroke="none" /><path d="M 119.4528033332814 92.08871423366111 l 26.260894234025542 -10.680077066811721 a49.34957869393677,49.34957869393677 0 0,0 0.3124094467350223,0.7874758867274915 l -26.44036235572669 10.227700162870665" fill="#fffc17" stroke="none" /><path d="M 120.77682067341334 96.94652285012252 l 24.572739444269036 -3.611346489551325 a45.83669356543922,45.83669356543922 0 0,0 0.1077281985920396,0.7794675802699166 l -24.631112159416286 3.1889906010813225" fill="#ffc612" stroke="none" /><path d="M 120.98066250479742 99.09900007780936 l 53.28606603310355 -2.288332951292344 a74.33517883142648,74.33517883142648 0 0,0 0.043805766913531975,1.2753571074032763 l -53.31749648701393 1.3732695793249476" fill="#3effb6" stroke="none" /><line stroke="#e1ed5e" stroke-width="0.3" x1="184.99686870605535" x2="189.99668451229388" y1="99.2704041080226" y2="99.22748670261217" /><path d="M 185.99683186730306 99.26182062694052 a86.0,86.0 0 0,1 -10.086455211305974,41.156179273409016" fill="none" id="id16" stroke="none" /><text fill="#e1ed5e" style="font-size:6.75px; font-family:Arial;" text-anchor="middle"><textPath startOffset="21.40746469413373" xlink:href="#id16">April</textPath></text><path d="M 120.98066250479742 100.90099992219065 l 26.087164769291675 1.1202951013549634 a47.11120883479531,47.11120883479531 0 0,0 -0.04163376927396534,0.80768400136408 l -26.064089410561138 -1.567950896095774" fill="#ffda14" stroke="none" /><path d="M 120.86939407059847 102.33845913500097 l 37.59080172325597 4.212127739999962 a58.82605443732165,58.82605443732165 0 0,0 -0.12106377839792844,1.0025817545126283 l -37.512955858598374 -4.856803171436" fill="#7bff26" stroke="none" /><path d="M 120.51834098615036 104.47187691870673 l 20.37397293170305 4.440412573177166 a41.85224296908605,41.85224296908605 0 0,0 -0.15901687658965177,0.7006576988368015 l -20.294745193555737 -4.789504605952985" fill="#ff850c" stroke="none" /><path d="M 120.35273937422433 105.17358676015961 l 23.640359731995197 6.00928699896556 a45.39217371400254,45.39217371400254 0 0,0 -0.198451382670688,0.7535522240760792 l -23.533718868519777 -6.414219727414443" fill="#ffbf11" stroke="none" /><path d="M 120.16314734710363 105.8691983318838 l 25.012476825950245 7.280767468290958 a47.05059638273224,47.05059638273224 0 0,0 -0.2323933810876618,0.7735619837898938 l -24.88380712485895 -7.709067055671576" fill="#ffd914" stroke="none" /><path d="M 119.58574465831526 107.57618678355244 l 34.979188302296855 13.530701473877452 a58.50497962488089,58.50497962488089 0 0,0 -0.370368072019598,0.9335694838208924 l -34.74176155531113 -14.129171974911907" fill="#80ff26" stroke="none" /><line stroke="#e1ed5e" stroke-width="0.3" x1="174.33088141563837" x2="178.70328620479359" y1="141.23008692659167" y2="143.65538615756765" /><path d="M 175.20536237346943 141.71514677278685 a86.0,86.0 0 0,1 -30.301960400862466,31.631185727798858" fill="none" id="id17" stroke="none" /><text fill="#e1ed5e" style="font-size:6.75px; font-family:Arial;" text-anchor="middle"><textPath startOffset="22.145653131862474" xlink:href="#id17">May</textPath></text><path d="M 118.18653347947321 110.5 l 15.293945048184531 8.829963290540679 a38.659926581081365,38.659926581081365 0 0,0 -0.33675794933966086,0.5718886202985751 l -15.140113388715104 -9.091203079132804" fill="#ff4f07" stroke="none" /><path d="M 118.00360718960297 110.81064883170644 l 45.801365665943806 27.502404102275584 a74.42422042735262,74.42422042735262 0 0,0 -0.6670963097552494,1.0896516877512137 l -45.322501391733155 -28.284592906151357" fill="#3effb7" stroke="none" /><path d="M 117.81537515405839 111.11811171558189 l 28.961562726127458 18.074157129021533 a55.138647768533176,55.138647768533176 0 0,0 -0.5080168024229892,0.7986867927570073 l -28.64702823207858 -18.568657596457214" fill="#adff20" stroke="none" /><path d="M 117.62189284568427 111.42229804090321 l 15.107194955375949 9.79230125012334 a39.003235908938805,39.003235908938805 0 0,0 -0.3689995132436037,0.5587122938712988 l -14.93687100321162 -10.0501934223337" fill="#ff5507" stroke="none" /><path d="M 117.21940702142032 112.02048342749411 l 22.5949618526046 15.773038186287817 a48.55578042347469,48.55578042347469 0 0,0 -0.482979495693256,0.6793711458718908 l -22.320867258381384 -16.15858655886921" fill="#fff016" stroke="none" /><path d="M 115.16444852881244 114.52719865689866 l 20.302312540181063 19.449156156603877 a49.11500612987939,49.11500612987939 0 0,0 -0.5884754192303175,0.6038276219851829 l -19.96545031979994 -19.7948064706568" fill="#fff917" stroke="none" /><path d="M 114.13192950727249 115.5334660781643 l 18.771303637906957 20.632950946457584 a48.89409444713027,48.89409444713027 0 0,0 -0.6256930076068943,0.559498545616632 l -18.414345603476683 -20.9521450219576" fill="#fff517" stroke="none" /><path d="M 113.03279911837588 116.46651593811092 l 11.476941270640038 14.500740373362573 a39.493016311715834,39.493016311715834 0 0,0 -0.535205699936807,0.41617918943359883 l -11.226325626068 -14.695620614416965" fill="#ff5d08" stroke="none" /><path d="M 111.8722381534696 117.32195027204791 l 35.616714460408794 51.96585081614374 a84.0,84.0 0 0,0 -1.1964148476119867,0.8050013037715154 l -34.719403324699805 -52.56960179397238" fill="#4dd2ff" stroke="none" /><path d="M 111.27062007382361 117.71928675628689 l 10.734042269988317 16.87569732545351 a41.00022059063886,41.00022059063886 0 0,0 -0.5971113421024717,0.3726416396358598 l -10.44276679909613 -17.057474761930916" fill="#ff770a" stroke="none" /><line stroke="#e1ed5e" stroke-width="0.3" x1="143.1302829299769" x2="145.66735839644613" y1="173.24464959558577" y2="177.55315839532614" /><path d="M 143.63769802327073 174.10635135553383 a86.0,86.0 0 0,1 -40.68552437913181,11.842963189579606" fill="none" id="id18" stroke="none" /><text fill="#e1ed5e" style="font-size:6.75px; font-family:Arial;" text-anchor="middle"><textPath startOffset="21.407464694133747" xlink:href="#id18">June</textPath></text><path d="M 110.34350942703117 118.27599006163325 l 15.045003520108544 26.58307963563794 a51.545249284213526,51.545249284213526 0 0,0 -0.773806638561487,0.4292174983620122 l -14.586452693390962 -26.837430049433095" fill="#e1ff1b" stroke="none" /><path d="M 109.71004243097381 118.62028667847754 l 9.196271426169945 17.6350630335199 a40.888862620572596,40.888862620572596 0 0,0 -0.6251571772647093,0.31920970913260344 l -8.892187027191653 -17.790330694325338" fill="#ff750a" stroke="none" /><path d="M 108.73861861582097 119.09545874513695 l 7.339675227132593 16.038514971767885 a38.638163026216944,38.638163026216944 0 0,0 -0.6054905519146316,0.2708282223425163 l -7.063271272362335 -16.16214694502025" fill="#ff4e07" stroke="none" /><path d="M 108.07796709384702 119.3841803445677 l 12.662023421855901 30.38424676467777 a53.917006069696846,53.917006069696846 0 0,0 -0.8573973163306278,0.34869602435031105 l -12.138571644334831 -30.597130045607372" fill="#bfff1e" stroke="none" /><path d="M 106.0420521117495 120.11202640906438 l 6.521646142305821 21.70843895728145 a43.66689635498136,43.66689635498136 0 0,0 -0.7197551887450908,0.2095102456191787 l -6.148030941179123 -21.817192897203146" fill="#ffa30f" stroke="none" /><path d="M 104.64783097203109 120.47920084513623 l 4.429120247244605 19.515521036890057 a41.01181319885458,41.01181319885458 0 0,0 -0.6879000938681888,0.14992462374135113 l -4.093457736757281 -19.588677118765126" fill="#ff770a" stroke="none" /><line stroke="#e1ed5e" stroke-width="0.3" x1="101.45913802915013" x2="101.54496967792366" y1="184.9874750549273" y2="189.98673829345242" /><path d="M 101.47630435890484 185.9873277026323 a86.0,86.0 0 0,1 -42.54439059252881,-10.42667462771756" fill="none" id="id19" stroke="none" /><text fill="#e1ed5e" style="font-size:6.75px; font-family:Arial;" text-anchor="middle"><textPath startOffset="22.145653131862474" xlink:href="#id19">July</textPath></text><path d="M 100.0 121.0 l 4.5800210313093715e-15 37.398709852491024 a58.398709852491024,58.398709852491024 0 0,0 -1.0024915105773318,-0.008605183920232212 l 0.6419985857284751 -37.39319906676523" fill="#81ff25" stroke="none" /><path d="M 99.27912038922189 120.98762331915562 l -0.8625035832493387 25.110850752347122 a46.12565895529448,46.12565895529448 0 0,0 -0.7911082919527763,-0.033973593985932575 l 1.2934376358029538 -25.092344589935358" fill="#ffca12" stroke="none" /><path d="M 98.19965949673042 120.92268563240118 l -1.724495495877486 20.041251679451676 a41.11530893609209,41.11530893609209 0 0,0 -0.7026810632725445,-0.0665446272666573 l 2.0682761225350457 -20.008695296679836" fill="#ff790b" stroke="none" /><path d="M 95.70440661134978 120.55596938700252 l -5.373923762619735 25.716170586436263 a47.27166698626371,47.27166698626371 0 0,0 -0.792897987696499,-0.17280842600589955 l 5.81458416693537 -25.620130702296642" fill="#ffdc14" stroke="none" /><path d="M 95.00130118170881 120.39639698878247 l -5.410465205778515 22.076544365355037 a43.729869002227645,43.729869002227645 0 0,0 -0.7275707027298062,-0.18494562749081747 l 5.7886412017337 -21.980413506028956" fill="#ffa40f" stroke="none" /><path d="M 93.95794788825049 120.11202640906438 l -7.373699440129535 24.54464727042009 a46.62832716083332,46.62832716083332 0 0,0 -0.7646143443504275,-0.2368794783993145 l 7.793954417351596 -24.414451204214124" fill="#ffd213" stroke="none" /><path d="M 91.92203290615298 119.3841803445677 l -7.733970584570594 18.558713949836395 a41.10572466922929,41.10572466922929 0 0,0 -0.6490103100008554,-0.277023908800798 l 8.05141596974188 -18.423215391376193" fill="#ff780b" stroke="none" /><path d="M 89.97174638481275 118.45085714620012 l -11.881928861952785 21.861410816454445 a45.88175066924146,45.88175066924146 0 0,0 -0.688785169335762,-0.3820575225882594 l 12.25545821944465 -21.654220378433035" fill="#ffc612" stroke="none" /><line stroke="#e1ed5e" stroke-width="0.3" x1="58.13341422392154" x2="55.67067388415222" y1="173.97424548756322" y2="178.32567169271397" /><path d="M 57.64086615596768 174.84453072859336 a86.0,86.0 0 0,1 -31.369924170532247,-30.572349798747897" fill="none" id="id20" stroke="none" /><text fill="#e1ed5e" style="font-size:6.75px; font-family:Arial;" text-anchor="middle"><textPath startOffset="22.145653131862474" xlink:href="#id20">August</textPath></text><path d="M 89.03521579738668 117.91015095944536 l -13.46463274665961 21.99346568523336 a46.787765856117815,46.787765856117815 0 0,0 -0.6813989110756539,-0.42524331655676995 l 13.840195786524976 -21.759086571835045" fill="#ffd513" stroke="none" /><path d="M 88.4268655584334 117.5232005979908 l -15.464172322145915 23.414727881289394 a49.06047232966428,49.06047232966428 0 0,0 -0.6987699705484157,-0.4701636212979297 l 15.863838580791336 -23.145814585934342" fill="#fff817" stroke="none" /><path d="M 85.86807049272751 115.53346607816431 l -15.3849839805896 16.91079244717476 a43.862034757965475,43.862034757965475 0 0,0 -0.552599455549983,-0.5114778062262187 l 15.67301320745355 -16.644196894816165" fill="#ffa60f" stroke="none" /><path d="M 82.576782715395 111.72311816256416 l -23.45387061948889 15.78081086578113 a49.2686759261427,49.2686759261427 0 0,0 -0.4661181825361565,-0.7057623374369344 l 23.721313240945772 -15.375868650005133" fill="#fffb17" stroke="none" /><line stroke="#e1ed5e" stroke-width="0.3" x1="26.387840678322732" x2="22.057713659400548" y1="142.50000000000003" y2="145.00000000000006" /><path d="M 25.521815274538298 143.00000000000003 a86.0,86.0 0 0,1 -11.493303480769221,-40.785679425670985" fill="none" id="id21" stroke="none" /><text fill="#e1ed5e" style="font-size:6.75px; font-family:Arial;" text-anchor="middle"><textPath startOffset="21.40746469413373" xlink:href="#id21">September</textPath></text><path d="M 81.63589988554817 110.18625677009913 l -22.05268033851396 12.232250042039437 a46.218022349178256,46.218022349178256 0 0,0 -0.3788879751901745,-0.6971111993078918 l 22.259413663319464 -11.85188400925696" fill="#ffcc13" stroke="none" /><path d="M 81.29705330413844 109.54985784667822 l -20.084776507029307 10.255429994187697 a43.551543000491144,43.551543000491144 0 0,0 -0.3342686419324729,-0.6687612015510898 l 20.25786506217352 -9.909136936472855" fill="#ffa10e" stroke="none" /><path d="M 80.83023694016515 108.57439118712176 l -25.090549614568708 11.2226837036896 a48.486074828432564,48.486074828432564 0 0,0 -0.3333212571055054,-0.7627042668341764 l 25.27950475369118 -10.790317367079576" fill="#ffef16" stroke="none" /><path d="M 80.16572619554312 106.89939002012753 l -17.364263965829487 6.0401923808162605 a39.38481947347526,39.38481947347526 0 0,0 -0.21664384847271015,-0.6404690429204396 l 17.465393235874565 -5.741221663421659" fill="#ff5b08" stroke="none" /><path d="M 79.83685265289637 105.86919833188381 l -24.309954715094136 7.076273520487706 a46.318916745917136,46.318916745917136 0 0,0 -0.21567302499466642,-0.7653474802014327 l 24.42784623216338 -6.657918116383278" fill="#ffcd13" stroke="none" /><path d="M 79.56144815229197 104.8234425847677 l -23.43656503936294 5.530965534831568 a45.08036878022809,45.08036878022809 0 0,0 -0.1712820850303368,-0.754700470309296 l 23.52805798595094 -5.127830730583245" fill="#ffba11" stroke="none" /><path d="M 79.48165901384964 104.47187691870673 l -23.744565406488636 5.1750175151914535 a45.30195861706532,45.30195861706532 0 0,0 -0.15907953012200945,-0.7612531390719786 l 23.829902647435013 -4.766647924834066" fill="#ffbd11" stroke="none" /><path d="M 79.2786578344484 103.40968896794605 l -25.296286687803118 4.162494348111966 a46.63646776351199,46.63646776351199 0 0,0 -0.12320579254578251,-0.7910695700159966 l 25.364013972487168 -3.7276365961645195" fill="#ffd213" stroke="none" /><path d="M 79.0935383218832 101.97986365728391 l -24.96581723707404 2.3642888492132252 a46.07751766179215,46.07751766179215 0 0,0 -0.06781376885746955,-0.7880987872996161 l 25.002724628629252 -1.935369014537947" fill="#ffca12" stroke="none" /><path d="M 79.03789590574601 101.26102812881392 l -19.237000089977386 1.1572501557277795 a40.27177730217745,40.27177730217745 0 0,0 -0.03558953221368035,-0.6904274171254583 l 19.25403121164764 -0.8268509452255904" fill="#ff6a09" stroke="none" /><line stroke="#e1ed5e" stroke-width="0.3" x1="15.003131293944662" x2="10.003315487706104" y1="100.72959589197737" y2="100.7725132973878" /><path d="M 14.003168132696942 100.73817937305945 a86.0,86.0 0 0,1 10.791469493833604,-42.45332614584628" fill="none" id="id22" stroke="none" /><text fill="#e1ed5e" style="font-size:6.75px; font-family:Arial;" text-anchor="middle"><textPath startOffset="22.145653131862435" xlink:href="#id22">October</textPath></text><path d="M 79.00077361379809 100.18025310272382 l -17.70245686041872 0.15195430137472837 a38.703109020866705,38.703109020866705 0 0,0 0.0,-0.6644148081970853 l 17.70245686041872 0.15195430137472185" fill="#ff4f07" stroke="none" /><path d="M 79.0935383218832 98.0201363427161 l -28.055845465546334 -2.656917735139777 a49.18137109222894,49.18137109222894 0 0,0 0.08681122670763769,-0.8398198695999611 l 28.006101846357033 3.138142127022651" fill="#fffa17" stroke="none" /><path d="M 79.73907114497095 94.47779374421319 l -27.350015699757265 -7.454368399086436 a49.34768009919449,49.34768009919449 0 0,0 0.22977574155811314,-0.8153930461042599 l 27.21802146612457 7.922769369093708" fill="#fffc17" stroke="none" /><path d="M 80.05021161711548 93.44210830539832 l -24.02594164917021 -7.897804235921254 a46.29073316213406,46.29073316213406 0 0,0 0.2546311679204791,-0.752771802963437 l 23.886825059677367 8.309077713358853" fill="#ffcd13" stroke="none" /><path d="M 80.5471966667186 92.08871423366112 l -38.902170844816624 -15.82117421388464 a62.996290907000215,62.996290907000215 0 0,0 0.4159979732791701,-0.9982436971252663 l 38.624847027000975 16.48665042045117" fill="#46ff2d" stroke="none" /><line stroke="#e1ed5e" stroke-width="0.3" x1="26.387840678322718" x2="22.05771365940052" y1="57.49999999999999" y2="54.99999999999999" /><path d="M 25.521815274538284 56.99999999999999 a86.0,86.0 0 0,1 29.574782752854787,-30.34633250058573" fill="none" id="id23" stroke="none" /><text fill="#e1ed5e" style="font-size:6.75px; font-family:Arial;" text-anchor="middle"><textPath startOffset="21.40746469413373" xlink:href="#id23">November</textPath></text><path d="M 81.81346652052679 89.5 l -23.22218239836138 -13.407333258864536 a47.814666517729066,47.814666517729066 0 0,0 0.41650283559381146,-0.7073128710554741 l 22.98860585263779 13.803997298213583" fill="#ffe515" stroke="none" /><path d="M 82.576782715395 88.27688183743585 l -27.890170232283246 -18.765751231030364 a54.615695959635524,54.615695959635524 0 0,0 0.5300590175022926,-0.7733719475414977 l 27.56392147796564 19.241757913641898" fill="#b5ff20" stroke="none" /><path d="M 83.64595745247003 86.82634096563983 l -20.029102695508467 -16.134027345713623 a46.71909394165081,46.71909394165081 0 0,0 0.5084665486977881,-0.620246513906953 l 19.749189327572047 16.475476141319067" fill="#ffd413" stroke="none" /><path d="M 85.08716467003674 85.21462403516908 l -18.219500846198347 -18.063779552460293 a46.65638990202061,46.65638990202061 0 0,0 0.5687815615468309,-0.563920209890376 l 17.90672736452154 18.373879772579343" fill="#ffd313" stroke="none" /><path d="M 86.40962598614128 83.9905735841838 l -17.85654729572338 -21.034967814712637 a48.5921393206544,48.5921393206544 0 0,0 0.6405500629494016,-0.5343696444648333 l 17.49282289861207 21.33839964308935" fill="#fff116" stroke="none" /><line stroke="#e1ed5e" stroke-width="0.3" x1="56.869717070023135" x2="54.33264160355391" y1="26.7553504044142" y2="22.446841604673864" /><path d="M 56.362301976729285 25.89364864446614 a86.0,86.0 0 0,1 42.16139366436587,-11.88097634709845" fill="none" id="id24" stroke="none" /><text fill="#e1ed5e" style="font-size:6.75px; font-family:Arial;" text-anchor="middle"><textPath startOffset="22.145653131862474" xlink:href="#id24">December</textPath></text><path d="M 89.34428304082924 81.90426304109057 l -15.608490670199705 -26.506629499992496 a51.760793040030414,51.760793040030414 0 0,0 0.7695290217436426,-0.44428778785291906 l 15.151169180595664 26.77066418512159" fill="#deff1b" stroke="none" /><path d="M 90.28995756902619 81.37971332152246 l -12.403985351175802 -23.786277437653354 a47.82621566552392,47.82621566552392 0 0,0 0.731223616126436,-0.3733679885687043 l 11.993834513335782 23.99570337789489" fill="#ffe515" stroke="none" /><path d="M 92.25597844496254 80.48000691201159 l -10.832966011700575 -27.306150966645323 a50.37650478228962,50.37650478228962 0 0,0 0.8065703917349113,-0.3119987546285296 l 10.362623357472135 27.48808960941189" fill="#f2ff19" stroke="none" /><path d="M 94.30408787586887 79.78721728523814 l -7.4773260400173145 -26.534392251944315 a48.56781414782034,48.56781414782034 0 0,0 0.8044185274552292,-0.2192478467482204 l 7.020726111627408 26.658840592836675" fill="#fff016" stroke="none" /><path d="M 96.41257539226777 79.30868818359171 l -4.342206609243067 -25.04469382561128 a46.4183289587645,46.4183289587645 0 0,0 0.7862878038721697,-0.1293833589095658 l 3.911641302317824 25.115543183016513" fill="#ffcf13" stroke="none" /><path d="M 98.9189461498227 79.02784411241856 l -1.952777750300782 -37.88336666706484 a58.93366329493303,58.93366329493303 0 0,0 1.010780350107613,-0.043407257353792084 l 1.3021716395923488 37.91130649284446" fill="#7aff26" stroke="none" /></svg>