<?xml version="1.0" encoding="utf-8" ?>
<svg baseProfile="full" height="200mm" version="1.1" viewBox="0,0,200,200" width="200mm" xmlns="http://www.w3.org/2000/svg" xmlns:ev="http://www.w3.org/2001/xml-events" xmlns:xlink="http://www.w3.org/1999/xlink"><defs /><rect fill="#1a1a1a" height="200" width="200" x="0" y="0" /><text alignment-baseline="middle" fill="#e1ed5e" style="dominant-baseline: central; font-size:9.0px; font-family:Arial;" text-anchor="middle" x="100.0" y="100.0">2016</text><line stroke="#e1ed5e" stroke-width="0.3" x1="100.0" x2="100.0" y1="15.0" y2="10.0" /><path d="M 100.0 14.0 a86.0,86.0 0 0,1 42.35913384403234,11.155469271406648" fill="none" id="id13" stroke="none" /><text fill="#e1ed5e" style="font-size:6.75px; font-family:Arial;" text-anchor="middle"><textPath startOffset="22.145653131862478" xlink:href="#id13">January</textPath></text><path d="M 100.0 79.0 l 0.0 -15.706984698306712 a36.70698469830671,36.70698469830671 0 0,0 0.6301242036321306,0.0054088584368376285 l -0.26963127878327586 15.70467023806431" fill="#ff0000" stroke="none" /><path d="M 101.44090949804482 79.04949213459386 l 1.17416253923237 -17.072065627183427 a38.11239557886021,38.11239557886021 0 0,0 0.6523226978301748,0.05049390238913028 l -1.4670542318377784 17.049393957799243" fill="#ff1b02" stroke="none" /><path d="M 102.51750503828377 79.15144685158666 l 4.297834080400171 -35.59223154896625 a56.85077857477962,56.85077857477962 0 0,0 0.9678768658695011,0.12531103785672457 l -4.908188768160463 35.51320891490912" fill="#a9ff21" stroke="none" /><path d="M 103.94208987418118 79.37332000966035 l 6.646813663316694 -34.77893776258173 a56.408397927163925,56.408397927163925 0 0,0 0.9495508053724158,0.18993675479577554 l -7.242860954220067 34.65971161112309" fill="#b0ff20" stroke="none" /><path d="M 104.64783097203109 79.52079915486377 l 5.324100902089581 -23.458970937150156 a45.055547548241066,45.055547548241066 0 0,0 0.7527877585867404,0.17765586129167243 l -5.726020814416207 23.364118932212257" fill="#ff980e" stroke="none" /><path d="M 104.9986988182912 79.60360301121754 l 4.289841468960742 -17.504017105350613 a39.022024155272405,39.022024155272405 0 0,0 0.6492423184515703,0.16503485850805255 l -4.589689080637707 17.42779701500729" fill="#ff2c04" stroke="none" /><path d="M 105.69591212413111 79.78721728523813 l 8.66080438999201 -30.734139406455256 a52.9311267846459,52.9311267846459 0 0,0 0.8724561699935741,0.2539592757726699 l -9.187120572367188 30.58093643638007" fill="#e5ff1a" stroke="none" /><path d="M 107.06938296918511 80.22567764915836 l 6.133122533415558 -17.155435279374814 a39.21878567947677,39.21878567947677 0 0,0 0.6320029777565143,0.232080247585594 l -6.426714662826197 17.0476241827805" fill="#ff2f04" stroke="none" /><path d="M 108.07796709384702 80.6158196554323 l 12.780156496343762 -30.667723138612892 a54.22411236703925,54.22411236703925 0 0,0 0.8561339876632155,0.36543269045967647 l -13.304725559177408 30.443815798493816" fill="#d1ff1d" stroke="none" /><path d="M 110.02825361518725 81.54914285379988 l 15.708429925883628 -28.90174178629025 a53.894763246112475,53.894763246112475 0 0,0 0.8090779686327598,0.44878191058421535 l -16.20225208267249 28.627826960272888" fill="#d6ff1c" stroke="none" /><line stroke="#e1ed5e" stroke-width="0.3" x1="143.13028292997686" x2="145.6673583964461" y1="26.7553504044142" y2="22.446841604673864" /><path d="M 143.63769802327073 25.89364864446614 a86.0,86.0 0 0,1 29.32050498858742,28.57503671076993" fill="none" id="id14" stroke="none" /><text fill="#e1ed5e" style="font-size:6.75px; font-family:Arial;" text-anchor="middle"><textPath startOffset="20.669276256404974" xlink:href="#id14">February</textPath></text><path d="M 111.27062007382361 82.28071324371311 l 13.738604317761093 -21.599367909043767 a46.5984753973793,46.5984753973793 0 0,0 0.6712718248869333,0.43511028681560415 l -14.107361774905034 21.360343780524268" fill="#ffb310" stroke="none" /><path d="M 112.45986205192187 83.09580414077388 l 17.588729224970297 -23.862489206927584 a50.644253859729034,50.644253859729034 0 0,0 0.6953866299665358,0.5218310911264922 l -17.9957688438476 23.557039088537078" fill="#fff517" stroke="none" /><path d="M 113.86319453409587 84.22622945171908 l 18.63065392514464 -21.198264184844813 a49.22175880644191,49.22175880644191 0 0,0 0.6298860967883545,0.5632480318185598 l -18.99180504875637 20.875320623142866" fill="#ffde14" stroke="none" /><path d="M 114.91283532996326 85.21462403516908 l 22.84331436517295 -22.648073535238137 a53.1675651245734,53.1675651245734 0 0,0 0.63703148266745,0.6536504206273985 l -23.228732648991212 22.252600422542997" fill="#e1ff1b" stroke="none" /><path d="M 115.41159269507618 85.73525988315684 l 14.028630790582826 -12.984691224466518 a40.11556141088266,40.11556141088266 0 0,0 0.46343463953804714,0.509395850651956 l -14.24946313096275 12.74195779825689" fill="#ff4006" stroke="none" /><path d="M 116.7966241395341 87.39550010848427 l 34.37748422501976 -25.797505057278983 a63.98049195648902,63.98049195648902 0 0,0 0.6516808578822039,0.8841302426498383 l -34.81526710248579 25.20356850536027" fill="#47ff2c" stroke="none" /><path d="M 117.42321728460499 88.27688183743584 l 25.6280401281301 -17.243689141297214 a51.88917700442565,51.88917700442565 0 0,0 0.49091006453791014,0.7433004066360686 l -25.920274631588732 16.801208856322088" fill="#f5ff19" stroke="none" /><line stroke="#e1ed5e" stroke-width="0.3" x1="172.87174338648825" x2="177.1583165268699" y1="56.24261187166439" y2="53.66864786411523" /><path d="M 173.72905801456457 55.72781907015455 a86.0,86.0 0 0,1 12.242430191666344,42.057860355516425" fill="none" id="id15" stroke="none" /><text fill="#e1ed5e" style="font-size:6.75px; font-family:Arial;" text-anchor="middle"><textPath startOffset="22.145653131862474" xlink:href="#id15">March</textPath></text><path d="M 118.00360718960297 89.18935116829356 l 25.826384410659983 -15.508001786305355 a51.12474483097294,51.12474483097294 0 0,0 0.4453361853567722,0.756278202525323 l -26.08879430614652 15.062372415486475" fill="#fffd17" stroke="none" /><path d="M 118.36410011445183 89.81374322990088 l 15.479677173880367 -8.586315987642633 a38.701560034279474,38.701560034279474 0 0,0 0.3172692160496316,0.5837396227547852 l -15.62479173954534 8.319321531413244" fill="#ff2603" stroke="none" /><path d="M 118.53625476483649 90.13048839642627 l 29.62312028343906 -15.772643022045822 a54.56047561087282,54.56047561087282 0 0,0 0.43308528748675384,0.8304981431914712 l -29.88951363990076 15.261798635749852" fill="#cbff1d" stroke="none" /><path d="M 119.0197475246899 91.09779779509293 l 27.042197426311237 -12.657113836108365 a50.857712107658216,50.857712107658216 0 0,0 0.36330699514657516,0.7938913508687627 l -27.255488886312865 12.191033503024919" fill="#fff917" stroke="none" /><path d="M 119.4528033332814 92.08871423366111 l 31.139685816716966 -12.664239130438045 a54.616409467948266,54.616409467948266 0 0,0 0.3457513258696071,0.8715192026741364 l -31.352495817552697 12.127818910550342" fill="#cbff1d" stroke="none" /><path d="M 120.77682067341334 96.94652285012252 l 29.24310087146954 -4.297728786621182 a50.557222827970406,50.557222827970406 0 0,0 0.1188226749666821,0.8597416846096078 l -29.312568062991435 3.7950987938114884" fill="#fff417" stroke="none" /><path d="M 120.98066250479742 99.09900007780936 l 62.94198751439227 -2.7029997665719256 a84.0,84.0 0 0,0 0.049501252012607466,1.4411749417435202 l -62.97911345340172 1.6221185602642854" fill="#4dd2ff" stroke="none" /><line stroke="#e1ed5e" stroke-width="0.3" x1="184.99686870605535" x2="189.99668451229388" y1="99.2704041080226" y2="99.22748670261217" /><path d="M 185.99683186730306 99.26182062694052 a86.0,86.0 0 0,1 -10.086455211305974,41.156179273409016" fill="none" id="id16" stroke="none" /><text fill="#e1ed5e" style="font-size:6.75px; font-family:Arial;" text-anchor="middle"><textPath startOffset="21.40746469413373" xlink:href="#id16">April</textPath></text><path d="M 120.98066250479742 100.90099992219065 l 30.832335195136388 1.3240731366524578 a51.860752797954405,51.860752797954405 0 0,0 -0.04583110197693502,0.8891111344752487 l -30.805062503702878 -1.8531560645044372" fill="#f5ff19" stroke="none" /><path d="M 120.86939407059847 102.33845913500097 l 44.47979898313287 4.984054252042384 a65.75816477881114,65.75816477881114 0 0,0 -0.13533003300635635,1.1207268080118529 l -44.387686863866854 -5.746874736977645" fill="#30ff2f" stroke="none" /><path d="M 120.51834098615036 104.47187691870673 l 24.170169584606743 5.267775964908029 a45.73755366573485,45.73755366573485 0 0,0 -0.17377904768805177,0.7657025484997158 l -24.07617967536103 -5.681912847346762" fill="#ffa40f" stroke="none" /><path d="M 120.35273937422433 105.17358676015961 l 28.098304680118623 7.142479172120422 a49.99189084245714,49.99189084245714 0 0,0 -0.21856102160948762,0.8299117986165374 l -27.971554177704405 -7.623771475109762" fill="#ffeb16" stroke="none" /><path d="M 120.16314734710363 105.8691983318838 l 29.72732715074124 8.653191682872722 a51.96113217935893,51.96113217935893 0 0,0 -0.2566476117343298,0.8542964293516494 l -29.57440321900328 -9.162225715815095" fill="#f4ff19" stroke="none" /><path d="M 119.58574465831526 107.57618678355244 l 41.35315473234832 15.996288617415592 a65.33919999108241,65.33919999108241 0 0,0 -0.4136323725460898,1.042623783480534 l -41.07246368483611 -16.70381341810969" fill="#35ff2f" stroke="none" /><line stroke="#e1ed5e" stroke-width="0.3" x1="174.33088141563837" x2="178.70328620479359" y1="141.23008692659167" y2="143.65538615756765" /><path d="M 175.20536237346943 141.71514677278685 a86.0,86.0 0 0,1 -30.301960400862466,31.631185727798858" fill="none" id="id17" stroke="none" /><text fill="#e1ed5e" style="font-size:6.75px; font-family:Arial;" text-anchor="middle"><textPath startOffset="22.145653131862474" xlink:href="#id17">May</textPath></text><path d="M 118.18653347947321 110.5 l 18.1430896332621 10.474917683695375 a41.94983536739076,41.94983536739076 0 0,0 -0.3654156068773306,0.620555587959899 l -17.960600316255004 -10.784824439948824" fill="#ff6109" stroke="none" /><path d="M 118.00360718960297 110.81064883170644 l 47.32604135443498 28.41792804572382 a76.2026523338655,76.2026523338655 0 0,0 -0.6830371601286005,1.1156898688346686 l -46.83123622985097 -29.226155030683046" fill="#40ffc9" stroke="none" /><path d="M 117.81537515405839 111.11811171558189 l 27.6994730853074 17.286519849403568 a53.65095064018033,53.65095064018033 0 0,0 -0.49430998934892995,0.777137405963448 l -27.39864540433258 -17.759470930045687" fill="#d9ff1c" stroke="none" /><path d="M 117.62189284568427 111.42229804090321 l 17.896554505223364 11.600330410248427 a42.327314148419276,42.327314148419276 0 0,0 -0.40044775654361253,0.6063289424622985 l -17.694782309759024 -11.905839231049786" fill="#ff6809" stroke="none" /><path d="M 117.21940702142032 112.02048342749411 l 26.81049131626025 18.715805146436377 a53.69684704828037,53.69684704828037 0 0,0 -0.5341171716634199,0.7513026912705392 l -26.48525904606687 -19.173285064416422" fill="#d9ff1c" stroke="none" /><path d="M 115.16444852881244 114.52719865689866 l 23.981848447321326 22.974068321174656 a54.21049337447863,54.21049337447863 0 0,0 -0.6495274118640735,0.6664723448144122 l -23.583934234306444 -23.382363358056804" fill="#d1ff1c" stroke="none" /><path d="M 114.13192950727249 115.5334660781643 l 22.22591184016279 24.43017051902012 a54.02763068576201,54.02763068576201 0 0,0 -0.6913863753873666,0.6182419601713383 l -21.803260437952048 -24.808108009074846" fill="#d4ff1c" stroke="none" /><path d="M 113.03279911837588 116.46651593811092 l 13.579249979617027 17.15693875014788 a42.88050678766959,42.88050678766959 0 0,0 -0.5811126571796312,0.4518767170513676 l -13.282727377802164 -17.38751651882004" fill="#ff720a" stroke="none" /><path d="M 111.8722381534696 117.32195027204791 l 29.41576860518071 42.91848549585392 a73.03156580280242,73.03156580280242 0 0,0 -1.0401910675098172,0.69988697247299 l -28.674681249573887 -43.41712214238403" fill="#3bff9d" stroke="none" /><path d="M 111.27062007382361 117.71928675628689 l 12.7432396311374 20.03448929599125 a44.74386063065101,44.74386063065101 0 0,0 -0.6516322665374632,0.40666672883343097 l -12.39744323581022 -20.25029182166623" fill="#ff930d" stroke="none" /><line stroke="#e1ed5e" stroke-width="0.3" x1="143.1302829299769" x2="145.66735839644613" y1="173.24464959558577" y2="177.55315839532614" /><path d="M 143.63769802327073 174.10635135553383 a86.0,86.0 0 0,1 -40.68552437913181,11.842963189579606" fill="none" id="id18" stroke="none" /><text fill="#e1ed5e" style="font-size:6.75px; font-family:Arial;" text-anchor="middle"><textPath startOffset="21.407464694133747" xlink:href="#id18">June</textPath></text><path d="M 110.34350942703117 118.27599006163325 l 17.79840724443019 31.448080190465085 a57.13537114939471,57.13537114939471 0 0,0 -0.8577265627002518,0.47576646564475833 l -17.255936493573845 -31.748979571542986" fill="#a5ff21" stroke="none" /><path d="M 109.71004243097381 118.62028667847754 l 10.91527404908002 20.931477221941766 a44.60656574470727,44.60656574470727 0 0,0 -0.6819978092128053,0.3482329408108384 l -10.554349018153632 -21.11576811442544" fill="#ff900d" stroke="none" /><path d="M 108.73861861582097 119.09545874513695 l 8.686257953777957 18.981041248977988 a41.874170741252804,41.874170741252804 0 0,0 -0.6562013503562549,0.29351051747013845 l -8.359143200566075 -19.127355517357977" fill="#ff6008" stroke="none" /><path d="M 108.07796709384702 119.3841803445677 l 14.98954144272918 35.969442711589274 a59.96777080672692,59.96777080672692 0 0,0 -0.9536175968219319,0.38782797476599373 l -14.369869384716807 -36.22145794293456" fill="#7dff26" stroke="none" /><path d="M 106.0420521117495 120.11202640906438 l 7.729842884748184 25.73013296817776 a47.866153680476856,47.866153680476856 0 0,0 -0.7889709448714459,0.2296579434663222 l -7.287011927495131 -25.8590346059466" fill="#ffc812" stroke="none" /><path d="M 104.64783097203109 120.47920084513623 l 5.253566050401319 23.14818136605813 a44.73685439989575,44.73685439989575 0 0,0 -0.7503810229467075,0.16354205142686307 l -4.855422610835475 -23.234954875618712" fill="#ff930d" stroke="none" /><line stroke="#e1ed5e" stroke-width="0.3" x1="101.45913802915013" x2="101.54496967792366" y1="184.9874750549273" y2="189.98673829345242" /><path d="M 101.47630435890484 185.9873277026323 a86.0,86.0 0 0,1 -42.54439059252881,-10.42667462771756" fill="none" id="id19" stroke="none" /><text fill="#e1ed5e" style="font-size:6.75px; font-family:Arial;" text-anchor="middle"><textPath startOffset="22.145653131862474" xlink:href="#id19">July</textPath></text><path d="M 100.0 121.0 l 5.429945338281529e-15 44.338868497121524 a65.33886849712152,65.33886849712152 0 0,0 -1.1216285624210411,-0.009627832223995852 l 0.7611356375721836 -44.33233506309196" fill="#35ff2f" stroke="none" /><path d="M 99.27912038922189 120.98762331915562 l -1.02328790557555 29.79191086579084 a50.80947955219821,50.80947955219821 0 0,0 -0.871441221522868,-0.03742343563299463 l 1.5345548876992565 -29.769954861732014" fill="#fff817" stroke="none" /><path d="M 98.19965949673042 120.92268563240118 l -2.046152491373852 23.77939353984474 a44.86726413187664,44.86726413187664 0 0,0 -0.7668038422214462,-0.07261712110132024 l 2.4540558969803135 -23.740764663238235" fill="#ff950d" stroke="none" /><path d="M 95.70440661134978 120.55596938700252 l -6.369019104128226 30.478062024123034 a52.13642029994843,52.13642029994843 0 0,0 -0.8744955567896587,-0.19059223640736317 l 6.891277077537021 -30.36423832958195" fill="#f1ff19" stroke="none" /><path d="M 95.00130118170881 120.39639698878247 l -6.435861486926332 26.260511109777074 a48.03765442536809,48.03765442536809 0 0,0 -0.7992429610520035,-0.20316443528413422 l 6.885709741203714 -26.146161442657675" fill="#ffcb12" stroke="none" /><path d="M 93.95794788825049 120.11202640906438 l -8.744825237523028 29.108679115445433 a51.39386728076552,51.39386728076552 0 0,0 -0.8427599814801747,-0.26108919653925156 l 9.243225851874834 -28.954273331099532" fill="#fdff18" stroke="none" /><path d="M 91.92203290615298 119.3841803445677 l -9.202966104220096 22.08376842795348 a44.92461939289524,44.92461939289524 0 0,0 -0.7093060977143952,-0.3027605951665446 l 9.580707277104922 -21.92253318312753" fill="#ff960d" stroke="none" /><path d="M 89.97174638481275 118.45085714620012 l -14.077906272196904 25.901761913213193 a50.480310636381404,50.480310636381404 0 0,0 -0.7578195862764071,-0.4203497499530022 l 14.520470046629413 -25.656279247827044" fill="#fff316" stroke="none" /><line stroke="#e1ed5e" stroke-width="0.3" x1="58.13341422392154" x2="55.67067388415222" y1="173.97424548756322" y2="178.32567169271397" /><path d="M 57.64086615596768 174.84453072859336 a86.0,86.0 0 0,1 -31.369924170532247,-30.572349798747897" fill="none" id="id20" stroke="none" /><text fill="#e1ed5e" style="font-size:6.75px; font-family:Arial;" text-anchor="middle"><textPath startOffset="22.145653131862474" xlink:href="#id20">August</textPath></text><path d="M 89.03521579738668 117.91015095944536 l -15.98828508849001 26.115662125776865 a51.62112127827079,51.62112127827079 0 0,0 -0.7517900285234216,-0.4691725799487134 l 16.434239245803145 -25.8373537489866" fill="#f9ff18" stroke="none" /><path d="M 88.4268655584334 117.5232005979908 l -18.276042147000894 27.67225718289329 a54.16274316390522,54.16274316390522 0 0,0 -0.7714417870082182,-0.5190604626522075 l 18.748380222106118 -27.35444704618396" fill="#d2ff1c" stroke="none" /><path d="M 85.86807049272751 115.53346607816431 l -18.199377335536752 20.00430375341112 a48.04421387395069,48.04421387395069 0 0,0 -0.6052889834129429,-0.5602464466071979 l 18.540096090263663 -19.688939560671542" fill="#ffcb12" stroke="none" /><path d="M 82.576782715395 111.72311816256416 l -27.90899333432527 18.77841625413261 a54.6383832243597,54.6383832243597 0 0,0 -0.5169195925506676,-0.7826821470908996 l 28.227237365796665 -18.296554228702647" fill="#caff1d" stroke="none" /><line stroke="#e1ed5e" stroke-width="0.3" x1="26.387840678322732" x2="22.057713659400548" y1="142.50000000000003" y2="145.00000000000006" /><path d="M 25.521815274538298 143.00000000000003 a86.0,86.0 0 0,1 -11.493303480769221,-40.785679425670985" fill="none" id="id21" stroke="none" /><text fill="#e1ed5e" style="font-size:6.75px; font-family:Arial;" text-anchor="middle"><textPath startOffset="21.40746469413373" xlink:href="#id21">September</textPath></text><path d="M 81.63589988554817 110.18625677009913 l -26.146809624052157 14.503194542045472 a50.89980443817056,50.89980443817056 0 0,0 -0.41726847798577843,-0.7677270015656805 l 26.391923451653266 -14.052212707005205" fill="#fff917" stroke="none" /><path d="M 81.29705330413844 109.54985784667822 l -24.136769882580236 12.32440668333987 a48.101192971177205,48.101192971177205 0 0,0 -0.3691883075101585,-0.7386239244630788 l 24.34477810330213 -11.90825090271304" fill="#ffcc13" stroke="none" /><path d="M 80.83023694016515 108.57439118712176 l -29.810123290492623 13.333688978376733 a53.65625073958209,53.65625073958209 0 0,0 -0.36886402975226934,-0.8440330863286476 l 30.03462120226186 -12.819993822272234" fill="#d9ff1c" stroke="none" /><path d="M 80.16572619554312 106.89939002012753 l -20.61722891856063 7.171742451767418 a42.828971988502246,42.828971988502246 0 0,0 -0.23558907827336792,-0.6964772484793597 l 20.737303418406366 -6.8167635288138975" fill="#ff710a" stroke="none" /><path d="M 79.83685265289637 105.86919833188381 l -28.746427564749794 8.367666109174369 a50.93952126955326,50.93952126955326 0 0,0 -0.23718777155886547,-0.8416957257480855 l 28.885833828383234 -7.872962459523287" fill="#fffa17" stroke="none" /><path d="M 79.56144815229197 104.8234425847677 l -27.78812961814964 6.557922926729187 a49.55147107922822,49.55147107922822 0 0,0 -0.18826996123627762,-0.829552187346188 l 27.896610440943583 -6.079936405443973" fill="#ffe415" stroke="none" /><path d="M 79.48165901384964 104.47187691870673 l -28.16425426605985 6.138268131424143 a49.825397725209754,49.825397725209754 0 0,0 -0.17496375654015972,-0.8372649126375201 l 28.265475733424378 -5.653886767501214" fill="#ffe815" stroke="none" /><path d="M 79.2786578344484 103.40968896794605 l -30.270052552870613 4.980925628468936 a51.67712016584815,51.67712016584815 0 0,0 -0.13652235797108098,-0.8765714727058904 l 30.351096402979962 -4.460565973831595" fill="#f8ff18" stroke="none" /><path d="M 79.0935383218832 101.97986365728391 l -29.944858077463145 2.835809193487317 a51.07883540068127,51.07883540068127 0 0,0 -0.0751743694787357,-0.8736401238327456 l 29.98912606963962 -2.3213480222789094" fill="#fffc17" stroke="none" /><path d="M 79.03789590574601 101.26102812881392 l -22.794210833998793 1.3712431207545912 a43.83541887596995,43.83541887596995 0 0,0 -0.03873884284968353,-0.7515232021188221 l 22.814391266305048 -0.9797481252590383" fill="#ff830c" stroke="none" /><line stroke="#e1ed5e" stroke-width="0.3" x1="15.003131293944662" x2="10.003315487706104" y1="100.72959589197737" y2="100.7725132973878" /><path d="M 14.003168132696942 100.73817937305945 a86.0,86.0 0 0,1 10.791469493833604,-42.45332614584628" fill="none" id="id22" stroke="none" /><text fill="#e1ed5e" style="font-size:6.75px; font-family:Arial;" text-anchor="middle"><textPath startOffset="22.145653131862435" xlink:href="#id22">October</textPath></text><path d="M 79.00077361379809 100.18025310272382 l -20.947277993382684 0.17980718824987993 a41.9480496933963,41.9480496933963 0 0,0 0.0,-0.7201205819473873 l 20.947277993382684 0.17980718824987224" fill="#ff6109" stroke="none" /><path d="M 79.0935383218832 98.0201363427161 l -33.28124623626528 -3.1517686209555564 a54.43015100891652,54.43015100891652 0 0,0 0.09607597498868058,-0.9294479049169342 l 33.222237868794934 3.7226210481554034" fill="#cdff1d" stroke="none" /><path d="M 79.73907114497095 94.47779374421319 l -32.893979133443885 -8.96540028584806 a55.09387431074571,55.09387431074571 0 0,0 0.25653152893134107,-0.9103398965386716 l 32.73522911243796 9.528748106289745" fill="#c3ff1e" stroke="none" /><path d="M 80.05021161711548 93.44210830539832 l -28.68258311337051 -9.428534777856031 a51.19251301420019,51.19251301420019 0 0,0 0.28159435997555016,-0.8324836892290025 l 28.516503331822594 9.919520141559197" fill="#fffe18" stroke="none" /><path d="M 80.5471966667186 92.08871423366112 l -38.1306535862271 -15.507404861375871 a62.16341031119114,62.16341031119114 0 0,0 0.41049802026841875,-0.9850458120870543 l 37.8588297214222 16.15968318290419" fill="#5fff29" stroke="none" /><line stroke="#e1ed5e" stroke-width="0.3" x1="26.387840678322718" x2="22.05771365940052" y1="57.49999999999999" y2="54.99999999999999" /><path d="M 25.521815274538284 56.99999999999999 a86.0,86.0 0 0,1 29.574782752854787,-30.34633250058573" fill="none" id="id23" stroke="none" /><text fill="#e1ed5e" style="font-size:6.75px; font-family:Arial;" text-anchor="middle"><textPath startOffset="21.40746469413373" xlink:href="#id23">November</textPath></text><path d="M 81.81346652052679 89.5 l -27.47062938783811 -15.86017527187678 a52.720350543753554,52.720350543753554 0 0,0 0.45923514883934796,-0.7798816811223974 l 27.19432052886898 16.32940812129275" fill="#e8ff1a" stroke="none" /><path d="M 82.576782715395 88.27688183743585 l -28.62298961770537 -19.25882481823243 a55.49895459335884,55.49895459335884 0 0,0 0.5386312639117828,-0.7858791112376317 l 28.28816861697828 19.747338664540095" fill="#bdff1f" stroke="none" /><path d="M 83.64595745247003 86.82634096563983 l -23.92285701080449 -19.270560197710246 a51.719010040900926,51.719010040900926 0 0,0 0.5628830595560546,-0.6866258091531388 l 23.588527132009805 19.67838828856188" fill="#f8ff18" stroke="none" /><path d="M 85.08716467003674 85.21462403516908 l -21.91313423899256 -21.7258436187743 a51.85770135838935,51.85770135838935 0 0,0 0.6321900262492556,-0.6267867251595663 l 21.536952292613325 22.098810354162538" fill="#f5ff19" stroke="none" /><path d="M 86.40962598614128 83.9905735841838 l -21.4078892950519 -25.218439760199193 a54.079713239506674,54.079713239506674 0 0,0 0.7128882202790219,-0.5947167081049219 l 20.971826740610965 25.582218652215996" fill="#d3ff1c" stroke="none" /><line stroke="#e1ed5e" stroke-width="0.3" x1="56.869717070023135" x2="54.33264160355391" y1="26.7553504044142" y2="22.446841604673864" /><path d="M 56.362301976729285 25.89364864446614 a86.0,86.0 0 0,1 42.16139366436587,-11.88097634709845" fill="none" id="id24" stroke="none" /><text fill="#e1ed5e" style="font-size:6.75px; font-family:Arial;" text-anchor="middle"><textPath startOffset="22.145653131862474" xlink:href="#id24">December</textPath></text><path d="M 89.34428304082924 81.90426304109057 l -17.422344297697343 -29.586949505762927 a55.335486917824134,55.335486917824134 0 0,0 0.8226740862074766,-0.47497110512721347 l 16.911877743629468 29.881667508166316" fill="#c0ff1e" stroke="none" /><path d="M 90.28995756902619 81.37971332152246 l -14.138668348336735 -27.11276081123608 a51.57783088238206,51.57783088238206 0 0,0 0.7885827361615906,-0.4026559639585657 l 13.671158390461562 27.35147472686748" fill="#faff18" stroke="none" /><path d="M 92.25597844496254 80.48000691201159 l -11.894533007118065 -29.981993261984304 a53.25522958248931,53.25522958248931 0 0,0 0.8526612072813354,-0.32982767222537573 l 11.378099537343202 30.18176082234772" fill="#dfff1b" stroke="none" /><path d="M 94.30408787586887 79.78721728523814 l -8.896923782958856 -31.572043833484614 a53.80166466238036,53.80166466238036 0 0,0 0.8911056966786379,-0.24287482020077894 l 8.35363668534554 31.720119147829532" fill="#d7ff1c" stroke="none" /><path d="M 96.41257539226777 79.30868818359171 l -5.155820177595304 -29.737400678474945 a51.181045058378295,51.181045058378295 0 0,0 0.8669642449771197,-0.14265863659239905 l 4.644578429565112 29.82152531356301" fill="#fffe18" stroke="none" /><path d="M 98.9189461498227 79.02784411241856 l -1.9951350946846809 -38.70508783225695 a59.75647543506462,59.75647543506462 0 0,0 1.0248925280476275,-0.044013294995500794 l 1.3304168060362334 38.73363369567828" fill="#80ff26" stroke="none" /></svg>