<?xml version="1.0" encoding="utf-8" ?>
<svg baseProfile="full" height="200mm" version="1.1" viewBox="0,0,200,200" width="200mm" xmlns="http://www.w3.org/2000/svg" xmlns:ev="http://www.w3.org/2001/xml-events" xmlns:xlink="http://www.w3.org/1999/xlink"><defs /><rect fill="#1a1a1a" height="200" width="200" x="0" y="0" /><text alignment-baseline="middle" fill="#e1ed5e" style="dominant-baseline: central; font-size:9.0px; font-family:Arial;" text-anchor="middle" x="100.0" y="100.0">2020</text><line stroke="#e1ed5e" stroke-width="0.3" x1="100.0" x2="100.0" y1="15.0" y2="10.0" /><path d="M 100.0 14.0 a86.0,86.0 0 0,1 42.35913384403234,11.155469271406648" fill="none" id="id61" stroke="none" /><text fill="#e1ed5e" style="font-size:6.75px; font-family:Arial;" text-anchor="middle"><textPath startOffset="22.145653131862478" xlink:href="#id61">January</textPath></text><path d="M 103.23170211078529 79.25015418208739 l 8.069008723586801 -51.80882432172335 a73.43341662890673,73.43341662890673 0 0,0 1.243900872503756,0.20468341521069705 l -8.957187099143628 51.66267490801698" fill="#3cffa6" stroke="none" /><path d="M 104.9986988182912 79.60360301121754 l 7.73273952666046 -31.552216072608473 a53.485960039373154,53.485960039373154 0 0,0 0.8898910154530978,0.22620681623643163 l -8.273235835338951 31.414824024536774" fill="#d1ff1c" stroke="none" /><path d="M 107.06938296918511 80.22567764915836 l 13.94621438055697 -39.01004372477299 a62.42801476002869,62.42801476002869 0 0,0 1.0060151159757207,0.36942268534760686 l -14.613818648186816 38.764890190416665" fill="#54ff2b" stroke="none" /><path d="M 107.40779381753099 80.34994680014964 l 6.563950135486051 -17.41165757856574 a39.60782794993476,39.60782794993476 0 0,0 0.6341547799596311,0.24530469208465952 l -6.861877177939208 17.296412998343044" fill="#ff4906" stroke="none" /><path d="M 108.07796709384702 80.6158196554323 l 10.752054147781623 -25.80101580679985 a48.95172776519483,48.95172776519483 0 0,0 0.7728893303211619,0.32990049627365703 l -11.193378553273215 25.61264066086679" fill="#ffe715" stroke="none" /><path d="M 109.3889696526874 81.21577127319529 l 21.122728294729264 -42.2596061441924 a68.24451250754123,68.24451250754123 0 0,0 1.0434026301713657,0.5327688175035816 l -21.845058146614207 41.89077937501598" fill="#34ff5b" stroke="none" /><line stroke="#e1ed5e" stroke-width="0.3" x1="143.13028292997686" x2="145.6673583964461" y1="26.7553504044142" y2="22.446841604673864" /><path d="M 143.63769802327073 25.89364864446614 a86.0,86.0 0 0,1 29.32050498858742,28.57503671076993" fill="none" id="id62" stroke="none" /><text fill="#e1ed5e" style="font-size:6.75px; font-family:Arial;" text-anchor="middle"><textPath startOffset="20.669276256404974" xlink:href="#id62">February</textPath></text><path d="M 110.65571695917076 81.90426304109057 l 26.277206659504756 -44.62444165392939 a72.7864111785251,72.7864111785251 0 0,0 1.0712331172868528,0.6432447079033328 l -27.03937253334904 44.166782945490134" fill="#3bff9d" stroke="none" /><path d="M 111.5731344415666 82.4767994020092 l 16.131901283273205 -24.425754633808268 a50.27209812166319,50.27209812166319 0 0,0 0.7160271977781545,0.4817750539436772 l -16.54882476914836 24.145229905807472" fill="#fffc17" stroke="none" /><path d="M 112.45986205192187 83.09580414077388 l 17.818999949635334 -24.17489566970887 a51.03235488346548,51.03235488346548 0 0,0 0.7007155714043966,0.5258300281282029 l -18.2313685099505 23.865446614316653" fill="#f6ff19" stroke="none" /><path d="M 113.31354834802062 83.75963576809568 l 18.647965431416324 -22.747485709562014 a50.41419250698591,50.41419250698591 0 0,0 0.6645686861160426,0.5544068341623755 l -19.03570845169426 22.42401669148777" fill="#fffe18" stroke="none" /><path d="M 114.13192950727249 84.46653392183569 l 19.850896431571073 -21.81961254351567 a50.498365729072304,50.498365729072304 0 0,0 0.6362078175815093,0.5888644579222315 l -20.222534020466547 21.475630339461066" fill="#ffff18" stroke="none" /><path d="M 114.91283532996326 85.21462403516908 l 21.039083998019787 -20.85926384779219 a50.626878737854625,50.626878737854625 0 0,0 0.6065900431895979,0.6224148219786753 l -21.394060842360197 20.49502633374577" fill="#fdff18" stroke="none" /><path d="M 115.41159269507618 85.73525988315684 l 21.756006982951575 -20.137035265094976 a50.644966336798504,50.644966336798504 0 0,0 0.5850754892425254,0.6431004528176566 l -22.098480173035977 19.760597236719647" fill="#fcff18" stroke="none" /><path d="M 115.8921839302757 86.27271002978787 l 22.416978909801422 -19.363252470589494 a50.62189206789924,50.62189206789924 0 0,0 0.5623982202379566,0.6625036893101071 l -22.74607169354649 18.975581998829835" fill="#fdff18" stroke="none" /><path d="M 116.35404254752997 86.82634096563983 l 23.18674857253309 -18.67760334622112 a50.77378336934417,50.77378336934417 0 0,0 0.5409428468121718,0.6834636157385804 l -23.503957849986822 18.276819786567863" fill="#faff18" stroke="none" /><path d="M 117.01052211995028 87.68569379921539 l 23.881010566693323 -17.288009999265906 a50.481824153556644,50.481824153556644 0 0,0 0.5021376602068349,0.7063195035029123 l -24.17426332543012 16.87551326905349" fill="#ffff18" stroke="none" /><path d="M 117.81537515405839 88.88188828441811 l 25.12792702468285 -15.681684916849532 a50.61972245631503,50.61972245631503 0 0,0 0.4537263522216552,0.741127897494917 l -25.393421341359907 15.24801990323006" fill="#fdff18" stroke="none" /><line stroke="#e1ed5e" stroke-width="0.3" x1="172.87174338648825" x2="177.1583165268699" y1="56.24261187166439" y2="53.66864786411523" /><path d="M 173.72905801456457 55.72781907015455 a86.0,86.0 0 0,1 12.242430191666344,42.057860355516425" fill="none" id="id63" stroke="none" /><text fill="#e1ed5e" style="font-size:6.75px; font-family:Arial;" text-anchor="middle"><textPath startOffset="22.145653131862474" xlink:href="#id63">March</textPath></text><path d="M 118.18653347947321 89.5 l 25.88790954335959 -14.946391543615345 a50.89278308723068,50.89278308723068 0 0,0 0.43032667797602764,0.7603460068777491 l -26.140669586356992 14.499788766638478" fill="#f8ff18" stroke="none" /><path d="M 118.70294669586156 90.45014215332178 l 26.143894120029 -13.349258620307614 a50.35482763483962,50.35482763483962 0 0,0 0.3864854994472131,0.7732298952667152 l -26.36919953268795 12.898496868877148" fill="#fffd17" stroke="none" /><path d="M 119.16976305983485 91.42560881287824 l 26.851451733052865 -12.010312823516836 a50.4150994268454,50.4150994268454 0 0,0 0.3465824853324826,0.7930485522242321 l -27.05366810040232 11.547602201516755" fill="#fffe18" stroke="none" /><path d="M 119.4528033332814 92.08871423366111 l 27.927303279067825 -11.357791118255715 a51.14852712035798,51.14852712035798 0 0,0 0.32379776042435765,0.8161818766217299 l -28.118159714458304 10.87670822442042" fill="#f5ff19" stroke="none" /><path d="M 119.83427380445688 93.10060997987247 l 28.241167533401335 -9.823744058273281 a50.900994815759915,50.900994815759915 0 0,0 0.2799908075090353,0.827743071294352 l -28.405643762482736 9.337499312504766" fill="#f8ff18" stroke="none" /><path d="M 120.05942366710727 93.78553927170692 l 14.647956431544198 -4.537974345835559 a36.334791775041445,36.334791775041445 0 0,0 0.17946563403853488,0.5973827276801371 l -14.723698385586362 4.2858540145646975" fill="#ff0e01" stroke="none" /><path d="M 120.43855184770803 95.1765574152323 l 28.682120860223954 -6.768902425646779 a50.47002031028178,50.47002031028178 0 0,0 0.19175997322497434,0.8449298241188137 l -28.794091695006593 6.275538267588939" fill="#ffff18" stroke="none" /><path d="M 120.7213421655516 96.59031103205396 l 31.592090546851374 -5.198466477284007 a53.01693674972516,53.01693674972516 0 0,0 0.1400619305845107,0.8992980680021613 l -31.67667396957415 4.655380227350404" fill="#d8ff1c" stroke="none" /><path d="M 120.96210409425399 98.7389718711861 l 32.17445819232812 -1.9355355086226549 a53.23262412021412,53.23262412021412 0 0,0 0.04704347108223265,0.9126307712310133 l -32.20294325286692 1.3829329440149107" fill="#d5ff1c" stroke="none" /><line stroke="#e1ed5e" stroke-width="0.3" x1="184.99686870605535" x2="189.99668451229388" y1="99.2704041080226" y2="99.22748670261217" /><path d="M 185.99683186730306 99.26182062694052 a86.0,86.0 0 0,1 -10.086455211305974,41.156179273409016" fill="none" id="id64" stroke="none" /><text fill="#e1ed5e" style="font-size:6.75px; font-family:Arial;" text-anchor="middle"><textPath startOffset="21.40746469413373" xlink:href="#id64">April</textPath></text><path d="M 120.82617615685814 102.69636545807757 l 29.103227846707096 3.767995511676345 a50.34613537202745,50.34613537202745 0 0,0 -0.11832656432682126,0.8561520751567744 l -29.034256765825067 -4.267035895033204" fill="#fffd17" stroke="none" /><path d="M 120.65975698304385 103.76489593502545 l 28.977652603848984 5.280693600817808 a50.454882028877215,50.454882028877215 0 0,0 -0.1625937590171606,0.850759252760578 l -28.882732552549662 -5.777355418611701" fill="#ffff18" stroke="none" /><path d="M 120.43855184770803 104.8234425847677 l 28.68600913759633 6.769820048519433 a50.47401539884913,50.47401539884913 0 0,0 -0.20625238609665786,0.8415801190737197 l -28.565569224983374 -7.261255992201252" fill="#ffff18" stroke="none" /><path d="M 120.26092885502905 105.52220625578681 l 29.241186353529667 7.969815370434443 a51.3078362210281,51.3078362210281 0 0,0 -0.2389027425753631,0.8477815528751885 l -29.100065118879723 -8.47060484721264" fill="#f2ff19" stroke="none" /><path d="M 120.05942366710727 106.21446072829308 l 30.453946136180427 9.434710359858407 a52.88191642357464,52.88191642357464 0 0,0 -0.27608209225438385,0.8648232217904634 l -30.287499328148787 -9.956102615340253" fill="#daff1c" stroke="none" /><path d="M 119.83427380445688 106.89939002012753 l 48.22710752372878 16.775891450790773 a72.06157492747371,72.06157492747371 0 0,0 -0.41644668950304065,1.1648755083816362 l -47.9320206641818 -17.60130191555333" fill="#3aff93" stroke="none" /><path d="M 118.8641267826498 109.22738970284198 l 14.68881620901881 7.185036073798026 a37.35194376837545,37.35194376837545 0 0,0 -0.2866852161093928,0.5735624750316273 l -14.563311079697685 -7.436130404993398" fill="#ff2103" stroke="none" /><line stroke="#e1ed5e" stroke-width="0.3" x1="174.33088141563837" x2="178.70328620479359" y1="141.23008692659167" y2="143.65538615756765" /><path d="M 175.20536237346943 141.71514677278685 a86.0,86.0 0 0,1 -30.301960400862466,31.631185727798858" fill="none" id="id65" stroke="none" /><text fill="#e1ed5e" style="font-size:6.75px; font-family:Arial;" text-anchor="middle"><textPath startOffset="22.145653131862474" xlink:href="#id65">May</textPath></text><path d="M 117.81537515405839 111.11811171558189 l 25.016524020367406 15.612161202826114 a50.48840537371677,50.48840537371677 0 0,0 -0.4651720579921212,0.7313277381887856 l -24.744834270749394 -16.039302615693572" fill="#ffff18" stroke="none" /><path d="M 117.423217284605 111.72311816256416 l 24.69089496617781 16.613136052875966 a50.75964690217597,50.75964690217597 0 0,0 -0.4926350949663759,0.7187693261341227 l -24.402070134396116 -17.03454011408013" fill="#fbff18" stroke="none" /><path d="M 117.01052211995028 112.31430620078461 l 26.06511486968406 18.869133081310242 a53.17816645506735,53.17816645506735 0 0,0 -0.5416524955701869,0.7348556376147608 l -25.737360354530043 -19.31379502819388" fill="#d6ff1c" stroke="none" /><path d="M 116.79662413953412 112.60449989151573 l 26.05899958173276 19.555159100563742 a53.580296294679535,53.580296294679535 0 0,0 -0.5583781855648146,0.7309349690849047 l -25.71946941881364 -19.999614982889522" fill="#d0ff1d" stroke="none" /><path d="M 116.1254893667686 113.45245675266167 l 22.71317962034723 18.948142261519884 a50.579057179513896,50.579057179513896 0 0,0 -0.5619223339364334,0.6619430964435074 l -22.38456272290368 -19.335252140412948" fill="#fdff18" stroke="none" /><path d="M 114.91283532996324 114.78537596483092 l 20.70958367354362 20.532579748483098 a50.162882008802264,50.162882008802264 0 0,0 -0.6115287192295523,0.6063020094464303 l -20.3540630341841 -20.88506176815819" fill="#fffa17" stroke="none" /><path d="M 114.65682725009322 115.03919595460226 l 20.204692727962883 20.731794675169457 a49.94886731263904,49.94886731263904 0 0,0 -0.6191935457782234,0.593173410130871 l -19.84582669631935 -21.075580215605907" fill="#fff717" stroke="none" /><path d="M 114.13192950727249 115.5334660781643 l 33.241102481793355 36.53779461155671 a70.39616715172738,70.39616715172738 0 0,0 -0.9008529567264982,0.8055482688398271 l -32.60898449824348 -37.10303841027993" fill="#37ff7b" stroke="none" /><path d="M 113.86319453409587 115.77377054828091 l 19.125884040549973 21.761745148037665 a49.97193456123883,49.97193456123883 0 0,0 -0.6492080563930341,0.5607704567354808 l -18.749496504394084 -22.086859737237866" fill="#fff717" stroke="none" /><path d="M 111.27062007382361 117.71928675628689 l 15.765761143622377 24.78639514109689 a50.37557843734051,50.37557843734051 0 0,0 -0.7336504247193375,0.45785212557567184 l -15.337946590113326 -25.053383063514108" fill="#fffd18" stroke="none" /><path d="M 110.96478420261333 117.91015095944535 l 7.618423043750243 12.444121495246888 a35.59097424649946,35.59097424649946 0 0,0 -0.5238097286571834,0.3145326917827054 l -7.403680558535624 -12.573068187565516" fill="#ff0000" stroke="none" /><line stroke="#e1ed5e" stroke-width="0.3" x1="143.1302829299769" x2="145.66735839644613" y1="173.24464959558577" y2="177.55315839532614" /><path d="M 143.63769802327073 174.10635135553383 a86.0,86.0 0 0,1 -40.68552437913181,11.842963189579606" fill="none" id="id66" stroke="none" /><text fill="#e1ed5e" style="font-size:6.75px; font-family:Arial;" text-anchor="middle"><textPath startOffset="21.407464694133747" xlink:href="#id66">June</textPath></text><path d="M 110.02825361518725 118.45085714620011 l 14.590443273706546 26.844772267745338 a51.55360589243695,51.55360589243695 0 0,0 -0.7811873324526507,0.4159382539795538 l -14.12746712546734 -27.091280989447462" fill="#eeff19" stroke="none" /><path d="M 109.3889696526874 118.78422872680471 l 13.181012272424077 26.370854154924757 a50.48153716118117,50.48153716118117 0 0,0 -0.778472781483071,0.3807900471919221 l -12.726379241678936 -26.5932379522139" fill="#ffff18" stroke="none" /><path d="M 108.07796709384702 119.3841803445677 l 11.451848112202102 27.480266570361255 a50.77095692051334,50.77095692051334 0 0,0 -0.8073683126046545,0.3283496640699778 l -10.978425338407007 -27.672803491010523" fill="#faff18" stroke="none" /><path d="M 107.407793817531 119.65005319985036 l 10.674073022012417 28.31424684705109 a51.259418523742255,51.259418523742255 0 0,0 -0.8260353956350368,0.3033316390596212 l -10.186448474723253 -28.49330933511943" fill="#f3ff19" stroke="none" /><path d="M 106.38641147887787 120.00534299687104 l 9.04361988502803 28.329010482910142 a50.737516634139226,50.737516634139226 0 0,0 -0.8319971008475056,0.2577548286070054 l -8.555982151308898 -28.480081899323793" fill="#fbff18" stroke="none" /><path d="M 105.3480935250658 120.30758222061773 l 7.974482771632192 30.28040998027006 a52.312866429764895,52.312866429764895 0 0,0 -0.8703732679412696,0.22124548114247886 l -7.453504210465526 -30.412840693247812" fill="#e3ff1b" stroke="none" /><path d="M 104.64783097203109 120.47920084513623 l 6.602966751564923 29.093889836523626 a50.833766033507146,50.833766033507146 0 0,0 -0.8526458524662291,0.1858301950459066 l -6.102558482479557 -29.202951489703253" fill="#f9ff18" stroke="none" /><path d="M 103.2317021107853 120.74984581791261 l 4.671757256899818 29.996032881826963 a51.357656439768874,51.357656439768874 0 0,0 -0.8722850803281588,0.1281958680217821 l -4.156147070963974 -30.07180982314763" fill="#f1ff19" stroke="none" /><line stroke="#e1ed5e" stroke-width="0.3" x1="101.45913802915013" x2="101.54496967792366" y1="184.9874750549273" y2="189.98673829345242" /><path d="M 101.47630435890484 185.9873277026323 a86.0,86.0 0 0,1 -42.54439059252881,-10.42667462771756" fill="none" id="id67" stroke="none" /><text fill="#e1ed5e" style="font-size:6.75px; font-family:Arial;" text-anchor="middle"><textPath startOffset="22.145653131862474" xlink:href="#id67">July</textPath></text><path d="M 96.41257539226777 120.69131181640829 l -5.114216747875825 29.497443151534195 a50.937507668846536,50.937507668846536 0 0,0 -0.8602745109341202,-0.15677067314393345 l 5.619825992361003 -29.405304304458895" fill="#f8ff18" stroke="none" /><path d="M 95.00130118170881 120.39639698878247 l -7.528207993056936 30.717657618949175 a52.626703988587124,52.626703988587124 0 0,0 -0.8755948480289139,-0.22257278638193356 l 8.05440813431123 -30.583899600731982" fill="#deff1b" stroke="none" /><line stroke="#e1ed5e" stroke-width="0.3" x1="58.13341422392154" x2="55.67067388415222" y1="173.97424548756322" y2="178.32567169271397" /><path d="M 57.64086615596768 174.84453072859336 a86.0,86.0 0 0,1 -31.369924170532247,-30.572349798747897" fill="none" id="id68" stroke="none" /><text fill="#e1ed5e" style="font-size:6.75px; font-family:Arial;" text-anchor="middle"><textPath startOffset="22.145653131862474" xlink:href="#id68">August</textPath></text><path d="M 86.68645165197938 116.24036423190432 l -9.861720188984735 12.029695137288316 a36.555291388525234,36.555291388525234 0 0,0 -0.481878232311168,-0.40199995998720167 l 10.066772755457796 -11.858632993389245" fill="#ff1202" stroke="none" /><line stroke="#e1ed5e" stroke-width="0.3" x1="26.387840678322732" x2="22.057713659400548" y1="142.50000000000003" y2="145.00000000000006" /><path d="M 25.521815274538298 143.00000000000003 a86.0,86.0 0 0,1 -11.493303480769221,-40.785679425670985" fill="none" id="id69" stroke="none" /><text fill="#e1ed5e" style="font-size:6.75px; font-family:Arial;" text-anchor="middle"><textPath startOffset="21.40746469413373" xlink:href="#id69">September</textPath></text><path d="M 80.05021161711548 106.5578916946017 l -17.77020638210687 5.841419798946606 a39.70567882035285,39.70567882035285 0 0,0 -0.2072925420345913,-0.6493409354863344 l 17.867863639918717 -5.53550982976888" fill="#ff4b07" stroke="none" /><path d="M 79.56144815229197 104.8234425847677 l -30.642673276653532 7.231587457616697 a52.48442921027624,52.48442921027624 0 0,0 -0.19941368515836133,-0.8786534911019425 l 30.76229782336956 -6.704499632575728" fill="#e0ff1b" stroke="none" /><path d="M 79.34024301695615 103.76489593502545 l -51.625217383887026 9.407834333817304 a73.475426789938,73.475426789938 0 0,0 -0.21547607469972893,-1.242808738329472 l 51.779108276078986 -8.520232562567239" fill="#3cffa7" stroke="none" /><path d="M 79.17382384314188 102.69636545807758 l -50.29479032860021 6.511667544818793 a71.71457136180985,71.71457136180985 0 0,0 -0.1475882932876219,-1.2222427879580882 l 50.39916070814749 -5.647331079937305" fill="#39ff8e" stroke="none" /><line stroke="#e1ed5e" stroke-width="0.3" x1="15.003131293944662" x2="10.003315487706104" y1="100.72959589197737" y2="100.7725132973878" /><path d="M 14.003168132696942 100.73817937305945 a86.0,86.0 0 0,1 10.791469493833604,-42.45332614584628" fill="none" id="id70" stroke="none" /><text fill="#e1ed5e" style="font-size:6.75px; font-family:Arial;" text-anchor="middle"><textPath startOffset="22.145653131862435" xlink:href="#id70">October</textPath></text><path d="M 79.13060592940154 97.66154086499901 l -51.20600641512901 -5.737739824323707 a72.52646651263663,72.52646651263663 0 0,0 0.1492591701730564,-1.2360800454892051 l 51.099965158696286 6.615913546736349" fill="#3bff99" stroke="none" /><path d="M 79.48165901384962 95.52812308129327 l -50.2358905464189 -10.948678529947577 a72.41515594203634,72.41515594203634 0 0,0 0.2751401382277453,-1.212318215793933 l 50.04053954663349 11.809431079680518" fill="#3bff98" stroke="none" /><path d="M 79.73907114497095 94.47779374421319 l -32.3792113435674 -8.82509803564654 a54.560328999730864,54.560328999730864 0 0,0 0.25404720202383785,-0.9015238967691072 l 32.22294564946898 9.37962985631866" fill="#c1ff1e" stroke="none" /><path d="M 80.16572619554312 93.10060997987247 l -31.484580087314622 -10.95197130905355 a54.33503350574078,54.33503350574078 0 0,0 0.3140043060434928,-0.8783259294795422 l 31.291935611227185 11.490832194914013" fill="#c5ff1e" stroke="none" /><path d="M 80.83023694016515 91.42560881287825 l -16.16223429649885 -7.2291618255030405 a38.70532682991856,38.70532682991856 0 0,0 0.27649525320716906,-0.6041920277061614 l 16.03575457843663 7.505542835423873" fill="#ff3905" stroke="none" /><path d="M 81.29705330413844 90.45014215332179 l -26.508705348334033 -13.535533832863065 a50.76444414709225,50.76444414709225 0 0,0 0.40295348677583886,-0.7727164423014522 l 26.272443792583253 13.988596518269002" fill="#faff18" stroke="none" /><line stroke="#e1ed5e" stroke-width="0.3" x1="26.387840678322718" x2="22.05771365940052" y1="57.49999999999999" y2="54.99999999999999" /><path d="M 25.521815274538284 56.99999999999999 a86.0,86.0 0 0,1 29.574782752854787,-30.34633250058573" fill="none" id="id71" stroke="none" /><text fill="#e1ed5e" style="font-size:6.75px; font-family:Arial;" text-anchor="middle"><textPath startOffset="21.40746469413373" xlink:href="#id71">November</textPath></text><path d="M 83.8745106332314 86.54754324733833 l -15.355760947042855 -12.81032192858655 a40.997593409626866,40.997593409626866 0 0,0 0.4554743535995639,-0.5365476432663143 l 15.133592029936176 13.072036354302421" fill="#ff6209" stroke="none" /><path d="M 84.34580500576568 86.00192230759919 l -13.965520398679539 -12.488054456171453 a39.7346540962527,39.7346540962527 0 0,0 0.45903421142876555,-0.5045590093183138 l 13.749088486408908 12.725951041047423" fill="#ff4c07" stroke="none" /><path d="M 84.83555147118756 85.47280134310135 l -45.49334558643735 -43.58159597069595 a84.0,84.0 0 0,0 1.0064527953967901,-1.0327092317290787 l 44.73850598988975 44.35612789449276" fill="#4dd2ff" stroke="none" /><path d="M 85.86807049272753 84.46653392183569 l -14.614079602878018 -16.063433493499783 a42.71647343007943,42.71647343007943 0 0,0 0.5466385876872233,-0.48880759585071526 l 14.336175988367403 16.311936619233897" fill="#ff800b" stroke="none" /><path d="M 88.4268655584334 82.4767994020092 l -16.247475636876512 -24.600748935689023 a50.481813254406525,50.481813254406525 0 0,0 0.7272130390083655,-0.47137070594654273 l 15.82277696561112 24.87603348333947" fill="#ffff18" stroke="none" /><line stroke="#e1ed5e" stroke-width="0.3" x1="56.869717070023135" x2="54.33264160355391" y1="26.7553504044142" y2="22.446841604673864" /><path d="M 56.362301976729285 25.89364864446614 a86.0,86.0 0 0,1 42.16139366436587,-11.88097634709845" fill="none" id="id72" stroke="none" /><text fill="#e1ed5e" style="font-size:6.75px; font-family:Arial;" text-anchor="middle"><textPath startOffset="22.145653131862474" xlink:href="#id72">December</textPath></text><path d="M 90.61103034731259 81.2157712731953 l -14.532868784012884 -29.075472750878546 a53.50519021295548,53.50519021295548 0 0,0 0.8251003553214257,-0.4035979300937866 l 14.031608179429405 29.320664431069545" fill="#d1ff1c" stroke="none" /></svg>