<?xml version="1.0" encoding="utf-8" ?>
<svg baseProfile="full" height="200mm" version="1.1" viewBox="0,0,200,200" width="200mm" xmlns="http://www.w3.org/2000/svg" xmlns:ev="http://www.w3.org/2001/xml-events" xmlns:xlink="http://www.w3.org/1999/xlink"><defs /><rect fill="#1a1a1a" height="200" width="200" x="0" y="0" /><text alignment-baseline="middle" fill="#e1ed5e" style="dominant-baseline: central; font-size:9.0px; font-family:Arial;" text-anchor="middle" x="100.0" y="100.0">2022</text><line stroke="#e1ed5e" stroke-width="0.3" x1="100.0" x2="100.0" y1="15.0" y2="10.0" /><path d="M 100.0 14.0 a86.0,86.0 0 0,1 42.46469731375804,11.215312516191453" fill="none" id="id85" stroke="none" /><text fill="#e1ed5e" style="font-size:6.75px; font-family:Arial;" text-anchor="middle"><textPath startOffset="22.20632615414155" xlink:href="#id85">January</textPath></text><path d="M 100.72285384407766 79.0124445844662 l 1.5840120357306005 -45.99068075952131 a67.01795096322242,67.01795096322242 0 0,0 1.1525784468976192,0.04963245243657809 l -2.375431315017551 45.95660058056054" fill="red" stroke="none" /><path d="M 101.80526077348638 79.07773832637324 l 3.9654445524908204 -45.95794125590181 a67.12870163986626,67.12870163986626 0 0,0 1.1503777605354184,0.10924222980692823 l -4.755947440116484 45.8828734815797" fill="red" stroke="none" /><path d="M 103.2404852339499 79.25152402106235 l 6.651288122390769 -42.58747745262881 a64.1037454227034,64.1037454227034 0 0,0 1.0887587509231937,0.17965452274728688 l -7.383376079452838 42.4666766669419" fill="red" stroke="none" /><path d="M 103.95276090670814 79.375362276772 l 7.907881764602399 -41.261589153104985 a63.01253781245025,63.01253781245025 0 0,0 1.0635123821645367,0.21333057885716827 l -8.61696055623406 41.119354618170604" fill="red" stroke="none" /><path d="M 104.66035177308747 79.52364482259891 l 9.543852852934394 -41.93316948863492 a64.0055325585098,64.0055325585098 0 0,0 1.0721728694015589,0.25374867767126985 l -10.264249409298477 41.76267489882278" fill="red" stroke="none" /><path d="M 105.71112130821622 79.79150937346287 l 11.344841055954497 -40.14310006145126 a62.7153916573794,62.7153916573794 0 0,0 1.0363264002103438,0.30253209416240645 l -12.034157673888268 39.94186963837015" fill="red" stroke="none" /><path d="M 106.40334571778207 80.00007090966166 l 12.741062494220053 -39.79487562452472 a62.78476755293743,62.78476755293743 0 0,0 1.0264328191638248,0.33839876250316836 l -13.424178135626295 39.56966313776231" fill="red" stroke="none" /><path d="M 107.4271985657038 80.35727306442388 l 20.633209325420424 -54.56869006509595 a79.3392771851616,79.3392771851616 0 0,0 1.2732700994360615,0.49400901714334094 l -21.56946258985615 54.20543834406206" fill="red" stroke="none" /><path d="M 108.76106565485865 80.91482961587045 l 18.394088190388146 -40.06981810250193 a65.09005333545615,65.09005333545615 0 0,0 1.014232556144406,0.4761957844836162 l -19.08109895783215 39.74725733537831" fill="red" stroke="none" /><path d="M 110.05341064243156 81.56283822128135 l 15.161146677510272 -27.804346602968543 a52.669260468078335,52.669260468078335 0 0,0 0.7922357442026874,0.4408783339133563 l -15.637506510784995 27.53925287149501" fill="red" stroke="none" /><line stroke="#e1ed5e" stroke-width="0.3" x1="143.23703022742887" x2="145.7803849466894" y1="26.81831364943548" y2="22.513508569990506" /><path d="M 143.74570117128098 25.957352633546492 a86.0,86.0 0 0,1 28.547481713284135,27.462654790039103" fill="none" id="id86" stroke="none" /><text fill="#e1ed5e" style="font-size:6.75px; font-family:Arial;" text-anchor="middle"><textPath startOffset="19.985693538727396" xlink:href="#id86">February</textPath></text><path d="M 111.60114157652 82.49532879139004 l 23.733763568363 -35.811279869899046 a63.962068142015596,63.962068142015596 0 0,0 0.9125112072093694,0.6161316404700233 l -24.346679469978913 35.39743631713035" fill="red" stroke="none" /><path d="M 111.90073688211348 82.69761687909136 l 9.825071024072503 -14.284589663026864 a38.33728705620124,38.33728705620124 0 0,0 0.540498899532569,0.37865402013171984 l -10.069501063188724 14.11335080013121" fill="red" stroke="none" /><path d="M 112.77801427241765 83.33499621200491 l 13.942957820060245 -18.18431564822447 a43.91452396115268,43.91452396115268 0 0,0 0.5959147468856978,0.4651209121873714 l -14.253905122105373 17.94161634681387" fill="red" stroke="none" /><path d="M 113.34407831869373 83.78471172551755 l 31.984041246354774 -38.86596260949922 a71.3343018627607,71.3343018627607 0 0,0 0.9414173389308248,0.7884099476412701 l -32.648316122244715 38.30965150446413" fill="red" stroke="none" /><path d="M 114.16331599549186 84.49514656593476 l 20.200088377983676 -22.113423844775618 a50.95074430823117,50.95074430823117 0 0,0 0.6424454956001998,0.5970830719209193 l -20.57774175737872 21.762436186780057" fill="red" stroke="none" /><path d="M 114.68862486808459 84.99185889309783 l 30.646514367143997 -31.313156690125187 a64.81463938863237,64.81463938863237 0 0,0 0.7906281064967954,0.787232898146706 l -31.180978273808112 30.78098794132836" fill="red" stroke="none" /><path d="M 115.4437574822437 85.77008943001954 l 31.23021098408423 -28.775581971944863 a63.46598869606751,63.46598869606751 0 0,0 0.7333536076995989,0.809787370204457 l -31.720908232399864 28.233741814470857" fill="red" stroke="none" /><path d="M 116.15771136456269 86.58626213691792 l 32.58649721329045 -27.052515150988572 a63.35231252985193,63.35231252985193 0 0,0 0.6893380449294182,0.8450469348355518 l -33.04733375029628 26.48758404654492" fill="red" stroke="none" /><path d="M 116.82858285166822 87.43820079747576 l 34.42277110850505 -25.695089269898244 a63.95538130870881,63.95538130870881 0 0,0 0.650936005553251,0.8878759800380378 l -34.85996972657193 25.09875084618871" fill="red" stroke="none" /><path d="M 117.45458315368197 88.32363383020206 l 25.563558419156244 -17.100922209197773 a51.75608979461869,51.75608979461869 0 0,0 0.4889801121890339,0.7447502578611059 l -25.854135166703205 16.65835388735899" fill="red" stroke="none" /><line stroke="#e1ed5e" stroke-width="0.3" x1="172.23445277983987" x2="176.4835382374775" y1="55.19839476539836" y2="52.563006222186495" /><path d="M 173.08426987136738 54.67131705675599 a86.0,86.0 0 0,1 12.851231095245387,41.99856678651699" fill="none" id="id87" stroke="none" /><text fill="#e1ed5e" style="font-size:6.75px; font-family:Arial;" text-anchor="middle"><textPath startOffset="22.20632615414155" xlink:href="#id87">March</textPath></text><path d="M 117.84615892207809 88.93136811851018 l 35.677045896344325 -22.127791720890315 a62.98202913548798,62.98202913548798 0 0,0 0.5634918222111879,0.9262323955166298 l -36.05265351684174 21.510391552166602" fill="red" stroke="none" /><path d="M 118.3937258080291 89.86733742301442 l 37.020265053685705 -20.393576495297456 a63.26580162394524,63.26580162394524 0 0,0 0.517248844537271,0.958383552442533 l -37.36582199744144 19.753311959522463" fill="red" stroke="none" /><path d="M 118.89224826269711 90.83032412892265 l 38.27515056103385 -18.57749907163558 a63.54539484158574,63.54539484158574 0 0,0 0.46915203758467633,0.9881538398398241 l -38.58926079246028 17.915902816155214" fill="red" stroke="none" /><path d="M 119.34039704204932 91.81776055985345 l 41.36815780300465 -17.501407629120973 a65.9179668842541,65.9179668842541 0 0,0 0.43310713688480396,1.0488032857164924 l -41.66328662677565 16.786729772951176" fill="red" stroke="none" /><path d="M 119.61058180528143 92.48833698450437 l 58.83174541584429 -22.534989046486903 a84.0,84.0 0 0,0 0.505581645993499,1.354707451882667 l -59.21093165033941 21.518958457574904" fill="red" stroke="none" /><path d="M 119.97218684219823 93.5106431181261 l 40.051293726200136 -13.013454191251856 a63.11242238497055,63.11242238497055 0 0,0 0.3268157066890599,1.0360951006497208 l -40.2693649166574 12.322108924175716" fill="red" stroke="none" /><path d="M 120.18372546131832 94.20196356495316 l 42.595983577854625 -12.236247725642963 a65.3186594491323,65.3186594491323 0 0,0 0.3011290649307829,1.0833214648552214 l -42.80029941335177 11.50121495736879" fill="red" stroke="none" /><path d="M 120.45610955862082 95.25157060432595 l 35.33043042598529 -8.201171093447954 a57.26980178315555,57.26980178315555 0 0,0 0.21464070741024088,0.9621922045068421 l -35.46636552039757 7.591800719391148" fill="red" stroke="none" /><path d="M 120.73433829027371 96.67025291283417 l 41.28546438899988 -6.6300719544084465 a62.81444037573635,62.81444037573635 0 0,0 0.162253009394866,1.0690446068991795 l -41.39347329183404 5.918428235117185" fill="red" stroke="none" /><path d="M 120.94382443527127 98.46500227214037 l 42.10063832855925 -3.085605705658295 a63.21356073873588,63.21356073873588 0 0,0 0.0701953750920859,1.0858913834661512 l -42.14751429465575 2.3604552579391087" fill="red" stroke="none" /><line stroke="#e1ed5e" stroke-width="0.3" x1="184.98032266829074" x2="189.97916517819016" y1="98.17113171792111" y2="98.06355123074" /><path d="M 185.9800911702706 98.14961562048488 a86.0,86.0 0 0,1 -9.607161424134198,41.387399972396054" fill="none" id="id88" stroke="none" /><text fill="#e1ed5e" style="font-size:6.75px; font-family:Arial;" text-anchor="middle"><textPath startOffset="21.466115282336823" xlink:href="#id88">April</textPath></text><path d="M 120.99980553446 99.90962569577887 l 41.83620309320008 -0.18004536944865915 a62.83659051106512,62.83659051106512 0 0,0 -0.004655002579831107,1.0816586615117296 l -41.83310379333074 -0.5401227702667553" fill="red" stroke="none" /><path d="M 120.8583938346157 102.4346265915055 l 41.91271908719706 4.8921226255995895 a63.197261582550546,63.197261582550546 0 0,0 -0.1354181614736629,1.0794159860626749 l -41.82229941647655 -5.61285636594966" fill="red" stroke="none" /><path d="M 120.76222939487914 103.15116336523771 l 42.039713129342246 6.380528862230929 a63.521155070848586,63.521155070848586 0 0,0 -0.17337719855264708,1.0796199808887932 l -41.92365417642831 -7.103228072812927" fill="red" stroke="none" /><path d="M 119.9155931802556 106.66101706037122 l 40.11259201164124 13.416153729739097 a63.29672822798918,63.29672822798918 0 0,0 -0.3544893148050455,1.0303118815935581 l -39.87571186589296 -14.104638314421955" fill="red" stroke="none" /><path d="M 119.54520255179757 107.68017299344265 l 23.428726319452934 9.20618093737139 a46.172583983442124,46.172583983442124 0 0,0 -0.29703787567353007,0.7372236475228061 l -23.266785829522014 -9.608103952737007" fill="red" stroke="none" /><path d="M 119.12269723197855 108.67885076344098 l 38.637758355976075 17.53577617934789 a63.43088282120682,63.43088282120682 0 0,0 -0.4597995448402842,0.9903673138981749 l -38.33018419429596 -18.198263560524897" fill="red" stroke="none" /><line stroke="#e1ed5e" stroke-width="0.3" x1="174.80103733775053" x2="179.2010983576182" y1="140.37084112569926" y2="142.7455964860345" /><path d="M 175.68104954172406 140.8457921977663 a86.0,86.0 0 0,1 -30.038265399797805,32.042727171017184" fill="none" id="id89" stroke="none" /><text fill="#e1ed5e" style="font-size:6.75px; font-family:Arial;" text-anchor="middle"><textPath startOffset="22.206326154141568" xlink:href="#id89">May</textPath></text><path d="M 118.48025628344425 109.97397251340804 l 44.62249272834755 24.083189601163934 a71.70667489253304,71.70667489253304 0 0,0 -0.59558741433567,1.0811641570780848 l -44.20132890456038 -24.847724276639827" fill="red" stroke="none" /><path d="M 117.75023020441432 111.22182372390056 l 35.44782579052629 22.41037146199349 a62.93772886483045,62.93772886483045 0 0,0 -0.5868048200870305,0.9107341120010507 l -35.05681610706221 -23.01722717391599" fill="red" stroke="none" /><path d="M 117.14729908036423 112.12312394758627 l 34.697277131330885 24.530941539857942 a63.493153956376375,63.493153956376375 0 0,0 -0.6386208172092207,0.8869884597484944 l -34.26987652174606 -25.124563605057567" fill="red" stroke="none" /><path d="M 116.71984013943494 112.70617746262583 l 33.99836145213271 25.836922509230096 a63.70169957013215,63.70169957013215 0 0,0 -0.6709705560255206,0.8673198914041492 l -33.54858407888912 -26.418320394747496" fill="red" stroke="none" /><path d="M 116.0416608686014 113.55231037782055 l 31.957218090428846 26.99808591645867 a62.83491880273842,62.83491880273842 0 0,0 -0.7051199655417656,0.8202138198169764 l -31.4877556153163 -27.544176835437174" fill="red" stroke="none" /><path d="M 114.55890576462653 115.13401014063108 l 32.067954390569476 33.33469937798054 a67.25533354561375,67.25533354561375 0 0,0 -0.8412174318345982,0.795423587944313 l -31.48940112434407 -33.88175760267078" fill="red" stroke="none" /><path d="M 113.75828350139079 115.86535959552629 l 28.34456113803484 32.68552032576184 a64.26381149498488,64.26381149498488 0 0,0 -0.8419615785245304,0.7175379231849609 l -27.777734082933264 -33.168582639169756" fill="red" stroke="none" /><path d="M 113.20401910651253 116.32954008644616 l 26.719166190698015 33.04385519801476 a63.49482566470307,63.49482566470307 0 0,0 -0.8557968883624877,0.6798968061023168 l -26.14641180961818 -33.4988859181222" fill="red" stroke="none" /><path d="M 111.7513745106137 117.40417183066458 l 23.770059582157824 35.2042393865809 a63.4776906543544,63.4776906543544 0 0,0 -0.9108302028435572,0.603648592391795 l -23.160554680574304 -35.608186000064016" fill="red" stroke="none" /><line stroke="#e1ed5e" stroke-width="0.3" x1="143.8653032363475" x2="146.44561519142675" y1="172.8068346515853" y2="177.08958963109032" /><path d="M 144.38136562736335 173.6633856474863 a86.0,86.0 0 0,1 -40.68145358897372,12.25698825130547" fill="none" id="id90" stroke="none" /><text fill="#e1ed5e" style="font-size:6.75px; font-family:Arial;" text-anchor="middle"><textPath startOffset="21.466115282336833" xlink:href="#id90">June</textPath></text><path d="M 110.21172684928248 118.3499491758327 l 20.433411798700604 36.717792546650585 a63.02047842700207,63.02047842700207 0 0,0 -0.9524410589454442,0.5193468058268772 l -19.798347927886507 -37.06408000423723" fill="red" stroke="none" /><path d="M 109.57404056367764 118.69057910512821 l 19.4706581587656 38.0108977108332 a63.70755054927559,63.70755054927559 0 0,0 -0.9803260005286386,0.4915558078989953 l -18.813478250554198 -38.340421359641496" fill="red" stroke="none" /><path d="M 108.59647513512805 119.15986991738527 l 15.541163782641439 34.63822924624255 a58.964914026428914,58.964914026428914 0 0,0 -0.9296220930825541,0.4075190065323735 l -14.94262101490113 -34.90061280606938" fill="red" stroke="none" /><path d="M 106.91757812671514 119.82793768551818 l 15.349236898184559 43.99570299930674 a67.59636204426047,67.59636204426047 0 0,0 -1.1019181271944563,0.37383045639873796 l -14.589649038052876 -44.253396442603595" fill="red" stroke="none" /><path d="M 105.18746579009965 120.34920634021253 l 10.511411236593826 41.23379022344688 a63.552499601974205,63.552499601974205 0 0,0 -1.062376011030068,0.26110617603125935 l -9.800081940820547 -41.40861765779217" fill="red" stroke="none" /><path d="M 104.48393922423573 120.51570834832081 l 9.194716800406004 42.069287470034226 a64.06237064161758,64.06237064161758 0 0,0 -1.0793244635276302,0.22618293540740741 l -8.469200875448996 -42.22132638616818" fill="red" stroke="none" /><path d="M 103.06178313531738 120.77559828337769 l 6.109185980475248 41.45361972399792 a62.901369208724724,62.901369208724724 0 0,0 -1.0725324708973993,0.14864322752824732 l -5.3947249183910175 -41.552637517018766" fill="red" stroke="none" /><path d="M 101.62511606390274 120.93702456842531 l 3.274165137821546 42.18238774098682 a63.309266040439425,63.309266040439425 0 0,0 -1.0872228058064901,0.07498125018498365 l -2.5475795712361253 -42.23249733568809" fill="red" stroke="none" /><line stroke="#e1ed5e" stroke-width="0.3" x1="102.19456741930631" x2="102.32365962044197" y1="184.97166512339345" y2="189.96999836594603" /><path d="M 102.22038585953345 185.97133177190398 a86.0,86.0 0 0,1 -42.740103519485714,-10.115201625700543" fill="none" id="id91" stroke="none" /><text fill="#e1ed5e" style="font-size:6.75px; font-family:Arial;" text-anchor="middle"><textPath startOffset="22.20632615414155" xlink:href="#id91">July</textPath></text><path d="M 100.18074693466247 120.99922214144158 l 0.3653571516013838 42.4472813426648 a63.44885368571884,63.44885368571884 0 0,0 -1.0922081725276493,0.0 l 0.36535715160135457 -42.4472813426648" fill="red" stroke="none" /><path d="M 98.01472825383883 120.90594882070398 l -3.180472661483612 33.4920389690704 a54.64271214774717,54.64271214774717 0 0,0 -0.935606577209212,-0.0969794471922196 l 3.7565118352984173 -33.43233015342242" fill="red" stroke="none" /><path d="M 97.2962882734958 120.8252237178851 l -5.2465932836380444 40.41165994785507 a61.75081595287375,61.75081595287375 0 0,0 -1.0529143649337245,-0.14592433680226402 l 5.9414362397586 -40.3153610455602" fill="red" stroke="none" /><path d="M 96.58105272829116 120.7198165907248 l -3.356553253078115 20.34169065907191 a41.61676086610413,41.61676086610413 0 0,0 -0.705802485069749,-0.1227128090562157 l 3.7062047096199136 -20.28089927149469" fill="red" stroke="none" /><path d="M 95.86986931433489 120.58985236759428 l -8.77792502079523 43.76040227959049 a65.63210476038847,65.63210476038847 0 0,0 -1.1057713842184016,-0.23172514477675768 l 9.529887866443019 -43.60282115408719" fill="red" stroke="none" /><path d="M 95.16358092515715 120.4354850818985 l -4.3501591407936155 18.380874537523585 a39.88863238337845,39.88863238337845 0 0,0 -0.6667987321081241,-0.1638829052196252 l 4.66591115764495 -18.30327037398993" fill="red" stroke="none" /><path d="M 94.46302465271185 120.25689768951611 l -7.686509221264229 28.12091821231087 a50.15250358223213,50.15250358223213 0 0,0 -0.8307853732276312,-0.2347882449649224 l 8.169425762596475 -27.984441174007426" fill="red" stroke="none" /><path d="M 93.08242187328487 119.8279376855182 l -14.06148363840716 40.30460028655525 a63.68707212227353,63.68707212227353 0 0,0 -1.0319745182844535,-0.3700293463621022 l 14.753177717321341 -40.05658339915319" fill="red" stroke="none" /><path d="M 92.06813273071674 119.44442032107085 l -15.684885517389594 38.45040471984084 a62.526488616462345,62.526488616462345 0 0,0 -0.993065166237963,-0.4151013200274397 l 16.34442214312502 -38.17471835679343" fill="red" stroke="none" /><path d="M 91.40352486487194 119.15986991738527 l -12.064627975824514 26.88970758187409 a50.47221779971342,50.47221779971342 0 0,0 -0.7896066129430084,-0.3624696682434028 l 12.525702584534942 -26.678050843296614" fill="red" stroke="none" /><path d="M 90.7491055286396 118.85261126421891 l -22.030524301990095 44.89651372612297 a71.01040837446266,71.01040837446266 0 0,0 -1.0927017133361423,-0.5479033231822076 l 22.800079923008997 -44.510642562031464" fill="red" stroke="none" /><line stroke="#e1ed5e" stroke-width="0.3" x1="58.666819895761336" x2="56.23545636021788" y1="174.27360380694188" y2="178.64263932499728" /><path d="M 58.180547188652646 175.14741091055294 a86.0,86.0 0 0,1 -31.652253787137756,-30.449443065178592" fill="none" id="id92" stroke="none" /><text fill="#e1ed5e" style="font-size:6.75px; font-family:Arial;" text-anchor="middle"><textPath startOffset="22.20632615414155" xlink:href="#id92">August</textPath></text><path d="M 89.7882731507175 118.34994917583269 l -10.180429963141961 18.293710277307813 a41.935639229422065,41.935639229422065 0 0,0 -0.6277390429388676,-0.3564466115633443 l 10.493817773002036 -18.115760499949836" fill="red" stroke="none" /><path d="M 89.1626897886671 117.98757091392108 l -22.272906892301172 36.96816685799694 a64.15932972456616,64.15932972456616 0 0,0 -0.9410670511222703,-0.5780802449737512 l 22.905953143355752 -36.57929814619481" fill="red" stroke="none" /><path d="M 88.24862548938628 117.40417183066458 l -19.02582332753457 28.177869585656254 a54.99962187549753,54.99962187549753 0 0,0 -0.7800599392362424,-0.5365323391729747 l 19.508040151393708 -27.84619645711818" fill="red" stroke="none" /><path d="M 87.07902340077011 116.55440617244103 l -26.576871028435065 34.05039196677421 a64.19443559942684,64.19443559942684 0 0,0 -0.8652263812217075,-0.6873881655187056 l 27.15905490237413 -33.58786988725037" fill="red" stroke="none" /><path d="M 85.97065885151581 115.62618273729859 l -28.608989401801665 31.865309396250087 a63.823734277981224,63.823734277981224 0 0,0 -0.811170639690514,-0.7409851466870463 l 29.153259590959035 -31.368131482976462" fill="red" stroke="none" /><path d="M 84.9287848128048 114.62390073753433 l -30.17962251503702 29.283889751048875 a63.05182295812769,63.05182295812769 0 0,0 -0.7490960357936522,-0.7854241986831589 l 30.67922510220963 -28.760058435783215" fill="red" stroke="none" /><path d="M 83.72743513129214 113.27417163493432 l -32.37349187361187 26.408331508872884 a62.77849864671231,62.77849864671231 0 0,0 -0.6758616215290384,-0.843241291332497 l 32.82327140719577 -25.84716238396213" fill="red" stroke="none" /><path d="M 83.06392112726016 112.41649034213515 l -35.785589519093435 26.235791058261317 a65.37257204266837,65.37257204266837 0 0,0 -0.6575242018949033,-0.9132436077401519 l 36.23189351336394 -25.615913845070022" fill="red" stroke="none" /><path d="M 82.6465618267979 111.8261652097733 l -34.78976173809279 23.70881584484403 a63.10030249960198,63.10030249960198 0 0,0 -0.6039507071458822,-0.9028243620750676 l 35.1927155506494 -23.106454568563137" fill="red" stroke="none" /><path d="M 82.05923443525364 110.91462005526583 l -20.952077791562772 12.746611488678344 a45.52479700684604,45.52479700684604 0 0,0 -0.4015268112201799,-0.6729820313840534 l 21.168385478481184 -12.384067363408178" fill="red" stroke="none" /><line stroke="#e1ed5e" stroke-width="0.3" x1="26.63291911575756" x2="22.317208475507996" y1="142.92168965132927" y2="145.44649492493687" /><path d="M 25.769776987707644 143.4266507060508 a86.0,86.0 0 0,1 -11.730757126820373,-40.83630448921669" fill="none" id="id93" stroke="none" /><text fill="#e1ed5e" style="font-size:6.75px; font-family:Arial;" text-anchor="middle"><textPath startOffset="21.46611528233685" xlink:href="#id93">September</textPath></text><path d="M 81.35079622478065 109.6543875284942 l -40.88624891517055 21.166141802688788 a67.04010109855119,67.04010109855119 0 0,0 -0.5217039285327808,-1.029371345059716 l 41.2445315134896 -20.459216245926388" fill="red" stroke="none" /><path d="M 80.87730276802145 108.67885076344099 l -38.057394694163314 17.272377687582118 a62.79354402165261,62.79354402165261 0 0,0 -0.4382358903662872,-0.9881062418797256 l 38.34907166926088 -16.614723109209695" fill="red" stroke="none" /><path d="M 80.45479744820244 107.68017299344265 l -38.84924076706205 15.265581871777554 a62.74088520936157,62.74088520936157 0 0,0 -0.3863216838541642,-1.0085640115574555 l 39.10625673050973 -14.59459429338694" fill="red" stroke="none" /><path d="M 79.97269907076064 106.31721596034903 l -29.541145722682742 9.31817012715231 a51.975919439579684,51.975919439579684 0 0,0 -0.2617933690993192,-0.8555558774795419 l 29.69716586428819 -8.808287277120721" fill="red" stroke="none" /><path d="M 79.76711848015287 105.62410040840567 l -20.190199513775156 5.612236162201025 a41.955699729342456,41.955699729342456 0 0,0 -0.1874259476207899,-0.697481675260859 l 20.283813537737718 -5.263863553764628" fill="red" stroke="none" /><path d="M 79.50377843672027 104.57218783832718 l -33.20601633501658 7.4074210984457185 a55.022189937907974,55.022189937907974 0 0,0 -0.19825270919705765,-0.9261706556433082 l 33.32860308293807 -6.834736623386247" fill="red" stroke="none" /><path d="M 79.35854240842038 103.8639653848113 l -40.807218480981064 7.6388830082069825 a62.51604043942047,62.51604043942047 0 0,0 -0.18889834174992273,-1.0594422176568519 l 40.932663265070175 -6.935322039816917" fill="red" stroke="none" /><path d="M 79.18660465613746 102.79330883721812 l -28.68593538337559 3.8498608942187533 a49.943122114313006,49.943122114313006 0 0,0 -0.10701738660211661,-0.8530338665647607 l 28.747954279224555 -3.355509273366584" fill="red" stroke="none" /><path d="M 79.04373962182676 101.35467743843564 l -45.530486820282405 2.9432313849597476 a66.6255174335297,66.6255174335297 0 0,0 -0.06413070625419111,-1.1450968407403455 l 45.57440387742413 -2.1590628278839645" fill="red" stroke="none" /><line stroke="#e1ed5e" stroke-width="0.3" x1="15.007084014347285" x2="10.007500721073583" y1="101.09737516637583" y2="101.16192664675087" /><path d="M 14.007167355692545 101.11028546245083 a86.0,86.0 0 0,1 10.666146001902534,-42.60595125391555" fill="none" id="id94" stroke="none" /><text fill="#e1ed5e" style="font-size:6.75px; font-family:Arial;" text-anchor="middle"><textPath startOffset="22.20632615414155" xlink:href="#id94">October</textPath></text><path d="M 79.00019446554 99.90962569577889 l -29.137606309953643 -0.12539596581548526 a50.137876134373506,50.137876134373506 0 0,0 0.011142529097713356,-0.8630011581157717 l 29.131130773738214 0.6269333819917289" fill="red" stroke="none" /><path d="M 79.08570108090925 98.10471618934814 l -53.99267174978851 -4.89289347240824 a75.21391896194874,75.21391896194874 0 0,0 0.12794558923927296,-1.2883946229631902 l 53.900449034867 5.821563626075861" fill="red" stroke="none" /><path d="M 79.21141760316559 97.0276538004421 l -40.892458857775644 -5.846793319346099 a62.30833067982806,62.30833067982806 0 0,0 0.1609457013817042,-1.0604310804922663 l 40.78575726295464 6.549823512230457" fill="red" stroke="none" /><path d="M 79.3925641242962 95.95851677861259 l -32.41873489696375 -6.357888188270818 a54.03629995223691,54.03629995223691 0 0,0 0.1868644832704757,-0.9112175839973077 l 32.30449111777828 6.9149814284315285" fill="red" stroke="none" /><path d="M 79.62865764111835 94.90015583598534 l -40.97539349252046 -10.257945583047302 a63.239890144881386,63.239890144881386 0 0,0 0.27344828558447765,-1.0537077909329131 l 40.792748875065676 10.961749799529079" fill="red" stroke="none" /><path d="M 79.91906864156998 93.8553929516997 l -40.41922857808495 -12.367966025813823 a63.26914504059863,63.26914504059863 0 0,0 0.3276272652304401,-1.0386679630042581 l 40.2003458290863 13.061884155244496" fill="red" stroke="none" /><path d="M 80.52162464483688 92.15188598940014 l -27.498746038540084 -11.079635242873994 a50.64691131985353,50.64691131985353 0 0,0 0.33277025658750037,-0.8058295714266244 l 27.30395409506638 11.55133938475393" fill="red" stroke="none" /><path d="M 81.10775173730289 90.83032412892265 l -41.49090839001905 -20.138322143704602 a67.1199251711511,67.1199251711511 0 0,0 0.5134354242886483,-1.0350544851116419 l 41.138112952776986 20.849536217315208" fill="red" stroke="none" /><path d="M 81.6062741919709 89.86733742301443 l -22.659043693619687 -12.48232394354814 a46.86968635567585,46.86968635567585 0 0,0 0.3953622282346857,-0.7033052883265758 l 22.440823824092572 12.8705127418095" fill="red" stroke="none" /><line stroke="#e1ed5e" stroke-width="0.3" x1="26.266209847984243" x2="21.928928074336255" y1="57.711370442889674" y2="55.22380399835377" /><path d="M 25.398753493254645 57.213857153982495 a86.0,86.0 0 0,1 29.58750427330803,-30.492523968695096" fill="none" id="id95" stroke="none" /><text fill="#e1ed5e" style="font-size:6.75px; font-family:Arial;" text-anchor="middle"><textPath startOffset="21.46611528233685" xlink:href="#id95">November</textPath></text><path d="M 82.15384107792192 88.93136811851018 l -36.84339651527652 -22.85119140045593 a64.35450167170833,64.35450167170833 0 0,0 0.5919768466817672,-0.93636520790333 l 36.44459207234878 23.482004256073477" fill="red" stroke="none" /><path d="M 82.54541684631803 88.32363383020206 l -35.49552469701953 -23.744980908586058 a63.70546091386721,63.70546091386721 0 0,0 0.6175653926361759,-0.9062010101266514 l 35.08153483871462 24.352459941983124" fill="red" stroke="none" /><path d="M 83.39014120810768 87.1503855733568 l -32.65942243467907 -25.26577684617847 a62.291613596561064,62.291613596561064 0 0,0 0.6633935806708569,-0.8424424787790996 l 32.21967477341424 25.824211718910618" fill="red" stroke="none" /><path d="M 84.31358615837235 86.03803664274999 l -30.927971376052657 -27.527974680905047 a62.404453908613284,62.404453908613284 0 0,0 0.721087504514663,-0.7962428327037329 l 30.449540230921947 28.056270300878335" fill="red" stroke="none" /><path d="M 85.05521093208273 85.24692304244772 l -30.405900254563743 -30.015852641388427 a63.72552141378762,63.72552141378762 0 0,0 0.7773427238992144,-0.7740045672040872 l 29.884721730497212 30.534793059242627" fill="red" stroke="none" /><path d="M 85.57189188830299 84.74124197986013 l -29.322815405083013 -31.01097810409775 a63.679131507721706,63.679131507721706 0 0,0 0.8029396185731088,-0.7462448679428372 l 28.78466790271505 31.511127558115238" fill="red" stroke="none" /><path d="M 86.37877921826538 84.01681056812374 l -27.741228505007047 -32.55165725402979 a63.76898583028181,63.76898583028181 0 0,0 0.8415758951725661,-0.7047956097799422 l 27.176795072875368 33.02435402120355" fill="red" stroke="none" /><path d="M 87.22198572758235 83.33499621200491 l -25.530344349613326 -33.29651041426061 a62.95778936475084,62.95778936475084 0 0,0 0.8656811347590921,-0.6520130832484793 l 24.953417061095845 33.73104008701495" fill="red" stroke="none" /><path d="M 87.80319425747018 82.90503203632743 l -24.51036565561683 -34.35357785519354 a63.20102292628563,63.20102292628563 0 0,0 0.8910407064253499,-0.6242309575112002 l 23.91539380960782 34.77039365546869" fill="red" stroke="none" /><path d="M 88.39885842347998 82.49532879139004 l -13.66634240843317 -20.620800884637188 a45.738357745581915,45.738357745581915 0 0,0 0.6600109801612368,-0.42928950089667905 l 13.309364402487645 20.852989309693402" fill="red" stroke="none" /><line stroke="#e1ed5e" stroke-width="0.3" x1="56.76296977257108" x2="54.21961505331056" y1="26.818313649435495" y2="22.513508569990535" /><path d="M 56.25429882871898 25.957352633546506 a86.0,86.0 0 0,1 42.26535254187918,-11.944610805530505" fill="none" id="id96" stroke="none" /><text fill="#e1ed5e" style="font-size:6.75px; font-family:Arial;" text-anchor="middle"><textPath startOffset="22.20632615414155" xlink:href="#id96">December</textPath></text><path d="M 89.3179101791058 81.91981866633112 l -21.122467809947203 -35.751248549832944 a62.52481690813565,62.52481690813565 0 0,0 0.9313317633748707,-0.5394874706525078 l 20.50393931410701 36.1095401778755" fill="red" stroke="none" /><path d="M 90.26544431104013 81.39251694778311 l -23.334997756943682 -44.6045602038405 a71.33973491482249,71.33973491482249 0 0,0 1.0929910250972303,-0.5598724550565332 l 22.563746244257686 44.99962518420954" fill="red" stroke="none" /><path d="M 90.91171255644093 81.06846463323043 l -18.35147486239917 -38.227399556570205 a63.404135487979616,63.404135487979616 0 0,0 0.9879626012085078,-0.46386168839957426 l 17.690734049891052 38.537626227609785" fill="red" stroke="none" /><path d="M 91.90106846888425 80.62456947434976 l -16.33583244192096 -39.080931273597024 a63.35774558191372,63.35774558191372 0 0,0 1.0098504491800973,-0.4119433540552805 l 15.660698123152482 39.35633551383588" fill="red" stroke="none" /><path d="M 95.33964822691252 79.52364482259891 l -6.495073130658264 -28.537636384998372 a50.267433529692724,50.267433529692724 0 0,0 0.8453480899590592,-0.18476035018359263 l 6.002882316545684 28.645210233277833" fill="red" stroke="none" /><path d="M 96.04723909329186 79.375362276772 l -8.171488312094445 -42.63703018579359 a64.41301146314282,64.41301146314282 0 0,0 1.0907419590832785,-0.19932612117532608 l 7.436351231908272 42.771371788319655" fill="red" stroke="none" /><path d="M 97.47563105711357 79.15227682838746 l -5.185034115315339 -42.8210607550342 a64.13383617258398,64.13383617258398 0 0,0 1.0970956849926208,-0.12327148320853303 l 4.447171726813001 42.90396819171334" fill="red" stroke="none" /><path d="M 99.27714615592234 79.0124445844662 l -1.4852971997558195 -43.12456459049183 a64.1501353287693,64.1501353287693 0 0,0 1.103911916974344,-0.02851078795805533 l 0.7427586475865964 43.14374217059224" fill="red" stroke="none" /></svg>