<?xml version="1.0" encoding="utf-8" ?>
<svg baseProfile="full" height="200mm" version="1.1" viewBox="0,0,200,200" width="200mm" xmlns="http://www.w3.org/2000/svg" xmlns:ev="http://www.w3.org/2001/xml-events" xmlns:xlink="http://www.w3.org/1999/xlink"><defs /><rect fill="#1a1a1a" height="200" width="200" x="0" y="0" /><text alignment-baseline="middle" fill="#e1ed5e" style="dominant-baseline: central; font-size:9.0px; font-family:Arial;" text-anchor="middle" x="100.0" y="100.0">2021</text><line stroke="#e1ed5e" stroke-width="0.3" x1="100.0" x2="100.0" y1="15.0" y2="10.0" /><path d="M 100.0 14.0 a86.0,86.0 0 0,1 42.46469731375804,11.215312516191453" fill="none" id="id73" stroke="none" /><text fill="#e1ed5e" style="font-size:6.75px; font-family:Arial;" text-anchor="middle"><textPath startOffset="22.20632615414155" xlink:href="#id73">January</textPath></text><path d="M 104.307194497241 79.44645832069477 l 10.341304403929223 -49.34776714185818 a71.41968562636804,71.41968562636804 0 0,0 1.2010657913152176,0.2625064619329516 l -11.18921291939797 49.16244718182936" fill="red" stroke="none" /><path d="M 105.71112130821622 79.79150937346287 l 13.736095542482724 -48.60442337586772 a71.50812105446816,71.50812105446816 0 0,0 1.181619881815134,0.3449472456524413 l -14.570705642021284 48.36077780129657" fill="red" stroke="none" /><path d="M 107.4271985657038 80.35727306442388 l 18.09041079446819 -47.84374569289096 a72.14965263458427,72.14965263458427 0 0,0 1.157887979870525,0.4492425473206917 l -18.911281939338384 47.52526044167972" fill="red" stroke="none" /><path d="M 108.43124777332544 80.76684994638697 l 20.625838876745576 -47.05114412046599 a72.3734891983631,72.3734891983631 0 0,0 1.1366700422176896,0.509990714806627 l -21.432691037430047 46.68913307514283" fill="red" stroke="none" /><path d="M 109.41281617654863 81.2277094730956 l 23.41857185820725 -46.704432170123226 a73.24685150525013,73.24685150525013 0 0,0 1.1222098232837145,0.5748394583519306 l -24.21904216907972 46.294400186458795" fill="red" stroke="none" /><line stroke="#e1ed5e" stroke-width="0.3" x1="143.23703022742887" x2="145.7803849466894" y1="26.81831364943548" y2="22.513508569990506" /><path d="M 143.74570117128098 25.957352633546492 a86.0,86.0 0 0,1 28.547481713284135,27.462654790039103" fill="none" id="id74" stroke="none" /><text fill="#e1ed5e" style="font-size:6.75px; font-family:Arial;" text-anchor="middle"><textPath startOffset="19.985693538727396" xlink:href="#id74">February</textPath></text><path d="M 111.2981086023043 82.29822771554956 l 25.03205042442936 -39.2199855766792 a67.52752751958886,67.52752751958886 0 0,0 0.9744317859854706,0.6337975391884783 l -25.703449236199113 38.78328911333119" fill="red" stroke="none" /><path d="M 112.19680574252982 82.90503203632743 l 30.442779082691423 -42.66841205227132 a73.41522856327126,73.41522856327126 0 0,0 1.0224108306802757,0.742824949582504 l -31.172735229725486 42.13806786787214" fill="red" stroke="none" /><path d="M 115.4437574822437 85.77008943001954 l 38.13551829956604 -35.13814663087023 a72.8556371538242,72.8556371538242 0 0,0 0.841851603445051,0.9295935670032515 l -38.73471354362712 34.476500276597434" fill="red" stroke="none" /><line stroke="#e1ed5e" stroke-width="0.3" x1="172.23445277983987" x2="176.4835382374775" y1="55.19839476539836" y2="52.563006222186495" /><path d="M 173.08426987136738 54.67131705675599 a86.0,86.0 0 0,1 12.851231095245387,41.99856678651699" fill="none" id="id75" stroke="none" /><text fill="#e1ed5e" style="font-size:6.75px; font-family:Arial;" text-anchor="middle"><textPath startOffset="22.20632615414155" xlink:href="#id75">March</textPath></text><path d="M 117.84615892207809 88.93136811851018 l 30.65346565730986 -19.012042240243847 a57.07066269073374,57.07066269073374 0 0,0 0.5106036143297472,0.8392980877774685 l -30.97618506992583 18.481576379259295" fill="red" stroke="none" /><path d="M 118.73160827565052 90.50648371742162 l 45.43289996319155 -23.026211589422918 a71.93480950417155,71.93480950417155 0 0,0 0.5502669936642464,1.1093046814800271 l -45.8225269698092 22.24074731944394" fill="red" stroke="none" /><path d="M 119.34039704204932 91.81776055985345 l 51.76453617783853 -21.899748417487682 a77.20646036227515,77.20646036227515 0 0,0 0.507277007727352,1.2284115110631053 l -52.13383487245208 21.005462335971274" fill="red" stroke="none" /><path d="M 119.47837535516314 92.15188598940014 l 46.976758429404434 -18.92760301000401 a71.64652000126893,71.64652000126893 0 0,0 0.45105390822369107,1.1478829976276674 l -47.29560588750983 18.116171007480556" fill="red" stroke="none" /><path d="M 120.45610955862082 95.25157060432595 l 59.58410530780018 -13.831120543606058 a82.16833740443485,82.16833740443485 0 0,0 0.3079575887828309,1.3805134860985178 l -59.81335728358505 12.803428887957576" fill="red" stroke="none" /><path d="M 120.73433829027371 96.67025291283417 l 49.870151788543694 -8.008695060807222 a71.50912032484219,71.50912032484219 0 0,0 0.18471182585536502,1.2170201464838073 l -50.00061950783836 7.149075801931333" fill="red" stroke="none" /><path d="M 120.87857604477298 97.74499172005257 l 49.71684841483452 -5.369710299587726 a71.00598769152683,71.00598769152683 0 0,0 0.12078752257683954,1.2163138685305672 l -49.801913063093586 4.513120900352724" fill="red" stroke="none" /><line stroke="#e1ed5e" stroke-width="0.3" x1="184.98032266829074" x2="189.97916517819016" y1="98.17113171792111" y2="98.06355123074" /><path d="M 185.9800911702706 98.14961562048488 a86.0,86.0 0 0,1 -9.607161424134198,41.387399972396054" fill="none" id="id76" stroke="none" /><text fill="#e1ed5e" style="font-size:6.75px; font-family:Arial;" text-anchor="middle"><textPath startOffset="21.466115282336823" xlink:href="#id76">April</textPath></text><path d="M 120.99513854157772 99.54816195383933 l 51.440020902352174 -1.107044780531184 a72.45193192272308,72.45193192272308 0 0,0 0.016101554790052666,1.2470831630255284 l -51.45145546425994 0.2214253594451928" fill="red" stroke="none" /><path d="M 120.92983693683757 101.71520430193887 l 50.82787296529394 4.165354304076447 a71.99826317292136,71.99826317292136 0 0,0 -0.11185582873171133,1.234319749258559 l -50.748642540285154 -5.039655441883577" fill="red" stroke="none" /><path d="M 120.32669344350535 105.2749913415812 l 53.54448778632859 13.89535933364162 a76.31810899977793,76.31810899977793 0 0,0 -0.34093088643938535,1.2687306578437747 l -53.29736882354742 -14.814980924660942" fill="red" stroke="none" /><path d="M 120.02730092923936 106.31721596034902 l 24.253472479577212 7.650278186921416 a46.431431018621325,46.431431018621325 0 0,0 -0.24698812577069498,0.7601512885622443 l -24.11819210279027 -8.066628375461455" fill="red" stroke="none" /><path d="M 119.79798401119884 107.00284435728193 l 7.575211247377306 2.679466015777557 a29.035133077435525,29.035133077435525 0 0,0 -0.17072069112133031,0.4697500203466129 l -7.5279662952507485 -2.8094638331303012" fill="red" stroke="none" /><path d="M 119.12269723197855 108.67885076344098 l 46.591669560431946 21.14566486250367 a72.16564096056848,72.16564096056848 0 0,0 -0.5231163022010332,1.12674597633006 l -46.22077864139108 -21.944530906112558" fill="red" stroke="none" /><line stroke="#e1ed5e" stroke-width="0.3" x1="174.80103733775053" x2="179.2010983576182" y1="140.37084112569926" y2="142.7455964860345" /><path d="M 175.68104954172406 140.8457921977663 a86.0,86.0 0 0,1 -30.038265399797805,32.042727171017184" fill="none" id="id77" stroke="none" /><text fill="#e1ed5e" style="font-size:6.75px; font-family:Arial;" text-anchor="middle"><textPath startOffset="22.206326154141568" xlink:href="#id77">May</textPath></text><path d="M 117.94076556474637 110.91462005526583 l 44.41282814486397 27.019423615541783 a72.98604193763282,72.98604193763282 0 0,0 -0.6622105618950496,1.0676942782080383 l -43.941152943300956 -27.779914225115093" fill="red" stroke="none" /><path d="M 117.35343817320211 111.8261652097733 l 35.19434484567047 23.98453450206583 a63.58990261079212,63.58990261079212 0 0,0 -0.6242078494207998,0.8992179627119609 l -34.77627608908753 -24.586793726964814" fill="red" stroke="none" /><path d="M 116.498646956653 112.99209946851258 l 31.70492694322969 24.966505772902927 a61.35503441931288,61.35503441931288 0 0,0 -0.6605368708316456,0.824121308549362 l -31.270472160343193 -25.508554915030537" fill="red" stroke="none" /><path d="M 115.80600337817218 113.82643327865902 l 27.887770798745976 24.39506009291936 a58.05194619801415,58.05194619801415 0 0,0 -0.6643938823516079,0.7464535700132057 l -27.463718066746033 -24.87148783267343" fill="red" stroke="none" /><path d="M 114.55890576462653 115.13401014063108 l 17.698332910997394 18.397450610476575 a46.52836024490054,46.52836024490054 0 0,0 -0.5819682343281294,0.5502872901829214 l -17.379028842278455 -18.699372537405416" fill="red" stroke="none" /><path d="M 114.29624159901734 115.38237550388516 l 24.08281557755983 25.91246866101531 a56.37567014560797,56.37567014560797 0 0,0 -0.716509131474773,0.654514103334669 l -23.633206896618194 -26.323175530936563" fill="red" stroke="none" /><path d="M 113.75828350139079 115.86535959552629 l 21.625007525117688 24.936869530800994 a54.00739935919805,54.00739935919805 0 0,0 -0.7075857182860018,0.6030198998676568 l -21.19255633025464 -25.305413820891598" fill="red" stroke="none" /><path d="M 112.92097659922987 116.55440617244103 l 21.995438759753956 28.180642877390717 a56.74839799511467,56.74839799511467 0 0,0 -0.7752135756578961,0.5944007130117951 l -21.507096455602564 -28.555082932229883" fill="red" stroke="none" /><path d="M 112.34349029814194 116.9893568818739 l 29.676768905430297 40.84656817943535 a71.48913491736192,71.48913491736192 0 0,0 -1.001776131519224,0.7147406710329962 l -28.96926544606219 -41.351353112312566" fill="red" stroke="none" /><path d="M 111.45004920935366 117.60387380957326 l 19.36779292593501 29.777005880427254 a56.52156362021381,56.52156362021381 0 0,0 -0.8201499529448251,0.5234585040213671 l -18.852361170943258 -30.10597881327243" fill="red" stroke="none" /><path d="M 111.1453310114006 117.79835938074945 l 20.333608649681413 32.47143345355571 a59.31252577483108,59.31252577483108 0 0,0 -0.8699757925332872,0.5344101875303394 l -19.77165365721582 -32.81663210791443" fill="red" stroke="none" /><line stroke="#e1ed5e" stroke-width="0.3" x1="143.8653032363475" x2="146.44561519142675" y1="172.8068346515853" y2="177.08958963109032" /><path d="M 144.38136562736335 173.6633856474863 a86.0,86.0 0 0,1 -40.68145358897372,12.25698825130547" fill="none" id="id78" stroke="none" /><text fill="#e1ed5e" style="font-size:6.75px; font-family:Arial;" text-anchor="middle"><textPath startOffset="21.466115282336833" xlink:href="#id78">June</textPath></text><path d="M 110.8373102113329 117.98757091392108 l 26.442823765497458 43.889319247206686 a72.2395869682454,72.2395869682454 0 0,0 -1.0706324022932077,0.6325484946967054 l -25.683423492175866 -44.33798631419714" fill="red" stroke="none" /><path d="M 109.89434966115114 118.52300852407294 l 19.137247280246658 35.82644707727653 a61.61734289249119,61.61734289249119 0 0,0 -0.9398378805052049,0.49167875959892254 l -18.517718497214958 -36.15055525582017" fill="red" stroke="none" /><path d="M 109.57404056367764 118.69057910512821 l 16.43893409731357 32.092322578567064 a57.05767217587159,57.05767217587159 0 0,0 -0.87799827620719,0.4402465626355101 l -15.884081913423621 -32.37053698211188" fill="red" stroke="none" /><path d="M 108.92500713936063 119.00905698771935 l 20.64206953693922 43.96481370212697 a69.56953652888367,69.56953652888367 0 0,0 -1.08837234616028,0.4996183628295989 l -19.88222919501152 -44.313619135290644" fill="red" stroke="none" /><path d="M 107.93186726928326 119.44442032107085 l 14.217311593106455 34.85274943045984 a58.641016083494584,58.641016083494584 0 0,0 -0.9379181610445607,0.3732169927044532 l -13.615272356020029 -35.09231326757036" fill="red" stroke="none" /><path d="M 107.2578585660854 119.70592522655815 l 12.068955625277756 32.76861004507665 a55.92050249024521,55.92050249024521 0 0,0 -0.9061263408184119,0.3249046673864691 l -11.50310972382961 -32.97150225350308" fill="red" stroke="none" /><path d="M 106.57524785965236 119.94407469862006 l 7.933505964848295 24.0639499775827 a46.33799923865114,46.33799923865114 0 0,0 -0.7596754309076117,0.2432240832172 l -7.518109188849743 -24.196946907459605" fill="red" stroke="none" /><path d="M 105.88484417918355 120.15858648285463 l 9.90424707865097 33.92708714171012 a56.34319385845256,56.34319385845256 0 0,0 -0.933335287275983,0.26376987501839116 l -9.318780623270381 -34.09254581006703" fill="red" stroke="none" /><path d="M 105.53697534728816 120.25689768951611 l 13.50760795056446 49.41727479763668 a72.23009389969229,72.23009389969229 0 0,0 -1.202148006407877,0.317498214645525 l -12.654969501345084 -49.64246436158579" fill="red" stroke="none" /><path d="M 104.83641907484287 120.43548508189849 l 6.007052502532205 25.381802094076445 a47.08295530247755,47.08295530247755 0 0,0 -0.79027585957904,0.17986421272288727 l -5.569256493560302 -25.481443040377016" fill="red" stroke="none" /><path d="M 104.13013068566511 120.58985236759428 l 6.970701009890666 34.75088698535361 a56.44312089585382,56.44312089585382 0 0,0 -0.9542445644129839,0.18288324189095312 l -6.371488830905978 -34.865727425593036" fill="red" stroke="none" /><path d="M 103.7750983002368 120.6578951692458 l 6.024073922141361 32.96462176033331 a54.5105319925134,54.5105319925134 0 0,0 -0.9244753349875893,0.1607318869786952 l -5.4557496156817225 -33.06343222583301" fill="red" stroke="none" /><path d="M 103.41894727170886 120.7198165907248 l 6.573092342996531 39.834854695700955 a61.37352092123212,61.37352092123212 0 0,0 -1.0438295522445942,0.1630247086216259 l -5.88642692714342 -39.94209771166968" fill="red" stroke="none" /><path d="M 103.06178313531738 120.77559828337769 l 5.236127033835875 35.529515647564594 a56.91327760682675,56.91327760682675 0 0,0 -0.9704294044214986,0.13449267287994807 l -4.623769038227546 -35.61438288593714" fill="red" stroke="none" /><path d="M 102.34483914955558 120.86867818915974 l 6.790218429635328 60.43181395577512 a81.81209751609934,81.81209751609934 0 0,0 -1.4008077842910984,0.14519945439924292 l -5.748978048738627 -60.53974277863012" fill="red" stroke="none" /><path d="M 101.26447882468166 120.96189622390904 l 2.124940559549738 35.226199618226595 a56.290232528629886,56.290232528629886 0 0,0 -0.9676878845054789,0.05001841030403916 l -1.5182646066307797 -35.257557835292836" fill="red" stroke="none" /><line stroke="#e1ed5e" stroke-width="0.3" x1="102.19456741930631" x2="102.32365962044197" y1="184.97166512339345" y2="189.96999836594603" /><path d="M 102.22038585953345 185.97133177190398 a86.0,86.0 0 0,1 -42.740103519485714,-10.115201625700543" fill="none" id="id79" stroke="none" /><text fill="#e1ed5e" style="font-size:6.75px; font-family:Arial;" text-anchor="middle"><textPath startOffset="22.20632615414155" xlink:href="#id79">July</textPath></text><path d="M 100.54218724476979 120.99299961872073 l 1.335090725944694 51.693505096407556 a72.71074294959237,72.71074294959237 0 0,0 -1.2514568323731035,0.021544964288239054 l -0.4450742036789226 -51.708827537974955" fill="red" stroke="none" /><path d="M 99.81925306533755 120.99922214144158 l -0.43574672609229487 50.62515895888696 a71.62703422897566,71.62703422897566 0 0,0 -1.232804641132831,-0.021223849900771894 l 1.3071110571177937 -50.61015763170703" fill="red" stroke="none" /><path d="M 99.09653310690486 120.98055641714683 l -1.2954430680599454 30.08313484683654 a51.11101418012245,51.11101418012245 0 0,0 -0.8786517121195984,-0.04541625719909163 l 1.8130828485930326 -30.056378782875246" fill="red" stroke="none" /><path d="M 98.01472825383883 120.90594882070398 l -3.812294227335946 40.14545019353739 a61.326055578466516,61.326055578466516 0 0,0 -1.0500405030842987,-0.10884099150126497 l 4.502767327025838 -40.073879833580364" fill="red" stroke="none" /><path d="M 97.2962882734958 120.8252237178851 l -6.4482791347960235 49.667593723509114 a71.08443041588681,71.08443041588681 0 0,0 -1.2120620068427748,-0.16798074981424166 l 7.302269732825629 -49.54923840820227" fill="red" stroke="none" /><path d="M 94.46302465271185 120.25689768951611 l -13.475332493911708 49.299195777541875 a72.10768327887574,72.10768327887574 0 0,0 -1.1944769310907126,-0.3375711120338095 l 14.321940593107033 -49.05993587216954" fill="red" stroke="none" /><path d="M 93.76903079525671 120.05430185196036 l -13.306014044627752 42.82525130990155 a65.84475620975161,65.84475620975161 0 0,0 -1.079473528605154,-0.3456133352088823 l 14.041208918323845 -42.58986512803296" fill="red" stroke="none" /><path d="M 92.7421414339146 119.70592522655815 l -12.970518283658897 35.21645690945807 a58.529097801605175,58.529097801605175 0 0,0 -0.9424014723217412,-0.35633559874358234 l 13.57478997674092 -34.98797306060785" fill="red" stroke="none" /><path d="M 91.7346041902142 119.30500536409082 l -17.45833143739087 40.776411656883575 a65.35661263204643,65.35661263204643 0 0,0 -1.030391581755864,-0.4516933890244527 l 18.157643693804477 -40.46985371456467" fill="red" stroke="none" /><path d="M 91.07499286063937 119.00905698771935 l -15.467431201935916 32.94353456307613 a57.39392665672683,57.39392665672683 0 0,0 -0.890664458626214,-0.4275730657306039 l 16.032208328562373 -32.67240722084596" fill="red" stroke="none" /><line stroke="#e1ed5e" stroke-width="0.3" x1="58.666819895761336" x2="56.23545636021788" y1="174.27360380694188" y2="178.64263932499728" /><path d="M 58.180547188652646 175.14741091055294 a86.0,86.0 0 0,1 -31.652253787137756,-30.449443065178592" fill="none" id="id80" stroke="none" /><text fill="#e1ed5e" style="font-size:6.75px; font-family:Arial;" text-anchor="middle"><textPath startOffset="22.20632615414155" xlink:href="#id80">August</textPath></text><path d="M 88.24862548938628 117.40417183066458 l -20.15735566214842 29.853706158287448 a57.021698442407136,57.021698442407136 0 0,0 -0.8087390622943093,-0.5562581015225191 l 20.66825160906562 -29.50230726739983" fill="red" stroke="none" /><path d="M 87.36589467227662 116.77436683061367 l -30.780677256896706 40.867664010123704 a72.16264314944644,72.16264314944644 0 0,0 -0.9857804378834514,-0.755854403934719 l 31.47958642327364 -40.33177026436162" fill="red" stroke="none" /><path d="M 86.51685102203217 116.09983520530335 l -26.891446226368544 32.11029214201143 a62.883418456365185,62.883418456365185 0 0,0 -0.8238761603903599,-0.7021251374962635 l 27.44018786333596 -31.642642614292214" fill="red" stroke="none" /><path d="M 85.70375840098266 115.38237550388516 l -25.0586725030011 26.962464742939147 a57.80912349712908,57.80912349712908 0 0,0 -0.7230659613319886,-0.6837039979411403 l 25.519074298723908 -26.527126108252077" fill="red" stroke="none" /><path d="M 83.50135304334701 112.99209946851258 l -43.5607615885313 34.30255517129823 a76.44551597246456,76.44551597246456 0 0,0 -0.8052012851122106,-1.040831203233069 l 44.14476969086158 -33.54764597395191" fill="red" stroke="none" /><path d="M 82.24976979558568 111.22182372390057 l -44.76804800580079 28.30268325530097 a73.9643276337912,73.9643276337912 0 0,0 -0.6710866579724654,-1.082005371295344 l 45.24859930344121 -27.527881552640363" fill="red" stroke="none" /><line stroke="#e1ed5e" stroke-width="0.3" x1="26.63291911575756" x2="22.317208475507996" y1="142.92168965132927" y2="145.44649492493687" /><path d="M 25.769776987707644 143.4266507060508 a86.0,86.0 0 0,1 -11.730757126820373,-40.83630448921669" fill="none" id="id81" stroke="none" /><text fill="#e1ed5e" style="font-size:6.75px; font-family:Arial;" text-anchor="middle"><textPath startOffset="21.46611528233685" xlink:href="#id81">September</textPath></text><path d="M 81.35079622478065 109.6543875284942 l -35.40807768453858 18.330182227929576 a60.87138755829077,60.87138755829077 0 0,0 -0.4736991965110272,-0.9346534545706877 l 35.718355550835874 -17.717974561656202" fill="red" stroke="none" /><path d="M 80.73074385275274 108.34839909993369 l -50.90707267527684 22.05547305277028 a76.47949116518097,76.47949116518097 0 0,0 -0.5129552995013046,-1.2124748034751758 l 51.27917895597045 -21.175923723628944" fill="red" stroke="none" /><path d="M 80.32549172779594 107.34259656027581 l -46.838442697990594 17.48027363554606 a70.99399644703867,70.99399644703867 0 0,0 -0.41743029407097965,-1.1485888901057753 l 47.1323972530668 -16.671436948434167" fill="red" stroke="none" /><path d="M 79.97269907076064 106.31721596034903 l -49.170222634823794 15.509774197736657 a72.55835421755543,72.55835421755543 0 0,0 -0.3654633955825841,-1.1943555223344418 l 49.42991280291251 -14.661091702850168" fill="red" stroke="none" /><path d="M 79.67330655649465 105.27499134158121 l -34.63220928011757 8.987423586634492 a56.77937537670907,56.77937537670907 0 0,0 -0.23736127330803203,-0.9481402971912903 l 34.78178186772066 -8.38995545004581" fill="red" stroke="none" /><path d="M 79.29508885075956 103.50808413554451 l -34.97266588195544 5.925504991248776 a56.47110046632617,56.47110046632617 0 0,0 -0.15413449561986245,-0.9597956513577646 l 35.069482131936596 -5.322630110197797" fill="red" stroke="none" /><path d="M 79.18660465613746 102.79330883721812 l -35.187599046985966 4.722431383950895 a56.50307711829458,56.50307711829458 0 0,0 -0.121073961582486,-0.9650785995457921 l 35.263674517815296 -4.116035030117694" fill="red" stroke="none" /><line stroke="#e1ed5e" stroke-width="0.3" x1="15.007084014347285" x2="10.007500721073583" y1="101.09737516637583" y2="101.16192664675087" /><path d="M 14.007167355692545 101.11028546245083 a86.0,86.0 0 0,1 10.666146001902534,-42.60595125391555" fill="none" id="id82" stroke="none" /><text fill="#e1ed5e" style="font-size:6.75px; font-family:Arial;" text-anchor="middle"><textPath startOffset="22.20632615414155" xlink:href="#id82">October</textPath></text><path d="M 79.00019446554 99.90962569577889 l -37.448809382618556 -0.16116387774685845 a58.449156171684166,58.449156171684166 0 0,0 0.012989609325180103,-1.006059557286896 l 37.44048676617566 0.8057596930942265" fill="red" stroke="none" /><path d="M 79.01574976396665 99.18683210126434 l -51.12626878400119 -1.9812116272751457 a72.16464169019446,72.16464169019446 0 0,0 0.05878460154484054,-1.2408500289933038 l 51.08459057422285 2.8609727628914587" fill="red" stroke="none" /><path d="M 79.08570108090925 98.10471618934814 l -35.28553988240088 -3.197626310494186 a56.430130380991656,56.430130380991656 0 0,0 0.09599268834931496,-0.9666332715991441 l 35.22527006836934 3.8045351127977605" fill="red" stroke="none" /><path d="M 79.16333360222342 97.38593545837743 l -35.137211027072546 -4.408139751528622 a56.41264314944643,56.41264314944643 0 0,0 0.12916883744514593,-0.962457872195162 l 35.056126190569564 5.012315965788443" fill="red" stroke="none" /><path d="M 79.32604984820605 96.31383870115002 l -52.27283326138324 -9.320236023333408 a74.09723059353487,74.09723059353487 0 0,0 0.23469160253395366,-1.253731925199709 l 52.10465593493943 10.21864602599569" fill="red" stroke="none" /><path d="M 79.91906864156998 93.8553929516997 l -53.91713825607204 -16.498220218922366 a77.38483012403643,77.38483012403643 0 0,0 0.4007226626437175,-1.2704003479229402 l 53.62516010966012 17.42387073327172" fill="red" stroke="none" /><path d="M 80.2630227832202 92.82701384747504 l -59.210931650339425 -21.518958457574875 a84.0,84.0 0 0,0 0.5055816459934896,-1.3547074518826343 l 58.83174541584431 22.534989046486853" fill="red" stroke="none" /><path d="M 81.10775173730289 90.83032412892265 l -51.80070723248737 -25.14235937457817 a78.57995749135551,78.57995749135551 0 0,0 0.6010992073110821,-1.2117793223683182 l 51.360248012222876 26.03029828544545" fill="red" stroke="none" /><path d="M 81.43458229118936 90.18545643968196 l -45.58327438607045 -24.097439610621006 a72.56085239349048,72.56085239349048 0 0,0 0.5932433652269656,-1.099189857713085 l 45.161722921625014 24.878510451666564" fill="red" stroke="none" /><line stroke="#e1ed5e" stroke-width="0.3" x1="26.266209847984243" x2="21.928928074336255" y1="57.711370442889674" y2="55.22380399835377" /><path d="M 25.398753493254645 57.213857153982495 a86.0,86.0 0 0,1 29.58750427330803,-30.492523968695096" fill="none" id="id83" stroke="none" /><text fill="#e1ed5e" style="font-size:6.75px; font-family:Arial;" text-anchor="middle"><textPath startOffset="21.46611528233685" xlink:href="#id83">November</textPath></text><path d="M 82.15384107792192 88.93136811851018 l -48.509956476743135 -30.087082221592095 a78.08282048028423,78.08282048028423 0 0,0 0.718259339241499,-1.1361137843266416 l 47.98486954125567 30.917643653632954" fill="red" stroke="none" /><path d="M 83.17141714833178 87.43820079747577 l -49.883164318294305 -37.23559489685833 a83.24804904355551,83.24804904355551 0 0,0 0.8670643454870931,-1.140955042520877 l 49.234824032583106 38.08873471526023" fill="red" stroke="none" /><path d="M 83.84228863543731 86.58626213691792 l -42.82436785655443 -35.55174564139557 a76.65836056212922,76.65836056212922 0 0,0 0.8515991384105693,-1.0080247716826818 l 42.20605810465674 36.283629362707366" fill="red" stroke="none" /><path d="M 84.31358615837235 86.03803664274999 l -19.299245300996283 -17.177626348224052 a46.836635155283446,46.836635155283446 0 0,0 0.5412003510750306,-0.597606944930044 l 19.00070130930521 17.507286080423654" fill="red" stroke="none" /><path d="M 85.05521093208273 85.24692304244772 l -39.655864809028586 -39.14715843008022 a76.72331313644005,76.72331313644005 0 0,0 0.9358936246718407,-0.9318746000214854 l 38.97613538418943 39.82396888075181" fill="red" stroke="none" /><path d="M 86.10567301691215 84.25364557470407 l -33.40569008236785 -37.858460974671594 a71.48963455254892,71.48963455254892 0 0,0 0.9297267870846192,-0.8062499080798835 l 32.74906949663646 38.42787587617116" fill="red" stroke="none" /><path d="M 87.22198572758235 83.33499621200491 l -34.85001424537118 -45.45116377467532 a78.27418075690767,78.27418075690767 0 0,0 1.076284321665148,-0.810635037364167 l 34.06248376994764 46.04431540154535" fill="red" stroke="none" /><path d="M 88.09926311788651 82.69761687909137 l -28.699206681648498 -41.72553970320505 a71.64252291977286,71.64252291977286 0 0,0 1.0220839784588498,-0.6901156647399944 l 27.976718008783106 42.213367280243716" fill="red" stroke="none" /><line stroke="#e1ed5e" stroke-width="0.3" x1="56.76296977257108" x2="54.21961505331056" y1="26.818313649435495" y2="22.513508569990535" /><path d="M 56.25429882871898 25.957352633546506 a86.0,86.0 0 0,1 42.26535254187918,-11.944610805530505" fill="none" id="id84" stroke="none" /><text fill="#e1ed5e" style="font-size:6.75px; font-family:Arial;" text-anchor="middle"><textPath startOffset="22.20632615414155" xlink:href="#id84">December</textPath></text><path d="M 89.3179101791058 81.91981866633112 l -27.960809785521306 -47.325618828781735 a75.96836436887352,75.96836436887352 0 0,0 1.1315786954213622,-0.6554834187389502 l 27.14203435763462 47.79990640491073" fill="red" stroke="none" /><path d="M 89.94658935756843 81.56283822128135 l -26.152565414416635 -47.96174120641501 a75.62861244170924,75.62861244170924 0 0,0 1.148312271487144,-0.613388646856074 l 25.323108096401185 48.40480857977284" fill="red" stroke="none" /><path d="M 91.23893434514133 80.91482961587045 l -22.96121531606186 -50.0188816974223 a76.0373140246804,76.0373140246804 0 0,0 1.194212658528415,-0.5358084094182431 l 22.09682053906667 50.40671043735708" fill="red" stroke="none" /><path d="M 91.90106846888425 80.62456947434976 l -19.452157267696656 -46.536252376781825 a71.43817212828728,71.43817212828728 0 0,0 1.1386432637361679,-0.4644811769076874 l 18.648230134372106 46.86419443987309" fill="red" stroke="none" /><path d="M 92.91201910852362 80.23233633223022 l -16.872094983297607 -47.05457084422563 a70.9880008247946,70.9880008247946 0 0,0 1.1537848655748923,-0.4025328844393813 l 16.05962811365943 47.338024581837225" fill="red" stroke="none" /><path d="M 93.59665428221793 80.00007090966166 l -15.413186076864816 -48.14086919240388 a71.54809186942867,71.54809186942867 0 0,0 1.1761641841887314,-0.36543993730131485 l 14.582236519965356 48.399049264587724" fill="red" stroke="none" /><path d="M 94.63758080256005 79.69619591428918 l -12.823416716398093 -48.553485121691985 a71.21833264600451,71.21833264600451 0 0,0 1.1879594708843004,-0.30283732014940196 l 11.985748356828793 48.76702543801024" fill="red" stroke="none" /><path d="M 95.33964822691252 79.52364482259891 l -7.839977781771167 -34.446792315019955 a56.32770516765536,56.32770516765536 0 0,0 0.9472637576996574,-0.20703516772279068 l 7.245871299917988 34.57664098083861" fill="red" stroke="none" /><path d="M 96.40284397218896 79.31037775812273 l -8.596493129147273 -49.44411475950963 a71.1858563588491,71.1858563588491 0 0,0 1.2090436142473315,-0.19950255583624696 l 7.7441203087610555 49.584763578285504" fill="red" stroke="none" /><path d="M 99.27714615592234 79.0124445844662 l -1.9276828657001748 -55.96892276208296 a77.00210957078959,77.00210957078959 0 0,0 1.325071972985183,-0.03422269971909415 l 0.9639842575201129 55.99381225394442" fill="red" stroke="none" /></svg>