<?xml version="1.0" encoding="utf-8" ?>
<svg baseProfile="full" height="200mm" version="1.1" viewBox="0,0,200,200" width="200mm" xmlns="http://www.w3.org/2000/svg" xmlns:ev="http://www.w3.org/2001/xml-events" xmlns:xlink="http://www.w3.org/1999/xlink"><defs /><rect fill="#1a1a1a" height="200" width="200" x="0" y="0" /><text alignment-baseline="middle" fill="#e1ed5e" style="dominant-baseline: central; font-size:9.0px; font-family:Arial;" text-anchor="middle" x="100.0" y="100.0">2015</text><line stroke="#e1ed5e" stroke-width="0.3" x1="100.0" x2="100.0" y1="15.0" y2="10.0" /><path d="M 100.0 14.0 a86.0,86.0 0 0,1 42.46469731375804,11.215312516191453" fill="none" id="id1" stroke="none" /><text fill="#e1ed5e" style="font-size:6.75px; font-family:Arial;" text-anchor="middle"><textPath startOffset="22.20632615414155" xlink:href="#id1">January</textPath></text><line stroke="#e1ed5e" stroke-width="0.3" x1="143.23703022742887" x2="145.7803849466894" y1="26.81831364943548" y2="22.513508569990506" /><path d="M 143.74570117128098 25.957352633546492 a86.0,86.0 0 0,1 28.547481713284135,27.462654790039103" fill="none" id="id2" stroke="none" /><text fill="#e1ed5e" style="font-size:6.75px; font-family:Arial;" text-anchor="middle"><textPath startOffset="19.985693538727396" xlink:href="#id2">February</textPath></text><line stroke="#e1ed5e" stroke-width="0.3" x1="172.23445277983987" x2="176.4835382374775" y1="55.19839476539836" y2="52.563006222186495" /><path d="M 173.08426987136738 54.67131705675599 a86.0,86.0 0 0,1 12.851231095245387,41.99856678651699" fill="none" id="id3" stroke="none" /><text fill="#e1ed5e" style="font-size:6.75px; font-family:Arial;" text-anchor="middle"><textPath startOffset="22.20632615414155" xlink:href="#id3">March</textPath></text><line stroke="#e1ed5e" stroke-width="0.3" x1="184.98032266829074" x2="189.97916517819016" y1="98.17113171792111" y2="98.06355123074" /><path d="M 185.9800911702706 98.14961562048488 a86.0,86.0 0 0,1 -9.607161424134198,41.387399972396054" fill="none" id="id4" stroke="none" /><text fill="#e1ed5e" style="font-size:6.75px; font-family:Arial;" text-anchor="middle"><textPath startOffset="21.466115282336823" xlink:href="#id4">April</textPath></text><line stroke="#e1ed5e" stroke-width="0.3" x1="174.80103733775053" x2="179.2010983576182" y1="140.37084112569926" y2="142.7455964860345" /><path d="M 175.68104954172406 140.8457921977663 a86.0,86.0 0 0,1 -30.038265399797805,32.042727171017184" fill="none" id="id5" stroke="none" /><text fill="#e1ed5e" style="font-size:6.75px; font-family:Arial;" text-anchor="middle"><textPath startOffset="22.206326154141568" xlink:href="#id5">May</textPath></text><path d="M 117.35343817320211 111.8261652097733 l 5.18340230649452 3.5324280648883617 a27.272615682837873,27.272615682837873 0 0,0 -0.2677120121988522,0.385659120477811 l -5.121829387133531 -3.6211284475531924" fill="#ff0000" stroke="none" /><path d="M 117.14729908036423 112.12312394758627 l 8.395597511342846 5.9356793607576215 a31.28194276614056,31.28194276614056 0 0,0 -0.3146370688551771,0.43700336970412973 l -8.292180650112066 -6.079316335912883" fill="#ff3f05" stroke="none" /><path d="M 116.498646956653 112.99209946851258 l 9.809950663975982 7.724988306158195 a33.48641567303939,33.48641567303939 0 0,0 -0.36050851300760994,0.4497898006949264 l -9.67552423891352 -7.892705940431372" fill="#ff6008" stroke="none" /><path d="M 115.32070863581623 114.36230785411682 l 7.072708202254736 6.63026854551939 a30.694517125671872,30.694517125671872 0 0,0 -0.3646705205448243,0.38235558285772003 l -6.957531130330947 -6.751031244959616" fill="#ff3605" stroke="none" /><path d="M 114.55890576462653 115.13401014063108 l 8.432877608878913 8.765992260047303 a33.16371838993079,33.16371838993079 0 0,0 -0.4148057342566381,0.39222471260814884 l -8.280736040231467 -8.909851609401374" fill="#ff5b08" stroke="none" /><path d="M 114.29624159901734 115.38237550388516 l 10.889237623593756 11.716529894728877 a36.995392111391496,36.995392111391496 0 0,0 -0.4701946105800199,0.429511628558234 l -10.685943463546872 -11.902234289873695" fill="#ff940d" stroke="none" /><path d="M 113.48314897796784 116.09983520530334 l 21.46303671302469 25.62838656234695 a54.42867246442388,54.42867246442388 0 0,0 -0.7234603975465594,0.595358654247717 l -21.01870618693344 -25.994040335451846" fill="#85ff25" stroke="none" /><path d="M 112.04921762599082 117.19931262002967 l 8.397237778045735 11.98639796975661 a35.63514053879989,35.63514053879989 0 0,0 -0.5054133940465497,0.34762794103059425 l -8.189667499376302 -12.129166700152298" fill="#ff800b" stroke="none" /><path d="M 111.7513745106137 117.40417183066458 l 9.255474865284697 13.707662434238896 a37.53976494370343,37.53976494370343 0 0,0 -0.5386514752805891,0.35698882604877746 l -9.018148691264145 -13.864949281378992" fill="#ff9c0e" stroke="none" /><path d="M 111.1453310114006 117.79835938074945 l 8.90157696160455 14.2152319797389 a37.772325200793134,37.772325200793134 0 0,0 -0.5540315156554914,0.340331407747579 l -8.655566246016749 -14.366351854314859" fill="#ff9f0e" stroke="none" /><line stroke="#e1ed5e" stroke-width="0.3" x1="143.8653032363475" x2="146.44561519142675" y1="172.8068346515853" y2="177.08958963109032" /><path d="M 144.38136562736335 173.6633856474863 a86.0,86.0 0 0,1 -40.68145358897372,12.25698825130547" fill="none" id="id6" stroke="none" /><text fill="#e1ed5e" style="font-size:6.75px; font-family:Arial;" text-anchor="middle"><textPath startOffset="21.466115282336833" xlink:href="#id6">June</textPath></text><path d="M 110.8373102113329 117.98757091392108 l 8.380485352655274 13.909777577126597 a37.23928714541385,37.23928714541385 0 0,0 -0.5519077437929788,0.3260768231934152 l -8.139809737833913 -14.051972972613761" fill="#ff980e" stroke="none" /><path d="M 110.5260780823613 118.17145234162733 l 8.034440384630685 13.870071017771808 a37.029070538625064,37.029070538625064 0 0,0 -0.55429209445613,0.3147415173672365 l -7.794499523253357 -14.006315700933675" fill="#ff940d" stroke="none" /><path d="M 109.89434966115114 118.52300852407294 l 8.884659889749317 16.63278906722696 a39.85701072575887,39.85701072575887 0 0,0 -0.6079315777885528,0.3180410688781938 l -8.597037409434268 -16.78325955504987" fill="#ffbd11" stroke="none" /><path d="M 109.57404056367764 118.69057910512821 l 14.65333248510015 28.606445538319843 a53.141077755043476,53.141077755043476 0 0,0 -0.8177300770508992,0.41002683643125487 l -14.158748500366489 -28.8544402156604" fill="#95ff23" stroke="none" /><path d="M 108.92500713936063 119.00905698771935 l 6.707361297754362 14.285771557978808 a36.78201395847087,36.78201395847087 0 0,0 -0.5754318459755804,0.26415253733761723 l -6.4604614560113625 -14.399111165650499" fill="#ff910d" stroke="none" /><path d="M 108.59647513512805 119.15986991738527 l 10.647740165766853 23.731740426557103 a47.01095681268126,47.01095681268126 0 0,0 -0.7411598031064754,0.32490267700302855 l -10.237659688002624 -23.911507656854585" fill="#e1ff1b" stroke="none" /><path d="M 107.93186726928326 119.44442032107085 l 8.688307328635856 21.29878045625711 a44.002711430626334,44.002711430626334 0 0,0 -0.7037896841218593,0.2800524398758263 l -8.32039656847213 -21.445179740539007" fill="#fff617" stroke="none" /><path d="M 107.59598834532513 119.57807347666477 l 5.788386164583905 14.91911842009058 a37.00267192761985,37.00267192761985 0 0,0 -0.5957954900079084,0.2252788741274497 l -5.5307204538157215 -15.01654554432466" fill="#ff940d" stroke="none" /><path d="M 106.91757812671514 119.82793768551818 l 10.614250796683628 30.423755181358906 a53.2221538589549,53.2221538589549 0 0,0 -0.8675978163900965,0.294336284763217 l -10.088983247356305 -30.601954453020248" fill="#94ff23" stroke="none" /><path d="M 105.53697534728816 120.25689768951611 l 6.249202421064502 22.86256415184866 a44.701252509030695,44.701252509030695 0 0,0 -0.7439769033429885,0.19649106207373357 l -5.854735074910016 -22.966746563225975" fill="#ffff18" stroke="none" /><path d="M 104.83641907484287 120.43548508189849 l 8.185483551537434 34.586400478747485 a56.54182380026093,56.54182380026093 0 0,0 -0.949040647912909,0.21599856165390272 l -7.588922754231663 -34.722175773979075" fill="#6dff28" stroke="none" /><path d="M 103.7750983002368 120.6578951692458 l 5.726555045753738 31.336554549765104 a52.85550319399227,52.85550319399227 0 0,0 -0.8964067536144141,0.15585180432188092 l -5.186299320667274 -31.430484932607992" fill="#98ff23" stroke="none" /><path d="M 103.06178313531738 120.77559828337769 l 3.303765916480113 22.417562077266826 a43.65969899886156,43.65969899886156 0 0,0 -0.7444423775657755,0.1031729301562233 l -2.9173949477275074 -22.471109572915655" fill="#fff116" stroke="none" /><path d="M 102.70371172650421 120.8252237178851 l 2.075975209798081 15.990110096806276 a37.12430755039367,37.12430755039367 0 0,0 -0.6344236151448988,0.07681986457332474 l -1.8004241716018017 -16.023475490104953" fill="#ff960d" stroke="none" /><path d="M 102.34483914955558 120.86867818915974 l 2.2870039188824687 20.3539542614473 a41.48203703253347,41.48203703253347 0 0,0 -0.7102661115856329,0.07362198656876857 l -1.936305210691233 -20.390305616471824" fill="#ffd313" stroke="none" /><line stroke="#e1ed5e" stroke-width="0.3" x1="102.19456741930631" x2="102.32365962044197" y1="184.97166512339345" y2="189.96999836594603" /><path d="M 102.22038585953345 185.97133177190398 a86.0,86.0 0 0,1 -42.740103519485714,-10.115201625700543" fill="none" id="id7" stroke="none" /><text fill="#e1ed5e" style="font-size:6.75px; font-family:Arial;" text-anchor="middle"><textPath startOffset="22.20632615414155" xlink:href="#id7">July</textPath></text><path d="M 100.54218724476979 120.99299961872073 l 0.9199359524876496 35.619087844865156 a56.63096548027993,56.63096548027993 0 0,0 -0.9747006535652379,0.01678035568591271 l -0.3066756090297438 -35.62964567783023" fill="#6cff28" stroke="none" /><path d="M 99.45781275523022 120.99299961872073 l -1.000454090427526 38.73667730381707 a59.74959453887369,59.74959453887369 0 0,0 -1.0279196429803312,-0.03540363089554149 l 1.6670940850825002 -38.71371687449543" fill="#49ff2c" stroke="none" /><path d="M 97.2962882734958 120.8252237178851 l -3.2806828290185783 25.26931891147755 a46.48139238885062,46.48139238885062 0 0,0 -0.792555126489212,-0.10984091875263997 l 3.715166546694621 -25.209103427232307" fill="#e8ff1a" stroke="none" /><path d="M 96.58105272829116 120.7198165907248 l -4.37409586488603 26.508295351799248 a47.86675337835658,47.86675337835658 0 0,0 -0.8117996879997821,-0.14114178146534614 l 4.829744524357862 -26.429074991812893" fill="#d6ff1c" stroke="none" /><path d="M 95.51606077576429 120.51570834832081 l -10.327993560565902 47.25445487009727 a69.36993855750853,69.36993855750853 0 0,0 -1.1643574085417574,-0.2650039553618337 l 11.139871118500523 -47.06967418115775" fill="#39ff8b" stroke="none" /><path d="M 93.42475214034765 119.94407469862007 l -9.948261695998891 30.17511713952529 a52.77271793781816,52.77271793781816 0 0,0 -0.8602713631086545,-0.2918507540269545 l 10.466202792044772 -29.99940339860021" fill="#99ff23" stroke="none" /><path d="M 92.7421414339146 119.70592522655815 l -7.7915507123571945 21.154961114027326 a43.54419309354944,43.54419309354944 0 0,0 -0.7011232570425469,-0.2651048230811882 l 8.154544190160024 -21.017708040839505" fill="#ffef16" stroke="none" /><path d="M 91.7346041902142 119.30500536409082 l -9.009519771582314 21.04301252123416 a43.8906055508226,43.8906055508226 0 0,0 -0.6919653368871168,-0.30333726870455396 l 9.370405783127174 -20.884810699235157" fill="#fff417" stroke="none" /><line stroke="#e1ed5e" stroke-width="0.3" x1="58.666819895761336" x2="56.23545636021788" y1="174.27360380694188" y2="178.64263932499728" /><path d="M 58.180547188652646 175.14741091055294 a86.0,86.0 0 0,1 -31.652253787137756,-30.449443065178592" fill="none" id="id8" stroke="none" /><text fill="#e1ed5e" style="font-size:6.75px; font-family:Arial;" text-anchor="middle"><textPath startOffset="22.20632615414155" xlink:href="#id8">August</textPath></text><path d="M 85.44109423537348 115.13401014063109 l -22.9454769557571 23.85186679164917 a54.09692526767036,54.09692526767036 0 0,0 -0.6655211056774161,-0.6513524755302805 l 23.35264801381031 -23.45336421319632" fill="#89ff24" stroke="none" /><path d="M 84.4343377721795 114.09645910891817 l -19.75432069411705 17.88976079613078 a47.65101738074551,47.65101738074551 0 0,0 -0.545357158700744,-0.6127145490918194 l 20.05933670246613 -17.547072077298093" fill="#d9ff1c" stroke="none" /><path d="M 84.19399662182784 113.82643327865904 l -26.497714222852846 23.179096509950057 a56.20510437498456,56.20510437498456 0 0,0 -0.6307216117295796,-0.7336717263428443 l 26.892778344153207 -22.719547684445683" fill="#71ff27" stroke="none" /><path d="M 83.72743513129214 113.27417163493432 l -14.976321933460934 12.216775253855712 a40.32717817628544,40.32717817628544 0 0,0 -0.43415488776334565,-0.5416749768504935 l 15.18439473327914 -11.957172443426959" fill="#ffc312" stroke="none" /><path d="M 83.28015986056508 112.70617746262583 l -17.71820265222429 13.464879169923588 a43.25393619757929,43.25393619757929 0 0,0 -0.44538935113410266,-0.5966718203316647 l 17.947353270053476 -13.157894470082617" fill="#ffeb16" stroke="none" /><path d="M 82.05923443525364 110.91462005526583 l -9.261980624451798 5.634709350071946 a31.84132070125724,31.84132070125724 0 0,0 -0.28083912080469653,-0.47070252030472004 l 9.357600620954727 -5.474444735881114" fill="#ff4706" stroke="none" /><line stroke="#e1ed5e" stroke-width="0.3" x1="26.63291911575756" x2="22.317208475507996" y1="142.92168965132927" y2="145.44649492493687" /><path d="M 25.769776987707644 143.4266507060508 a86.0,86.0 0 0,1 -11.730757126820373,-40.83630448921669" fill="none" id="id9" stroke="none" /><text fill="#e1ed5e" style="font-size:6.75px; font-family:Arial;" text-anchor="middle"><textPath startOffset="21.46611528233685" xlink:href="#id9">September</textPath></text><path d="M 81.51974371655577 109.97397251340807 l -27.775414165048595 14.99065885135487 a52.56253292810459,52.56253292810459 0 0,0 -0.4228718142642907,-0.7999141091839667 l 28.02933848753777 -14.510329727084779" fill="#9cff22" stroke="none" /><path d="M 81.18737489456691 109.33194174019688 l -14.025628357385843 6.957367510766904 a36.65641125863078,36.65641125863078 0 0,0 -0.2755283400650676,-0.5676699893326289 l 14.143309954065629 -6.71490856546899" fill="#ff8f0d" stroke="none" /><path d="M 80.87730276802145 108.67885076344099 l -19.009391844174743 8.627427026532242 a41.8755712588546,41.8755712588546 0 0,0 -0.2922494428550344,-0.658945342038436 l 19.155082371761058 -8.29893334800111" fill="#ffd914" stroke="none" /><path d="M 80.20201598880116 107.00284435728193 l -14.723035352508331 5.20775877897742 a36.61693060403441,36.61693060403441 0 0,0 -0.20507079913095022,-0.5960317337878039 l 14.81049698258251 -4.953554342100318" fill="#ff8f0d" stroke="none" /><path d="M 79.97269907076064 106.31721596034903 l -30.17514113369815 9.518151439831707 a52.64070715502693,52.64070715502693 0 0,0 -0.2651417853974683,-0.8664986956799637 l 30.33450969160175 -8.997325771599694" fill="#9bff22" stroke="none" /><path d="M 79.50377843672027 104.57218783832718 l -15.170268868510407 3.3841027045210046 a36.54314024441787,36.54314024441787 0 0,0 -0.13167008736292635,-0.6151188129304166 l 15.226272994597775 -3.122470072174424" fill="#ff8d0d" stroke="none" /><path d="M 79.35854240842038 103.8639653848113 l -31.03473986018356 5.809529681435436 a52.57381372765643,52.57381372765643 0 0,0 -0.1588569295626952,-0.8909540241960805 l 31.130143232085445 -5.274456906506141" fill="#9cff22" stroke="none" /><path d="M 79.23777060512086 103.15116336523772 l -32.30980748639994 4.903783681059731 a53.67982182018215,53.67982182018215 0 0,0 -0.13078947736616642,-0.914741300077975 l 32.3894310147827 -4.346896909001355" fill="#8eff24" stroke="none" /><path d="M 79.1416061653843 102.43462659150553 l -62.5751815038471 7.303879774516597 a84.0,84.0 0 0,0 -0.15527079399579247,-1.4376147124608716 l 62.69163459934394 -6.225668740170943" fill="#4dd2ff" stroke="none" /><path d="M 79.04373962182676 101.35467743843564 l -24.587247979031183 1.5893956989152143 a45.638566148826584,45.638566148826584 0 0,0 -0.04392961724421702,-0.7843928261432179 l 24.610963947162933 -1.1659311564365586" fill="#f3ff19" stroke="none" /><path d="M 79.0095281055655 100.63252640178507 l -32.98026639503255 0.993826596070683 a53.99523697127164,53.99523697127164 0 0,0 -0.01999864611765327,-0.92925850191633 l 32.99248710383521 -0.4259782783642242" fill="#8bff24" stroke="none" /><line stroke="#e1ed5e" stroke-width="0.3" x1="15.007084014347285" x2="10.007500721073583" y1="101.09737516637583" y2="101.16192664675087" /><path d="M 14.007167355692545 101.11028546245083 a86.0,86.0 0 0,1 10.666146001902534,-42.60595125391555" fill="none" id="id10" stroke="none" /><text fill="#e1ed5e" style="font-size:6.75px; font-family:Arial;" text-anchor="middle"><textPath startOffset="22.20632615414155" xlink:href="#id10">October</textPath></text><path d="M 79.00019446554 99.90962569577889 l -30.772434446543695 -0.1324315764606881 a51.77271941004358,51.77271941004358 0 0,0 0.011505852999199205,-0.8911409946828374 l 30.76559558642678 0.6621088292039975" fill="#a5ff21" stroke="none" /><path d="M 79.08570108090925 98.10471618934814 l -51.2428873006817 -4.643704055668234 a72.45286664770968,72.45286664770968 0 0,0 0.1232487928199228,-1.2410985239900023 l 51.15536138217955 5.525078110362667" fill="#3dffb0" stroke="none" /><path d="M 79.26566170972629 96.67025291283419 l -31.480095916187068 -5.055418514599748 a52.88343920047045,52.88343920047045 0 0,0 0.15207297379642265,-0.897543299703977 l 31.388411080870423 5.596547602619553" fill="#98ff23" stroke="none" /><path d="M 79.54389044137918 95.25157060432595 l -30.640903369797314 -7.112602025043273 a52.45558880205402,52.45558880205402 0 0,0 0.2117387320676324,-0.8777937422401787 l 30.513931837468867 7.6389809989428485" fill="#9dff22" stroke="none" /><path d="M 79.81627453868168 94.20196356495316 l -25.00111252540281 -7.181893234566596 a47.0122128612805,47.0122128612805 0 0,0 0.2301227736128001,-0.7758595924636296 l 24.873783854678305 7.611182213776765" fill="#e1ff1b" stroke="none" /><path d="M 80.02781315780177 93.51064311812611 l -29.191003901181993 -9.48473212030563 a51.69323788968475,51.69323788968475 0 0,0 0.2822517404824194,-0.8438967783628033 l 29.0234148669278 9.985802001590756" fill="#a6ff21" stroke="none" /><path d="M 80.2630227832202 92.82701384747504 l -30.312477391826224 -11.01642760145874 a53.25225515724688,53.25225515724688 0 0,0 0.320516223991264,-0.858824129655688 l 30.118356579333334 11.53657486814377" fill="#93ff23" stroke="none" /><path d="M 80.65960295795067 91.81776055985345 l -29.318413059852677 -12.403585879817854 a52.83423137168788,52.83423137168788 0 0,0 0.36156047078252174,-0.834531416242781 l 29.100561879227474 12.906416440647234" fill="#98ff23" stroke="none" /><path d="M 80.95270993114464 91.15688171328213 l -36.79550495896237 -17.0831126945279 a61.567744878400184,61.567744878400184 0 0,0 0.45455116033511506,-0.9574006686643028 l 36.4959956047855 17.713955778832737" fill="#36ff2f" stroke="none" /><path d="M 81.43458229118936 90.18545643968196 l -16.36549618799049 -8.651562692663024 a39.51159103114073,39.51159103114073 0 0,0 0.32303905557328255,-0.5985423088474277 l 16.214149033198737 8.931985984842925" fill="#ffb811" stroke="none" /><line stroke="#e1ed5e" stroke-width="0.3" x1="26.266209847984243" x2="21.928928074336255" y1="57.711370442889674" y2="55.22380399835377" /><path d="M 25.398753493254645 57.213857153982495 a86.0,86.0 0 0,1 29.58750427330803,-30.492523968695096" fill="none" id="id11" stroke="none" /><text fill="#e1ed5e" style="font-size:6.75px; font-family:Arial;" text-anchor="middle"><textPath startOffset="21.46611528233685" xlink:href="#id11">November</textPath></text><path d="M 81.96595687620814 89.24020034530311 l -35.36168709969366 -21.09813456877119 a62.17742338732013,62.17742338732013 0 0,0 0.5562931217974477,-0.9143996248072669 l 34.993278179609995 21.70370196678553" fill="#2fff30" stroke="none" /><path d="M 82.54541684631803 88.32363383020206 l -33.89776689485694 -22.676149588786444 a61.78316271000913,61.78316271000913 0 0,0 0.5989304933983459,-0.8788565949209268 l 33.50241193578986 23.25628420697779" fill="#33ff2f" stroke="none" /><path d="M 83.17141714833178 87.43820079747577 l -25.656972935912872 -19.151805294976857 a53.01674415506469,53.01674415506469 0 0,0 0.5521922627474046,-0.7266202905261115 l 25.32350473294136 19.590610361383995" fill="#96ff23" stroke="none" /><path d="M 83.6137871275137 86.86637796730984 l -24.722228397807655 -19.814975315487835 a52.68314731378118,52.68314731378118 0 0,0 0.5732466001600262,-0.7027325503552165 l 24.377483305571236 20.237592035451133" fill="#9aff22" stroke="none" /><path d="M 84.80347519578584 85.50635884689758 l -25.259856118901006 -24.091514006203834 a55.90646613821995,55.90646613821995 0 0,0 0.6701740674791304,-0.6906732865008983 l 24.84141778771876 24.522751488254855" fill="#74ff27" stroke="none" /><path d="M 85.57189188830299 84.74124197986013 l -20.931980048900925 -22.137068559226904 a51.466335407519864,51.466335407519864 0 0,0 0.6489466602800433,-0.6031251959683098 l 20.547825504826026 22.49409834126986" fill="#a9ff21" stroke="none" /><path d="M 86.10567301691215 84.25364557470407 l -20.894798600540653 -23.67994540575946 a52.58057033963928,52.58057033963928 0 0,0 0.6838133252592864,-0.5929961772564484 l 20.484091476634593 24.03610657643559" fill="#9bff22" stroke="none" /><path d="M 87.51073957382395 83.11751280151077 l -21.942569716716427 -29.6610959899605 a57.89521623596495,57.89521623596495 0 0,0 0.806272721377073,-0.5857914212510623 l 21.428751678985574 30.03440664602823" fill="#5eff2a" stroke="none" /><path d="M 88.70189139769569 82.29822771554957 l -20.891364303601023 -32.73239677820196 a59.83115889735228,59.83115889735228 0 0,0 0.8729105322629453,-0.5466164952220927 l 20.324834618965834 33.087157614746985" fill="#48ff2c" stroke="none" /><line stroke="#e1ed5e" stroke-width="0.3" x1="56.76296977257108" x2="54.21961505331056" y1="26.818313649435495" y2="22.513508569990535" /><path d="M 56.25429882871898 25.957352633546506 a86.0,86.0 0 0,1 42.26535254187918,-11.944610805530505" fill="none" id="id12" stroke="none" /><text fill="#e1ed5e" style="font-size:6.75px; font-family:Arial;" text-anchor="middle"><textPath startOffset="22.20632615414155" xlink:href="#id12">December</textPath></text><path d="M 89.63071344664047 81.73862282372117 l -6.142428010551453 -10.81744574244393 a33.43971680769001,33.43971680769001 0 0,0 0.5029905241810434,-0.2799136821304668 l 5.955313397298364 10.92157482213458" fill="#ff6008" stroke="none" /><path d="M 90.91171255644093 81.06846463323043 l -13.78630516558061 -28.71783330359306 a52.85555147492307,52.85555147492307 0 0,0 0.8235946712557116,-0.386688741353418 l 13.289932283025289 28.950887027586486" fill="#98ff23" stroke="none" /><path d="M 94.28887869178378 79.79150937346287 l -5.819660527559332 -20.59255072232799 a42.3991026425802,42.3991026425802 0 0,0 0.7040312660232267,-0.19243833993929788 l 5.464331372312383 20.68967560309358" fill="#ffe015" stroke="none" /><path d="M 95.692805502759 79.44645832069477 l -6.718154779338552 -32.05842558389401 a53.75478979565003,53.75478979565003 0 0,0 0.9072620550291226,-0.18198823316056392 l 6.165326314842293 32.16931777313178" fill="#8dff24" stroke="none" /><path d="M 97.47563105711357 79.15227682838746 l -4.9560103373140185 -40.92964772012777 a62.228607797951696,62.228607797951696 0 0,0 1.0645041864409075,-0.11960944860078095 l 4.250739447363394 41.00889312219915" fill="#2fff30" stroke="none" /></svg>