<?xml version="1.0" encoding="utf-8" ?>
<svg baseProfile="full" height="200mm" version="1.1" viewBox="0,0,200,200" width="200mm" xmlns="http://www.w3.org/2000/svg" xmlns:ev="http://www.w3.org/2001/xml-events" xmlns:xlink="http://www.w3.org/1999/xlink"><defs /><rect fill="#1a1a1a" height="200" width="200" x="0" y="0" /><text alignment-baseline="middle" fill="#e1ed5e" style="dominant-baseline: central; font-size:9.0px; font-family:Arial;" text-anchor="middle" x="100.0" y="100.0">2021</text><line stroke="#e1ed5e" stroke-width="0.3" x1="100.0" x2="100.0" y1="15.0" y2="10.0" /><path d="M 100.0 14.0 a86.0,86.0 0 0,1 42.46469731375804,11.215312516191453" fill="none" id="id73" stroke="none" /><text fill="#e1ed5e" style="font-size:6.75px; font-family:Arial;" text-anchor="middle"><textPath startOffset="22.20632615414155" xlink:href="#id73">January</textPath></text><path d="M 104.307194497241 79.44645832069477 l 5.4629837606842635 -26.068863268309684 a47.635123871897534,47.635123871897534 0 0,0 0.8010805038670754,0.17508517044960292 l -5.910906988704867 25.970964599764212" fill="#d7ff1c" stroke="none" /><path d="M 105.71112130821622 79.79150937346287 l 7.249765306125794 -25.6528983236037 a47.657649735020804,47.657649735020804 0 0,0 0.7875081265887018,0.22989521704593882 l -7.690263650437923 25.524304777639056" fill="#d6ff1c" stroke="none" /><path d="M 107.4271985657038 80.35727306442388 l 9.533204513682168 -25.21248508797824 a47.95461727814393,47.95461727814393 0 0,0 0.769595873272969,0.2985912424406555 l -9.965783551954804 25.044651141647037" fill="#d3ff1c" stroke="none" /><path d="M 108.43124777332544 80.76684994638697 l 10.867592045570712 -24.79087724063795 a48.06828681740558,48.06828681740558 0 0,0 0.754941929859424,0.3387204378988693 l -11.292716093896917 24.60013647222255" fill="#d1ff1c" stroke="none" /><path d="M 109.41281617654863 81.2277094730956 l 12.329661978180265 -24.589452551892307 a48.507485186725944,48.507485186725944 0 0,0 0.7431797443939461,0.3806855303364567 l -12.751102210162967 24.37357449624335" fill="#ccff1d" stroke="none" /><line stroke="#e1ed5e" stroke-width="0.3" x1="143.23703022742887" x2="145.7803849466894" y1="26.81831364943548" y2="22.513508569990506" /><path d="M 143.74570117128098 25.957352633546492 a86.0,86.0 0 0,1 28.547481713284135,27.462654790039103" fill="none" id="id74" stroke="none" /><text fill="#e1ed5e" style="font-size:6.75px; font-family:Arial;" text-anchor="middle"><textPath startOffset="19.985693538727396" xlink:href="#id74">February</textPath></text><path d="M 111.2981086023043 82.29822771554956 l 13.152585758988852 -20.60734997801677 a45.4469504287145,45.4469504287145 0 0,0 0.6558059313070352,0.426554420150868 l -13.505358716080169 20.377896633706374" fill="#f3ff19" stroke="none" /><path d="M 112.19680574252982 82.90503203632743 l 16.0341142931423 -22.473316043014936 a48.606933099038415,48.606933099038415 0 0,0 0.6769202496424684,0.491811349433256 l -16.418579859138557 22.193985458765006" fill="#caff1d" stroke="none" /><path d="M 115.4437574822437 85.77008943001954 l 20.06376146660826 -18.48679194137261 a48.282155348735806,48.282155348735806 0 0,0 0.5579034304826301,0.6160509023958283 l -20.379008537706927 18.138688251707233" fill="#ceff1d" stroke="none" /><line stroke="#e1ed5e" stroke-width="0.3" x1="172.23445277983987" x2="176.4835382374775" y1="55.19839476539836" y2="52.563006222186495" /><path d="M 173.08426987136738 54.67131705675599 a86.0,86.0 0 0,1 12.851231095245387,41.99856678651699" fill="none" id="id75" stroke="none" /><text fill="#e1ed5e" style="font-size:6.75px; font-family:Arial;" text-anchor="middle"><textPath startOffset="22.20632615414155" xlink:href="#id75">March</textPath></text><path d="M 117.84615892207809 88.93136811851018 l 16.094659933291705 -9.982308620987292 a39.93896944854557,39.93896944854557 0 0,0 0.3573286377195655,0.5873543271718414 l -16.264104369297495 9.703786520608368" fill="#ffc111" stroke="none" /><path d="M 118.73160827565052 90.50648371742162 l 23.91456573876414 -12.120332429056425 a47.81061194125394,47.81061194125394 0 0,0 0.3657283849015554,0.7372861069129856 l -24.1196541366191 11.70688673364449" fill="#d4ff1c" stroke="none" /><path d="M 119.34039704204932 91.81776055985345 l 27.24931592614685 -11.528223903737764 a50.58758463980578,50.58758463980578 0 0,0 0.3323804568143863,0.8048856403573806 l -27.443718069847435 11.057463692927081" fill="#b2ff20" stroke="none" /><path d="M 119.47837535516314 92.15188598940014 l 24.798269326465217 -9.99157483060169 a47.73547697691999,47.73547697691999 0 0,0 0.30052085503916237,0.7647927966980526 l -24.96658373138608 9.563233029007854" fill="#d5ff1c" stroke="none" /><path d="M 120.45610955862082 95.25157060432595 l 31.44286675271469 -7.298759930132044 a53.27887492070738,53.27887492070738 0 0,0 0.19968316716552575,0.8951404844686905 l -31.563844306882253 6.75644127611339" fill="#91ff24" stroke="none" /><path d="M 120.73433829027371 96.67025291283417 l 26.305593732506118 -4.224440292269567 a47.64263795877983,47.64263795877983 0 0,0 0.12306344429851948,0.8108343378309805 l -26.37441307024394 3.771006842046505" fill="#d7ff1c" stroke="none" /><path d="M 120.87857604477298 97.74499172005257 l 26.160477408097336 -2.825484507953597 a47.31261942346784,47.31261942346784 0 0,0 0.0804829884432899,0.8104527101471434 l -26.205237522222852 2.3747562671020184" fill="#dbff1b" stroke="none" /><line stroke="#e1ed5e" stroke-width="0.3" x1="184.98032266829074" x2="189.97916517819016" y1="98.17113171792111" y2="98.06355123074" /><path d="M 185.9800911702706 98.14961562048488 a86.0,86.0 0 0,1 -9.607161424134198,41.387399972396054" fill="none" id="id76" stroke="none" /><text fill="#e1ed5e" style="font-size:6.75px; font-family:Arial;" text-anchor="middle"><textPath startOffset="21.466115282336823" xlink:href="#id76">April</textPath></text><path d="M 120.99513854157772 99.54816195383933 l 27.136627046719553 -0.5840095086726247 a48.14291057677808,48.14291057677808 0 0,0 0.010699172428299047,0.8286626954734634 l -27.142659226265568 0.11681055513869862" fill="#d0ff1d" stroke="none" /><path d="M 120.92983693683757 101.71520430193887 l 26.811010817670887 2.1971676718063855 a47.90088933182872,47.90088933182872 0 0,0 -0.07441837395895462,0.8212005554539794 l -26.769217847434856 -2.6583496158089353" fill="#d3ff1c" stroke="none" /><path d="M 120.32669344350535 105.2749913415812 l 28.22075990754077 7.323584850574099 a50.15555152664101,50.15555152664101 0 0,0 -0.2240566081358717,0.8337979899776834 l -28.09051522306312 -7.80827377372733" fill="#b7ff1f" stroke="none" /><path d="M 120.02730092923936 106.31721596034902 l 12.80061483830384 4.03770076879175 a34.4223234850344,34.4223234850344 0 0,0 -0.18310667958589374,0.5635444133083333 l -12.729215907701699 -4.257444082077879" fill="#ff720a" stroke="none" /><path d="M 119.79798401119884 107.00284435728193 l 5.649210939397389 1.9982107737675052 a26.99219747122937,26.99219747122937 0 0,0 -0.15870864427870937,0.4366980264045579 l -5.613978034113454 -2.0951565971781942" fill="#ff0000" stroke="none" /><path d="M 119.12269723197855 108.67885076344098 l 24.582429046980764 11.156754223188038 a47.995721561878426,47.995721561878426 0 0,0 -0.34791271927646245,0.7493730455529847 l -24.38674171086447 -11.578247336019853" fill="#d2ff1c" stroke="none" /><line stroke="#e1ed5e" stroke-width="0.3" x1="174.80103733775053" x2="179.2010983576182" y1="140.37084112569926" y2="142.7455964860345" /><path d="M 175.68104954172406 140.8457921977663 a86.0,86.0 0 0,1 -30.038265399797805,32.042727171017184" fill="none" id="id77" stroke="none" /><text fill="#e1ed5e" style="font-size:6.75px; font-family:Arial;" text-anchor="middle"><textPath startOffset="22.206326154141568" xlink:href="#id77">May</textPath></text><path d="M 117.94076556474637 110.91462005526583 l 43.889214289915394 26.70087275650448 a72.37314217512062,72.37314217512062 0 0,0 -0.6566496534618266,1.0587283231818907 l -43.4230999967856 -27.452397411051646" fill="#3dffaf" stroke="none" /><path d="M 117.35343817320211 111.8261652097733 l 26.403088000652772 17.993395754052223 a52.951296479676046,52.951296479676046 0 0,0 -0.5197777248051996,0.748778579436453 l -26.089449368685436 -18.445215595675695" fill="#95ff23" stroke="none" /><path d="M 116.498646956653 112.99209946851258 l 28.593810686758218 22.516612035047974 a57.39510718664029,57.39510718664029 0 0,0 -0.6179050319329092,0.7709315345782934 l -28.201987742770452 -23.005471403204517" fill="#62ff29" stroke="none" /><path d="M 115.80600337817218 113.82643327865902 l 20.885281512562887 18.269574188390127 a48.74837517556824,48.74837517556824 0 0,0 -0.5579162174985933,0.6268247847888833 l -20.567706445415954 -18.626373142919878" fill="#c9ff1d" stroke="none" /><path d="M 114.55890576462653 115.13401014063108 l 9.387845377404364 9.758683065695275 a34.54117926942629,34.54117926942629 0 0,0 -0.4320347634267328,0.40851583507025274 l -9.218474779586824 -9.91883353751145" fill="#ff740a" stroke="none" /><path d="M 114.29624159901734 115.38237550388516 l 12.603226967639433 13.560736815629028 a39.51310111733284,39.51310111733284 0 0,0 -0.5021935471513093,0.45874189842864366 l -12.36793387102126 -13.775671480644254" fill="#ffbb11" stroke="none" /><path d="M 113.75828350139079 115.86535959552629 l 11.256792281670885 12.980765908974028 a38.1818408808913,38.1818408808913 0 0,0 -0.5002448854369068,0.4263195439503526 l -11.031681919656931 -13.172609843147328" fill="#ffa80f" stroke="none" /><path d="M 112.92097659922987 116.55440617244103 l 11.484443657550464 14.713914502634127 a39.66525451512189,39.66525451512189 0 0,0 -0.5418486665420097,0.41546645189195414 l -11.229466262514961 -14.909420296353453" fill="#ffbd11" stroke="none" /><path d="M 112.34349029814194 116.9893568818739 l 16.83886419638543 23.176708241174254 a49.64798688077097,49.64798688077097 0 0,0 -0.6957164650632379,0.4963752254047994 l -16.437420403473308 -23.463127728423274" fill="#bdff1f" stroke="none" /><path d="M 111.45004920935366 117.60387380957326 l 10.061781504823543 15.469482154340033 a39.45384310040198,39.45384310040198 0 0,0 -0.5724906653275066,0.3653906290703575 l -9.794009037449106 -15.6403872122342" fill="#ffba11" stroke="none" /><path d="M 111.1453310114006 117.79835938074945 l 17.589387595900728 28.089093217501144 a54.14187251469499,54.14187251469499 0 0,0 -0.7941344232923474,0.48782222415656823 l -17.10327397267607 -28.387703908486092" fill="#87ff25" stroke="none" /><line stroke="#e1ed5e" stroke-width="0.3" x1="143.8653032363475" x2="146.44561519142675" y1="172.8068346515853" y2="177.08958963109032" /><path d="M 144.38136562736335 173.6633856474863 a86.0,86.0 0 0,1 -40.68145358897372,12.25698825130547" fill="none" id="id78" stroke="none" /><text fill="#e1ed5e" style="font-size:6.75px; font-family:Arial;" text-anchor="middle"><textPath startOffset="21.466115282336833" xlink:href="#id78">June</textPath></text><path d="M 110.8373102113329 117.98757091392108 l 19.678041583898757 32.66125648662522 a59.131128961293115,59.131128961293115 0 0,0 -0.8763574835770738,0.5177674483469045 l -19.1129162292933 -32.995142507265875" fill="#4fff2b" stroke="none" /><path d="M 109.89434966115114 118.52300852407294 l 10.154050607510396 19.00918932502136 a42.55119538527708,42.55119538527708 0 0,0 -0.6490254757274689,0.3395394540622746 l -9.82533422925643 -19.18115819802835" fill="#ffe515" stroke="none" /><path d="M 109.57404056367764 118.69057910512821 l 14.255873525551587 27.83052046519369 a52.26927884266101,52.26927884266101 0 0,0 -0.8043149145831461,0.403300195475719 l -13.774704703285682 -28.07178850157871" fill="#9dff22" stroke="none" /><path d="M 108.92500713936063 119.00905698771935 l 18.7768189389362 39.992082435902226 a65.18071510314871,65.18071510314871 0 0,0 -1.0197119509595372,0.46809974297266205 l -18.085638992209244 -40.30936924920896" fill="#34ff58" stroke="none" /><path d="M 107.93186726928326 119.44442032107085 l 11.36089787000858 27.850450078089466 a51.07852340067443,51.07852340067443 0 0,0 -0.8169618798661372,0.325085992170409 l -10.879814914100576 -28.041882914665944" fill="#acff21" stroke="none" /><path d="M 107.2578585660854 119.70592522655815 l 9.463428920687997 25.694303767413913 a48.38163130693741,48.38163130693741 0 0,0 -0.7839677504083257,0.28110294305988004 l -9.019741609649936 -25.853394251513752" fill="#cdff1d" stroke="none" /><path d="M 106.57524785965236 119.94407469862006 l 4.210405111113198 12.771021844328311 a34.44717480171947,34.44717480171947 0 0,0 -0.5647346193406301,0.18081019138138207 l -3.989949146681628 -12.841604882369401" fill="#ff720a" stroke="none" /><path d="M 105.88484417918355 120.15858648285463 l 5.193105540715267 17.7890295765867 a39.53153847994505,39.53153847994505 0 0,0 -0.6548471482879197,0.18506634519753165 l -4.886127224322742 -17.87578471512275" fill="#ffbb11" stroke="none" /><path d="M 105.53697534728816 120.25689768951611 l 7.101270202308793 25.979834644601016 a47.93287668718308,47.93287668718308 0 0,0 -0.7977618336051646,0.2106961509995984 l -6.653017925892131 -26.0982221449042" fill="#d3ff1c" stroke="none" /><path d="M 104.83641907484287 120.43548508189849 l 3.756457865829628 15.872288461775971 a37.31074850249307,37.31074850249307 0 0,0 -0.6262517646761548,0.1425328627395959 l -3.4826859517606112 -15.93459805809325" fill="#ff9c0e" stroke="none" /><path d="M 104.13013068566511 120.58985236759428 l 3.674833031471013 18.320066688485984 a39.68500043563725,39.68500043563725 0 0,0 -0.6709266843041545,0.12858469586585816 l -3.358938732595154 -18.380608582700308" fill="#ffbd11" stroke="none" /><path d="M 103.7750983002368 120.6578951692458 l 4.787779108035485 26.19943403886938 a47.63330945910419,47.63330945910419 0 0,0 -0.8078405788595281,0.14045343959316828 l -4.336089557703907 -26.277966056983555" fill="#d7ff1c" stroke="none" /><path d="M 103.41894727170886 120.7198165907248 l 3.487168100402949 21.133254689026405 a42.419028808788795,42.419028808788795 0 0,0 -0.7214550376693563,0.11267643941172013 l -3.1228771991250754 -21.19014943578523" fill="#ffe315" stroke="none" /><path d="M 103.06178313531738 120.77559828337769 l 2.6947423771331915 18.28505894448667 a39.48255980870803,39.48255980870803 0 0,0 -0.673217895916872,0.09330186599864011 l -2.3795958900294893 -18.328735375977914" fill="#ffbb11" stroke="none" /><path d="M 102.34483914955558 120.86867818915974 l 3.593693485177887 31.983273934534466 a53.18453735005184,53.18453735005184 0 0,0 -0.9106393331281182,0.09439149025832083 l -3.042621555444166 -32.040394793248545" fill="#92ff23" stroke="none" /><path d="M 101.26447882468166 120.96189622390904 l 1.1086590072385691 18.378793384134013 a39.41220168939661,39.41220168939661 0 0,0 -0.6775369076174568,0.035020919021486366 l -0.7921340312076328 -18.3951541099177" fill="#ffba11" stroke="none" /><line stroke="#e1ed5e" stroke-width="0.3" x1="102.19456741930631" x2="102.32365962044197" y1="184.97166512339345" y2="189.96999836594603" /><path d="M 102.22038585953345 185.97133177190398 a86.0,86.0 0 0,1 -42.740103519485714,-10.115201625700543" fill="none" id="id79" stroke="none" /><text fill="#e1ed5e" style="font-size:6.75px; font-family:Arial;" text-anchor="middle"><textPath startOffset="22.20632615414155" xlink:href="#id79">July</textPath></text><path d="M 100.54218724476979 120.99299961872073 l 0.7044698140162484 27.27643388830099 a48.28552956022138,48.28552956022138 0 0,0 -0.8310636560925316,0.014307514513156446 l -0.2348464680310489 -27.284518880093305" fill="#ceff1d" stroke="none" /><path d="M 99.81925306533755 120.99922214144158 l -0.23031480538143914 26.758029228545123 a47.75902040630884,47.75902040630884 0 0,0 -0.8220016736227937,-0.014151504266825439 l 0.6908761688969007 -26.75010024699914" fill="#d5ff1c" stroke="none" /><path d="M 99.09653310690486 120.98055641714683 l -0.9283015797531583 21.55727433399905 a42.57725238611873,42.57725238611873 0 0,0 -0.7319474345504339,-0.03783332176473695 l 1.299237082717081 -21.53810120547211" fill="#ffe515" stroke="none" /><path d="M 98.01472825383883 120.90594882070398 l -2.010565671380333 21.172307069708882 a42.267556535083614,42.267556535083614 0 0,0 -0.7237159786260142,-0.0750161202806859 l 2.37471424661194 -21.134561580972434" fill="#ffe115" stroke="none" /><path d="M 97.2962882734958 120.8252237178851 l -5.8566153721690615 45.11032894498798 a66.48891866314858,66.48891866314858 0 0,0 -1.1337038464846578,-0.15712102278979045 l 6.632247809840551 -45.00283335670558" fill="#35ff68" stroke="none" /><path d="M 94.46302465271185 120.25689768951611 l -11.93013406921422 43.64612267610053 a66.24723332499616,66.24723332499616 0 0,0 -1.0973975082413099,-0.31013549743642344 l 12.679662745560144 -43.43429838532559" fill="#35ff65" stroke="none" /><path d="M 93.76903079525671 120.05430185196036 l -10.75909674702415 34.62802763573543 a57.26097710698213,57.26097710698213 0 0,0 -0.9387491512938221,-0.30055783352315957 l 11.353567243408913 -34.43769695555256" fill="#63ff29" stroke="none" /><path d="M 92.7421414339146 119.70592522655815 l -10.387617147852264 28.203581667215612 a51.05569178823963,51.05569178823963 0 0,0 -0.8220690377756429,-0.310836168435373 l 10.87155640638819 -28.020597248673607" fill="#acff21" stroke="none" /><path d="M 91.7346041902142 119.30500536409082 l -14.391390566664802 33.61313583522023 a57.56439556616867,57.56439556616867 0 0,0 -0.9075419641800913,-0.3978397268967021 l 14.967853205502637 -33.36043155502907" fill="#60ff29" stroke="none" /><path d="M 91.07499286063937 119.00905698771935 l -8.206691369098476 17.47914163875874 a40.30984659844363,40.30984659844363 0 0,0 -0.6255461124422054,-0.30030014834691277 l 8.506350149540923 -17.335287213912263" fill="#ffc612" stroke="none" /><line stroke="#e1ed5e" stroke-width="0.3" x1="58.666819895761336" x2="56.23545636021788" y1="174.27360380694188" y2="178.64263932499728" /><path d="M 58.180547188652646 175.14741091055294 a86.0,86.0 0 0,1 -31.652253787137756,-30.449443065178592" fill="none" id="id80" stroke="none" /><text fill="#e1ed5e" style="font-size:6.75px; font-family:Arial;" text-anchor="middle"><textPath startOffset="22.20632615414155" xlink:href="#id80">August</textPath></text><path d="M 88.24862548938628 117.40417183066458 l -10.362044937206365 15.346529075498692 a39.51723332319952,39.51723332319952 0 0,0 -0.5604731373364704,-0.38549853452694166 l 10.624674959165725 -15.165889751606649" fill="#ffbb11" stroke="none" /><path d="M 87.36589467227662 116.77436683061367 l -16.263784225693897 21.593510231159193 a48.03313451013601,48.03313451013601 0 0,0 -0.6561583986364808,-0.503114280044959 l 16.633071352823865 -21.310356609286867" fill="#d2ff1c" stroke="none" /><path d="M 86.51685102203217 116.09983520530335 l -23.787218127436322 28.40362384707923 a58.04858423595432,58.04858423595432 0 0,0 -0.7605318837683752,-0.648141770734274 l 24.272615487781756 -27.989957686122008" fill="#5bff2a" stroke="none" /><path d="M 85.70375840098266 115.38237550388516 l -13.080547728603355 14.074321251796642 a40.21424595395419,40.21424595395419 0 0,0 -0.5029924456713258,-0.47561075258772934 l 13.320876008665497 -13.847075862462981" fill="#ffc512" stroke="none" /><path d="M 83.50135304334701 112.99209946851258 l -33.22918146944765 26.166802165206136 a63.29515382029624,63.29515382029624 0 0,0 -0.6666884061039647,-0.86178463539092 l 33.67467669276969 -25.590939535701963" fill="#31ff40" stroke="none" /><path d="M 82.24976979558568 111.22182372390057 l -38.93268382932755 24.613523881082727 a67.0606060316081,67.0606060316081 0 0,0 -0.6084484159198905,-0.9810125806561286 l 39.3505968849154 -23.939714969061335" fill="#36ff70" stroke="none" /><line stroke="#e1ed5e" stroke-width="0.3" x1="26.63291911575756" x2="22.317208475507996" y1="142.92168965132927" y2="145.44649492493687" /><path d="M 25.769776987707644 143.4266507060508 a86.0,86.0 0 0,1 -11.730757126820373,-40.83630448921669" fill="none" id="id81" stroke="none" /><text fill="#e1ed5e" style="font-size:6.75px; font-family:Arial;" text-anchor="middle"><textPath startOffset="21.46611528233685" xlink:href="#id81">September</textPath></text><path d="M 81.35079622478065 109.6543875284942 l -33.43085440227042 17.306606099561943 a58.64492848646678,58.64492848646678 0 0,0 -0.4563729630260791,-0.900467152164688 l 33.72380603508277 -16.728584735694568" fill="#54ff2b" stroke="none" /><path d="M 80.73074385275274 108.34839909993369 l -36.26802195011364 15.713108979972645 a60.52557665601379,60.52557665601379 0 0,0 -0.4059508611794941,-0.9595479198825074 l 36.53312379248545 -15.08648653442398" fill="#3fff2d" stroke="none" /><path d="M 80.32549172779594 107.34259656027581 l -44.47635953690733 16.598735786991107 a68.47277732956633,68.47277732956633 0 0,0 -0.40260603722823424,-1.1077989020395123 l 44.755489835140786 -15.830689087945476" fill="#38ff81" stroke="none" /><path d="M 79.97269907076064 106.31721596034903 l -25.901837974513352 8.170222479459438 a48.15985540870581,48.15985540870581 0 0,0 -0.24257254010556703,-0.7927410962182367 l 26.03863728712505 -7.723154410689155" fill="#d0ff1d" stroke="none" /><path d="M 79.67330655649465 105.27499134158121 l -9.203181739512345 2.388322730691708 a30.508030269011147,30.508030269011147 0 0,0 -0.12753618479824097,-0.5094436614363765 l 9.242929238605646 -2.22955122985794" fill="#ff3705" stroke="none" /><path d="M 79.29508885075956 103.50808413554451 l -18.278079205766897 3.0969000169956837 a39.5385805596749,39.5385805596749 0 0,0 -0.1079181939393019,-0.6720066966760043 l 18.328679154067487 -2.7818140906264657" fill="#ffbb11" stroke="none" /><path d="M 79.18660465613746 102.79330883721812 l -18.27964740548795 2.453261459526238 a39.443535481511105,39.443535481511105 0 0,0 -0.0845190269826855,-0.6736998040644134 l 18.31916794171748 -2.1382439011744157" fill="#ffba11" stroke="none" /><line stroke="#e1ed5e" stroke-width="0.3" x1="15.007084014347285" x2="10.007500721073583" y1="101.09737516637583" y2="101.16192664675087" /><path d="M 14.007167355692545 101.11028546245083 a86.0,86.0 0 0,1 10.666146001902534,-42.60595125391555" fill="none" id="id82" stroke="none" /><text fill="#e1ed5e" style="font-size:6.75px; font-family:Arial;" text-anchor="middle"><textPath startOffset="22.20632615414155" xlink:href="#id82">October</textPath></text><path d="M 79.00019446554 99.90962569577889 l -29.558657981286334 -0.12720799458762744 a50.55893170479186,50.55893170479186 0 0,0 0.011236103542960436,-0.8702486020228146 l 29.55208887062566 0.6359928546709139" fill="#b2ff20" stroke="none" /><path d="M 79.01574976396665 99.18683210126434 l -48.12064625434219 -1.8647397148005949 a69.15676328553957,69.15676328553957 0 0,0 0.056334413622172674,-1.1891304344909521 l 48.08141823248652 2.6927812559145563" fill="#39ff89" stroke="none" /><path d="M 79.08570108090925 98.10471618934814 l -18.719441967696078 -1.6963827208870021 a39.79614912469214,39.79614912469214 0 0,0 0.06769680159584109,-0.6816975535184396 l 18.687468040418008 2.0183558051098722" fill="#ffbf11" stroke="none" /><path d="M 79.16333360222342 97.38593545837743 l -18.331040708551463 -2.299721203597969 a39.47473331533771,39.47473331533771 0 0,0 0.09038586256792645,-0.6734796618464104 l 18.288738846925703 2.614919207509039" fill="#ffba11" stroke="none" /><path d="M 79.32604984820605 96.31383870115002 l -45.42388634750929 -8.099070118103175 a67.14026861310403,67.14026861310403 0 0,0 0.2126564934903835,-1.1360194915851147 l 45.27774413010905 8.879767687150862" fill="#36ff71" stroke="none" /><path d="M 79.91906864156998 93.8553929516997 l -47.0526350460391 -14.397736229680435 a70.20615076710634,70.20615076710634 0 0,0 0.36354923341264395,-1.1525504187048554 l 46.797830328858254 15.205536814811705" fill="#3aff96" stroke="none" /><path d="M 80.2630227832202 92.82701384747504 l -31.372183181175977 -11.401555215949472 a54.37977439851272,54.37977439851272 0 0,0 0.3273025696327939,-0.8770081620162106 l 31.171276023041557 11.939886514995022" fill="#84ff25" stroke="none" /><path d="M 81.10775173730289 90.83032412892265 l -27.361984282115323 -13.280607134086594 a51.414679181353826,51.414679181353826 0 0,0 0.3932977808427198,-0.7928643268230238 l 27.12932648831919 13.74963104940858" fill="#a8ff21" stroke="none" /><path d="M 81.43458229118936 90.18545643968196 l -41.97639580720449 -22.190675783149555 a68.48098457989214,68.48098457989214 0 0,0 0.5598871623767715,-1.0373858797609232 l 41.58820054560925 22.909942646242953" fill="#38ff81" stroke="none" /><line stroke="#e1ed5e" stroke-width="0.3" x1="26.266209847984243" x2="21.928928074336255" y1="57.711370442889674" y2="55.22380399835377" /><path d="M 25.398753493254645 57.213857153982495 a86.0,86.0 0 0,1 29.58750427330803,-30.492523968695096" fill="none" id="id83" stroke="none" /><text fill="#e1ed5e" style="font-size:6.75px; font-family:Arial;" text-anchor="middle"><textPath startOffset="21.46611528233685" xlink:href="#id83">November</textPath></text><path d="M 82.15384107792192 88.93136811851018 l -25.602974137805706 -15.87960171373821 a51.12762910167518,51.12762910167518 0 0,0 0.4703070005626413,-0.7439127304196181 l 25.3258395409971 16.317962091872044" fill="#abff21" stroke="none" /><path d="M 83.17141714833178 87.43820079747576 l -42.34003165230574 -31.604977111430458 a73.8351479465355,73.8351479465355 0 0,0 0.7690249196676094,-1.0119466501947465 l 41.78973079241402 32.32910853750623" fill="#3fffc0" stroke="none" /><path d="M 83.84228863543731 86.58626213691792 l -35.40094694191894 -29.389002666877992 a67.01022193098314,67.01022193098314 0 0,0 0.7444177887795577,-0.8811558604575113 l 34.88981853965225 29.994017476964622" fill="#36ff6f" stroke="none" /><path d="M 84.31358615837235 86.03803664274999 l -12.680725475205985 -11.286698554282303 a37.976170440731806,37.976170440731806 0 0,0 0.4388171077377403,-0.4845528104652554 l 12.4845647268522 11.503304152017115" fill="#ffa50f" stroke="none" /><path d="M 85.05521093208273 85.24692304244772 l -20.96899799590349 -20.70000718982622 a50.46505005274998,50.46505005274998 0 0,0 0.615587579346628,-0.6129440506478251 l 20.609574616389548 21.057887091124154" fill="#b3ff20" stroke="none" /><path d="M 86.10567301691215 84.25364557470407 l -17.703171977725543 -20.062894788106 a47.756719629871256,47.756719629871256 0 0,0 0.6210788708192954,-0.538593476561668 l 17.355199308259476 20.364653258087348" fill="#d5ff1c" stroke="none" /><path d="M 87.22198572758235 83.33499621200491 l -30.95188441340307 -40.36724799316994 a71.86780769094287,71.86780769094287 0 0,0 0.988195518652958,-0.7442883772077927 l 30.252442740991725 40.89405295988359" fill="#3dffaa" stroke="none" /><path d="M 88.09926311788651 82.69761687909137 l -15.192733076048894 -22.088589214218022 a47.80904533538147,47.80904533538147 0 0,0 0.6820650260659628,-0.46053335027241554 l 14.810263355576392 22.346834476789102" fill="#d4ff1c" stroke="none" /><line stroke="#e1ed5e" stroke-width="0.3" x1="56.762969772571076" x2="54.21961505331055" y1="26.818313649435495" y2="22.513508569990535" /><path d="M 56.25429882871897 25.957352633546506 a86.0,86.0 0 0,1 42.265352541879196,-11.944610805530505" fill="none" id="id84" stroke="none" /><text fill="#e1ed5e" style="font-size:6.75px; font-family:Arial;" text-anchor="middle"><textPath startOffset="22.20632615414155" xlink:href="#id84">December</textPath></text><path d="M 89.3179101791058 81.91981866633112 l -14.602384710270998 -24.715553594136765 a49.70693694373196,49.70693694373196 0 0,0 0.74040439500665,-0.4288900153847288 l 14.174783582799028 24.96324776691154" fill="#bdff1f" stroke="none" /><path d="M 89.94658935756843 81.56283822128135 l -13.58026783844762 -24.905139563187078 a49.36705221248413,49.36705221248413 0 0,0 0.749568054106969,-0.40039329531832973 l 13.149554737812345 25.135211585007156" fill="#c1ff1e" stroke="none" /><path d="M 91.23893434514133 80.91482961587045 l -14.307782989677476 -31.16818055412119 a55.29530774222623,55.29530774222623 0 0,0 0.8684467265842297,-0.38964673160387886 l 13.769154144626471 31.409847616241596" fill="#7aff26" stroke="none" /><path d="M 91.90106846888425 80.62456947434976 l -16.66428663046814 -39.86670669182407 a64.20940582042675,64.20940582042675 0 0,0 1.0234249453448838,-0.41748073187619733 l 15.975577815534875 40.14764830988385" fill="#32ff4c" stroke="none" /><path d="M 92.91201910852362 80.23233633223022 l -21.26394267442915 -59.30299100330936 a84.0,84.0 0 0,0 1.3652719837468588,-0.4763165873111608 l 20.239988686619004 59.66022844379273" fill="#4dd2ff" stroke="none" /><path d="M 93.59665428221793 80.00007090966166 l -9.582394395903894 -29.92923026185038 a52.42580319459649,52.42580319459649 0 0,0 0.8618168623887292,-0.26777069425369987 l 9.065792160804435 30.089741090986603" fill="#9bff22" stroke="none" /><path d="M 94.63758080256005 79.69619591428918 l -6.66653610284381 -25.241600475225546 a47.107108192241945,47.107108192241945 0 0,0 0.7857714894998286,-0.2003106486055431 l 6.231055724658981 25.352614119999952" fill="#ddff1b" stroke="none" /><path d="M 95.33964822691252 79.52364482259891 l -4.739272876756402 -20.823113668691256 a42.355626196850224,42.355626196850224 0 0,0 0.7122951221167328,-0.15568012486161306 l 4.380135030486149 20.901607291648737" fill="#ffe215" stroke="none" /><path d="M 96.40284397218896 79.31037775812273 l -4.471666936515692 -25.719512579581206 a47.10534681865697,47.10534681865697 0 0,0 0.8000524497577856,-0.13201550932394834 l 4.02828528061902 25.79267435184478" fill="#ddff1b" stroke="none" /><path d="M 99.27714615592234 79.0124445844662 l -0.9971308704201052 -28.95099690060308 a49.968163412813624,49.968163412813624 0 0,0 0.8598649212200284,-0.022207774066491884 l 0.4986393140051978 28.96387146681193" fill="#b9ff1f" stroke="none" /></svg>