<?xml version="1.0" encoding="utf-8" ?>
<svg baseProfile="full" height="200mm" version="1.1" viewBox="0,0,200,200" width="200mm" xmlns="http://www.w3.org/2000/svg" xmlns:ev="http://www.w3.org/2001/xml-events" xmlns:xlink="http://www.w3.org/1999/xlink"><defs /><rect fill="#1a1a1a" height="200" width="200" x="0" y="0" /><rect fill="#1a1a1a" height="200" width="180" x="10" y="0" /><text alignment-baseline="middle" fill="#e1ed5e" style="dominant-baseline: central; font-size:9.0px; font-family:Arial;" text-anchor="middle" x="100.0" y="100.0">2026</text><line stroke="#e1ed5e" stroke-width="0.3" x1="100.0" x2="100.0" y1="15.0" y2="10.0" /><path d="M 100.0 14.0 a86.0,86.0 0 0,1 42.46469731375804,11.215312516191453" fill="none" id="id133" stroke="none" /><text fill="#e1ed5e" style="font-size:6.75px; font-family:Arial;" text-anchor="middle"><textPath startOffset="22.20632615414155" xlink:href="#id133">January</textPath></text><path d="M 100.0 79.0 l 0.0 -46.91996698442915 a67.91996698442915,67.91996698442915 0 0,0 1.169130581795512,0.010063076025211597 l -0.8076501025229837 46.9130152850125" fill="red" stroke="none" /><path d="M 100.72285384407766 79.0124445844662 l 1.611384314291203 -46.78541570884304 a67.81315715114289,67.81315715114289 0 0,0 1.1662544471313436,0.05022136977487293 l -2.416479593811878 46.75074661254397" fill="red" stroke="none" /><path d="M 101.44485096284872 79.0497635885617 l 3.2554109568273066 -47.203227817663624 a68.31535075326066,68.31535075326066 0 0,0 1.1724534585060913,0.09100495361074046 l -4.067454604695739 47.140197601864415" fill="red" stroke="none" /><path d="M 102.16513564639614 79.11191278185805 l 2.427337272912747 -23.41767027338101 a44.543135884356275,44.543135884356275 0 0,0 0.7619703590357882,0.08561624806673843 l -2.8300743354582605 23.37241807184367" fill="red" stroke="none" /><path d="M 102.88285421437855 79.19881850522331 l 5.471832308347581 -39.481905254600775 a60.85927484719144,60.85927484719144 0 0,0 1.036436405427321,0.1527437844957425 l -6.150637694203557 39.381866985944065" fill="red" stroke="none" /><path d="M 103.59715602781102 79.31037775812273 l 8.082085947764114 -46.48541900679782 a68.18277539001501,68.18277539001501 0 0,0 1.1545775040683046,0.21099165899480174 l -8.88105857293532 46.33941186645228" fill="red" stroke="none" /><path d="M 104.66035177308747 79.52364482259891 l 10.419411573760337 -45.780143326497274 a67.9508856203804,67.9508856203804 0 0,0 1.1382624767223188,0.26938995245452074 l -11.205897737445179 45.59400746190188" fill="red" stroke="none" /><path d="M 105.36241919743992 79.69619591428918 l 11.97255525741233 -45.331856276342585 a67.88623756339138,67.88623756339138 0 0,0 1.1272416348102468,0.3081177205930874 l -12.751094781446287 45.119052014923206" fill="red" stroke="none" /><path d="M 106.0581310904928 79.89281104454417 l 10.060096036115239 -33.389876991213654 a55.87247363959489,55.87247363959489 0 0,0 0.9184759601534747,0.28537495173156535 l -10.63335736897943 33.21176190459956" fill="red" stroke="none" /><path d="M 106.74666289553966 80.11325718540242 l 15.751527906729924 -46.42985565874173 a70.02899272765129,70.02899272765129 0 0,0 1.1381978788223581,0.39709489081992394 l -16.548407789615556 46.151839914749594" fill="red" stroke="none" /><path d="M 107.4271985657038 80.35727306442388 l 15.378512733410316 -40.67158345443189 a64.48190835948304,64.48190835948304 0 0,0 1.0348327938140232,0.40149904690778804 l -16.076328692224006 40.40084170363356" fill="red" stroke="none" /><path d="M 108.09893153111575 80.62456947434976 l 18.102541067723664 -43.30750611335146 a67.93870555167234,67.93870555167234 0 0,0 1.0751016823581905,0.46030243311851926 l -18.84532650787217 42.98948415227015" fill="red" stroke="none" /><path d="M 108.76106565485865 80.91482961587045 l 9.99168782154475 -21.76596683686083 a44.9497627935337,44.9497627935337 0 0,0 0.7004067515694703,0.32885036129106193 l -10.364872784413818 21.590751492929765" fill="red" stroke="none" /><path d="M 109.41281617654863 81.2277094730956 l 19.138571639584274 -38.168686219896365 a63.69816778453622,63.69816778453622 0 0,0 0.9759151164041105,0.49990162737095456 l -19.792747243577143 37.83359206721291" fill="red" stroke="none" /><path d="M 110.05341064243156 81.56283822128135 l 11.29960236630043 -20.722579060222788 a44.603099299534506,44.603099299534506 0 0,0 0.6709068867357588,0.37335895609297576 l -11.654633342108223 20.525004706569632" fill="red" stroke="none" /><line stroke="#e1ed5e" stroke-width="0.3" x1="143.23703022742887" x2="145.7803849466894" y1="26.81831364943548" y2="22.513508569990506" /><path d="M 143.74570117128098 25.957352633546492 a86.0,86.0 0 0,1 28.547481713284135,27.462654790039103" fill="none" id="id134" stroke="none" /><text fill="#e1ed5e" style="font-size:6.75px; font-family:Arial;" text-anchor="middle"><textPath startOffset="19.985693538727396" xlink:href="#id134">February</textPath></text><path d="M 110.68208982089419 81.91981866633111 l 26.368435533328928 -44.6304144527252 a72.83790395740694,72.83790395740694 0 0,0 1.07397038487665,0.6470551401515267 l -27.132767984423214 44.16991270311505" fill="red" stroke="none" /><path d="M 111.2981086023043 82.29822771554956 l 25.46900927831209 -39.904608676118066 a68.33971089067681,68.33971089067681 0 0,0 0.9861517070592484,0.6414205018656771 l -26.152128011155618 39.46028925009286" fill="red" stroke="none" /><path d="M 111.90073688211348 82.69761687909136 l 27.25093706537343 -39.61991246252352 a69.0869112594994,69.0869112594994 0 0,0 0.9740230041088297,0.6823653600877665 l -27.92889120906591 39.14496225967182" fill="red" stroke="none" /><path d="M 112.48926042617603 83.11751280151076 l 27.795342122011533 -37.57264173697476 a67.73632902544578,67.73632902544578 0 0,0 0.931386930304055,0.701501326228953 l -28.437975206073972 37.088623821239956" fill="red" stroke="none" /><path d="M 113.06298171725822 83.55741782278167 l 29.562910253434552 -37.21130380192042 a68.52522270638448,68.52522270638448 0 0,0 0.9172479626369543,0.7416840621323243 l -30.199061614635998 36.69691364252397" fill="red" stroke="none" /><path d="M 113.6212207817346 84.01681056812373 l 32.74149213292785 -38.41898457035585 a71.47795243973172,71.47795243973172 0 0,0 0.9295748605391613,0.8061181588767756 l -33.39796079211378 37.84970141805941" fill="red" stroke="none" /><path d="M 114.16331599549186 84.49514656593476 l 32.09636870476425 -35.13650988874982 a68.58940229919246,68.58940229919246 0 0,0 0.8648539516214176,0.8037874928434653 l -32.69643054018052 34.57881780983172" fill="red" stroke="none" /><path d="M 114.94478906791727 85.2469230424477 l 16.888649587362313 -16.67200158792294 a44.731458485150426,44.731458485150426 0 0,0 0.5362146017806263,0.5526162817291269 l -17.173128452846047 16.3788211106437" fill="red" stroke="none" /><path d="M 115.9244219780498 86.31012108654704 l 47.773265934149435 -41.069636740358895 a84.0,84.0 0 0,0 0.9331575460515311,1.1045642014835737 l -48.47313409368808 40.241213589246215" fill="red" stroke="none" /><line stroke="#e1ed5e" stroke-width="0.3" x1="172.23445277983987" x2="176.4835382374775" y1="55.19839476539836" y2="52.563006222186495" /><path d="M 173.08426987136738 54.67131705675599 a86.0,86.0 0 0,1 12.851231095245387,41.99856678651699" fill="none" id="id135" stroke="none" /><text fill="#e1ed5e" style="font-size:6.75px; font-family:Arial;" text-anchor="middle"><textPath startOffset="22.20632615414155" xlink:href="#id135">March</textPath></text><line stroke="#e1ed5e" stroke-width="0.3" x1="184.98032266829074" x2="189.97916517819016" y1="98.17113171792111" y2="98.06355123074" /><path d="M 185.9800911702706 98.14961562048488 a86.0,86.0 0 0,1 -9.607161424134198,41.387399972396054" fill="none" id="id136" stroke="none" /><text fill="#e1ed5e" style="font-size:6.75px; font-family:Arial;" text-anchor="middle"><textPath startOffset="21.466115282336823" xlink:href="#id136">April</textPath></text><line stroke="#e1ed5e" stroke-width="0.3" x1="174.80103733775053" x2="179.2010983576182" y1="140.37084112569926" y2="142.7455964860345" /><path d="M 175.68104954172406 140.8457921977663 a86.0,86.0 0 0,1 -30.038265399797805,32.042727171017184" fill="none" id="id137" stroke="none" /><text fill="#e1ed5e" style="font-size:6.75px; font-family:Arial;" text-anchor="middle"><textPath startOffset="22.206326154141568" xlink:href="#id137">May</textPath></text><line stroke="#e1ed5e" stroke-width="0.3" x1="143.8653032363475" x2="146.44561519142675" y1="172.8068346515853" y2="177.08958963109032" /><path d="M 144.38136562736335 173.6633856474863 a86.0,86.0 0 0,1 -40.68145358897372,12.25698825130547" fill="none" id="id138" stroke="none" /><text fill="#e1ed5e" style="font-size:6.75px; font-family:Arial;" text-anchor="middle"><textPath startOffset="21.466115282336833" xlink:href="#id138">June</textPath></text><line stroke="#e1ed5e" stroke-width="0.3" x1="102.19456741930631" x2="102.32365962044197" y1="184.97166512339345" y2="189.96999836594603" /><path d="M 102.22038585953345 185.97133177190398 a86.0,86.0 0 0,1 -42.740103519485714,-10.115201625700543" fill="none" id="id139" stroke="none" /><text fill="#e1ed5e" style="font-size:6.75px; font-family:Arial;" text-anchor="middle"><textPath startOffset="22.20632615414155" xlink:href="#id139">July</textPath></text><line stroke="#e1ed5e" stroke-width="0.3" x1="58.666819895761336" x2="56.23545636021788" y1="174.27360380694188" y2="178.64263932499728" /><path d="M 58.180547188652646 175.14741091055294 a86.0,86.0 0 0,1 -31.652253787137756,-30.449443065178592" fill="none" id="id140" stroke="none" /><text fill="#e1ed5e" style="font-size:6.75px; font-family:Arial;" text-anchor="middle"><textPath startOffset="22.20632615414155" xlink:href="#id140">August</textPath></text><line stroke="#e1ed5e" stroke-width="0.3" x1="26.63291911575756" x2="22.317208475507996" y1="142.92168965132927" y2="145.44649492493687" /><path d="M 25.769776987707644 143.4266507060508 a86.0,86.0 0 0,1 -11.730757126820373,-40.83630448921669" fill="none" id="id141" stroke="none" /><text fill="#e1ed5e" style="font-size:6.75px; font-family:Arial;" text-anchor="middle"><textPath startOffset="21.46611528233685" xlink:href="#id141">September</textPath></text><line stroke="#e1ed5e" stroke-width="0.3" x1="15.007084014347285" x2="10.007500721073583" y1="101.09737516637583" y2="101.16192664675087" /><path d="M 14.007167355692545 101.11028546245083 a86.0,86.0 0 0,1 10.666146001902534,-42.60595125391555" fill="none" id="id142" stroke="none" /><text fill="#e1ed5e" style="font-size:6.75px; font-family:Arial;" text-anchor="middle"><textPath startOffset="22.20632615414155" xlink:href="#id142">October</textPath></text><line stroke="#e1ed5e" stroke-width="0.3" x1="26.266209847984243" x2="21.928928074336255" y1="57.711370442889674" y2="55.22380399835377" /><path d="M 25.398753493254645 57.213857153982495 a86.0,86.0 0 0,1 29.58750427330803,-30.492523968695096" fill="none" id="id143" stroke="none" /><text fill="#e1ed5e" style="font-size:6.75px; font-family:Arial;" text-anchor="middle"><textPath startOffset="21.46611528233685" xlink:href="#id143">November</textPath></text><line stroke="#e1ed5e" stroke-width="0.3" x1="56.762969772571076" x2="54.21961505331055" y1="26.818313649435495" y2="22.513508569990535" /><path d="M 56.25429882871897 25.957352633546506 a86.0,86.0 0 0,1 42.265352541879196,-11.944610805530505" fill="none" id="id144" stroke="none" /><text fill="#e1ed5e" style="font-size:6.75px; font-family:Arial;" text-anchor="middle"><textPath startOffset="22.20632615414155" xlink:href="#id144">December</textPath></text></svg>