<?xml version="1.0" encoding="utf-8" ?>
<svg baseProfile="full" height="200mm" version="1.1" viewBox="0,0,200,200" width="200mm" xmlns="http://www.w3.org/2000/svg" xmlns:ev="http://www.w3.org/2001/xml-events" xmlns:xlink="http://www.w3.org/1999/xlink"><defs /><rect fill="#1a1a1a" height="200" width="200" x="0" y="0" /><text alignment-baseline="middle" fill="#e1ed5e" style="dominant-baseline: central; font-size:9.0px; font-family:Arial;" text-anchor="middle" x="100.0" y="100.0">2020</text><line stroke="#e1ed5e" stroke-width="0.3" x1="100.0" x2="100.0" y1="15.0" y2="10.0" /><path d="M 100.0 14.0 a86.0,86.0 0 0,1 42.35913384403234,11.155469271406648" fill="none" id="id61" stroke="none" /><text fill="#e1ed5e" style="font-size:6.75px; font-family:Arial;" text-anchor="middle"><textPath startOffset="22.145653131862478" xlink:href="#id61">January</textPath></text><path d="M 103.23170211078529 79.25015418208739 l 4.700270827252914 -30.179110457749143 a51.542941146368804,51.542941146368804 0 0,0 0.8730944630749973,0.14366736164758231 l -5.217642793380982 30.093977097605894" fill="#efff19" stroke="none" /><path d="M 104.9986988182912 79.60360301121754 l 7.715046780742268 -31.480023631597902 a53.41163116344199,53.41163116344199 0 0,0 0.8886543432716285,0.2258924590038711 l -8.254306417239292 31.342945940758764" fill="#d3ff1c" stroke="none" /><path d="M 107.06938296918511 80.22567764915836 l 8.330451415215732 -23.30175523529306 a45.74607479635462,45.74607479635462 0 0,0 0.7371889514442015,0.2707059941012616 l -8.729229518314058 23.155318392183077" fill="#ffb210" stroke="none" /><path d="M 107.40779381753099 80.34994680014964 l 5.677607331847989 -15.060527988055972 a37.095177174969876,37.095177174969876 0 0,0 0.5939251187591391,0.22974299490075584 l -5.9353047131006536 14.960845105017178" fill="#ff1a02" stroke="none" /><path d="M 108.07796709384702 80.6158196554323 l 10.745432029882831 -25.785125134540127 a48.93451248389212,48.93451248389212 0 0,0 0.7726175215853974,0.3297844772871057 l -11.18648462663866 25.59686600759362" fill="#ffe615" stroke="none" /><path d="M 109.3889696526874 81.21577127319529 l 12.304456635419895 -24.617155699573622 a48.52097396223431,48.52097396223431 0 0,0 0.741845900724651,0.378791802771323 l -12.725229757858125 24.402305945129463" fill="#ffdf14" stroke="none" /><line stroke="#e1ed5e" stroke-width="0.3" x1="143.13028292997686" x2="145.6673583964461" y1="26.7553504044142" y2="22.446841604673864" /><path d="M 143.63769802327073 25.89364864446614 a86.0,86.0 0 0,1 29.32050498858742,28.57503671076993" fill="none" id="id62" stroke="none" /><text fill="#e1ed5e" style="font-size:6.75px; font-family:Arial;" text-anchor="middle"><textPath startOffset="20.669276256404974" xlink:href="#id62">February</textPath></text><path d="M 110.65571695917076 81.90426304109057 l 14.923615224017981 -25.34356126430198 a50.41105895597724,50.41105895597724 0 0,0 0.7419241443116453,0.44550413144703066 l -15.35647212488706 25.08364313231903" fill="#fffd17" stroke="none" /><path d="M 111.5731344415666 82.4767994020092 l 16.100911905277336 -24.378832765772398 a50.215866429099776,50.215866429099776 0 0,0 0.7152262878747113,0.48123616601716734 l -16.51703448124905 24.098846925698112" fill="#fffa17" stroke="none" /><path d="M 112.45986205192187 83.09580414077388 l 17.763202528000747 -24.099195751056453 a50.93831324404415,50.93831324404415 0 0,0 0.6994243035165361,0.5248610366322184 l -18.17427982042805 23.79071568716022" fill="#f9ff18" stroke="none" /><path d="M 113.31354834802062 83.75963576809568 l 18.67515062123387 -22.780647220889385 a50.45707280991081,50.45707280991081 0 0,0 0.6651339417545439,0.5548783905200265 l -19.063458897150305 22.456706646457487" fill="#fffe18" stroke="none" /><path d="M 114.13192950727249 84.46653392183569 l 19.876557504246165 -21.84781855754388 a50.53649799727387,50.53649799727387 0 0,0 0.6366882301014334,0.5893091205785251 l -20.248675505661563 21.503391690832977" fill="#ffff18" stroke="none" /><path d="M 114.91283532996326 85.21462403516908 l 21.018400158668875 -20.838756792330713 a50.59775210856124,50.59775210856124 0 0,0 0.6062410601244452,0.6220567346101042 l -21.37302801994413 20.47487736565287" fill="#feff18" stroke="none" /><path d="M 115.41159269507618 85.73525988315684 l 21.677909275333406 -20.064749192854674 a50.53854957037919,50.53854957037919 0 0,0 0.5838461105662255,0.6417491502969572 l -22.01915308674151 19.689662467000048" fill="#ffff18" stroke="none" /><path d="M 115.8921839302757 86.27271002978787 l 22.339712823847062 -19.29651186581092 a50.51979233055914,50.51979233055914 0 0,0 0.5612639143433823,0.6611674798184769 l -22.667671301697556 18.91017760354289" fill="#ffff18" stroke="none" /><path d="M 116.35404254752997 86.82634096563983 l 23.121101393869477 -18.624722626009664 a50.68948673455621,50.68948673455621 0 0,0 0.5400447521937901,0.6823289025266915 l -23.437412576704826 18.225073779568294" fill="#fdff18" stroke="none" /><path d="M 117.01052211995028 87.68569379921539 l 23.857162905297947 -17.27074613149486 a50.45238349995581,50.45238349995581 0 0,0 0.5018448169674719,0.7059075828129846 l -24.15012282079538 16.85866132197237" fill="#fffe18" stroke="none" /><path d="M 117.81537515405839 88.88188828441811 l 25.001628911126513 -15.602865553022285 a50.470847657903676,50.470847657903676 0 0,0 0.45239192334802375,0.7389482082160632 l -25.26578879892994 15.171380228681667" fill="#fffe18" stroke="none" /><line stroke="#e1ed5e" stroke-width="0.3" x1="172.87174338648825" x2="177.1583165268699" y1="56.24261187166439" y2="53.66864786411523" /><path d="M 173.72905801456457 55.72781907015455 a86.0,86.0 0 0,1 12.242430191666344,42.057860355516425" fill="none" id="id63" stroke="none" /><text fill="#e1ed5e" style="font-size:6.75px; font-family:Arial;" text-anchor="middle"><textPath startOffset="22.145653131862474" xlink:href="#id63">March</textPath></text><path d="M 118.18653347947321 89.5 l 25.781649232790336 -14.885042124704015 a50.77008424940802,50.77008424940802 0 0,0 0.429289191321363,0.7585128673690079 l -26.033371789133078 14.44027248723589" fill="#fbff18" stroke="none" /><path d="M 118.70294669586156 90.45014215332178 l 26.02587549422816 -13.288997469057703 a50.22231423028792,50.22231423028792 0 0,0 0.38546842696882017,0.771195069000086 l -26.250163834408717 12.840270543893867" fill="#fffa17" stroke="none" /><path d="M 119.16976305983485 91.42560881287824 l 26.77124737387999 -11.974438433817072 a50.32723754053136,50.32723754053136 0 0,0 0.34597847202553855,0.7916664515732524 l -26.9728597279225 11.51310991246797" fill="#fffc17" stroke="none" /><path d="M 119.4528033332814 92.08871423366111 l 27.866421087073256 -11.33303086079061 a51.08280260703303,51.08280260703303 0 0,0 0.3233816888106135,0.8151331043570001 l -28.056861450849993 10.852996739220044" fill="#f6ff19" stroke="none" /><path d="M 119.83427380445688 93.10060997987247 l 28.108942720733555 -9.777749404678838 a50.76099871137018,50.76099871137018 0 0,0 0.2792207317480786,0.8254664791405788 l -28.272648874054 9.293781251064098" fill="#fbff18" stroke="none" /><path d="M 120.05942366710727 93.78553927170692 l 14.692874374699928 -4.551890039445176 a36.38181589806334,36.38181589806334 0 0,0 0.1796978966617936,0.598155854413641 l -14.768848591365348 4.298996581440812" fill="#ff0d01" stroke="none" /><path d="M 120.43855184770803 95.1765574152323 l 28.558844015210415 -6.73980942588903 a50.343357043501726,50.343357043501726 0 0,0 0.19127871832360901,0.8428093262259094 l -28.67033359509169 6.248565765724095" fill="#fffc17" stroke="none" /><path d="M 120.7213421655516 96.59031103205396 l 29.911505206043557 -4.921926798991806 a51.313751122317484,51.313751122317484 0 0,0 0.13556239738355208,0.870407837104679 l -29.991589095565374 4.407730779955686" fill="#f3ff19" stroke="none" /><path d="M 120.96210409425399 98.7389718711861 l 32.17965828446939 -1.935848333252906 a53.23783361323427,53.23783361323427 0 0,0 0.04704807488747984,0.9127200838228925 l -32.20814794881344 1.3831564560532827" fill="#d6ff1c" stroke="none" /><line stroke="#e1ed5e" stroke-width="0.3" x1="184.99686870605535" x2="189.99668451229388" y1="99.2704041080226" y2="99.22748670261217" /><path d="M 185.99683186730306 99.26182062694052 a86.0,86.0 0 0,1 -10.086455211305974,41.156179273409016" fill="none" id="id64" stroke="none" /><text fill="#e1ed5e" style="font-size:6.75px; font-family:Arial;" text-anchor="middle"><textPath startOffset="21.40746469413373" xlink:href="#id64">April</textPath></text><path d="M 120.82617615685814 102.69636545807757 l 29.035656241131814 3.7592470145039516 a50.27799978600372,50.27799978600372 0 0,0 -0.1181664279083453,0.85499340780455 l -28.96684529666826 -4.257128730508587" fill="#fffb17" stroke="none" /><path d="M 120.65975698304385 103.76489593502545 l 28.91522122034968 5.269316523045429 a50.39142247054062,50.39142247054062 0 0,0 -0.16238925694083803,0.8496892114829062 l -28.820505671126682 -5.764908299561649" fill="#fffd17" stroke="none" /><path d="M 120.43855184770803 104.8234425847677 l 28.554565323038737 6.738799666186793 a50.3389608154189,50.3389608154189 0 0,0 -0.2057005114366836,0.8393282821333351 l -28.43467728508576 -7.227983772928227" fill="#fffc17" stroke="none" /><path d="M 120.26092885502905 105.52220625578681 l 29.2921358367671 7.983701878653093 a51.36064422186763,51.36064422186763 0 0,0 -0.23914863047786863,0.848654122296419 l -29.150768714214653 -8.485363924852521" fill="#f2ff19" stroke="none" /><path d="M 120.05942366710727 106.21446072829308 l 25.105237932770432 7.777666885987565 a47.28240997036617,47.28240997036617 0 0,0 -0.24684859313511687,0.7732497021677626 l -24.96802462385806 -8.207485621846711" fill="#ffcb12" stroke="none" /><path d="M 119.83427380445688 106.89939002012753 l 29.886356884009256 10.39602631567833 a52.642877412691846,52.642877412691846 0 0,0 -0.30422526910484876,0.8509722227206306 l -29.703491444860465 -10.907533494779882" fill="#dfff1b" stroke="none" /><path d="M 118.8641267826498 109.22738970284198 l 13.512751451401227 6.609763867490713 a36.04272017194137,36.04272017194137 0 0,0 -0.2766366078761312,0.5534585272693072 l -13.397294930313365 -6.840754250923766" fill="#ff0701" stroke="none" /><line stroke="#e1ed5e" stroke-width="0.3" x1="174.33088141563837" x2="178.70328620479359" y1="141.23008692659167" y2="143.65538615756765" /><path d="M 175.20536237346943 141.71514677278685 a86.0,86.0 0 0,1 -30.301960400862466,31.631185727798858" fill="none" id="id65" stroke="none" /><text fill="#e1ed5e" style="font-size:6.75px; font-family:Arial;" text-anchor="middle"><textPath startOffset="22.145653131862474" xlink:href="#id65">May</textPath></text><path d="M 117.81537515405839 111.11811171558189 l 24.914108913347025 15.54824660145683 a50.36768283889336,50.36768283889336 0 0,0 -0.46405978776781603,0.7295790646530042 l -24.643531433953317 -15.973639340788507" fill="#fffc17" stroke="none" /><path d="M 117.423217284605 111.72311816256416 l 24.602289276281237 16.55351819036725 a50.65285150053266,50.65285150053266 0 0,0 -0.49159861882752653,0.7172570764720768 l -24.31450092063839 -16.97341000190937" fill="#fdff18" stroke="none" /><path d="M 117.01052211995028 112.31430620078461 l 26.00566551538578 18.826096333401765 a53.10477444326075,53.10477444326075 0 0,0 -0.5409049525652234,0.7338414519587387 l -25.678658543236725 -19.269744094629385" fill="#d8ff1c" stroke="none" /><path d="M 116.79662413953412 112.60449989151573 l 25.916358783900957 19.448118786637504 a53.40195946165977,53.40195946165977 0 0,0 -0.5565196777899921,0.728502122748767 l -25.578687128756663 -19.890141822627147" fill="#d3ff1c" stroke="none" /><path d="M 116.1254893667686 113.45245675266167 l 22.655743554244264 18.900227052392314 a50.504258991333145,50.504258991333145 0 0,0 -0.5610913423201294,0.6609641904089998 l -22.327957648417023 -19.28635802525087" fill="#ffff18" stroke="none" /><path d="M 114.91283532996326 114.78537596483092 l 20.74075780698685 20.56348743794238 a50.206780891061925,50.206780891061925 0 0,0 -0.6120638843988787,0.6068326005819599 l -20.38470200245801 -20.916500048753004" fill="#fffa17" stroke="none" /><path d="M 114.65682725009322 115.03919595460226 l 20.274651531053735 20.803578570174842 a50.049102843824585,50.049102843824585 0 0,0 -0.620436120381152,0.594363768492302 l -19.91454292480727 -21.148554468972726" fill="#fff717" stroke="none" /><path d="M 114.13192950727249 115.5334660781643 l 21.14986896047627 23.247410899276815 a52.42863456412213,52.42863456412213 0 0,0 -0.6709241763464896,0.5999445356128054 l -20.747679757306404 -23.607050964773006" fill="#e2ff1b" stroke="none" /><path d="M 113.86319453409587 115.77377054828091 l 19.157478984001965 21.797694393882256 a50.01979465660574,50.01979465660574 0 0,0 -0.6498298285890626,0.5613075287494812 l -18.780469675650046 -22.12334605509646" fill="#fff717" stroke="none" /><path d="M 111.27062007382361 117.71928675628689 l 8.9248135073807 14.031289205724336 a37.62917234609712,37.62917234609712 0 0,0 -0.5480167003519324,0.34200295215951887 l -8.682632678239052 -14.182427954725402" fill="#ff2403" stroke="none" /><path d="M 110.96478420261333 117.91015095944535 l 7.663162844395866 12.517200597274961 a35.67666091357806,35.67666091357806 0 0,0 -0.525070821133077,0.31528994158034956 l -7.447159266705352 -12.646904539391235" fill="#ff0000" stroke="none" /><line stroke="#e1ed5e" stroke-width="0.3" x1="143.1302829299769" x2="145.66735839644613" y1="173.24464959558577" y2="177.55315839532614" /><path d="M 143.63769802327073 174.10635135553383 a86.0,86.0 0 0,1 -40.68552437913181,11.842963189579606" fill="none" id="id66" stroke="none" /><text fill="#e1ed5e" style="font-size:6.75px; font-family:Arial;" text-anchor="middle"><textPath startOffset="21.407464694133747" xlink:href="#id66">June</textPath></text><path d="M 110.02825361518725 118.45085714620011 l 14.504875135549574 26.68733653127677 a51.37441906986048,51.37441906986048 0 0,0 -0.778472130023722,0.41449256162053427 l -14.044614189739299 -26.932399560619874" fill="#f2ff19" stroke="none" /><path d="M 109.3889696526874 118.78422872680471 l 13.16286748309764 26.33455242155938 a50.44095330694046,50.44095330694046 0 0,0 -0.7778469402811045,0.38048391689873773 l -12.708860293554467 -26.55663008855534" fill="#fffe18" stroke="none" /><path d="M 108.07796709384702 119.3841803445677 l 11.415548886823899 27.39316164372258 a50.67659113217993,50.67659113217993 0 0,0 -0.8058676919365502,0.3277393747081388 l -10.94362673369691 -27.58508827501001" fill="#fdff18" stroke="none" /><path d="M 107.407793817531 119.65005319985036 l 10.66294708363782 28.284733973671475 a51.22787813376628,51.22787813376628 0 0,0 -0.8255271284860402,0.30314499632227604 l -10.175830803497654 -28.463609819002475" fill="#f4ff19" stroke="none" /><path d="M 106.38641147887787 120.00534299687104 l 9.006463252431674 28.21261786051848 a50.61533702089255,50.61533702089255 0 0,0 -0.8299935915954286,0.2571341363193092 l -8.52082902796462 -28.363068584644438" fill="#feff18" stroke="none" /><path d="M 105.3480935250658 120.30758222061773 l 7.9669443856957285 30.25178550100507 a52.28326595551668,52.28326595551668 0 0,0 -0.8698807798926818,0.22112029260638735 l -7.446458312577649 -30.384091025446725" fill="#e4ff1a" stroke="none" /><path d="M 104.64783097203109 120.47920084513623 l 6.625262429095195 29.192128705550598 a50.934503179705715,50.934503179705715 0 0,0 -0.8543355386059277,0.18619845427568918 l -6.123164473870132 -29.301558617960005" fill="#f9ff18" stroke="none" /><path d="M 103.2317021107853 120.74984581791261 l 4.695264445498009 30.14696589554664 a51.5104090585559,51.5104090585559 0 0,0 -0.8748795100507308,0.12857715984690596 l -4.177059829839593 -30.223124128692426" fill="#f0ff19" stroke="none" /><line stroke="#e1ed5e" stroke-width="0.3" x1="101.45913802915013" x2="101.54496967792366" y1="184.9874750549273" y2="189.98673829345242" /><path d="M 101.47630435890484 185.9873277026323 a86.0,86.0 0 0,1 -42.54439059252881,-10.42667462771756" fill="none" id="id67" stroke="none" /><text fill="#e1ed5e" style="font-size:6.75px; font-family:Arial;" text-anchor="middle"><textPath startOffset="22.145653131862474" xlink:href="#id67">July</textPath></text><path d="M 96.41257539226777 120.69131181640829 l -5.103289534765625 29.434417890108442 a50.87354215029052,50.87354215029052 0 0,0 -0.8591942086635386,-0.1565738060834714 l 5.607818476980221 -29.342475910093604" fill="#faff18" stroke="none" /><path d="M 95.00130118170881 120.39639698878247 l -7.516640130492852 30.670456792144936 a52.578106318938204,52.578106318938204 0 0,0 -0.8747862876223942,-0.22236725348844713 l 8.042031711340625 -30.536904306821224" fill="#e0ff1b" stroke="none" /><line stroke="#e1ed5e" stroke-width="0.3" x1="58.13341422392154" x2="55.67067388415222" y1="173.97424548756322" y2="178.32567169271397" /><path d="M 57.64086615596768 174.84453072859336 a86.0,86.0 0 0,1 -31.369924170532247,-30.572349798747897" fill="none" id="id68" stroke="none" /><text fill="#e1ed5e" style="font-size:6.75px; font-family:Arial;" text-anchor="middle"><textPath startOffset="22.145653131862474" xlink:href="#id68">August</textPath></text><path d="M 86.68645165197938 116.24036423190432 l -9.886822586817509 12.060315981051504 a36.594886419144295,36.594886419144295 0 0,0 -0.48240018091664427,-0.40243538807763546 l 10.092397101896045 -11.888818409061999" fill="#ff1101" stroke="none" /><line stroke="#e1ed5e" stroke-width="0.3" x1="26.387840678322732" x2="22.057713659400534" y1="142.50000000000003" y2="145.00000000000006" /><path d="M 25.521815274538284 143.00000000000003 a86.0,86.0 0 0,1 -11.493303480769212,-40.785679425670985" fill="none" id="id69" stroke="none" /><text fill="#e1ed5e" style="font-size:6.75px; font-family:Arial;" text-anchor="middle"><textPath startOffset="21.40746469413373" xlink:href="#id69">September</textPath></text><path d="M 80.05021161711548 106.5578916946017 l -15.586221714210867 5.123500659161635 a37.40672320510613,37.40672320510613 0 0,0 -0.195290320496827,-0.6117441474651544 l 15.671876750484948 -4.85518747800509" fill="#ff2003" stroke="none" /><path d="M 79.56144815229197 104.8234425847677 l -30.546724398170873 7.20894378355004 a52.38584461078262,52.38584461078262 0 0,0 -0.1990391146699195,-0.8770030644169744 l 30.66597437439846 -6.683506385194039" fill="#e3ff1b" stroke="none" /><path d="M 79.34024301695615 103.76489593502545 l -30.07143793581378 5.480017724208255 a51.566680778016064,51.566680778016064 0 0,0 -0.1512258784301815,-0.8722306800719551 l 30.161078631736196 -4.962994011215708" fill="#efff19" stroke="none" /><path d="M 79.17382384314188 102.69636545807758 l -31.296959438985656 4.052017986333358 a52.558176751629404,52.558176751629404 0 0,0 -0.10816451186673301,-0.8957573232755124 l 31.361906037112053 -3.514166986134447" fill="#e0ff1b" stroke="none" /><line stroke="#e1ed5e" stroke-width="0.3" x1="15.003131293944662" x2="10.003315487706104" y1="100.72959589197737" y2="100.7725132973878" /><path d="M 14.003168132696942 100.73817937305945 a86.0,86.0 0 0,1 10.791469493833604,-42.45332614584628" fill="none" id="id70" stroke="none" /><text fill="#e1ed5e" style="font-size:6.75px; font-family:Arial;" text-anchor="middle"><textPath startOffset="22.145653131862435" xlink:href="#id70">October</textPath></text><path d="M 79.13060592940154 97.66154086499901 l -29.759980990870815 -3.334667943407236 a50.946226454593244,50.946226454593244 0 0,0 0.10484712477666737,-0.8682845992852108 l 29.698351779834482 3.8450462196158828" fill="#f9ff18" stroke="none" /><path d="M 79.48165901384962 95.52812308129327 l -28.99535185947872 -6.319401983703474 a50.67600496843555,50.67600496843555 0 0,0 0.19254260838719645,-0.8483782590494369 l 28.88259838953386 6.8162145766919195" fill="#fdff18" stroke="none" /><path d="M 79.73907114497095 94.47779374421319 l -32.56516604509194 -8.875780816450883 a54.75306689244826,54.75306689244826 0 0,0 0.2549446402040414,-0.9047085882708484 l 32.40800291281332 9.433497328624744" fill="#bfff1e" stroke="none" /><path d="M 80.16572619554312 93.10060997987247 l -31.443704973495173 -10.937752822652795 a54.291756025623734,54.291756025623734 0 0,0 0.313754203775496,-0.8776263489235586 l 31.251310599675733 11.475914127957275" fill="#c6ff1e" stroke="none" /><path d="M 80.83023694016515 91.42560881287825 l -14.206030723086533 -6.35417684902065 a36.56235433133138,36.56235433133138 0 0,0 0.2611867214844798,-0.5707401231419789 l 14.094859536747007 6.5971059543773" fill="#ff1101" stroke="none" /><path d="M 81.29705330413844 90.45014215332179 l -26.43698759170788 -13.498914235320502 a50.68391817898464,50.68391817898464 0 0,0 0.402314294912915,-0.7714907076236787 l 26.201365227820027 13.950751186048667" fill="#fdff18" stroke="none" /><line stroke="#e1ed5e" stroke-width="0.3" x1="26.387840678322718" x2="22.05771365940052" y1="57.49999999999999" y2="54.99999999999999" /><path d="M 25.521815274538284 56.99999999999999 a86.0,86.0 0 0,1 29.574782752854787,-30.34633250058573" fill="none" id="id71" stroke="none" /><text fill="#e1ed5e" style="font-size:6.75px; font-family:Arial;" text-anchor="middle"><textPath startOffset="21.40746469413373" xlink:href="#id71">November</textPath></text><path d="M 83.8745106332314 86.54754324733833 l -13.535967892932048 -11.292185839664528 a38.62770228464298,38.62770228464298 0 0,0 0.4291453782017076,-0.5055321764509066 l 13.340127951223225 11.522884798564991" fill="#ff3605" stroke="none" /><path d="M 84.34580500576568 86.00192230759919 l -14.062099780010298 -12.574416334495435 a39.86421470340579,39.86421470340579 0 0,0 0.4605309591037972,-0.506204197204774 l 13.844171120064635 12.813958107257868" fill="#ff4d07" stroke="none" /><path d="M 84.83555147118756 85.47280134310135 l -45.49334558643735 -43.58159597069595 a84.0,84.0 0 0,0 1.0064527953967901,-1.0327092317290787 l 44.73850598988975 44.35612789449276" fill="#4dd2ff" stroke="none" /><path d="M 85.86807049272753 84.46653392183569 l -14.723945702199785 -16.184195582362218 a42.87973408635215,42.87973408635215 0 0,0 0.5487278185483778,-0.4906757989695964 l 14.443952856828014 16.434566911215214" fill="#ff820b" stroke="none" /><path d="M 88.4268655584334 82.4767994020092 l -16.296348564808707 -24.67474877767574 a50.57049549444773,50.57049549444773 0 0,0 0.7284905462357986,-0.47219877069696037 l 15.870372386315882 24.95086139007661" fill="#feff18" stroke="none" /><line stroke="#e1ed5e" stroke-width="0.3" x1="56.869717070023135" x2="54.33264160355391" y1="26.7553504044142" y2="22.446841604673864" /><path d="M 56.362301976729285 25.89364864446614 a86.0,86.0 0 0,1 42.16139366436587,-11.88097634709845" fill="none" id="id72" stroke="none" /><text fill="#e1ed5e" style="font-size:6.75px; font-family:Arial;" text-anchor="middle"><textPath startOffset="22.145653131862474" xlink:href="#id72">December</textPath></text><path d="M 90.61103034731259 81.2157712731953 l -14.535066902557487 -29.07987046042899 a53.51010667249729,53.51010667249729 0 0,0 0.8251761717515462,-0.40363501570896826 l 14.033730481543888 29.32509922623517" fill="#d2ff1c" stroke="none" /></svg>