<?xml version="1.0" encoding="utf-8" ?>
<svg baseProfile="full" height="200mm" version="1.1" viewBox="0,0,200,200" width="200mm" xmlns="http://www.w3.org/2000/svg" xmlns:ev="http://www.w3.org/2001/xml-events" xmlns:xlink="http://www.w3.org/1999/xlink"><defs /><rect fill="#1a1a1a" height="200" width="200" x="0" y="0" /><text alignment-baseline="middle" fill="#e1ed5e" style="dominant-baseline: central; font-size:9.0px; font-family:Arial;" text-anchor="middle" x="100.0" y="100.0">2022</text><line stroke="#e1ed5e" stroke-width="0.3" x1="100.0" x2="100.0" y1="15.0" y2="10.0" /><path d="M 100.0 14.0 a86.0,86.0 0 0,1 42.46469731375804,11.215312516191453" fill="none" id="id85" stroke="none" /><text fill="#e1ed5e" style="font-size:6.75px; font-family:Arial;" text-anchor="middle"><textPath startOffset="22.20632615414155" xlink:href="#id85">January</textPath></text><path d="M 100.72285384407766 79.0124445844662 l 1.5840120357306005 -45.99068075952131 a67.01795096322242,67.01795096322242 0 0,0 1.1525784468976192,0.04963245243657809 l -2.375431315017551 45.95660058056054" fill="red" stroke="none" /><path d="M 101.80526077348638 79.07773832637324 l 3.9654445524908204 -45.95794125590181 a67.12870163986626,67.12870163986626 0 0,0 1.1503777605354184,0.10924222980692823 l -4.755947440116484 45.8828734815797" fill="red" stroke="none" /><path d="M 103.2404852339499 79.25152402106235 l 6.651288122390769 -42.58747745262881 a64.1037454227034,64.1037454227034 0 0,0 1.0887587509231937,0.17965452274728688 l -7.383376079452838 42.4666766669419" fill="red" stroke="none" /><path d="M 103.95276090670814 79.375362276772 l 7.907881764602399 -41.261589153104985 a63.01253781245025,63.01253781245025 0 0,0 1.0635123821645367,0.21333057885716827 l -8.61696055623406 41.119354618170604" fill="red" stroke="none" /><path d="M 104.66035177308747 79.52364482259891 l 9.543852852934394 -41.93316948863492 a64.0055325585098,64.0055325585098 0 0,0 1.0721728694015589,0.25374867767126985 l -10.264249409298477 41.76267489882278" fill="red" stroke="none" /><path d="M 105.71112130821622 79.79150937346287 l 11.344841055954497 -40.14310006145126 a62.7153916573794,62.7153916573794 0 0,0 1.0363264002103438,0.30253209416240645 l -12.034157673888268 39.94186963837015" fill="red" stroke="none" /><path d="M 106.40334571778207 80.00007090966166 l 12.741062494220053 -39.79487562452472 a62.78476755293743,62.78476755293743 0 0,0 1.0264328191638248,0.33839876250316836 l -13.424178135626295 39.56966313776231" fill="red" stroke="none" /><path d="M 107.4271985657038 80.35727306442388 l 20.633209325420424 -54.56869006509595 a79.3392771851616,79.3392771851616 0 0,0 1.2732700994360615,0.49400901714334094 l -21.56946258985615 54.20543834406206" fill="red" stroke="none" /><path d="M 108.76106565485865 80.91482961587045 l 18.394088190388146 -40.06981810250193 a65.09005333545615,65.09005333545615 0 0,0 1.014232556144406,0.4761957844836162 l -19.08109895783215 39.74725733537831" fill="red" stroke="none" /><path d="M 110.05341064243156 81.56283822128135 l 15.161146677510272 -27.804346602968543 a52.669260468078335,52.669260468078335 0 0,0 0.7922357442026874,0.4408783339133563 l -15.637506510784995 27.53925287149501" fill="red" stroke="none" /><line stroke="#e1ed5e" stroke-width="0.3" x1="143.23703022742887" x2="145.7803849466894" y1="26.81831364943548" y2="22.513508569990506" /><path d="M 143.74570117128098 25.957352633546492 a86.0,86.0 0 0,1 28.547481713284135,27.462654790039103" fill="none" id="id86" stroke="none" /><text fill="#e1ed5e" style="font-size:6.75px; font-family:Arial;" text-anchor="middle"><textPath startOffset="19.985693538727396" xlink:href="#id86">February</textPath></text><path d="M 111.60114157652 82.49532879139004 l 23.733763568363 -35.811279869899046 a63.962068142015596,63.962068142015596 0 0,0 0.9125112072093694,0.6161316404700233 l -24.346679469978913 35.39743631713035" fill="red" stroke="none" /><path d="M 111.90073688211348 82.69761687909136 l 9.825071024072503 -14.284589663026864 a38.33728705620124,38.33728705620124 0 0,0 0.540498899532569,0.37865402013171984 l -10.069501063188724 14.11335080013121" fill="red" stroke="none" /><path d="M 112.77801427241765 83.33499621200491 l 13.942957820060245 -18.18431564822447 a43.91452396115268,43.91452396115268 0 0,0 0.5959147468856978,0.4651209121873714 l -14.253905122105373 17.94161634681387" fill="red" stroke="none" /><path d="M 113.34407831869373 83.78471172551755 l 31.984041246354774 -38.86596260949922 a71.3343018627607,71.3343018627607 0 0,0 0.9414173389308248,0.7884099476412701 l -32.648316122244715 38.30965150446413" fill="red" stroke="none" /><path d="M 114.16331599549186 84.49514656593476 l 20.200088377983676 -22.113423844775618 a50.95074430823117,50.95074430823117 0 0,0 0.6424454956001998,0.5970830719209193 l -20.57774175737872 21.762436186780057" fill="red" stroke="none" /><path d="M 114.68862486808459 84.99185889309783 l 30.646514367143997 -31.313156690125187 a64.81463938863237,64.81463938863237 0 0,0 0.7906281064967954,0.787232898146706 l -31.180978273808112 30.78098794132836" fill="red" stroke="none" /><path d="M 115.4437574822437 85.77008943001954 l 31.23021098408423 -28.775581971944863 a63.46598869606751,63.46598869606751 0 0,0 0.7333536076995989,0.809787370204457 l -31.720908232399864 28.233741814470857" fill="red" stroke="none" /><path d="M 116.15771136456269 86.58626213691792 l 32.58649721329045 -27.052515150988572 a63.35231252985193,63.35231252985193 0 0,0 0.6893380449294182,0.8450469348355518 l -33.04733375029628 26.48758404654492" fill="red" stroke="none" /><path d="M 116.82858285166822 87.43820079747576 l 34.42277110850505 -25.695089269898244 a63.95538130870881,63.95538130870881 0 0,0 0.650936005553251,0.8878759800380378 l -34.85996972657193 25.09875084618871" fill="red" stroke="none" /><path d="M 117.45458315368197 88.32363383020206 l 25.563558419156244 -17.100922209197773 a51.75608979461869,51.75608979461869 0 0,0 0.4889801121890339,0.7447502578611059 l -25.854135166703205 16.65835388735899" fill="red" stroke="none" /><line stroke="#e1ed5e" stroke-width="0.3" x1="172.23445277983987" x2="176.4835382374775" y1="55.19839476539836" y2="52.563006222186495" /><path d="M 173.08426987136738 54.67131705675599 a86.0,86.0 0 0,1 12.851231095245387,41.99856678651699" fill="none" id="id87" stroke="none" /><text fill="#e1ed5e" style="font-size:6.75px; font-family:Arial;" text-anchor="middle"><textPath startOffset="22.20632615414155" xlink:href="#id87">March</textPath></text><path d="M 117.84615892207809 88.93136811851018 l 35.677045896344325 -22.127791720890315 a62.98202913548798,62.98202913548798 0 0,0 0.5634918222111879,0.9262323955166298 l -36.05265351684174 21.510391552166602" fill="red" stroke="none" /><path d="M 118.3937258080291 89.86733742301442 l 37.020265053685705 -20.393576495297456 a63.26580162394524,63.26580162394524 0 0,0 0.517248844537271,0.958383552442533 l -37.36582199744144 19.753311959522463" fill="red" stroke="none" /><path d="M 118.89224826269711 90.83032412892265 l 38.27515056103385 -18.57749907163558 a63.54539484158574,63.54539484158574 0 0,0 0.46915203758467633,0.9881538398398241 l -38.58926079246028 17.915902816155214" fill="red" stroke="none" /><path d="M 119.34039704204932 91.81776055985345 l 41.36815780300465 -17.501407629120973 a65.9179668842541,65.9179668842541 0 0,0 0.43310713688480396,1.0488032857164924 l -41.66328662677565 16.786729772951176" fill="red" stroke="none" /><path d="M 119.61058180528143 92.48833698450437 l 58.83174541584429 -22.534989046486903 a84.0,84.0 0 0,0 0.505581645993499,1.354707451882667 l -59.21093165033941 21.518958457574904" fill="red" stroke="none" /><path d="M 119.97218684219823 93.5106431181261 l 40.051293726200136 -13.013454191251856 a63.11242238497055,63.11242238497055 0 0,0 0.3268157066890599,1.0360951006497208 l -40.2693649166574 12.322108924175716" fill="red" stroke="none" /><path d="M 120.18372546131832 94.20196356495316 l 42.595983577854625 -12.236247725642963 a65.3186594491323,65.3186594491323 0 0,0 0.3011290649307829,1.0833214648552214 l -42.80029941335177 11.50121495736879" fill="red" stroke="none" /><path d="M 120.45610955862082 95.25157060432595 l 35.33043042598529 -8.201171093447954 a57.26980178315555,57.26980178315555 0 0,0 0.21464070741024088,0.9621922045068421 l -35.46636552039757 7.591800719391148" fill="red" stroke="none" /><path d="M 120.73433829027371 96.67025291283417 l 41.28546438899988 -6.6300719544084465 a62.81444037573635,62.81444037573635 0 0,0 0.162253009394866,1.0690446068991795 l -41.39347329183404 5.918428235117185" fill="red" stroke="none" /><path d="M 120.94382443527127 98.46500227214037 l 42.10063832855925 -3.085605705658295 a63.21356073873588,63.21356073873588 0 0,0 0.0701953750920859,1.0858913834661512 l -42.14751429465575 2.3604552579391087" fill="red" stroke="none" /><line stroke="#e1ed5e" stroke-width="0.3" x1="184.98032266829074" x2="189.97916517819016" y1="98.17113171792111" y2="98.06355123074" /><path d="M 185.9800911702706 98.14961562048488 a86.0,86.0 0 0,1 -9.607161424134198,41.387399972396054" fill="none" id="id88" stroke="none" /><text fill="#e1ed5e" style="font-size:6.75px; font-family:Arial;" text-anchor="middle"><textPath startOffset="21.466115282336823" xlink:href="#id88">April</textPath></text><path d="M 120.99980553446 99.90962569577887 l 41.83620309320008 -0.18004536944865915 a62.83659051106512,62.83659051106512 0 0,0 -0.004655002579831107,1.0816586615117296 l -41.83310379333074 -0.5401227702667553" fill="red" stroke="none" /><path d="M 120.8583938346157 102.4346265915055 l 41.91271908719706 4.8921226255995895 a63.197261582550546,63.197261582550546 0 0,0 -0.1354181614736629,1.0794159860626749 l -41.82229941647655 -5.61285636594966" fill="red" stroke="none" /><path d="M 120.76222939487914 103.15116336523771 l 42.039713129342246 6.380528862230929 a63.521155070848586,63.521155070848586 0 0,0 -0.17337719855264708,1.0796199808887932 l -41.92365417642831 -7.103228072812927" fill="red" stroke="none" /><path d="M 119.9155931802556 106.66101706037122 l 40.11259201164124 13.416153729739097 a63.29672822798918,63.29672822798918 0 0,0 -0.3544893148050455,1.0303118815935581 l -39.87571186589296 -14.104638314421955" fill="red" stroke="none" /><path d="M 119.54520255179757 107.68017299344265 l 23.428726319452934 9.20618093737139 a46.172583983442124,46.172583983442124 0 0,0 -0.29703787567353007,0.7372236475228061 l -23.266785829522014 -9.608103952737007" fill="red" stroke="none" /><path d="M 119.12269723197855 108.67885076344098 l 38.637758355976075 17.53577617934789 a63.43088282120682,63.43088282120682 0 0,0 -0.4597995448402842,0.9903673138981749 l -38.33018419429596 -18.198263560524897" fill="red" stroke="none" /><line stroke="#e1ed5e" stroke-width="0.3" x1="174.80103733775053" x2="179.2010983576182" y1="140.37084112569926" y2="142.7455964860345" /><path d="M 175.68104954172406 140.8457921977663 a86.0,86.0 0 0,1 -30.038265399797805,32.042727171017184" fill="none" id="id89" stroke="none" /><text fill="#e1ed5e" style="font-size:6.75px; font-family:Arial;" text-anchor="middle"><textPath startOffset="22.206326154141568" xlink:href="#id89">May</textPath></text><path d="M 118.48025628344425 109.97397251340804 l 44.62249272834755 24.083189601163934 a71.70667489253304,71.70667489253304 0 0,0 -0.59558741433567,1.0811641570780848 l -44.20132890456038 -24.847724276639827" fill="red" stroke="none" /><path d="M 117.75023020441432 111.22182372390056 l 35.44782579052629 22.41037146199349 a62.93772886483045,62.93772886483045 0 0,0 -0.5868048200870305,0.9107341120010507 l -35.05681610706221 -23.01722717391599" fill="red" stroke="none" /><path d="M 117.14729908036423 112.12312394758627 l 34.697277131330885 24.530941539857942 a63.493153956376375,63.493153956376375 0 0,0 -0.6386208172092207,0.8869884597484944 l -34.26987652174606 -25.124563605057567" fill="red" stroke="none" /><path d="M 116.71984013943494 112.70617746262583 l 33.99836145213271 25.836922509230096 a63.70169957013215,63.70169957013215 0 0,0 -0.6709705560255206,0.8673198914041492 l -33.54858407888912 -26.418320394747496" fill="red" stroke="none" /><line stroke="#e1ed5e" stroke-width="0.3" x1="143.8653032363475" x2="146.44561519142675" y1="172.8068346515853" y2="177.08958963109032" /><path d="M 144.38136562736335 173.6633856474863 a86.0,86.0 0 0,1 -40.68145358897372,12.25698825130547" fill="none" id="id90" stroke="none" /><text fill="#e1ed5e" style="font-size:6.75px; font-family:Arial;" text-anchor="middle"><textPath startOffset="21.466115282336833" xlink:href="#id90">June</textPath></text><line stroke="#e1ed5e" stroke-width="0.3" x1="102.19456741930631" x2="102.32365962044197" y1="184.97166512339345" y2="189.96999836594603" /><path d="M 102.22038585953345 185.97133177190398 a86.0,86.0 0 0,1 -42.740103519485714,-10.115201625700543" fill="none" id="id91" stroke="none" /><text fill="#e1ed5e" style="font-size:6.75px; font-family:Arial;" text-anchor="middle"><textPath startOffset="22.20632615414155" xlink:href="#id91">July</textPath></text><line stroke="#e1ed5e" stroke-width="0.3" x1="58.666819895761336" x2="56.23545636021788" y1="174.27360380694188" y2="178.64263932499728" /><path d="M 58.180547188652646 175.14741091055294 a86.0,86.0 0 0,1 -31.652253787137756,-30.449443065178592" fill="none" id="id92" stroke="none" /><text fill="#e1ed5e" style="font-size:6.75px; font-family:Arial;" text-anchor="middle"><textPath startOffset="22.20632615414155" xlink:href="#id92">August</textPath></text><line stroke="#e1ed5e" stroke-width="0.3" x1="26.63291911575756" x2="22.317208475507996" y1="142.92168965132927" y2="145.44649492493687" /><path d="M 25.769776987707644 143.4266507060508 a86.0,86.0 0 0,1 -11.730757126820373,-40.83630448921669" fill="none" id="id93" stroke="none" /><text fill="#e1ed5e" style="font-size:6.75px; font-family:Arial;" text-anchor="middle"><textPath startOffset="21.46611528233685" xlink:href="#id93">September</textPath></text><line stroke="#e1ed5e" stroke-width="0.3" x1="15.007084014347285" x2="10.007500721073583" y1="101.09737516637583" y2="101.16192664675087" /><path d="M 14.007167355692545 101.11028546245083 a86.0,86.0 0 0,1 10.666146001902534,-42.60595125391555" fill="none" id="id94" stroke="none" /><text fill="#e1ed5e" style="font-size:6.75px; font-family:Arial;" text-anchor="middle"><textPath startOffset="22.20632615414155" xlink:href="#id94">October</textPath></text><line stroke="#e1ed5e" stroke-width="0.3" x1="26.266209847984243" x2="21.928928074336255" y1="57.711370442889674" y2="55.22380399835377" /><path d="M 25.398753493254645 57.213857153982495 a86.0,86.0 0 0,1 29.58750427330803,-30.492523968695096" fill="none" id="id95" stroke="none" /><text fill="#e1ed5e" style="font-size:6.75px; font-family:Arial;" text-anchor="middle"><textPath startOffset="21.46611528233685" xlink:href="#id95">November</textPath></text><line stroke="#e1ed5e" stroke-width="0.3" x1="56.76296977257108" x2="54.21961505331056" y1="26.818313649435495" y2="22.513508569990535" /><path d="M 56.25429882871898 25.957352633546506 a86.0,86.0 0 0,1 42.26535254187918,-11.944610805530505" fill="none" id="id96" stroke="none" /><text fill="#e1ed5e" style="font-size:6.75px; font-family:Arial;" text-anchor="middle"><textPath startOffset="22.20632615414155" xlink:href="#id96">December</textPath></text></svg>