<?xml version="1.0" encoding="utf-8" ?>
<svg baseProfile="full" height="200mm" version="1.1" viewBox="0,0,200,200" width="200mm" xmlns="http://www.w3.org/2000/svg" xmlns:ev="http://www.w3.org/2001/xml-events" xmlns:xlink="http://www.w3.org/1999/xlink"><defs /><rect fill="#1a1a1a" height="200" width="200" x="0" y="0" /><text alignment-baseline="middle" fill="#e1ed5e" style="dominant-baseline: central; font-size:9.0px; font-family:Arial;" text-anchor="middle" x="100.0" y="100.0">2017</text><line stroke="#e1ed5e" stroke-width="0.3" x1="100.0" x2="100.0" y1="15.0" y2="10.0" /><path d="M 100.0 14.0 a86.0,86.0 0 0,1 42.46469731375804,11.215312516191453" fill="none" id="id25" stroke="none" /><text fill="#e1ed5e" style="font-size:6.75px; font-family:Arial;" text-anchor="middle"><textPath startOffset="22.20632615414155" xlink:href="#id25">January</textPath></text><path d="M 100.0 79.0 l 0.0 -23.335758956469093 a44.33575895646909,44.33575895646909 0 0,0 0.76316720935694,0.006568821111422015 l -0.40168673008441164 23.33230151196623" fill="#ffce13" stroke="none" /><path d="M 101.44485096284872 79.0497635885617 l 0.8555034390147298 -12.404739145426795 a33.43420441364263,33.43420441364263 0 0,0 0.5738102515019866,0.04453871916233023 l -1.0689038798790576 12.388175164076" fill="#ff2003" stroke="none" /><path d="M 101.80526077348638 79.07773832637324 l 2.120858099390504 -24.579910437196304 a45.67123904829958,45.67123904829958 0 0,0 0.7826633975303756,0.07432332027584612 l -2.543646624011124 24.53976157240528" fill="#ffe215" stroke="none" /><path d="M 106.74666289553966 80.11325718540242 l 7.920671986294817 -23.34730060610704 a45.65427935078212,45.65427935078212 0 0,0 0.7420298635211628,0.2588796492442305 l -8.321383853879254 23.207500103690602" fill="#ffe215" stroke="none" /><path d="M 107.4271985657038 80.35727306442388 l 7.679644257911225 -20.310370563819816 a42.71377646490235,42.71377646490235 0 0,0 0.6854886550053858,0.26595894843686807 l -8.028116077916279 20.1751689114924" fill="#ffb510" stroke="none" /><path d="M 109.08828744355905 81.06846463323043 l 13.258666624699853 -27.618725494823913 a51.63635485209306,51.63635485209306 0 0,0 0.797975276969024,0.3915630028401215 l -13.732113168679309 27.38640733184896" fill="#c8ff1d" stroke="none" /><path d="M 110.05341064243156 81.56283822128135 l 15.79426538802686 -28.965436357092504 a53.9917462784891,53.9917462784891 0 0,0 0.8121281923004431,0.4519484597426592 l -16.29051766939934 28.689272499789666" fill="#a8ff21" stroke="none" /><line stroke="#e1ed5e" stroke-width="0.3" x1="143.23703022742887" x2="145.7803849466894" y1="26.81831364943548" y2="22.513508569990506" /><path d="M 143.74570117128098 25.957352633546492 a86.0,86.0 0 0,1 28.547481713284135,27.462654790039103" fill="none" id="id26" stroke="none" /><text fill="#e1ed5e" style="font-size:6.75px; font-family:Arial;" text-anchor="middle"><textPath startOffset="19.985693538727396" xlink:href="#id26">February</textPath></text><path d="M 112.77801427241765 83.33499621200491 l 14.397144751586898 -18.77666331453502 a44.66095649430833,44.66095649430833 0 0,0 0.6060437455389949,0.473026756299789 l -14.718221052285324 18.52605816901201" fill="#ffd313" stroke="none" /><path d="M 114.94478906791727 85.2469230424477 l 14.563062215645708 -14.37624690643995 a41.46360809367918,41.46360809367918 0 0,0 0.49704151966609783,0.5122449771989737 l -14.808367999014916 14.123437733690864" fill="#ffa20f" stroke="none" /><path d="M 117.65298651832404 88.62581576622439 l 19.70767631635442 -12.698063356540358 a44.44425982616875,44.44425982616875 0 0,0 0.40882878589001526,0.6466689588327079 l -19.923332698490388 12.356946749993444" fill="#ffd013" stroke="none" /><line stroke="#e1ed5e" stroke-width="0.3" x1="172.23445277983987" x2="176.4835382374775" y1="55.19839476539836" y2="52.563006222186495" /><path d="M 173.08426987136738 54.67131705675599 a86.0,86.0 0 0,1 12.851231095245387,41.99856678651699" fill="none" id="id27" stroke="none" /><text fill="#e1ed5e" style="font-size:6.75px; font-family:Arial;" text-anchor="middle"><textPath startOffset="22.20632615414155" xlink:href="#id27">March</textPath></text><path d="M 118.3937258080291 89.86733742301442 l 18.75197841629236 -10.33001535014001 a42.409014728829135,42.409014728829135 0 0,0 0.34672782614594266,0.6424340030178285 l -18.92701434165677 10.005700363789723" fill="#ffb110" stroke="none" /><path d="M 119.04729006885535 91.15688171328212 l 41.64533851476894 -19.334753303236756 a66.9147787243576,66.9147787243576 0 0,0 0.4760434715394929,1.0488986875839006 l -41.971984303271775 18.615032606810793" fill="#34ff5b" stroke="none" /><path d="M 119.47837535516314 92.15188598940014 l 19.525755120201712 -7.867203990695118 a42.05108100894803,42.05108100894803 0 0,0 0.2647344830395268,0.6737203833651689 l -19.658283153122937 7.529934602434165" fill="#ffab0f" stroke="none" /><path d="M 119.97218684219823 93.5106431181261 l 21.6007449542848 -7.018507488950703 a43.712367334835825,43.712367334835825 0 0,0 0.22635620186538993,0.717611017323423 l -21.718356639918397 6.64564630520086" fill="#ffc512" stroke="none" /><path d="M 120.37134235888165 94.90015583598534 l 20.297962935031542 -5.081474062531494 a41.9243560942767,41.9243560942767 0 0,0 0.16922906033238502,0.7015637087951816 l -20.382424795624747 4.731325122076907" fill="#ffa90f" stroke="none" /><path d="M 120.83666639777658 97.38593545837742 l 21.02202144825022 -2.6373182644496374 a42.18680800400787,42.18680800400787 0 0,0 0.08419210625492093,0.7213065511393452 l -21.064303907508734 2.2750679749854394" fill="#ffad10" stroke="none" /><line stroke="#e1ed5e" stroke-width="0.3" x1="184.98032266829074" x2="189.97916517819016" y1="98.17113171792111" y2="98.06355123074" /><path d="M 185.9800911702706 98.14961562048488 a86.0,86.0 0 0,1 -9.607161424134198,41.387399972396054" fill="none" id="id28" stroke="none" /><text fill="#e1ed5e" style="font-size:6.75px; font-family:Arial;" text-anchor="middle"><textPath startOffset="21.466115282336823" xlink:href="#id28">April</textPath></text><path d="M 120.9764740272857 100.99374915477107 l 22.767448743557313 1.0785956169646702 a43.792983367594616,43.792983367594616 0 0,0 -0.04215314282765824,0.7526726820674894 l -22.745509249842126 -1.470340015367583" fill="#ffc612" stroke="none" /><path d="M 120.81339534386255 102.79330883721812 l 22.94815238107036 3.0798087378268106 a44.1538964229872,44.1538964229872 0 0,0 -0.10757981008556342,0.7524129411749513 l -22.891738519968197 -3.474367150982171" fill="#ffcb12" stroke="none" /><path d="M 120.64145759157962 103.86396538481128 l 22.23863574391669 4.162948199693734 a43.62492115928677,43.62492115928677 0 0,0 -0.14452327090394995,0.7369210447142922 l -22.163682540037076 -4.5451329714759705" fill="#ffc312" stroke="none" /><path d="M 120.32669344350535 105.2749913415812 l 28.746389264398317 7.459991212681673 a50.69859196382217,50.69859196382217 0 0,0 -0.22648249708997484,0.8428256252287432 l -28.613718690966564 -7.9537077710859645" fill="#d5ff1c" stroke="none" /><path d="M 119.79798401119884 107.00284435728193 l 19.5952850525901 6.931146690604489 a41.784994364659774,41.784994364659774 0 0,0 -0.24568728847946675,0.6760258994037883 l -19.473073503105407 -7.2674203870144085" fill="#ffa70f" stroke="none" /><path d="M 118.97047184881838 109.00673069616215 l 18.850157798784835 8.949608434984228 a41.866814327506475,41.866814327506475 0 0,0 -0.3146923951196818,0.648359542755064 l -18.693312147050438 -9.272756933704567" fill="#ffa80f" stroke="none" /><line stroke="#e1ed5e" stroke-width="0.3" x1="174.80103733775053" x2="179.2010983576182" y1="140.37084112569926" y2="142.7455964860345" /><path d="M 175.68104954172406 140.8457921977663 a86.0,86.0 0 0,1 -30.038265399797805,32.042727171017184" fill="none" id="id29" stroke="none" /><text fill="#e1ed5e" style="font-size:6.75px; font-family:Arial;" text-anchor="middle"><textPath startOffset="22.206326154141568" xlink:href="#id29">May</textPath></text><path d="M 118.48025628344425 109.97397251340804 l 14.670073813796277 7.917580294573768 a37.670307238418076,37.670307238418076 0 0,0 -0.3128852497899843,0.5679776120331299 l -14.531612154554784 -8.168928425004703" fill="#ff6609" stroke="none" /><path d="M 118.12598468904814 110.60418214915192 l 17.77371974119111 10.398097804719349 a41.591880715343024,41.591880715343024 0 0,0 -0.36683865353141076,0.6148426838385721 l -17.592100211961473 -10.702502582444026" fill="#ffa40f" stroke="none" /><path d="M 117.14729908036423 112.12312394758627 l 20.11507293880285 14.22133720937382 a45.6345812092692,45.6345812092692 0 0,0 -0.4589974151368693,0.6375072645767078 l -19.86729573129038 -14.56547807940166" fill="#ffe115" stroke="none" /><path d="M 116.0416608686014 113.55231037782055 l 19.258206742774895 16.26971154895614 a46.210752484479656,46.210752484479656 0 0,0 -0.5185671410161131,0.6032107390940091 l -18.975297092188 -16.598799387211674" fill="#ffea16" stroke="none" /><path d="M 115.07121518719521 114.62390073753431 l 14.554205056952702 14.122235494814555 a41.27960601715003,41.27960601715003 0 0,0 -0.49920680676519874,0.5056938596497523 l -14.308957625131967 -14.370669848444972" fill="#ff9f0e" stroke="none" /><path d="M 114.0293411484842 115.62618273729858 l 15.156503294782972 16.881640244975852 a43.68720717685532,43.68720717685532 0 0,0 -0.5638929326400398,0.49756995034777957 l -14.863668009236346 -17.14003333709592" fill="#ffc412" stroke="none" /><path d="M 112.04921762599082 117.19931262002967 l 13.203238570871079 18.84658695909079 a44.01128742087041,44.01128742087041 0 0,0 -0.6242123312947501,0.4293389333364511 l -12.876869354953445 -19.071066681792335" fill="#ffc912" stroke="none" /><path d="M 111.1453310114006 117.79835938074945 l 13.336641944276135 21.29773857894366 a46.1288616321323,46.1288616321323 0 0,0 -0.6766023269591056,0.4156244110893979 l -12.96806041738472 -21.52415145686144" fill="#ffe915" stroke="none" /><line stroke="#e1ed5e" stroke-width="0.3" x1="143.8653032363475" x2="146.44561519142675" y1="172.8068346515853" y2="177.08958963109032" /><path d="M 144.38136562736335 173.6633856474863 a86.0,86.0 0 0,1 -40.68145358897372,12.25698825130547" fill="none" id="id30" stroke="none" /><text fill="#e1ed5e" style="font-size:6.75px; font-family:Arial;" text-anchor="middle"><textPath startOffset="21.466115282336833" xlink:href="#id30">June</textPath></text><path d="M 110.21172684928248 118.3499491758327 l 10.82424283592727 19.450608975120854 a43.259614158250244,43.259614158250244 0 0,0 -0.6537911762472693,0.35649907768336153 l -10.487828847811352 -19.634048704563984" fill="#ffbe11" stroke="none" /><path d="M 109.57404056367764 118.69057910512821 l 9.476395093663887 18.49995422011641 a41.78582137221476,41.78582137221476 0 0,0 -0.6429964233665424,0.3224117550627708 l -9.156544762614585 -18.66033381608848" fill="#ffa70f" stroke="none" /><path d="M 107.59598834532513 119.57807347666477 l 7.467399517838058 19.246645702111987 a41.644501116317485,41.644501116317485 0 0,0 -0.6705355223337581,0.25353915910274066 l -7.134993774744026 -19.37233311132136" fill="#ffa50f" stroke="none" /><path d="M 104.83641907484287 120.43548508189849 l 4.81671376497032 20.352223569671565 a41.914438451068904,41.914438451068904 0 0,0 -0.703523571595945,0.1601196744191357 l -4.465670043981513 -20.432119977668386" fill="#ffa90f" stroke="none" /><path d="M 104.13013068566511 120.58985236759428 l 4.0981999781416505 20.430668892799478 a41.83764560760271,41.83764560760271 0 0,0 -0.707319958131945,0.13555955341167594 l -3.745912405438001 -20.498185644559623" fill="#ffa80f" stroke="none" /><path d="M 103.06178313531738 120.77559828337769 l 3.038485275452189 20.617511653453327 a41.840205842299724,41.840205842299724 0 0,0 -0.7134181643326318,0.09887325689538438 l -2.683138519932727 -20.666759475841317" fill="#ffa80f" stroke="none" /><path d="M 102.34483914955558 120.86867818915974 l 2.3086516395578296 20.546615372717362 a41.675910516038186,41.675910516038186 0 0,0 -0.7135856632547195,0.07396607167209727 l -1.9546333796975075 -20.583310812845216" fill="#ffa60f" stroke="none" /><path d="M 101.62511606390274 120.93702456842531 l 1.6004733871944326 20.619543042561627 a41.68156353729498,41.68156353729498 0 0,0 -0.7158059047860792,0.049366166110579576 l -1.245304721629423 -20.64403755318849" fill="#ffa60f" stroke="none" /><path d="M 101.26447882468166 120.96189622390904 l 1.244390431321664 20.628880906690597 a41.66637933959378,41.66637933959378 0 0,0 -0.7162885756001637,0.037023937618867554 l -0.8891137873080207 -20.647244651071667" fill="#ffa50f" stroke="none" /><line stroke="#e1ed5e" stroke-width="0.3" x1="102.19456741930631" x2="102.32365962044197" y1="184.97166512339345" y2="189.96999836594603" /><path d="M 102.22038585953345 185.97133177190398 a86.0,86.0 0 0,1 -42.740103519485714,-10.115201625700543" fill="none" id="id31" stroke="none" /><text fill="#e1ed5e" style="font-size:6.75px; font-family:Arial;" text-anchor="middle"><textPath startOffset="22.20632615414155" xlink:href="#id31">July</textPath></text><path d="M 99.45781275523022 120.99299961872073 l -0.7439108016089878 28.803553246943064 a49.81315815613129,49.81315815613129 0 0,0 -0.8569752505058332,-0.029515960379505334 l 1.239606403789464 -28.786480488137467" fill="#e1ff1b" stroke="none" /><path d="M 97.65516085044442 120.86867818915974 l -2.307888995334884 20.539827966056915 a41.669080397782615,41.669080397782615 0 0,0 -0.7120900124490993,-0.08622418367555165 l 2.6611064308353725 -20.497058253656014" fill="#ffa50f" stroke="none" /><path d="M 96.58105272829116 120.7198165907248 l -3.4330691031235974 20.805399003551116 a42.08673969972095,42.08673969972095 0 0,0 -0.713773125306844,-0.12409860702967251 l 3.7906911999024917 -20.74322181800044" fill="#ffac0f" stroke="none" /><path d="M 96.22490169976321 120.6578951692458 l -3.704589615556264 20.272061238362348 a41.607776470827716,41.607776470827716 0 0,0 -0.7034337206097935,-0.1348147467412288 l 4.052990950737753 -20.20528929327265" fill="#ffa40f" stroke="none" /><path d="M 92.7421414339146 119.70592522655815 l -7.213043131438654 19.58424613952397 a41.87033032966785,41.87033032966785 0 0,0 -0.6741716929078391,-0.25491404767911163 l 7.549085045106775 -19.457183841738225" fill="#ffa90f" stroke="none" /><line stroke="#e1ed5e" stroke-width="0.3" x1="58.666819895761336" x2="56.23545636021788" y1="174.27360380694188" y2="178.64263932499728" /><path d="M 58.180547188652646 175.14741091055294 a86.0,86.0 0 0,1 -31.652253787137756,-30.449443065178592" fill="none" id="id32" stroke="none" /><text fill="#e1ed5e" style="font-size:6.75px; font-family:Arial;" text-anchor="middle"><textPath startOffset="22.20632615414155" xlink:href="#id32">August</textPath></text><path d="M 89.1626897886671 117.98757091392108 l -10.359176974047816 17.193974039396398 a41.07349722512447,41.07349722512447 0 0,0 -0.602451975088616,-0.37007520869934085 l 10.653608149068742 -17.01311036386868" fill="#ff9c0e" stroke="none" /><path d="M 88.54995079064634 117.60387380957326 l -18.920114442701085 29.08872276635353 a55.70049744171804,55.70049744171804 0 0,0 -0.7992366272361751,-0.5296904554909071 l 19.41802576867722 -28.758734289771304" fill="#92ff23" stroke="none" /><path d="M 87.65650970185807 116.9893568818739 l -16.49886419570139 22.708738387272568 a49.06954432992784,49.06954432992784 0 0,0 -0.6790641465233118,-0.5023554214670226 l 16.887313312643265 -22.42137301706578" fill="#ebff1a" stroke="none" /><path d="M 86.51685102203217 116.09983520530335 l -15.801145637194317 18.867687454134224 a45.61027901740894,45.61027901740894 0 0,0 -0.5975696371734421,-0.5092618087956325 l 16.123580750944814 -18.59290125511564" fill="#ffe115" stroke="none" /><path d="M 84.43433777217949 114.09645910891817 l -15.336128370223408 13.888590366144943 a41.69033048906047,41.69033048906047 0 0,0 -0.4771381899181785,-0.5360698144803009 l 15.572925409789924 -13.622546381923778" fill="#ffa60f" stroke="none" /><path d="M 83.50135304334701 112.99209946851258 l -16.523180605999862 13.011418847457877 a42.031227205336165,42.031227205336165 0 0,0 -0.44271528198946747,-0.5722691805919686 l 16.7447027052074 -12.725071672752655" fill="#ffab0f" stroke="none" /><path d="M 82.6465618267979 111.8261652097733 l -26.618730667501737 18.140353710105586 a53.212253182240126,53.212253182240126 0 0,0 -0.5093094116061069,-0.7613484663427141 l 26.927043184518578 -17.67946832955705" fill="#b2ff20" stroke="none" /><path d="M 82.44556493220864 111.52570212397912 l -17.287981868444806 11.35075714888935 a41.68124766392828,41.68124766392828 0 0,0 -0.3886183609987635,-0.603144326352019 l 17.480805092820614 -11.051491222615883" fill="#ffa60f" stroke="none" /><path d="M 82.05923443525364 110.91462005526583 l -24.394987289203687 14.841173669751466 a49.55478665191063,49.55478665191063 0 0,0 -0.43707115183942075,-0.7325563907685536 l 24.64683931674134 -14.419055185096802" fill="#e4ff1a" stroke="none" /><line stroke="#e1ed5e" stroke-width="0.3" x1="26.63291911575756" x2="22.317208475507996" y1="142.92168965132927" y2="145.44649492493687" /><path d="M 25.769776987707644 143.4266507060508 a86.0,86.0 0 0,1 -11.730757126820373,-40.83630448921669" fill="none" id="id33" stroke="none" /><text fill="#e1ed5e" style="font-size:6.75px; font-family:Arial;" text-anchor="middle"><textPath startOffset="21.46611528233685" xlink:href="#id33">September</textPath></text><path d="M 81.69416730710424 110.29060199501025 l -46.6545585042487 26.2268043674662 a74.52095941363261,74.52095941363261 0 0,0 -0.6189625386687432,-1.1235967975064476 l 47.09909745236896 -25.41983705156193" fill="#3fffbf" stroke="none" /><path d="M 81.18737489456691 109.33194174019688 l -22.410177741568013 11.116496071107735 a46.01584600423548,46.01584600423548 0 0,0 -0.34587863980415084,-0.7126124438656237 l 22.598209637986884 -10.729094671276826" fill="#ffe715" stroke="none" /><path d="M 80.87730276802145 108.67885076344099 l -24.64337063828551 11.184412611008785 a48.062645877097914,48.062645877097914 0 0,0 -0.33542901165200445,-0.7563038706023562 l 24.832240734668797 -10.758560403913732" fill="#faff18" stroke="none" /><path d="M 80.73074385275274 108.34839909993369 l -19.58623853324884 8.485731617897462 a42.34545340282811,42.34545340282811 0 0,0 -0.28401502679786866,-0.6713276266675294 l 19.729404541239013 -8.147329465563775" fill="#ffb010" stroke="none" /><path d="M 80.45479744820244 107.68017299344265 l -24.02651938126994 9.441080223621672 a46.81487225161884,46.81487225161884 0 0,0 -0.28825860867778164,-0.7525522663744219 l 24.18547226954123 -9.026104390414092" fill="#fff316" stroke="none" /><path d="M 80.32549172779594 107.34259656027581 l -29.75107655684756 11.103207732995052 a52.75543698728527,52.75543698728527 0 0,0 -0.31019126514273176,-0.8535131398254829 l 29.937792082995518 -10.589446796163452" fill="#b9ff1f" stroke="none" /><path d="M 80.0844068197444 106.66101706037122 l -19.55123226658848 6.539152035307582 a41.61579958388609,41.61579958388609 0 0,0 -0.2213717758892773,-0.6813122702496813 l 19.660896293494005 -6.201640865080098" fill="#ffa50f" stroke="none" /><path d="M 79.97269907076064 106.31721596034903 l -20.161690278009335 6.359606422346388 a42.1409164586951,42.1409164586951 0 0,0 -0.2122562258755101,-0.6936656272242082 l 20.268173276390975 -6.0116138225701325" fill="#ffad10" stroke="none" /><path d="M 79.76711848015287 105.62410040840567 l -24.12879819262732 6.707041883103891 a46.043628192461355,46.043628192461355 0 0,0 -0.20568768252089933,-0.7654403843563158 l 24.240673951489992 -6.290710565572036" fill="#ffe715" stroke="none" /><path d="M 79.35854240842038 103.8639653848113 l -48.2072179408096 9.024121508615208 a70.04457799385133,70.04457799385133 0 0,0 -0.21164655564571616,-1.1870262819436506 l 48.355410938794506 -8.192976475938345" fill="#39ff85" stroke="none" /><path d="M 79.29508885075956 103.50808413554451 l -16.827659524261758 2.851151834939063 a38.06748932474703,38.06748932474703 0 0,0 -0.10390293828403771,-0.647003695877813 l 16.874244216907083 -2.561068909368036" fill="#ff6d0a" stroke="none" /><path d="M 79.18660465613746 102.79330883721812 l -33.10347699319148 4.442727065913137 a54.4002696519198,54.4002696519198 0 0,0 -0.11656809670956579,-0.9291624231486251 l 33.17504659914789 -3.8722468884771035" fill="#a3ff22" stroke="none" /><path d="M 79.07016306316243 101.71520430193888 l -22.848804418645724 1.8724640689409395 a43.92540043382011,43.92540043382011 0 0,0 -0.055269535309934496,-0.7541088974537615 l 22.877650512619994 -1.4788820349904173" fill="#ffc812" stroke="none" /><path d="M 79.0235259727143 100.99374915477108 l -21.153868871924328 1.002153139954245 a42.17759380020519,42.17759380020519 0 0,0 -0.028114112127204112,-0.7255003117540714 l 21.16798511690273 -0.6378755811861767" fill="#ffad10" stroke="none" /><path d="M 79.0095281055655 100.63252640178507 l -16.81271067128037 0.5066338402796073 a37.82034238546592,37.82034238546592 0 0,0 -0.01400782153836712,-0.650888424210078 l 16.818940555503747 -0.21715560027940048" fill="#ff6909" stroke="none" /><line stroke="#e1ed5e" stroke-width="0.3" x1="15.007084014347285" x2="10.007500721073583" y1="101.09737516637583" y2="101.16192664675087" /><path d="M 14.007167355692545 101.11028546245083 a86.0,86.0 0 0,1 10.666146001902534,-42.60595125391555" fill="none" id="id34" stroke="none" /><text fill="#e1ed5e" style="font-size:6.75px; font-family:Arial;" text-anchor="middle"><textPath startOffset="22.20632615414155" xlink:href="#id34">October</textPath></text><path d="M 79.00019446554 99.90962569577889 l -41.25011112845938 -0.17752307687616256 a62.25049311890795,62.25049311890795 0 0,0 0.013834409919268592,-1.071490294301967 l 41.240943711422396 0.8875496292386015" fill="#41ff2d" stroke="none" /><path d="M 79.03285615573316 98.82574320788736 l -62.90143153280056 -3.522770376337934 a84.0,84.0 0 0,0 0.09327763598234728,-1.442963742987953 l 62.831473305813795 4.604993183578899" fill="#4dd2ff" stroke="none" /><path d="M 79.12142395522702 97.74499172005258 l -24.907337656708766 -2.6901380882910315 a46.052191761987146,46.052191761987146 0 0,0 0.09190624286456724,-0.7873965626669382 l 24.85734106084061 3.118478389282832" fill="#ffe715" stroke="none" /><path d="M 79.26566170972629 96.67025291283419 l -30.966229693911437 -4.972896249704619 a52.36298899286241,52.36298899286241 0 0,0 0.15057635383409584,-0.8887101639675254 l 30.87604147855712 5.505192201987973" fill="#beff1f" stroke="none" /><path d="M 79.3925641242962 95.95851677861259 l -26.654349607557958 -5.227390121007015 a48.16210522914464,48.16210522914464 0 0,0 0.1665507615217431,-0.8121606624790481 l 26.56041955012122 5.685426439649466" fill="#f8ff18" stroke="none" /><path d="M 79.54389044137918 95.25157060432595 l -30.4660003880127 -7.072002200442357 a52.276035470715456,52.276035470715456 0 0,0 0.2110139590628033,-0.8747890902241251 l 30.33975362868908 7.595376522325879" fill="#bfff1e" stroke="none" /><path d="M 80.2630227832202 92.82701384747504 l -29.30559140751569 -10.650496225883625 a52.18093580381799,52.18093580381799 0 0,0 0.3140681358711299,-0.8415464592814474 l 29.11791868314293 11.153365822194413" fill="#c0ff1e" stroke="none" /><path d="M 80.52162464483688 92.15188598940014 l -43.155489735015735 -17.387959593555063 a67.52673890459283,67.52673890459283 0 0,0 0.4436774059110356,-1.0744000305897228 l 42.8497906422185 18.128234194598097" fill="#35ff64" stroke="none" /><path d="M 80.803312248108 91.48605970444005 l -26.762778509172723 -11.869584030085292 a50.27683962756727,50.27683962756727 0 0,0 0.35767825479827126,-0.7880966223986646 l 26.5544979374111 12.328502661326027" fill="#daff1b" stroke="none" /><line stroke="#e1ed5e" stroke-width="0.3" x1="26.266209847984243" x2="21.928928074336255" y1="57.711370442889674" y2="55.22380399835377" /><path d="M 25.398753493254645 57.213857153982495 a86.0,86.0 0 0,1 29.58750427330803,-30.492523968695096" fill="none" id="id35" stroke="none" /><text fill="#e1ed5e" style="font-size:6.75px; font-family:Arial;" text-anchor="middle"><textPath startOffset="21.46611528233685" xlink:href="#id35">November</textPath></text><path d="M 81.78341655067845 89.55222093294921 l -23.621566138201043 -13.547705304687312 a48.2308410785282,48.2308410785282 0 0,0 0.4192415919545029,-0.7166197798089725 l 23.384864871776216 13.952304496850177" fill="#f7ff18" stroke="none" /><path d="M 82.54541684631803 88.32363383020206 l -22.779934531709987 -15.238797430700119 a48.407049538447325,48.407049538447325 0 0,0 0.46926147500900806,-0.6885833107510425 l 22.51424859103224 15.628658764721578" fill="#f5ff19" stroke="none" /><path d="M 82.95767976084542 87.72973835380427 l -16.194192631044753 -11.659620165761611 a40.954914617237,40.954914617237 0 0,0 0.4168379264293069,-0.5685664631976958 l 15.991092092101812 11.936649072630807" fill="#ff9a0e" stroke="none" /><path d="M 83.17141714833178 87.43820079747576 l -13.043097852932766 -9.73610063613731 a37.27618066986763,37.27618066986763 0 0,0 0.38824750328824026,-0.5108882044665379 l 12.873574409420417 9.959173616484875" fill="#ff6008" stroke="none" /><path d="M 83.6137871275137 86.86637796730984 l -27.460029990985976 -22.00933539155373 a56.1918185305015,56.1918185305015 0 0,0 0.6114245365328239,-0.7495341861382563 l 27.07710696237676 22.47875374730007" fill="#8bff24" stroke="none" /><path d="M 84.07557802195018 86.31012108654704 l -22.883408819697664 -19.67236841001292 a51.17701903880983,51.17701903880983 0 0,0 0.58002604424135,-0.6630700362079031 l 22.54139091187847 20.063354002423765" fill="#ceff1d" stroke="none" /><path d="M 84.5562425177563 85.77008943001954 l -35.029087109445975 -32.27587441000493 a68.6315967888078,68.6315967888078 0 0,0 0.8079987367400385,-0.861916716271563 l 34.46832105073548 32.87406054315454" fill="#36ff73" stroke="none" /><path d="M 84.80347519578584 85.50635884689758 l -20.375947628795952 -19.43350054640655 a49.15741794374298,49.15741794374298 0 0,0 0.5892704190724609,-0.6072949651863688 l 20.038412946020372 19.781359707143043" fill="#eaff1a" stroke="none" /><path d="M 85.31137513191541 84.99185889309783 l -13.160580405899351 -13.446857657154238 a39.81538884721518,39.81538884721518 0 0,0 0.49393218841840125,-0.4751623739165369 l 12.927164973868521 13.671403117833089" fill="#ff890c" stroke="none" /><path d="M 85.83668400450813 84.49514656593479 l -30.27143956457383 -33.1387249875858 a65.88357324360985,65.88357324360985 0 0,0 0.8439027285927189,-0.7576642021025524 l 29.696525848385136 33.654888198457634" fill="#32ff4d" stroke="none" /><path d="M 87.51073957382395 83.11751280151077 l -18.11401297556397 -24.485804742471792 a51.45771002497322,51.45771002497322 0 0,0 0.7166213479291609,-0.5206558857470633 l 17.689846311281027 24.793979863035524" fill="#caff1d" stroke="none" /><path d="M 87.80319425747018 82.90503203632743 l -26.588461575918508 -37.266224324516365 a66.77901008518282,66.77901008518282 0 0,0 0.9414850197929208,-0.659570422708879 l 25.943045416541924 37.71837958998919" fill="#34ff59" stroke="none" /><path d="M 89.00827224532344 82.1063720568725 l -10.635567239568083 -17.313827943744123 a41.31954548145575,41.31954548145575 0 0,0 0.6092427946525633,-0.3670619669140171 l 10.33596237869787 17.49433652011676" fill="#ffa00e" stroke="none" /><line stroke="#e1ed5e" stroke-width="0.3" x1="56.762969772571076" x2="54.21961505331055" y1="26.818313649435495" y2="22.513508569990535" /><path d="M 56.25429882871897 25.957352633546506 a86.0,86.0 0 0,1 42.265352541879196,-11.944610805530505" fill="none" id="id36" stroke="none" /><text fill="#e1ed5e" style="font-size:6.75px; font-family:Arial;" text-anchor="middle"><textPath startOffset="22.20632615414155" xlink:href="#id36">December</textPath></text><path d="M 89.3179101791058 81.91981866633112 l -6.977188952396516 -11.809378461867324 a34.71650776739691,34.71650776739691 0 0,0 0.5171160508111832,-0.299546994161355 l 6.772876169120013 11.927729613418727" fill="#ff3605" stroke="none" /><path d="M 89.94658935756843 81.56283822128135 l -12.579628732748121 -23.070046406241104 a47.27687386733628,47.27687386733628 0 0,0 0.7178316865360327,-0.38344082686194647 l 12.180651999683784 23.2831659596048" fill="#fff917" stroke="none" /><path d="M 90.58718382345135 81.22770947309562 l -4.732935803933597 -9.439050363905741 a31.55918335367398,31.55918335367398 0 0,0 0.4877077041882606,-0.2393160523538744 l 4.569756832734911 9.519121576394445" fill="#ff0000" stroke="none" /><path d="M 90.91171255644093 81.06846463323043 l -6.830099854604597 -14.2275734299814 a36.782081919993395,36.782081919993395 0 0,0 0.5731380303802176,-0.269095990205469 l 6.58418361292477 14.343034402826877" fill="#ff5808" stroke="none" /><path d="M 91.56875222667455 80.76684994638697 l -15.116022258819918 -34.48228923332529 a58.64999866799255,58.64999866799255 0 0,0 0.9281117696643195,-0.39736902359352105 l 14.52022673136529 34.7373777848816" fill="#6dff28" stroke="none" /><path d="M 92.23578459929587 80.48803036053334 l -7.414282649671479 -18.632566266218536 a41.0535311821695,41.0535311821695 0 0,0 0.6588443402191362,-0.25562136824406745 l 7.092455144452667 18.757430338353156" fill="#ff9c0e" stroke="none" /><path d="M 92.57280143429618 80.3572730644239 l -4.196768099979589 -11.099201007025167 a32.86613355222984,32.86613355222984 0 0,0 0.5308939706874061,-0.1955327298026944 l 4.005091803519614 11.169797004634184" fill="#ff1602" stroke="none" /><path d="M 92.91201910852362 80.23233633223022 l -4.760619747558076 -13.276888222573833 a35.10458298765191,35.10458298765191 0 0,0 0.5705631387399732,-0.1990582758054737 l 4.531374604754818 13.356867351551516" fill="#ff3c05" stroke="none" /><path d="M 93.59665428221793 80.00007090966166 l -15.067395662599054 -47.06084258284119 a70.41405990869671,70.41405990869671 0 0,0 1.157522068919293,-0.35964774134193317 l 14.255088220969032 47.31323045906565" fill="#39ff8a" stroke="none" /><path d="M 93.94186890950719 79.89281104454417 l -4.781005457138012 -15.86835588199849 a37.57295180645076,37.57295180645076 0 0,0 0.6208658012307078,-0.1812477526405074 l 4.507149438183884 15.948301963557695" fill="#ff6509" stroke="none" /><path d="M 94.98787191387505 79.60689891045804 l -5.96773049001635 -24.281209312058127 a46.00381836555067,46.00381836555067 0 0,0 0.7706216004894609,-0.18238123505052234 l 5.548885202564355 24.38033645924952" fill="#ffe715" stroke="none" /><path d="M 99.27714615592234 79.0124445844662 l -0.9559496933434998 -27.755330248134797 a48.771787789035656,48.771787789035656 0 0,0 0.8392773838516727,-0.02167605871541884 l 0.478045674296948 27.767673098992578" fill="#efff19" stroke="none" /><path d="M 99.63851952072746 79.00311137660856 l -0.2939211199828475 -17.072648107477267 a38.07517797935117,38.07517797935117 0 0,0 0.655401599255379,-0.005641248482460427 l 4.182212411456756e-15 17.075177979351167" fill="#ff6d0a" stroke="none" /></svg>