<?xml version="1.0" encoding="utf-8" ?>
<svg baseProfile="full" height="200mm" version="1.1" viewBox="0,0,200,200" width="200mm" xmlns="http://www.w3.org/2000/svg" xmlns:ev="http://www.w3.org/2001/xml-events" xmlns:xlink="http://www.w3.org/1999/xlink"><defs /><rect fill="#1a1a1a" height="200" width="200" x="0" y="0" /><text alignment-baseline="middle" fill="#e1ed5e" style="dominant-baseline: central; font-size:9.0px; font-family:Arial;" text-anchor="middle" x="100.0" y="100.0">2017</text><line stroke="#e1ed5e" stroke-width="0.3" x1="100.0" x2="100.0" y1="15.0" y2="10.0" /><path d="M 100.0 14.0 a86.0,86.0 0 0,1 42.46469731375804,11.215312516191453" fill="none" id="id25" stroke="none" /><text fill="#e1ed5e" style="font-size:6.75px; font-family:Arial;" text-anchor="middle"><textPath startOffset="22.20632615414155" xlink:href="#id25">January</textPath></text><path d="M 100.0 79.0 l 0.0 -23.212126758164857 a44.21212675816486,44.21212675816486 0 0,0 0.7610390842952004,0.006550503667142562 l -0.39955860502267204 23.208687631106272" fill="#ffcd13" stroke="none" /><path d="M 101.44485096284872 79.0497635885617 l 0.8626002327275534 -12.507642150560086 a33.53735184670068,33.53735184670068 0 0,0 0.5755805061122824,0.04467612499069842 l -1.0777709282021768 12.490940763380923" fill="#ff2303" stroke="none" /><path d="M 101.80526077348638 79.07773832637324 l 2.1115478623388175 -24.47200845500085 a45.56293614771208,45.56293614771208 0 0,0 0.7808074216930097,0.07414707300656019 l -2.5324804111220716 24.432035837479113" fill="#ffe115" stroke="none" /><path d="M 106.74666289553966 80.11325718540242 l 7.8941410895396915 -23.269097036641806 a45.571697956026796,45.571697956026796 0 0,0 0.7406876484659464,0.2584113767665489 l -8.29351074206891 23.12976480670305" fill="#ffe115" stroke="none" /><path d="M 107.4271985657038 80.35727306442388 l 7.666256728971328 -20.27496453919529 a42.675923954934994,42.675923954934994 0 0,0 0.6848811820003373,0.26572325834856864 l -8.014121075971332 20.139998576956177" fill="#ffb610" stroke="none" /><path d="M 109.08828744355905 81.06846463323043 l 12.458528459788466 -25.95198200091545 a49.787502516876984,49.787502516876984 0 0,0 0.7694035766912869,0.3775429935993679 l -12.903403303490185 25.73368384718125" fill="#e1ff1b" stroke="none" /><path d="M 110.05341064243156 81.56283822128135 l 12.92966521993279 -23.71198570149281 a48.00804525705885,48.00804525705885 0 0,0 0.7221230965449729,0.40186072140118956 l -13.335912405549799 23.48590958253144" fill="#faff18" stroke="none" /><line stroke="#e1ed5e" stroke-width="0.3" x1="143.23703022742887" x2="145.7803849466894" y1="26.81831364943548" y2="22.513508569990506" /><path d="M 143.74570117128098 25.957352633546492 a86.0,86.0 0 0,1 28.547481713284135,27.462654790039103" fill="none" id="id26" stroke="none" /><text fill="#e1ed5e" style="font-size:6.75px; font-family:Arial;" text-anchor="middle"><textPath startOffset="19.985693538727396" xlink:href="#id26">February</textPath></text><path d="M 112.77801427241765 83.33499621200491 l 14.305512569215258 -18.65715721337016 a44.510363781796016,44.510363781796016 0 0,0 0.6040002207534594,0.47143175279082555 l -14.62454534512815 18.408147071356108" fill="#ffd113" stroke="none" /><path d="M 114.94478906791727 85.2469230424477 l 14.550130546865326 -14.363481125414904 a41.44543687405514,41.44543687405514 0 0,0 0.4968236936969802,0.5120204883903547 l -14.795218504265415 14.110896441474434" fill="#ffa30f" stroke="none" /><path d="M 117.65298651832404 88.62581576622439 l 19.591256182587582 -12.623051457074492 a44.30576638730695,44.30576638730695 0 0,0 0.40755482824767736,0.6446538637841188 l -19.805638607081214 12.283949945576166" fill="#ffce13" stroke="none" /><line stroke="#e1ed5e" stroke-width="0.3" x1="172.23445277983987" x2="176.4835382374775" y1="55.19839476539836" y2="52.563006222186495" /><path d="M 173.08426987136738 54.67131705675599 a86.0,86.0 0 0,1 12.851231095245387,41.99856678651699" fill="none" id="id27" stroke="none" /><text fill="#e1ed5e" style="font-size:6.75px; font-family:Arial;" text-anchor="middle"><textPath startOffset="22.20632615414155" xlink:href="#id27">March</textPath></text><path d="M 118.3937258080291 89.86733742301442 l 18.652977520207475 -10.275478129931503 a42.295986034181794,42.295986034181794 0 0,0 0.34580372560180656,0.6407217850560939 l -18.827089345027744 9.95287536154295" fill="#ffb010" stroke="none" /><path d="M 119.04729006885535 91.15688171328212 l 41.529339004204736 -19.280898009942412 a66.7868870550943,66.7868870550943 0 0,0 0.47513362777436774,1.0468939674518087 l -41.855074948942445 18.56318203364854" fill="#34ff5a" stroke="none" /><path d="M 119.47837535516314 92.15188598940014 l 19.414479007018798 -7.822369264646755 a41.9311121545527,41.9311121545527 0 0,0 0.2639792136888427,0.6717983052488441 l -19.54625177058934 7.487021954502127" fill="#ffaa0f" stroke="none" /><path d="M 119.97218684219823 93.5106431181261 l 21.557375334201602 -7.004415845167533 a43.666765817638776,43.666765817638776 0 0,0 0.22612006305934093,0.7168623927774999 l -21.674750881029148 6.632303285963614" fill="#ffc512" stroke="none" /><path d="M 120.37134235888165 94.90015583598534 l 20.200995170015045 -5.057198760403388 a41.82439591347602,41.82439591347602 0 0,0 0.16882556773181853,0.699890971472355 l -20.28505353800768 4.708722557271627" fill="#ffa90f" stroke="none" /><path d="M 120.83666639777658 97.38593545837742 l 20.892653829348145 -2.621088446351568 a42.05642630354385,42.05642630354385 0 0,0 0.08393190382438576,0.7190772956174661 l -20.93467608617612 2.261067412409249" fill="#ffac0f" stroke="none" /><line stroke="#e1ed5e" stroke-width="0.3" x1="184.98032266829074" x2="189.97916517819016" y1="98.17113171792111" y2="98.06355123074" /><path d="M 185.9800911702706 98.14961562048488 a86.0,86.0 0 0,1 -9.607161424134198,41.387399972396054" fill="none" id="id28" stroke="none" /><text fill="#e1ed5e" style="font-size:6.75px; font-family:Arial;" text-anchor="middle"><textPath startOffset="21.466115282336823" xlink:href="#id28">April</textPath></text><path d="M 120.9764740272857 100.99374915477107 l 22.609774268268666 1.071125873653986 a43.6351320539394,43.6351320539394 0 0,0 -0.04200120230069781,0.7499596818907383 l -22.58798671508044 -1.4601572718801474" fill="#ffc412" stroke="none" /><path d="M 120.81339534386255 102.79330883721812 l 22.869747719892384 3.0692862627894972 a44.074788816681966,44.074788816681966 0 0,0 -0.10738706647849615,0.7510648928360408 l -22.813526602397285 -3.4624966276059475" fill="#ffcb12" stroke="none" /><path d="M 120.64145759157962 103.86396538481128 l 22.132761131491243 4.143129064551402 a43.51720750335574,43.51720750335574 0 0,0 -0.14416643060573292,0.7351015237214894 l -22.058164767909847 -4.5234943153408365" fill="#ffc312" stroke="none" /><path d="M 120.32669344350535 105.2749913415812 l 24.147206894443134 6.266454878437495 a45.947065108876735,45.947065108876735 0 0,0 -0.2052563125863493,0.7638350963562992 l -24.035762505515006 -6.681180907969343" fill="#ffe715" stroke="none" /><path d="M 119.79798401119884 107.00284435728193 l 19.521220455803107 6.904948930095602 a41.70643300550083,41.70643300550083 0 0,0 -0.24522536362810557,0.6747548806016719 l -19.399470831169772 -7.239951607703405" fill="#ffa70f" stroke="none" /><path d="M 118.97047184881838 109.00673069616215 l 18.71546924291384 8.885661498911544 a41.7177163137179,41.7177163137179 0 0,0 -0.3135716981710275,0.6460505751013648 l -18.559744288128098 -9.206501029978185" fill="#ffa70f" stroke="none" /><line stroke="#e1ed5e" stroke-width="0.3" x1="174.80103733775053" x2="179.2010983576182" y1="140.37084112569926" y2="142.7455964860345" /><path d="M 175.68104954172406 140.8457921977663 a86.0,86.0 0 0,1 -30.038265399797805,32.042727171017184" fill="none" id="id29" stroke="none" /><text fill="#e1ed5e" style="font-size:6.75px; font-family:Arial;" text-anchor="middle"><textPath startOffset="22.206326154141568" xlink:href="#id29">May</textPath></text><path d="M 118.48025628344425 109.97397251340804 l 14.594663616026946 7.87688068368927 a37.5846150202547,37.5846150202547 0 0,0 -0.3121735000578833,0.5666855795276817 l -14.456913706517552 -8.126936781614758" fill="#ff6609" stroke="none" /><path d="M 118.12598468904814 110.60418214915192 l 17.687226451240683 10.34749693436399 a41.491673244128705,41.491673244128705 0 0,0 -0.36595482781394356,0.6133613410985368 l -17.506490747728513 -10.650420369348632" fill="#ffa40f" stroke="none" /><path d="M 117.14729908036423 112.12312394758627 l 20.01135842303381 14.148011146537964 a45.507563839306606,45.507563839306606 0 0,0 -0.4577198610770882,0.6357328537257074 l -19.764858769581117 -14.490377605714803" fill="#ffe015" stroke="none" /><path d="M 116.0416608686014 113.55231037782055 l 17.431392728404003 14.726383166184688 a43.819286001300384,43.819286001300384 0 0,0 -0.49173061768889303,0.5719937995879576 l -17.17531960114433 -15.024254064934173" fill="#ffc712" stroke="none" /><path d="M 115.07121518719521 114.62390073753431 l 14.488073489551876 14.058066715769527 a41.187459305808716,41.187459305808716 0 0,0 -0.4980924486120831,0.5045650207239918 l -14.243940415884259 -14.305372230474184" fill="#ff9f0e" stroke="none" /><path d="M 114.0293411484842 115.62618273729858 l 15.069505155379881 16.78473984104886 a43.5569828913291,43.5569828913291 0 0,0 -0.562212061762461,0.496086777229822 l -14.778350740710833 -17.04164976005097" fill="#ffc312" stroke="none" /><path d="M 112.04921762599082 117.19931262002967 l 13.120235218285268 18.72810618681604 a43.86662488273664,43.86662488273664 0 0,0 -0.6221605817216013,0.427927721271188 l -12.795917751940783 -18.951174697452323" fill="#ffc812" stroke="none" /><path d="M 111.1453310114006 117.79835938074945 l 13.268876471714798 21.189521583592043 a46.0011781275031,46.0011781275031 0 0,0 -0.6747295090899946,0.41447397339074954 l -12.902167762692493 -21.41478402381117" fill="#ffe715" stroke="none" /><line stroke="#e1ed5e" stroke-width="0.3" x1="143.8653032363475" x2="146.44561519142675" y1="172.8068346515853" y2="177.08958963109032" /><path d="M 144.38136562736335 173.6633856474863 a86.0,86.0 0 0,1 -40.68145358897372,12.25698825130547" fill="none" id="id30" stroke="none" /><text fill="#e1ed5e" style="font-size:6.75px; font-family:Arial;" text-anchor="middle"><textPath startOffset="21.466115282336833" xlink:href="#id30">June</textPath></text><path d="M 110.21172684928248 118.3499491758327 l 10.792953107270232 19.394382938226553 a43.19526810674535,43.19526810674535 0 0,0 -0.6528187015380323,0.355968806934063 l -10.45751159386355 -19.577292396920388" fill="#ffbe11" stroke="none" /><path d="M 109.57404056367764 118.69057910512821 l 9.418438805935018 18.386811125178454 a41.65869823813032,41.65869823813032 0 0,0 -0.6410402641273754,0.3214308962110528 l -9.100544634124882 -18.54620986229881" fill="#ffa60f" stroke="none" /><path d="M 107.59598834532513 119.57807347666477 l 7.41589974368395 19.113909010508017 a41.50212395510161,41.50212395510161 0 0,0 -0.6682430481389627,0.25267234152148826 l -7.085786474784713 -19.238729602136136" fill="#ffa40f" stroke="none" /><path d="M 104.83641907484287 120.43548508189849 l 4.785721642536374 20.221271506615317 a41.77986893568132,41.77986893568132 0 0,0 -0.7012648552778454,0.1596055979388852 l -4.436936637865667 -20.300653838131886" fill="#ffa80f" stroke="none" /><path d="M 104.13013068566511 120.58985236759428 l 4.078194859169822 20.33093780011136 a41.73592788233399,41.73592788233399 0 0,0 -0.7056002873394452,0.13522997441144238 l -3.7276269572586727 -20.398124972871273" fill="#ffa70f" stroke="none" /><path d="M 103.06178313531738 120.77559828337769 l 3.039157681924568 20.62207423876257 a41.84481770907666,41.84481770907666 0 0,0 -0.7134968013628259,0.09888415527122703 l -2.683732289374911 -20.6713329595264" fill="#ffa90f" stroke="none" /><path d="M 102.34483914955558 120.86867818915974 l 2.305182729515365 20.51574265065578 a41.6448435190096,41.6448435190096 0 0,0 -0.713053726137918,0.07391093421498116 l -1.951696406771844 -20.552382953326518" fill="#ffa60f" stroke="none" /><path d="M 101.62511606390274 120.93702456842531 l 1.5901635369607559 20.486717090967193 a41.54833806514792,41.54833806514792 0 0,0 -0.7135179968589821,0.049208378584632104 l -1.2372827793228434 -20.51105381406811" fill="#ffa40f" stroke="none" /><path d="M 101.26447882468166 120.96189622390904 l 1.242183479109107 20.592295158991426 a41.62972708764693,41.62972708764693 0 0,0 -0.7156584851110052,0.03699136913772809 l -0.8875369255846224 -20.610626334891357" fill="#ffa60f" stroke="none" /><line stroke="#e1ed5e" stroke-width="0.3" x1="102.19456741930631" x2="102.32365962044197" y1="184.97166512339345" y2="189.96999836594603" /><path d="M 102.22038585953345 185.97133177190398 a86.0,86.0 0 0,1 -42.740103519485714,-10.115201625700543" fill="none" id="id31" stroke="none" /><text fill="#e1ed5e" style="font-size:6.75px; font-family:Arial;" text-anchor="middle"><textPath startOffset="22.20632615414155" xlink:href="#id31">July</textPath></text><path d="M 99.45781275523022 120.99299961872073 l -0.5962474435328576 23.08616160836352 a44.093859980986224,44.093859980986224 0 0,0 -0.7585816298684873,-0.026127085138809906 l 0.993549425075988 -23.072477724798613" fill="#ffcb12" stroke="none" /><path d="M 97.65516085044442 120.86867818915974 l -2.291534238668712 20.394273353582516 a41.522609843478406,41.522609843478406 0 0,0 -0.7095869521981354,-0.08592109793771381 l 2.6422486139182366 -20.351806726919452" fill="#ffa40f" stroke="none" /><path d="M 96.58105272829116 120.7198165907248 l -3.4280765839641867 20.775142882854357 a42.056074441085585,42.056074441085585 0 0,0 -0.713253055620984,-0.12400818624849523 l 3.7851786110572205 -20.713056118084857" fill="#ffac0f" stroke="none" /><path d="M 96.22490169976321 120.6578951692458 l -3.6856747559040457 20.16855633418223 a41.50255747489543,41.50255747489543 0 0,0 -0.7016548562708311,-0.13447382315693387 l 4.0322972267465715 -20.10212531267683" fill="#ffa40f" stroke="none" /><path d="M 92.7421414339146 119.70592522655815 l -7.153388379105448 19.422276589114137 a41.697724348497154,41.697724348497154 0 0,0 -0.6713924918455199,-0.25386319164412424 l 7.48665109171125 -19.29626514736338" fill="#ffa70f" stroke="none" /><line stroke="#e1ed5e" stroke-width="0.3" x1="58.666819895761336" x2="56.23545636021788" y1="174.27360380694188" y2="178.64263932499728" /><path d="M 58.180547188652646 175.14741091055294 a86.0,86.0 0 0,1 -31.652253787137756,-30.449443065178592" fill="none" id="id32" stroke="none" /><text fill="#e1ed5e" style="font-size:6.75px; font-family:Arial;" text-anchor="middle"><textPath startOffset="22.20632615414155" xlink:href="#id32">August</textPath></text><path d="M 89.1626897886671 117.98757091392108 l -10.315483922931547 17.121453105689287 a40.98883100670413,40.98883100670413 0 0,0 -0.6012101200249713,-0.36931235989004774 l 10.608673242888827 -16.94135227897086" fill="#ff9c0e" stroke="none" /><path d="M 88.54995079064634 117.60387380957326 l -15.110256343936536 23.23125787893252 a48.71301480201926,48.71301480201926 0 0,0 -0.6989744695477692,-0.4632421645033878 l 15.507905512224266 -22.967717693337814" fill="#f0ff19" stroke="none" /><path d="M 87.65650970185807 116.9893568818739 l -14.440722032001306 19.875948723396352 a45.56802373941805,45.56802373941805 0 0,0 -0.6306072650951686,-0.46650817902690545 l 14.78071426751504 -19.62443059562968" fill="#ffe115" stroke="none" /><path d="M 86.51685102203217 116.09983520530335 l -15.733748607881154 18.78721062583232 a45.50530816691332,45.50530816691332 0 0,0 -0.5961943464627558,-0.5080897562156909 l 16.054808430920968 -18.513596479393676" fill="#ffe015" stroke="none" /><path d="M 84.43433777217949 114.09645910891817 l -15.251670222013233 13.812104006924596 a41.57638602036683,41.57638602036683 0 0,0 -0.475834116361891,-0.534604674015423 l 15.487163188023462 -13.54752516316831" fill="#ffa50f" stroke="none" /><path d="M 83.50135304334701 112.99209946851258 l -16.433372676016912 12.94069828701039 a41.91691682978858,41.91691682978858 0 0,0 -0.44151124980887857,-0.5707128066933862 l 16.65369074304386 -12.655907486203752" fill="#ffaa0f" stroke="none" /><path d="M 82.6465618267979 111.8261652097733 l -21.709347431074765 14.794666437497309 a47.27123752090719,47.27123752090719 0 0,0 -0.4524462830997195,-0.6763458045162551 l 21.960796819585216 -14.418783718775233" fill="#fffa17" stroke="none" /><path d="M 82.44556493220864 111.52570212397912 l -17.22751113601178 11.311053925940257 a41.60890780359159,41.60890780359159 0 0,0 -0.3879438946731489,-0.6020975396367323 l 17.419659894061976 -11.012834786382077" fill="#ffa50f" stroke="none" /><path d="M 82.05923443525364 110.91462005526583 l -23.59827313206318 14.356476833016288 a48.62221790284749,48.62221790284749 0 0,0 -0.4288459343607221,-0.7187704531606294 l 23.841899942122133 -13.948144285969548" fill="#f1ff19" stroke="none" /><line stroke="#e1ed5e" stroke-width="0.3" x1="26.63291911575756" x2="22.317208475507996" y1="142.92168965132927" y2="145.44649492493687" /><path d="M 25.769776987707644 143.4266507060508 a86.0,86.0 0 0,1 -11.730757126820373,-40.83630448921669" fill="none" id="id33" stroke="none" /><text fill="#e1ed5e" style="font-size:6.75px; font-family:Arial;" text-anchor="middle"><textPath startOffset="21.46611528233685" xlink:href="#id33">September</textPath></text><path d="M 81.69416730710424 110.29060199501025 l -41.98371218677148 23.601093686101184 a69.16267966134971,69.16267966134971 0 0,0 -0.5744572818327232,-1.042806828923363 l 42.38374587805572 -22.874916338779997" fill="#37ff7a" stroke="none" /><path d="M 81.18737489456691 109.33194174019688 l -22.280223015375686 11.052032450167358 a45.87078122806818,45.87078122806818 0 0,0 -0.3447882587328212,-0.7103659358984795 l 22.467164530723228 -10.666877558303593" fill="#ffe615" stroke="none" /><path d="M 80.87730276802145 108.67885076344099 l -24.505592031299603 11.121881684857538 a47.91134134554545,47.91134134554545 0 0,0 -0.3343730579367868,-0.7539229737381797 l 24.69340617396767 -10.698410374626663" fill="#fbff18" stroke="none" /><path d="M 80.73074385275274 108.34839909993369 l -19.61406916350315 8.497789229607548 a42.375783750345136,42.375783750345136 0 0,0 -0.28421845535443385,-0.6718084716834254 l 19.757438600049888 -8.158906232257964" fill="#ffb110" stroke="none" /><path d="M 80.45479744820244 107.68017299344265 l -23.614195666174602 9.279060032076515 a46.37185826933572,46.37185826933572 0 0,0 -0.285530787624007,-0.7454307863752707 l 23.77042073339212 -8.871205678868087" fill="#ffed16" stroke="none" /><path d="M 80.32549172779594 107.34259656027581 l -29.77523712392826 11.112224542680288 a52.78122527646003,52.78122527646003 0 0,0 -0.3103428950505062,-0.8539303602092242 l 29.962104279983993 -10.598046385464947" fill="#b8ff1f" stroke="none" /><path d="M 80.0844068197444 106.66101706037122 l -19.45135163215013 6.505745718760901 a41.51048043500506,41.51048043500506 0 0,0 -0.2208115394584971,-0.6795880398097432 l 19.560455422624877 -6.169958778973354" fill="#ffa40f" stroke="none" /><path d="M 79.97269907076064 106.31721596034903 l -20.216826104623863 6.376997928326499 a42.19873015825432,42.19873015825432 0 0,0 -0.21254742309435484,-0.6946172765839511 l 20.323600300224346 -6.0280536791905" fill="#ffae10" stroke="none" /><path d="M 79.76711848015287 105.62410040840567 l -21.914818402054298 6.091625604797245 a43.74570658616784,43.74570658616784 0 0,0 -0.1954223279350806,-0.7272391811368446 l 22.016428806331152 -5.713495490484862" fill="#ffc612" stroke="none" /><path d="M 79.35854240842038 103.8639653848113 l -39.1973661336792 7.337527654931489 a60.878224934224264,60.878224934224264 0 0,0 -0.1839495217215066,-1.0316866067969597 l 39.3178620977399 -6.661722297401315" fill="#51ff2b" stroke="none" /><path d="M 79.29508885075956 103.50808413554451 l -16.77332710672776 2.8419461595018234 a38.01238255515069,38.01238255515069 0 0,0 -0.10375252764803396,-0.6460670887038394 l 16.819761388737085 -2.55279984110477" fill="#ff6d0a" stroke="none" /><path d="M 79.18660465613746 102.79330883721812 l -33.15223390919537 4.449270598196029 a54.4494637031145,54.4494637031145 0 0,0 -0.11667350899803222,-0.9300026628037782 l 33.22390892744024 -3.877950181104842" fill="#a2ff22" stroke="none" /><path d="M 79.07016306316243 101.71520430193888 l -22.78443486533058 1.8671889712374454 a43.860815094541195,43.860815094541195 0 0,0 -0.05518827021833543,-0.7530000998443083 l 22.81319969421325 -1.4747157348963764" fill="#ffc812" stroke="none" /><path d="M 79.0235259727143 100.99374915477108 l -21.028281008893348 0.9962034826107752 a42.051865085254335,42.051865085254335 0 0,0 -0.02803030575345786,-0.7233376416329315 l 21.042313447498007 -0.634088593963847" fill="#ffac0f" stroke="none" /><path d="M 79.0095281055655 100.63252640178507 l -16.700696551004942 0.5032584093315434 a37.708277419151,37.708277419151 0 0,0 -0.013966315143928825,-0.6489597851567757 l 16.70688492883388 -0.2157088083846389" fill="#ff6809" stroke="none" /><line stroke="#e1ed5e" stroke-width="0.3" x1="15.007084014347285" x2="10.007500721073583" y1="101.09737516637583" y2="101.16192664675087" /><path d="M 14.007167355692545 101.11028546245083 a86.0,86.0 0 0,1 10.666146001902534,-42.60595125391555" fill="none" id="id34" stroke="none" /><text fill="#e1ed5e" style="font-size:6.75px; font-family:Arial;" text-anchor="middle"><textPath startOffset="22.20632615414155" xlink:href="#id34">October</textPath></text><path d="M 79.00019446554 99.90962569577889 l -32.95010958235132 -0.14180337158970943 a53.95041471188419,53.95041471188419 0 0,0 0.011989819116983701,-0.9286247038546201 l 32.94278675611662 0.7089643335048016" fill="#a8ff21" stroke="none" /><path d="M 79.03285615573316 98.82574320788736 l -62.90143153280056 -3.522770376337934 a84.0,84.0 0 0,0 0.09327763598234728,-1.442963742987953 l 62.831473305813795 4.604993183578899" fill="#4dd2ff" stroke="none" /><path d="M 79.12142395522702 97.74499172005258 l -24.8124756189775 -2.679892433602802 a45.95677803319239,45.95677803319239 0 0,0 0.09171582592683393,-0.7857651866301034 l 24.762669440047077 3.106601358557767" fill="#ffe715" stroke="none" /><path d="M 79.26566170972629 96.67025291283419 l -30.872789385399148 -4.957890581776523 a52.26835146687594,52.26835146687594 0 0,0 0.15030421173768374,-0.8871039659094203 l 30.782873312141245 5.488580336001771" fill="#beff1e" stroke="none" /><path d="M 79.3925641242962 95.95851677861259 l -26.48536248955259 -5.194248753678801 a47.98989896828243,47.98989896828243 0 0,0 0.16595525009737838,-0.8092567372822679 l 26.392027943540217 5.649381147124472" fill="#faff18" stroke="none" /><path d="M 79.54389044137918 95.25157060432595 l -30.340618994729724 -7.04289770763402 a52.14732041610563,52.14732041610563 0 0,0 0.21049439645596751,-0.8726351677909032 l 30.21489179801294 7.56411810708432" fill="#c0ff1e" stroke="none" /><path d="M 80.2630227832202 92.82701384747504 l -29.127332766907593 -10.5857119001682 a51.991269908597346,51.991269908597346 0 0,0 0.3129265692581004,-0.8384876283097403 l 28.940801609147865 11.085522665507282" fill="#c2ff1e" stroke="none" /><path d="M 80.52162464483688 92.15188598940014 l -34.24375056305369 -13.79729334038894 a57.91882658137147,57.91882658137147 0 0,0 0.38054961853468433,-0.9215310862067102 l 34.0011792576328 14.384698997048961" fill="#75ff27" stroke="none" /><path d="M 80.803312248108 91.48605970444005 l -25.974780305948237 -11.520098236391505 a49.41481788290024,49.41481788290024 0 0,0 0.3515456809230111,-0.7745843087680004 l 25.772632308061873 11.965504554001576" fill="#e6ff1a" stroke="none" /><line stroke="#e1ed5e" stroke-width="0.3" x1="26.266209847984243" x2="21.928928074336255" y1="57.711370442889674" y2="55.22380399835377" /><path d="M 25.398753493254645 57.213857153982495 a86.0,86.0 0 0,1 29.58750427330803,-30.492523968695096" fill="none" id="id35" stroke="none" /><text fill="#e1ed5e" style="font-size:6.75px; font-family:Arial;" text-anchor="middle"><textPath startOffset="21.46611528233685" xlink:href="#id35">November</textPath></text><path d="M 81.78341655067845 89.55222093294921 l -24.3528321975025 -13.967109209270696 a49.07384148461711,49.07384148461711 0 0,0 0.4265692856949371,-0.7291451837181997 l 24.10880323733724 14.384233805342788" fill="#ebff1a" stroke="none" /><path d="M 82.54541684631803 88.32363383020206 l -22.477468988288834 -15.03646097799673 a48.04314646749347,48.04314646749347 0 0,0 0.4657337720511882,-0.6834068419561234 l 22.215310750568904 15.42114584322327" fill="#f9ff18" stroke="none" /><path d="M 82.95767976084542 87.72973835380427 l -16.089861576309257 -11.584503085372116 a40.826355118371836,40.826355118371836 0 0,0 0.41552945159959276,-0.5667817050004593 l 15.888069512196031 11.859747234044077" fill="#ff990e" stroke="none" /><path d="M 83.17141714833178 87.43820079747576 l -12.980428932924275 -9.68932103524491 a37.19797757149753,37.19797757149753 0 0,0 0.38743298428049927,-0.5098163929291957 l 12.811720008419666 9.911322204055134" fill="#ff6008" stroke="none" /><path d="M 83.6137871275137 86.86637796730984 l -27.288398236141266 -21.87177178155556 a55.9718612481333,55.9718612481333 0 0,0 0.6090311760233043,-0.7466002091477173 l 26.907868568041568 22.338256160311357" fill="#8eff24" stroke="none" /><path d="M 84.07557802195018 86.31012108654704 l -22.76208705273708 -19.568070728028232 a51.017028484070444,51.017028484070444 0 0,0 0.5782127559661753,-0.6609971342508054 l 22.42188243319306 19.956983418481983" fill="#d0ff1d" stroke="none" /><path d="M 84.5562425177563 85.77008943001954 l -31.02320278168562 -28.584844179618624 a63.18450459122002,63.18450459122002 0 0,0 0.7438702038122547,-0.7935088685768559 l 30.526565255902906 29.11462246507353" fill="#36ff2e" stroke="none" /><path d="M 84.80347519578584 85.50635884689758 l -17.709903735846005 -16.890768969242195 a45.4732255067706,45.4732255067706 0 0,0 0.545106471654335,-0.5617801352514128 l 17.41653300048855 17.19311330004373" fill="#ffe015" stroke="none" /><path d="M 85.31137513191541 84.99185889309783 l -12.42501469732095 -12.695291459032475 a38.76376692760926,38.76376692760926 0 0,0 0.4808862297783152,-0.46261217204107374 l 12.204645223930209 12.907286717835863" fill="#ff790b" stroke="none" /><path d="M 85.83668400450813 84.49514656593479 l -23.391265440244474 -25.606866527848748 a55.68231411355125,55.68231411355125 0 0,0 0.7132347943702407,-0.6403492405925241 l 22.94701965827826 26.00571477721055" fill="#92ff23" stroke="none" /><path d="M 87.51073957382395 83.11751280151077 l -17.722571188334115 -23.956669250348405 a50.799522329999846,50.799522329999846 0 0,0 0.707455153923767,-0.5139962559821969 l 17.307570718056567 24.25818474114727" fill="#d2ff1c" stroke="none" /><path d="M 87.80319425747018 82.90503203632743 l -20.38499887664528 -28.57148913347139 a56.09812203672588,56.09812203672588 0 0,0 0.7909003363290565,-0.5540762287092874 l 19.890167400732565 28.91815020494462" fill="#8cff24" stroke="none" /><path d="M 89.00827224532344 82.1063720568725 l -10.57443931054787 -17.214316707364 a41.20275888174413,41.20275888174413 0 0,0 0.607520815536936,-0.3660244937642075 l 10.276556428793285 17.393787810586826" fill="#ff9f0e" stroke="none" /><line stroke="#e1ed5e" stroke-width="0.3" x1="56.762969772571076" x2="54.21961505331055" y1="26.818313649435495" y2="22.513508569990535" /><path d="M 56.25429882871897 25.957352633546506 a86.0,86.0 0 0,1 42.265352541879196,-11.944610805530505" fill="none" id="id36" stroke="none" /><text fill="#e1ed5e" style="font-size:6.75px; font-family:Arial;" text-anchor="middle"><textPath startOffset="22.20632615414155" xlink:href="#id36">December</textPath></text><path d="M 89.3179101791058 81.91981866633112 l -6.910153787261439 -11.695916773967646 a34.584722836597784,34.584722836597784 0 0,0 0.5151530623842404,-0.29840990456233396 l 6.707803992411879 11.813130835920028" fill="#ff3505" stroke="none" /><path d="M 89.94658935756843 81.56283822128135 l -12.496889419125363 -22.918309034220858 a47.104044402005925,47.104044402005925 0 0,0 0.7152075183871542,-0.3820390871175138 l 12.100536854209905 23.13002684784012" fill="#fff717" stroke="none" /><path d="M 90.58718382345135 81.22770947309562 l -4.700018756348737 -9.373402807535685 a31.48574539564774,31.48574539564774 0 0,0 0.4865728124038988,-0.238759165884069 l 4.537974676934412 9.452917133554584" fill="#ff0000" stroke="none" /><path d="M 90.91171255644093 81.06846463323043 l -6.799249126791824 -14.163309216475257 a36.71079618127841,36.71079618127841 0 0,0 0.5720272567168297,-0.2685744670766596 l 6.554443658775385 14.278248666191924" fill="#ff5808" stroke="none" /><path d="M 91.56875222667455 80.76684994638697 l -13.864371286474297 -31.627054561888393 a55.53246836572617,55.53246836572617 0 0,0 0.8787781527584144,-0.37624694345081733 l 13.317909375925574 31.861021033302" fill="#93ff23" stroke="none" /><path d="M 92.23578459929587 80.48803036053334 l -7.401124105704787 -18.59949800405332 a41.01794105373547,41.01794105373547 0 0,0 0.6582731748647509,-0.2553997649601521 l 7.07986776584036 18.724140472904026" fill="#ff9c0e" stroke="none" /><path d="M 92.57280143429618 80.3572730644239 l -4.1709777252090054 -11.030993151168989 a32.793212670232265,32.793212670232265 0 0,0 0.5297160634496045,-0.19509889662624402 l 3.9804793359868316 11.101155315601554" fill="#ff1602" stroke="none" /><path d="M 92.91201910852362 80.23233633223022 l -4.724294553083223 -13.175580919684693 a34.99696008408437,34.99696008408437 0 0,0 0.5688139180846131,-0.19844800706566645 l 4.4967986309353245 13.254949779922569" fill="#ff3b05" stroke="none" /><path d="M 93.59665428221793 80.00007090966166 l -12.217421705105748 -38.15935895672833 a61.06746896309813,61.06746896309813 0 0,0 1.0038754065521458,-0.31190897543083246 l 11.558760925842874 38.36400806704169" fill="#4fff2b" stroke="none" /><path d="M 93.94186890950719 79.89281104454417 l -4.154173084723012 -13.787873177468601 a35.400090304431956,35.400090304431956 0 0,0 0.5849608394815313,-0.17076610972704404 l 3.9162220275180593 13.857337616114345" fill="#ff4206" stroke="none" /><path d="M 94.98787191387505 79.60689891045804 l -5.754130811459834 -23.412125409442933 a45.108870516531354,45.108870516531354 0 0,0 0.7556301026471359,-0.17883323186711314 l 5.3502770218501645 23.507704553450917" fill="#ffda14" stroke="none" /><path d="M 99.27714615592234 79.0124445844662 l -0.7127567991699892 -20.694394783866542 a41.70666553854787,41.70666553854787 0 0,0 0.717698955260325,-0.0185360465962073 l 0.35643120871478523 20.70359762260511" fill="#ffa70f" stroke="none" /><path d="M 99.63851952072746 79.00311137660856 l -0.2926801876500589 -17.00056754026887 a38.00308673104641,38.00308673104641 0 0,0 0.6541606669225905,-0.005630567386095796 l 4.1645551481601634e-15 17.00308673104641" fill="#ff6d0a" stroke="none" /></svg>