<?xml version="1.0" encoding="utf-8" ?>
<svg baseProfile="full" height="200mm" version="1.1" viewBox="0,0,200,200" width="200mm" xmlns="http://www.w3.org/2000/svg" xmlns:ev="http://www.w3.org/2001/xml-events" xmlns:xlink="http://www.w3.org/1999/xlink"><defs /><rect fill="#1a1a1a" height="200" width="200" x="0" y="0" /><text alignment-baseline="middle" fill="#e1ed5e" style="dominant-baseline: central; font-size:9.0px; font-family:Arial;" text-anchor="middle" x="100.0" y="100.0">2021</text><line stroke="#e1ed5e" stroke-width="0.3" x1="100.0" x2="100.0" y1="15.0" y2="10.0" /><path d="M 100.0 14.0 a86.0,86.0 0 0,1 42.46469731375804,11.215312516191453" fill="none" id="id73" stroke="none" /><text fill="#e1ed5e" style="font-size:6.75px; font-family:Arial;" text-anchor="middle"><textPath startOffset="22.20632615414155" xlink:href="#id73">January</textPath></text><path d="M 104.307194497241 79.44645832069477 l 3.440278458461529 -16.416696931076263 a37.77329585974573,37.77329585974573 0 0,0 0.6352340126462201,0.1388375510858814 l -3.7223551952612772 16.35504588189451" fill="#ffaf10" stroke="none" /><path d="M 105.71112130821622 79.79150937346287 l 4.561298624711826 -16.139905900740832 a37.77206032747816,37.77206032747816 0 0,0 0.6241559252559891,0.18220823006462292 l -4.838444767691242 16.058999341757506" fill="#ffaf10" stroke="none" /><path d="M 107.4271985657038 80.35727306442388 l 5.98856552854928 -15.83797125827223 a37.93234333066708,37.93234333066708 0 0,0 0.6087542044498766,0.23618717376254655 l -6.260302897998824 15.732541380619137" fill="#ffb110" stroke="none" /><path d="M 108.43124777332544 80.76684994638697 l 6.8257008631864675 -15.57061688283919 a38.00100886376633,38.00100886376633 0 0,0 0.596829154265358,0.26777984436659563 l -7.092712135918606 15.450816707956063" fill="#ffb210" stroke="none" /><path d="M 109.41281617654863 81.2277094730956 l 7.737988454401315 -15.432126224004886 a38.26345808678167,38.26345808678167 0 0,0 0.586231730857582,0.30029066190921266 l -8.002480672847653 15.296643036783173" fill="#ffb610" stroke="none" /><line stroke="#e1ed5e" stroke-width="0.3" x1="143.23703022742887" x2="145.7803849466894" y1="26.81831364943548" y2="22.513508569990506" /><path d="M 143.74570117128098 25.957352633546492 a86.0,86.0 0 0,1 28.547481713284135,27.462654790039103" fill="none" id="id74" stroke="none" /><text fill="#e1ed5e" style="font-size:6.75px; font-family:Arial;" text-anchor="middle"><textPath startOffset="19.985693538727396" xlink:href="#id74">February</textPath></text><path d="M 111.2981086023043 82.29822771554956 l 8.23746182484211 -12.906379161151678 a36.3111201538993,36.3111201538993 0 0,0 0.5239746065400225,0.3408076593955332 l -8.458403457166414 12.762672577596616" fill="#ff9b0e" stroke="none" /><path d="M 112.19680574252982 82.90503203632743 l 10.066882062695521 -14.109680025137063 a38.33277775995448,38.33277775995448 0 0,0 0.5338381139556196,0.38785609285892747 l -10.30826549300493 13.93430469746146" fill="#ffb710" stroke="none" /><path d="M 115.4437574822437 85.77008943001954 l 12.582735900789356 -11.59375927780383 a38.10966092418771,38.10966092418771 0 0,0 0.44035959891527215,0.4862560677494609 l -12.780439140320665 11.37545042278482" fill="#ffb410" stroke="none" /><line stroke="#e1ed5e" stroke-width="0.3" x1="172.23445277983987" x2="176.4835382374775" y1="55.19839476539836" y2="52.563006222186495" /><path d="M 173.08426987136738 54.67131705675599 a86.0,86.0 0 0,1 12.851231095245387,41.99856678651699" fill="none" id="id75" stroke="none" /><text fill="#e1ed5e" style="font-size:6.75px; font-family:Arial;" text-anchor="middle"><textPath startOffset="22.20632615414155" xlink:href="#id75">March</textPath></text><path d="M 117.84615892207809 88.93136811851018 l 10.072657522361675 -6.247312862680606 a32.852735868439986,32.852735868439986 0 0,0 0.2939290501312088,0.4831420749757099 l -10.178702370779108 6.073003014497814" fill="#ff6909" stroke="none" /><path d="M 118.73160827565052 90.50648371742162 l 15.005095723948825 -7.604852636285896 a37.822207979468445,37.822207979468445 0 0,0 0.2893218571378721,0.583255209330922 l -15.133777594040104 7.345437838456024" fill="#ffb010" stroke="none" /><path d="M 119.34039704204932 91.81776055985345 l 17.09872478948996 -7.233867021685076 a39.56596944719401,39.56596944719401 0 0,0 0.25996408195409915,0.6295236446178658 l -17.220710558330257 6.938468806613907" fill="#ffc712" stroke="none" /><path d="M 119.47837535516314 92.15188598940014 l 15.605033072789748 -6.287489406141469 a37.82407739625573,37.82407739625573 0 0,0 0.23812319055041836,0.6059975466128147 l -15.710949813221866 6.01794285463287" fill="#ffb010" stroke="none" /><path d="M 120.45610955862082 95.25157060432595 l 19.779566980347614 -4.591385131861739 a41.30546939519347,41.30546939519347 0 0,0 0.1548082042341561,0.6939748247433384 l -19.855669571583807 4.250232137568437" fill="#ffdf14" stroke="none" /><path d="M 120.73433829027371 96.67025291283417 l 16.54076999333105 -2.6562979697601414 a37.75270100241847,37.75270100241847 0 0,0 0.09751721600616368,0.642516611802889 l -16.584043102776516 2.3711822455651697" fill="#ffaf10" stroke="none" /><path d="M 120.87857604477298 97.74499172005257 l 16.408503619640786 -1.7722143236440073 a37.50393088463151,37.50393088463151 0 0,0 0.06379753378162256,0.6424324587605533 l -16.436578279104637 1.4895063341790191" fill="#ffab0f" stroke="none" /><line stroke="#e1ed5e" stroke-width="0.3" x1="184.98032266829074" x2="189.97916517819016" y1="98.17113171792111" y2="98.06355123074" /><path d="M 185.9800911702706 98.14961562048488 a86.0,86.0 0 0,1 -9.607161424134198,41.387399972396054" fill="none" id="id76" stroke="none" /><text fill="#e1ed5e" style="font-size:6.75px; font-family:Arial;" text-anchor="middle"><textPath startOffset="21.466115282336823" xlink:href="#id76">April</textPath></text><path d="M 120.99513854157772 99.54816195383933 l 17.065204963735873 -0.36726163310977167 a38.06915643965659,38.06915643965659 0 0,0 0.008460403911354785,0.6552676066266621 l -17.068998374764945 0.07345776842264694" fill="#ffb310" stroke="none" /><path d="M 120.92983693683757 101.71520430193887 l 16.85872374468609 1.381575765704637 a37.91523922077441,37.91523922077441 0 0,0 -0.05890476127757298,0.6500091322434277 l -16.83244438713144 -1.6715662864966352" fill="#ffb110" stroke="none" /><path d="M 120.32669344350535 105.2749913415812 l 17.730343087614997 4.60121103958089 a39.31764747546196,39.31764747546196 0 0,0 -0.17564114968518824,0.6536260580900612 l -17.648513861588032 -4.905728030846499" fill="#ffc412" stroke="none" /><path d="M 120.02730092923936 106.31721596034902 l 8.05362853178488 2.5403578285197312 a29.444782437985065,29.444782437985065 0 0,0 -0.1566290650220788,0.4820546948616077 l -8.008707215746556 -2.678611423359134" fill="#ff3705" stroke="none" /><path d="M 119.79798401119884 107.00284435728193 l 4.60773152014448 1.6298238576948894 a25.887485608044734,25.887485608044734 0 0,0 -0.15221316267475624,0.41882525072882254 l -4.578994096464497 -1.708896905429843" fill="#ff0000" stroke="none" /><path d="M 119.12269723197855 108.67885076344098 l 15.461198293864966 7.017076670127188 a37.9790464301343,37.9790464301343 0 0,0 -0.2753035664230966,0.5929793899203144 l -15.338120110602038 -7.282176127326333" fill="#ffb210" stroke="none" /><line stroke="#e1ed5e" stroke-width="0.3" x1="174.80103733775053" x2="179.2010983576182" y1="140.37084112569926" y2="142.7455964860345" /><path d="M 175.68104954172406 140.8457921977663 a86.0,86.0 0 0,1 -30.038265399797805,32.042727171017184" fill="none" id="id77" stroke="none" /><text fill="#e1ed5e" style="font-size:6.75px; font-family:Arial;" text-anchor="middle"><textPath startOffset="22.206326154141568" xlink:href="#id77">May</textPath></text><path d="M 117.94076556474637 110.91462005526583 l 40.66034535407861 24.73652639036282 a68.59369099128642,68.59369099128642 0 0,0 -0.6223582680728175,1.003439691319999 l -40.22852244633783 -25.432762413048092" fill="#39ff86" stroke="none" /><path d="M 117.35343817320211 111.8261652097733 l 21.60631415530727 14.724450464779446 a47.14655336497671,47.14655336497671 0 0,0 -0.4627975114803921,0.6666943323569433 l -21.349655736664744 -15.094186059323409" fill="#d4ff1c" stroke="none" /><path d="M 116.498646956653 112.99209946851258 l 25.55742676750609 20.12556736289029 a53.53030163792939,53.53030163792939 0 0,0 -0.5762972553636452,0.7190194358200228 l -25.20721160008759 -20.562514632288565" fill="#87ff25" stroke="none" /><path d="M 115.80600337817218 113.82643327865902 l 17.07463535797325 14.936179683503905 a43.685515999105355,43.685515999105355 0 0,0 -0.4999727223300527,0.5617246537122421 l -16.815003785994865 -15.227878506957014" fill="#fffe18" stroke="none" /><path d="M 114.55890576462653 115.13401014063108 l 5.936397513403738 6.170896468397735 a29.56275531945353,29.56275531945353 0 0,0 -0.36976554567109404,0.34963640303369137 l -5.829296133341836 -6.272167508177348" fill="#ff3805" stroke="none" /><path d="M 114.29624159901734 115.38237550388516 l 7.8609677001917495 8.458192046542747 a32.54711331370992,32.54711331370992 0 0,0 -0.41365900985629567,0.37786769774326706 l -7.71420914086859 -8.592252510872596" fill="#ff6509" stroke="none" /><path d="M 113.75828350139079 115.86535959552629 l 6.982428156720073 8.051784479153477 a31.6576515359855,31.6576515359855 0 0,0 -0.41476727943063235,0.3534736737147459 l -6.842795400712394 -8.17078254309117" fill="#ff5808" stroke="none" /><path d="M 112.92097659922987 116.55440617244103 l 7.1461657613727265 9.155695754174374 a32.61440699441958,32.61440699441958 0 0,0 -0.44553030494856366,0.34161363944773865 l -6.987506727930669 -9.277348735449484" fill="#ff6609" stroke="none" /><path d="M 112.34349029814194 116.9893568818739 l 11.344605811043854 15.614510333192971 a40.300596207199405,40.300596207199405 0 0,0 -0.564731625484556,0.4029210202286004 l -11.074146857710414 -15.80747561526579" fill="#ffd113" stroke="none" /><path d="M 111.45004920935366 117.60387380957326 l 6.228223234459187 9.575579447091366 a32.42289308388273,32.42289308388273 0 0,0 -0.47046883585456123,0.30027547050492903 l -6.062472596557695 -9.681369346420103" fill="#ff6309" stroke="none" /><path d="M 111.1453310114006 117.79835938074945 l 15.441923824514816 24.65973504759401 a50.09562757562817,50.09562757562817 0 0,0 -0.7347854897970517,0.45136526184662784 l -15.015159134785454 -24.92188877626901" fill="#b0ff20" stroke="none" /><line stroke="#e1ed5e" stroke-width="0.3" x1="143.8653032363475" x2="146.44561519142675" y1="172.8068346515853" y2="177.08958963109032" /><path d="M 144.38136562736335 173.6633856474863 a86.0,86.0 0 0,1 -40.68145358897372,12.25698825130547" fill="none" id="id78" stroke="none" /><text fill="#e1ed5e" style="font-size:6.75px; font-family:Arial;" text-anchor="middle"><textPath startOffset="21.466115282336833" xlink:href="#id78">June</textPath></text><path d="M 110.8373102113329 117.98757091392108 l 16.031406943992934 26.608638456565206 a52.06486196840581,52.06486196840581 0 0,0 -0.7716313254781124,0.45589338819425346 l -15.571007747486439 -26.880650417053207" fill="#98ff23" stroke="none" /><path d="M 109.89434966115114 118.52300852407294 l 6.4227810684024655 12.02395635413918 a34.63186132040937,34.63186132040937 0 0,0 -0.5282333449222806,0.276346720213666 l -6.214856820953689 -12.132732493297564" fill="#ff830c" stroke="none" /><path d="M 109.57404056367764 118.69057910512821 l 12.529227259920598 24.45973689688659 a48.481998922852256,48.481998922852256 0 0,0 -0.7460365952213487,0.3740782363096496 l -12.10633675701649 -24.67178297410554" fill="#c3ff1e" stroke="none" /><path d="M 108.92500713936063 119.00905698771935 l 16.84275660099059 35.872791478960366 a60.629983830594526,60.629983830594526 0 0,0 -0.9485185764025796,0.4354183565280791 l -16.22277002882059 -36.157396905822516" fill="#3aff2e" stroke="none" /><path d="M 107.93186726928326 119.44442032107085 l 9.608852354515918 23.55543249038783 a46.43989865113666,46.43989865113666 0 0,0 -0.7427706279842174,0.2955637619136552 l -9.201960650489834 -23.717343096707555" fill="#ddff1b" stroke="none" /><path d="M 107.2578585660854 119.70592522655815 l 7.9278393989990334 21.52500065719775 a43.938532883091824,43.938532883091824 0 0,0 -0.7119725368925396,0.255288020960124 l -7.556147301476759 -21.658276219197834" fill="#fdff18" stroke="none" /><path d="M 106.57524785965236 119.94407469862006 l 2.6638322074690053 8.079949176723613 a29.507736522012525,29.507736522012525 0 0,0 -0.483756373295686,0.15488351420651672 l -2.5243544890823792 -8.124605537589835" fill="#ff3705" stroke="none" /><path d="M 105.88484417918355 120.15858648285463 l 3.245467251440259 11.11737715959503 a32.581413237979916,32.581413237979916 0 0,0 -0.5397170554570099,0.15252943096010263 l -3.0536190278786433 -11.171595383893651" fill="#ff6509" stroke="none" /><path d="M 105.53697534728816 120.25689768951611 l 4.450068569764742 16.280474099131713 a37.87770562511702,37.87770562511702 0 0,0 -0.630410481921481,0.1664971379871714 l -4.169167645031763 -16.354662586422467" fill="#ffb010" stroke="none" /><path d="M 104.83641907484287 120.43548508189849 l 2.737316158203085 11.566074537743873 a32.88557865493333,32.88557865493333 0 0,0 -0.5519763738771517,0.12562802561365388 l -2.5378196349330713 -11.611479296935212" fill="#ff6a09" stroke="none" /><path d="M 104.13013068566511 120.58985236759428 l 2.309378176843817 11.51289374140008 a32.74222933962932,32.74222933962932 0 0,0 -0.553550085080425,0.10608919126596976 l -2.1108604771916877 -11.550940131014517" fill="#ff6709" stroke="none" /><path d="M 103.7750983002368 120.6578951692458 l 4.038467914467291 22.09909257626344 a43.46506433977975,43.46506433977975 0 0,0 -0.7371489223640991,0.1281627889807184 l -3.657470020631142 -22.165333943765166" fill="#fffb17" stroke="none" /><path d="M 103.41894727170886 120.7198165907248 l 2.205462993243765 13.365748309654842 a34.54648644083066,34.54648644083066 0 0,0 -0.5875602854761598,0.09176483280379971 l -1.975066844159088 -13.401731449805748" fill="#ff820b" stroke="none" /><path d="M 103.06178313531738 120.77559828337769 l 1.6515221937613493 11.206333086720008 a32.32737510666094,32.32737510666094 0 0,0 -0.5512147022701842,0.07639333505484154 l -1.4583789003043348 -11.233100987267452" fill="#ff6109" stroke="none" /><path d="M 102.34483914955558 120.86867818915974 l 2.2673352173794137 20.17890609145078 a41.305887324506614,41.305887324506614 0 0,0 -0.7072500309606854,0.0733093574799831 l -1.9196525898131256 -20.21494481738652" fill="#ffdf14" stroke="none" /><path d="M 101.26447882468166 120.96189622390904 l 0.6893230969663667 11.427252826468075 a32.44802487296538,32.44802487296538 0 0,0 -0.557815435026509,0.028832686395924442 l -0.49251959352637814 -11.437425319626202" fill="#ff6309" stroke="none" /><line stroke="#e1ed5e" stroke-width="0.3" x1="102.19456741930631" x2="102.32365962044197" y1="184.97166512339345" y2="189.96999836594603" /><path d="M 102.22038585953345 185.97133177190398 a86.0,86.0 0 0,1 -42.740103519485714,-10.115201625700543" fill="none" id="id79" stroke="none" /><text fill="#e1ed5e" style="font-size:6.75px; font-family:Arial;" text-anchor="middle"><textPath startOffset="22.20632615414155" xlink:href="#id79">July</textPath></text><path d="M 100.54218724476979 120.99299961872073 l 0.44311489429418627 17.157007835765235 a38.1627290570601,38.1627290570601 0 0,0 -0.6568356488059949,0.011308021364134776 l -0.14771955559552336 -17.162093334408528" fill="#ffb410" stroke="none" /><path d="M 99.81925306533755 120.99922214144158 l -0.14511804044762228 16.85984868170183 a37.860473208529655,37.860473208529655 0 0,0 -0.6516333893952998,-0.011218459750563941 l 0.43531111973558995 -16.854852744672105" fill="#ffb010" stroke="none" /><path d="M 99.09653310690486 120.98055641714683 l -0.7401042029831855 17.1869031438002 a38.202830985208294,38.202830985208294 0 0,0 -0.6567465621925268,-0.033946295638806086 l 1.0358388335892013 -17.17161704139919" fill="#ffb510" stroke="none" /><path d="M 98.01472825383883 120.90594882070398 l -1.2640060197967042 13.310643850157467 a34.37052545429001,34.37052545429001 0 0,0 -0.5885009805190675,-0.06100053286613047 l 1.492939596921365 -13.286913948835576" fill="#ff7f0b" stroke="none" /><path d="M 97.2962882734958 120.8252237178851 l -5.250041484640403 40.43821956831846 a61.77759847570697,61.77759847570697 0 0,0 -1.053371034251937,-0.14598762700858794 l 5.945341110079171 -40.34185737581726" fill="#30ff31" stroke="none" /><path d="M 94.46302465271185 120.25689768951611 l -10.580042317601158 38.70684287647492 a61.12676140565481,61.12676140565481 0 0,0 -1.0125759565587193,-0.2861640796713441 l 11.244749442264492 -38.518990003465056" fill="#34ff2f" stroke="none" /><path d="M 93.76903079525671 120.05430185196036 l -9.153128461555225 29.45923740371952 a51.84844289494106,51.84844289494106 0 0,0 -0.8500148656666427,-0.2721479174017198 l 9.65886467231281 -29.297316639658092" fill="#9bff22" stroke="none" /><path d="M 92.7421414339146 119.70592522655815 l -8.795368324407479 23.880442001268456 a46.44865446615866,46.44865446615866 0 0,0 -0.747889203839244,-0.2827877025567015 l 9.205127749007007 -23.725506048605123" fill="#ddff1b" stroke="none" /><path d="M 91.7346041902142 119.30500536409082 l -12.35767693981841 28.863108930421376 a52.39731256777067,52.39731256777067 0 0,0 -0.8260793759373743,-0.36212892217588616 l 12.852676990413526 -28.64611545495104" fill="#95ff23" stroke="none" /><path d="M 91.07499286063937 119.00905698771935 l -5.190891072883433 11.055895270527884 a33.21385157775473,33.21385157775473 0 0,0 -0.5154273083862114,-0.24743643049133288 l 5.3804310492698875 -10.964904563536988" fill="#ff6e0a" stroke="none" /><line stroke="#e1ed5e" stroke-width="0.3" x1="58.666819895761336" x2="56.23545636021788" y1="174.27360380694188" y2="178.64263932499728" /><path d="M 58.180547188652646 175.14741091055294 a86.0,86.0 0 0,1 -31.652253787137756,-30.449443065178592" fill="none" id="id80" stroke="none" /><text fill="#e1ed5e" style="font-size:6.75px; font-family:Arial;" text-anchor="middle"><textPath startOffset="22.20632615414155" xlink:href="#id80">August</textPath></text><path d="M 88.24862548938628 117.40417183066458 l -6.342834061553956 9.393945687031975 a32.334803020049165,32.334803020049165 0 0,0 -0.4586046888855497,-0.3154324867962996 l 6.503595635062398 -9.283372410870577" fill="#ff6109" stroke="none" /><path d="M 87.36589467227662 116.77436683061367 l -10.24413290468614 13.60118811323303 a38.027465373931165,38.027465373931165 0 0,0 -0.5194755878090257,-0.3983117291565199 l 10.476737220988651 -13.422837042249144" fill="#ffb210" stroke="none" /><path d="M 86.51685102203217 116.09983520530335 l -21.087457735691515 25.17991865240091 a53.843708333501304,53.843708333501304 0 0,0 -0.7054410967458024,-0.6011922068645366 l 21.517764309014375 -24.813202055313422" fill="#84ff25" stroke="none" /><path d="M 85.70375840098266 115.38237550388516 l -8.137210853599711 8.755422328128837 a32.95289172626599,32.95289172626599 0 0,0 -0.4121687528423564,-0.3897312820888639 l 8.286715440832882 -8.614056409294045" fill="#ff6b09" stroke="none" /><path d="M 83.50135304334701 112.99209946851258 l -27.438949380032046 21.607199705131308 a55.92516316608109,55.92516316608109 0 0,0 -0.5890602303954439,-0.7614397539042639 l 27.806816427645558 -21.13168195711379" fill="#6cff28" stroke="none" /><path d="M 82.24976979558568 111.22182372390057 l -34.259843508641254 21.659320484011523 a61.532246928411325,61.532246928411325 0 0,0 -0.5582889924069127,-0.9001396188450673 l 34.62759714071612 -21.066384533801195" fill="#30ff2f" stroke="none" /><line stroke="#e1ed5e" stroke-width="0.3" x1="26.63291911575756" x2="22.317208475507996" y1="142.92168965132927" y2="145.44649492493687" /><path d="M 25.769776987707644 143.4266507060508 a86.0,86.0 0 0,1 -11.730757126820373,-40.83630448921669" fill="none" id="id81" stroke="none" /><text fill="#e1ed5e" style="font-size:6.75px; font-family:Arial;" text-anchor="middle"><textPath startOffset="21.46611528233685" xlink:href="#id81">September</textPath></text><path d="M 81.35079622478065 109.6543875284942 l -30.439881031115483 15.75822814409629 a55.276932643249346,55.276932643249346 0 0,0 -0.4301633267949878,-0.8487530533719105 l 30.70662302769674 -15.231920879021695" fill="#74ff27" stroke="none" /><path d="M 80.73074385275274 108.34839909993369 l -28.815917198154896 12.484486965274296 a52.404131873959244,52.404131873959244 0 0,0 -0.3514795502817205,-0.830793831485288 l 29.026547729628923 -11.98661860812285" fill="#95ff23" stroke="none" /><path d="M 80.32549172779594 107.34259656027581 l -40.58755920575018 15.147421652980723 a64.32198454611083,64.32198454611083 0 0,0 -0.37820021787817,-1.040644569070459 l 40.84228368463357 -14.446529286904147" fill="#33ff52" stroke="none" /><path d="M 79.97269907076064 106.31721596034903 l -16.264830725548634 5.130419152078598 a38.05479167878534,38.05479167878534 0 0,0 -0.19167514940342759,-0.626405478500327 l 16.35073264745819 -4.849686701026223" fill="#ffb310" stroke="none" /><path d="M 79.67330655649465 105.27499134158121 l -11.536480832300523 2.9938384554201463 a32.918618153594394,32.918618153594394 0 0,0 -0.1376134391869906,-0.5496972834272945 l 11.586305585782576 -2.7948133325954596" fill="#ff6a09" stroke="none" /><path d="M 79.29508885075956 103.50808413554451 l -11.385004608301442 1.9289893958781181 a32.54726504504228,32.54726504504228 0 0,0 -0.08883581584380516,-0.553180710059792 l 11.416522178506538 -1.7327294561251123" fill="#ff6509" stroke="none" /><path d="M 79.18660465613746 102.79330883721812 l -11.314614218929364 1.5185034140414277 a32.416056567031106,32.416056567031106 0 0,0 -0.06946064865167606,-0.553669712695672 l 11.339076376827888 -1.323515947058347" fill="#ff6309" stroke="none" /><line stroke="#e1ed5e" stroke-width="0.3" x1="15.007084014347285" x2="10.007500721073583" y1="101.09737516637583" y2="101.16192664675087" /><path d="M 14.007167355692545 101.11028546245083 a86.0,86.0 0 0,1 10.666146001902534,-42.60595125391555" fill="none" id="id82" stroke="none" /><text fill="#e1ed5e" style="font-size:6.75px; font-family:Arial;" text-anchor="middle"><textPath startOffset="22.20632615414155" xlink:href="#id82">October</textPath></text><path d="M 79.00019446554 99.90962569577889 l -24.845853129225457 -0.10692607060809312 a45.84608321051063,45.84608321051063 0 0,0 0.010188730667813032,-0.7891284185972448 l 24.84033139143993 0.5345907472658099" fill="#e4ff1a" stroke="none" /><path d="M 79.01574976396665 99.18683210126434 l -43.76167317392794 -1.6958236496290537 a64.79451857061937,64.79451857061937 0 0,0 0.05278097233289771,-1.114122905121897 l 43.72599859336154 2.44885766137396" fill="#34ff58" stroke="none" /><path d="M 79.08570108090925 98.10471618934814 l -11.838937996466527 -1.0728615674289883 a32.88745072869053,32.88745072869053 0 0,0 0.0559444890006147,-0.5633533695172571 l 11.818716381783684 1.2764904676506756" fill="#ff6a09" stroke="none" /><path d="M 79.16333360222342 97.38593545837743 l -11.396707379351977 -1.4297742298543106 a32.48604341968684,32.48604341968684 0 0,0 0.07438375916187961,-0.5542454045792792 l 11.370407621132264 1.6257379764982491" fill="#ff6409" stroke="none" /><path d="M 79.32604984820605 96.31383870115002 l -39.95825690763131 -7.124549449957658 a61.58844047214868,61.58844047214868 0 0,0 0.19507193016788335,-1.042082051173608 l 39.829699253553564 7.811309578593838" fill="#30ff2f" stroke="none" /><path d="M 79.91906864156998 93.8553929516997 l -41.46848578235976 -12.689030477346858 a64.36642488765716,64.36642488765716 0 0,0 0.333309320760882,-1.0566816317974523 l 41.24392097783067 13.400962275570725" fill="#33ff52" stroke="none" /><path d="M 80.2630227832202 92.82701384747504 l -19.815661461666362 -7.201582274048233 a42.083719463445135,42.083719463445135 0 0,0 0.25329471614115295,-0.6787039090484212 l 19.688762157023582 7.541609320125996" fill="#ffe915" stroke="none" /><path d="M 81.10775173730289 90.83032412892265 l -17.229316993199983 -8.362543732798374 a40.15154045331955,40.15154045331955 0 0,0 0.30714013992008454,-0.6191757801335046 l 17.082816840326487 8.65787910143084" fill="#ffcf13" stroke="none" /><path d="M 81.43458229118936 90.18545643968196 l -37.84229254900874 -20.005196460960136 a63.80475430143682,63.80475430143682 0 0,0 0.5216552164243845,-0.9665478903374412 l 37.49232923336588 20.65362533463005" fill="#32ff4b" stroke="none" /><line stroke="#e1ed5e" stroke-width="0.3" x1="26.266209847984243" x2="21.928928074336255" y1="57.711370442889674" y2="55.22380399835377" /><path d="M 25.398753493254645 57.213857153982495 a86.0,86.0 0 0,1 29.58750427330803,-30.492523968695096" fill="none" id="id83" stroke="none" /><text fill="#e1ed5e" style="font-size:6.75px; font-family:Arial;" text-anchor="middle"><textPath startOffset="21.46611528233685" xlink:href="#id83">November</textPath></text><path d="M 82.15384107792192 88.93136811851018 l -16.108453520997195 -9.990863747348309 a39.95520069153069,39.95520069153069 0 0,0 0.36753534095514084,-0.5813526455879907 l 15.934090583796092 10.266664040650515" fill="#ffcd13" stroke="none" /><path d="M 83.17141714833178 87.43820079747577 l -36.85512444682458 -27.510734383623902 a66.9906588810949,66.9906588810949 0 0,0 0.6977366132159493,-0.918139595225723 l 36.376111893384525 28.141058754730647" fill="#36ff73" stroke="none" /><path d="M 83.84228863543731 86.58626213691792 l -30.43897326352699 -25.26969314935313 a60.561199238650175,60.561199238650175 0 0,0 0.6727754769937495,-0.7963539604514879 l 29.999487173046113 25.789906059433733" fill="#3aff2e" stroke="none" /><path d="M 84.31358615837235 86.03803664274999 l -9.570015197400473 -8.51795718661002 a33.81174404643635,33.81174404643635 0 0,0 0.39069689117763623,-0.4314172654665621 l 9.421974665606792 8.681427239346139" fill="#ff770a" stroke="none" /><path d="M 85.05521093208273 85.24692304244772 l -13.21787718096825 -13.048317937449148 a39.573391671095465,39.573391671095465 0 0,0 0.48272791486150424,-0.48065492778466284 l 12.991313465939431 13.273908715883922" fill="#ffc812" stroke="none" /><path d="M 86.10567301691215 84.25364557470407 l -11.18415665478319 -12.67493523425847 a37.903826290854326,37.903826290854326 0 0,0 0.4929414292879896,-0.4274739499530366 l 10.964321426848427 12.865574177631187" fill="#ffb110" stroke="none" /><path d="M 87.22198572758235 83.33499621200491 l -27.486471143398568 -35.84767836048813 a66.17258172557653,66.17258172557653 0 0,0 0.9098851185236906,-0.6853066073752839 l 26.865339871116486 36.31550155736927" fill="#35ff69" stroke="none" /><path d="M 88.09926311788651 82.69761687909137 l -9.587827956023158 -13.93966392466024 a37.91864874175161,37.91864874175161 0 0,0 0.5409642455941028,-0.3652614734375023 l 9.346459016022516 14.102637310396407" fill="#ffb110" stroke="none" /><line stroke="#e1ed5e" stroke-width="0.3" x1="56.76296977257108" x2="54.21961505331056" y1="26.818313649435495" y2="22.513508569990535" /><path d="M 56.25429882871898 25.957352633546506 a86.0,86.0 0 0,1 42.26535254187918,-11.944610805530505" fill="none" id="id84" stroke="none" /><text fill="#e1ed5e" style="font-size:6.75px; font-family:Arial;" text-anchor="middle"><textPath startOffset="22.20632615414155" xlink:href="#id84">December</textPath></text><path d="M 89.3179101791058 81.91981866633112 l -9.088393546643873 -15.382739343162717 a38.86694061551569,38.86694061551569 0 0,0 0.5789383820766465,-0.3353584787856839 l 8.822258432101904 15.536901979338447" fill="#ffbe11" stroke="none" /><path d="M 89.94658935756843 81.56283822128135 l -8.402090326033154 -15.408770628214647 a38.55065053266546,38.55065053266546 0 0,0 0.5853364705665051,-0.31266647109093293 l 8.135608808938343 15.55111582580733" fill="#ffba11" stroke="none" /><path d="M 91.23893434514133 80.91482961587045 l -10.398663033542826 -22.652524656318846 a45.92526963124578,45.92526963124578 0 0,0 0.7212845304104603,-0.3236193438557639 l 10.007196384665592 22.828164330691138" fill="#e3ff1b" stroke="none" /><path d="M 91.90106846888425 80.62456947434976 l -14.56646591752938 -34.847997826012076 a58.76989385487186,58.76989385487186 0 0,0 0.9367253074192536,-0.382113772668069 l 13.964456740521745 35.09357248486372" fill="#4dff2c" stroke="none" /><path d="M 92.91201910852362 80.23233633223022 l -21.26394267442915 -59.30299100330936 a84.0,84.0 0 0,0 1.3652719837468588,-0.4763165873111608 l 20.239988686619004 59.66022844379273" fill="#4dd2ff" stroke="none" /><path d="M 93.59665428221793 80.00007090966166 l -6.952439836742309 -21.714945571898895 a43.80077369025123,43.80077369025123 0 0,0 0.7200317983077047,-0.22371738466939928 l 6.577622665723876 21.831403091450817" fill="#feff18" stroke="none" /><path d="M 94.63758080256005 79.69619591428918 l -4.129574086558771 -15.635865105612428 a37.17200234161763,37.17200234161763 0 0,0 0.6200486671451926,-0.15806421121478362 l 3.859816530728579 15.704632312996074" fill="#ffa70f" stroke="none" /><path d="M 95.33964822691252 79.52364482259891 l -3.3655051493256267 -14.787141002300084 a36.16529471959057,36.16529471959057 0 0,0 0.6081922363502694,-0.13292726617796022 l 3.1104701888218362 14.842881766573912" fill="#ff980e" stroke="none" /><path d="M 96.40284397218896 79.31037775812273 l -2.771644101330025 -15.941557442072137 a37.18070655760505,37.18070655760505 0 0,0 0.631489148772292,-0.10420112035524637 l 2.4968257464188475 15.986904825367011" fill="#ffa70f" stroke="none" /><path d="M 99.27714615592234 79.0124445844662 l -0.6144208419320756 -17.8392790937734 a38.849856905772135,38.849856905772135 0 0,0 0.6685382624874449,-0.017266370940055047 l 0.30725594424975167 17.847212256855816" fill="#ffbe11" stroke="none" /></svg>