<?xml version="1.0" encoding="utf-8" ?>
<svg baseProfile="full" height="200mm" version="1.1" viewBox="0,0,200,200" width="200mm" xmlns="http://www.w3.org/2000/svg" xmlns:ev="http://www.w3.org/2001/xml-events" xmlns:xlink="http://www.w3.org/1999/xlink"><defs /><rect fill="#1a1a1a" height="200" width="200" x="0" y="0" /><text alignment-baseline="middle" fill="#e1ed5e" style="dominant-baseline: central; font-size:9.0px; font-family:Arial;" text-anchor="middle" x="100.0" y="100.0">2022</text><line stroke="#e1ed5e" stroke-width="0.3" x1="100.0" x2="100.0" y1="15.0" y2="10.0" /><path d="M 100.0 14.0 a86.0,86.0 0 0,1 42.46469731375804,11.215312516191453" fill="none" id="id85" stroke="none" /><text fill="#e1ed5e" style="font-size:6.75px; font-family:Arial;" text-anchor="middle"><textPath startOffset="22.20632615414155" xlink:href="#id85">January</textPath></text><path d="M 100.72285384407766 79.0124445844662 l 0.5101151906553649 -14.810837515633164 a35.81961961125265,35.81961961125265 0 0,0 0.6160278096633706,0.026527453333024646 l -0.764983832708067 14.799862335775943" fill="#ff950d" stroke="none" /><path d="M 101.80526077348638 79.07773832637324 l 1.216389199936111 -14.097471961841686 a35.14985223953359,35.14985223953359 0 0,0 0.602359457499945,0.05720128860276209 l -1.4588737845263002 14.074445128723745" fill="#ff8c0c" stroke="none" /><path d="M 103.2404852339499 79.25152402106235 l 2.273414921232639 -14.556429509125497 a35.73289026152787,35.73289026152787 0 0,0 0.6068989684062668,0.10014352989805751 l -2.5236430957777807 14.515139716287814" fill="#ff940d" stroke="none" /><path d="M 103.95276090670814 79.375362276772 l 2.581864778913332 -13.471603006668179 a34.716782177532174,34.716782177532174 0 0,0 0.5859425599490685,0.11753456526437231 l -2.813373748329526 13.425164485326597" fill="#ff860c" stroke="none" /><path d="M 104.66035177308747 79.52364482259891 l 3.519295415894208 -15.462854827009789 a36.85828867266307,36.85828867266307 0 0,0 0.6174225187685903,0.1461239620710056 l -3.784941621625322 15.399984952797915" fill="#ffa40f" stroke="none" /><path d="M 105.71112130821622 79.79150937346287 l 5.112112894436154 -18.088932091214733 a39.797424356704795,39.797424356704795 0 0,0 0.6576235981518338,0.1919783615269375 l -5.422726710311416 17.998255400769093" fill="#ffcc13" stroke="none" /><path d="M 106.40334571778207 80.00007090966166 l 5.347896918028557 -16.703386613343287 a38.538618126884316,38.538618126884316 0 0,0 0.6300461719047207,0.20771631704654886 l -5.634625912175695 16.608856572037503" fill="#ffbb11" stroke="none" /><path d="M 107.4271985657038 80.35727306442388 l 21.838745867225 -57.75697497387328 a82.74786619135807,82.74786619135807 0 0,0 1.3279725698496454,0.5152327258099437 l -22.829701602074312 57.37249954417279" fill="#4bdeff" stroke="none" /><path d="M 108.76106565485865 80.91482961587045 l 5.845531758043751 -12.733949725195307 a35.011556556574995,35.011556556574995 0 0,0 0.5455497219822742,0.25614290949380564 l -6.063859691325622 12.6314418330615" fill="#ff8a0c" stroke="none" /><path d="M 110.05341064243156 81.56283822128135 l 4.472774148374053 -8.202714830446594 a30.34292455133786,30.34292455133786 0 0,0 0.45640947299392176,0.2539913775770658 l -4.61330771044001 8.124508055309349" fill="#ff4606" stroke="none" /><line stroke="#e1ed5e" stroke-width="0.3" x1="143.23703022742887" x2="145.7803849466894" y1="26.81831364943548" y2="22.513508569990506" /><path d="M 143.74570117128098 25.957352633546492 a86.0,86.0 0 0,1 28.547481713284135,27.462654790039103" fill="none" id="id86" stroke="none" /><text fill="#e1ed5e" style="font-size:6.75px; font-family:Arial;" text-anchor="middle"><textPath startOffset="19.985693538727396" xlink:href="#id86">February</textPath></text><path d="M 111.60114157652 82.49532879139004 l 7.739930620957269 -11.678586956608 a35.01056456108341,35.01056456108341 0 0,0 0.4994762280322515,0.33724857878121495 l -7.939811543396062 11.543626465528114" fill="#ff8a0c" stroke="none" /><path d="M 111.90073688211348 82.69761687909136 l 4.770237331053439 -6.93540868075133 a29.417544639835107,29.417544639835107 0 0,0 0.41474375798871704,0.29055450699858776 l -4.888912228625807 6.852269330988807" fill="#ff3805" stroke="none" /><path d="M 112.77801427241765 83.33499621200491 l 6.7630710154189435 -8.820353592320101 a32.11475447561276,32.11475447561276 0 0,0 0.43579331069512467,0.3401435914364983 l -6.913896881273499 8.70263161166038" fill="#ff6008" stroke="none" /><path d="M 113.34407831869373 83.78471172551755 l 9.377800604830956 -11.395597099795468 a35.75814275052368,35.75814275052368 0 0,0 0.4719095121736959,0.395210645054435 l -9.572567653963768 11.232485297347212" fill="#ff940d" stroke="none" /><path d="M 114.16331599549186 84.49514656593476 l 8.332267357518443 -9.12149274879488 a33.35428303397186,33.35428303397186 0 0,0 0.4205691042414784,0.39087314711566196 l -8.488044345554767 8.976715015604578" fill="#ff720a" stroke="none" /><path d="M 114.68862486808459 84.99185889309783 l 10.014245794783488 -10.232081989776555 a35.31714429220606,35.31714429220606 0 0,0 0.4308089527613418,0.4289589222075502 l -10.188890547712154 10.058187216918887" fill="#ff8e0d" stroke="none" /><path d="M 115.4437574822437 85.77008943001954 l 10.194227682360866 -9.39298279041218 a34.86183262562321,34.86183262562321 0 0,0 0.40283073268508757,0.44481575631958276 l -10.35440205566199 9.216114246823048" fill="#ff880c" stroke="none" /><path d="M 116.15771136456269 86.58626213691792 l 10.770423218792741 -8.941342648823122 a34.9982007656546,34.9982007656546 0 0,0 0.3808162690268885,0.46683571760446374 l -10.922737979896038 8.754622761610557" fill="#ff8a0c" stroke="none" /><path d="M 116.82858285166822 87.43820079747576 l 11.360024129883689 -8.47975990095227 a35.17591182990843,35.17591182990843 0 0,0 0.35801940461788817,0.4883380655485 l -11.504306147015203 8.282959391732277" fill="#ff8c0c" stroke="none" /><path d="M 117.45458315368197 88.32363383020206 l 25.404135960467613 -16.994275434138853 a51.56428506327768,51.56428506327768 0 0,0 0.4871679834246375,0.7419902614299217 l -25.69290057925018 16.554467108731256" fill="#9dff22" stroke="none" /><line stroke="#e1ed5e" stroke-width="0.3" x1="172.23445277983987" x2="176.4835382374775" y1="55.19839476539836" y2="52.563006222186495" /><path d="M 173.08426987136738 54.67131705675599 a86.0,86.0 0 0,1 12.851231095245387,41.99856678651699" fill="none" id="id87" stroke="none" /><text fill="#e1ed5e" style="font-size:6.75px; font-family:Arial;" text-anchor="middle"><textPath startOffset="22.20632615414155" xlink:href="#id87">March</textPath></text><path d="M 117.84615892207809 88.93136811851018 l 23.080666711513146 -14.315203878020096 a48.159569914069564,48.159569914069564 0 0,0 0.43087725467541654,0.7082489151405404 l -23.323659764474787 13.915787189672475" fill="#c6ff1e" stroke="none" /><path d="M 118.3937258080291 89.86733742301442 l 12.055619579390514 -6.641151805206453 a34.76382435018628,34.76382435018628 0 0,0 0.28422224195804285,0.5266206484706851 l -12.168149920567021 6.43265017340331" fill="#ff860c" stroke="none" /><path d="M 118.89224826269711 90.83032412892265 l 12.63317218087847 -6.131726225030502 a35.0426174857271,35.0426174857271 0 0,0 0.2587176527380755,0.5449253578938859 l -12.7368480274583 5.913358451496076" fill="#ff8a0c" stroke="none" /><path d="M 119.34039704204932 91.81776055985345 l 31.251047053710785 -13.221215117394165 a54.9327050370827,54.9327050370827 0 0,0 0.36092961789498845,0.8740196984132027 l -31.473998358491972 12.681320848527658" fill="#77ff27" stroke="none" /><path d="M 119.61058180528143 92.48833698450437 l 58.83174541584429 -22.534989046486903 a84.0,84.0 0 0,0 0.505581645993499,1.354707451882667 l -59.21093165033941 21.518958457574904" fill="#4dd2ff" stroke="none" /><path d="M 119.97218684219823 93.5106431181261 l 37.7579029940782 -12.268286371227434 a60.701008664726196,60.701008664726196 0 0,0 0.3143286581917893,0.9965077445196593 l -37.9634871360382 11.616528460281357" fill="#38ff2e" stroke="none" /><path d="M 120.18372546131832 94.20196356495316 l 35.43971279802103 -10.180516299843724 a57.872973237014655,57.872973237014655 0 0,0 0.26680330647627754,0.9598334483804626 l -35.60970287506367 9.56897154804431" fill="#56ff2a" stroke="none" /><path d="M 120.45610955862082 95.25157060432595 l 22.04577663756368 -5.117435137716846 a43.63193341148934,43.63193341148934 0 0,0 0.16352752692559744,0.7330618386817028 l -22.130598551491314 4.73719512948518" fill="#ffff18" stroke="none" /><path d="M 120.73433829027371 96.67025291283417 l 38.40267772551094 -6.167122504983502 a59.89471759096508,59.89471759096508 0 0,0 0.15471121159177853,1.01935358238269 l -38.50314483054202 5.505169810208731" fill="#41ff2d" stroke="none" /><path d="M 120.94382443527127 98.46500227214037 l 13.900729237679643 -1.0188009291892184 a34.93801379941197,34.93801379941197 0 0,0 0.03879684920389821,0.6001700852923925 l -13.916206677887956 0.7793717796437908" fill="#ff890c" stroke="none" /><line stroke="#e1ed5e" stroke-width="0.3" x1="184.98032266829074" x2="189.97916517819016" y1="98.17113171792111" y2="98.06355123074" /><path d="M 185.9800911702706 98.14961562048488 a86.0,86.0 0 0,1 -9.607161424134198,41.387399972396054" fill="none" id="id88" stroke="none" /><text fill="#e1ed5e" style="font-size:6.75px; font-family:Arial;" text-anchor="middle"><textPath startOffset="21.466115282336823" xlink:href="#id88">April</textPath></text><path d="M 120.99980553446 99.90962569577887 l 29.602797085552062 -0.12739795067225418 a50.60307121780112,50.60307121780112 0 0,0 -0.003748730240619298,0.8710728866199539 l -29.60060405802194 -0.38218441415138443" fill="#a9ff21" stroke="none" /><path d="M 120.8583938346157 102.4346265915055 l 13.696187253950018 1.5986418683574486 a34.78916970373954,34.78916970373954 0 0,0 -0.074545720534455,0.5942027388482963 l -13.666640024168716 -1.8341623614931397" fill="#ff870c" stroke="none" /><path d="M 120.76222939487914 103.15116336523771 l 13.72278441040739 2.082759740329059 a34.87993876465079,34.87993876465079 0 0,0 -0.09520270942740341,0.5928273624825239 l -13.684899946618698 -2.318666332504788" fill="#ff880c" stroke="none" /><path d="M 119.9155931802556 106.66101706037122 l 13.251756988118897 4.432214425090033 a34.973316999987304,34.973316999987304 0 0,0 -0.19586584531083273,0.5692778292431752 l -13.173500311864835 -4.659664957422508" fill="#ff890c" stroke="none" /><path d="M 119.54520255179757 107.68017299344265 l 17.661613871157194 6.940027841328171 a39.976211185910174,39.976211185910174 0 0,0 -0.2571753153862309,0.6382880419945176 l -17.53953594151357 -7.243015251165503" fill="#ffce13" stroke="none" /><path d="M 119.12269723197855 108.67885076344098 l 31.01809790481712 14.077587456205107 a55.0631893136847,55.0631893136847 0 0,0 -0.39914357577602655,0.859719752742093 l -30.771179712201263 -14.60942727622603" fill="#75ff27" stroke="none" /><line stroke="#e1ed5e" stroke-width="0.3" x1="174.80103733775053" x2="179.2010983576182" y1="140.37084112569926" y2="142.7455964860345" /><path d="M 175.68104954172406 140.8457921977663 a86.0,86.0 0 0,1 -30.038265399797805,32.042727171017184" fill="none" id="id89" stroke="none" /><text fill="#e1ed5e" style="font-size:6.75px; font-family:Arial;" text-anchor="middle"><textPath startOffset="22.206326154141568" xlink:href="#id89">May</textPath></text><path d="M 118.48025628344425 109.97397251340804 l 37.701603850124066 20.34791913840565 a63.84213750660423,63.84213750660423 0 0,0 -0.5302654691520172,0.9625858525281974 l -37.345761971520545 -20.99387550933165" fill="#32ff4c" stroke="none" /><path d="M 117.75023020441432 111.22182372390056 l 30.55553042532932 19.317427000921494 a57.14973617482092,57.14973617482092 0 0,0 -0.5328400191578377,0.8269795425578879 l -30.21848554279443 -19.840528143400835" fill="#5eff2a" stroke="none" /><path d="M 117.14729908036423 112.12312394758627 l 11.311160794178496 7.99697979584033 a34.852582588342116,34.852582588342116 0 0,0 -0.35055093955028915,0.48688459498374326 l -11.171830062252605 -8.190497996275205" fill="#ff880c" stroke="none" /><path d="M 116.71984013943494 112.70617746262583 l 20.960263366637452 15.92867059606177 a47.32594133847158,47.32594133847158 0 0,0 -0.4984845520384531,0.6443584799035394 l -20.682971997380932 -16.287107070078562" fill="#d1ff1d" stroke="none" /><path d="M 116.0416608686014 113.55231037782055 l 25.938362952428314 21.913238803839533 a54.95568741059448,54.95568741059448 0 0,0 -0.6167009228568306,0.7173624976459264 l -25.557319520000704 -22.35647840064699" fill="#76ff27" stroke="none" /><path d="M 114.55890576462653 115.13401014063108 l 10.449980427760405 10.862774463955683 a36.07321996108805,36.07321996108805 0 0,0 -0.4511972486626693,0.42663516092285286 l -10.261447344706928 -11.041044261624458" fill="#ff990e" stroke="none" /><path d="M 113.75828350139079 115.86535959552629 l 9.353487995868386 10.785971266829137 a35.27672630044149,35.27672630044149 0 0,0 -0.462183108504472,0.3938824719159156 l -9.166439410786866 -10.945378128967999" fill="#ff8e0d" stroke="none" /><path d="M 113.20401910651253 116.32954008644616 l 17.19164789421835 21.261079764890894 a48.34202388426715,48.34202388426715 0 0,0 -0.6515641736819368,0.5176419857107557 l -16.823126227819063 -21.553855664606775" fill="#c4ff1e" stroke="none" /><path d="M 111.7513745106137 117.40417183066458 l 7.759070011770616 11.491437670465332 a34.86565206478757,34.86565206478757 0 0,0 -0.5002811005737955,0.331559033965697 l -7.560114212456856 -11.623294725522348" fill="#ff880c" stroke="none" /><line stroke="#e1ed5e" stroke-width="0.3" x1="143.8653032363475" x2="146.44561519142675" y1="172.8068346515853" y2="177.08958963109032" /><path d="M 144.38136562736335 173.6633856474863 a86.0,86.0 0 0,1 -40.68145358897372,12.25698825130547" fill="none" id="id90" stroke="none" /><text fill="#e1ed5e" style="font-size:6.75px; font-family:Arial;" text-anchor="middle"><textPath startOffset="21.466115282336833" xlink:href="#id90">June</textPath></text><path d="M 110.21172684928248 118.3499491758327 l 6.681323611144374 12.005995704869903 a34.73986965229983,34.73986965229983 0 0,0 -0.5250305783950755,0.2862885333322637 l -6.47367022088065 -12.119224889961938" fill="#ff860c" stroke="none" /><path d="M 109.57404056367764 118.69057910512821 l 6.387791972972593 12.470338973797485 a35.01118269138568,35.01118269138568 0 0,0 -0.5387488987679169,0.27013988208590917 l -6.172189166521916 -12.578446696792696" fill="#ff8a0c" stroke="none" /><path d="M 108.59647513512805 119.15986991738527 l 5.078310933114821 11.318566662388895 a33.40561136036168,33.40561136036168 0 0,0 -0.5266622510397058,0.23087325367894937 l -4.882728007417361 -11.404304469362298" fill="#ff730a" stroke="none" /><path d="M 106.91757812671514 119.82793768551818 l 5.056641932625652 14.493913809353707 a36.35067311709041,36.35067311709041 0 0,0 -0.5925683636231012,0.20103136190769408 l -4.806403836065324 -14.578808158159523" fill="#ff9d0e" stroke="none" /><path d="M 105.18746579009965 120.34920634021253 l 3.44968442950735 13.532299412680048 a34.96507966527962,34.96507966527962 0 0,0 -0.5844941126280168,0.14365443221285829 l -3.216237032136122 -13.589675103206938" fill="#ff890c" stroke="none" /><path d="M 104.48393922423573 120.51570834832081 l 2.918031349860921 13.351090889330111 a34.66625533545765,34.66625533545765 0 0,0 -0.5840579589502046,0.12239502398718173 l -2.6877819294813388 -13.399341894043834" fill="#ff850c" stroke="none" /><path d="M 103.06178313531738 120.77559828337769 l 1.9972474585753899 13.552237058604792 a34.69861769316185,34.69861769316185 0 0,0 -0.5916468057742874,0.08199685618234405 l -1.763672061614272 -13.584608480279737" fill="#ff850c" stroke="none" /><path d="M 101.62511606390274 120.93702456842531 l 1.0619271790276128 13.681235408987044 a34.722386514366896,34.722386514366896 0 0,0 -0.5962945529384847,0.041123963569415216 l -0.8262698653101977 -13.697487717072745" fill="#ff860c" stroke="none" /><line stroke="#e1ed5e" stroke-width="0.3" x1="102.19456741930631" x2="102.32365962044197" y1="184.97166512339345" y2="189.96999836594603" /><path d="M 102.22038585953345 185.97133177190398 a86.0,86.0 0 0,1 -42.740103519485714,-10.115201625700543" fill="none" id="id91" stroke="none" /><text fill="#e1ed5e" style="font-size:6.75px; font-family:Arial;" text-anchor="middle"><textPath startOffset="22.20632615414155" xlink:href="#id91">July</textPath></text><path d="M 100.18074693466247 120.99922214144158 l 0.11921558778535794 13.850495530130678 a34.85100858372923,34.85100858372923 0 0,0 -0.5999250448956173,0.0 l 0.11921558778534841 -13.850495530130678" fill="#ff870c" stroke="none" /><path d="M 98.01472825383883 120.90594882070398 l -1.0608003314115915 11.170781773507436 a32.22103661764139,32.22103661764139 0 0,0 -0.551696879584829,-0.05718563732140731 l 1.252929807602014 -11.150866767730268" fill="#ff6209" stroke="none" /><path d="M 97.2962882734958 120.8252237178851 l -1.7546237189919267 13.51491400895758 a34.6283383090077,34.6283383090077 0 0,0 -0.5904484706269246,-0.08183077785017058 l 1.9870007808056824 -13.482708665614805" fill="#ff840c" stroke="none" /><path d="M 96.58105272829116 120.7198165907248 l -1.1228112899552027 6.8045635527566875 a27.896578161404072,27.896578161404072 0 0,0 -0.47311404783782907,-0.08225694162638077 l 1.239774309265082 -6.784228032609301" fill="#ff2103" stroke="none" /><path d="M 95.86986931433489 120.58985236759428 l -2.91721942720972 14.543151755125008 a35.83284976527051,35.83284976527051 0 0,0 -0.6037127718224143,-0.12651388112472242 l 3.1671236604615207 -14.490781893273745" fill="#ff950d" stroke="none" /><path d="M 95.16358092515715 120.4354850818985 l -1.390290345819541 5.8744408170265725 a27.03671782994922,27.03671782994922 0 0,0 -0.4519595707394451,-0.11108066636603094 l 1.4912032013021965 -5.849638892346512" fill="#ff1402" stroke="none" /><path d="M 94.46302465271185 120.25689768951611 l -2.4839910223138673 9.087624351683779 a30.42099398982145,30.42099398982145 0 0,0 -0.5039293163969404,-0.14241545842766362 l 2.6400515068154218 -9.043520099917593" fill="#ff4706" stroke="none" /><path d="M 93.08242187328487 119.8279376855182 l -4.591616502812676 13.161005806637553 a34.93897470947017,34.93897470947017 0 0,0 -0.5661452221564467,-0.2029995341831039 l 4.817481285598849 -13.080018731414492" fill="#ff890c" stroke="none" /><path d="M 92.06813273071674 119.44442032107085 l -4.992071026039205 12.237714526420334 a34.216748085636624,34.216748085636624 0 0,0 -0.5434410499878755,-0.2271584029693069 l 5.201983535524542 -12.149971080431053" fill="#ff7e0b" stroke="none" /><path d="M 91.40352486487194 119.15986991738527 l -3.8189411175434493 8.511676458562397 a30.329145051638402,30.329145051638402 0 0,0 -0.47448070526073416,-0.21781081997620946 l 3.964889818571603 -8.444678568252112" fill="#ff4606" stroke="none" /><path d="M 90.7491055286396 118.85261126421891 l -7.075243339943257 14.418801630550744 a37.06116150160331,37.06116150160331 0 0,0 -0.5702937864752965,-0.285957143643516 l 7.322391034101314 -14.294876645997928" fill="#ffa70f" stroke="none" /><line stroke="#e1ed5e" stroke-width="0.3" x1="58.666819895761336" x2="56.23545636021788" y1="174.27360380694188" y2="178.64263932499728" /><path d="M 58.180547188652646 175.14741091055294 a86.0,86.0 0 0,1 -31.652253787137756,-30.449443065178592" fill="none" id="id92" stroke="none" /><text fill="#e1ed5e" style="font-size:6.75px; font-family:Arial;" text-anchor="middle"><textPath startOffset="22.20632615414155" xlink:href="#id92">August</textPath></text><path d="M 89.7882731507175 118.34994917583269 l -3.2455955085795853 5.832168594671221 a27.674434861617968,27.674434861617968 0 0,0 -0.41426155826230177,-0.23522852434387848 l 3.3455058337630943 -5.775436904532709" fill="#ff1e03" stroke="none" /><path d="M 89.1626897886671 117.98757091392108 l -7.096321396538861 11.778345535844803 a34.750898186108806,34.750898186108806 0 0,0 -0.509714260112196,-0.3131081297564086 l 7.298014856583365 -11.654448939260016" fill="#ff860c" stroke="none" /><path d="M 88.24862548938628 117.40417183066458 l -6.196165721370712 9.176725055321018 a32.07270302986791,32.07270302986791 0 0,0 -0.4548873232847964,-0.31287564883934615 l 6.353209929278399 -9.068708617116572" fill="#ff5f08" stroke="none" /><path d="M 87.07902340077011 116.55440617244103 l -8.47730675872825 10.861158849303342 a34.7778627308948,34.7778627308948 0 0,0 -0.46874349834685775,-0.3723981843601501 l 8.663007749792467 -10.713626750938062" fill="#ff860c" stroke="none" /><path d="M 85.97065885151581 115.62618273729859 l -9.13582429370093 10.175678127596669 a34.67507626603323,34.67507626603323 0 0,0 -0.44070445131787833,-0.40257306727719255 l 9.309628294485664 -10.0169122937329" fill="#ff850c" stroke="none" /><path d="M 84.9287848128048 114.62390073753433 l -9.657745917772544 9.371103517241808 a34.456954980348044,34.456954980348044 0 0,0 -0.40937069176319235,-0.42922353367124894 l 9.817623160914694 -9.20347286698806" fill="#ff820c" stroke="none" /><path d="M 83.72743513129214 113.27417163493432 l -10.58875005285916 8.637660180501927 a34.66494789875737,34.66494789875737 0 0,0 -0.37319637140288225,-0.4656198548904404 l 10.735864336316903 -8.454112492033227" fill="#ff850c" stroke="none" /><path d="M 83.06392112726016 112.41649034213515 l -11.81512711643934 8.662123791150917 a35.650242910984204,35.650242910984204 0 0,0 -0.35857389092943387,-0.49802777274221693 l 11.962480799744382 -8.457462412957561" fill="#ff930d" stroke="none" /><path d="M 82.6465618267979 111.8261652097733 l -11.354070462885502 7.737666262864516 a34.73995615974231,34.73995615974231 0 0,0 -0.33250587172740825,-0.4970511632433655 l 11.48557944002364 -7.54107818541533" fill="#ff860c" stroke="none" /><path d="M 82.05923443525364 110.91462005526583 l -6.638692317623287 4.038779953351154 a28.770712914505438,28.770712914505438 0 0,0 -0.2537564881696318,-0.4253104702182328 l 6.7072296814911505 -3.92390738924681" fill="#ff2e04" stroke="none" /><line stroke="#e1ed5e" stroke-width="0.3" x1="26.63291911575756" x2="22.317208475507996" y1="142.92168965132927" y2="145.44649492493687" /><path d="M 25.769776987707644 143.4266507060508 a86.0,86.0 0 0,1 -11.730757126820373,-40.83630448921669" fill="none" id="id93" stroke="none" /><text fill="#e1ed5e" style="font-size:6.75px; font-family:Arial;" text-anchor="middle"><textPath startOffset="21.46611528233685" xlink:href="#id93">September</textPath></text><path d="M 81.35079622478065 109.6543875284942 l -12.952138611228566 6.705110147476118 a35.58480019384102,35.58480019384102 0 0,0 -0.27691978014606733,-0.5463889976145484 l 13.0656370611609 -6.481166938158884" fill="#ff920d" stroke="none" /><path d="M 80.87730276802145 108.67885076344099 l -12.435234930510633 5.6437408834644796 a34.65601987903797,34.65601987903797 0 0,0 -0.24186422290490503,-0.5453399723604904 l 12.53054023814682 -5.428852574611293" fill="#ff850c" stroke="none" /><path d="M 80.45479744820244 107.68017299344265 l -12.307434589935998 4.836134417419743 a34.22350718564878,34.22350718564878 0 0,0 -0.21072834530843015,-0.5501452136281479 l 12.388857214837937 -4.623565636958437" fill="#ff7f0b" stroke="none" /><path d="M 79.97269907076064 106.31721596034903 l -9.296364336358259 2.9323542581377877 a30.747876249190515,30.747876249190515 0 0,0 -0.15487152902185616,-0.5061291176501271 l 9.345462637886246 -2.7718981679356127" fill="#ff4c07" stroke="none" /><path d="M 79.76711848015287 105.62410040840567 l -6.655914817860649 1.8501335664286678 a27.908270136310755,27.908270136310755 0 0,0 -0.12467278606955752,-0.4639538163796392 l 6.686775680271981 -1.7352888168734897" fill="#ff2103" stroke="none" /><path d="M 79.50377843672027 104.57218783832718 l -10.536694672161227 2.350469674983032 a31.795677019407613,31.795677019407613 0 0,0 -0.11456430790860407,-0.535206306127031 l 10.575593018794272 -2.168749549439837" fill="#ff5b08" stroke="none" /><path d="M 79.35854240842038 103.8639653848113 l -12.947238789511427 2.423650669513102 a34.17213250922039,34.17213250922039 0 0,0 -0.10325444669365237,-0.5791057717853102 l 12.987039678544269 -2.200426146994578" fill="#ff7e0b" stroke="none" /><path d="M 79.18660465613746 102.79330883721812 l -9.165377063587236 1.2300601764000012 a30.24755020290759,30.24755020290759 0 0,0 -0.06481400514814449,-0.5166313920992021 l 9.18519257798223 -1.0721110300133905" fill="#ff4406" stroke="none" /><path d="M 79.04373962182676 101.35467743843564 l -14.34454645135108 0.9272758159884661 a35.37448619373527,35.37448619373527 0 0,0 -0.03404987864066769,-0.6079834565438396 l 14.35838268087928 -0.680220643109189" fill="#ff8f0d" stroke="none" /><line stroke="#e1ed5e" stroke-width="0.3" x1="15.007084014347285" x2="10.007500721073583" y1="101.09737516637583" y2="101.16192664675087" /><path d="M 14.007167355692545 101.11028546245083 a86.0,86.0 0 0,1 10.666146001902534,-42.60595125391555" fill="none" id="id94" stroke="none" /><text fill="#e1ed5e" style="font-size:6.75px; font-family:Arial;" text-anchor="middle"><textPath startOffset="22.20632615414155" xlink:href="#id94">October</textPath></text><path d="M 79.00175016825051 100.2711162175752 l -4.751756995726262 0.06135170282477233 a25.752153046554053,25.752153046554053 0 0,0 -0.0019077473474122559,-0.44329329724655403 l 4.752109040363177 0.020451072625457114" fill="#ff0000" stroke="none" /><path d="M 79.00019446554 99.90962569577889 l -9.512314733824756 -0.04093698983026459 a30.512402821184345,30.512402821184345 0 0,0 0.006781007942279203,-0.5251965380624526 l 9.51020071876476 0.2046697859531892" fill="#ff4806" stroke="none" /><path d="M 79.08570108090925 98.10471618934814 l -17.598001089267505 -1.5947561375761583 a38.67011288804339,38.67011288804339 0 0,0 0.06578131345493349,-0.6624088493452942 l 17.567942650130345 1.8974405176258828" fill="#ffbd11" stroke="none" /><path d="M 79.21141760316559 97.0276538004421 l -13.031637266597107 -1.863260166757949 a34.164167588464885,34.164167588464885 0 0,0 0.08824784510601079,-0.5814430390715557 l 12.997633528051793 2.087302318221597" fill="#ff7e0b" stroke="none" /><path d="M 79.3925641242962 95.95851677861259 l -10.29621812208271 -2.019270763967431 a31.49235731548054,31.49235731548054 0 0,0 0.1089046267403223,-0.5310576366767723 l 10.259934199427393 2.196204056807606" fill="#ff5708" stroke="none" /><path d="M 79.62865764111835 94.90015583598534 l -13.383569708871969 -3.3504969221488756 a34.796585366588516,34.796585366588516 0 0,0 0.15045988522258205,-0.5797833142125438 l 13.323913491779079 3.5803766619102833" fill="#ff870c" stroke="none" /><path d="M 79.91906864156998 93.8553929516997 l -12.833662648086436 -3.92699982662087 a34.421036644133316,34.421036644133316 0 0,0 0.17824280847920027,-0.5650784121188214 l 12.764164355839032 4.147328405166106" fill="#ff810b" stroke="none" /><path d="M 80.52162464483688 92.15188598940014 l -8.653748316364705 -3.4867180741469985 a30.329767566856546,30.329767566856546 0 0,0 0.19927857933373888,-0.4825688864917701 l 8.592448050144766 3.6351615310920797" fill="#ff4606" stroke="none" /><path d="M 81.10775173730289 90.83032412892265 l -13.129671920564371 -6.3727108669687205 a35.594510219107654,35.594510219107654 0 0,0 0.27228103145367,-0.5489019445968448 l 13.018030876157288 6.597772400064526" fill="#ff920d" stroke="none" /><path d="M 81.6062741919709 89.86733742301443 l -7.210990948608541 -3.9723620374972053 a29.232742593927206,29.232742593927206 0 0,0 0.2465884273609283,-0.43865329719896484 l 7.141544879955182 4.0958988446309545" fill="#ff3505" stroke="none" /><line stroke="#e1ed5e" stroke-width="0.3" x1="26.266209847984243" x2="21.928928074336255" y1="57.711370442889674" y2="55.22380399835377" /><path d="M 25.398753493254645 57.213857153982495 a86.0,86.0 0 0,1 29.58750427330803,-30.492523968695096" fill="none" id="id95" stroke="none" /><text fill="#e1ed5e" style="font-size:6.75px; font-family:Arial;" text-anchor="middle"><textPath startOffset="21.46611528233685" xlink:href="#id95">November</textPath></text><path d="M 82.15384107792192 88.93136811851018 l -11.808762912902639 -7.3240886304675294 a34.89565240642153,34.89565240642153 0 0,0 0.32099414551970495,-0.5077356513013902 l 11.68094117113697 7.526271929483134" fill="#ff880c" stroke="none" /><path d="M 82.54541684631803 88.32363383020206 l -11.629712701348787 -7.77977811070518 a34.99196787330934,34.99196787330934 0 0,0 0.3392146931957724,-0.4977557053701463 l 11.494073542484273 7.978811839345743" fill="#ff890c" stroke="none" /><path d="M 83.39014120810768 87.1503855733568 l -10.452923406978595 -8.086524822021458 a34.215728941277895,34.215728941277895 0 0,0 0.36439086462950326,-0.4627393936077979 l 10.31217846175512 8.265256609582304" fill="#ff7e0b" stroke="none" /><path d="M 84.31358615837235 86.03803664274999 l -9.847239431121373 -8.76470540019351 a34.18287469279796,34.18287469279796 0 0,0 0.3949853298205849,-0.4361526665261545 l 9.694910460684744 8.93291085398922" fill="#ff7e0b" stroke="none" /><path d="M 85.05521093208273 85.24692304244772 l -9.936716166647198 -9.809247734824673 a34.96279589837475,34.96279589837475 0 0,0 0.4264865064390815,-0.4246550378434667 l 9.766393860040804 9.97883862331825" fill="#ff890c" stroke="none" /><path d="M 85.57189188830299 84.74124197986013 l -9.593498913925734 -10.145812421199675 a34.963263626303984,34.963263626303984 0 0,0 0.44085697928796974,-0.40972851591888093 l 9.417434050842909 10.309445523193205" fill="#ff890c" stroke="none" /><path d="M 86.37877921826538 84.01681056812374 l -9.070691437655267 -10.643581940948437 a34.98439414815087,34.98439414815087 0 0,0 0.46169815058151514,-0.3866589233840238 l 8.886135750114642 10.798142021726273" fill="#ff890c" stroke="none" /><path d="M 87.22198572758235 83.33499621200491 l -8.34791115265988 -10.887291876111018 a34.7193565814267,34.7193565814267 0 0,0 0.47739751199623415,-0.35956590854719245 l 8.159267486905255 11.029374374164064" fill="#ff860c" stroke="none" /><path d="M 87.80319425747018 82.90503203632743 l -7.9740849633214514 -11.176428473584014 a34.72947866553602,34.72947866553602 0 0,0 0.4896341510170873,-0.34302001324468834 l 7.780519672720704 11.312033329592644" fill="#ff860c" stroke="none" /><path d="M 88.39885842347998 82.49532879139004 l -4.361828766285224 -6.58145389559007 a28.895637122244853,28.895637122244853 0 0,0 0.41696813614342,-0.27120767447095895 l 4.247893604357516 6.655560494220564" fill="#ff3004" stroke="none" /><line stroke="#e1ed5e" stroke-width="0.3" x1="56.762969772571076" x2="54.21961505331055" y1="26.818313649435495" y2="22.513508569990535" /><path d="M 56.25429882871897 25.957352633546506 a86.0,86.0 0 0,1 42.265352541879196,-11.944610805530505" fill="none" id="id96" stroke="none" /><text fill="#e1ed5e" style="font-size:6.75px; font-family:Arial;" text-anchor="middle"><textPath startOffset="22.20632615414155" xlink:href="#id96">December</textPath></text><path d="M 89.3179101791058 81.91981866633112 l -6.704027670325724 -11.347033958498976 a34.179497966911406,34.179497966911406 0 0,0 0.5091170784164207,-0.29491347305236576 l 6.5077138594439825 11.460751588941388" fill="#ff7e0b" stroke="none" /><path d="M 90.26544431104013 81.39251694778311 l -7.598924618020585 -14.525250618808657 a37.392881409000694,37.392881409000694 0 0,0 0.5728936872468126,-0.29345839791935124 l 7.347770443185008 14.653901542040515" fill="#ffab0f" stroke="none" /><path d="M 90.91171255644093 81.06846463323043 l -6.001646328613139 -12.501847067954031 a34.867802232663486,34.867802232663486 0 0,0 0.5433097435535073,-0.2550912095866684 l 5.785558373760024 12.603303260180708" fill="#ff880c" stroke="none" /><path d="M 91.90106846888425 80.62456947434976 l -5.294544673751924 -12.666372359996888 a34.728408213061265,34.728408213061265 0 0,0 0.5535313529729035,-0.2257993372222082 l 5.0757294511906395 12.755632583402674" fill="#ff860c" stroke="none" /><path d="M 95.33964822691252 79.52364482259891 l -2.036248621168694 -8.946738792835912 a30.17553505112625,30.17553505112625 0 0,0 0.5074623693269377,-0.11091161874675962 l 1.8819435276882353 8.980463909678539" fill="#ff4306" stroke="none" /><path d="M 96.04723909329186 79.375362276772 l -2.5303120937030315 -13.20261242484022 a34.442896047060884,34.442896047060884 0 0,0 0.58324104179432,-0.1065835724049944 l 2.302675930805818 13.24421147859595" fill="#ff820b" stroke="none" /><path d="M 97.47563105711357 79.15227682838746 l -1.6900674290844384 -13.957570664224612 a35.05952014692093,35.05952014692093 0 0,0 0.5997403331307554,-0.06738781440518124 l 1.449560392443965 13.984594432100392" fill="#ff8a0c" stroke="none" /><path d="M 99.27714615592234 79.0124445844662 l -0.466871455280665 -13.555285926626599 a34.563323542124806,34.563323542124806 0 0,0 0.5947745012983664,-0.015361270612834533 l 0.2334703187874196 13.561313989381793" fill="#ff830c" stroke="none" /></svg>