<?xml version="1.0" encoding="utf-8" ?>
<svg baseProfile="full" height="200mm" version="1.1" viewBox="0,0,200,200" width="200mm" xmlns="http://www.w3.org/2000/svg" xmlns:ev="http://www.w3.org/2001/xml-events" xmlns:xlink="http://www.w3.org/1999/xlink"><defs /><rect fill="#1a1a1a" height="200" width="200" x="0" y="0" /><text alignment-baseline="middle" fill="#e1ed5e" style="dominant-baseline: central; font-size:9.0px; font-family:Arial;" text-anchor="middle" x="100.0" y="100.0">2024</text><line stroke="#e1ed5e" stroke-width="0.3" x1="100.0" x2="100.0" y1="15.0" y2="10.0" /><path d="M 100.0 14.0 a86.0,86.0 0 0,1 42.35913384403234,11.155469271406648" fill="none" id="id109" stroke="none" /><text fill="#e1ed5e" style="font-size:6.75px; font-family:Arial;" text-anchor="middle"><textPath startOffset="22.145653131862478" xlink:href="#id109">January</textPath></text><path d="M 100.0 79.0 l 0.0 -29.347296605774126 a50.347296605774126,50.347296605774126 0 0,0 0.8642782957927778,0.0074187897005517315 l -0.503785370943923 29.34297221426801" fill="#c7ff1e" stroke="none" /><path d="M 101.80034050326958 79.07731436759882 l 5.042737895415634 -58.60425820602619 a79.82081506882108,79.82081506882108 0 0,0 1.3641773990078105,0.12918901801593372 l -6.048014857808457 58.509057432505074" fill="#47feff" stroke="none" /><path d="M 102.51750503828377 79.15144685158666 l 3.4258054979055066 -28.370583936507227 a49.576671888235715,49.576671888235715 0 0,0 0.8440361769946472,0.10927738130490858 l -3.9123194967909454 28.30759495900192" fill="#d1ff1c" stroke="none" /><path d="M 103.23170211078529 79.25015418208739 l 4.550834749330657 -29.21962363927907 a50.57188703036774,50.57188703036774 0 0,0 0.8566456157028787,0.1409607100720207 l -5.051757868086606 29.137196930711383" fill="#c4ff1e" stroke="none" /><path d="M 104.64783097203109 79.52079915486377 l 12.309092901577708 -54.23613450441218 a76.61539403834482,76.61539403834482 0 0,0 1.2800894426954335,0.3020976229732754 l -13.238314498013027 54.01684073779268" fill="#43ffdc" stroke="none" /><path d="M 105.69591212413111 79.78721728523813 l 9.081050601371283 -32.2254449554514 a54.48051347577414,54.48051347577414 0 0,0 0.8979944885689662,0.26139310811052374 l -9.632905102321853 32.064808153038356" fill="#92ff23" stroke="none" /><path d="M 106.38641147887787 79.99465700312896 l 19.15923443663363 -60.016028990613094 a84.0,84.0 0 0,0 1.3699090494090305,0.4503163143919138 l -20.186666223690402 59.67829175481916" fill="#4dd2ff" stroke="none" /><path d="M 107.40779381753099 80.34994680014964 l 21.96676743678044 -58.269460435029245 a83.27253721353448,83.27253721353448 0 0,0 1.3332636563681128,0.5157350240486508 l -22.963803355642078 57.88378552284256" fill="#4cd9ff" stroke="none" /><path d="M 108.07796709384702 80.6158196554323 l 11.815593430086881 -28.353122916451273 a51.716572517462076,51.716572517462076 0 0,0 0.8165429275807294,0.34853362114041836 l -12.30057143283804 28.14611464565145" fill="#b5ff1f" stroke="none" /><path d="M 108.73861861582097 80.90454125486305 l 23.992386577542224 -52.427694608319264 a78.6567235942992,78.6567235942992 0 0,0 1.2229670468299125,0.5724103291426538 l -24.88884233824364 52.00810804760608" fill="#45fff3" stroke="none" /><path d="M 109.3889696526874 81.21577127319529 l 14.123021718727646 -28.255504074643277 a52.588498745268595,52.588498745268595 0 0,0 0.8040350189550172,0.4105460096547589 l -14.605983959396243 28.008900113315683" fill="#aaff21" stroke="none" /><line stroke="#e1ed5e" stroke-width="0.3" x1="143.13028292997686" x2="145.6673583964461" y1="26.7553504044142" y2="22.446841604673864" /><path d="M 143.63769802327073 25.89364864446614 a86.0,86.0 0 0,1 29.32050498858742,28.57503671076993" fill="none" id="id110" stroke="none" /><text fill="#e1ed5e" style="font-size:6.75px; font-family:Arial;" text-anchor="middle"><textPath startOffset="20.669276256404974" xlink:href="#id110">February</textPath></text><path d="M 110.65571695917076 81.90426304109057 l 30.168017828450832 -51.231889631368375 a80.45431704172908,80.45431704172908 0 0,0 1.1840854281495927,0.711009278066151 l -31.04303601315786 50.706466352766306" fill="#48f7ff" stroke="none" /><path d="M 111.8722381534696 82.67804972795209 l 31.428279694263335 -45.85479931944802 a76.59136070620772,76.59136070620772 0 0,0 1.078132485639816,0.7526202069650227 l -32.210807271076916 45.30853429667787" fill="#43ffdb" stroke="none" /><path d="M 112.45986205192187 83.09580414077388 l 24.535406884568285 -33.28699160024598 a62.35226717830798,62.35226717830798 0 0,0 0.8561471369286873,0.6424687725874437 l -25.103207010407736 32.86090380039453" fill="#36ff2e" stroke="none" /><path d="M 113.03279911837588 83.53348406188908 l 17.79051082667731 -22.477729259370594 a49.666192424730696,49.666192424730696 0 0,0 0.6639878696490756,0.5348616265541786 l -18.173749466681645 22.16901933902301" fill="#d0ff1d" stroke="none" /><path d="M 114.39649973595853 84.71141617570332 l 23.449906687616462 -24.902988270828416 a55.20609519478856,55.20609519478856 0 0,0 0.6843650251020117,0.6556062130845556 l -23.873944198583786 24.49676992743828" fill="#8aff24" stroke="none" /><path d="M 114.91283532996326 85.21462403516908 l 24.47575303570046 -24.26655982233492 a55.466337378311025,55.466337378311025 0 0,0 0.6645744083907206,0.681911888818796 l -24.888714245241992 23.84282524144838" fill="#86ff25" stroke="none" /><path d="M 115.6541949942343 86.00192230759917 l 22.169513747901483 -19.824115897379144 a50.74025741198474,50.74025741198474 0 0,0 0.5750295179021669,0.6542780346599886 l -22.506554329762242 19.440625584907856" fill="#c2ff1e" stroke="none" /><path d="M 116.7966241395341 87.39550010848427 l 36.734045724709524 -27.56591273970592 a66.92678587140767,66.92678587140767 0 0,0 0.6816906825542783,0.9248443333712145 l -37.20183842684763 26.93126209706583" fill="#35ff65" stroke="none" /><path d="M 117.21940702142032 87.97951657250589 l 25.127662344193688 -17.54105982884968 a51.64454592261229,51.64454592261229 0 0,0 0.5012232617400306,0.7312997181173637 l -25.425075342749043 17.107125375662267" fill="#b6ff1f" stroke="none" /><path d="M 117.62189284568427 88.57770195909679 l 29.00314722245752 -18.79948962351327 a55.563034573256566,55.563034573256566 0 0,0 0.511926866166865,0.8048340624067057 l -29.321591780250277 18.298841886427894" fill="#85ff25" stroke="none" /><line stroke="#e1ed5e" stroke-width="0.3" x1="172.87174338648825" x2="177.1583165268699" y1="56.24261187166439" y2="53.66864786411523" /><path d="M 173.72905801456457 55.72781907015455 a86.0,86.0 0 0,1 12.242430191666344,42.057860355516425" fill="none" id="id111" stroke="none" /><text fill="#e1ed5e" style="font-size:6.75px; font-family:Arial;" text-anchor="middle"><textPath startOffset="22.145653131862474" xlink:href="#id111">March</textPath></text><path d="M 118.00360718960297 89.18935116829356 l 24.63598037028027 -14.7931983631435 a49.73621837709594,49.73621837709594 0 0,0 0.43324104285227744,0.7357380063019714 l -24.886295123262315 14.368109188547972" fill="#cfff1d" stroke="none" /><path d="M 118.53625476483649 90.13048839642627 l 49.322876341181626 -26.261653529621086 a76.87862361115701,76.87862361115701 0 0,0 0.6102402963948658,1.1702162315362652 l -49.76642470655143 25.41109105498032" fill="#43ffdf" stroke="none" /><path d="M 118.8641267826498 90.77261029715802 l 37.0940467585413 -18.144557075990082 a62.293985717156325,62.293985717156325 0 0,0 0.46163029913992915,0.964629778654964 l -37.400056315641145 17.505114795270014" fill="#37ff2e" stroke="none" /><path d="M 119.16976305983485 91.42560881287824 l 51.7789627599972 -23.160071440729155 a77.7225695260789,77.7225695260789 0 0,0 0.5343097924831492,1.2226053689975023 l -52.168906434497316 22.267804001955803" fill="#44ffe8" stroke="none" /><path d="M 119.58574465831526 92.42381321644754 l 26.388830905785046 -10.20776669101161 a49.29432624029493,49.29432624029493 0 0,0 0.2985107504669611,0.7918352308242356 l -26.560172340066448 9.753263179993215" fill="#d5ff1c" stroke="none" /><path d="M 119.71291397450082 92.76114493625339 l 7.885311623299438 -2.8955956510222904 a29.400155568247555,29.400155568247555 0 0,0 0.1699046609735304,0.47525357582776134 l -7.933856454316912 2.7598071188136126" fill="#ff0000" stroke="none" /><path d="M 119.83427380445688 93.10060997987247 l 26.811692416103536 -9.326498408871743 a49.3875046946087,49.3875046946087 0 0,0 0.2716655611614557,0.8031309597670644 l -26.967843398837356 8.864865774630516" fill="#d4ff1c" stroke="none" /><path d="M 120.05942366710727 93.78553927170692 l 38.28287359710018 -11.860132099682362 a61.077938373542445,61.077938373542445 0 0,0 0.30167754927121365,1.0041864462184464 l -38.48082746637502 11.201208049873191" fill="#44ff2d" stroke="none" /><path d="M 120.26092885502905 94.47779374421319 l 56.415269984350786 -15.376232701797182 a79.4731666622136,79.4731666622136 0 0,0 0.3474510806357158,1.319328346556068 l -56.67091054579123 14.405523850868317" fill="#47fffc" stroke="none" /><path d="M 120.43855184770803 95.1765574152323 l 28.243416828972205 -6.665369468800512 a50.01926505497147,50.01926505497147 0 0,0 0.19004733639309035,0.8373836302348301 l -28.35367502692296 6.179551504626655" fill="#cbff1d" stroke="none" /><line stroke="#e1ed5e" stroke-width="0.3" x1="184.99686870605535" x2="189.99668451229388" y1="99.2704041080226" y2="99.22748670261217" /><path d="M 185.99683186730306 99.26182062694052 a86.0,86.0 0 0,1 -10.086455211305974,41.156179273409016" fill="none" id="id112" stroke="none" /><text fill="#e1ed5e" style="font-size:6.75px; font-family:Arial;" text-anchor="middle"><textPath startOffset="21.40746469413373" xlink:href="#id112">April</textPath></text><line stroke="#e1ed5e" stroke-width="0.3" x1="174.33088141563837" x2="178.70328620479359" y1="141.23008692659167" y2="143.65538615756765" /><path d="M 175.20536237346943 141.71514677278685 a86.0,86.0 0 0,1 -30.301960400862466,31.631185727798858" fill="none" id="id113" stroke="none" /><text fill="#e1ed5e" style="font-size:6.75px; font-family:Arial;" text-anchor="middle"><textPath startOffset="22.145653131862474" xlink:href="#id113">May</textPath></text><line stroke="#e1ed5e" stroke-width="0.3" x1="143.1302829299769" x2="145.66735839644613" y1="173.24464959558577" y2="177.55315839532614" /><path d="M 143.63769802327073 174.10635135553383 a86.0,86.0 0 0,1 -40.68552437913181,11.842963189579606" fill="none" id="id114" stroke="none" /><text fill="#e1ed5e" style="font-size:6.75px; font-family:Arial;" text-anchor="middle"><textPath startOffset="21.407464694133747" xlink:href="#id114">June</textPath></text><line stroke="#e1ed5e" stroke-width="0.3" x1="101.45913802915013" x2="101.54496967792366" y1="184.9874750549273" y2="189.98673829345242" /><path d="M 101.47630435890484 185.9873277026323 a86.0,86.0 0 0,1 -42.54439059252881,-10.42667462771756" fill="none" id="id115" stroke="none" /><text fill="#e1ed5e" style="font-size:6.75px; font-family:Arial;" text-anchor="middle"><textPath startOffset="22.145653131862474" xlink:href="#id115">July</textPath></text><line stroke="#e1ed5e" stroke-width="0.3" x1="58.13341422392154" x2="55.67067388415222" y1="173.97424548756322" y2="178.32567169271397" /><path d="M 57.64086615596768 174.84453072859336 a86.0,86.0 0 0,1 -31.369924170532247,-30.572349798747897" fill="none" id="id116" stroke="none" /><text fill="#e1ed5e" style="font-size:6.75px; font-family:Arial;" text-anchor="middle"><textPath startOffset="22.145653131862474" xlink:href="#id116">August</textPath></text><line stroke="#e1ed5e" stroke-width="0.3" x1="26.387840678322732" x2="22.057713659400548" y1="142.50000000000003" y2="145.00000000000006" /><path d="M 25.521815274538298 143.00000000000003 a86.0,86.0 0 0,1 -11.493303480769221,-40.785679425670985" fill="none" id="id117" stroke="none" /><text fill="#e1ed5e" style="font-size:6.75px; font-family:Arial;" text-anchor="middle"><textPath startOffset="21.40746469413373" xlink:href="#id117">September</textPath></text><line stroke="#e1ed5e" stroke-width="0.3" x1="15.003131293944662" x2="10.003315487706104" y1="100.72959589197737" y2="100.7725132973878" /><path d="M 14.003168132696942 100.73817937305945 a86.0,86.0 0 0,1 10.791469493833604,-42.45332614584628" fill="none" id="id118" stroke="none" /><text fill="#e1ed5e" style="font-size:6.75px; font-family:Arial;" text-anchor="middle"><textPath startOffset="22.145653131862435" xlink:href="#id118">October</textPath></text><line stroke="#e1ed5e" stroke-width="0.3" x1="26.387840678322718" x2="22.05771365940052" y1="57.49999999999999" y2="54.99999999999999" /><path d="M 25.521815274538284 56.99999999999999 a86.0,86.0 0 0,1 29.574782752854787,-30.34633250058573" fill="none" id="id119" stroke="none" /><text fill="#e1ed5e" style="font-size:6.75px; font-family:Arial;" text-anchor="middle"><textPath startOffset="21.40746469413373" xlink:href="#id119">November</textPath></text><line stroke="#e1ed5e" stroke-width="0.3" x1="56.869717070023135" x2="54.33264160355391" y1="26.7553504044142" y2="22.446841604673864" /><path d="M 56.362301976729285 25.89364864446614 a86.0,86.0 0 0,1 42.16139366436587,-11.88097634709845" fill="none" id="id120" stroke="none" /><text fill="#e1ed5e" style="font-size:6.75px; font-family:Arial;" text-anchor="middle"><textPath startOffset="22.145653131862474" xlink:href="#id120">December</textPath></text></svg>