<?xml version="1.0" encoding="utf-8" ?>
<svg baseProfile="full" height="200mm" version="1.1" viewBox="0,0,200,200" width="200mm" xmlns="http://www.w3.org/2000/svg" xmlns:ev="http://www.w3.org/2001/xml-events" xmlns:xlink="http://www.w3.org/1999/xlink"><defs /><rect fill="#1a1a1a" height="200" width="200" x="0" y="0" /><text alignment-baseline="middle" fill="#e1ed5e" style="dominant-baseline: central; font-size:9.0px; font-family:Arial;" text-anchor="middle" x="100.0" y="100.0">2019</text><line stroke="#e1ed5e" stroke-width="0.3" x1="100.0" x2="100.0" y1="15.0" y2="10.0" /><path d="M 100.0 14.0 a86.0,86.0 0 0,1 42.46469731375804,11.215312516191453" fill="none" id="id49" stroke="none" /><text fill="#e1ed5e" style="font-size:6.75px; font-family:Arial;" text-anchor="middle"><textPath startOffset="22.20632615414155" xlink:href="#id49">January</textPath></text><path d="M 100.0 79.0 l 0.0 -14.823569084226904 a35.823569084226904,35.823569084226904 0 0,0 0.6166438534199463,0.005307648327797917 l -0.2551633741474179 14.821372812507665" fill="#ff750a" stroke="none" /><path d="M 101.80526077348638 79.07773832637324 l 1.3725452737344699 -15.907259381985888 a36.966364068698574,36.966364068698574 0 0,0 0.6334888367218411,0.060157398252450235 l -1.6461592375465552 15.88127643921826" fill="#ff860c" stroke="none" /><path d="M 103.2404852339499 79.25152402106235 l 2.4779721749706733 -15.866187449397808 a37.058525781632554,37.058525781632554 0 0,0 0.6294139909456117,0.1038587015332068 l -2.75071537205516 15.821182484924977" fill="#ff870c" stroke="none" /><path d="M 103.95276090670814 79.375362276772 l 3.077121971499785 -16.055746196200282 a37.34795600508781,37.34795600508781 0 0,0 0.6303509593308148,0.12644247240781972 l -3.353039340297725 16.000399767715255" fill="#ff8b0c" stroke="none" /><path d="M 105.36241919743992 79.69619591428918 l 4.231537610897255 -16.021931048208994 a37.57130607604607,37.57130607604607 0 0,0 0.6238663682542516,0.17052624513247824 l -4.506701868375218 15.946718262250222" fill="#ff8f0d" stroke="none" /><path d="M 106.74666289553966 80.11325718540242 l 3.282820632970242 -9.676577983093619 a31.21827151582631,31.21827151582631 0 0,0 0.5073979938281155,0.17702119702585592 l -3.4489006308616315 9.618635932895556" fill="#ff2d04" stroke="none" /><path d="M 107.4271985657038 80.35727306442388 l 5.237997379682749 -13.852942170345987 a35.81015271104635,35.81015271104635 0 0,0 0.5746963965502587,0.22297327341728693 l -5.475676941232675 13.760726193038153" fill="#ff740a" stroke="none" /><path d="M 109.08828744355905 81.06846463323043 l 3.5944639459046095 -7.487518604475686 a29.305606895993673,29.305606895993673 0 0,0 0.4528814988308181,0.22222698463352744 l -3.722816711745859 7.424536459707326" fill="#ff0f01" stroke="none" /><path d="M 110.05341064243156 81.56283822128135 l 6.837410911649876 -12.539272054958555 a35.28228033764263,35.28228033764263 0 0,0 0.5307058305366044,0.2953372201106091 l -7.052240831258516 12.419719437287766" fill="#ff6c0a" stroke="none" /><line stroke="#e1ed5e" stroke-width="0.3" x1="143.23703022742887" x2="145.7803849466894" y1="26.81831364943548" y2="22.513508569990506" /><path d="M 143.74570117128098 25.957352633546492 a86.0,86.0 0 0,1 28.547481713284135,27.462654790039103" fill="none" id="id50" stroke="none" /><text fill="#e1ed5e" style="font-size:6.75px; font-family:Arial;" text-anchor="middle"><textPath startOffset="19.985693538727396" xlink:href="#id50">February</textPath></text><path d="M 110.68208982089419 81.91981866633111 l 7.493605604243693 -12.683449628247171 a35.73173511247863,35.73173511247863 0 0,0 0.526852410985075,0.31742268262664575 l -7.710820081446406 12.55258033616191" fill="#ff730a" stroke="none" /><path d="M 111.2981086023043 82.29822771554956 l 8.21728078359414 -12.874759691981252 a36.273609285388005,36.273609285388005 0 0,0 0.5234333193947657,0.3404555911793767 l -8.437681128773185 12.731405176642346" fill="#ff7b0b" stroke="none" /><path d="M 113.34407831869373 83.78471172551755 l 14.312240035891465 -17.391766781708125 a43.5236268534688,43.5236268534688 0 0,0 0.574392626030602,0.4810373056530186 l -14.609490198881184 17.142828318661287" fill="#ffe415" stroke="none" /><path d="M 114.16331599549186 84.49514656593476 l 7.234211953672844 -7.9194304560007085 a31.726192303799827,31.726192303799827 0 0,0 0.400040266631181,0.3717938298704368 l -7.369460104098872 7.793732040055631" fill="#ff3505" stroke="none" /><path d="M 115.19652480421416 85.50635884689758 l 12.00679799385052 -11.451448522783393 a37.59213281453264,37.59213281453264 0 0,0 0.44257160326566397,0.47210452895115734 l -12.202136919086648 11.24307457695418" fill="#ff8f0d" stroke="none" /><path d="M 116.60985879189232 87.15038557335679 l 11.931472098247 -9.230350355510687 a36.08507189630606,36.08507189630606 0 0,0 0.37584159154594327,0.4945634788183022 l -12.088589630017056 9.02360210081135" fill="#ff790b" stroke="none" /><path d="M 116.82858285166822 87.43820079747576 l 8.4344327614416 -6.29593422513997 a31.525133907678715,31.525133907678715 0 0,0 0.32086189340882576,0.43765526201778987 l -8.541557267364052 6.1498165194506855" fill="#ff3204" stroke="none" /><path d="M 117.2510076193507 88.02491185347247 l 14.777258853282747 -10.25789224819644 a38.988655663849144,38.988655663849144 0 0,0 0.3779588766488502,0.5546080138064038 l -14.95164219560033 10.002006211119628" fill="#ffa40f" stroke="none" /><line stroke="#e1ed5e" stroke-width="0.3" x1="172.23445277983987" x2="176.4835382374775" y1="55.19839476539836" y2="52.563006222186495" /><path d="M 173.08426987136738 54.67131705675599 a86.0,86.0 0 0,1 12.851231095245387,41.99856678651699" fill="none" id="id51" stroke="none" /><text fill="#e1ed5e" style="font-size:6.75px; font-family:Arial;" text-anchor="middle"><textPath startOffset="22.20632615414155" xlink:href="#id51">March</textPath></text><path d="M 118.21658344932153 89.55222093294921 l 13.187953846279742 -7.563703068454651 a36.2030171597402,36.2030171597402 0 0,0 0.3053851358098525,0.5432460808165599 l -13.316196623382027 7.335573477703297" fill="#ff7a0b" stroke="none" /><path d="M 118.73160827565052 90.50648371742162 l 11.698755151036783 -5.929139712826315 a34.11547062892231,34.11547062892231 0 0,0 0.2609670838056412,0.5260937165248663 l -11.799082247795832 5.726886407802499" fill="#ff5b08" stroke="none" /><path d="M 119.04729006885535 91.15688171328212 l 14.191950484210379 -6.588921384482148 a36.64689565240228,36.64689565240228 0 0,0 0.260712442902614,0.5744453091920155 l -14.30326524407634 6.34365406644807" fill="#ff810b" stroke="none" /><path d="M 119.34039704204932 91.81776055985345 l 13.887336376059407 -5.875241918132557 a36.07901121487761,36.07901121487761 0 0,0 0.23705338601156087,0.5740435771329083 l -13.986411448957165 5.635323770546345" fill="#ff780b" stroke="none" /><path d="M 119.97218684219823 93.5106431181261 l 7.09203357515425 -2.304341394912692 a28.457005397304158,28.457005397304158 0 0,0 0.14735920406358982,0.46716894641538576 l -7.130648262986046 2.181922282070887" fill="#ff0100" stroke="none" /><path d="M 120.18372546131832 94.20196356495316 l 14.385835581960622 -4.132517508358592 a35.96763061904237,35.96763061904237 0 0,0 0.1658163083478882,0.5965294851149935 l -14.454838660874874 3.884276719824646" fill="#ff770a" stroke="none" /><path d="M 120.73433829027371 96.67025291283417 l 14.866246141730931 -2.3873845933505975 a36.056722071656154,36.056722071656154 0 0,0 0.09313641306116496,0.6136525939353291 l -14.905138448231396 2.131132887023186" fill="#ff780b" stroke="none" /><path d="M 120.98425023603335 99.18683210126433 l 16.790861430694473 -0.6506684467626981 a37.80346383970864,37.80346383970864 0 0,0 0.01960074594865338,0.6504533340964905 l -16.799573871098772 0.36154496524120844" fill="#ff920d" stroke="none" /><line stroke="#e1ed5e" stroke-width="0.3" x1="184.98032266829074" x2="189.97916517819016" y1="98.17113171792111" y2="98.06355123074" /><path d="M 185.9800911702706 98.14961562048488 a86.0,86.0 0 0,1 -9.607161424134198,41.387399972396054" fill="none" id="id52" stroke="none" /><text fill="#e1ed5e" style="font-size:6.75px; font-family:Arial;" text-anchor="middle"><textPath startOffset="21.466115282336823" xlink:href="#id52">April</textPath></text><path d="M 120.92983693683757 101.71520430193887 l 8.753088688968518 0.717317359895291 a29.782431655968395,29.782431655968395 0 0,0 -0.046269707458399076,0.510582366210897 l -8.739444385233044 -0.8678811146547586" fill="#ff1602" stroke="none" /><path d="M 120.81339534386255 102.79330883721812 l 16.67952365300478 2.2385132291385395 a37.829065653451295,37.829065653451295 0 0,0 -0.0921695258721013,0.6446334492779963 l -16.638520076116073 -2.525292150396945" fill="#ff930d" stroke="none" /><path d="M 120.70491114924044 103.5080841355445 l 15.342679412233368 2.59954799394421 a36.56134509993879,36.56134509993879 0 0,0 -0.11047368664075173,0.6195951032876259 l -15.295659283253428 -2.863261847965054" fill="#ff800b" stroke="none" /><path d="M 119.9155931802556 106.66101706037122 l 11.040674970640607 3.6926906304935265 a32.64184125900472,32.64184125900472 0 0,0 -0.18280856318831004,0.5313272554168444 l -10.975475576509066 -3.8821905889996713" fill="#ff4406" stroke="none" /><path d="M 119.26925614724726 108.34839909993367 l 13.792086188088426 5.9754169563672415 a36.030876528735796,36.030876528735796 0 0,0 -0.2514593419158551,0.5669744326927294 l -13.687185761441297 -6.211939725552658" fill="#ff780b" stroke="none" /><line stroke="#e1ed5e" stroke-width="0.3" x1="174.80103733775053" x2="179.2010983576182" y1="140.37084112569926" y2="142.7455964860345" /><path d="M 175.68104954172406 140.8457921977663 a86.0,86.0 0 0,1 -30.038265399797805,32.042727171017184" fill="none" id="id53" stroke="none" /><text fill="#e1ed5e" style="font-size:6.75px; font-family:Arial;" text-anchor="middle"><textPath startOffset="22.206326154141568" xlink:href="#id53">May</textPath></text><path d="M 118.48025628344425 109.97397251340804 l 22.273637557739246 12.021296965103563 a46.31060075890615,46.31060075890615 0 0,0 -0.3846505364202884,0.6982524529037462 l -22.063410611867447 -12.402919936405114" fill="#f4ff19" stroke="none" /><path d="M 117.94076556474637 110.91462005526583 l 16.4018513548834 9.97839111689157 a40.198672275690086,40.198672275690086 0 0,0 -0.36472707175800384,0.5880561713017649 l -16.227659643457436 -10.259243619558609" fill="#ffb510" stroke="none" /><path d="M 116.27256486870786 113.27417163493432 l 31.113355736654576 25.380388864285806 a61.15227321208575,61.15227321208575 0 0,0 -0.6723954523939768,0.8099436378973706 l -30.671864284367057 -25.912193759296947" fill="#3fff2d" stroke="none" /><path d="M 113.48314897796784 116.09983520530334 l 10.174968986443556 12.149633899951436 a36.8475107754479,36.8475107754479 0 0,0 -0.4897733783904229,0.4030501468134809 l -9.964325479508442 -12.322979165622094" fill="#ff840c" stroke="none" /><path d="M 112.63410532772338 116.77436683061366 l 8.888039774820983 11.800696267805915 a35.773411367853,35.773411367853 0 0,0 -0.4950614763284509,0.36623464493943075 l -8.683593328073968 -11.951940861485115" fill="#ff740a" stroke="none" /><line stroke="#e1ed5e" stroke-width="0.3" x1="143.8653032363475" x2="146.44561519142675" y1="172.8068346515853" y2="177.08958963109032" /><path d="M 144.38136562736335 173.6633856474863 a86.0,86.0 0 0,1 -40.68145358897372,12.25698825130547" fill="none" id="id54" stroke="none" /><text fill="#e1ed5e" style="font-size:6.75px; font-family:Arial;" text-anchor="middle"><textPath startOffset="21.466115282336833" xlink:href="#id54">June</textPath></text><path d="M 109.89434966115114 118.52300852407294 l 7.136655545217171 13.360386081408237 a36.147005268876285,36.147005268876285 0 0,0 -0.5513435540020843,0.28843688934828493 l -6.905621088688591 -13.481252389701238" fill="#ff7a0b" stroke="none" /><path d="M 108.59647513512805 119.15986991738527 l 9.16485539724114 20.426678896009044 a43.388474382436186,43.388474382436186 0 0,0 -0.6840488964841098,0.29986693387461866 l -8.811885826099276 -20.581410383178117" fill="#ffe215" stroke="none" /><path d="M 106.91757812671514 119.82793768551818 l 5.143943828072407 14.744148286079142 a36.61569936916867,36.61569936916867 0 0,0 -0.59688867351132,0.20249704558912046 l -4.88938542162386 -14.830508318566384" fill="#ff810b" stroke="none" /><path d="M 105.88484417918355 120.15858648285463 l 4.649184308202453 15.925822519336856 a37.59056170384393,37.59056170384393 0 0,0 -0.6226945138194252,0.17597968953275014 l -4.374358626278422 -16.003491002208126" fill="#ff8f0d" stroke="none" /><path d="M 103.41894727170886 120.7198165907248 l 2.458431881672503 14.898813477045735 a36.10028245896822,36.10028245896822 0 0,0 -0.6139869622831421,0.0958921362289921 l -2.201609055780844 -14.938923920621834" fill="#ff790b" stroke="none" /><line stroke="#e1ed5e" stroke-width="0.3" x1="102.19456741930631" x2="102.32365962044197" y1="184.97166512339345" y2="189.96999836594603" /><path d="M 102.22038585953345 185.97133177190398 a86.0,86.0 0 0,1 -42.740103519485714,-10.115201625700543" fill="none" id="id55" stroke="none" /><text fill="#e1ed5e" style="font-size:6.75px; font-family:Arial;" text-anchor="middle"><textPath startOffset="22.20632615414155" xlink:href="#id55">July</textPath></text><path d="M 98.37488393609728 120.93702456842531 l -1.3287577416526533 17.118920980730827 a38.17041212902323,38.17041212902323 0 0,0 -0.6546328963054711,-0.05648448084480819 l 1.623234955699666 -17.093512247607354" fill="#ff980e" stroke="none" /><path d="M 96.58105272829116 120.7198165907248 l -4.6161232375884556 27.97505174603366 a49.353343963946564,49.353343963946564 0 0,0 -0.8370116292406317,-0.14552520061853766 l 5.096983838301138 -27.891447966894116" fill="#ccff1d" stroke="none" /><path d="M 95.16358092515715 120.4354850818985 l -3.4684446912923845 14.655336654960704 a36.06017931655494,36.06017931655494 0 0,0 -0.6028003571736871,-0.14815366173346683 l 3.720198333209282 -14.593461734913207" fill="#ff780b" stroke="none" /><path d="M 93.42475214034765 119.94407469862007 l -3.8558329087412506 11.695531666451723 a33.314743536960364,33.314743536960364 0 0,0 -0.5430783358159749,-0.1842416574589351 l 4.056580977494451 -11.627427022094666" fill="#ff4e07" stroke="none" /><line stroke="#e1ed5e" stroke-width="0.3" x1="58.666819895761336" x2="56.23545636021788" y1="174.27360380694188" y2="178.64263932499728" /><path d="M 58.180547188652646 175.14741091055294 a86.0,86.0 0 0,1 -31.652253787137756,-30.449443065178592" fill="none" id="id56" stroke="none" /><text fill="#e1ed5e" style="font-size:6.75px; font-family:Arial;" text-anchor="middle"><textPath startOffset="22.20632615414155" xlink:href="#id56">August</textPath></text><path d="M 89.4739219176387 118.17145234162733 l -3.7826277772810193 6.5300522989810865 a28.546512832354168,28.546512832354168 0 0,0 -0.42307580778710463,-0.2499606445546707 l 3.8944714560965057 -6.463973082132666" fill="#ff0200" stroke="none" /><path d="M 87.65650970185807 116.9893568818739 l -9.450671411429347 13.007733267005145 a37.07844255120378,37.07844255120378 0 0,0 -0.5131215561357929,-0.3795950602253769 l 9.673177937983704 -12.843128258040002" fill="#ff870c" stroke="none" /><path d="M 85.97065885151581 115.62618273729859 l -9.860637282327827 10.982990466129056 a35.760021923856186,35.760021923856186 0 0,0 -0.4544936172643987,-0.4151691434313698 l 10.048230449059082 -10.81162855611111" fill="#ff740a" stroke="none" /><path d="M 84.9287848128048 114.62390073753433 l -11.085998771929907 10.756965752494281 a36.447060593250946,36.447060593250946 0 0,0 -0.43301442092906084,-0.45401388917527846 l 11.269519744237925 -10.564544746736503" fill="#ff7e0b" stroke="none" /><path d="M 83.28015986056508 112.70617746262583 l -11.97274163103743 9.098638420550792 a36.0376781210232,36.0376781210232 0 0,0 -0.3710829461019192,-0.4971262478118868 l 12.127585843834433 -8.891199293229596" fill="#ff780b" stroke="none" /><path d="M 82.44556493220864 111.52570212397912 l -6.181284934685612 4.058441563371238 a28.3945406461166,28.3945406461166 0 0,0 -0.26473871262630616,-0.41088036107177706 l 6.250228510688964 -3.951439602378013" fill="#ff0000" stroke="none" /><line stroke="#e1ed5e" stroke-width="0.3" x1="26.63291911575756" x2="22.317208475507996" y1="142.92168965132927" y2="145.44649492493687" /><path d="M 25.769776987707644 143.4266507060508 a86.0,86.0 0 0,1 -11.730757126820373,-40.83630448921669" fill="none" id="id57" stroke="none" /><text fill="#e1ed5e" style="font-size:6.75px; font-family:Arial;" text-anchor="middle"><textPath startOffset="21.46611528233685" xlink:href="#id57">September</textPath></text><path d="M 81.69416730710424 110.29060199501025 l -9.188397844881731 5.165246879492293 a31.540703500332988,31.540703500332988 0 0,0 -0.26197346442634284,-0.47555793327040086 l 9.27594771875959 -5.006318427824069" fill="#ff3204" stroke="none" /><path d="M 81.35079622478065 109.6543875284942 l -13.301731013459664 6.8860884116871075 a35.97845991976499,35.97845991976499 0 0,0 -0.27998322757759436,-0.5524334700262845 l 13.418292910823526 -6.656100729958139" fill="#ff770b" stroke="none" /><path d="M 80.45479744820244 107.68017299344265 l -17.93322956652757 7.046757639735246 a40.26804390484269,40.26804390484269 0 0,0 -0.24794706792742333,-0.6473115539048855 l 18.0518709140485 -6.737022518997202" fill="#ffb610" stroke="none" /><path d="M 79.29508885075956 103.50808413554451 l -15.069843780036686 2.553320780215964 a36.28462098193452,36.28462098193452 0 0,0 -0.09903670563571364,-0.6167016605315168 l 15.11156224003369 -2.2935398899912336" fill="#ff7c0b" stroke="none" /><path d="M 79.04373962182676 101.35467743843564 l -14.168697509168505 0.9159083968855987 a35.198270222030686,35.198270222030686 0 0,0 -0.033880261125427254,-0.6049548218666195 l 14.182364121181463 -0.6718818586835414" fill="#ff6b09" stroke="none" /><line stroke="#e1ed5e" stroke-width="0.3" x1="15.007084014347285" x2="10.007500721073583" y1="101.09737516637583" y2="101.16192664675087" /><path d="M 14.007167355692545 101.11028546245083 a86.0,86.0 0 0,1 10.666146001902534,-42.60595125391555" fill="none" id="id58" stroke="none" /><text fill="#e1ed5e" style="font-size:6.75px; font-family:Arial;" text-anchor="middle"><textPath startOffset="22.20632615414155" xlink:href="#id58">October</textPath></text><path d="M 79.00175016825051 100.2711162175752 l -11.837536903195836 0.15283884401398048 a32.838523541673716,32.838523541673716 0 0,0 -0.002432713337261948,-0.565276905242882 l 11.8384139138226 0.05094753943257687" fill="#ff4706" stroke="none" /><path d="M 79.00486145842228 99.54816195383935 l -14.397342688802492 -0.30984635693311147 a35.40067641688123,35.40067641688123 0 0,0 0.018354922919230618,-0.6091105328936749 l 14.389876071427617 0.5576270372517808" fill="#ff6e0a" stroke="none" /><path d="M 79.05617556472873 98.46500227214037 l -37.32288703985684 -2.735438648294798 a58.42299455666928,58.42299455666928 0 0,0 0.08214138433792252,-1.002332945419698 l 37.27027117169942 3.3774855109222743" fill="#5eff2a" stroke="none" /><path d="M 79.26566170972629 96.67025291283419 l -15.069123566651808 -2.4199648717865183 a36.2621988929414,36.2621988929414 0 0,0 0.10427650896800765,-0.6154458586839221 l 15.025235196163576 2.6789965187862688" fill="#ff7b0b" stroke="none" /><path d="M 79.3925641242962 95.95851677861259 l -14.551159447130559 -2.8537401310876382 a35.82835371818453,35.82835371818453 0 0,0 0.12389906062958013,-0.6041758214856008 l 14.499881090585983 3.1037916087366413" fill="#ff750a" stroke="none" /><path d="M 80.02781315780177 93.51064311812611 l -14.444687391351374 -4.693363439377178 a36.18804313293677,36.18804313293677 0 0,0 0.19759137898696943,-0.5907730732656133 l 14.361758718592633 4.941309615565113" fill="#ff7a0b" stroke="none" /><path d="M 80.803312248108 91.48605970444005 l -57.59006325567602 -25.54182088667983 a84.0,84.0 0 0,0 0.5975907321465934,-1.3167119646317162 l 57.141870206566075 26.529354860153617" fill="#4dd2ff" stroke="none" /><line stroke="#e1ed5e" stroke-width="0.3" x1="26.266209847984243" x2="21.928928074336255" y1="57.711370442889674" y2="55.22380399835377" /><path d="M 25.398753493254645 57.213857153982495 a86.0,86.0 0 0,1 29.58750427330803,-30.492523968695096" fill="none" id="id59" stroke="none" /><text fill="#e1ed5e" style="font-size:6.75px; font-family:Arial;" text-anchor="middle"><textPath startOffset="21.46611528233685" xlink:href="#id59">November</textPath></text><path d="M 82.15384107792192 88.93136811851018 l -12.669182103562449 -7.857742024834694 a35.90812814883479,35.90812814883479 0 0,0 0.3303075918484965,-0.5224672867645649 l 12.532046915467989 8.074656959313474" fill="#ff760a" stroke="none" /><path d="M 83.17141714833178 87.43820079747576 l -28.085583308683912 -20.964656449041396 a56.047350967160945,56.047350967160945 0 0,0 0.5837573401534124,-0.768156232375628 l 27.72055002830639 21.44499745729805" fill="#79ff26" stroke="none" /><path d="M 83.84228863543731 86.58626213691792 l -15.001306927477456 -12.453719105921532 a40.497033853937324,40.497033853937324 0 0,0 0.4498822944464857,-0.5325187364443574 l 14.784714019543847 12.710096791995005" fill="#ffb911" stroke="none" /><path d="M 84.80347519578584 85.50635884689758 l -10.171335638477807 -9.700881661508433 a35.0557167615586,35.0557167615586 0 0,0 0.4202274604945661,-0.43308133707628427 l 10.002843914280122 9.87452719413484" fill="#ff6909" stroke="none" /><path d="M 85.83668400450813 84.49514656593479 l -11.251317050332409 -12.31703238571601 a37.6823686015469,37.6823686015469 0 0,0 0.48267348167498464,-0.4333490175807134 l 11.037632581061452 12.508880412066002" fill="#ff900d" stroke="none" /><path d="M 86.10567301691215 84.25364557470407 l -24.36336556859652 -27.610850795661534 a57.822990963382615,57.822990963382615 0 0,0 0.7519913053757795,-0.6521194497764987 l 23.88448046457397 28.026135238857716" fill="#64ff29" stroke="none" /><line stroke="#e1ed5e" stroke-width="0.3" x1="56.762969772571076" x2="54.21961505331055" y1="26.818313649435495" y2="22.513508569990535" /><path d="M 56.25429882871897 25.957352633546506 a86.0,86.0 0 0,1 42.265352541879196,-11.944610805530505" fill="none" id="id60" stroke="none" /><text fill="#e1ed5e" style="font-size:6.75px; font-family:Arial;" text-anchor="middle"><textPath startOffset="22.20632615414155" xlink:href="#id60">December</textPath></text><path d="M 89.3179101791058 81.91981866633112 l -4.894206962967951 -8.283786305736006 a30.62155794845426,30.62155794845426 0 0,0 0.4561201611085257,-0.2642142378333175 l 4.750890069394106 8.36680470095937" fill="#ff2403" stroke="none" /><path d="M 90.91171255644093 81.06846463323043 l -6.848263406928916 -14.265409373810149 a36.82405182919571,36.82405182919571 0 0,0 0.5737920050831117,-0.2694030400973211 l 6.601693190546196 14.381177396547479" fill="#ff840c" stroke="none" /><path d="M 91.56875222667455 80.76684994638697 l -6.680840919556039 -15.240166028172474 a37.64020119946501,37.64020119946501 0 0,0 0.5956404866010926,-0.25502217115407544 l 6.417516675164639 15.352907727289336" fill="#ff900d" stroke="none" /><path d="M 92.91201910852362 80.23233633223022 l -6.901380747743468 -19.247254691201363 a41.447148196589595,41.447148196589595 0 0,0 0.6736503599881895,-0.23502338312832724 l 6.569048383691993 19.3631989275019" fill="#ffc712" stroke="none" /><path d="M 94.98787191387505 79.60689891045804 l -4.25154625891225 -17.29848303056715 a38.81328607389693,38.81328607389693 0 0,0 0.6501711748544707,-0.15387451089989163 l 3.953151397095245 17.369103453607913" fill="#ffa10e" stroke="none" /><path d="M 96.04723909329186 79.375362276772 l -9.929212530393631 -51.808448866402806 a73.75134723792749,73.75134723792749 0 0,0 1.2488732810972225,-0.2282236095234014 l 9.035944128193515 51.97168795727695" fill="#3fffbc" stroke="none" /><path d="M 96.75951476605007 79.25152402106235 l -2.349216602202534 -15.041779462363719 a36.224123884100884,36.224123884100884 0 0,0 0.6168985884642826,-0.0909148159585001 l 2.0899490333096025 15.079988762483188" fill="#ff7b0b" stroke="none" /><path d="M 98.91598698831166 79.02799685794201 l -0.8482881754444831 -16.4115209771183 a37.43342975799614,37.43342975799614 0 0,0 0.6437822062957423,-0.02772261603494233 l 0.5656651367594167 16.423691319677435" fill="#ff8d0d" stroke="none" /><path d="M 99.63851952072746 79.00311137660856 l -0.21735649734707072 -12.625329521393056 a33.62720037738762,33.62720037738762 0 0,0 0.5788369766196033,-0.0049822326031202764 l 3.092772104871999e-15 12.627200377387616" fill="#ff5307" stroke="none" /></svg>