<?xml version="1.0" encoding="utf-8" ?>
<svg baseProfile="full" height="200mm" version="1.1" viewBox="0,0,200,200" width="200mm" xmlns="http://www.w3.org/2000/svg" xmlns:ev="http://www.w3.org/2001/xml-events" xmlns:xlink="http://www.w3.org/1999/xlink"><defs /><rect fill="#1a1a1a" height="200" width="200" x="0" y="0" /><rect fill="#1a1a1a" height="200" width="180" x="10" y="0" /><text alignment-baseline="middle" fill="#e1ed5e" style="dominant-baseline: central; font-size:9.0px; font-family:Arial;" text-anchor="middle" x="100.0" y="100.0">2026</text><line stroke="#e1ed5e" stroke-width="0.3" x1="100.0" x2="100.0" y1="15.0" y2="10.0" /><path d="M 100.0 14.0 a86.0,86.0 0 0,1 42.46469731375804,11.215312516191453" fill="none" id="id133" stroke="none" /><text fill="#e1ed5e" style="font-size:6.75px; font-family:Arial;" text-anchor="middle"><textPath startOffset="22.20632615414155" xlink:href="#id133">January</textPath></text><path d="M 100.0 79.0 l 0.0 -28.373215401840923 a49.37321540184092,49.37321540184092 0 0,0 0.8498787412706303,0.007315174642410777 l -0.48839826199810193 28.36901160380707" fill="red" stroke="none" /><path d="M 100.72285384407766 79.0124445844662 l 0.9744285254869153 -28.29185020552559 a49.30862587627985,49.30862587627985 0 0,0 0.8480124894049094,0.036517201635431935 l -1.4612818472811562 28.270885277365963" fill="red" stroke="none" /><path d="M 101.44485096284872 79.0497635885617 l 1.9685963617627213 -28.544507522292196 a49.61230996137399,49.61230996137399 0 0,0 0.8514649161178873,0.06609006492352701 l -2.4596514672429497 28.506392195180204" fill="red" stroke="none" /><path d="M 102.16513564639614 79.11191278185805 l 1.4678476504496718 -14.161020255969607 a35.23689121314454,35.23689121314454 0 0,0 0.6027745042174814,0.06772873887994015 l -1.7113888581768784 14.133655563619067" fill="red" stroke="none" /><path d="M 102.88285421437855 79.19881850522331 l 3.3088999567928243 -23.87530670334064 a45.103507817383054,45.103507817383054 0 0,0 0.7681149279511807,0.11320017360309254 l -3.719383865172661 23.814812045576577" fill="red" stroke="none" /><path d="M 103.59715602781102 79.31037775812273 l 4.887359907312024 -28.110437651467404 a49.532139629208274,49.532139629208274 0 0,0 0.8387557387789911,0.15327725007010037 l -5.370510767193915 28.022144920046564" fill="red" stroke="none" /><path d="M 104.66035177308747 79.52364482259891 l 6.30077615018026 -27.683946754713624 a49.39191236976649,49.39191236976649 0 0,0 0.8273764203479325,0.195813267236336 l -6.776376257490717 27.57138757533642" fill="red" stroke="none" /><path d="M 105.36241919743992 79.69619591428918 l 7.2399856833176335 -27.41286077888342 a49.35281870955848,49.35281870955848 0 0,0 0.8194967646086941,0.22399942243718257 l -7.710780337150038 27.28417481561994" fill="red" stroke="none" /><path d="M 106.0581310904928 79.89281104454417 l 6.0834925968858595 -20.191364849576168 a42.08791352090256,42.08791352090256 0 0,0 0.6918744466429476,0.2149687584441975 l -6.430152416239525 20.083655956249448" fill="red" stroke="none" /><path d="M 106.74666289553966 80.11325718540242 l 9.525187738390178 -28.076837652486876 a50.648575244279165,50.648575244279165 0 0,0 0.8232033428298978,0.28719948229200076 l -10.00707308528335 27.908717317022667" fill="red" stroke="none" /><path d="M 107.4271985657038 80.35727306442388 l 9.29961980769951 -24.594723147812665 a47.29416922599589,47.29416922599589 0 0,0 0.7589967250721562,0.29447893760638727 l -9.721599697771333 24.43100150631573" fill="red" stroke="none" /><path d="M 108.09893153111575 80.62456947434976 l 10.946881041191851 -26.188705543600324 a49.38454689755339,49.38454689755339 0 0,0 0.7814898594391851,0.33459317352036144 l -11.39605465842135 25.99639284211717" fill="red" stroke="none" /><path d="M 108.76106565485865 80.91482961587045 l 6.042125112379574 -13.162210145981675 a35.48278467010508,35.48278467010508 0 0,0 0.5528923937058566,0.2595903923225063 l -6.267795717385028 13.056254771019164" fill="red" stroke="none" /><path d="M 109.41281617654863 81.2277094730956 l 11.573384435536706 -23.081183242984604 a46.82022941782192,46.82022941782192 0 0,0 0.7173294182796489,0.36744398926860017 l -11.96897434140511 22.878546728403503" fill="red" stroke="none" /><path d="M 110.05341064243156 81.56283822128135 l 6.8330408672408 -12.531257738363323 a35.27315199942443,35.27315199942443 0 0,0 0.5305685247199409,0.2952608095722937 l -7.047733481032775 12.411781531230849" fill="red" stroke="none" /><line stroke="#e1ed5e" stroke-width="0.3" x1="143.23703022742887" x2="145.7803849466894" y1="26.81831364943548" y2="22.513508569990506" /><path d="M 143.74570117128098 25.957352633546492 a86.0,86.0 0 0,1 28.547481713284135,27.462654790039103" fill="none" id="id134" stroke="none" /><text fill="#e1ed5e" style="font-size:6.75px; font-family:Arial;" text-anchor="middle"><textPath startOffset="19.985693538727396" xlink:href="#id134">February</textPath></text><path d="M 110.68208982089419 81.91981866633111 l 15.945392746013251 -26.988688273392075 a52.34716645157809,52.34716645157809 0 0,0 0.7718413552108592,0.4650257803226741 l -16.407596167441746 26.710215883610786" fill="red" stroke="none" /><path d="M 111.2981086023043 82.29822771554956 l 15.401496053158949 -24.130921871053463 a49.627040905800186,49.627040905800186 0 0,0 0.7161252289147534,0.4657877692053489 l -15.814588307857983 23.862235177688586" fill="red" stroke="none" /><path d="M 111.90073688211348 82.69761687909136 l 16.47905480228586 -23.95876175433627 a50.078884297334845,50.078884297334845 0 0,0 0.706038009754006,0.49462474574944687 l -16.889023951623514 23.671552165822888" fill="red" stroke="none" /><path d="M 112.48926042617603 83.11751280151076 l 16.808264793907767 -22.720746107369692 a49.26216674385873,49.26216674385873 0 0,0 0.6773638153088135,0.510176382466001 l -17.196874762974964 22.428053135397843" fill="red" stroke="none" /><path d="M 113.06298171725822 83.55741782278167 l 17.87714004155955 -22.502239579699822 a49.73922271335363,49.73922271335363 0 0,0 0.6657869744175035,0.538353430931752 l -18.261830414541542 22.19118005150394" fill="red" stroke="none" /><path d="M 113.6212207817346 84.01681056812373 l 19.79927669543189 -23.23254245034869 a51.52478315024574,51.52478315024574 0 0,0 0.6700827524625155,0.5810891598304029 l -20.19625324654117 22.888288297098615" fill="red" stroke="none" /><path d="M 114.16331599549186 84.49514656593476 l 19.409160777529944 -21.2475802438918 a49.77803308616883,49.77803308616883 0 0,0 0.6276586057817514,0.5833402693681409 l -19.772027267106544 20.91033538844902" fill="red" stroke="none" /><path d="M 114.94478906791727 85.2469230424477 l 10.212822458879078 -10.081812128958957 a35.35077274505484,35.35077274505484 0 0,0 0.42376441931621167,0.4367264840494474 l -10.384851141898398 9.904521449359395" fill="red" stroke="none" /><path d="M 115.9244219780498 86.31012108654704 l 28.889218213833797 -24.835432004806645 a59.09705516010234,59.09705516010234 0 0,0 0.6565102734770605,0.7771010897970138 l -29.312439100797974 24.334471965380523" fill="red" stroke="none" /><path d="M 116.38621287248628 86.86637796730983 l 22.901454637249174 -18.355617099876778 a50.349707044862825,50.349707044862825 0 0,0 0.5362145963749005,0.6809380839513014 l -23.21402331421804 17.95868662197244" fill="red" stroke="none" /><path d="M 116.82858285166822 87.43820079747576 l 22.693149763719997 -16.939441254044908 a49.31825764763545,49.31825764763545 0 0,0 0.5019597878564508,0.6846725865224431 l -22.981372164090075 16.54630622385097" fill="red" stroke="none" /><path d="M 117.2510076193507 88.02491185347247 l 23.534594582725163 -16.336949750389753 a49.64913732243951,49.64913732243951 0 0,0 0.4813023647381931,0.7062518306608652 l -23.81232141313209 15.929419896458482" fill="red" stroke="none" /><line stroke="#e1ed5e" stroke-width="0.3" x1="172.23445277983987" x2="176.4835382374775" y1="55.19839476539836" y2="52.563006222186495" /><path d="M 173.08426987136738 54.67131705675599 a86.0,86.0 0 0,1 12.851231095245387,41.99856678651699" fill="none" id="id135" stroke="none" /><text fill="#e1ed5e" style="font-size:6.75px; font-family:Arial;" text-anchor="middle"><textPath startOffset="22.20632615414155" xlink:href="#id135">March</textPath></text><path d="M 117.84615892207809 88.93136811851018 l 24.057876334725737 -14.921293605093425 a49.30947573845829,49.30947573845829 0 0,0 0.44116530885928784,0.7251597711571174 l -24.31115744187125 14.504966060729226" fill="red" stroke="none" /><path d="M 118.21658344932153 89.55222093294921 l 27.53707118828816 -15.79336963647812 a52.74461866369289,52.74461866369289 0 0,0 0.44491934091512947,0.7914618620538412 l -27.80484817049572 15.317024264489485" fill="red" stroke="none" /><path d="M 118.56541770881063 90.18545643968196 l 26.936380885566535 -14.239824156137852 a51.46869224646902,51.46869224646902 0 0,0 0.407314816140391,0.786802579081145 l -27.17750513486704 13.774048854796362" fill="red" stroke="none" /><path d="M 118.89224826269711 90.83032412892265 l 25.197423241251098 -12.230000405236996 a49.00862452729227,49.00862452729227 0 0,0 0.3618278887639334,0.7621018113529681 l -25.404209323856787 11.794456178243488" fill="red" stroke="none" /><path d="M 119.196687751892 91.48605970444005 l 27.205917853467618 -12.066121160276854 a50.761606914011026,50.761606914011026 0 0,0 0.34737688080273305,0.8017937350255274 l -27.40958544411303 11.596028280664722" fill="red" stroke="none" /><path d="M 119.47837535516314 92.15188598940014 l 58.435126065489385 -23.54434203179955 a84.0,84.0 0 0,0 0.5288258004731983,1.3458039804168624 l -58.83174541584429 22.534989046486903" fill="red" stroke="none" /><path d="M 119.85752413597 93.16781622104841 l 26.776838503229396 -9.212844482559841 a49.317407785457014,49.317407785457014 0 0,0 0.2692794019448418,0.8051111372858639 l -26.931455198946008 8.750560242351664" fill="red" stroke="none" /><path d="M 120.08093135843002 93.85539295169968 l 32.83340497367049 -10.046763669465953 a55.33613173313428,55.33613173313428 0 0,0 0.2708680008960096,0.9132322433251027 l -33.001478871678195 9.480102039394321" fill="red" stroke="none" /><path d="M 120.28053869075195 94.5502522615342 l 28.191251942162626 -7.5754995396832765 a50.19134939228109,50.19134939228109 0 0,0 0.21702660158087508,0.8362920266136041 l -28.317474875613804 7.089111087520822" fill="red" stroke="none" /><path d="M 120.45610955862082 95.25157060432595 l 27.580412458199053 -6.402177348827074 a49.31372504935047,49.31372504935047 0 0,0 0.18482223615343346,0.8285218446772205 l -27.686529081354525 5.92647733459989" fill="red" stroke="none" /><path d="M 120.6074358757038 95.95851677861258 l 28.641490158331962 -5.617103583804238 a50.18710008138892,50.18710008138892 0 0,0 0.15895993480842982,0.8491703279760897 l -28.733935817050252 5.123255178365586" fill="red" stroke="none" /><path d="M 120.73433829027371 96.67025291283417 l 42.01792131328151 -6.747697907836886 a63.556282010351225,63.556282010351225 0 0,0 0.1641692254272095,1.0816700763599367 l -42.127846432148026 6.023428719084868" fill="red" stroke="none" /><path d="M 120.87857604477298 97.74499172005257 l 28.603467986892483 -3.0893417734683974 a49.769817751777296,49.769817751777296 0 0,0 0.08466290211262498,0.8525438703664323 l -28.652408014687335 2.59652237239753" fill="red" stroke="none" /><path d="M 120.94382443527127 98.46500227214037 l 16.9933073350066 -1.2454596450935977 a38.03888681544501,38.03888681544501 0 0,0 0.0422402075898147,0.6534373154560245 l -17.012228133600832 0.9527632653845381" fill="red" stroke="none" /><path d="M 120.98425023603335 99.18683210126433 l 14.920879584079941 -0.5782041370169893 a35.93207847510443,35.93207847510443 0 0,0 0.01863044996574649,0.6182539341963261 l -14.928621728501332 0.321280055395664" fill="red" stroke="none" /><line stroke="#e1ed5e" stroke-width="0.3" x1="184.98032266829074" x2="189.97916517819016" y1="98.17113171792111" y2="98.06355123074" /><path d="M 185.9800911702706 98.14961562048488 a86.0,86.0 0 0,1 -9.607161424134198,41.387399972396054" fill="none" id="id136" stroke="none" /><text fill="#e1ed5e" style="font-size:6.75px; font-family:Arial;" text-anchor="middle"><textPath startOffset="21.466115282336823" xlink:href="#id136">April</textPath></text><path d="M 120.99980553446 99.90962569577887 l 28.64915530863947 -0.12329387875962379 a49.64942060983232,49.64942060983232 0 0,0 -0.0036780827722533854,0.854656903006334 l -28.647032928577715 -0.369872502450395" fill="red" stroke="none" /><path d="M 120.99824983174949 100.27111621757518 l 14.85180342006742 0.19175716070063542 a35.85304129250997,35.85304129250997 0 0,0 -0.013279176558332469,0.6170311551433642 l -14.846302180824079 -0.44737813163411444" fill="red" stroke="none" /><path d="M 120.9904718944345 100.63252640178507 l 3.47237709834727 0.10463653236118224 a24.473953298049814,24.473953298049814 0 0,0 -0.016313483184378988,0.4209785136558189 l -3.4700614823116878 -0.1643922930310073" fill="red" stroke="none" /><path d="M 120.9764740272857 100.99374915477107 l 14.395534354533346 0.6819806836309574 a35.41167953450935,35.41167953450935 0 0,0 -0.03408567926637294,0.6086227007652607 l -14.381662324379443 -0.9296751007316415" fill="red" stroke="none" /><path d="M 120.95626037817324 101.35467743843564 l 20.321981755554834 1.3136757079628645 a41.364397519661495,41.364397519661495 0 0,0 -0.05204713005932341,0.7101417380221111 l -20.29635806683117 -1.6632905824817459" fill="red" stroke="none" /><path d="M 120.89721153311464 102.0752229133903 l 31.324251889301625 3.1106927908768416 a52.4783285144499,52.4783285144499 0 0,0 -0.09700418733346038,0.8981382994967392 l -31.266065400467113 -3.6494274122583725" fill="red" stroke="none" /><path d="M 120.76222939487914 103.15116336523771 l 28.661136006323694 4.350010785041142 a49.989365481206356,49.989365481206356 0 0,0 -0.13644298714167213,0.8496306111761944 l -28.582011264820732 -4.84272062591054" fill="red" stroke="none" /><path d="M 120.64145759157962 103.86396538481128 l 16.773591731504236 3.139922534149352 a38.064949255583684,38.064949255583684 0 0,0 -0.12610386052328101,0.6430008680130267 l -16.71705793800529 -3.4281871292303236" fill="red" stroke="none" /><path d="M 120.5718875245553 104.21870165774334 l 28.393384117748855 5.822665348695552 a49.984266308135744,49.984266308135744 0 0,0 -0.18010035994564397,0.841368923168951 l -28.28894971907877 -6.310548091280672" fill="red" stroke="none" /><path d="M 120.41448212921028 104.9243191809786 l 27.546318441179885 6.644639007087762 a49.336388040775404,49.336388040775404 0 0,0 -0.20624650778707382,0.823852275742247 l -27.42786061909775 -7.117819122227405" fill="red" stroke="none" /><path d="M 120.23288151984713 105.62410040840565 l 27.247233396141247 7.5738681275251265 a49.28029713699868,49.28029713699868 0 0,0 -0.23421602431968302,0.8153367069125307 l -27.112824734935465 -8.04176230994224" fill="red" stroke="none" /><path d="M 120.02730092923936 106.31721596034902 l 28.889909989711015 9.112750695906207 a51.29305406292577,51.29305406292577 0 0,0 -0.27284912418435164,0.8397432576348713 l -28.728768614510418 -9.608692853518875" fill="red" stroke="none" /><path d="M 119.79798401119884 107.00284435728193 l 27.58937459553583 9.758776252066797 a50.2644375396265,50.2644375396265 0 0,0 -0.29554469382676213,0.8132120660159917 l -27.41730564070384 -10.232236115088918" fill="red" stroke="none" /><path d="M 119.67450827220406 107.3425965602758 l 14.184659690109847 5.2937655166929085 a36.14029470882103,36.14029470882103 0 0,0 -0.22253080204890854,0.5809577038763242 l -14.09143460846743 -5.537146787402377" fill="red" stroke="none" /><path d="M 119.41010516605496 108.01547362559984 l 26.141049143954014 10.795041457338966 a49.28228014874836,49.28228014874836 0 0,0 -0.33054099064556947,0.7813012616559554 l -25.951357172116136 -11.243417244661085" fill="red" stroke="none" /><path d="M 119.12269723197855 108.67885076344098 l 25.76687339364909 11.694315195765972 a49.29644451838895,49.29644451838895 0 0,0 -0.3573414359640835,0.7696816624801062 l -25.561757340845173 -12.136116925524908" fill="red" stroke="none" /><line stroke="#e1ed5e" stroke-width="0.3" x1="174.80103733775053" x2="179.2010983576182" y1="140.37084112569926" y2="142.7455964860345" /><path d="M 175.68104954172406 140.8457921977663 a86.0,86.0 0 0,1 -30.038265399797805,32.042727171017184" fill="none" id="id137" stroke="none" /><text fill="#e1ed5e" style="font-size:6.75px; font-family:Arial;" text-anchor="middle"><textPath startOffset="22.206326154141568" xlink:href="#id137">May</textPath></text><line stroke="#e1ed5e" stroke-width="0.3" x1="143.8653032363475" x2="146.44561519142675" y1="172.8068346515853" y2="177.08958963109032" /><path d="M 144.38136562736335 173.6633856474863 a86.0,86.0 0 0,1 -40.68145358897372,12.25698825130547" fill="none" id="id138" stroke="none" /><text fill="#e1ed5e" style="font-size:6.75px; font-family:Arial;" text-anchor="middle"><textPath startOffset="21.466115282336833" xlink:href="#id138">June</textPath></text><line stroke="#e1ed5e" stroke-width="0.3" x1="102.19456741930631" x2="102.32365962044197" y1="184.97166512339345" y2="189.96999836594603" /><path d="M 102.22038585953345 185.97133177190398 a86.0,86.0 0 0,1 -42.740103519485714,-10.115201625700543" fill="none" id="id139" stroke="none" /><text fill="#e1ed5e" style="font-size:6.75px; font-family:Arial;" text-anchor="middle"><textPath startOffset="22.20632615414155" xlink:href="#id139">July</textPath></text><line stroke="#e1ed5e" stroke-width="0.3" x1="58.666819895761336" x2="56.23545636021788" y1="174.27360380694188" y2="178.64263932499728" /><path d="M 58.180547188652646 175.14741091055294 a86.0,86.0 0 0,1 -31.652253787137756,-30.449443065178592" fill="none" id="id140" stroke="none" /><text fill="#e1ed5e" style="font-size:6.75px; font-family:Arial;" text-anchor="middle"><textPath startOffset="22.20632615414155" xlink:href="#id140">August</textPath></text><line stroke="#e1ed5e" stroke-width="0.3" x1="26.63291911575756" x2="22.317208475507996" y1="142.92168965132927" y2="145.44649492493687" /><path d="M 25.769776987707644 143.4266507060508 a86.0,86.0 0 0,1 -11.730757126820373,-40.83630448921669" fill="none" id="id141" stroke="none" /><text fill="#e1ed5e" style="font-size:6.75px; font-family:Arial;" text-anchor="middle"><textPath startOffset="21.46611528233685" xlink:href="#id141">September</textPath></text><line stroke="#e1ed5e" stroke-width="0.3" x1="15.007084014347285" x2="10.007500721073583" y1="101.09737516637583" y2="101.16192664675087" /><path d="M 14.007167355692545 101.11028546245083 a86.0,86.0 0 0,1 10.666146001902534,-42.60595125391555" fill="none" id="id142" stroke="none" /><text fill="#e1ed5e" style="font-size:6.75px; font-family:Arial;" text-anchor="middle"><textPath startOffset="22.20632615414155" xlink:href="#id142">October</textPath></text><line stroke="#e1ed5e" stroke-width="0.3" x1="26.266209847984243" x2="21.928928074336255" y1="57.711370442889674" y2="55.22380399835377" /><path d="M 25.398753493254645 57.213857153982495 a86.0,86.0 0 0,1 29.58750427330803,-30.492523968695096" fill="none" id="id143" stroke="none" /><text fill="#e1ed5e" style="font-size:6.75px; font-family:Arial;" text-anchor="middle"><textPath startOffset="21.46611528233685" xlink:href="#id143">November</textPath></text><line stroke="#e1ed5e" stroke-width="0.3" x1="56.762969772571076" x2="54.21961505331055" y1="26.818313649435495" y2="22.513508569990535" /><path d="M 56.25429882871897 25.957352633546506 a86.0,86.0 0 0,1 42.265352541879196,-11.944610805530505" fill="none" id="id144" stroke="none" /><text fill="#e1ed5e" style="font-size:6.75px; font-family:Arial;" text-anchor="middle"><textPath startOffset="22.20632615414155" xlink:href="#id144">December</textPath></text></svg>