<?xml version="1.0" encoding="utf-8" ?>
<svg baseProfile="full" height="200mm" version="1.1" viewBox="0,0,200,200" width="200mm" xmlns="http://www.w3.org/2000/svg" xmlns:ev="http://www.w3.org/2001/xml-events" xmlns:xlink="http://www.w3.org/1999/xlink"><defs /><rect fill="#1a1a1a" height="200" width="200" x="0" y="0" /><text alignment-baseline="middle" fill="#e1ed5e" style="dominant-baseline: central; font-size:9.0px; font-family:Arial;" text-anchor="middle" x="100.0" y="100.0">2024</text><line stroke="#e1ed5e" stroke-width="0.3" x1="100.0" x2="100.0" y1="15.0" y2="10.0" /><path d="M 100.0 14.0 a86.0,86.0 0 0,1 42.35913384403234,11.155469271406648" fill="none" id="id109" stroke="none" /><text fill="#e1ed5e" style="font-size:6.75px; font-family:Arial;" text-anchor="middle"><textPath startOffset="22.145653131862478" xlink:href="#id109">January</textPath></text><path d="M 100.0 79.0 l 0.0 -26.575769408714194 a47.575769408714194,47.575769408714194 0 0,0 0.8167013460039072,0.007010398807484612 l -0.4562084211550524 26.571853408101145" fill="#e5ff1a" stroke="none" /><path d="M 101.80034050326958 79.07731436759882 l 4.566507140244837 -53.06973495288378 a74.26584041795681,74.26584041795681 0 0,0 1.2692401215039835,0.12019835913040602 l -5.4768468251338325 52.98352483824819" fill="#3fffc2" stroke="none" /><path d="M 102.51750503828377 79.15144685158666 l 3.10227610312594 -25.691296435762414 a46.877921662495325,46.877921662495325 0 0,0 0.798090317048008,0.10332876986665425 l -3.5428442420647395 25.634256069695365" fill="#eeff19" stroke="none" /><path d="M 103.23170211078529 79.25015418208739 l 4.121058799384599 -26.46015374016122 a47.77914975463099,47.77914975463099 0 0,0 0.8093389739389815,0.13317642017205986 l -4.5746752763766505 26.385511321493496" fill="#e2ff1b" stroke="none" /><path d="M 104.64783097203109 79.52079915486377 l 11.146635377597537 -49.11413216594794 a71.36313590966424,71.36313590966424 0 0,0 1.1923347523329413,0.2813877549913611 l -11.988102283670363 48.915548267310356" fill="#3bff9f" stroke="none" /><path d="M 105.69591212413111 79.78721728523813 l 8.223445928011829 -29.182108516966 a51.3186497131207,51.3186497131207 0 0,0 0.8458779417282084,0.24622274087987103 l -8.723183882121642 29.03664208178361" fill="#b4ff20" stroke="none" /><path d="M 106.38641147887787 79.99465700312896 l 17.349856897391064 -54.34817961963238 a78.05034760917565,78.05034760917565 0 0,0 1.2728794940396453,0.41842077229013924 l -18.280259129078452 54.042337925940224" fill="#45ffed" stroke="none" /><path d="M 107.40779381753099 80.34994680014964 l 19.892249493940383 -52.7665551240877 a77.39158562757885,77.39158562757885 0 0,0 1.2391046541713997,0.4793122992332141 l -20.79512641060531 52.417302936716446" fill="#44ffe6" stroke="none" /><path d="M 108.07796709384702 80.6158196554323 l 10.699741466589662 -25.67548441570205 a48.81573237275656,48.81573237275656 0 0,0 0.7707421254606398,0.3289839821993935 l -11.138918667220732 25.488025783843256" fill="#d5ff1c" stroke="none" /><path d="M 108.73861861582097 80.90454125486305 l 21.726571336865142 -47.476479392893935 a73.2116844930306,73.2116844930306 0 0,0 1.1383067268310958,0.5327850246330509 l -22.53836677756774 47.09651813669035" fill="#3effb6" stroke="none" /><path d="M 109.3889696526874 81.21577127319529 l 12.789258703894435 -25.58708459255361 a49.605314823326694,49.605314823326694 0 0,0 0.7584245832427663,0.3872569961928625 l -13.22661050885078 25.363769644687913" fill="#caff1d" stroke="none" /><line stroke="#e1ed5e" stroke-width="0.3" x1="143.13028292997686" x2="145.6673583964461" y1="26.7553504044142" y2="22.446841604673864" /><path d="M 143.63769802327073 25.89364864446614 a86.0,86.0 0 0,1 29.32050498858742,28.57503671076993" fill="none" id="id110" stroke="none" /><text fill="#e1ed5e" style="font-size:6.75px; font-family:Arial;" text-anchor="middle"><textPath startOffset="20.669276256404974" xlink:href="#id110">February</textPath></text><path d="M 110.65571695917076 81.90426304109057 l 27.31898259988775 -46.3936049546744 a74.83951514439333,74.83951514439333 0 0,0 1.1014496498217048,0.6613888674990147 l -28.111365006266887 45.91780208663947" fill="#40ffc9" stroke="none" /><path d="M 111.8722381534696 82.67804972795209 l 28.460226687557455 -41.524321281325406 a71.34137225962252,71.34137225962252 0 0,0 1.0042314210640242,0.7010315244452109 l -29.16885319979524 41.02964494107506" fill="#3bff9f" stroke="none" /><path d="M 112.45986205192187 83.09580414077388 l 22.21830938884416 -30.143403835837198 a58.4470034436504,58.4470034436504 0 0,0 0.8025247023856543,0.6022294980305022 l -22.732487080140576 29.75755531054268" fill="#5eff29" stroke="none" /><path d="M 113.03279911837588 83.53348406188908 l 16.110394076297514 -20.354956630349694 a46.958987975593715,46.958987975593715 0 0,0 0.627795223764027,0.5057073929721593 l -16.4574400704168 20.07540094358413" fill="#edff1a" stroke="none" /><path d="M 114.39649973595853 84.71141617570332 l 21.235322665575428 -22.551176783460082 a51.97570827325778,51.97570827325778 0 0,0 0.6443193776269966,0.6172433886726852 l -21.619314529067736 22.183321264481815" fill="#acff20" stroke="none" /><path d="M 114.91283532996326 85.21462403516908 l 22.164289185445195 -21.97485195465179 a52.21137346425028,52.21137346425028 0 0,0 0.6255747949356969,0.6418948497355176 l -22.538250781531705 21.591134412848533" fill="#a9ff21" stroke="none" /><path d="M 115.6541949942343 86.00192230759917 l 20.0758486610187 -17.95194766650897 a47.9316194180967,47.9316194180967 0 0,0 0.5431997670502197,0.6180616210972463 l -20.38105949202751 17.604673767600428" fill="#e0ff1b" stroke="none" /><path d="M 116.7966241395341 87.39550010848427 l 33.26492186803224 -24.962617523244862 a62.58950950057119,62.58950950057119 0 0,0 0.6375128417814823,0.8649086077629317 l -33.68853672939755 24.387902606213054" fill="#30ff2f" stroke="none" /><path d="M 117.21940702142032 87.97951657250589 l 22.75463287844831 -15.884500963003514 a48.750507892228214,48.750507892228214 0 0,0 0.47313589732864797,0.6903194140401012 l -23.023958512592284 15.491546813893365" fill="#d5ff1c" stroke="none" /><path d="M 117.62189284568427 88.57770195909679 l 26.264121123830137 -17.024085998357503 a52.29893867987687,52.29893867987687 0 0,0 0.4818533038713623,0.7575534273922482 l -26.55249211932739 16.570718896286582" fill="#a8ff21" stroke="none" /><line stroke="#e1ed5e" stroke-width="0.3" x1="172.87174338648825" x2="177.1583165268699" y1="56.24261187166439" y2="53.66864786411523" /><path d="M 173.72905801456457 55.72781907015455 a86.0,86.0 0 0,1 12.242430191666344,42.057860355516425" fill="none" id="id111" stroke="none" /><text fill="#e1ed5e" style="font-size:6.75px; font-family:Arial;" text-anchor="middle"><textPath startOffset="22.145653131862474" xlink:href="#id111">March</textPath></text><path d="M 118.00360718960297 89.18935116829356 l 22.309384822497105 -13.396144585219446 a47.022400752166746,47.022400752166746 0 0,0 0.4096015862088135,0.6955930408425138 l -22.536060118835685 13.011200376083377" fill="#ecff1a" stroke="none" /><path d="M 118.53625476483649 90.13048839642627 l 44.66487683093329 -23.78153115327964 a71.60150636410789,71.60150636410789 0 0,0 0.5683520647683781,1.0898900242221081 l -45.06653696467661 23.011294885953035" fill="#3cffa2" stroke="none" /><path d="M 118.8641267826498 90.77261029715802 l 33.5909247905682 -16.431004577774 a58.39422602114449,58.39422602114449 0 0,0 0.43273108496510104,0.9042415358886097 l -33.868035133493215 15.851950539820287" fill="#5fff29" stroke="none" /><path d="M 119.16976305983485 91.42560881287824 l 46.88901308413334 -20.97285914836412 a72.36575093251483,72.36575093251483 0 0,0 0.4974839303359036,1.1383405896268262 l -47.242130896486216 20.16485648896144" fill="#3dffab" stroke="none" /><path d="M 119.58574465831526 92.42381321644754 l 23.89669803452055 -9.243756159294874 a46.622240434543585,46.622240434543585 0 0,0 0.2823294492904593,0.7489124069993365 l -24.05185816762545 8.83217547210138" fill="#f2ff19" stroke="none" /><path d="M 119.71291397450082 92.76114493625339 l 7.1406312558080325 -2.6221387051815706 a28.60685389110596,28.60685389110596 0 0,0 0.16532013922868477,0.46242985256900115 l -7.184591565080661 2.4991738962316528" fill="#ff0000" stroke="none" /><path d="M 119.83427380445688 93.10060997987247 l 24.279624957603257 -8.445713907977087 a46.70661921562749,46.70661921562749 0 0,0 0.25691882992729936,0.7595348691957017 l -24.42102920910292 8.027677364307223" fill="#f1ff19" stroke="none" /><path d="M 120.05942366710727 93.78553927170692 l 34.667480098296785 -10.740073952025728 a57.293020883646285,57.293020883646285 0 0,0 0.28298299829337253,0.941958366086402 l -34.846739416593785 10.143377982348603" fill="#6cff28" stroke="none" /><path d="M 120.26092885502905 94.47779374421319 l 51.08747242972548 -13.924117786620686 a73.95102355378646,73.95102355378646 0 0,0 0.3233086603568931,1.22765564440173 l -51.3189705708871 13.045081637846158" fill="#3fffbe" stroke="none" /><path d="M 120.43855184770803 95.1765574152323 l 25.576138853392152 -6.03589912918501 a47.27871680553851,47.27871680553851 0 0,0 0.179634670503476,0.7915035030593951 l -25.675984385453297 5.595961292186589" fill="#e9ff1a" stroke="none" /><path d="M 120.592083275326 95.88100663000786 l 54.071462583171815 -10.81580687626355 a76.1425855783711,76.1425855783711 0 0,0 0.24537386101483524,1.2838997259539306 l -54.24916273646881 9.886004585276305" fill="#42ffd8" stroke="none" /><path d="M 120.82617615685814 97.30363454192243 l 62.478528470574396 -8.089096374232712 a84.0,84.0 0 0,0 0.17287165496134538,1.4316252923063482 l -62.6081822117954 7.015377405002951" fill="#4dd2ff" stroke="none" /><path d="M 120.93736805541906 98.37931529534042 l 51.13758970945997 -3.9583728602329313 a72.29056245542345,72.29056245542345 0 0,0 0.08515153144269383,1.2380845789845167 l -51.198005202067726 3.0799448570940804" fill="#3dffab" stroke="none" /><path d="M 120.98066250479742 99.09900007780936 l 26.44627327684347 -1.1357167658180436 a47.47064832612993,47.47064832612993 0 0,0 0.027974482452305008,0.8144465337611599 l -26.461872446292624 0.6815639674927636" fill="#e6ff1a" stroke="none" /><path d="M 120.99303781780057 99.45929381324524 l 11.44542197850875 -0.2947934704595785 a32.44921776613393,32.44921776613393 0 0,0 0.009562581129309588,0.5569724103902065 l -11.448795991236725 0.09827414410030556" fill="#ff3e05" stroke="none" /><line stroke="#e1ed5e" stroke-width="0.3" x1="184.99686870605535" x2="189.99668451229388" y1="99.2704041080226" y2="99.22748670261217" /><path d="M 185.99683186730306 99.26182062694052 a86.0,86.0 0 0,1 -10.086455211305974,41.156179273409016" fill="none" id="id112" stroke="none" /><text fill="#e1ed5e" style="font-size:6.75px; font-family:Arial;" text-anchor="middle"><textPath startOffset="21.40746469413373" xlink:href="#id112">April</textPath></text><path d="M 120.99922638620191 99.81974689727618 l 26.228380662910762 -0.22513910307752155 a47.229346919324655,47.229346919324655 0 0,0 0.0,0.8107844116026937 l -26.228380662910762 -0.22513910307751836" fill="#eaff1a" stroke="none" /><path d="M 120.99303781780057 100.54070618675476 l 51.54134472710582 1.3275222104337376 a72.55843802422213,72.55843802422213 0 0,0 -0.04275873245570067,1.244873841578117 l -51.51096130765328 -2.2121023165759652" fill="#3dffae" stroke="none" /><path d="M 120.93736805541906 101.62068470465957 l 50.41171573631535 3.90218562396367 a71.56251710628075,71.56251710628075 0 0,0 -0.10532086449457578,1.223988092447406 l -50.33730124912304 -4.766994763786733" fill="#3cffa2" stroke="none" /><path d="M 120.86939407059847 102.33845913500097 l 27.193614843116432 3.0471012636238126 a48.36379934048889,48.36379934048889 0 0,0 -0.09953250038343736,0.8242718853318312 l -27.13730025647333 -3.5134668258790525" fill="#dbff1b" stroke="none" /><path d="M 120.77682067341334 103.0534771498775 l 27.029830489153994 3.972454258572286 a48.32017805778081,48.32017805778081 0 0,0 -0.12765387515518598,0.8196294512075301 l -26.95765512186054 -4.435871891711267" fill="#dbff1b" stroke="none" /><path d="M 120.65975698304385 103.76489593502545 l 25.893951104789497 4.718740464187522 a47.32039542608716,47.32039542608716 0 0,0 -0.1524926956741748,0.7979062210469876 l -25.80913211683316 -5.1625492502678245" fill="#e8ff1a" stroke="none" /><path d="M 120.43855184770803 104.8234425847677 l 49.58920890992267 11.702918278326358 a71.95142722771502,71.95142722771502 0 0,0 -0.2940157114806172,1.199684435948505 l -49.381005671925756 -12.552458538882961" fill="#3cffa6" stroke="none" /><path d="M 120.16314734710363 105.8691983318838 l 46.750698883883906 13.608447093112579 a69.69104310258334,69.69104310258334 0 0,0 -0.3442195930183622,1.1457950738028622 l -46.51020297086191 -14.408979770506166" fill="#39ff8b" stroke="none" /><path d="M 120.05942366710727 106.21446072829308 l 42.1960652461946 13.072448875535597 a65.17461761990253,65.17461761990253 0 0,0 -0.3402589393746071,1.0658562813332242 l -41.96544159104273 -13.794874190560204" fill="#33ff51" stroke="none" /><path d="M 119.71291397450082 107.23885506374661 l 48.15659768153797 17.683769707042334 a72.30081491860744,72.30081491860744 0 0,0 -0.4378307234694285,1.1613980114217934 l -47.8459362742541 -18.507835998658287" fill="#3dffab" stroke="none" /><path d="M 119.31412917781788 108.2440532568976 l 49.14847044575031 20.978559484585645 a74.43848898691925,74.43848898691925 0 0,0 -0.5117331277887803,1.1709455419501185 l -48.781103435944566 -21.81916709631161" fill="#40ffc4" stroke="none" /><line stroke="#e1ed5e" stroke-width="0.3" x1="174.33088141563837" x2="178.70328620479359" y1="141.23008692659167" y2="143.65538615756765" /><path d="M 175.20536237346943 141.71514677278685 a86.0,86.0 0 0,1 -30.301960400862466,31.631185727798858" fill="none" id="id113" stroke="none" /><text fill="#e1ed5e" style="font-size:6.75px; font-family:Arial;" text-anchor="middle"><textPath startOffset="22.145653131862474" xlink:href="#id113">May</textPath></text><line stroke="#e1ed5e" stroke-width="0.3" x1="143.1302829299769" x2="145.66735839644613" y1="173.24464959558577" y2="177.55315839532614" /><path d="M 143.63769802327073 174.10635135553383 a86.0,86.0 0 0,1 -40.68552437913181,11.842963189579606" fill="none" id="id114" stroke="none" /><text fill="#e1ed5e" style="font-size:6.75px; font-family:Arial;" text-anchor="middle"><textPath startOffset="21.407464694133747" xlink:href="#id114">June</textPath></text><line stroke="#e1ed5e" stroke-width="0.3" x1="101.45913802915013" x2="101.54496967792366" y1="184.9874750549273" y2="189.98673829345242" /><path d="M 101.47630435890484 185.9873277026323 a86.0,86.0 0 0,1 -42.54439059252881,-10.42667462771756" fill="none" id="id115" stroke="none" /><text fill="#e1ed5e" style="font-size:6.75px; font-family:Arial;" text-anchor="middle"><textPath startOffset="22.145653131862474" xlink:href="#id115">July</textPath></text><line stroke="#e1ed5e" stroke-width="0.3" x1="58.13341422392154" x2="55.67067388415222" y1="173.97424548756322" y2="178.32567169271397" /><path d="M 57.64086615596768 174.84453072859336 a86.0,86.0 0 0,1 -31.369924170532247,-30.572349798747897" fill="none" id="id116" stroke="none" /><text fill="#e1ed5e" style="font-size:6.75px; font-family:Arial;" text-anchor="middle"><textPath startOffset="22.145653131862474" xlink:href="#id116">August</textPath></text><line stroke="#e1ed5e" stroke-width="0.3" x1="26.387840678322732" x2="22.057713659400548" y1="142.50000000000003" y2="145.00000000000006" /><path d="M 25.521815274538298 143.00000000000003 a86.0,86.0 0 0,1 -11.493303480769221,-40.785679425670985" fill="none" id="id117" stroke="none" /><text fill="#e1ed5e" style="font-size:6.75px; font-family:Arial;" text-anchor="middle"><textPath startOffset="21.40746469413373" xlink:href="#id117">September</textPath></text><line stroke="#e1ed5e" stroke-width="0.3" x1="15.003131293944662" x2="10.003315487706104" y1="100.72959589197737" y2="100.7725132973878" /><path d="M 14.003168132696942 100.73817937305945 a86.0,86.0 0 0,1 10.791469493833604,-42.45332614584628" fill="none" id="id118" stroke="none" /><text fill="#e1ed5e" style="font-size:6.75px; font-family:Arial;" text-anchor="middle"><textPath startOffset="22.145653131862435" xlink:href="#id118">October</textPath></text><line stroke="#e1ed5e" stroke-width="0.3" x1="26.387840678322718" x2="22.05771365940052" y1="57.49999999999999" y2="54.99999999999999" /><path d="M 25.521815274538284 56.99999999999999 a86.0,86.0 0 0,1 29.574782752854787,-30.34633250058573" fill="none" id="id119" stroke="none" /><text fill="#e1ed5e" style="font-size:6.75px; font-family:Arial;" text-anchor="middle"><textPath startOffset="21.40746469413373" xlink:href="#id119">November</textPath></text><line stroke="#e1ed5e" stroke-width="0.3" x1="56.869717070023135" x2="54.33264160355391" y1="26.7553504044142" y2="22.446841604673864" /><path d="M 56.362301976729285 25.89364864446614 a86.0,86.0 0 0,1 42.16139366436587,-11.88097634709845" fill="none" id="id120" stroke="none" /><text fill="#e1ed5e" style="font-size:6.75px; font-family:Arial;" text-anchor="middle"><textPath startOffset="22.145653131862474" xlink:href="#id120">December</textPath></text></svg>